<?xml version="1.0" encoding="iso-8859-1"?>
<!-- Generator: Adobe Illustrator 19.0.0, SVG Export Plug-In . SVG Version: 6.00 Build 0)  -->
<svg xmlns="http://www.w3.org/2000/svg" xmlns:xlink="http://www.w3.org/1999/xlink" version="1.1" id="Layer_1" x="0px" y="0px" viewBox="0 0 512.003 512.003" style="enable-background:new 0 0 512.003 512.003;" xml:space="preserve">
<g transform="translate(0 -1)">
	<g>
		<path d="M401.135,182.781c-1.487-65.558-11.577-109.058-34.198-133.977V18.067c0-4.713-3.82-8.533-8.533-8.533h-74.777    C278.945,4.298,272.142,1,264.568,1h-17.135c-7.573,0-14.376,3.298-19.058,8.532h-74.774c-4.713,0-8.533,3.82-8.533,8.533v30.736    c-22.622,24.918-32.713,68.419-34.2,133.979c-1.137,50.091,0.898,84.77,10.945,217.05c2.817,37.084,4.61,62.228,6.205,88.094    c0.234,3.797,2.953,6.98,6.666,7.805c0.622,0.138,1.79,0.393,3.451,0.748c2.756,0.589,5.896,1.245,9.366,1.951    c9.907,2.015,20.484,4.03,31.301,5.911c0.004,0.001,0.008,0.003,0.013,0.003c2.498,0.434,4.957,0.849,7.397,1.255    c0.281,0.047,0.561,0.093,0.842,0.139c22.493,3.721,42.437,6.196,58.55,6.986c0.407,0.02,0.807,0.037,1.209,0.055    c0.944,0.042,1.875,0.078,2.792,0.108c0.661,0.022,1.318,0.042,1.963,0.057c0.487,0.011,0.969,0.021,1.448,0.029    c0.756,0.012,1.499,0.02,2.233,0.023c0.248,0.001,0.508,0.008,0.753,0.008c0.245,0,0.506-0.007,0.753-0.008    c0.734-0.003,1.477-0.01,2.233-0.023c0.479-0.008,0.961-0.017,1.448-0.029c0.646-0.015,1.302-0.035,1.963-0.057    c0.916-0.03,1.848-0.066,2.792-0.108c0.402-0.018,0.802-0.035,1.209-0.055c16.114-0.79,36.057-3.264,58.55-6.986    c0.281-0.046,0.561-0.092,0.842-0.139c2.44-0.406,4.899-0.821,7.397-1.255c0.004-0.001,0.008-0.003,0.013-0.003    c10.817-1.881,21.394-3.896,31.301-5.911c3.47-0.706,6.61-1.362,9.366-1.951c1.661-0.355,2.829-0.61,3.451-0.748    c3.713-0.825,6.432-4.008,6.666-7.805c1.595-25.867,3.388-51.01,6.205-88.094C400.237,267.551,402.271,232.872,401.135,182.781z     M290.136,26.6h59.733v17.067h-59.733V26.6z M332.127,315.093c-1.969,39.466-4.063,81.751-6.146,124.036    c-0.729,14.8-1.405,28.542-2.01,40.875c-0.252,5.128-0.315,6.429-0.425,8.664c-0.285,0.047-0.577,0.099-0.861,0.146    c-0.037,0.006-0.074,0.012-0.111,0.018c-7.529,1.247-14.851,2.364-21.882,3.326c-12.237,1.674-23.237,2.828-32.704,3.387    c-0.033,0.002-0.066,0.004-0.099,0.006c-2.287,0.134-4.476,0.231-6.579,0.294c-0.413,0.012-0.825,0.025-1.231,0.034    c-0.507,0.012-1.009,0.023-1.504,0.03c-0.557,0.009-1.103,0.013-1.645,0.016c-0.308,0.002-0.625,0.007-0.928,0.007    c-0.304,0-0.62-0.005-0.928-0.007c-0.543-0.003-1.089-0.007-1.645-0.016c-0.495-0.008-0.998-0.018-1.504-0.03    c-0.406-0.01-0.818-0.022-1.231-0.034c-2.103-0.064-4.293-0.16-6.579-0.294c-0.033-0.002-0.066-0.004-0.099-0.006    c-9.468-0.559-20.467-1.714-32.704-3.387c-7.03-0.961-14.353-2.079-21.882-3.326c-0.037-0.006-0.074-0.012-0.111-0.018    c-0.284-0.047-0.576-0.099-0.861-0.146c-0.11-2.234-0.173-3.535-0.425-8.664c-0.605-12.333-1.281-26.076-2.01-40.875    c-2.083-42.285-4.177-84.57-6.146-124.036c-0.134-2.689-0.134-2.689-0.268-5.378c-4.848-97.093-8.078-159.765-8.959-172.757    c-1.731-25.564,6.144-47.227,23.342-59.476c11.152-7.941,16.752-12.066,22.438-16.747h11.948c3.523,3.938,8.247,6.775,13.596,7.94    c0.018,0.004,0.035,0.008,0.053,0.012c0.366,0.079,0.735,0.148,1.107,0.211c0.088,0.015,0.175,0.033,0.263,0.047    c0.292,0.046,0.587,0.083,0.882,0.12c0.161,0.02,0.32,0.044,0.482,0.061c0.197,0.021,0.397,0.032,0.595,0.048    c0.687,0.056,1.379,0.094,2.078,0.094h17.135c0.708,0,1.408-0.038,2.104-0.096c0.188-0.015,0.378-0.026,0.565-0.046    c0.172-0.018,0.342-0.044,0.513-0.065c0.284-0.035,0.568-0.07,0.849-0.115c0.099-0.016,0.197-0.036,0.296-0.053    c0.36-0.061,0.717-0.128,1.071-0.204c0.029-0.006,0.059-0.014,0.088-0.02c5.338-1.168,10.053-4.003,13.57-7.934h11.95    c5.686,4.681,11.286,8.806,22.132,16.529c17.504,12.466,25.379,34.13,23.648,59.694c-0.881,12.992-4.11,75.664-8.959,172.757    C332.261,312.404,332.261,312.404,332.127,315.093z M247.433,18.067h17.135c2.912,0,5.482,1.469,7.014,3.704    c0.095,0.196,0.178,0.393,0.29,0.586c0.591,1.016,0.963,2.056,1.117,3.11c0.002,0.017,0.006,0.033,0.008,0.05    c0.042,0.305,0.06,0.612,0.065,0.92c0.001,0.043,0.006,0.085,0.006,0.128v17.135c0,0.043-0.006,0.085-0.006,0.128    c-0.005,0.307-0.023,0.614-0.065,0.919c-0.002,0.017-0.006,0.034-0.008,0.051c-0.153,1.053-0.525,2.091-1.114,3.106    c-0.003,0.005-0.007,0.01-0.01,0.015c-1.148,1.979-2.964,3.388-5.069,3.975c-0.024,0.006-0.048,0.012-0.072,0.018    c-0.294,0.079-0.595,0.137-0.899,0.184c-0.073,0.011-0.145,0.025-0.219,0.034c-0.34,0.043-0.685,0.069-1.034,0.069    c-0.001,0-0.002,0-0.003,0h-17.134c-0.351,0-0.697-0.027-1.039-0.07c-0.071-0.009-0.141-0.022-0.211-0.032    c-0.308-0.047-0.614-0.106-0.912-0.186c-0.02-0.005-0.039-0.01-0.059-0.015c-2.107-0.586-3.925-1.996-5.074-3.977    c-0.001-0.001-0.001-0.002-0.002-0.003c-0.002-0.003-0.002-0.005-0.004-0.008c-0.795-1.367-1.198-2.777-1.198-4.209V26.565    c0-1.431,0.403-2.842,1.198-4.209c0.114-0.196,0.198-0.397,0.295-0.597C241.961,19.531,244.526,18.067,247.433,18.067z     M162.135,26.599h59.732v17.067h-59.732V26.599z M144.648,480.413c-1.503-23.774-3.23-47.803-5.818-81.874    c-9.993-131.565-12.019-166.094-10.901-215.37c1.391-61.325,10.588-101.298,29.354-122.435h30.795    c-1.159,0.83-2.374,1.698-3.683,2.63c-22.9,16.309-32.875,43.751-30.776,74.75c0.87,12.832,4.105,75.612,8.941,172.455    c0.134,2.688,0.134,2.688,0.268,5.377c1.969,39.462,4.062,81.744,6.145,124.026c0.729,14.799,1.404,28.54,2.01,40.872    c0.106,2.162,0.179,3.642,0.236,4.8c-6.981-1.286-13.799-2.611-20.318-3.937C148.672,481.251,146.583,480.819,144.648,480.413z     M373.172,398.538c-2.588,34.072-4.315,58.1-5.818,81.874c-1.934,0.406-4.024,0.838-6.254,1.292    c-6.519,1.326-13.338,2.651-20.318,3.937c0.057-1.158,0.129-2.638,0.236-4.8c0.605-12.332,1.281-26.074,2.01-40.872    c2.083-42.282,4.176-84.563,6.145-124.026c0.134-2.689,0.134-2.689,0.268-5.377c4.836-96.842,8.071-159.622,8.941-172.454    c2.099-31-7.876-58.441-30.469-74.532c-1.422-1.013-2.742-1.955-3.989-2.848h30.794c18.766,21.136,27.963,61.11,29.354,122.435    C385.191,232.445,383.165,266.973,373.172,398.538z"/>
	</g>
</g>
<g>
</g>
<g>
</g>
<g>
</g>
<g>
</g>
<g>
</g>
<g>
</g>
<g>
</g>
<g>
</g>
<g>
</g>
<g>
</g>
<g>
</g>
<g>
</g>
<g>
</g>
<g>
</g>
<g>
</g>
</svg>
