<?xml version="1.0" encoding="iso-8859-1"?>
<!-- Generator: Adobe Illustrator 19.0.0, SVG Export Plug-In . SVG Version: 6.00 Build 0)  -->
<svg xmlns="http://www.w3.org/2000/svg" xmlns:xlink="http://www.w3.org/1999/xlink" version="1.1" id="Layer_1" x="0px" y="0px" viewBox="0 0 512 512" style="enable-background:new 0 0 512 512;" xml:space="preserve">
<g transform="translate(0 -1)">
	<g>
		<path d="M485.062,466.375c0.134-0.212,0.27-0.423,0.384-0.645c0.058-0.114,0.101-0.234,0.154-0.35    c0.093-0.203,0.192-0.403,0.269-0.612c0.05-0.135,0.082-0.276,0.125-0.414c0.061-0.196,0.13-0.39,0.178-0.59    c0.037-0.157,0.054-0.318,0.083-0.476c0.033-0.186,0.076-0.37,0.097-0.557c0.012-0.107,0.008-0.215,0.016-0.322    c0.018-0.242,0.039-0.483,0.037-0.727c-0.002-0.154-0.023-0.308-0.033-0.462c-0.013-0.197-0.016-0.395-0.043-0.591    c-0.016-0.116-0.048-0.23-0.069-0.345c-0.041-0.233-0.078-0.467-0.139-0.698c-0.038-0.143-0.097-0.282-0.143-0.424    c-0.397-1.223-1.07-2.391-2.075-3.396c-4.676-4.676-13.614-22.233-24.582-48.007c-2.209-5.191-4.488-10.68-6.826-16.43    c-6.128-15.07-12.38-31.234-18.42-47.4c-2.115-5.66-4.051-10.915-5.768-15.629c-0.254-0.698-0.49-1.346-0.706-1.943    c-0.06-0.166-0.116-0.319-0.173-0.477c-0.043-0.119-0.088-0.243-0.13-0.357c-0.042-0.116-0.08-0.22-0.12-0.331    c-0.06-0.167-0.122-0.337-0.178-0.493c-0.008-0.023-0.015-0.043-0.023-0.065c-0.17-0.47-0.322-0.893-0.454-1.26    c-0.001-0.002-0.001-0.004-0.002-0.006c-0.065-0.181-0.125-0.348-0.181-0.504c-0.018-0.049-0.033-0.092-0.05-0.139    c-0.03-0.085-0.06-0.167-0.087-0.244c-7.696-23.13-12.545-54.725-16.885-103.542c-0.222-2.5-0.443-5.042-0.663-7.633    c-0.027-0.322-0.055-0.636-0.082-0.96c-0.146-1.734-0.292-3.489-0.438-5.265c-0.451-5.497-0.903-11.225-1.442-18.193    c-0.289-3.739-1.255-16.369-1.382-18.009c-5.804-75.453-10.046-105.509-21.307-119.881V18.067c0-4.713-3.82-8.533-8.533-8.533    h-91.843C278.943,4.298,272.14,1,264.567,1h-17.135c-7.573,0-14.376,3.298-19.058,8.532h-91.841c-4.713,0-8.533,3.82-8.533,8.533    v30.929c-11.262,14.371-15.504,44.427-21.308,119.884c-0.126,1.641-1.093,14.271-1.382,18.009    c-0.538,6.968-0.991,12.696-1.442,18.193c-4.663,56.89-9.678,92.23-18.097,117.487c-0.322,0.895-1.047,2.908-2.076,5.732    c-1.717,4.714-3.654,9.969-5.768,15.629c-6.04,16.166-12.292,32.33-18.42,47.4c-2.338,5.75-4.617,11.238-6.826,16.43    c-10.968,25.774-19.906,43.331-24.582,48.007c-1.699,1.699-2.492,3.85-2.5,5.976c-0.054,3.524,2.062,7.001,5.841,8.257    c1.04,0.346,3.001,0.982,5.805,1.868c4.652,1.47,9.988,3.106,15.93,4.867c16.962,5.026,35.395,10.051,54.674,14.741    c29.241,7.115,57.78,12.813,84.658,16.576C215.566,511.281,236.847,513,256,513c20.147-0.183,40.972-1.897,63.493-5.05    c12.243-1.714,24.843-3.848,37.685-6.316c0,0,0,0,0,0c0,0,0.001,0,0.001,0c15.35-2.95,31.05-6.386,46.971-10.26    c19.278-4.691,37.712-9.715,54.674-14.741c5.942-1.761,11.278-3.397,15.93-4.867c2.786-0.88,4.738-1.514,5.783-1.861    c0.006-0.002,0.014-0.005,0.02-0.007h0c0.001,0,0.001,0,0.002-0.001c0.179-0.06,0.343-0.14,0.515-0.209    c0.188-0.076,0.385-0.142,0.564-0.23c0.135-0.066,0.255-0.148,0.385-0.22c0.2-0.111,0.405-0.215,0.592-0.339    c0.116-0.077,0.218-0.169,0.329-0.251c0.184-0.136,0.373-0.266,0.543-0.414c0.127-0.111,0.237-0.236,0.356-0.353    c0.137-0.135,0.282-0.263,0.408-0.405c0.091-0.103,0.166-0.217,0.252-0.324c0.137-0.17,0.279-0.336,0.402-0.516    C484.964,466.552,485.008,466.461,485.062,466.375z M389.674,188.203c0.54,6.992,0.995,12.746,1.448,18.272    c4.775,58.258,9.918,94.495,18.916,121.49c0.452,1.27,1.189,3.317,2.23,6.175c1.733,4.757,3.685,10.056,5.817,15.762    c6.093,16.307,12.402,32.617,18.597,47.855c2.371,5.831,4.685,11.404,6.932,16.684c0.686,1.612,1.36,3.18,2.028,4.726    c0.506,1.171,1.007,2.322,1.502,3.455c1.511,3.454,2.975,6.731,4.393,9.829c0.516,1.127,1.026,2.233,1.53,3.312    c0.248,0.532,0.495,1.059,0.741,1.58c1.504,3.191,2.953,6.165,4.348,8.915c0.1,0.198,0.203,0.405,0.303,0.6    c1.035,2.028,2.036,3.918,3.012,5.697c0.154,0.281,0.31,0.572,0.463,0.847c0.745,1.342,1.473,2.609,2.184,3.801    c-3.141,0.967-6.533,1.992-10.156,3.065c-16.717,4.95-34.896,9.902-53.895,14.523c-12.895,3.136-25.721,6.007-38.369,8.557    c-47.065-174.238-34.581-324.616,13.623-413.88c0.17,0.521,0.338,1.054,0.505,1.609c0.041,0.137,0.081,0.282,0.122,0.421    c0.137,0.465,0.274,0.939,0.409,1.428c0.061,0.219,0.121,0.444,0.181,0.668c0.117,0.435,0.233,0.878,0.349,1.331    c0.061,0.238,0.122,0.477,0.182,0.72c0.122,0.491,0.243,0.996,0.364,1.508c0.049,0.209,0.099,0.413,0.148,0.626    c0.168,0.728,0.334,1.473,0.499,2.242c0.021,0.1,0.043,0.206,0.064,0.307c0.143,0.675,0.285,1.365,0.427,2.072    c0.054,0.268,0.107,0.544,0.16,0.816c0.11,0.562,0.219,1.133,0.328,1.716c0.057,0.307,0.115,0.617,0.172,0.93    c0.109,0.599,0.218,1.21,0.326,1.829c0.051,0.291,0.102,0.577,0.152,0.872c0.149,0.873,0.298,1.763,0.445,2.676    c0.007,0.044,0.014,0.085,0.021,0.128c0.154,0.957,0.307,1.942,0.459,2.944c0.048,0.318,0.096,0.645,0.144,0.968    c0.105,0.707,0.211,1.421,0.315,2.15c0.054,0.378,0.108,0.76,0.162,1.144c0.102,0.723,0.203,1.457,0.304,2.201    c0.05,0.37,0.101,0.737,0.151,1.112c0.123,0.921,0.245,1.86,0.367,2.814c0.026,0.204,0.052,0.401,0.079,0.607    c0.147,1.162,0.294,2.351,0.44,3.561c0.041,0.338,0.082,0.688,0.122,1.03c0.106,0.891,0.212,1.792,0.318,2.71    c0.051,0.445,0.102,0.896,0.154,1.347c0.098,0.865,0.196,1.741,0.294,2.629c0.049,0.449,0.099,0.897,0.148,1.352    c0.109,1.006,0.218,2.03,0.327,3.065c0.036,0.346,0.073,0.683,0.109,1.032c0.143,1.375,0.286,2.776,0.429,4.203    c0.034,0.342,0.068,0.696,0.103,1.042c0.11,1.105,0.219,2.222,0.329,3.358c0.05,0.523,0.101,1.053,0.151,1.582    c0.096,1.005,0.191,2.02,0.287,3.048c0.051,0.551,0.102,1.103,0.154,1.661c0.102,1.114,0.205,2.246,0.307,3.388    c0.042,0.465,0.083,0.922,0.125,1.392c0.143,1.611,0.286,3.246,0.43,4.912c0.022,0.26,0.045,0.529,0.067,0.791    c0.122,1.421,0.244,2.86,0.366,4.321c0.049,0.582,0.097,1.174,0.146,1.762c0.097,1.174,0.195,2.36,0.293,3.56    c0.053,0.648,0.106,1.3,0.159,1.956c0.1,1.244,0.201,2.505,0.302,3.776c0.046,0.583,0.092,1.161,0.139,1.75    c0.146,1.859,0.293,3.739,0.44,5.656C388.418,171.823,389.385,184.457,389.674,188.203z M290.135,26.6h76.8v17.067h-76.8V26.6z     M247.432,18.067h17.135c2.912,0,5.482,1.469,7.014,3.704c0.095,0.196,0.178,0.393,0.29,0.586c0.591,1.016,0.963,2.056,1.117,3.11    c0.002,0.017,0.006,0.033,0.008,0.05c0.042,0.305,0.06,0.612,0.065,0.92c0.001,0.043,0.006,0.085,0.006,0.128v17.135    c0,0.043-0.006,0.085-0.006,0.128c-0.005,0.307-0.023,0.614-0.065,0.919c-0.002,0.017-0.006,0.034-0.008,0.051    c-0.153,1.053-0.525,2.091-1.114,3.106c-0.003,0.005-0.007,0.01-0.01,0.015c-1.148,1.979-2.964,3.388-5.069,3.975    c-0.024,0.006-0.048,0.012-0.072,0.018c-0.294,0.079-0.595,0.137-0.899,0.184c-0.073,0.011-0.145,0.025-0.219,0.034    c-0.34,0.043-0.685,0.069-1.034,0.069c-0.001,0-0.002,0-0.003,0h-17.134c-0.349,0-0.693-0.026-1.032-0.069    c-0.074-0.009-0.147-0.023-0.22-0.034c-0.297-0.045-0.592-0.102-0.879-0.178c-0.031-0.008-0.062-0.016-0.092-0.024    c-2.084-0.579-3.884-1.961-5.037-3.905c-0.015-0.027-0.025-0.055-0.04-0.081c-0.795-1.367-1.198-2.777-1.198-4.209V26.565    c0-1.431,0.403-2.842,1.198-4.209c0.114-0.196,0.198-0.397,0.295-0.597C241.959,19.531,244.525,18.067,247.432,18.067z     M111.934,474.792c-19-4.621-37.178-9.572-53.895-14.523c-3.604-1.067-6.978-2.087-10.105-3.05    c5.677-9.537,12.452-23.876,20.452-42.676c2.247-5.28,4.561-10.853,6.932-16.684c6.196-15.238,12.505-31.548,18.597-47.855    c2.132-5.706,4.085-11.005,5.817-15.762c1.041-2.859,1.779-4.905,2.171-6.004c9.058-27.167,14.2-63.403,18.975-121.661    c0.453-5.527,0.908-11.281,1.448-18.272c0.289-3.746,1.256-16.38,1.382-18.015c4.173-54.249,7.851-85.061,12.992-100.783    c48.187,89.269,60.661,239.629,13.603,413.842C137.655,480.799,124.83,477.928,111.934,474.792z M145.067,26.599h76.799v17.067    h-76.799V26.599z M317.127,491.048c-22.326,3.126-42.837,4.783-61.127,4.783c-0.445,0-0.881,0.034-1.308,0.1    c-17.958-0.077-38.024-1.728-59.819-4.78c-9.066-1.269-18.35-2.782-27.788-4.486c47.862-178.053,34.851-332.682-15.679-425.829    h77.056c4.086,4.52,9.764,7.571,16.149,8.273c0.036,0.004,0.071,0.01,0.107,0.014c0.383,0.04,0.77,0.07,1.158,0.093    c0.067,0.004,0.134,0.012,0.202,0.015c0.449,0.023,0.901,0.036,1.355,0.036h0.001h17.134h0.001c0.004,0,0.008,0,0.012,0    c0.452,0,0.902-0.013,1.348-0.036c0.079-0.004,0.156-0.013,0.234-0.018c0.379-0.023,0.756-0.052,1.13-0.092    c0.051-0.005,0.101-0.014,0.152-0.019c0.408-0.046,0.813-0.1,1.214-0.165c0.008-0.001,0.016-0.003,0.024-0.004    c5.903-0.956,11.128-3.932,14.944-8.199h77.025c-50.567,93.119-63.61,247.757-15.762,425.834    C335.46,488.269,326.184,489.78,317.127,491.048z"/>
	</g>
</g>
<g>
</g>
<g>
</g>
<g>
</g>
<g>
</g>
<g>
</g>
<g>
</g>
<g>
</g>
<g>
</g>
<g>
</g>
<g>
</g>
<g>
</g>
<g>
</g>
<g>
</g>
<g>
</g>
<g>
</g>
</svg>
