<?xml version="1.0" encoding="iso-8859-1"?>
<!-- Generator: Adobe Illustrator 19.0.0, SVG Export Plug-In . SVG Version: 6.00 Build 0)  -->
<svg xmlns="http://www.w3.org/2000/svg" xmlns:xlink="http://www.w3.org/1999/xlink" version="1.1" id="Layer_1" x="0px" y="0px" viewBox="0 0 512.001 512.001" style="enable-background:new 0 0 512.001 512.001;" xml:space="preserve">
<g transform="translate(0 -1)">
	<g>
		<path d="M510.784,431.81c-2.248-3.747-32.021-49.403-42.116-66.633c-32.596-55.633-50.534-106.573-50.534-159.377    c0-45.951-8.232-85.463-21.99-118.482c-4.85-11.64-10.065-21.653-15.307-30.041c-2.101-3.362-3.917-6.015-5.368-7.986V18.067    c0-4.713-3.82-8.533-8.533-8.533h-83.31C278.944,4.299,272.141,1,264.567,1h-17.135c-7.573,0-14.376,3.298-19.058,8.532h-83.307    c-4.713,0-8.533,3.82-8.533,8.533v31.223c-1.451,1.971-3.267,4.625-5.37,7.988c-5.242,8.387-10.457,18.401-15.307,30.041    c-13.758,33.019-21.99,72.531-21.99,118.482c0,52.804-17.938,103.744-50.534,159.377C33.238,382.407,3.465,428.063,1.216,431.81    c-2.143,3.572-1.394,8.168,1.771,10.875c2.294,1.962,6.758,5.081,13.654,8.954c11.158,6.266,25.269,12.484,42.593,18.253    c20.463,6.814,44.13,12.552,71.183,16.913c-0.628,2.511-1.232,4.521-1.807,5.959c-2.121,5.302,1.463,11.151,7.15,11.668    c0.74,0.067,2.13,0.193,4.098,0.368c3.277,0.292,6.971,0.618,11.002,0.968c11.518,1.002,23.437,2.003,35.125,2.938    c4.386,0.351,8.666,0.686,12.82,1.004C226.087,511.799,246.054,513,256,513c9.947,0,29.914-1.201,57.194-3.289    c4.154-0.318,8.434-0.654,12.82-1.004c11.688-0.935,23.607-1.937,35.125-2.938c4.031-0.351,7.725-0.676,11.002-0.968    c1.968-0.175,3.358-0.301,4.098-0.368c5.687-0.517,9.271-6.365,7.15-11.668c-0.575-1.438-1.179-3.448-1.807-5.959    c27.054-4.36,50.721-10.099,71.183-16.913c17.324-5.769,31.436-11.987,42.594-18.253c6.895-3.873,11.36-6.992,13.654-8.954    C512.179,439.978,512.927,435.382,510.784,431.81z M290.135,26.6h68.267v17.067H332.8h-42.665V26.6z M247.432,18.067h17.135    c2.912,0,5.482,1.469,7.014,3.704c0.095,0.196,0.178,0.393,0.29,0.586c0.591,1.016,0.964,2.056,1.117,3.111    c0.002,0.016,0.005,0.032,0.007,0.049c0.042,0.307,0.06,0.615,0.065,0.923c0.001,0.042,0.006,0.083,0.006,0.125v17.135    c0,0.042-0.006,0.083-0.006,0.125c-0.005,0.309-0.023,0.617-0.065,0.923c-0.002,0.016-0.005,0.032-0.007,0.049    c-0.153,1.053-0.525,2.092-1.114,3.107c-0.003,0.005-0.007,0.01-0.01,0.015c-1.148,1.979-2.964,3.388-5.069,3.975    c-0.024,0.007-0.048,0.012-0.072,0.019c-0.294,0.079-0.595,0.137-0.898,0.184c-0.073,0.011-0.145,0.025-0.219,0.034    c-0.34,0.043-0.684,0.069-1.034,0.069c-0.001,0-0.002,0-0.003,0h-17.134c-0.351,0-0.697-0.027-1.039-0.07    c-0.071-0.009-0.141-0.022-0.211-0.032c-0.308-0.047-0.614-0.106-0.912-0.186c-0.02-0.005-0.039-0.01-0.059-0.015    c-2.107-0.586-3.925-1.996-5.074-3.977c0-0.001-0.001-0.002-0.002-0.002c-0.002-0.003-0.003-0.006-0.004-0.008    c-0.795-1.367-1.198-2.777-1.198-4.209V26.565c0-1.431,0.403-2.842,1.198-4.209c0.114-0.196,0.198-0.398,0.295-0.597    C241.96,19.531,244.525,18.067,247.432,18.067z M153.6,26.6h68.266v17.067H153.6V26.6z M64.626,453.7    c-16.305-5.429-29.423-11.209-39.628-16.941c-1.856-1.042-3.478-2.001-4.876-2.865c9.055-14.08,29.682-46.001,37.936-60.089    c33.991-58.014,52.876-111.641,52.876-168.005c0-43.649,7.768-80.937,20.677-111.918c4.483-10.76,9.268-19.947,14.026-27.559    c1.42-2.271,2.662-4.135,3.684-5.589h21.224c-1.349,53.783-13.589,211.458-25.285,320.469    c-4.012,36.826-7.988,68.322-11.493,88.862C107.34,465.836,84.366,460.273,64.626,453.7z M359.661,488.766    c-11.482,0.998-23.363,1.997-35.008,2.928c-4.367,0.349-8.628,0.683-12.762,1c-1.589,0.122-3.152,0.24-4.691,0.356V461.8    c0-4.713-3.82-8.533-8.533-8.533s-8.533,3.82-8.533,8.533v32.474c-15.77,1.069-27.543,1.66-34.133,1.66s-18.363-0.592-34.133-1.66    V461.8c0-4.713-3.821-8.533-8.533-8.533c-4.713,0-8.533,3.82-8.533,8.533v31.249c-1.539-0.116-3.102-0.234-4.691-0.356    c-4.134-0.316-8.395-0.65-12.762-1c-11.645-0.932-23.526-1.93-35.008-2.928c-1.688-0.147-3.317-0.289-4.88-0.427    c0.346-1.565,0.698-3.252,1.054-5.053c0.261-0.577,0.469-1.187,0.6-1.832c4.559-22.554,10.225-69.315,15.8-124.255    c11.158-107.348,21.578-243.711,22.718-296.465h40.743c4.086,4.569,9.789,7.659,16.21,8.371c0.04,0.005,0.081,0.011,0.121,0.015    c0.384,0.041,0.771,0.07,1.159,0.094c0.069,0.004,0.138,0.012,0.207,0.016c0.451,0.024,0.905,0.037,1.362,0.037h0.001h17.134    h0.001c0.004,0,0.008,0,0.013,0c0.452,0,0.901-0.013,1.347-0.036c0.079-0.004,0.157-0.013,0.235-0.018    c0.378-0.023,0.755-0.052,1.129-0.092c0.051-0.005,0.101-0.014,0.152-0.019c0.408-0.046,0.813-0.1,1.214-0.165    c0.008-0.001,0.016-0.003,0.024-0.004c5.903-0.956,11.128-3.932,14.944-8.199h40.745c1.139,52.755,11.56,189.117,22.718,296.465    c5.575,54.94,11.241,101.701,15.8,124.255c0.131,0.646,0.339,1.256,0.6,1.832c0.356,1.801,0.708,3.489,1.054,5.053    C362.978,488.477,361.349,488.619,359.661,488.766z M487.002,436.759c-10.205,5.732-23.323,11.512-39.628,16.941    c-19.739,6.573-42.714,12.136-69.14,16.364c-3.505-20.539-7.48-52.036-11.493-88.862    c-11.696-109.011-23.936-266.685-25.285-320.469h21.224c1.022,1.455,2.264,3.318,3.684,5.589    c4.758,7.613,9.543,16.799,14.026,27.559c12.909,30.981,20.677,68.269,20.677,111.918c0,56.364,18.884,109.99,52.876,168.005    c8.254,14.087,28.881,46.009,37.936,60.089C490.481,434.758,488.858,435.717,487.002,436.759z"/>
	</g>
</g>
<g>
</g>
<g>
</g>
<g>
</g>
<g>
</g>
<g>
</g>
<g>
</g>
<g>
</g>
<g>
</g>
<g>
</g>
<g>
</g>
<g>
</g>
<g>
</g>
<g>
</g>
<g>
</g>
<g>
</g>
</svg>
