<?xml version="1.0" encoding="iso-8859-1"?>
<!-- Generator: Adobe Illustrator 19.0.0, SVG Export Plug-In . SVG Version: 6.00 Build 0)  -->
<svg xmlns="http://www.w3.org/2000/svg" xmlns:xlink="http://www.w3.org/1999/xlink" version="1.1" id="Layer_1" x="0px" y="0px" viewBox="0 0 512 512" style="enable-background:new 0 0 512 512;" xml:space="preserve">
<g transform="translate(0 -1)">
	<g>
		<g>
			<path d="M265.568,120.533c-4.678-0.571-8.934,2.758-9.505,7.436c-4.083,33.421-6.865,96.793-8.595,188.505     c-0.089,4.712,3.659,8.604,8.371,8.693c4.712,0.089,8.604-3.659,8.693-8.371c1.719-91.119,4.484-154.116,8.472-186.757     C273.575,125.36,270.246,121.105,265.568,120.533z"/>
			<path d="M297.535,153.605c-4.672,0.623-7.954,4.915-7.331,9.586c1.096,8.218,2.314,35.726,3.564,78.431     c0.138,4.711,4.068,8.418,8.779,8.28s8.418-4.069,8.28-8.779c-1.276-43.592-2.494-71.094-3.706-80.187     C306.498,156.264,302.206,152.982,297.535,153.605z"/>
			<path d="M211.027,214.293c-4.707-0.229-8.709,3.402-8.937,8.109c-1.198,24.664-2.204,51.045-3.019,78.454     c-0.14,4.711,3.565,8.643,8.276,8.783s8.643-3.565,8.783-8.276c0.811-27.307,1.814-53.582,3.006-78.133     C219.365,218.523,215.734,214.522,211.027,214.293z"/>
			<path d="M350.866,248.487c-4.702,0.314-8.259,4.381-7.945,9.084c1.248,18.662,2.323,37.91,3.224,57.433     c0.217,4.708,4.21,8.348,8.918,8.131c4.708-0.217,8.348-4.21,8.131-8.918c-0.907-19.636-1.988-39.001-3.244-57.784     C359.635,251.729,355.568,248.172,350.866,248.487z"/>
			<path d="M384.415,111.016c-4.607-14.811-9.473-27.273-14.97-39.015c-2.46-5.254-8.654-17.305-11.042-21.903V18.067     c0-4.713-3.821-8.533-8.533-8.533h-71.304C272.55,4.226,264.654,1,256,1c-8.654,0-16.55,3.226-22.566,8.533h-71.301     c-4.713,0-8.533,3.82-8.533,8.533v32.024c-2.385,4.593-8.584,16.653-11.045,21.909c-5.497,11.742-10.363,24.204-14.97,39.015     C106.13,179.995,93.867,289.278,93.867,461.8c0,18.853,15.281,34.133,34.133,34.133c8.684,0,16.611-3.243,22.635-8.583     c3.961,7.063,10.108,12.145,18.671,15.163c10.943,3.867,22.546,1.814,31.309-4.488c5.37,9.711,15.57,14.974,29.785,14.974     c11.116,0,19.782-3.248,25.6-9.33c5.818,6.082,14.484,9.33,25.6,9.33c14.215,0,24.415-5.263,29.786-14.974     c8.764,6.301,20.367,8.354,31.315,4.486c8.559-3.017,14.704-8.098,18.665-15.161c6.024,5.34,13.95,8.583,22.635,8.583     c18.853,0,34.133-15.281,34.133-34.133C418.133,289.278,405.87,179.995,384.415,111.016z M341.337,43.667h-52.279     c0.335-1.302,0.585-2.637,0.766-3.995c0.021-0.151,0.039-0.302,0.058-0.453c0.057-0.479,0.103-0.961,0.14-1.445     c0.018-0.227,0.039-0.454,0.052-0.682c0.027-0.486,0.04-0.975,0.047-1.466c0.002-0.164,0.016-0.327,0.016-0.492     s-0.013-0.327-0.016-0.492c-0.007-0.491-0.02-0.98-0.047-1.466c-0.013-0.228-0.034-0.455-0.052-0.682     c-0.037-0.485-0.083-0.966-0.14-1.445c-0.018-0.151-0.037-0.303-0.058-0.453c-0.18-1.357-0.431-2.693-0.766-3.995h52.279V43.667z      M268.051,23.049c0.179,0.245,0.352,0.493,0.563,0.727c2.136,2.373,3.559,5.178,4.148,8.192c0.039,0.205,0.064,0.415,0.095,0.623     c0.046,0.294,0.096,0.587,0.126,0.884c0.053,0.546,0.084,1.098,0.084,1.658s-0.031,1.112-0.084,1.658     c-0.03,0.297-0.08,0.59-0.126,0.884c-0.031,0.208-0.057,0.417-0.095,0.623c-0.587,3.005-2.004,5.802-4.13,8.171     c-0.006,0.006-0.012,0.011-0.018,0.018C265.34,50.119,260.839,52.2,256,52.2c-4.838,0-9.338-2.081-12.613-5.712     c-2.145-2.383-3.572-5.201-4.155-8.229c-0.015-0.08-0.023-0.163-0.037-0.244c-0.074-0.417-0.138-0.837-0.18-1.261     c-0.05-0.534-0.082-1.074-0.082-1.621s0.031-1.087,0.082-1.621c0.042-0.424,0.106-0.844,0.18-1.261     c0.014-0.081,0.022-0.163,0.037-0.244c0.584-3.029,2.011-5.848,4.157-8.231c0.214-0.238,0.39-0.489,0.571-0.738     c3.086-3.072,7.34-4.972,12.04-4.972C260.705,18.067,264.964,19.971,268.051,23.049z M170.667,26.6h52.275     c-0.343,1.333-0.597,2.701-0.778,4.092c-0.011,0.081-0.021,0.162-0.031,0.243c-0.07,0.57-0.126,1.144-0.167,1.722     c-0.011,0.147-0.025,0.294-0.034,0.441c-0.04,0.674-0.066,1.352-0.066,2.036s0.026,1.362,0.066,2.036     c0.009,0.148,0.023,0.294,0.034,0.441c0.042,0.578,0.097,1.152,0.167,1.722c0.01,0.081,0.02,0.162,0.031,0.243     c0.181,1.391,0.435,2.759,0.778,4.092h-30.073c-0.004,0-0.008,0-0.012,0h-22.191V26.6z M384,478.867     c-9.427,0-17.067-7.64-17.067-17.067c0-0.801-0.003-2.343-0.014-4.578c-0.017-3.717-0.048-8.031-0.096-12.895     c-0.136-13.889-0.382-29.402-0.763-46.159c-0.107-4.712-4.014-8.444-8.725-8.337s-8.444,4.014-8.337,8.725     c0.38,16.68,0.624,32.12,0.76,45.938c0.047,4.833,0.078,9.118,0.095,12.806c0.01,2.208,0.013,3.724,0.013,4.499     c0,14.441-3.811,21.433-12.847,24.618c-8.502,3.005-17.778-1.143-21.312-9.285c-0.007-0.455-0.017-1.082-0.031-1.989     c-0.063-4.061-0.099-6.326-0.16-10.152c-0.175-10.932-0.377-23.113-0.604-36.23c-0.65-37.48-1.37-74.961-2.141-109.945     c-0.283-12.834-0.568-25.117-0.856-36.777c-0.116-4.711-4.029-8.437-8.741-8.321c-4.711,0.116-8.437,4.029-8.321,8.741     c0.287,11.644,0.572,23.913,0.854,36.732c0.771,34.955,1.491,72.41,2.14,109.865c0.227,13.11,0.429,25.283,0.604,36.207     c0.061,3.823,0.097,6.086,0.16,10.143c0.043,2.773,0.045,2.952,0.053,3.473c-0.008,12.347-4.723,17.053-17.066,17.053     c-12.306,0-17.06-4.779-17.066-17.156c0.019-1.42,0.055-4.054,0.107-7.798c0.089-6.371,0.193-13.641,0.311-21.683     c0.337-22.98,0.72-47.547,1.142-72.7c0.079-4.712-3.677-8.596-8.389-8.675c-4.712-0.079-8.596,3.677-8.675,8.389     c-0.422,25.165-0.805,49.745-1.143,72.736c-0.118,8.047-0.222,15.321-0.311,21.696c-0.053,3.826-0.09,6.501-0.108,7.904     c0,0.018,0.002,0.035,0.002,0.053c0,0.02-0.003,0.037-0.003,0.057c0,12.394-4.753,17.178-17.067,17.178     c-12.354,0-17.067-4.713-17.067-17.067c0-0.411,0-0.411,0.003-2.423c0.003-1.995,0.01-4.335,0.02-7.002     c0.028-7.622,0.078-16.329,0.157-25.974c0.224-27.56,0.626-57.103,1.253-87.451c0.097-4.712-3.644-8.61-8.355-8.708     c-4.712-0.097-8.61,3.644-8.708,8.355c-0.628,30.424-1.032,60.037-1.256,87.664c-0.079,9.671-0.129,18.403-0.157,26.05     c-0.01,2.678-0.016,5.029-0.02,7.035c0,0.306-0.001,0.554-0.001,0.776c-3.552,8.104-12.805,12.225-21.282,9.23     c-9.041-3.187-12.853-10.179-12.853-24.62c0-0.012-0.002-0.024-0.002-0.036c0-3.374,0.005-6.476,0.026-11.016     c0.031-6.905,0.089-14.511,0.182-22.787c0.253-22.677,0.719-46.86,1.453-71.871c0.138-4.711-3.569-8.642-8.28-8.78     c-4.711-0.138-8.642,3.569-8.78,8.28c-0.737,25.12-1.205,49.405-1.459,72.181c-0.093,8.315-0.151,15.959-0.182,22.901     c-0.021,4.585-0.026,7.716-0.026,11.127c0,0.006,0.001,0.012,0.001,0.018c-0.009,9.419-7.644,17.051-17.066,17.051     c-9.427,0-17.067-7.64-17.067-17.067c0-170.95,12.084-278.636,32.948-345.716c4.372-14.056,8.956-25.796,14.13-36.848     c1.93-4.123,6.448-12.973,9.299-18.504h12.246c-9.93,26.951-17.478,74.725-23.537,139.32c-3.605,38.39-5.433,62.204-6.863,92.045     c-0.226,4.707,3.408,8.706,8.115,8.932c4.707,0.226,8.706-3.408,8.932-8.115c1.416-29.541,3.224-53.114,6.808-91.267     c6.449-68.764,14.807-118.605,24.945-140.915h21.046c-3.77,13.478-6.927,33.454-9.68,59.726c-0.491,4.687,2.91,8.885,7.598,9.376     c4.687,0.491,8.885-2.91,9.376-7.598c2.869-27.376,6.23-47.644,9.842-59.351c4.379,3.139,9.528,5.267,15.113,6.045     c0.115,0.016,0.232,0.029,0.347,0.044c0.388,0.05,0.775,0.098,1.167,0.135c0.253,0.024,0.507,0.039,0.76,0.058     c0.275,0.02,0.548,0.044,0.824,0.057c0.547,0.027,1.097,0.042,1.649,0.042c0.552,0,1.101-0.015,1.649-0.042     c0.276-0.013,0.55-0.038,0.824-0.057c0.254-0.019,0.508-0.034,0.76-0.058c0.392-0.037,0.779-0.085,1.167-0.135     c0.116-0.015,0.232-0.028,0.347-0.044c6.782-0.944,12.923-3.879,17.818-8.197h33.759c9.655,23.637,17.752,70.082,24.476,133.313     c0.498,4.686,4.701,8.081,9.388,7.583c4.686-0.498,8.082-4.701,7.583-9.388c-6.353-59.751-13.825-104.575-23.225-131.509h14.142     c2.851,5.531,7.369,14.38,9.299,18.504c5.174,11.052,9.758,22.792,14.13,36.848c20.865,67.08,32.948,174.765,32.948,345.716     C401.067,471.227,393.427,478.867,384,478.867z"/>
		</g>
	</g>
</g>
<g>
</g>
<g>
</g>
<g>
</g>
<g>
</g>
<g>
</g>
<g>
</g>
<g>
</g>
<g>
</g>
<g>
</g>
<g>
</g>
<g>
</g>
<g>
</g>
<g>
</g>
<g>
</g>
<g>
</g>
</svg>
