<?xml version="1.0" encoding="iso-8859-1"?>
<!-- Generator: Adobe Illustrator 19.0.0, SVG Export Plug-In . SVG Version: 6.00 Build 0)  -->
<svg xmlns="http://www.w3.org/2000/svg" xmlns:xlink="http://www.w3.org/1999/xlink" version="1.1" id="Layer_1" x="0px" y="0px" viewBox="0 0 511.999 511.999" style="enable-background:new 0 0 511.999 511.999;" xml:space="preserve">
<g transform="translate(0 -1)">
	<g>
		<path d="M508.586,331.239c-26.096-19.572-51.578-49.649-76.328-87.878c-12.426-19.193-24.118-39.568-35.649-61.54    c-4.313-8.218-8.391-16.247-12.856-25.24c-1.424-2.869-6.099-12.364-8.284-16.777v-32.138c0-4.713-3.82-8.533-8.533-8.533h-79.837    c-6.016-5.307-13.912-8.533-22.566-8.533h-17.067c-8.654,0-16.55,3.226-22.566,8.533h-79.834c-4.713,0-8.533,3.82-8.533,8.533    v32.131c-2.183,4.411-6.862,13.913-8.287,16.784c-4.465,8.993-8.543,17.022-12.856,25.24    c-11.531,21.972-23.223,42.347-35.649,61.54c-24.75,38.228-50.232,68.305-76.328,87.878c-2.086,1.564-3.342,3.997-3.41,6.603    c-0.2,7.614,12.934,26.488,27.673,37.539c20.692,15.514,45.523,19.353,72.776,7.236c0.288,0.317,0.577,0.633,0.878,0.957    c4.192,4.524,8.673,8.65,14.025,12.594c25.753,18.978,59.726,25.133,103.213,11.686c1.482,1.679,3.284,3.422,5.435,5.142    c8.154,6.523,18.824,10.403,31.997,10.403c13.173,0,23.844-3.88,31.997-10.403c2.151-1.721,3.953-3.464,5.435-5.142    c43.487,13.447,77.46,7.292,103.213-11.686c5.352-3.944,9.833-8.07,14.025-12.594c0.301-0.324,0.59-0.64,0.878-0.957    c27.254,12.117,52.084,8.278,72.777-7.236c14.739-11.051,27.872-29.925,27.673-37.539    C511.928,335.236,510.672,332.804,508.586,331.239z M358.403,133.266h-60.812c0.335-1.302,0.585-2.638,0.766-3.995    c0.021-0.151,0.039-0.302,0.058-0.453c0.057-0.479,0.103-0.96,0.14-1.445c0.018-0.227,0.039-0.454,0.052-0.682    c0.027-0.486,0.04-0.975,0.047-1.466c0.002-0.164,0.016-0.327,0.016-0.492s-0.013-0.327-0.016-0.492    c-0.007-0.491-0.02-0.98-0.047-1.466c-0.013-0.228-0.034-0.455-0.052-0.682c-0.037-0.485-0.083-0.966-0.14-1.445    c-0.018-0.151-0.037-0.303-0.058-0.453c-0.18-1.357-0.431-2.693-0.766-3.995h60.812V133.266z M264.533,107.666    c4.705,0,8.964,1.904,12.051,4.982c0.179,0.245,0.352,0.493,0.563,0.728c2.137,2.373,3.559,5.178,4.148,8.193    c0.038,0.204,0.063,0.412,0.094,0.618c0.046,0.295,0.097,0.589,0.127,0.888c0.053,0.546,0.084,1.098,0.084,1.658    c0,0.56-0.031,1.112-0.084,1.658c-0.03,0.299-0.081,0.593-0.127,0.888c-0.031,0.206-0.056,0.414-0.094,0.618    c-0.587,3.006-2.004,5.803-4.13,8.171c-0.006,0.006-0.012,0.011-0.018,0.018c-3.274,3.632-7.775,5.714-12.614,5.714h-17.067    c-4.838,0-9.338-2.081-12.613-5.712c-2.145-2.383-3.572-5.201-4.155-8.229c-0.015-0.08-0.023-0.163-0.037-0.244    c-0.074-0.417-0.138-0.837-0.18-1.261c-0.05-0.534-0.082-1.074-0.082-1.621c0-0.547,0.031-1.087,0.082-1.621    c0.042-0.424,0.106-0.844,0.18-1.261c0.014-0.081,0.022-0.163,0.037-0.244c0.584-3.029,2.011-5.848,4.157-8.231    c0.214-0.238,0.39-0.489,0.571-0.738c3.086-3.072,7.34-4.972,12.039-4.972H264.533z M153.599,116.199h60.809    c-0.343,1.333-0.597,2.701-0.778,4.092c-0.011,0.081-0.021,0.162-0.031,0.243c-0.07,0.57-0.126,1.144-0.167,1.722    c-0.011,0.147-0.025,0.294-0.034,0.441c-0.04,0.674-0.066,1.352-0.066,2.036c0,0.684,0.026,1.362,0.066,2.035    c0.009,0.148,0.023,0.294,0.034,0.442c0.042,0.578,0.097,1.152,0.167,1.722c0.01,0.081,0.02,0.162,0.031,0.243    c0.181,1.391,0.435,2.759,0.778,4.092h-60.809V116.199z M490.328,344.749c-4.356,6.26-9.906,12.227-16.242,16.977    c-17.004,12.748-36.791,15.169-60.117,3.122c-27.755-18.694-55.569-59.263-55.569-86.515c0-4.713-3.82-8.533-8.533-8.533    s-8.533,3.82-8.533,8.533c0,31.04,26.261,71.853,55.389,95.001c-3.58,3.45-7.402,7.032-10.202,9.095    c-21.677,15.975-50.445,21.067-89.309,8.721c-0.2-0.733-0.406-1.478-0.625-2.256c-0.145-0.514-2.612-9.059-3.243-11.409    c-2.224-8.273-3.21-14.587-3.21-22.351c0-4.713-3.82-8.533-8.533-8.533s-8.533,3.82-8.533,8.533    c0,9.417,1.211,17.165,3.795,26.781c0.68,2.531,3.189,11.223,3.296,11.603c0.268,0.952,0.515,1.85,0.752,2.727    c-0.864,1.016-2.043,2.202-3.573,3.427c-5.18,4.144-12.109,6.663-21.336,6.663c-9.227,0-16.156-2.52-21.336-6.663    c-1.53-1.224-2.709-2.411-3.573-3.427c0.237-0.876,0.484-1.774,0.752-2.727c0.107-0.38,2.616-9.072,3.296-11.603    c2.584-9.615,3.795-17.363,3.795-26.781c0-4.713-3.82-8.533-8.533-8.533s-8.533,3.82-8.533,8.533    c0,7.765-0.987,14.078-3.21,22.351c-0.631,2.349-3.098,10.895-3.243,11.409c-0.219,0.778-0.425,1.523-0.625,2.256    c-38.865,12.347-67.632,7.254-89.309-8.721c-2.8-2.063-6.622-5.646-10.202-9.095c29.128-23.148,55.389-63.961,55.389-95.001    c0-4.713-3.82-8.533-8.533-8.533s-8.533,3.82-8.533,8.533c0,27.252-27.815,67.82-55.569,86.515    c-23.326,12.047-43.113,9.627-60.117-3.122c-6.336-4.751-11.886-10.717-16.242-16.977c-0.98-1.408-1.86-2.78-2.613-4.052    c26.014-20.889,50.925-50.858,75.009-88.059c12.736-19.673,24.679-40.484,36.435-62.885c4.378-8.343,8.513-16.483,13.03-25.582    c1.173-2.362,4.474-9.063,6.831-13.838H224.9c4.896,4.319,11.036,7.253,17.818,8.197c0.115,0.016,0.232,0.029,0.347,0.044    c0.388,0.05,0.775,0.098,1.167,0.135c0.253,0.024,0.507,0.039,0.76,0.058c0.275,0.02,0.548,0.044,0.824,0.057    c0.547,0.027,1.097,0.042,1.649,0.042h17.067c0.552,0,1.101-0.015,1.649-0.042c0.276-0.013,0.55-0.038,0.825-0.057    c0.254-0.019,0.508-0.034,0.76-0.058c0.392-0.037,0.78-0.085,1.168-0.135c0.115-0.015,0.231-0.028,0.346-0.044    c6.782-0.944,12.923-3.879,17.819-8.197h74.537c2.358,4.775,5.659,11.476,6.831,13.838c4.517,9.099,8.652,17.239,13.03,25.582    c11.756,22.4,23.699,43.212,36.435,62.885c24.085,37.201,48.995,67.17,75.009,88.059    C492.189,341.969,491.308,343.34,490.328,344.749z"/>
	</g>
</g>
<g>
</g>
<g>
</g>
<g>
</g>
<g>
</g>
<g>
</g>
<g>
</g>
<g>
</g>
<g>
</g>
<g>
</g>
<g>
</g>
<g>
</g>
<g>
</g>
<g>
</g>
<g>
</g>
<g>
</g>
</svg>
