<?xml version="1.0" encoding="iso-8859-1"?>
<!-- Generator: Adobe Illustrator 19.0.0, SVG Export Plug-In . SVG Version: 6.00 Build 0)  -->
<svg xmlns="http://www.w3.org/2000/svg" xmlns:xlink="http://www.w3.org/1999/xlink" version="1.1" id="Layer_1" x="0px" y="0px" viewBox="0 0 512.005 512.005" style="enable-background:new 0 0 512.005 512.005;" xml:space="preserve">
<g>
	<g>
		<path d="M511.815,335.277c-25.028-116.809-127.533-230.514-144.879-249.07V55.469c0-4.719-3.823-8.533-8.533-8.533h-62.79    c-6.017-5.305-13.908-8.533-22.544-8.533h-34.133c-8.636,0-16.526,3.228-22.544,8.533h-62.79c-4.71,0-8.533,3.814-8.533,8.533    v30.738C127.723,104.764,25.218,218.468,0.19,335.277c-0.358,1.656-0.205,3.388,0.418,4.958    c2.185,5.453,55.646,133.367,255.394,133.367s253.21-127.915,255.394-133.367C512.019,338.665,512.173,336.932,511.815,335.277z     M349.869,81.069h-43.746c0.705-2.728,1.08-5.588,1.08-8.533s-0.375-5.805-1.08-8.533h43.746V81.069z M216.392,98.136    c0.081,0.071,0.162,0.141,0.244,0.211c-17.781,43.683-67.455,201.913-71.28,341.343c-24.006-8.093-43.623-18.278-59.37-28.708    c8.354-139.24,98.183-289.987,114.42-312.846H216.392z M231.939,105.945c2.259,0.472,4.599,0.724,6.997,0.724h8.533v349.776    c-32.64-0.653-60.875-5.033-85.171-11.611C165.007,307.396,214.149,150.005,231.939,105.945z M264.536,106.669h8.533    c2.398,0,4.737-0.251,6.997-0.724c17.79,44.059,66.932,201.45,69.641,338.889c-24.295,6.578-52.531,10.958-85.171,11.611V106.669z     M295.369,98.347c0.081-0.07,0.163-0.14,0.244-0.211h15.984c16.22,22.833,106.064,173.59,114.421,312.847    c-15.747,10.43-35.363,20.615-59.369,28.707C362.824,300.26,313.15,142.03,295.369,98.347z M273.069,55.469    c4.695,0,8.951,1.905,12.039,4.982c0.356,0.494,0.764,0.947,1.216,1.354c2.38,2.934,3.812,6.666,3.812,10.73    s-1.432,7.796-3.812,10.73c-0.452,0.407-0.86,0.86-1.216,1.354c-1.021,1.017-2.179,1.893-3.43,2.628    c-0.182,0.07-0.364,0.136-0.544,0.219c-0.404,0.189-0.779,0.413-1.138,0.653c-2.12,0.946-4.46,1.483-6.928,1.483h-15.701    c-0.446-0.072-0.9-0.119-1.365-0.119c-0.466,0-0.92,0.047-1.365,0.119h-15.701c-2.468,0-4.808-0.537-6.928-1.483    c-0.359-0.24-0.734-0.464-1.138-0.653c-0.179-0.083-0.362-0.149-0.544-0.219c-1.251-0.735-2.409-1.61-3.43-2.628    c-0.356-0.494-0.764-0.947-1.216-1.354c-2.38-2.934-3.812-6.666-3.812-10.73s1.432-7.796,3.812-10.73    c0.452-0.407,0.859-0.86,1.216-1.354c3.088-3.077,7.345-4.982,12.039-4.982H273.069z M205.882,64.002    c-0.705,2.728-1.08,5.588-1.08,8.533s0.375,5.805,1.08,8.533h-9.548c-0.042,0-0.083,0-0.125,0h-34.073V64.002H205.882z     M17.479,336.147c24.764-109.892,123.298-220.169,139.81-238.012h22.976c-27.21,43.257-99.376,174.358-110.526,301.004    c-1.64-1.313-3.241-2.622-4.764-3.916C34.878,369.666,21.114,343.776,17.479,336.147z M447.03,395.224    c-1.523,1.294-3.125,2.603-4.765,3.917c-11.149-126.646-83.315-257.747-110.526-301.005h22.977    c16.512,17.843,115.038,128.111,139.81,238.012C490.882,343.802,477.11,369.675,447.03,395.224z"/>
	</g>
</g>
<g>
</g>
<g>
</g>
<g>
</g>
<g>
</g>
<g>
</g>
<g>
</g>
<g>
</g>
<g>
</g>
<g>
</g>
<g>
</g>
<g>
</g>
<g>
</g>
<g>
</g>
<g>
</g>
<g>
</g>
</svg>
