<?xml version="1.0" encoding="iso-8859-1"?>
<!-- Generator: Adobe Illustrator 19.0.0, SVG Export Plug-In . SVG Version: 6.00 Build 0)  -->
<svg xmlns="http://www.w3.org/2000/svg" xmlns:xlink="http://www.w3.org/1999/xlink" version="1.1" id="Layer_1" x="0px" y="0px" viewBox="0 0 512.014 512.014" style="enable-background:new 0 0 512.014 512.014;" xml:space="preserve">
<g transform="translate(0 -1)">
	<g>
		<path d="M395.335,375.716c-1.762-5.514-9.853-29.162-11.752-34.959c-8.852-27.017-14.063-48.288-15.941-68.887    c-0.465-5.096-0.702-10.046-0.702-14.855c0-7.418,0.995-15.888,2.881-25.192c2.157-10.641,5.405-22.037,9.451-33.756    c2.736-7.922,5.67-15.515,8.602-22.499c1.024-2.439,1.973-4.623,2.821-6.52c0.502-1.122,0.855-1.889,1.032-2.266    c1.303-2.768,1.024-6.021-0.731-8.527c-7.254-10.362-13.244-41.167-15.547-72.531c-0.462-6.298-0.038-14.775,1.143-24.801    c0.729-6.191,1.723-12.784,2.916-19.577c0.938-5.344,1.944-10.503,2.949-15.279c0.601-2.854,1.065-4.934,1.324-6.043    c1.061-4.539-1.717-9.091-6.24-10.221L343.41,1.269c-0.026-0.007-0.052-0.008-0.078-0.015c-0.248-0.06-0.499-0.103-0.752-0.141    c-0.093-0.014-0.186-0.031-0.279-0.042c-0.249-0.029-0.499-0.042-0.751-0.049c-0.099-0.003-0.198-0.006-0.297-0.005    c-0.24,0.002-0.479,0.016-0.719,0.038c-0.112,0.011-0.223,0.024-0.334,0.039c-0.224,0.03-0.447,0.066-0.67,0.115    c-0.139,0.03-0.274,0.07-0.411,0.107c-0.193,0.053-0.385,0.102-0.576,0.169c-0.326,0.114-0.644,0.244-0.952,0.396    c-0.042,0.021-0.082,0.048-0.123,0.069c-0.301,0.154-0.59,0.327-0.869,0.514c-0.031,0.021-0.063,0.034-0.094,0.055    c-0.963,0.663-2.973,1.93-5.924,3.603c-5.011,2.839-10.756,5.688-17.128,8.352c-18.167,7.593-37.6,12.14-57.44,12.14    c-19.843,0-39.278-4.547-57.443-12.14c-6.371-2.663-12.116-5.513-17.126-8.351c-2.951-1.672-4.961-2.939-5.923-3.602    c-0.047-0.032-0.096-0.054-0.143-0.085c-0.212-0.141-0.433-0.267-0.657-0.389c-0.217-0.118-0.436-0.223-0.658-0.32    c-0.185-0.081-0.369-0.165-0.561-0.233c-0.222-0.079-0.446-0.138-0.67-0.197c-0.107-0.028-0.212-0.059-0.32-0.083    c-0.238-0.053-0.475-0.091-0.714-0.123c-0.1-0.013-0.2-0.026-0.301-0.035c-0.245-0.023-0.488-0.037-0.732-0.039    c-0.101-0.001-0.202,0.003-0.304,0.005c-0.245,0.007-0.488,0.02-0.731,0.048c-0.11,0.013-0.221,0.033-0.332,0.05    c-0.232,0.036-0.462,0.074-0.689,0.129c-0.035,0.008-0.07,0.011-0.105,0.02l-34.133,8.533c-4.523,1.131-7.301,5.682-6.24,10.221    c0.259,1.109,0.724,3.189,1.324,6.043c1.005,4.775,2.011,9.935,2.949,15.279c1.193,6.793,2.187,13.386,2.916,19.577    c1.181,10.026,1.605,18.502,1.143,24.801c-2.303,31.364-8.293,62.169-15.547,72.531c-1.754,2.506-2.033,5.759-0.731,8.527    c0.177,0.377,0.53,1.144,1.032,2.266c0.849,1.897,1.797,4.082,2.821,6.52c2.932,6.984,5.866,14.576,8.602,22.499    c4.047,11.719,7.294,23.116,9.452,33.756c1.886,9.304,2.881,17.774,2.881,25.192c0,4.809-0.237,9.759-0.702,14.855    c-1.878,20.599-7.089,41.87-15.941,68.887c-1.899,5.797-9.99,29.446-11.752,34.959c-3.885,12.153-5.738,20.079-5.738,26.365    c0,3.398,2.016,6.472,5.133,7.826c0.87,0.378,2.555,1.134,4.938,2.241c4.002,1.86,8.469,4.018,13.283,6.449    c13.749,6.943,27.495,14.658,40.283,22.917c32.934,21.27,53.49,42.356,55.644,59.976c0.124,1.011,0.185,2.007,0.185,2.99    c0,4.713,3.821,8.533,8.533,8.533h34.133c4.713,0,8.533-3.82,8.533-8.533c0-0.983,0.062-1.979,0.185-2.99    c2.154-17.62,22.71-38.706,55.644-59.976c12.789-8.259,26.534-15.974,40.283-22.917c4.814-2.431,9.281-4.59,13.283-6.449    c2.383-1.107,4.068-1.863,4.938-2.241c3.117-1.354,5.133-4.428,5.133-7.826C401.074,395.795,399.22,387.869,395.335,375.716z     M297.62,117.614c-0.558-25.295,11.69-50.514,32.697-61.154c-1.594,9.586-3.963,18.625-7.319,27.167    C317.167,98.463,308.871,109.919,297.62,117.614z M191.986,30.22c20.112,8.407,41.711,13.46,64.025,13.46    c22.31,0,43.908-5.053,64.021-13.46c4.604-1.924,8.918-3.94,12.915-5.991c0,0.022,0,0.044,0,0.065    c-0.063,4.347-0.228,8.612-0.518,12.901c-35.893,11.258-55.349,50.86-51.409,88.308c-5.497,1.714-11.489,2.812-18.003,3.267    c-0.097,0.007-0.192,0.016-0.289,0.022c-0.955,0.064-1.926,0.109-2.904,0.145c-0.147,0.005-0.29,0.015-0.438,0.02    c-1.111,0.036-2.236,0.055-3.377,0.055c-1.14,0-2.264-0.019-3.374-0.055c-0.102-0.003-0.2-0.01-0.301-0.014    c-1.021-0.036-2.032-0.084-3.028-0.15c-0.052-0.003-0.102-0.008-0.153-0.012c-6.51-0.444-12.499-1.529-17.999-3.225    c3.907-37.418-15.664-77.096-51.571-88.362c-0.291-4.315-0.457-8.606-0.518-12.97C183.065,26.278,187.381,28.295,191.986,30.22z     M189.017,83.627c-3.357-8.542-5.726-17.581-7.319-27.167c21.056,10.661,33.388,35.961,32.85,61.257    C203.219,110.021,194.873,98.53,189.017,83.627z M370.027,403.363c-14.251,7.196-28.505,15.197-41.85,23.815    c-35.258,22.77-58.096,45.563-62.764,68.769h-18.813c-4.668-23.207-27.506-45.999-62.764-68.769    c-13.344-8.618-27.599-16.619-41.85-23.815c-4.829-2.438-9.327-4.616-13.389-6.508c0.733-3.906,2.16-9.127,4.338-15.943    c1.697-5.31,9.76-28.879,11.714-34.842c9.218-28.134,14.7-50.514,16.719-72.651c0.511-5.599,0.772-11.065,0.772-16.405    c0-8.668-1.124-18.238-3.221-28.582c-2.322-11.452-5.77-23.553-10.046-35.936c-2.864-8.294-5.93-16.227-8.998-23.535    c-0.797-1.899-1.553-3.656-2.258-5.259c8.234-15.605,13.662-45.334,15.967-76.73c0.556-7.576,0.083-17.036-1.214-28.046    c-0.77-6.537-1.811-13.441-3.056-20.532c-0.856-4.878-1.766-9.602-2.682-14.04l15.334-3.833    c-0.008,25.755,2.946,48.426,11.167,69.348c12.737,32.415,36.465,52.531,72.43,55.747c0.188,0.017,0.38,0.03,0.569,0.046    c1.332,0.112,2.682,0.201,4.048,0.266c0.353,0.017,0.704,0.036,1.059,0.051c1.57,0.061,3.155,0.103,4.769,0.103    c1.62,0,3.211-0.042,4.787-0.104c0.364-0.015,0.725-0.034,1.087-0.052c1.374-0.067,2.731-0.156,4.071-0.27    c0.183-0.016,0.369-0.028,0.552-0.045c35.936-3.231,59.647-23.343,72.377-55.742c7.938-20.203,10.957-42.047,11.148-66.714    c0.003-0.281,0.004-0.563,0.006-0.845c0.003-0.597,0.013-1.188,0.013-1.789l15.334,3.833c-0.917,4.439-1.826,9.162-2.682,14.04    c-1.245,7.091-2.286,13.995-3.056,20.532c-1.297,11.01-1.77,20.47-1.214,28.046c2.305,31.396,7.733,61.125,15.967,76.73    c-0.705,1.602-1.461,3.36-2.258,5.259c-3.068,7.308-6.134,15.24-8.998,23.535c-4.276,12.383-7.724,24.484-10.046,35.936    c-2.097,10.344-3.221,19.915-3.221,28.582c0,5.34,0.262,10.806,0.772,16.405c2.019,22.137,7.501,44.517,16.719,72.651    c1.954,5.963,10.017,29.532,11.714,34.842c2.179,6.816,3.605,12.037,4.338,15.943    C379.355,398.748,374.857,400.925,370.027,403.363z"/>
	</g>
</g>
<g>
</g>
<g>
</g>
<g>
</g>
<g>
</g>
<g>
</g>
<g>
</g>
<g>
</g>
<g>
</g>
<g>
</g>
<g>
</g>
<g>
</g>
<g>
</g>
<g>
</g>
<g>
</g>
<g>
</g>
</svg>
