<?xml version="1.0" encoding="iso-8859-1"?>
<!-- Generator: Adobe Illustrator 19.0.0, SVG Export Plug-In . SVG Version: 6.00 Build 0)  -->
<svg xmlns="http://www.w3.org/2000/svg" xmlns:xlink="http://www.w3.org/1999/xlink" version="1.1" id="Layer_1" x="0px" y="0px" viewBox="0 0 511.998 511.998" style="enable-background:new 0 0 511.998 511.998;" xml:space="preserve">
<g transform="translate(0 -1)">
	<g>
		<g>
			<path d="M366.178,48.691c-0.022-0.049-0.052-0.091-0.075-0.139c-0.027-0.056-0.043-0.114-0.071-0.169l-17.067-34.133     c-1.445-2.891-4.4-4.717-7.632-4.717h-17.067C324.265,4.819,320.445,1,315.732,1h-34.133c-4.712,0-8.532,3.819-8.533,8.532     h-34.133C238.931,4.819,235.111,1,230.399,1h-34.133c-4.712,0-8.532,3.819-8.533,8.532h-17.067c-3.232,0-6.187,1.826-7.632,4.717     l-17.067,34.133c-0.028,0.056-0.045,0.113-0.071,0.169c-0.023,0.048-0.053,0.09-0.075,0.139c-0.645,1.43-1.278,2.846-1.905,4.254     c-14.526,32.549-22.66,55.146-27.613,78.88c-8.713,40.016-7.154,78.665,3.305,135.258c0.559,3.025,1.119,6.089,1.68,9.173     c0.212,1.165,0.424,2.334,0.633,3.487c0.07,0.39,0.141,0.783,0.211,1.173c0.729,4.043,1.438,8.02,2.126,11.927     c0.004,0.022,0.011,0.042,0.015,0.063c7.21,40.758,14.234,84.315,20.798,127.881c1.458,9.678,2.828,18.924,4.102,27.652     c0.008,0.055,0.016,0.111,0.024,0.165c0.213,1.458,0.421,2.894,0.629,4.322c0.063,0.432,0.126,0.867,0.188,1.297     c0.18,1.245,0.358,2.475,0.534,3.696c0.081,0.562,0.162,1.124,0.242,1.682c0.201,1.396,0.4,2.786,0.595,4.15     c0.648,4.535,1.218,8.561,1.703,12.03c0.291,2.079,0.489,3.509,0.59,4.243c0.039,0.283,0.092,0.562,0.158,0.837     c0.021,0.087,0.052,0.171,0.076,0.258c0.051,0.186,0.1,0.372,0.163,0.553c0.037,0.106,0.085,0.208,0.126,0.312     c0.062,0.156,0.119,0.315,0.189,0.467c0.051,0.109,0.112,0.213,0.168,0.32c0.073,0.142,0.142,0.286,0.223,0.424     c0.061,0.103,0.132,0.199,0.197,0.299c0.087,0.135,0.17,0.272,0.265,0.402c0.076,0.104,0.163,0.201,0.244,0.302     c0.094,0.118,0.184,0.239,0.285,0.352c0.089,0.099,0.188,0.19,0.281,0.285c0.104,0.106,0.203,0.216,0.313,0.316     c0.099,0.091,0.207,0.172,0.31,0.258c0.112,0.093,0.219,0.192,0.336,0.28c0.005,0.003,0.01,0.007,0.014,0.011     c0.001,0.001,0.002,0.002,0.003,0.003c0.026,0.02,0.057,0.041,0.083,0.061c4.859,3.624,13.731,8.762,26.383,13.823     c20.974,8.39,45.241,13.41,72.503,13.41s51.529-5.021,72.503-13.41c12.737-5.095,21.647-10.268,26.484-13.896     c1.824-1.368,3.024-3.408,3.334-5.667c0.101-0.735,0.299-2.164,0.59-4.243c0.485-3.469,1.055-7.495,1.703-12.03     c1.215-8.496,2.545-17.641,3.976-27.307c0.001-0.007,0.003-0.014,0.004-0.021c0.687-4.642,1.384-9.313,2.089-14.003     c0.042-0.279,0.083-0.553,0.125-0.833c0.616-4.098,1.242-8.217,1.872-12.343c0.172-1.128,0.344-2.256,0.517-3.384     c0.621-4.052,1.247-8.114,1.879-12.185c0.12-0.772,0.24-1.544,0.36-2.316c3.769-24.205,7.73-48.651,11.809-72.616     c0.002-0.01,0.002-0.02,0.003-0.03c1.627-9.55,3.265-18.991,4.914-28.276c1.414-7.965,2.825-15.755,4.23-23.356     C409.512,174.437,402.789,129.879,366.178,48.691z M380.713,231.274c-22.031-1.678-39.38-20.081-39.38-42.542     c0-22.555,17.495-41.018,39.656-42.562C384.981,171.155,384.965,198.077,380.713,231.274z M344.592,43.665h-20.326V26.598h11.793     L344.592,43.665z M307.199,52.198h-17.067V18.067h17.067V52.198z M273.066,43.665h-21.484h-12.65V26.598h34.133V43.665z      M256.003,94.865c0,37.698-30.569,68.267-68.267,68.267c-21.897,0-42.011-10.383-54.784-27.545     c4.985-22.998,13.601-46.514,26.178-74.855h28.603v0.002c0,4.713,3.82,8.533,8.533,8.533h34.133c1.473,0,2.859-0.373,4.068-1.03     c2.661-1.445,4.469-4.264,4.469-7.505h7.918C252.808,71.005,256.003,82.689,256.003,94.865z M221.866,52.198h-17.063     c0-0.023-0.003-0.045-0.003-0.068V18.067h17.067V52.198z M175.94,26.598h11.793v17.067h-20.326L175.94,26.598z M138.601,276.071     c-0.006-0.035-0.013-0.071-0.019-0.106c-0.128-0.709-0.257-1.412-0.385-2.119c-0.588-3.242-1.186-6.519-1.802-9.86     c-4.806-25.986-7.464-48.268-8.167-68.251c15.372,8.982,25.375,25.61,25.375,44.197     C153.603,253.785,148.039,266.656,138.601,276.071z M162.082,419.132c28.328,0,51.25,22.923,51.25,51.2     c0,6.873-1.373,13.545-3.989,19.749c-6.882-1.789-13.365-3.929-19.436-6.35c-6.624-2.642-12.374-5.459-17.212-8.256     c-1.005-0.581-1.885-1.11-2.638-1.577c-0.049-0.353-0.102-0.726-0.157-1.119c-0.56-3.998-1.215-8.621-1.96-13.812     c-0.111-0.772-0.224-1.56-0.337-2.34c-0.021-0.143-0.041-0.285-0.062-0.428c-0.223-1.546-0.448-3.108-0.677-4.686     c-0.015-0.106-0.031-0.212-0.046-0.318C165.358,441.109,163.776,430.385,162.082,419.132z M342.008,473.417     c-0.818,0.96-1.693,1.488-2.693,2.069c-4.817,2.797-10.546,5.615-17.151,8.257c-19.026,7.611-41.159,12.19-66.164,12.19     c-10.417,0-20.328-0.805-29.732-2.283c2.708-7.402,4.132-15.26,4.132-23.317c0-37.703-30.564-68.267-68.267-68.267     c-0.876,0-1.754,0.022-2.635,0.061c-5.572-36.34-11.44-72.443-17.45-106.704c17.73-12.656,28.622-33.117,28.622-55.49     c0-28.244-17.318-53.079-42.81-63.319c0.226-6.64,0.717-13.125,1.481-19.544c15.547,14.61,36.246,23.128,58.396,23.128     c47.123,0,85.333-38.21,85.333-85.333c0-11.929-2.469-23.498-7.123-34.133h7.119v0.002c0,4.713,3.821,8.533,8.533,8.533h34.133     c4.713,0,8.533-3.82,8.533-8.533v-0.002h28.603c11.442,25.783,19.607,47.572,24.742,68.611     c-29.987,3.189-53.344,28.556-53.344,59.389c0,31.092,23.752,56.622,54.101,59.461c-0.834,5.097-1.754,10.353-2.759,15.788     c-1.412,7.642-2.83,15.471-4.251,23.474c-1.215,6.842-2.424,13.771-3.627,20.76c-0.266-0.004-0.535-0.015-0.801-0.015     c-37.703,0-68.267,30.564-68.267,68.267c0,30.276,19.87,56.383,47.918,65.115c-1.012,6.898-1.969,13.502-2.863,19.755     C343.067,465.889,342.495,469.931,342.008,473.417z M354.905,386.585c-0.136,0.869-0.27,1.735-0.405,2.603     c-0.433,2.786-0.865,5.574-1.295,8.364c-0.174,1.128-0.348,2.256-0.521,3.383c-0.507,3.302-1.011,6.607-1.513,9.912     c-0.183,1.204-0.364,2.404-0.546,3.605c-0.191,1.264-0.383,2.528-0.574,3.792c-0.314,2.085-0.624,4.147-0.93,6.192     c-19.679-7.281-33.392-26.196-33.392-47.97c0-27.571,21.793-50.052,49.092-51.157     C361.446,345.385,358.131,365.908,354.905,386.585z"/>
			<path d="M247.466,231.398c-32.992,0-59.733,26.741-59.733,59.733c0,32.992,26.741,59.733,59.733,59.733     s59.733-26.741,59.733-59.733C307.199,258.139,280.458,231.398,247.466,231.398z M247.466,333.798     c-23.567,0-42.667-19.1-42.667-42.667c0-23.567,19.1-42.667,42.667-42.667s42.667,19.1,42.667,42.667     C290.133,314.698,271.032,333.798,247.466,333.798z"/>
		</g>
	</g>
</g>
<g>
</g>
<g>
</g>
<g>
</g>
<g>
</g>
<g>
</g>
<g>
</g>
<g>
</g>
<g>
</g>
<g>
</g>
<g>
</g>
<g>
</g>
<g>
</g>
<g>
</g>
<g>
</g>
<g>
</g>
</svg>
