<?xml version="1.0" encoding="iso-8859-1"?>
<!-- Generator: Adobe Illustrator 19.0.0, SVG Export Plug-In . SVG Version: 6.00 Build 0)  -->
<svg xmlns="http://www.w3.org/2000/svg" xmlns:xlink="http://www.w3.org/1999/xlink" version="1.1" id="Layer_1" x="0px" y="0px" viewBox="0 0 512 512" style="enable-background:new 0 0 512 512;" xml:space="preserve">
<g transform="translate(0 -1)">
	<g>
		<path d="M349.87,49.08V18.067c0-4.713-3.821-8.533-8.533-8.533h-54.237C281.083,4.226,273.187,1,264.533,1h-17.067    c-8.654,0-16.55,3.226-22.566,8.533h-54.234c-4.713,0-8.533,3.82-8.533,8.533v31.009C147.668,68.05,128,129.401,128,171.667    c0,20.964,3.664,57.028,11.496,120.19c0.429,3.457,0.878,7.063,1.37,11.002C151.937,391.43,153.6,405.84,153.6,419.133v59.733    c0,2.686,1.265,5.215,3.413,6.827c4.838,3.628,13.748,8.802,26.484,13.896c19.426,7.77,41.682,12.642,66.521,13.32    c0.049,0.001,0.097,0.004,0.146,0.005c1.931,0.051,3.874,0.085,5.836,0.085c1.963,0,3.906-0.033,5.837-0.085    c0.045-0.001,0.09-0.003,0.135-0.005c24.842-0.677,47.102-5.549,66.53-13.321c12.737-5.095,21.647-10.268,26.484-13.896    c2.149-1.612,3.413-4.141,3.413-6.827v-59.733c0-13.294,1.663-27.703,12.734-116.275c0.492-3.939,0.942-7.545,1.37-11.002    C380.336,228.695,384,192.631,384,171.667C384,129.404,364.335,68.06,349.87,49.08z M332.803,43.667h-35.212    c0.335-1.302,0.585-2.638,0.766-3.995c0.021-0.151,0.039-0.302,0.058-0.453c0.057-0.479,0.103-0.961,0.14-1.445    c0.018-0.227,0.039-0.454,0.052-0.682c0.027-0.486,0.04-0.975,0.047-1.466c0.002-0.164,0.016-0.327,0.016-0.492    s-0.013-0.327-0.016-0.492c-0.007-0.491-0.02-0.98-0.047-1.466c-0.013-0.228-0.034-0.455-0.052-0.682    c-0.037-0.485-0.083-0.966-0.14-1.445c-0.018-0.151-0.037-0.302-0.058-0.453c-0.18-1.357-0.431-2.693-0.766-3.995h35.212V43.667z     M264.533,18.067c4.705,0,8.964,1.904,12.051,4.982c0.179,0.245,0.352,0.493,0.563,0.728c2.137,2.373,3.559,5.178,4.148,8.193    c0.038,0.204,0.063,0.412,0.094,0.618c0.046,0.295,0.097,0.589,0.127,0.888c0.053,0.546,0.084,1.098,0.084,1.658    s-0.031,1.112-0.084,1.658c-0.03,0.299-0.081,0.593-0.127,0.888c-0.031,0.206-0.056,0.414-0.094,0.618    c-0.587,3.006-2.004,5.803-4.13,8.171c-0.006,0.006-0.012,0.011-0.018,0.018c-3.274,3.632-7.775,5.714-12.614,5.714h-17.067    c-4.838,0-9.338-2.081-12.613-5.712c-2.145-2.383-3.572-5.201-4.155-8.229c-0.015-0.08-0.023-0.163-0.037-0.244    c-0.074-0.417-0.138-0.837-0.18-1.261c-0.05-0.534-0.082-1.074-0.082-1.621s0.031-1.087,0.082-1.621    c0.042-0.424,0.106-0.844,0.18-1.261c0.014-0.081,0.022-0.163,0.037-0.244c0.584-3.029,2.011-5.848,4.157-8.231    c0.214-0.238,0.39-0.489,0.571-0.738c3.086-3.072,7.34-4.972,12.039-4.972H264.533z M179.2,26.6h35.208    c-0.343,1.333-0.597,2.702-0.778,4.093c-0.011,0.08-0.02,0.16-0.03,0.24c-0.07,0.571-0.126,1.145-0.167,1.724    c-0.011,0.147-0.025,0.294-0.034,0.441c-0.04,0.674-0.066,1.352-0.066,2.036s0.026,1.362,0.066,2.036    c0.009,0.147,0.023,0.294,0.034,0.441c0.042,0.579,0.097,1.154,0.167,1.724c0.01,0.08,0.02,0.16,0.03,0.239    c0.181,1.391,0.435,2.76,0.778,4.093H179.2V26.6z M243.246,495.505l12.755-101.683l12.755,101.682    c-2.03,0.135-4.065,0.235-6.108,0.306c-0.153,0.005-0.304,0.011-0.457,0.016c-2.054,0.067-4.116,0.104-6.19,0.104    c-2.074,0-4.135-0.037-6.188-0.104c-0.156-0.005-0.311-0.011-0.467-0.016C247.306,495.74,245.273,495.64,243.246,495.505z     M355.567,289.757c-0.428,3.451-0.876,7.051-1.368,10.985c-11.328,90.628-12.866,103.952-12.866,118.392v55.152    c-0.604,0.369-1.277,0.771-2.018,1.202c-4.817,2.797-10.546,5.615-17.151,8.257c-11.102,4.441-23.269,7.839-36.439,9.908    l-21.256-169.45c-1.25-9.962-15.684-9.962-16.934,0l-21.256,169.45c-13.172-2.069-25.34-5.468-36.442-9.909    c-6.605-2.642-12.334-5.459-17.151-8.257c-0.742-0.431-1.415-0.832-2.018-1.202v-55.152c0-14.44-1.537-27.764-12.866-118.392    c-0.492-3.934-0.94-7.534-1.368-10.985c-7.724-62.29-11.366-98.142-11.366-118.09c0-38.156,18.226-95.109,29.566-110.933h50.268    c4.896,4.319,11.036,7.253,17.818,8.197c0.115,0.016,0.232,0.029,0.347,0.044c0.388,0.05,0.775,0.098,1.167,0.135    c0.253,0.024,0.507,0.039,0.76,0.058c0.275,0.02,0.548,0.044,0.824,0.057c0.547,0.027,1.097,0.042,1.649,0.042h17.067    c0.552,0,1.101-0.015,1.649-0.042c0.276-0.013,0.55-0.038,0.825-0.057c0.254-0.019,0.508-0.034,0.76-0.058    c0.392-0.037,0.78-0.085,1.168-0.135c0.115-0.015,0.231-0.028,0.346-0.044c6.782-0.944,12.923-3.879,17.819-8.197h50.268    c11.34,15.824,29.566,72.777,29.566,110.933C366.933,191.615,363.291,227.467,355.567,289.757z"/>
	</g>
</g>
<g>
</g>
<g>
</g>
<g>
</g>
<g>
</g>
<g>
</g>
<g>
</g>
<g>
</g>
<g>
</g>
<g>
</g>
<g>
</g>
<g>
</g>
<g>
</g>
<g>
</g>
<g>
</g>
<g>
</g>
</svg>
