<?xml version="1.0" encoding="iso-8859-1"?>
<!-- Generator: Adobe Illustrator 19.0.0, SVG Export Plug-In . SVG Version: 6.00 Build 0)  -->
<svg xmlns="http://www.w3.org/2000/svg" xmlns:xlink="http://www.w3.org/1999/xlink" version="1.1" id="Layer_1" x="0px" y="0px" viewBox="0 0 512.019 512.019" style="enable-background:new 0 0 512.019 512.019;" xml:space="preserve">
<g transform="translate(0 -1)">
	<g>
		<path d="M349.876,49.074V18.067c0-4.713-3.821-8.533-8.533-8.533h-42.667c0-4.713-3.82-8.533-8.533-8.533h-68.267    c-4.713,0-8.533,3.82-8.533,8.533h-42.667c-4.713,0-8.533,3.82-8.533,8.533v31.007c-14.466,18.975-34.133,80.325-34.133,122.591    c0,21.078,2.485,63.676,7.88,142.271c0.336,4.895,0.336,4.895,0.673,9.783c7.419,107.58,8.513,124.534,8.513,138.08    c0,0.02,0.004,0.038,0.004,0.058c0.002,0.203,0.025,0.404,0.041,0.607c0.017,0.227,0.03,0.454,0.064,0.674    c0.013,0.083,0.036,0.164,0.051,0.246c0.06,0.324,0.13,0.643,0.225,0.951c0.019,0.061,0.045,0.12,0.065,0.181    c0.102,0.305,0.214,0.604,0.347,0.891c0.063,0.139,0.14,0.27,0.211,0.406c0.098,0.184,0.195,0.367,0.306,0.542    c0.137,0.221,0.291,0.431,0.449,0.64c0.051,0.066,0.1,0.133,0.152,0.197c0.931,1.156,2.185,2.084,3.748,2.63    c0.314,0.114,0.633,0.21,0.959,0.287c0.035,0.008,0.065,0.022,0.099,0.03l195.809,42.567c0.55,0.153,1.104,0.236,1.66,0.274    c0.271,0.023,0.537,0.034,0.8,0.033c0.007,0,0.013,0,0.02,0c2.516-0.02,4.646-1.136,6.128-2.816    c0.04-0.043,0.078-0.088,0.116-0.132c0.177-0.209,0.347-0.423,0.504-0.647c0.134-0.187,0.255-0.382,0.374-0.581    c0.001-0.002,0.002-0.003,0.003-0.005c0.211-0.354,0.396-0.727,0.555-1.117c0.037-0.089,0.071-0.179,0.105-0.269    c0.073-0.199,0.146-0.396,0.205-0.603c0.314-1.048,0.437-2.153,0.335-3.255v-84.454c0-13.294,1.663-27.703,12.734-116.275    c0.492-3.939,0.942-7.545,1.37-11.002c7.832-63.162,11.496-99.226,11.496-120.19C384.009,129.399,364.342,68.049,349.876,49.074z     M332.809,26.6v17.065h-34.133V26.6H332.809z M281.609,18.067v34.132h-51.2V18.067H281.609z M213.343,26.6v17.065h-34.133V26.6    H213.343z M318.209,488.848l-141.742-30.813l61.627-36.976L318.209,488.848z M355.577,289.755    c-0.428,3.451-0.876,7.051-1.368,10.985c-11.328,90.628-12.866,103.952-12.866,118.392v66.935l-96.888-81.982    c-2.789-2.36-6.77-2.682-9.902-0.803l-72.795,43.677c-0.745-16.243-2.811-46.729-8.168-124.414    c-0.337-4.886-0.337-4.886-0.673-9.778c-5.356-78.025-7.84-120.607-7.84-141.102c0-38.155,18.225-95.105,29.565-110.932h38.702    c0,4.713,3.821,8.533,8.533,8.533h68.267c4.713,0,8.533-3.82,8.533-8.533h38.702c11.34,15.826,29.565,72.777,29.565,110.932    C366.943,191.613,363.3,227.466,355.577,289.755z"/>
	</g>
</g>
<g>
</g>
<g>
</g>
<g>
</g>
<g>
</g>
<g>
</g>
<g>
</g>
<g>
</g>
<g>
</g>
<g>
</g>
<g>
</g>
<g>
</g>
<g>
</g>
<g>
</g>
<g>
</g>
<g>
</g>
</svg>
