<?xml version="1.0" encoding="iso-8859-1"?>
<!-- Generator: Adobe Illustrator 19.0.0, SVG Export Plug-In . SVG Version: 6.00 Build 0)  -->
<svg xmlns="http://www.w3.org/2000/svg" xmlns:xlink="http://www.w3.org/1999/xlink" version="1.1" id="Layer_1" x="0px" y="0px" viewBox="0 0 512 512" style="enable-background:new 0 0 512 512;" xml:space="preserve">
<g transform="translate(0 -1)">
	<g>
		<path d="M418.081,238.991c-6.999-62.991-28.635-142.219-42.614-171.683V26.6c0-9.423-7.643-17.067-17.067-17.067h-68.267    C283.002,4.176,274.139,1,264.533,1h-17.067c-9.605,0-18.468,3.176-25.6,8.533H153.6c-9.423,0-17.067,7.643-17.067,17.067v40.708    c-13.979,29.464-35.615,108.692-42.614,171.683c-2.989,26.897-0.44,66.782,6.458,118.882c2.092,15.803,4.544,32.423,7.438,50.723    c2.668,16.87,10.802,65.596,11.757,71.609c0.413,2.603,2.006,4.869,4.316,6.139c1.7,0.935,4.82,2.46,9.315,4.374    c7.347,3.128,15.979,6.241,25.851,9.137C187.087,508.078,219.528,513,256,513s68.913-4.922,96.946-13.145    c9.872-2.896,18.504-6.009,25.851-9.137c4.495-1.914,7.615-3.439,9.315-4.374c2.309-1.27,3.902-3.536,4.316-6.139    c0.955-6.012,9.089-54.739,11.757-71.609c2.895-18.3,5.346-34.92,7.438-50.723C418.522,305.773,421.071,265.888,418.081,238.991z     M358.4,60.733h-54.761c2.285-5.228,3.561-10.997,3.561-17.067c0-6.07-1.276-11.839-3.561-17.067H358.4V60.733z M264.533,18.067    c5.961,0,11.441,2.043,15.792,5.46c0.285,0.336,0.6,0.659,0.951,0.966c5.244,4.581,8.418,10.874,8.813,17.72    c0.002,0.027,0.005,0.054,0.006,0.081c0.025,0.455,0.038,0.913,0.038,1.372s-0.013,0.917-0.038,1.372    c-0.001,0.027-0.005,0.054-0.006,0.081c-0.395,6.846-3.57,13.139-8.813,17.72c-0.001,0.001-0.002,0.002-0.003,0.002    c-0.001,0-0.001,0.001-0.002,0.001c-4.128,3.611-9.1,5.813-14.413,6.313c-0.027,0.002-0.054,0.004-0.081,0.006    c-0.742,0.067-1.491,0.104-2.245,0.104h-17.067c-0.754,0-1.503-0.037-2.245-0.104c-0.027-0.002-0.054-0.004-0.081-0.006    c-5.312-0.499-10.285-2.701-14.413-6.313c-0.001,0-0.001-0.001-0.002-0.001c-0.001-0.001-0.002-0.002-0.003-0.002    c-5.244-4.581-8.418-10.874-8.813-17.72c-0.002-0.027-0.005-0.054-0.006-0.081c-0.025-0.455-0.038-0.913-0.038-1.372    s0.013-0.917,0.038-1.372c0.001-0.027,0.005-0.054,0.006-0.081c0.395-6.846,3.57-13.139,8.813-17.72    c0.351-0.307,0.666-0.63,0.951-0.966c4.351-3.417,9.832-5.46,15.792-5.46H264.533z M153.6,26.6h54.761    c-2.285,5.228-3.561,10.997-3.561,17.067c0,6.07,1.276,11.839,3.561,17.067H153.6V26.6z M308.974,492.03l16.495-120.971    l20.549,113.01C334.636,487.313,322.295,490.018,308.974,492.03z M394.704,355.633c-2.072,15.646-4.503,32.129-7.376,50.297    c-2.31,14.601-8.77,53.401-11.045,67.239c-1.163,0.538-2.555,1.158-4.172,1.846c-2.984,1.27-6.229,2.543-9.702,3.802    l-29.75-163.611c-1.737-9.555-15.539-9.249-16.851,0.374l-24.36,178.652c-11.312,1.103-23.126,1.7-35.449,1.7    c-34.798,0-65.628-4.678-92.142-12.455c-9.219-2.704-17.224-5.591-23.969-8.463c-1.617-0.689-3.009-1.308-4.172-1.846    c-2.275-13.838-8.735-52.638-11.045-67.239c-2.874-18.168-5.305-34.651-7.376-50.297c-6.726-50.799-9.207-89.628-6.415-114.757    c6.56-59.042,26.491-133.216,39.617-163.076h71.369c5.781,4.342,12.703,7.239,20.232,8.185c0.12,0.016,0.241,0.031,0.361,0.046    c0.402,0.047,0.806,0.089,1.211,0.125c0.329,0.03,0.66,0.053,0.991,0.075c0.282,0.018,0.563,0.039,0.846,0.052    c0.65,0.03,1.303,0.05,1.958,0.05h17.067c0.656,0,1.308-0.019,1.958-0.05c0.283-0.013,0.564-0.034,0.846-0.052    c0.331-0.022,0.661-0.045,0.991-0.075c0.406-0.036,0.809-0.078,1.211-0.125c0.121-0.015,0.241-0.03,0.361-0.046    c7.53-0.946,14.452-3.843,20.232-8.185h71.369c13.125,29.86,33.056,104.034,39.617,163.076    C403.912,266.005,401.43,304.835,394.704,355.633z"/>
	</g>
</g>
<g>
</g>
<g>
</g>
<g>
</g>
<g>
</g>
<g>
</g>
<g>
</g>
<g>
</g>
<g>
</g>
<g>
</g>
<g>
</g>
<g>
</g>
<g>
</g>
<g>
</g>
<g>
</g>
<g>
</g>
</svg>
