<?xml version="1.0" encoding="iso-8859-1"?>
<!-- Generator: Adobe Illustrator 19.0.0, SVG Export Plug-In . SVG Version: 6.00 Build 0)  -->
<svg xmlns="http://www.w3.org/2000/svg" xmlns:xlink="http://www.w3.org/1999/xlink" version="1.1" id="Layer_1" x="0px" y="0px" viewBox="0 0 512.181 512.181" style="enable-background:new 0 0 512.181 512.181;" xml:space="preserve">
<g transform="translate(0 -1)">
	<g>
		<path d="M383.947,485.838c-0.149-0.801-0.428-2.293-0.821-4.383c-0.654-3.48-1.388-7.358-2.185-11.534    c-2.276-11.932-4.596-23.866-6.826-35.009c-0.429-2.142-0.851-4.237-1.265-6.283c-2.311-11.401-4.347-21.028-6.039-28.458    c-13.939-61.238-24.118-183.348-8.83-225.603c14.841-41.019,12.266-76.787-1.244-109.735c-1.711-4.172-3.137-7.309-5.219-11.534    c-0.698-1.419-1.468-2.955-2.342-4.683c-0.219-0.521-0.548-1.288-1.002-2.314c-0.913-2.064-2.007-4.446-3.282-7.118    c-3.624-7.591-7.99-16.016-13.108-25.06c-1.509-2.666-4.331-4.319-7.394-4.331l-42.699-0.164V9.533    c0-4.713-3.821-8.533-8.533-8.533h-34.133c-4.713,0-8.533,3.82-8.533,8.533v0.097l-42.699,0.164    c-3.063,0.012-5.885,1.665-7.394,4.331c-5.118,9.044-9.484,17.47-13.108,25.06c-1.276,2.672-2.369,5.053-3.282,7.118    c-0.454,1.026-0.784,1.793-1.002,2.314c-0.899,1.777-1.688,3.351-2.402,4.804c-2.049,4.163-3.465,7.281-5.159,11.413    c-13.511,32.948-16.085,68.716-1.244,109.735c15.289,42.255,5.109,164.365-8.83,225.603c-1.691,7.43-3.728,17.057-6.039,28.458    c-0.415,2.046-0.836,4.141-1.265,6.283c-2.23,11.143-4.551,23.077-6.826,35.009c-0.796,4.176-1.53,8.053-2.185,11.534    c-0.393,2.09-0.672,3.582-0.821,4.383c-0.583,3.132,0.628,6.328,3.14,8.288c30.914,24.12,83.443,26.806,113.389-0.413    c1.926-1.751,2.948-4.285,2.775-6.882c-0.066-0.995-0.191-2.885-0.366-5.556c-0.291-4.454-0.616-9.474-0.966-14.953    c-0.999-15.653-1.998-31.84-2.931-47.691c-0.34-5.787-0.666-11.436-0.976-16.92c-2.076-36.793-3.276-63.756-3.276-76.446    c0-12.954,3.579-35.555,11.529-76.832c0.557-2.888,0.557-2.888,1.115-5.774c1.673-8.643,3.139-16.244,4.422-22.961    c1.283,6.717,2.749,14.319,4.422,22.961c0.558,2.886,0.558,2.886,1.115,5.774c7.95,41.277,11.529,63.878,11.529,76.832    c0,12.69-1.201,39.653-3.276,76.446c-0.309,5.484-0.635,11.133-0.976,16.92c-0.932,15.851-1.932,32.037-2.931,47.691    c-0.35,5.479-0.674,10.499-0.966,14.953c-0.175,2.671-0.3,4.561-0.366,5.556c-0.173,2.597,0.848,5.131,2.774,6.881    c29.938,27.221,82.476,24.534,113.39,0.414C383.318,492.166,384.529,488.97,383.947,485.838z M329.109,69.17    c0.205-0.075,0.412-0.147,0.615-0.223c0.425-0.16,0.843-0.325,1.259-0.49c0.489-0.194,0.97-0.391,1.447-0.592    c0.295-0.125,0.595-0.247,0.885-0.375c0.751-0.33,1.486-0.67,2.204-1.019c0.216-0.105,0.425-0.214,0.638-0.321    c0.564-0.283,1.117-0.572,1.659-0.868c0.135-0.074,0.279-0.142,0.413-0.216c0.934,2.022,1.771,3.955,2.688,6.195    c6.075,14.837,9.643,30.316,9.86,47.27c-21.095-5.567-37.463-22.655-42.091-44.088C316.324,73.074,323.156,71.359,329.109,69.17z     M319.339,26.842c3.89,7.058,7.273,13.666,10.152,19.697c0.513,1.074,0.98,2.067,1.405,2.98    c-6.967,4.091-18.326,7.128-32.929,8.918c-0.273,0.033-0.541,0.081-0.804,0.139c-1.135,0.133-2.286,0.26-3.457,0.378    c-0.088,0.009-0.177,0.017-0.266,0.026c-1.186,0.119-2.388,0.231-3.609,0.335c-0.037,0.003-0.073,0.007-0.109,0.01    c-1.257,0.107-2.534,0.205-3.826,0.296c-0.102,0.007-0.205,0.014-0.307,0.021c-1.283,0.089-2.581,0.172-3.897,0.246v-33.19    L319.339,26.842z M247.557,18.067h17.067v0.065v50.662v0.002l-17.067,0.469v-0.471V18.131V18.067z M182.691,46.539    c2.88-6.031,6.262-12.639,10.152-19.697l37.648-0.144v33.19c-1.317-0.074-2.615-0.157-3.898-0.246    c-0.102-0.007-0.204-0.014-0.305-0.021c-1.293-0.091-2.57-0.19-3.827-0.296c-0.036-0.003-0.072-0.006-0.108-0.009    c-1.221-0.104-2.424-0.216-3.611-0.335c-0.088-0.009-0.178-0.017-0.266-0.026c-1.17-0.119-2.322-0.245-3.457-0.378    c-0.263-0.058-0.531-0.105-0.804-0.139c-14.603-1.79-25.962-4.827-32.929-8.918C181.71,48.606,182.178,47.613,182.691,46.539z     M171.264,71.26c0.917-2.24,1.755-4.173,2.688-6.195c0.133,0.074,0.277,0.142,0.412,0.216c0.545,0.297,1.101,0.588,1.668,0.872    c0.208,0.104,0.412,0.211,0.623,0.314c0.732,0.357,1.482,0.703,2.249,1.039c0.227,0.1,0.461,0.195,0.692,0.293    c0.6,0.255,1.211,0.504,1.831,0.748c0.264,0.103,0.527,0.208,0.795,0.309c0.811,0.307,1.635,0.606,2.479,0.894    c0.213,0.073,0.434,0.141,0.65,0.213c0.684,0.227,1.379,0.449,2.085,0.664c0.309,0.094,0.619,0.188,0.932,0.28    c0.805,0.237,1.622,0.467,2.453,0.689c0.217,0.058,0.436,0.116,0.655,0.173c0.837,0.218,1.689,0.427,2.551,0.631    c0.347,0.082,0.697,0.162,1.048,0.242c0.752,0.17,1.514,0.336,2.285,0.496c0.275,0.057,0.545,0.117,0.822,0.173    c0.986,0.199,1.99,0.388,3.006,0.57c0.372,0.067,0.749,0.131,1.125,0.196c0.405,0.07,0.807,0.141,1.217,0.209    c-4.582,21.507-20.98,38.664-42.127,44.244C161.621,101.575,165.19,86.097,171.264,71.26z M281.957,483.645    c0.374-5.719,0.7-10.749,1.05-16.237c1.001-15.68,2.002-31.894,2.936-47.776c0.341-5.801,0.668-11.463,0.978-16.961    c2.096-37.148,3.303-64.269,3.303-77.407c0-14.53-3.625-37.424-11.837-80.06c-0.559-2.898-0.559-2.898-1.119-5.791    c-8.078-41.721-11.261-58.966-12.26-69.13c1.346-0.361,2.744-0.781,4.21-1.27c1.947-0.649,3.968-1.398,6.041-2.227    c2.481-0.993,4.914-2.05,7.207-3.108c1.386-0.639,2.431-1.144,3.04-1.449c4.215-2.108,5.924-7.233,3.816-11.449    c-2.108-4.215-7.233-5.924-11.449-3.816c-0.458,0.229-1.345,0.657-2.56,1.218c-2.041,0.942-4.208,1.884-6.393,2.758    c-1.779,0.712-3.491,1.346-5.1,1.882c-3.467,1.156-6.251,1.774-7.731,1.774c-1.48,0-4.264-0.619-7.731-1.774    c-1.609-0.536-3.321-1.17-5.1-1.882c-2.185-0.874-4.353-1.816-6.393-2.758c-1.214-0.56-2.102-0.989-2.56-1.218    c-4.215-2.108-9.341-0.399-11.449,3.816c-2.108,4.215-0.399,9.341,3.816,11.449c0.609,0.305,1.655,0.809,3.04,1.449    c2.293,1.058,4.725,2.116,7.207,3.108c2.073,0.829,4.094,1.578,6.041,2.227c1.466,0.489,2.864,0.909,4.21,1.27    c-0.998,10.163-4.182,27.409-12.26,69.13c-0.56,2.893-0.56,2.893-1.119,5.791c-8.212,42.636-11.837,65.53-11.837,80.06    c0,13.137,1.208,40.259,3.303,77.407c0.31,5.498,0.637,11.16,0.978,16.961c0.934,15.882,1.935,32.096,2.936,47.776    c0.35,5.488,0.676,10.517,0.968,14.98c-22.434,18.606-60.009,17.066-84.13,1.243c0.604-3.21,1.273-6.74,1.992-10.513    c2.267-11.885,4.578-23.77,6.797-34.857c0.426-2.129,0.845-4.211,1.257-6.242c2.286-11.279,4.297-20.785,5.953-28.06    c14.661-64.41,25.029-188.787,8.237-235.197c-4.141-11.445-6.769-22.38-8.064-32.898c29.571-6.269,52.638-29.821,58.331-59.537    c0.115,0.01,0.232,0.018,0.347,0.028c0.487,0.04,0.976,0.079,1.469,0.117c0.954,0.073,1.917,0.142,2.888,0.207    c0.514,0.034,1.031,0.068,1.55,0.1c0.995,0.062,1.999,0.12,3.012,0.174c0.239,0.013,0.47,0.029,0.71,0.041V77.8    c0,4.713,3.82,8.533,8.533,8.533h34.133c4.713,0,8.533-3.82,8.533-8.533v-0.002c3.463-0.292,6.812-0.617,10.069-0.973    c5.853,29.481,28.832,52.804,58.238,59.038c-1.295,10.519-3.923,21.454-8.064,32.899c-16.792,46.41-6.424,170.787,8.237,235.197    c1.656,7.275,3.667,16.781,5.953,28.06c0.412,2.032,0.831,4.114,1.257,6.242c2.219,11.087,4.53,22.971,6.797,34.857    c0.72,3.774,1.388,7.303,1.992,10.513C342.048,499.454,304.467,500.994,281.957,483.645z"/>
	</g>
</g>
<g>
</g>
<g>
</g>
<g>
</g>
<g>
</g>
<g>
</g>
<g>
</g>
<g>
</g>
<g>
</g>
<g>
</g>
<g>
</g>
<g>
</g>
<g>
</g>
<g>
</g>
<g>
</g>
<g>
</g>
</svg>
