<?xml version="1.0" encoding="iso-8859-1"?>
<!-- Generator: Adobe Illustrator 19.0.0, SVG Export Plug-In . SVG Version: 6.00 Build 0)  -->
<svg xmlns="http://www.w3.org/2000/svg" xmlns:xlink="http://www.w3.org/1999/xlink" version="1.1" id="Layer_1" x="0px" y="0px" viewBox="0 0 512 512" style="enable-background:new 0 0 512 512;" xml:space="preserve">
<g transform="translate(0 -1)">
	<g>
		<path d="M351.215,220.36c4.936-38.873,7.185-62.725,7.185-82.826c0-23.634-5.059-45.555-13.49-65.228    c-4.328-10.098-8.692-17.799-12.107-22.819V18.067c0-4.713-3.82-8.533-8.533-8.533h-45.704C272.55,4.226,264.654,1,256,1    c-8.654,0-16.55,3.226-22.566,8.533h-45.701c-4.713,0-8.533,3.82-8.533,8.533v31.414c-3.415,5.02-7.781,12.723-12.11,22.824    c-8.431,19.673-13.49,41.594-13.49,65.228c0,20.101,2.249,43.953,7.185,82.826c0.418,3.295,0.853,6.686,1.419,11.066    c6.691,51.858,8.463,68.247,8.463,85.308c-0.055,0.795-0.18,3.149-0.355,6.467c-0.292,5.529-0.617,11.737-0.967,18.481    c-1,19.269-2.001,38.977-2.935,57.985c-0.21,4.283-0.415,8.489-0.614,12.611c-2.314,47.908-3.663,80.745-3.663,92.189    c0,4.713,3.821,8.533,8.533,8.533h68.267c4.713,0,8.533-3.82,8.533-8.533c0-25.965-0.768-57.052-2.219-95.14    c-0.568-14.9-1.22-30.408-2.057-49.239c-0.237-5.325-0.479-10.725-0.796-17.726c-0.392-8.647-0.604-13.323-0.771-17.03    c-0.605-13.401-1.011-22.668-1.365-31.218c-0.89-21.51-1.326-35.99-1.326-45.647c0-16.458,3.005-27.82,12.257-52.514    c1.851-4.94,3.427-9.271,4.809-13.277c1.382,4.006,2.958,8.336,4.746,13.109c9.316,24.862,12.32,36.224,12.32,52.682    c0,9.657-0.436,24.138-1.326,45.647c-0.354,8.55-0.761,17.817-1.365,31.218c-0.167,3.707-0.379,8.383-0.771,17.03    c-0.317,7-0.56,12.401-0.796,17.726c-0.837,18.831-1.489,34.339-2.057,49.239c-1.451,38.087-2.219,69.175-2.219,95.14    c0,4.713,3.82,8.533,8.533,8.533h68.267c4.713,0,8.533-3.82,8.533-8.533c0-11.445-1.349-44.282-3.662-92.189    c-0.199-4.122-0.404-8.329-0.614-12.611c-0.934-19.009-1.934-38.716-2.935-57.985c-0.35-6.744-0.675-12.952-0.967-18.481    c-0.175-3.318-0.3-5.672-0.367-6.922c0.012-16.605,1.784-32.995,8.475-84.853C350.362,227.046,350.797,223.655,351.215,220.36z     M315.737,43.667h-26.679c0.335-1.303,0.586-2.639,0.766-3.997c0.02-0.15,0.039-0.3,0.057-0.45    c0.057-0.48,0.103-0.962,0.141-1.448c0.018-0.227,0.039-0.453,0.052-0.682c0.027-0.486,0.04-0.975,0.047-1.466    c0.002-0.164,0.016-0.327,0.016-0.492s-0.013-0.327-0.016-0.492c-0.007-0.491-0.02-0.98-0.047-1.466    c-0.013-0.228-0.034-0.454-0.052-0.682c-0.037-0.485-0.083-0.968-0.141-1.448c-0.018-0.15-0.037-0.3-0.057-0.45    c-0.18-1.358-0.431-2.694-0.766-3.997h26.679V43.667z M268.051,23.049c0.179,0.245,0.352,0.493,0.563,0.727    c2.137,2.373,3.559,5.178,4.148,8.193c0.038,0.204,0.063,0.412,0.094,0.618c0.046,0.295,0.097,0.589,0.127,0.888    c0.053,0.546,0.084,1.098,0.084,1.658s-0.031,1.112-0.084,1.658c-0.03,0.299-0.081,0.593-0.127,0.888    c-0.031,0.206-0.056,0.414-0.094,0.618c-0.587,3.005-2.004,5.803-4.13,8.171c-0.006,0.006-0.012,0.012-0.018,0.018    C265.34,50.119,260.839,52.2,256,52.2c-4.838,0-9.338-2.081-12.613-5.712c-2.145-2.383-3.572-5.201-4.155-8.229    c-0.015-0.08-0.023-0.163-0.037-0.244c-0.074-0.417-0.138-0.837-0.18-1.261c-0.05-0.534-0.082-1.074-0.082-1.621    s0.031-1.087,0.082-1.621c0.042-0.424,0.106-0.844,0.18-1.261c0.014-0.081,0.022-0.163,0.037-0.244    c0.584-3.029,2.011-5.848,4.157-8.231c0.214-0.238,0.39-0.489,0.571-0.738c3.086-3.072,7.34-4.972,12.039-4.972    C260.705,18.067,264.964,19.971,268.051,23.049z M196.267,26.6h26.675c-0.343,1.333-0.597,2.702-0.778,4.093    c-0.011,0.08-0.02,0.16-0.03,0.24c-0.07,0.571-0.126,1.145-0.167,1.724c-0.011,0.147-0.025,0.294-0.034,0.441    c-0.04,0.674-0.066,1.352-0.066,2.036s0.026,1.362,0.066,2.036c0.009,0.147,0.023,0.294,0.034,0.441    c0.042,0.579,0.097,1.154,0.167,1.724c0.01,0.08,0.02,0.16,0.03,0.239c0.181,1.391,0.435,2.76,0.778,4.093h-26.675V26.6z     M334.284,218.21c-0.417,3.282-0.85,6.662-1.414,11.031c-6.82,52.854-8.604,69.353-8.604,87.492    c0.079,1.7,0.204,4.052,0.379,7.366c0.292,5.524,0.616,11.727,0.966,18.466c1,19.254,1.999,38.946,2.932,57.938    c0.21,4.278,0.415,8.48,0.614,12.597c1.861,38.534,3.1,67.412,3.501,82.833h-51.032c0.146-23.946,0.892-52.169,2.179-85.957    c0.566-14.859,1.217-30.333,2.052-49.131c0.236-5.319,0.479-10.716,0.796-17.712c0.392-8.645,0.604-13.323,0.771-17.032    c0.605-13.421,1.013-22.705,1.368-31.282c0.899-21.736,1.341-36.39,1.341-46.353c0-19.102-3.408-31.988-13.343-58.502    c-7.772-20.744-11.134-32.082-12.012-44.875c7.444-1.538,15.293-4.791,21.573-9.002c3.914-2.625,4.96-7.926,2.335-11.84    c-2.625-3.914-7.926-4.96-11.84-2.335c-6.168,4.136-14.885,7.087-20.847,7.087c-0.001,0-0.001,0-0.002,0    c-6.933,0-14.438-2.482-20.615-6.927c-3.826-2.753-9.158-1.883-11.911,1.943c-2.753,3.826-1.883,9.158,1.943,11.911    c6.548,4.711,14.112,7.906,21.794,9.316c-0.893,12.726-4.249,24.034-11.938,44.554c-9.998,26.682-13.406,39.569-13.406,58.671    c0,9.962,0.441,24.617,1.341,46.353c0.355,8.576,0.763,17.861,1.368,31.282c0.167,3.709,0.379,8.387,0.771,17.032    c0.317,6.996,0.559,12.392,0.796,17.712c0.836,18.798,1.486,34.273,2.052,49.131c1.287,33.788,2.033,62.011,2.179,85.957h-51.032    c0.401-15.421,1.64-44.299,3.501-82.833c0.199-4.117,0.404-8.319,0.614-12.597c0.933-18.991,1.933-38.683,2.932-57.938    c0.35-6.739,0.675-12.942,0.966-18.466c0.175-3.314,0.3-5.666,0.366-6.911c0.012-18.595-1.772-35.094-8.591-87.947    c-0.564-4.369-0.997-7.75-1.414-11.031c-4.847-38.168-7.049-61.527-7.049-80.676c0-21.166,4.541-40.845,12.11-58.505    c2.643-6.166,5.466-11.624,8.274-16.304c0.437-0.729,0.846-1.393,1.221-1.99h41.162c4.896,4.319,11.036,7.253,17.818,8.197    c0.115,0.016,0.232,0.029,0.347,0.044c0.388,0.05,0.775,0.098,1.167,0.135c0.253,0.024,0.507,0.039,0.76,0.058    c0.275,0.02,0.548,0.044,0.824,0.057c0.547,0.027,1.097,0.042,1.649,0.042c0.552,0,1.101-0.015,1.649-0.042    c0.276-0.013,0.55-0.038,0.824-0.057c0.254-0.019,0.508-0.034,0.76-0.058c0.392-0.037,0.779-0.085,1.167-0.135    c0.116-0.015,0.232-0.028,0.347-0.044c6.782-0.944,12.923-3.879,17.818-8.197h41.162c0.376,0.598,0.784,1.262,1.221,1.99    c2.808,4.68,5.631,10.139,8.274,16.304c7.569,17.661,12.11,37.339,12.11,58.505C341.333,156.682,339.131,180.041,334.284,218.21z"/>
	</g>
</g>
<g>
</g>
<g>
</g>
<g>
</g>
<g>
</g>
<g>
</g>
<g>
</g>
<g>
</g>
<g>
</g>
<g>
</g>
<g>
</g>
<g>
</g>
<g>
</g>
<g>
</g>
<g>
</g>
<g>
</g>
</svg>
