<?xml version="1.0" encoding="iso-8859-1"?>
<!-- Generator: Adobe Illustrator 19.0.0, SVG Export Plug-In . SVG Version: 6.00 Build 0)  -->
<svg xmlns="http://www.w3.org/2000/svg" xmlns:xlink="http://www.w3.org/1999/xlink" version="1.1" id="Layer_1" x="0px" y="0px" viewBox="0 0 511.077 511.077" style="enable-background:new 0 0 511.077 511.077;" xml:space="preserve">
<g transform="translate(0 -1)">
	<g>
		<path d="M378.107,110.34c-2.049-13.933-4.594-28.623-7.524-43.759c-2.819-14.565-5.838-28.755-8.858-42.008    c-1.057-4.641-2.04-8.836-2.922-12.512c-0.531-2.214-0.913-3.769-1.119-4.595c-1.143-4.572-5.776-7.352-10.348-6.209    c-0.179,0.045-0.356,0.087-0.534,0.131c-10.471,2.583-21.465,4.449-33.37,5.762c-0.533,0.059-1.04,0.177-1.532,0.325    c-15.527,1.588-32.954,2.061-56.361,2.061c-10.46,0-19.725-0.094-28.162-0.34c-1.849-0.061-3.699-0.132-5.601-0.215    c-0.168-0.007-0.333,0.002-0.499,0.004c-7.976-0.321-15.224-0.807-22.099-1.51c-0.492-0.148-0.999-0.266-1.532-0.325    c-11.905-1.313-22.9-3.179-33.37-5.762c-0.179-0.044-0.355-0.086-0.534-0.131c-4.572-1.143-9.205,1.637-10.348,6.209    c-0.206,0.825-0.588,2.381-1.119,4.595c-0.883,3.677-1.865,7.871-2.922,12.512c-3.02,13.253-6.039,27.443-8.858,42.008    c-2.93,15.136-5.475,29.826-7.524,43.759c-3.507,23.85-5.432,44.569-5.432,61.329c0,17.234,3.914,38.308,11.029,62.495    c4.13,14.042,9.253,28.826,15.147,44.052c5.664,14.633,11.728,28.882,17.793,42.191c2.124,4.661,4.098,8.875,5.872,12.571    c0.32,0.667,0.613,1.275,0.878,1.821c-3.153,13.694-4.859,28.772-5.281,45.018c-0.701,26.984,2.113,55.756,7.23,84.323    c1.602,8.943,3.318,17.212,5.038,24.614c0.604,2.6,1.166,4.91,1.672,6.904c0.308,1.213,0.532,2.063,0.657,2.523    c0.542,1.988,1.785,3.712,3.499,4.855c5.823,3.882,12.239,6.448,19.103,7.821c12.507,2.501,25.533,0.989,38.136-2.991    c2.809-0.887,5.23-1.779,7.228-2.594c1.998,0.815,4.419,1.707,7.228,2.594c12.604,3.98,25.629,5.493,38.136,2.991    c6.863-1.373,13.28-3.939,19.103-7.821c1.714-1.143,2.957-2.867,3.499-4.855c0.126-0.46,0.349-1.309,0.657-2.523    c0.506-1.995,1.068-4.304,1.672-6.904c1.719-7.402,3.436-15.671,5.038-24.614c5.116-28.567,7.931-57.338,7.23-84.323    c-0.422-16.245-2.129-31.324-5.281-45.018c0.265-0.547,0.558-1.155,0.878-1.821c1.774-3.696,3.748-7.909,5.872-12.571    c6.065-13.309,12.129-27.559,17.793-42.191c5.894-15.225,11.017-30.01,15.147-44.052c7.114-24.188,11.029-45.261,11.029-62.495    C383.539,154.909,381.614,134.19,378.107,110.34z M343.094,19.78c0.625,2.649,1.29,5.519,1.99,8.589    c2.98,13.082,5.961,27.094,8.742,41.465c0.716,3.702,1.409,7.377,2.077,11.02c-14.503-18.879-28.447-43.375-31.486-57.702    C330.695,22.258,336.831,21.15,343.094,19.78z M229.939,26.347c5.181,0.141,10.532,0.21,17.067,0.239v83.893    c-9.942-3.515-17.067-12.998-17.067-24.143V26.347z M157.251,69.835c2.781-14.371,5.762-28.383,8.742-41.465    c0.7-3.071,1.365-5.941,1.99-8.589c6.264,1.37,12.399,2.477,18.677,3.372c-3.039,14.327-16.983,38.824-31.486,57.702    C155.842,77.211,156.535,73.537,157.251,69.835z M213.521,494.121c-3.691-0.738-7.136-1.953-10.324-3.683    c-0.373-1.498-0.822-3.356-1.331-5.546c-1.656-7.129-3.314-15.116-4.862-23.761c-4.929-27.517-7.635-55.19-6.968-80.871    c0.423-16.296,2.216-31.198,5.514-44.389c0.494-1.976,0.265-4.064-0.646-5.886c-0.38-0.76-1.11-2.248-2.139-4.393    c-1.726-3.596-3.652-7.707-5.728-12.263c-5.935-13.024-11.871-26.975-17.407-41.275c-5.733-14.809-10.704-29.155-14.689-42.706    c-6.694-22.76-10.335-42.361-10.335-57.68c0-15.794,1.853-35.748,5.25-58.846c0.033-0.226,0.069-0.455,0.103-0.681    c21.482-19.406,48.814-62.135,53.63-87.109c3.01,0.247,6.097,0.458,9.284,0.639v60.664c0,20.64,14.659,37.858,34.133,41.811    v362.135c-1.138,0.42-2.422,0.863-3.834,1.309C233.076,494.779,222.784,495.974,213.521,494.121z M356.137,229.349    c-3.986,13.551-8.957,27.897-14.689,42.706c-5.536,14.301-11.472,28.251-17.407,41.275c-2.076,4.555-4.002,8.667-5.728,12.263    c-1.03,2.145-1.759,3.633-2.139,4.393c-0.911,1.822-1.14,3.91-0.646,5.886c3.298,13.191,5.09,28.093,5.514,44.389    c0.667,25.681-2.04,53.353-6.968,80.871c-1.548,8.645-3.207,16.632-4.862,23.761c-0.509,2.19-0.957,4.048-1.331,5.546    c-3.187,1.73-6.632,2.944-10.324,3.683c-9.263,1.853-19.555,0.657-29.65-2.531c-1.412-0.446-2.696-0.889-3.834-1.309V120.469    v-93.89c16.979-0.097,30.861-0.516,43.417-1.547c4.817,24.974,32.149,67.703,53.63,87.109c0.033,0.226,0.069,0.456,0.103,0.681    c3.397,23.098,5.25,43.053,5.25,58.846C366.472,186.988,362.831,206.588,356.137,229.349z"/>
	</g>
</g>
<g>
</g>
<g>
</g>
<g>
</g>
<g>
</g>
<g>
</g>
<g>
</g>
<g>
</g>
<g>
</g>
<g>
</g>
<g>
</g>
<g>
</g>
<g>
</g>
<g>
</g>
<g>
</g>
<g>
</g>
</svg>
