<?xml version="1.0" encoding="iso-8859-1"?>
<!-- Generator: Adobe Illustrator 19.0.0, SVG Export Plug-In . SVG Version: 6.00 Build 0)  -->
<svg xmlns="http://www.w3.org/2000/svg" xmlns:xlink="http://www.w3.org/1999/xlink" version="1.1" id="Layer_1" x="0px" y="0px" viewBox="0 0 503.872 503.872" style="enable-background:new 0 0 503.872 503.872;" xml:space="preserve">
<g transform="translate(0 -1)">
	<g>
		<path d="M385.175,118.626c0.007-0.289,0.002-0.58-0.022-0.875c-0.346-4.338-0.758-8.696-1.225-13.032    c-3.134-30.117-8.933-58.968-15.405-73.537c-0.002-0.004-0.004-0.009-0.005-0.013c0,0,0,0,0-0.001    c0-0.001-0.001-0.001-0.001-0.002c-0.024-0.054-0.055-0.102-0.08-0.154l-8.832-24.466c-1.607-4.453-6.578-6.696-10.98-4.956    c-6.343,2.507-40.965,5.541-75.511,7.119c-5.81-4.813-13.268-7.706-21.403-7.706c-8.139,0-15.601,2.897-21.412,7.714    c-34.518-1.577-69.2-4.619-75.544-7.127c-4.402-1.74-9.371,0.502-10.979,4.953l-9.099,25.18c-0.032,0.089-0.056,0.18-0.085,0.27    c-6.301,14.759-11.857,43.28-14.822,73.037c-0.436,4.226-0.819,8.475-1.141,12.71c-0.02,0.26-0.019,0.515-0.016,0.77    c-1.545,21.51-1.602,42.677,0.525,58.803c2.461,18.672,6.789,41.558,18.547,100.393c14.44,72.251,19.495,100.219,19.495,112.19    c0,9.421-1.746,22.599-5.217,41.659c-0.537,2.948-1.113,6.035-1.804,9.674c-6.793,35.795-7.315,38.835-7.315,46.594    c0,3.302,1.936,6.297,4.947,7.653c27.693,12.472,55.103,12.493,90.145,0.272c3.584-1.25,5.884-4.75,5.607-8.536    c-0.063-0.855-0.18-2.484-0.344-4.799c-0.274-3.86-0.58-8.232-0.909-13.028c-0.941-13.704-1.882-28.057-2.76-42.36    c-0.495-8.054-0.955-15.875-1.376-23.392c-1.677-29.95-2.628-53.36-2.628-67.588c0-16.248,3.428-43.853,11.302-96.378    c0.452-3.014,0.452-3.014,0.905-6.026c1.532-10.179,2.884-19.208,4.076-27.253c1.215,8.05,2.594,17.087,4.155,27.275    c0.461,3.012,0.461,3.012,0.922,6.026c8.018,52.515,11.508,80.118,11.508,96.355c0,14.229-0.951,37.639-2.628,67.588    c-0.421,7.517-0.882,15.338-1.376,23.392c-0.878,14.303-1.819,28.656-2.76,42.36c-0.329,4.796-0.635,9.168-0.909,13.028    c-0.165,2.315-0.282,3.943-0.344,4.799c-0.276,3.786,2.023,7.286,5.607,8.536c35.042,12.221,62.452,12.2,90.145-0.272    c3.011-1.356,4.947-4.351,4.947-7.653c0-7.759-0.522-10.798-7.315-46.594c-0.691-3.639-1.267-6.726-1.804-9.674    c-3.471-19.06-5.217-32.238-5.217-41.659c0-11.969,5.049-39.895,19.459-111.992c11.789-58.985,16.124-81.912,18.583-100.592    C386.899,161.251,386.789,140.123,385.175,118.626z M356.359,46.917c4.224,14.085,8.401,36.611,10.899,59.832    c0.018,0.174,0.036,0.348,0.054,0.523c-16.087-7.322-36.68-28.113-44.69-51.112C335.998,54.09,347.445,51.084,356.359,46.917z     M350.537,30.866c-14.028,6.839-38.03,10.614-66.249,11.84c0.312-1.254,0.548-2.537,0.715-3.843    c0.013-0.103,0.027-0.205,0.039-0.308c0.062-0.526,0.111-1.055,0.149-1.588c0.011-0.147,0.025-0.293,0.033-0.44    c0.037-0.646,0.061-1.295,0.061-1.95c0-0.748-0.033-1.488-0.081-2.224c-0.011-0.168-0.025-0.334-0.038-0.501    c-0.058-0.722-0.134-1.439-0.237-2.147c0-0.002-0.001-0.005-0.001-0.007c-0.234-1.609-0.585-3.179-1.039-4.706    c25.985-1.365,49.462-3.365,62.47-5.699L350.537,30.866z M263.509,22.64c0.112,0.132,0.205,0.271,0.327,0.398    c2.231,2.344,3.729,5.207,4.345,8.314c0.032,0.167,0.05,0.339,0.077,0.507c0.059,0.354,0.12,0.708,0.156,1.068    c0.053,0.543,0.083,1.092,0.083,1.649c0,0.544-0.031,1.08-0.081,1.61c-0.039,0.393-0.101,0.781-0.167,1.168    c-0.019,0.113-0.031,0.228-0.052,0.34c-0.583,3-2.001,5.785-4.127,8.123c-0.007,0.008-0.015,0.014-0.022,0.022    c-3.217,3.516-7.608,5.523-12.339,5.523c-0.022,0-0.044-0.003-0.067-0.003c-4.701-0.018-9.072-2.022-12.262-5.514    c-0.011-0.012-0.023-0.022-0.035-0.034c-2.123-2.338-3.54-5.12-4.122-8.117c-0.021-0.112-0.033-0.227-0.052-0.34    c-0.067-0.387-0.129-0.775-0.167-1.168c-0.05-0.53-0.081-1.067-0.081-1.61c0-0.557,0.03-1.106,0.083-1.648    c0.036-0.364,0.098-0.723,0.158-1.081c0.027-0.163,0.043-0.329,0.075-0.49c0.615-3.104,2.113-5.963,4.346-8.31    c0.132-0.139,0.234-0.288,0.354-0.432c3.03-2.982,7.183-4.826,11.771-4.826C256.311,17.789,260.477,19.643,263.509,22.64z     M136.479,106.663c2.408-23.251,6.478-45.713,10.641-59.739c8.904,4.159,20.332,7.162,33.683,9.23    c-7.933,22.82-28.205,43.425-44.364,50.915C136.452,106.933,136.466,106.798,136.479,106.663z M157.018,19.291    c13.021,2.336,36.533,4.342,62.512,5.708c-0.453,1.525-0.803,3.094-1.037,4.702c0,0.002,0,0.003-0.001,0.005    c-0.103,0.708-0.179,1.425-0.237,2.147c-0.014,0.167-0.027,0.334-0.038,0.501c-0.048,0.736-0.081,1.475-0.081,2.223    c0,0.655,0.024,1.305,0.061,1.951c0.009,0.147,0.023,0.294,0.034,0.441c0.038,0.533,0.087,1.063,0.149,1.589    c0.012,0.103,0.026,0.206,0.039,0.308c0.167,1.306,0.403,2.59,0.715,3.845c-28.215-1.22-52.253-4.999-66.298-11.844    L157.018,19.291z M368.137,175.118c-2.388,18.136-6.715,41.023-18.367,99.325c-14.955,74.826-19.819,101.726-19.819,115.453    c0,10.737,1.843,24.647,5.489,44.666c0.545,2.994,1.129,6.12,1.827,9.796c4.514,23.788,6.161,32.657,6.734,37.995    c-20.194,7.754-40.49,7.674-66.416-0.444c0.244-3.443,0.509-7.254,0.792-11.375c0.944-13.742,1.887-28.134,2.768-42.481    c0.496-8.083,0.959-15.934,1.382-23.482c1.694-30.25,2.655-53.892,2.655-68.527c0-17.478-3.515-45.274-11.701-98.889    c-0.461-3.019-0.461-3.019-0.923-6.035c-8.31-54.229-11.4-75.681-12.201-88.759c1.356-0.361,2.765-0.783,4.246-1.277    c1.915-0.638,3.903-1.375,5.942-2.19c2.441-0.976,4.833-2.017,7.089-3.057c1.363-0.629,2.391-1.126,2.99-1.425    c4.146-2.073,5.827-7.115,3.754-11.261c-2.073-4.146-7.115-5.827-11.261-3.754c-0.45,0.225-1.323,0.647-2.518,1.198    c-2.007,0.926-4.139,1.853-6.288,2.713c-1.75,0.7-3.434,1.324-5.016,1.851c-3.41,1.137-6.149,1.745-7.604,1.745    s-4.194-0.609-7.604-1.745c-1.582-0.527-3.266-1.151-5.016-1.851c-2.15-0.86-4.281-1.787-6.288-2.713    c-1.194-0.551-2.068-0.973-2.518-1.198c-4.146-2.073-9.188-0.393-11.261,3.754c-2.073,4.146-0.393,9.188,3.754,11.261    c0.599,0.299,1.628,0.796,2.99,1.425c2.255,1.041,4.648,2.081,7.089,3.057c2.039,0.816,4.027,1.552,5.942,2.19    c1.514,0.505,2.953,0.934,4.336,1.3c-0.788,13.086-3.823,34.542-11.98,88.757c-0.454,3.016-0.454,3.016-0.907,6.035    c-8.036,53.605-11.487,81.4-11.487,98.867c0,14.635,0.961,38.277,2.655,68.527c0.423,7.549,0.885,15.4,1.382,23.482    c0.881,14.347,1.824,28.74,2.768,42.481c0.283,4.122,0.549,7.932,0.792,11.375c-25.926,8.119-46.222,8.198-66.416,0.444    c0.573-5.338,2.219-14.207,6.734-37.995c0.698-3.676,1.281-6.803,1.827-9.796c3.646-20.019,5.489-33.929,5.489-44.666    c0-13.729-4.871-40.675-19.782-115.282c-11.695-58.521-16.016-81.366-18.405-99.495c-1.795-13.611-1.881-31.357-0.791-49.736    c23.444-6.609,53.116-35.044,62.783-67.176c9.917,0.905,20.588,1.431,31.844,1.638c4.449,3.893,9.931,6.627,15.986,7.741    c0.046,0.009,0.092,0.016,0.138,0.025c0.424,0.076,0.85,0.147,1.28,0.207c0.157,0.022,0.315,0.04,0.473,0.06    c0.341,0.043,0.682,0.086,1.026,0.118c0.277,0.027,0.557,0.044,0.836,0.064c0.244,0.017,0.486,0.039,0.732,0.05    c0.538,0.026,1.078,0.041,1.621,0.041c0.001,0,0.001,0,0.002,0c0.001,0,0.001,0,0.002,0c0.011,0,0.021-0.001,0.032-0.001    c0.53-0.001,1.059-0.015,1.585-0.04c0.263-0.012,0.522-0.035,0.783-0.054c0.26-0.019,0.52-0.034,0.778-0.059    c0.36-0.034,0.716-0.078,1.073-0.123c0.141-0.018,0.283-0.034,0.423-0.054c0.445-0.062,0.886-0.135,1.325-0.214    c0.029-0.005,0.059-0.01,0.088-0.016c6.063-1.111,11.554-3.847,16.008-7.745c11.257-0.207,21.928-0.732,31.844-1.635    c9.73,32.304,39.77,60.957,63.17,67.32C369.966,143.882,369.923,161.577,368.137,175.118z"/>
	</g>
</g>
<g>
</g>
<g>
</g>
<g>
</g>
<g>
</g>
<g>
</g>
<g>
</g>
<g>
</g>
<g>
</g>
<g>
</g>
<g>
</g>
<g>
</g>
<g>
</g>
<g>
</g>
<g>
</g>
<g>
</g>
</svg>
