<?xml version="1.0" encoding="iso-8859-1"?>
<!-- Generator: Adobe Illustrator 19.0.0, SVG Export Plug-In . SVG Version: 6.00 Build 0)  -->
<svg xmlns="http://www.w3.org/2000/svg" xmlns:xlink="http://www.w3.org/1999/xlink" version="1.1" id="Layer_1" x="0px" y="0px" viewBox="0 0 512 512" style="enable-background:new 0 0 512 512;" xml:space="preserve">
<g transform="translate(0 -1)">
	<g>
		<path d="M504.258,385.04c0.12-1.406,0.242-2.866,0.37-4.418c0.897-10.916,1.793-23.146,2.63-36.405    c2.816-44.63,4.288-89.701,3.699-131.805c-0.961-68.652-7.232-121.448-20.474-153.528c-0.083-0.201-0.165-0.403-0.248-0.603    c-0.286-0.683-0.576-1.357-0.869-2.021c-0.178-0.405-0.358-0.804-0.538-1.202c-0.24-0.528-0.48-1.055-0.725-1.57    c-0.259-0.547-0.522-1.08-0.786-1.613c-0.189-0.381-0.376-0.77-0.568-1.144c-0.467-0.912-0.94-1.807-1.422-2.675c0,0,0,0,0,0    c0,0,0-0.001-0.001-0.001c-0.13-0.234-0.283-0.449-0.432-0.668c-0.067-0.097-0.122-0.204-0.193-0.298    c-0.132-0.177-0.284-0.336-0.429-0.501c-0.105-0.12-0.2-0.249-0.31-0.362c-0.117-0.12-0.249-0.221-0.373-0.333    c-0.155-0.14-0.303-0.289-0.467-0.417c-0.15-0.117-0.314-0.214-0.471-0.321c-0.152-0.103-0.298-0.217-0.456-0.311    c-0.125-0.074-0.26-0.128-0.389-0.196c-1.198-0.625-2.54-0.983-3.939-0.983c-4.471,0-15.758,1.285-36.978,4.073    c-10.675,1.403-56.498,7.604-65.483,8.802c-4.88,0.651-9.51,1.263-13.978,1.85C307.159,65.514,272.302,69.267,256,69.267    s-51.159-3.753-105.428-10.875c-4.469-0.586-9.098-1.199-13.978-1.85c-8.985-1.198-54.807-7.4-65.483-8.802    c-21.22-2.788-32.507-4.073-36.978-4.073c-1.111,0-2.187,0.224-3.184,0.625c-0.046,0.019-0.096,0.03-0.142,0.049    c-0.237,0.101-0.463,0.226-0.69,0.347c-0.103,0.055-0.212,0.098-0.313,0.157c-0.207,0.122-0.399,0.266-0.595,0.405    c-0.11,0.078-0.227,0.144-0.333,0.226c-0.164,0.128-0.312,0.277-0.467,0.417c-0.124,0.112-0.256,0.214-0.373,0.333    c-0.143,0.146-0.268,0.311-0.401,0.467c-0.112,0.132-0.234,0.255-0.339,0.395c-0.108,0.144-0.196,0.305-0.295,0.456    c-0.111,0.169-0.231,0.331-0.33,0.51c0,0,0,0.001-0.001,0.001c0,0,0,0,0,0c-0.482,0.868-0.955,1.763-1.422,2.675    c-0.192,0.374-0.379,0.762-0.568,1.144c-0.264,0.533-0.527,1.066-0.786,1.613c-0.244,0.515-0.485,1.042-0.725,1.57    c-0.18,0.398-0.36,0.797-0.538,1.202c-0.293,0.664-0.582,1.338-0.869,2.021c-0.083,0.2-0.166,0.402-0.248,0.603    C8.275,90.965,2.004,143.761,1.043,212.412c-0.589,42.104,0.883,87.175,3.699,131.805c0.837,13.259,1.733,25.489,2.63,36.405    c0.128,1.552,0.25,3.012,0.37,4.418C3.401,385.44,0,389.088,0,393.533v59.733c0,4.384,3.322,8.055,7.684,8.491    c0.676,0.068,1.957,0.194,3.779,0.37c3.032,0.293,6.482,0.619,10.286,0.97c10.866,1.003,22.4,2.006,34.104,2.942    c9.665,0.773,19.036,1.467,27.965,2.063c21.507,1.434,39.45,2.231,52.716,2.231c9.152,0,19.441-0.381,30.671-1.094    c11.881-0.754,24.49-1.858,37.423-3.219c8.933-0.94,17.495-1.948,25.387-2.955c2.765-0.353,5.25-0.681,7.419-0.976    c1.307-0.178,2.222-0.305,2.708-0.375c4.204-0.601,7.327-4.201,7.327-8.448v-59.733c0-4.713-3.82-8.533-8.533-8.533h-0.151    c-0.704-20-3.854-38.678-8.711-55.678c-1.354-4.737-2.714-8.945-4.01-12.589h59.876c-1.296,3.644-2.656,7.852-4.01,12.589    c-4.857,17-8.007,35.678-8.711,55.678h-0.151c-4.713,0-8.533,3.82-8.533,8.533v59.733c0,4.247,3.123,7.847,7.327,8.448    c0.485,0.069,1.4,0.197,2.708,0.375c2.168,0.295,4.654,0.623,7.419,0.976c7.893,1.008,16.454,2.015,25.387,2.955    c12.933,1.361,25.542,2.465,37.423,3.219c11.23,0.713,21.518,1.094,30.671,1.094c13.266,0,31.209-0.797,52.716-2.231    c8.929-0.595,18.299-1.289,27.965-2.063c11.704-0.936,23.238-1.939,34.104-2.942c3.804-0.351,7.253-0.677,10.286-0.97    c1.822-0.176,3.103-0.302,3.779-0.37c4.362-0.436,7.684-4.107,7.684-8.491v-59.733C512,389.088,508.599,385.44,504.258,385.04z     M392.536,124.024c32.091-3.962,65.128-8.344,93.952-12.472c5.792,35.974,8.049,82.689,7.409,136.472    c-56.809-4.77-101.361-52.366-101.361-110.331V124.024z M134.339,73.458c4.891,0.652,9.532,1.267,14.013,1.855    c55.196,7.244,90.271,11.02,107.648,11.02s52.452-3.776,107.648-11.02c4.481-0.588,9.122-1.202,14.013-1.855    c9.015-1.202,54.815-7.4,65.451-8.798c0.947-0.124,1.872-0.245,2.781-0.364c1.217-0.159,2.39-0.311,3.539-0.459    c0.752-0.097,1.489-0.192,2.211-0.284c1.157-0.148,2.287-0.292,3.369-0.428c0.7-0.088,1.383-0.174,2.052-0.257    c0.046-0.006,0.094-0.012,0.14-0.018c2.01-0.25,3.876-0.477,5.602-0.683c0.035-0.004,0.072-0.009,0.107-0.013    c0.159-0.019,0.307-0.036,0.464-0.055c0.633-0.075,1.245-0.146,1.839-0.215c1.891-0.219,3.589-0.407,5.084-0.564    c0.056-0.006,0.118-0.013,0.173-0.018c0.845-0.088,1.626-0.166,2.343-0.233c0.195,0.415,0.387,0.842,0.579,1.269    c0.078,0.172,0.156,0.343,0.233,0.517c3.761,8.492,7.02,19.18,9.76,31.894c-26.925,3.823-65.033,8.858-100.425,13.207    c-0.275,0.034-0.546,0.081-0.811,0.14c-56.503,6.884-108.485,12.257-126.151,12.257c-0.483,0-1.002-0.006-1.531-0.013    c-0.426-0.006-0.865-0.015-1.323-0.026c-0.029-0.001-0.058-0.001-0.088-0.002c-19.996-0.507-69.564-5.681-123.209-12.216    c-0.266-0.059-0.536-0.107-0.811-0.14c-35.392-4.349-73.5-9.384-100.425-13.207c2.74-12.712,5.998-23.399,9.758-31.891    c0.08-0.179,0.16-0.355,0.24-0.532c0.19-0.423,0.381-0.845,0.573-1.257c0.717,0.068,1.499,0.145,2.345,0.233    c0.01,0.001,0.022,0.002,0.032,0.003c1.481,0.154,3.169,0.341,5.045,0.558c0.757,0.087,1.537,0.179,2.359,0.276    c0.041,0.005,0.078,0.009,0.119,0.014c0.153,0.018,0.316,0.038,0.472,0.057c1.034,0.123,2.107,0.253,3.24,0.392    c0.057,0.007,0.119,0.015,0.176,0.022c0.596,0.073,1.202,0.148,1.825,0.226c0.045,0.006,0.094,0.012,0.14,0.018    c0.669,0.083,1.352,0.169,2.052,0.257c1.082,0.136,2.212,0.28,3.369,0.428c0.722,0.092,1.46,0.187,2.211,0.284    c1.148,0.148,2.322,0.3,3.539,0.459c0.909,0.119,1.834,0.24,2.781,0.364C79.524,66.058,125.324,72.256,134.339,73.458z     M213.333,134.561c14.167,1.346,25.635,2.238,34.133,2.632v76.288c-19.477-3.953-34.133-21.169-34.133-41.813V134.561z     M25.512,111.552c28.825,4.129,61.862,8.511,93.952,12.472v13.668c0,57.966-44.552,105.561-101.361,110.331    C17.463,194.241,19.72,147.526,25.512,111.552z M230.4,445.807c-0.819,0.107-1.669,0.216-2.547,0.328    c-7.774,0.992-16.212,1.985-25.013,2.912c-12.713,1.338-25.092,2.422-36.717,3.16c-10.894,0.692-20.832,1.06-29.589,1.06    c-12.808,0-30.42-0.783-51.581-2.193c-8.849-0.59-18.145-1.279-27.739-2.046c-11.629-0.93-23.095-1.927-33.896-2.924    c-2.209-0.204-4.297-0.399-6.251-0.584v-43.4c0.356,0.039,0.783,0.085,1.265,0.137c0.05,0.005,0.1,0.011,0.151,0.016    c0.33,0.035,0.678,0.073,1.061,0.114c2.743,0.293,5.87,0.62,9.327,0.971c9.872,1.004,20.413,2.008,31.191,2.945    c10.393,0.904,20.472,1.698,30.043,2.352c18.355,1.255,34.083,1.946,46.43,1.946c6.02,0,12.38-0.165,19.04-0.482    c14.258-0.679,29.442-2.025,44.891-3.843c8.017-0.943,15.596-1.954,22.505-2.965c2.423-0.354,4.59-0.684,6.474-0.98    c0.321-0.05,0.607-0.096,0.873-0.138c0.026-0.004,0.059-0.009,0.085-0.013V445.807z M214.921,299.667    c-10.534-4.156-23.112-13.466-28.602-21.772c-2.599-3.932-7.893-5.012-11.824-2.413s-5.012,7.893-2.413,11.824    c7.242,10.957,21.697,21.921,34.904,27.549c0.324,0.76,0.69,1.641,1.092,2.648c1.895,4.737,3.8,10.262,5.585,16.508    c4.542,15.898,7.478,33.432,8.087,52.228c-0.011,0.002-0.024,0.004-0.035,0.005c-7.995,1.171-15.406,2.159-23.244,3.081    c-15.082,1.774-29.885,3.087-43.708,3.745c-6.401,0.305-12.493,0.463-18.228,0.463c-11.89,0-27.265-0.676-45.266-1.907    c-9.459-0.647-19.435-1.433-29.728-2.328c-10.689-0.93-21.148-1.926-30.943-2.922c-0.931-0.095-1.833-0.187-2.714-0.278    c-0.328-0.034-0.64-0.066-0.961-0.099c-0.546-0.057-1.088-0.113-1.613-0.168c-0.127-0.013-0.247-0.026-0.373-0.039    c-0.175-2.014-0.36-4.206-0.554-6.569c-0.888-10.812-1.777-22.935-2.607-36.082c-1.647-26.1-2.825-52.344-3.398-78.029    c66.12-4.946,118.154-60.123,118.154-127.421v-11.591c21.29,2.554,41.73,4.863,59.736,6.719v38.845    c0,30.094,22.252,54.975,51.2,59.117v68.883H214.921z M264.533,299.667v-76.8v-85.695c21.872-1.072,64.366-5.482,110.936-11.069    v11.591c0,67.298,52.034,122.475,118.154,127.421c-0.573,25.685-1.751,51.929-3.398,78.029c-0.83,13.147-1.718,25.27-2.606,36.082    c-0.194,2.362-0.379,4.555-0.554,6.569c-0.125,0.013-0.246,0.026-0.373,0.039c-0.528,0.055-1.074,0.112-1.624,0.169    c-0.315,0.033-0.623,0.065-0.945,0.098c-0.883,0.091-1.786,0.184-2.719,0.278c-9.794,0.996-20.253,1.992-30.943,2.922    c-10.294,0.895-20.27,1.681-29.729,2.328c-18,1.231-33.376,1.907-45.266,1.907c-5.735,0-11.827-0.158-18.228-0.463    c-13.823-0.658-28.626-1.971-43.708-3.745c-7.85-0.924-15.271-1.913-22.028-2.902c-0.642-18.98,2.294-36.514,6.836-52.412    c1.785-6.246,3.69-11.772,5.585-16.508c0.403-1.007,0.768-1.888,1.092-2.648c13.207-5.628,27.661-16.592,34.904-27.549    c2.599-3.932,1.518-9.225-2.413-11.824s-9.225-1.518-11.824,2.413c-5.49,8.306-18.068,17.616-28.602,21.772H264.533z     M494.933,445.518c-1.955,0.185-4.042,0.38-6.251,0.584c-10.801,0.997-22.267,1.994-33.896,2.924    c-9.594,0.768-18.89,1.456-27.739,2.046c-21.16,1.411-38.773,2.193-51.581,2.193c-8.757,0-18.696-0.368-29.589-1.06    c-11.625-0.738-24.004-1.822-36.717-3.16c-8.8-0.926-17.239-1.919-25.013-2.912c-0.879-0.112-1.728-0.222-2.547-0.328v-43.629    c0.024,0.004,0.055,0.009,0.079,0.013c0.267,0.043,0.555,0.088,0.878,0.139c1.884,0.296,4.051,0.626,6.474,0.98    c6.909,1.011,14.488,2.022,22.505,2.965c15.448,1.817,30.632,3.164,44.89,3.843c6.66,0.317,13.02,0.482,19.04,0.482    c12.347,0,28.075-0.691,46.43-1.946c9.571-0.654,19.65-1.449,30.043-2.352c10.778-0.937,21.318-1.941,31.191-2.945    c3.457-0.352,6.583-0.678,9.327-0.971c0.39-0.042,0.743-0.08,1.077-0.116c0.041-0.004,0.081-0.009,0.121-0.013    c0.487-0.052,0.919-0.099,1.278-0.138V445.518z"/>
	</g>
</g>
<g>
</g>
<g>
</g>
<g>
</g>
<g>
</g>
<g>
</g>
<g>
</g>
<g>
</g>
<g>
</g>
<g>
</g>
<g>
</g>
<g>
</g>
<g>
</g>
<g>
</g>
<g>
</g>
<g>
</g>
</svg>
