<?xml version="1.0" encoding="iso-8859-1"?>
<!-- Generator: Adobe Illustrator 19.0.0, SVG Export Plug-In . SVG Version: 6.00 Build 0)  -->
<svg xmlns="http://www.w3.org/2000/svg" xmlns:xlink="http://www.w3.org/1999/xlink" version="1.1" id="Layer_1" x="0px" y="0px" viewBox="0 0 512 512" style="enable-background:new 0 0 512 512;" xml:space="preserve">
<g transform="translate(0 -1)">
	<g>
		<path d="M366.807,128.605c-0.356-2.048-4.834-26.75-5.848-33.086c-1.732-10.826-2.559-18.952-2.559-26.252V52.268    c0-0.023,0.003-0.045,0.003-0.068V18.067c0-4.713-3.821-8.533-8.533-8.533h-71.304C272.55,4.226,264.654,1,256,1    c-8.654,0-16.55,3.226-22.566,8.533h-71.301c-4.713,0-8.533,3.82-8.533,8.533V52.2v17.067c0,7.3-0.827,15.426-2.559,26.252    c-1.014,6.336-5.491,31.038-5.848,33.086c-5.782,33.246-8.66,60.823-8.66,94.262c0,26.817,1.021,70.624,2.82,126.759    c0.445,13.869,0.931,28.292,1.452,43.141c0.934,26.613,1.934,53.324,2.935,78.835c0.35,8.929,0.675,17.07,0.967,24.262    c0.175,4.316,0.3,7.356,0.367,8.959c0.19,4.571,3.951,8.178,8.526,8.178h59.733c4.713,0,8.533-3.82,8.533-8.533    c0-6.392,1.78-22.71,12.746-119.573c0.223-1.973,0.223-1.973,0.447-3.946c8.624-76.257,12.408-112.785,12.408-123.947    c0-8.82,2.264-26.688,6.185-50.492c0.698-4.237,1.441-8.616,2.223-13.112c1.034,4.496,1.777,8.875,2.475,13.112    c3.921,23.804,6.185,41.672,6.185,50.492c0,11.162,3.783,47.69,12.408,123.947c0.223,1.973,0.223,1.973,0.447,3.946    c10.966,96.864,12.746,113.182,12.746,119.573c0,4.713,3.82,8.533,8.533,8.533H358.4c4.575,0,8.335-3.607,8.526-8.178    c0.067-1.603,0.192-4.644,0.367-8.959c0.292-7.191,0.617-15.333,0.967-24.262c1-25.511,2.001-52.222,2.935-78.835    c0.521-14.849,1.007-29.271,1.452-43.141c1.799-56.135,2.82-99.942,2.82-126.759C375.467,189.428,372.589,161.85,366.807,128.605z     M341.337,43.667h-52.279c0.335-1.303,0.586-2.639,0.766-3.997c0.02-0.15,0.039-0.3,0.057-0.45    c0.057-0.48,0.103-0.962,0.141-1.448c0.018-0.227,0.039-0.453,0.052-0.682c0.027-0.486,0.04-0.975,0.047-1.466    c0.002-0.164,0.016-0.327,0.016-0.492s-0.013-0.327-0.016-0.492c-0.007-0.491-0.02-0.98-0.047-1.466    c-0.013-0.228-0.034-0.454-0.052-0.682c-0.037-0.485-0.083-0.968-0.141-1.448c-0.018-0.15-0.037-0.3-0.057-0.45    c-0.18-1.358-0.431-2.694-0.766-3.997h52.279V43.667z M268.051,23.049c0.179,0.245,0.352,0.493,0.563,0.727    c2.136,2.373,3.559,5.178,4.148,8.192c0.039,0.205,0.064,0.415,0.095,0.623c0.046,0.294,0.096,0.587,0.126,0.884    c0.053,0.546,0.084,1.098,0.084,1.658s-0.031,1.112-0.084,1.658c-0.03,0.297-0.08,0.59-0.126,0.884    c-0.031,0.208-0.057,0.417-0.095,0.623c-0.587,3.005-2.004,5.802-4.13,8.171c-0.006,0.006-0.012,0.011-0.018,0.018    C265.34,50.119,260.839,52.2,256,52.2c-4.838,0-9.338-2.081-12.613-5.712c-2.145-2.383-3.572-5.201-4.155-8.229    c-0.015-0.08-0.023-0.163-0.037-0.244c-0.074-0.417-0.138-0.837-0.18-1.261c-0.05-0.534-0.082-1.074-0.082-1.621    s0.031-1.087,0.082-1.621c0.042-0.424,0.106-0.844,0.18-1.261c0.014-0.081,0.022-0.163,0.037-0.244    c0.584-3.029,2.011-5.848,4.157-8.231c0.214-0.238,0.39-0.489,0.571-0.738c3.086-3.072,7.34-4.972,12.039-4.972    C260.705,18.067,264.964,19.971,268.051,23.049z M170.667,26.6h52.275c-0.343,1.333-0.597,2.702-0.778,4.093    c-0.011,0.08-0.02,0.16-0.03,0.24c-0.07,0.571-0.126,1.145-0.167,1.724c-0.011,0.147-0.025,0.294-0.034,0.441    c-0.04,0.674-0.066,1.352-0.066,2.036s0.026,1.362,0.066,2.036c0.009,0.147,0.023,0.294,0.034,0.441    c0.042,0.579,0.097,1.154,0.167,1.724c0.01,0.08,0.02,0.16,0.03,0.239c0.181,1.391,0.435,2.76,0.778,4.093h-52.275V26.6z     M355.588,349.079c-0.444,13.851-0.929,28.257-1.45,43.089c-0.933,26.587-1.932,53.276-2.932,78.765    c-0.35,8.921-0.675,17.055-0.966,24.238c-0.003,0.076-3.726,0.172-8.989,0.271c-0.226-8.375-1.071-17.35-4.224-50.451    c-2.894-30.389-4.228-51.956-4.228-77.058c0-4.713-3.82-8.533-8.533-8.533s-8.533,3.821-8.533,8.533    c0,25.742,1.364,47.795,4.305,78.676c3.064,32.172,3.909,41.148,4.141,49.101c-9.258,0.128-17.429,0.223-17.429,0.223    c-0.987-11.853-3.974-38.492-12.404-112.96c-0.223-1.972-0.223-1.972-0.446-3.944c-8.433-74.567-12.3-111.897-12.3-122.029    c0-10.092-2.332-28.498-6.411-53.266c-0.706-4.289-1.458-8.718-2.248-13.263c-1.875-10.782-3.883-21.726-5.891-32.268    c-0.352-1.846-0.691-3.614-1.015-5.294c1.002-0.289,2.028-0.604,3.094-0.959c1.947-0.649,3.968-1.398,6.041-2.227    c2.481-0.992,4.914-2.05,7.207-3.108c1.386-0.64,2.431-1.144,3.04-1.449c4.215-2.108,5.924-7.233,3.816-11.449    c-2.108-4.215-7.233-5.924-11.449-3.816c-0.458,0.229-1.345,0.657-2.56,1.218c-2.041,0.942-4.208,1.884-6.393,2.758    c-1.779,0.712-3.491,1.346-5.1,1.882c-3.467,1.156-6.251,1.774-7.731,1.774c-1.48,0-4.264-0.619-7.731-1.774    c-1.609-0.536-3.321-1.17-5.1-1.882c-2.185-0.874-4.353-1.816-6.393-2.758c-1.214-0.56-2.102-0.989-2.56-1.218    c-4.215-2.108-9.341-0.399-11.449,3.816c-2.108,4.215-0.399,9.341,3.816,11.449c0.609,0.304,1.655,0.809,3.04,1.449    c2.293,1.058,4.725,2.116,7.207,3.108c2.073,0.829,4.094,1.578,6.041,2.227c1.066,0.355,2.092,0.671,3.094,0.959    c-0.324,1.681-0.664,3.448-1.015,5.294c-2.008,10.542-4.016,21.486-5.891,32.268c-0.79,4.545-1.542,8.974-2.248,13.263    c-4.079,24.768-6.411,43.174-6.411,53.266c0,10.132-3.866,47.462-12.3,122.029c-0.223,1.972-0.223,1.972-0.446,3.944    c-8.43,74.468-11.417,101.107-12.404,112.96h-17.436c0.223-8.011,1.055-16.851,4.148-49.324    c2.941-30.881,4.305-52.933,4.305-78.676c0-4.713-3.82-8.533-8.533-8.533s-8.533,3.821-8.533,8.533    c0,25.102-1.334,46.668-4.228,77.058c-3.214,33.749-4.03,42.418-4.236,50.942h-8.945c-0.322-7.946-0.647-16.08-0.997-25.001    c-1-25.489-1.999-52.178-2.932-78.765c-0.52-14.832-1.006-29.238-1.45-43.089c-1.794-55.96-2.812-99.632-2.812-126.212    c0-32.339,2.78-58.984,8.407-91.338c0.329-1.894,4.839-26.771,5.886-33.314c1.863-11.641,2.774-20.591,2.774-28.948v-8.533h62.767    c4.896,4.319,11.036,7.253,17.818,8.197c0.115,0.016,0.232,0.029,0.347,0.044c0.388,0.05,0.775,0.098,1.167,0.135    c0.253,0.024,0.507,0.039,0.76,0.058c0.275,0.02,0.548,0.044,0.824,0.057c0.547,0.027,1.097,0.042,1.649,0.042    c0.552,0,1.101-0.015,1.649-0.042c0.276-0.013,0.55-0.038,0.824-0.057c0.254-0.019,0.508-0.034,0.76-0.058    c0.392-0.037,0.779-0.085,1.167-0.135c0.116-0.015,0.232-0.028,0.347-0.044c6.782-0.944,12.923-3.879,17.818-8.197h62.767v8.533    c0,8.357,0.911,17.307,2.774,28.948c1.047,6.543,5.556,31.419,5.886,33.314c5.627,32.354,8.407,58.999,8.407,91.338    C358.4,249.447,357.382,293.119,355.588,349.079z"/>
	</g>
</g>
<g>
</g>
<g>
</g>
<g>
</g>
<g>
</g>
<g>
</g>
<g>
</g>
<g>
</g>
<g>
</g>
<g>
</g>
<g>
</g>
<g>
</g>
<g>
</g>
<g>
</g>
<g>
</g>
<g>
</g>
</svg>
