<?xml version="1.0" encoding="iso-8859-1"?>
<!-- Generator: Adobe Illustrator 19.0.0, SVG Export Plug-In . SVG Version: 6.00 Build 0)  -->
<svg xmlns="http://www.w3.org/2000/svg" xmlns:xlink="http://www.w3.org/1999/xlink" version="1.1" id="Layer_1" x="0px" y="0px" viewBox="0 0 511.998 511.998" style="enable-background:new 0 0 511.998 511.998;" xml:space="preserve">
<g transform="translate(0 -1)">
	<g>
		<path d="M358.357,503.616c-0.133-1.329-0.382-3.844-0.732-7.402c-0.583-5.931-1.232-12.613-1.932-19.898    c-1.998-20.815-3.996-42.295-5.861-63.273c-0.63-7.093-1.236-14.023-1.814-20.762c-4.23-49.353-6.686-85.166-6.686-101.149    c0-16.674,2.35-42.217,7.727-89.507c0.375-3.297,0.375-3.297,0.752-6.591c6.926-60.602,8.589-77.089,8.589-91.636    c0-16.299-3.525-30.397-9.434-42.216c-2.628-5.256-5.308-9.305-7.632-12.193V18.067c0-4.713-3.82-8.533-8.533-8.533h-42.667    c0-4.713-3.821-8.533-8.533-8.533h-51.2c-4.713,0-8.533,3.82-8.533,8.533h-42.667c-4.713,0-8.533,3.82-8.533,8.533v30.922    c-2.324,2.888-5.004,6.937-7.632,12.193c-5.91,11.819-9.434,25.918-9.434,42.216c0,14.546,1.663,31.033,8.589,91.636    c0.376,3.294,0.376,3.294,0.751,6.591c5.377,47.29,7.727,72.833,7.727,89.507c0,15.983-2.456,51.795-6.686,101.149    c-0.578,6.739-1.183,13.669-1.814,20.762c-1.865,20.978-3.863,42.459-5.861,63.273c-0.699,7.285-1.349,13.966-1.932,19.898    c-0.349,3.557-0.599,6.073-0.732,7.402c-0.502,5.023,3.443,9.382,8.491,9.382h76.8c4.899,0,8.792-4.115,8.52-9.007    c-0.067-1.197-0.191-3.462-0.366-6.659c-0.292-5.33-0.616-11.327-0.966-17.857c-0.999-18.657-1.999-37.847-2.932-56.503    c-0.275-5.496-0.54-10.876-0.795-16.122c-2.186-44.979-3.461-77.018-3.461-90.119v-93.867c0-7.437,2.666-18.636,7.65-33.236    c1.355-3.971,2.866-8.155,4.606-12.791c0.898-2.393,2.916-7.632,4.811-12.546c1.894,4.914,3.913,10.154,4.811,12.546    c1.74,4.636,3.251,8.82,4.606,12.791c4.983,14.6,7.65,25.798,7.65,33.236v93.867c0,13.101-1.274,45.14-3.461,90.119    c-0.255,5.246-0.52,10.625-0.795,16.122c-0.933,18.656-1.932,37.846-2.932,56.503c-0.35,6.53-0.675,12.527-0.966,17.857    c-0.175,3.197-0.3,5.463-0.366,6.659c-0.272,4.891,3.621,9.007,8.52,9.007h76.8C354.914,512.998,358.859,508.639,358.357,503.616z     M324.266,26.6v17.065h-34.133V26.6H324.266z M273.066,18.067v34.132h-34.133V18.067H273.066z M221.866,26.6v17.065h-34.133V26.6    H221.866z M282.08,495.932c0.258-4.734,0.54-9.943,0.84-15.544c1-18.676,2.001-37.886,2.935-56.564    c0.275-5.504,0.541-10.891,0.796-16.145c2.203-45.321,3.481-77.448,3.481-90.948v-93.867c0-9.831-3.012-22.481-8.565-38.749    c-1.416-4.148-2.983-8.489-4.779-13.275c-1.793-4.777-7.784-20.216-8.798-22.924c-0.508-1.355-0.959-2.595-1.358-3.719    c0.814-0.242,1.64-0.499,2.495-0.784c1.947-0.649,3.968-1.398,6.041-2.227c2.481-0.992,4.914-2.05,7.207-3.108    c1.386-0.64,2.431-1.144,3.04-1.449c4.215-2.108,5.924-7.233,3.816-11.449c-2.108-4.215-7.233-5.924-11.449-3.816    c-0.458,0.229-1.345,0.657-2.56,1.218c-2.041,0.942-4.208,1.884-6.393,2.758c-1.779,0.712-3.491,1.346-5.1,1.882    c-3.467,1.156-6.251,1.774-7.73,1.774c0,0-0.001,0-0.001,0c-1.48,0-4.264-0.619-7.73-1.774c-1.609-0.536-3.321-1.17-5.1-1.882    c-2.185-0.874-4.353-1.816-6.393-2.758c-1.214-0.56-2.102-0.989-2.56-1.218c-4.215-2.108-9.341-0.399-11.449,3.816    c-2.108,4.215-0.399,9.341,3.816,11.449c0.609,0.304,1.655,0.809,3.04,1.449c2.293,1.058,4.725,2.116,7.207,3.108    c2.073,0.829,4.094,1.578,6.041,2.227c0.855,0.285,1.681,0.541,2.495,0.784c-0.399,1.125-0.85,2.365-1.358,3.719    c-1.015,2.708-7.006,18.147-8.798,22.924c-1.796,4.786-3.363,9.126-4.779,13.275c-5.553,16.268-8.565,28.918-8.565,38.749v93.867    c0,13.499,1.278,45.627,3.481,90.948c0.255,5.254,0.521,10.641,0.796,16.145c0.934,18.678,1.934,37.888,2.935,56.564    c0.3,5.601,0.582,10.81,0.84,15.544H171.55c0.534-5.445,1.119-11.474,1.744-17.985c2.002-20.852,4.004-42.371,5.872-63.393    c0.632-7.111,1.239-14.058,1.818-20.816c4.278-49.912,6.748-85.936,6.748-102.606c0-17.595-2.372-43.379-7.836-91.435    c-0.376-3.303-0.376-3.303-0.753-6.601c-6.788-59.398-8.478-76.155-8.478-89.698c0-13.568,2.875-25.07,7.632-34.584    c1.58-3.16,3.252-5.854,4.901-8.081h38.667c0,4.713,3.82,8.533,8.533,8.533h51.2c4.713,0,8.533-3.82,8.533-8.533h38.667    c1.649,2.227,3.321,4.922,4.901,8.081c4.757,9.514,7.632,21.016,7.632,34.584c0,13.543-1.69,30.3-8.478,89.698    c-0.377,3.298-0.377,3.298-0.753,6.601c-5.464,48.056-7.836,73.84-7.836,91.435c0,16.67,2.47,52.694,6.748,102.606    c0.579,6.758,1.186,13.705,1.818,20.816c1.869,21.022,3.87,42.541,5.872,63.393c0.625,6.51,1.21,12.54,1.744,17.985H282.08z"/>
	</g>
</g>
<g>
</g>
<g>
</g>
<g>
</g>
<g>
</g>
<g>
</g>
<g>
</g>
<g>
</g>
<g>
</g>
<g>
</g>
<g>
</g>
<g>
</g>
<g>
</g>
<g>
</g>
<g>
</g>
<g>
</g>
</svg>
