<?xml version="1.0" encoding="iso-8859-1"?>
<!-- Generator: Adobe Illustrator 19.0.0, SVG Export Plug-In . SVG Version: 6.00 Build 0)  -->
<svg xmlns="http://www.w3.org/2000/svg" xmlns:xlink="http://www.w3.org/1999/xlink" version="1.1" id="Layer_1" x="0px" y="0px" viewBox="0 0 512 512" style="enable-background:new 0 0 512 512;" xml:space="preserve">
<g transform="translate(0 -1)">
	<g>
		<path d="M340.432,61.184c-2.627-5.254-5.305-9.301-7.629-12.189V18.067c0-4.713-3.82-8.533-8.533-8.533h-45.704    C272.55,4.226,264.654,1,256,1c-8.654,0-16.55,3.226-22.566,8.533h-45.701c-4.713,0-8.533,3.82-8.533,8.533v30.924    c-2.324,2.888-5.004,6.937-7.632,12.193c-5.91,11.819-9.434,25.918-9.434,42.216c0,14.546,1.663,31.033,8.589,91.636    c0.376,3.294,0.376,3.294,0.752,6.591c5.377,47.29,7.727,72.833,7.727,89.507v213.333c0,4.713,3.82,8.533,8.533,8.533H230.4    c4.529,0,8.269-3.538,8.52-8.06c0.067-1.203,0.192-3.471,0.367-6.674c0.292-5.336,0.617-11.34,0.967-17.876    c1-18.676,2.001-37.886,2.935-56.564c0.275-5.504,0.541-10.891,0.796-16.145c2.203-45.321,3.481-77.448,3.481-90.948v-93.867    c0-7.829,1.812-19.246,5.192-34.099c0.909-3.995,1.921-8.199,3.086-12.855c1.675,4.656,2.687,8.86,3.596,12.855    c3.38,14.853,5.192,26.27,5.192,34.099v93.867c0,13.499,1.278,45.627,3.481,90.948c0.255,5.254,0.521,10.641,0.796,16.145    c0.934,18.678,1.934,37.888,2.935,56.564c0.35,6.537,0.675,12.54,0.967,17.876c0.175,3.203,0.3,5.471,0.367,6.674    c0.251,4.522,3.991,8.06,8.52,8.06h42.667c4.713,0,8.533-3.82,8.533-8.533V291.133c0-16.674,2.35-42.217,7.727-89.507    c0.375-3.297,0.375-3.297,0.752-6.591c6.926-60.602,8.589-77.089,8.589-91.636C349.867,87.101,346.342,73.003,340.432,61.184z     M315.737,43.667h-26.679c0.335-1.303,0.586-2.639,0.766-3.997c0.02-0.15,0.039-0.299,0.057-0.45    c0.057-0.48,0.103-0.964,0.141-1.45c0.018-0.226,0.038-0.451,0.052-0.678c0.028-0.489,0.041-0.982,0.048-1.476    c0.002-0.161,0.016-0.321,0.016-0.483s-0.013-0.322-0.016-0.483c-0.007-0.494-0.02-0.987-0.048-1.476    c-0.013-0.227-0.034-0.452-0.052-0.678c-0.037-0.486-0.083-0.97-0.141-1.45c-0.018-0.15-0.037-0.3-0.057-0.45    c-0.18-1.358-0.431-2.694-0.766-3.997h26.679V43.667z M268.051,23.049c0.179,0.245,0.352,0.493,0.563,0.727    c2.136,2.373,3.559,5.178,4.148,8.192c0.039,0.205,0.064,0.415,0.095,0.623c0.046,0.294,0.096,0.587,0.126,0.884    c0.053,0.546,0.084,1.098,0.084,1.658s-0.031,1.112-0.084,1.658c-0.03,0.297-0.08,0.59-0.126,0.884    c-0.031,0.208-0.057,0.417-0.095,0.623c-0.587,3.005-2.004,5.802-4.13,8.171c-0.006,0.006-0.012,0.011-0.018,0.018    C265.34,50.119,260.839,52.2,256,52.2c-4.838,0-9.339-2.081-12.613-5.712c-2.144-2.383-3.571-5.201-4.155-8.229    c-0.015-0.08-0.023-0.163-0.037-0.244c-0.074-0.417-0.138-0.837-0.18-1.261c-0.05-0.534-0.082-1.074-0.082-1.621    s0.031-1.087,0.082-1.621c0.042-0.424,0.106-0.844,0.18-1.261c0.014-0.081,0.022-0.163,0.037-0.244    c0.584-3.029,2.011-5.848,4.157-8.231c0.214-0.238,0.39-0.489,0.571-0.738c3.086-3.072,7.34-4.972,12.039-4.972    C260.705,18.067,264.964,19.971,268.051,23.049z M196.267,26.6h26.675c-0.343,1.333-0.597,2.702-0.778,4.093    c-0.011,0.08-0.02,0.16-0.03,0.24c-0.07,0.571-0.126,1.145-0.167,1.724c-0.011,0.147-0.025,0.294-0.034,0.441    c-0.04,0.674-0.066,1.352-0.066,2.036s0.026,1.362,0.066,2.036c0.009,0.147,0.023,0.294,0.034,0.441    c0.042,0.579,0.097,1.154,0.167,1.724c0.01,0.08,0.02,0.16,0.03,0.239c0.181,1.391,0.435,2.76,0.778,4.093h-26.675V26.6z     M324.322,193.098c-0.377,3.298-0.377,3.298-0.753,6.601c-5.464,48.056-7.836,73.84-7.836,91.435v204.8h-26.056    c-0.271-4.973-0.57-10.492-0.89-16.456c-1-18.657-1.999-37.847-2.932-56.503c-0.275-5.496-0.54-10.876-0.795-16.122    c-2.187-44.979-3.461-77.018-3.461-90.119v-93.867c0-9.439-1.973-21.871-5.618-37.886c-0.939-4.125-1.978-8.444-3.171-13.211    c-1.191-4.761-5.185-20.201-5.866-22.925c-0.41-1.64-0.767-3.115-1.072-4.422c1.052-0.3,2.132-0.632,3.255-1.007    c1.947-0.649,3.968-1.398,6.041-2.227c2.481-0.992,4.914-2.05,7.207-3.108c1.386-0.64,2.431-1.144,3.04-1.449    c4.215-2.108,5.924-7.233,3.816-11.449c-2.108-4.215-7.233-5.924-11.449-3.816c-0.458,0.229-1.345,0.657-2.56,1.218    c-2.041,0.942-4.208,1.884-6.393,2.758c-1.779,0.712-3.491,1.346-5.1,1.882c-3.467,1.156-6.251,1.774-7.73,1.774    c0,0-0.001,0-0.001,0c-1.48,0-4.264-0.619-7.73-1.774c-1.609-0.536-3.321-1.17-5.1-1.882c-2.185-0.874-4.353-1.816-6.393-2.758    c-1.214-0.56-2.102-0.989-2.56-1.218c-4.215-2.108-9.341-0.399-11.449,3.816c-2.108,4.215-0.399,9.341,3.816,11.449    c0.609,0.304,1.655,0.809,3.04,1.449c2.293,1.058,4.725,2.116,7.207,3.108c2.073,0.829,4.094,1.578,6.041,2.227    c1.123,0.374,2.203,0.706,3.255,1.007c-0.306,1.308-0.663,2.783-1.072,4.422c-0.68,2.724-4.675,18.164-5.866,22.925    c-1.193,4.766-2.232,9.086-3.171,13.211c-3.644,16.014-5.618,28.447-5.618,37.886v93.867c0,13.101-1.274,45.14-3.461,90.119    c-0.255,5.246-0.52,10.625-0.795,16.122c-0.933,18.656-1.932,37.846-2.932,56.503c-0.32,5.964-0.618,11.484-0.89,16.456h-26.056    v-204.8c0-17.595-2.372-43.379-7.836-91.435c-0.376-3.303-0.376-3.303-0.753-6.601C180.89,133.7,179.2,116.943,179.2,103.4    c0-13.568,2.875-25.07,7.632-34.584c1.58-3.16,3.252-5.856,4.902-8.083h41.7c4.896,4.319,11.036,7.253,17.818,8.197    c0.115,0.016,0.232,0.029,0.347,0.044c0.388,0.05,0.775,0.098,1.167,0.135c0.253,0.024,0.507,0.039,0.76,0.058    c0.275,0.02,0.548,0.044,0.824,0.057c0.547,0.027,1.097,0.042,1.649,0.042c0.552,0,1.101-0.015,1.649-0.042    c0.276-0.013,0.55-0.038,0.824-0.057c0.254-0.019,0.508-0.034,0.76-0.058c0.392-0.037,0.779-0.085,1.167-0.135    c0.116-0.015,0.232-0.028,0.347-0.044c6.782-0.944,12.923-3.879,17.818-8.197h41.7c1.65,2.227,3.322,4.922,4.902,8.083    c4.757,9.514,7.632,21.016,7.632,34.584C332.8,116.943,331.11,133.7,324.322,193.098z"/>
	</g>
</g>
<g>
</g>
<g>
</g>
<g>
</g>
<g>
</g>
<g>
</g>
<g>
</g>
<g>
</g>
<g>
</g>
<g>
</g>
<g>
</g>
<g>
</g>
<g>
</g>
<g>
</g>
<g>
</g>
<g>
</g>
</svg>
