<?xml version="1.0" encoding="iso-8859-1"?>
<!-- Generator: Adobe Illustrator 19.0.0, SVG Export Plug-In . SVG Version: 6.00 Build 0)  -->
<svg xmlns="http://www.w3.org/2000/svg" xmlns:xlink="http://www.w3.org/1999/xlink" version="1.1" id="Layer_1" x="0px" y="0px" viewBox="0 0 503.775 503.775" style="enable-background:new 0 0 503.775 503.775;" xml:space="preserve">
<g>
	<g>
		<g>
			<path d="M465.367,458.453c1.098-0.795,2.186-1.598,3.259-2.416c0.581-0.444,1.156-0.894,1.73-1.345     c1.347-1.055,2.679-2.123,3.984-3.215c0.269-0.226,0.533-0.456,0.8-0.683c1.506-1.277,2.989-2.573,4.439-3.9     c0.061-0.056,0.12-0.113,0.18-0.168c1.596-1.465,3.16-2.958,4.687-4.484c3.071-3.071,3.292-7.979,0.509-11.313     c-0.827-0.991-2.398-2.9-4.608-5.625c-3.695-4.558-7.815-9.73-12.254-15.415c-8.488-10.872-16.97-22.121-25.2-33.496     c-4.067-5.622-8.078-11.272-11.989-16.927c-7.49-10.831-14.395-21.329-20.594-31.377c-4.233-6.861-8.082-13.432-11.538-19.691     c-13.472-24.396-20.882-43.974-20.882-56.746c0-12.774,3.857-31.388,10.149-52.633c14.446-48.769,41.722-111.394,64.62-149.058     c2.592-4.262,5.13-8.214,7.584-11.779c2.722-3.954,1.58-9.381-2.505-11.902c-0.085-0.052-0.168-0.101-0.253-0.154     c-1.154-0.711-2.297-1.404-3.434-2.087c-0.062-0.037-0.124-0.074-0.186-0.111C391.458-13.483,353.589-8.01,251.984,48.819     C148.143-9.28,110.83-13.826,46.034,26.177c-2.579,1.592-3.981,4.343-3.981,7.15c-0.02,1.671,0.456,3.366,1.48,4.853     c33.052,48.007,80.814,164.291,82.317,211.258c0.022,0.72,0.034,1.424,0.034,2.111c0,16.047-11.691,42.834-32.423,76.438     c-6.199,10.047-13.104,20.546-20.594,31.377c-11.823,17.097-24.504,34.177-37.186,50.421     c-4.439,5.685-8.559,10.858-12.254,15.416c-2.21,2.726-3.781,4.635-4.608,5.626c-1.398,1.675-2.037,3.747-1.938,5.783     c0.075,2.052,0.895,4.075,2.448,5.629c12.959,12.967,28.426,23.691,46.175,32.412c0.328,0.161,0.665,0.291,1.003,0.407     c15.984,7.742,33.686,13.807,52.951,18.321c38.073,8.921,72.656,10.924,119.876,10.14c8.515-0.141,9.783-0.163,11.249-0.166     c3.899,0.1,3.142,0.089,13.854,0.267c47.22,0.784,81.803-1.219,119.876-10.14c29.001-6.795,54.491-17.074,75.823-31.38     c0.264-0.177,0.524-0.358,0.787-0.536C462.424,460.545,463.909,459.512,465.367,458.453z M463.316,438.805     c-0.585,0.487-1.182,0.963-1.776,1.442c-0.67,0.541-1.344,1.078-2.026,1.609c-0.763,0.593-1.533,1.181-2.312,1.761     c-0.461,0.344-0.928,0.683-1.394,1.023c-5.838,4.248-12.084,8.168-18.743,11.756c-57.895-78.471-109.636-168.525-109.636-204.847     c0-40.591,40.259-151.541,78.764-230.934c10.908,3.02,22.332,8.053,35.295,15.511c-1.089,1.714-2.188,3.485-3.296,5.31     c-23.838,39.247-51.691,103.185-66.523,153.935c-6.555,22.424-10.567,42.273-10.567,56.278c0,16.084,7.988,37.655,22.509,64.043     c3.719,6.758,7.859,13.826,12.411,21.205c6.363,10.314,13.429,21.057,21.079,32.119c3.541,5.12,7.161,10.232,10.827,15.323     c8.782,12.195,17.854,24.249,26.932,35.877c4.409,5.648,8.512,10.8,12.207,15.363c-0.013,0.012-0.027,0.023-0.041,0.035     C465.814,436.698,464.572,437.757,463.316,438.805z M36.755,435.521c3.684-4.549,7.769-9.68,12.16-15.304     c12.868-16.482,25.737-33.815,37.761-51.202c7.65-11.062,14.716-21.805,21.079-32.119c22.327-36.19,34.918-65.041,34.918-85.247     c0-0.75-0.012-1.517-0.035-2.3C141.289,200.95,96.665,90.167,62.333,36.1c12.945-7.444,24.355-12.469,35.251-15.486     c38.505,79.394,78.764,190.344,78.764,230.934c0,36.313-51.714,126.33-109.591,204.786     C55.658,450.353,45.617,443.446,36.755,435.521z M380.484,477.135c-36.382,8.525-69.834,10.463-115.768,9.7     c-8.789-0.146-9.964-0.166-11.525-0.169c-0.425-0.066-0.861-0.101-1.305-0.101c-2.742,0-1.927-0.012-12.83,0.169     c-45.934,0.763-79.386-1.175-115.768-9.7c-14.791-3.466-28.529-7.881-41.143-13.287     c59.616-81.177,110.989-171.108,110.989-212.198c0-43.336-39.533-153.026-78.557-234.341c32.614-2.787,68.64,12.187,132.131,47.9     c2.521,1.965,6.122,2.493,9.297,0.704c64.12-36.125,100.362-51.285,133.145-48.502c-39.008,81.304-78.509,190.922-78.509,234.24     c0,41.103,51.405,131.076,111.044,212.273C409.056,469.241,395.298,473.663,380.484,477.135z"/>
			<path d="M274.61,102.923c-3.278-3.278-8.592-3.278-11.87,0l-10.852,10.852l-10.852-10.852c-3.278-3.278-8.592-3.278-11.87,0     c-3.278,3.278-3.278,8.592,0,11.87l10.852,10.852l-10.852,10.852c-3.278,3.278-3.278,8.592,0,11.87     c3.278,3.278,8.592,3.278,11.87,0l10.852-10.852l10.852,10.852c3.278,3.278,8.592,3.278,11.87,0s3.278-8.592,0-11.87     l-10.852-10.852l10.852-10.852C277.888,111.515,277.888,106.201,274.61,102.923z"/>
			<path d="M274.61,195.251c-3.278-3.278-8.592-3.278-11.87,0l-10.852,10.852l-10.852-10.852c-3.278-3.278-8.592-3.278-11.87,0     c-3.278,3.278-3.278,8.592,0,11.87l10.852,10.852l-10.852,10.852c-3.278,3.278-3.278,8.592,0,11.87     c3.278,3.278,8.592,3.278,11.87,0l10.852-10.852l10.852,10.852c3.278,3.278,8.592,3.278,11.87,0c3.278-3.278,3.278-8.592,0-11.87     l-10.852-10.852l10.852-10.852C277.888,203.843,277.888,198.529,274.61,195.251z"/>
			<path d="M274.61,287.579c-3.278-3.278-8.592-3.278-11.87,0l-10.852,10.852l-10.852-10.852c-3.278-3.278-8.592-3.278-11.87,0     c-3.278,3.278-3.278,8.592,0,11.87l10.852,10.852l-10.852,10.852c-3.278,3.278-3.278,8.592,0,11.87     c3.278,3.278,8.592,3.278,11.87,0l10.852-10.852l10.852,10.852c3.278,3.278,8.592,3.278,11.87,0c3.278-3.278,3.278-8.592,0-11.87     l-10.852-10.852l10.852-10.852C277.888,296.171,277.888,290.857,274.61,287.579z"/>
			<path d="M274.61,379.907c-3.278-3.278-8.592-3.278-11.87,0l-10.852,10.852l-10.852-10.852c-3.278-3.278-8.592-3.278-11.87,0     c-3.278,3.278-3.278,8.592,0,11.87l10.852,10.852l-10.852,10.852c-3.278,3.278-3.278,8.592,0,11.87     c3.278,3.278,8.592,3.278,11.87,0l10.852-10.852l10.852,10.852c3.278,3.278,8.592,3.278,11.87,0s3.278-8.592,0-11.87     l-10.852-10.852l10.852-10.852C277.888,388.499,277.888,383.184,274.61,379.907z"/>
		</g>
	</g>
</g>
<g>
</g>
<g>
</g>
<g>
</g>
<g>
</g>
<g>
</g>
<g>
</g>
<g>
</g>
<g>
</g>
<g>
</g>
<g>
</g>
<g>
</g>
<g>
</g>
<g>
</g>
<g>
</g>
<g>
</g>
</svg>
