<?xml version="1.0" encoding="iso-8859-1"?>
<!-- Generator: Adobe Illustrator 19.0.0, SVG Export Plug-In . SVG Version: 6.00 Build 0)  -->
<svg xmlns="http://www.w3.org/2000/svg" xmlns:xlink="http://www.w3.org/1999/xlink" version="1.1" id="Layer_1" x="0px" y="0px" viewBox="0 0 511.996 511.996" style="enable-background:new 0 0 511.996 511.996;" xml:space="preserve">
<g>
	<g>
		<path d="M349.371,295.821c-1.043-2.954-1.959-5.843-2.768-8.672c-0.101-0.871-0.332-1.722-0.694-2.522    c-6.435-24.176-4.691-43.62-1.067-57.373c0.245-0.606,0.425-1.244,0.526-1.909c0.43-1.501,0.879-2.932,1.34-4.284    c2.584-7.593,7.271-14.941,14.703-23.078c24.417-21.916,29.321-59.416,13.624-106.805c-0.019-0.056-0.049-0.106-0.068-0.161    c-0.029-0.082-0.05-0.165-0.082-0.247c-12.638-32.435-16.486-51.652-16.486-82.236c0-4.719-3.814-8.533-8.533-8.533    s-8.533,3.814-8.533,8.533c0,28.907,3.372,49.073,13.419,77.13c-45.978,2.471-79.095,19.244-98.752,50.005    c-19.651-30.763-52.769-47.537-98.754-50.008c10.047-28.069,13.42-48.234,13.42-77.126c0-4.719-3.814-8.533-8.533-8.533    s-8.533,3.814-8.533,8.533c0,30.566-3.849,49.775-16.486,82.236c-0.042,0.108-0.071,0.217-0.108,0.325    c-0.01,0.031-0.027,0.058-0.037,0.088c-15.699,47.356-10.812,84.852,13.594,106.773c7.439,8.148,12.133,15.504,14.729,23.106    c5.325,15.599,9.182,41.233-2.714,74.906l-34.133,102.4c-1.476,4.403,0.845,9.173,5.222,10.735    c0.802,0.282,80.299,29.32,105.805,97.357c1.254,3.328,4.437,5.538,7.996,5.538h17.067c3.558,0,6.741-2.21,7.996-5.538    c25.438-67.849,105.011-97.075,105.813-97.365c4.369-1.562,6.682-6.332,5.214-10.726L349.371,295.821z M171.144,324.192    c52.297-2.971,118.59-42.524,153.415-74.049c-0.249,10.743,0.861,22.883,4.184,36.255    c-20.685,24.552-110.881,73.679-171.625,79.881L171.144,324.192z M181.444,215.539c-0.481-1.404-1.017-2.795-1.598-4.178    c5.827,1.288,11.544,1.941,17.112,1.941c10.018,0,19.55-2.091,28.356-6.272c12.884-6.113,23.367-16.437,30.69-29.909    c7.322,13.469,17.802,23.791,30.679,29.904c8.806,4.19,18.347,6.272,28.356,6.272c5.571,0,11.293-0.652,17.125-1.941    c-0.589,1.393-1.129,2.789-1.608,4.191c-0.535,1.568-1.056,3.227-1.556,4.964c-17.371,24.473-93.357,79.004-151.976,86.036    l1.681-5.044C192.196,263.36,187.639,233.707,181.444,215.539z M360.691,102.484c7.62,25.788,13.423,66.039-15.104,86.357    c-19.115,8.772-36.941,9.728-51.584,2.773c-13.636-6.477-23.842-19.635-28.954-37.231    C281.195,121.317,313.331,103.875,360.691,102.484z M151.304,102.489c47.36,1.382,79.505,18.825,95.642,51.891    c-5.103,17.596-15.309,30.754-28.945,37.231c-14.652,6.955-32.478,5.99-51.593-2.773c-1.528-1.088-2.937-2.244-4.273-3.442    c-0.002-0.002-0.004-0.003-0.006-0.005C138.52,164.227,144.092,126.886,151.304,102.489z M258.747,494.929h-5.495    c-25.079-59.255-84.617-89.515-106.086-98.782l4.105-12.319c58.435-3.036,148.167-47.205,183.103-79.078l30.46,91.396    C343.364,405.414,283.826,435.674,258.747,494.929z"/>
	</g>
</g>
<g>
</g>
<g>
</g>
<g>
</g>
<g>
</g>
<g>
</g>
<g>
</g>
<g>
</g>
<g>
</g>
<g>
</g>
<g>
</g>
<g>
</g>
<g>
</g>
<g>
</g>
<g>
</g>
<g>
</g>
</svg>
