<?xml version="1.0" encoding="iso-8859-1"?>
<!-- Generator: Adobe Illustrator 19.0.0, SVG Export Plug-In . SVG Version: 6.00 Build 0)  -->
<svg xmlns="http://www.w3.org/2000/svg" xmlns:xlink="http://www.w3.org/1999/xlink" version="1.1" id="Layer_1" x="0px" y="0px" viewBox="0 0 503.775 503.775" style="enable-background:new 0 0 503.775 503.775;" xml:space="preserve">
<g>
	<g>
		<path d="M484.954,430.826c-0.827-0.991-2.398-2.9-4.608-5.626c-3.695-4.558-7.815-9.731-12.254-15.416    c-12.682-16.244-25.363-33.325-37.186-50.421c-7.49-10.831-14.395-21.33-20.594-31.377c-0.869-1.409-1.716-2.801-2.554-4.185    c-0.025-0.043-0.042-0.088-0.068-0.13c-11.93-19.735-20.577-36.965-25.392-50.85c-0.001-0.002-0.002-0.005-0.002-0.007    c-0.232-0.669-0.454-1.33-0.668-1.983c-0.017-0.053-0.034-0.105-0.051-0.158c-0.198-0.607-0.388-1.208-0.57-1.801    c-0.03-0.099-0.06-0.196-0.089-0.294c-0.167-0.55-0.328-1.095-0.482-1.633c-0.04-0.139-0.077-0.276-0.116-0.413    c-0.139-0.495-0.274-0.987-0.401-1.472c-0.047-0.18-0.091-0.357-0.137-0.536c-0.113-0.441-0.223-0.88-0.326-1.312    c-0.052-0.217-0.099-0.431-0.148-0.646c-0.089-0.387-0.176-0.774-0.257-1.154c-0.055-0.263-0.105-0.52-0.157-0.78    c-0.065-0.327-0.131-0.655-0.19-0.976c-0.057-0.312-0.107-0.618-0.158-0.925c-0.044-0.262-0.091-0.527-0.13-0.785    c-0.058-0.379-0.106-0.749-0.154-1.12c-0.023-0.18-0.051-0.363-0.072-0.541c-0.061-0.513-0.112-1.017-0.155-1.513    c-0.003-0.031-0.007-0.064-0.01-0.095c-0.09-1.084-0.136-2.127-0.136-3.128c0-45.422,48.77-164.691,82.354-213.47    c2.722-3.953,1.58-9.38-2.504-11.902C417.333,1.232,387.613-6.388,345.785,5.497c-0.822,0.113-1.624,0.348-2.382,0.698    c-24.732,7.38-53.747,21.437-91.614,42.624c-37.503-20.975-66.319-34.951-90.893-42.361c-1.088-0.599-2.291-0.944-3.521-1.023    C115.872-6.2,86.243,1.46,46.036,26.277c-4.084,2.521-5.227,7.947-2.506,11.901c33.347,48.46,81.648,166.346,82.339,212.471    c-0.006,0.208-0.011,0.416-0.003,0.631c-0.012,15.737-10.668,40.845-29.744,72.427c-0.026,0.043-0.044,0.089-0.069,0.132    c-0.849,1.405-1.709,2.818-2.591,4.248c-6.199,10.047-13.104,20.546-20.594,31.377c-11.823,17.097-24.504,34.177-37.186,50.421    c-4.439,5.685-8.559,10.858-12.254,15.416c-2.21,2.726-3.781,4.635-4.608,5.626c-2.783,3.335-2.562,8.242,0.509,11.313    c25.102,25.102,59.129,41.632,100.13,51.239c38.073,8.921,72.656,10.924,119.876,10.14c10.712-0.178,9.955-0.167,12.551-0.167    c2.768-0.097,4.036-0.075,12.551,0.066c47.22,0.784,81.803-1.219,119.876-10.14c41.001-9.607,75.028-26.137,100.13-51.239    C487.516,439.068,487.737,434.161,484.954,430.826z M324.299,465.37c-5.665-64.985,8.72-126.578,41.278-189.594    c0.297,0.92,0.612,1.851,0.938,2.791c0.014,0.039,0.028,0.079,0.042,0.118c0.321,0.923,0.657,1.856,1.005,2.799    c0.004,0.012,0.009,0.024,0.013,0.035c5.054,13.658,12.971,29.351,23.392,46.916L324.299,465.37L324.299,465.37z M257.064,65.108    c29.081-16.358,52.396-28.36,72.265-36.303c-2.455,5.047-5.231,10.946-8.406,17.84c-4.426,9.613-22.278,49.24-25.978,57.348    c-2.581,5.656-4.988,10.885-7.299,15.851c-15.319,32.92-27.186,55.75-35.751,68.037c-8.568-12.314-20.451-35.188-35.81-68.189    c-2.289-4.918-4.673-10.095-7.228-15.691c-3.656-8.005-21.548-47.696-25.998-57.353c-3.148-6.832-5.905-12.687-8.346-17.705    c20.095,8.039,43.712,20.226,73.254,36.869C250.942,67.601,254.543,67.072,257.064,65.108z M179.474,465.324L112.848,328.47    c11.921-20.099,20.565-37.75,25.386-52.7C170.763,338.778,185.135,400.359,179.474,465.324z M36.706,435.579    c3.696-4.563,7.798-9.716,12.207-15.363c12.868-16.482,25.737-33.816,37.761-51.204c5.573-8.059,10.832-15.946,15.739-23.624    l67.887,139.444c-15.959-1.536-31.21-3.995-47.012-7.697C88.103,468.89,58.794,455.349,36.706,435.579z M239.057,486.834    c-16.411,0.273-31.224,0.198-45.151-0.397c11.934-82.414-6.427-159.029-51.296-237.74    c-1.781-48.796-46.165-158.802-80.332-212.585c31.468-18.241,55.735-23.9,89.257-14.953c3.533,6.005,8.734,16.574,16.078,32.512    c4.414,9.58,22.29,49.234,25.974,57.301c2.572,5.632,4.972,10.844,7.279,15.802c18.816,40.429,32.269,65.682,42.627,77.684    v282.302C242.275,486.781,240.826,486.805,239.057,486.834z M264.718,486.734c-1.767-0.029-3.222-0.054-4.439-0.074V204.467    c10.369-11.982,23.814-37.197,42.587-77.541c2.329-5.006,4.753-10.271,7.351-15.963c3.728-8.169,21.564-47.761,25.955-57.297    c7.39-16.051,12.61-26.656,16.141-32.635c33.485-8.919,57.738-3.251,89.183,14.981c-34.211,53.832-78.671,164.075-80.339,212.784    c-44.841,78.636-63.203,155.193-51.31,237.543C295.926,486.931,281.12,487.006,264.718,486.734z M380.485,477.034    c-15.778,3.697-31.006,6.154-46.939,7.69l67.855-139.372c4.896,7.657,10.14,15.523,15.698,23.559    c12.024,17.388,24.893,34.721,37.761,51.204c4.409,5.648,8.512,10.8,12.207,15.363    C444.981,455.249,415.671,468.789,380.485,477.034z"/>
	</g>
</g>
<g>
</g>
<g>
</g>
<g>
</g>
<g>
</g>
<g>
</g>
<g>
</g>
<g>
</g>
<g>
</g>
<g>
</g>
<g>
</g>
<g>
</g>
<g>
</g>
<g>
</g>
<g>
</g>
<g>
</g>
</svg>
