<?xml version="1.0" encoding="iso-8859-1"?>
<!-- Generator: Adobe Illustrator 19.0.0, SVG Export Plug-In . SVG Version: 6.00 Build 0)  -->
<svg xmlns="http://www.w3.org/2000/svg" xmlns:xlink="http://www.w3.org/1999/xlink" version="1.1" id="Layer_1" x="0px" y="0px" viewBox="0 0 503.775 503.775" style="enable-background:new 0 0 503.775 503.775;" xml:space="preserve">
<g>
	<g>
		<g>
			<path d="M484.954,430.927c-0.827-0.991-2.398-2.9-4.608-5.626c-3.695-4.558-7.815-9.731-12.254-15.416     c-12.682-16.244-25.363-33.325-37.186-50.421c-7.49-10.831-14.395-21.329-20.594-31.377     c-20.732-33.603-32.423-60.391-32.423-76.438c0-45.407,48.767-164.661,82.355-213.471c2.721-3.954,1.578-9.38-2.506-11.901     c-64.756-39.97-102.063-35.453-205.754,22.542C148.144-9.28,110.831-13.826,46.035,26.177c-4.084,2.521-5.226,7.948-2.504,11.902     c33.583,48.779,82.354,168.048,82.354,213.47c0,16.047-11.691,42.834-32.423,76.438c-6.199,10.047-13.104,20.546-20.594,31.377     c-11.823,17.097-24.504,34.177-37.186,50.421c-4.439,5.685-8.559,10.858-12.254,15.416c-2.21,2.726-3.781,4.635-4.608,5.626     c-2.783,3.335-2.562,8.242,0.509,11.313c25.102,25.102,59.129,41.632,100.13,51.239c38.073,8.921,72.656,10.924,119.876,10.14     c8.515-0.141,9.783-0.163,11.249-0.166c0.03,0.001,0.057,0.002,0.086,0.002c0.398,0.058,0.803,0.098,1.217,0.098     c0.293,0,0.582-0.015,0.866-0.045c1.998,0.05,3.467,0.075,11.683,0.211c47.22,0.784,81.803-1.219,119.876-10.14     c41.001-9.607,75.028-26.137,100.13-51.239C487.517,439.169,487.737,434.262,484.954,430.927z M380.485,477.135     c-36.382,8.525-69.834,10.463-115.768,9.7c-1.769-0.029-3.218-0.053-4.435-0.074V310.403c0-4.636-3.758-8.393-8.393-8.393     c-4.636,0-8.393,3.758-8.393,8.393V486.66c-1.216,0.02-2.672,0.044-4.439,0.074c-45.934,0.763-79.386-1.175-115.768-9.7     c-35.186-8.245-64.495-21.785-86.583-41.556c3.696-4.563,7.798-9.716,12.207-15.363c12.868-16.482,25.737-33.816,37.761-51.204     c6.766-9.785,13.074-19.318,18.844-28.527c3.587,1.542,7.463,3.396,11.999,5.712c3.617,1.847,17.273,9.077,16.621,8.735     c29.882,15.668,50.182,22.62,75.784,22.62c4.636,0,8.393-3.758,8.393-8.393c0-4.636-3.758-8.393-8.393-8.393     c-22.234,0-40.301-6.185-67.96-20.685c-0.135-0.075-13.181-6.98-16.811-8.834c-3.974-2.029-7.516-3.747-10.85-5.24     c8.335-14.235,14.978-27.209,19.735-38.835c0.919,0.486,1.718,0.908,2.217,1.169c29.108,15.274,48.87,22.061,73.669,22.061     c4.636,0,8.393-3.758,8.393-8.393s-3.758-8.393-8.393-8.393c-21.43,0-38.97-6.024-65.87-20.139     c-0.865-0.454-2.649-1.398-4.425-2.338c2.004-7.186,3.045-13.695,3.045-19.489c0-7.821-1.257-17.472-3.503-28.367     c26.953,13.821,46.355,19.971,70.756,19.971c4.636,0,8.393-3.758,8.393-8.393s-3.758-8.393-8.393-8.393     c-22.687,0-40.786-6.238-68.533-20.958c-1.389-0.737-4.94-2.638-7.55-4.036c-14.946-53.943-46.094-125.284-71.563-165.36     c53.935-31.271,86.716-25.583,181.217,27.295v87.622c0,4.636,3.758,8.393,8.393,8.393c4.636,0,8.393-3.758,8.393-8.393V63.412     C354.785,10.532,387.56,4.848,441.497,36.113c-25.45,40.062-56.569,111.319-71.529,165.239c-2.629,1.408-6.209,3.325-7.603,4.064     c-27.739,14.713-45.832,20.948-68.506,20.948c-4.636,0-8.393,3.758-8.393,8.393s3.758,8.393,8.393,8.393     c24.401,0,43.803-6.153,70.77-19.982c-2.261,10.942-3.527,20.632-3.527,28.48c0,5.771,1.032,12.251,3.02,19.403     c-0.198,0.105-0.417,0.221-0.679,0.36c-1.425,0.755-2.608,1.379-3.747,1.977c-26.883,14.101-44.426,20.124-65.842,20.124     c-4.636,0-8.393,3.758-8.393,8.393s3.758,8.393,8.393,8.393c24.784,0,44.548-6.786,73.64-22.045     c0.705-0.37,1.432-0.753,2.211-1.164c4.75,11.625,11.389,24.6,19.723,38.838c-3.566,1.597-7.353,3.442-11.704,5.677     c-3.454,1.774-15.633,8.226-15.877,8.354c-27.678,14.512-45.748,20.699-67.991,20.699c-4.636,0-8.393,3.758-8.393,8.393     c0,4.636,3.758,8.393,8.393,8.393c25.605,0,45.903-6.95,75.786-22.619c0.327-0.172,12.411-6.573,15.754-8.29     c4.918-2.527,9.01-4.496,12.81-6.131c5.784,9.234,12.107,18.793,18.893,28.606c12.024,17.387,24.893,34.721,37.761,51.204     c4.409,5.648,8.511,10.8,12.207,15.363C444.981,455.349,415.671,468.89,380.485,477.135z"/>
			<path d="M251.889,192.895c-4.636,0-8.393,3.758-8.393,8.393v50.361c0,4.636,3.758,8.393,8.393,8.393     c4.636,0,8.393-3.758,8.393-8.393v-50.361C260.282,196.653,256.525,192.895,251.889,192.895z"/>
		</g>
	</g>
</g>
<g>
</g>
<g>
</g>
<g>
</g>
<g>
</g>
<g>
</g>
<g>
</g>
<g>
</g>
<g>
</g>
<g>
</g>
<g>
</g>
<g>
</g>
<g>
</g>
<g>
</g>
<g>
</g>
<g>
</g>
</svg>
