<?xml version="1.0" encoding="iso-8859-1"?>
<!-- Generator: Adobe Illustrator 19.0.0, SVG Export Plug-In . SVG Version: 6.00 Build 0)  -->
<svg xmlns="http://www.w3.org/2000/svg" xmlns:xlink="http://www.w3.org/1999/xlink" version="1.1" id="Layer_1" x="0px" y="0px" viewBox="0 0 503.916 503.916" style="enable-background:new 0 0 503.916 503.916;" xml:space="preserve">
<g>
	<g>
		<path d="M422.397,224.52c0.107-0.28,0.196-0.566,0.272-0.855c5.318-16.41,12.29-33.586,21.213-51.491    c4.778-7.046,42.407-66.791,17.661-165.754c-0.932-3.735-4.289-6.362-8.142-6.362l-4.138-0.042    c-69.211-0.649-157.527,18.226-197.305,110.207C212.229,18.237,124.203-0.692,54.657,0.019l-4.138,0.042    c-3.853,0-7.21,2.619-8.15,6.354C17.64,105.346,55.23,165.083,60.032,172.169c8.788,17.632,15.709,34.53,21.041,50.668    c0.14,0.874,0.411,1.726,0.818,2.519c29.058,90.31,8.388,156.564-11.948,194.301c-1.083,1.103-1.811,2.462-2.16,3.91    c-11.266,19.867-21.878,30.858-23.21,32.204c-3.265,3.29-3.265,8.586,0.008,11.86c16.915,16.911,48.706,26.014,82.922,30.87    c0.876,0.296,1.787,0.442,2.697,0.442c0.122,0,0.243-0.015,0.365-0.02c41.192,5.523,85.338,5.088,110.969,4.817    c3.693-0.037,6.655-0.056,9.537-0.058c0.292,0.031,0.588,0.048,0.887,0.048c0.297,0,0.591-0.016,0.88-0.047    c3.079,0.005,6.216,0.03,10.208,0.073c6.429,0.076,14.025,0.159,22.444,0.159c25.235,0,57.903-0.776,88.848-4.998    c0.339-0.025,0.677-0.075,1.013-0.142c34.526-4.802,66.777-13.939,83.983-31.145c3.282-3.282,3.282-8.586,0-11.868    C458.395,454.823,375.771,369.723,422.397,224.52z M399.883,242.584c-16.258,66.889-6.572,120.779,8.202,159.037    c-42.88-31.313-57.325-53.672-55.425-82.056c0.025-0.369,0.025-0.747,0-1.116C350.893,292.085,364.014,270.351,399.883,242.584z     M427.612,164.907c-0.55,0.499-1.106,0.972-1.661,1.449c-0.378,0.325-0.752,0.663-1.132,0.978    c-0.849,0.704-1.705,1.38-2.566,2.036c-0.091,0.07-0.181,0.146-0.272,0.215c-0.962,0.727-1.93,1.421-2.905,2.089    c-0.254,0.174-0.512,0.332-0.767,0.503c-0.723,0.483-1.447,0.961-2.176,1.412c-0.325,0.201-0.654,0.386-0.98,0.581    c-0.665,0.397-1.33,0.793-2,1.166c-0.354,0.197-0.711,0.379-1.067,0.569c-0.648,0.346-1.296,0.689-1.948,1.013    c-0.37,0.183-0.742,0.354-1.113,0.531c-0.643,0.305-1.287,0.606-1.935,0.89c-0.379,0.166-0.759,0.323-1.14,0.482    c-0.645,0.27-1.291,0.533-1.94,0.782c-0.383,0.147-0.767,0.287-1.151,0.427c-0.652,0.237-1.305,0.467-1.961,0.685    c-0.383,0.127-0.766,0.25-1.15,0.37c-0.662,0.208-1.326,0.405-1.991,0.593c-0.379,0.107-0.759,0.212-1.139,0.313    c-0.677,0.179-1.355,0.347-2.034,0.506c-0.371,0.087-0.741,0.175-1.113,0.256c-0.697,0.152-1.395,0.291-2.095,0.423    c-0.356,0.067-0.712,0.137-1.069,0.2c-0.726,0.127-1.454,0.237-2.182,0.343c-0.332,0.048-0.664,0.101-0.997,0.145    c-0.772,0.102-1.546,0.186-2.32,0.265c-0.29,0.03-0.579,0.065-0.87,0.092c-0.86,0.079-1.722,0.138-2.585,0.19    c-0.205,0.012-0.41,0.031-0.616,0.042c-3.252,0.17-6.517,0.154-9.786-0.032c-0.161-0.009-0.322-0.024-0.484-0.034    c-0.912-0.056-1.824-0.122-2.735-0.204c-0.294-0.026-0.587-0.061-0.881-0.09c-0.779-0.077-1.557-0.157-2.336-0.252    c-0.357-0.044-0.715-0.095-1.072-0.142c-0.714-0.094-1.428-0.191-2.141-0.3c-0.396-0.06-0.791-0.127-1.186-0.192    c-0.673-0.11-1.346-0.223-2.019-0.346c-0.421-0.077-0.842-0.159-1.262-0.24c-0.647-0.125-1.293-0.254-1.939-0.39    c-0.436-0.092-0.872-0.188-1.308-0.285c-0.628-0.14-1.255-0.283-1.881-0.433c-0.448-0.107-0.896-0.216-1.344-0.328    c-0.612-0.153-1.223-0.311-1.834-0.473c-0.457-0.121-0.913-0.243-1.369-0.369c-0.598-0.165-1.195-0.336-1.791-0.51    c-0.464-0.135-0.929-0.27-1.392-0.41c-0.585-0.177-1.169-0.36-1.753-0.544c-0.469-0.148-0.938-0.295-1.406-0.448    c-0.574-0.187-1.145-0.382-1.717-0.576c-0.474-0.161-0.949-0.32-1.421-0.486c-0.556-0.195-1.11-0.398-1.664-0.599    c-0.485-0.176-0.97-0.349-1.453-0.53c-0.53-0.198-1.057-0.404-1.585-0.608c-0.5-0.193-1.002-0.382-1.501-0.58    c-0.489-0.194-0.974-0.395-1.461-0.594c-2.176-0.885-4.331-1.811-6.461-2.773c-0.332-0.15-0.666-0.297-0.997-0.448    c-0.625-0.287-1.245-0.58-1.866-0.872c-0.357-0.168-0.717-0.334-1.073-0.505c-0.611-0.292-1.217-0.59-1.823-0.887    c-0.359-0.176-0.721-0.351-1.078-0.529c-0.609-0.303-1.212-0.61-1.816-0.917c-0.346-0.176-0.693-0.351-1.037-0.529    c-0.607-0.313-1.209-0.629-1.81-0.946c-0.337-0.178-0.674-0.355-1.009-0.533c-0.602-0.321-1.2-0.645-1.797-0.97    c-0.325-0.177-0.649-0.354-0.972-0.532c-0.603-0.332-1.202-0.666-1.799-1.002c-0.306-0.172-0.611-0.345-0.916-0.518    c-0.606-0.345-1.21-0.69-1.809-1.038c-0.283-0.164-0.565-0.329-0.847-0.493c-0.612-0.358-1.222-0.717-1.826-1.077    c-0.26-0.155-0.518-0.31-0.777-0.466c-0.617-0.371-1.232-0.742-1.841-1.114c-0.231-0.141-0.46-0.283-0.69-0.425    c-0.633-0.39-1.264-0.78-1.888-1.171c-0.176-0.11-0.349-0.221-0.524-0.331c-0.669-0.422-1.335-0.844-1.993-1.266    c-0.097-0.062-0.192-0.124-0.288-0.187c-4.619-2.976-8.942-5.952-12.906-8.814c-0.121-0.088-0.246-0.176-0.366-0.264    c-0.518-0.375-1.026-0.747-1.532-1.118c-0.188-0.138-0.38-0.277-0.566-0.415c-0.455-0.335-0.901-0.667-1.345-0.998    c-0.231-0.172-0.464-0.345-0.691-0.516c-0.4-0.3-0.793-0.597-1.184-0.893c-0.263-0.199-0.527-0.399-0.786-0.596    c-0.35-0.267-0.694-0.53-1.035-0.793c-0.297-0.229-0.593-0.456-0.884-0.682c-0.292-0.226-0.579-0.45-0.865-0.672    c-0.334-0.26-0.664-0.519-0.99-0.775c-0.235-0.185-0.468-0.368-0.698-0.55c-0.38-0.301-0.754-0.598-1.122-0.892    c-0.16-0.128-0.321-0.256-0.479-0.383c-0.449-0.36-0.889-0.715-1.319-1.064c-0.066-0.054-0.134-0.108-0.199-0.161    c60.15-36.722,114.286-43.419,182.737-22.732c-5.985,29.254-16.589,46.639-18.706,49.895c-0.404,0.397-0.811,0.779-1.218,1.164    C428.489,164.082,428.053,164.506,427.612,164.907z M232.833,245.079l-16.98,4.927c-1.922,0.537-3.349-0.227-4.029-0.739    c-0.688-0.512-1.83-1.67-1.83-3.66v-31.115c0-2.09,1.234-3.265,1.972-3.769c0.512-0.361,1.419-0.831,2.585-0.831    c0.504,0,1.049,0.084,1.637,0.302l17.744,6.681c5.731,2.164,9.596,7.721,9.632,13.831v0.166    C243.529,237.413,239.127,243.257,232.833,245.079z M260.355,230.784c0.005-6.147,3.873-11.74,9.627-13.904l17.744-6.681    c1.972-0.73,3.483,0.017,4.222,0.52c0.739,0.512,1.981,1.679,1.981,3.769v31.115c0,1.998-1.15,3.148-1.838,3.668    c-0.68,0.512-2.124,1.267-4.029,0.739l-16.98-4.927c-6.318-1.837-10.723-7.708-10.726-14.277c0-0.004,0-0.008,0-0.012    C260.355,230.791,260.355,230.788,260.355,230.784z M123.664,184.489c-0.759-0.036-1.516-0.089-2.273-0.145    c-0.312-0.023-0.624-0.042-0.935-0.069c-0.707-0.061-1.412-0.137-2.118-0.216c-0.361-0.041-0.722-0.079-1.082-0.124    c-0.671-0.085-1.34-0.183-2.009-0.285c-0.392-0.06-0.785-0.12-1.176-0.186c-0.643-0.108-1.285-0.228-1.927-0.353    c-0.415-0.081-0.83-0.164-1.244-0.252c-0.621-0.132-1.241-0.273-1.86-0.421c-0.432-0.103-0.863-0.211-1.293-0.323    c-0.602-0.156-1.203-0.318-1.803-0.49c-0.444-0.127-0.888-0.261-1.331-0.397c-0.586-0.18-1.172-0.364-1.755-0.559    c-0.453-0.152-0.904-0.313-1.356-0.474c-0.572-0.204-1.143-0.41-1.712-0.63c-0.46-0.178-0.918-0.367-1.376-0.555    c-0.558-0.229-1.117-0.457-1.672-0.702c-0.465-0.204-0.926-0.424-1.389-0.639c-0.545-0.254-1.092-0.505-1.634-0.774    c-0.47-0.233-0.936-0.485-1.403-0.73c-0.531-0.279-1.064-0.551-1.592-0.845c-0.476-0.265-0.949-0.552-1.423-0.83    c-0.515-0.302-1.031-0.594-1.543-0.911c-0.492-0.305-0.979-0.634-1.468-0.953c-0.488-0.319-0.98-0.624-1.465-0.957    c-0.947-0.649-1.888-1.326-2.822-2.031c-0.46-0.347-0.913-0.721-1.369-1.081c-0.496-0.392-0.995-0.773-1.488-1.181    c-0.471-0.39-0.936-0.807-1.404-1.212c-0.471-0.408-0.944-0.808-1.411-1.232c-0.472-0.428-0.938-0.88-1.406-1.324    c-0.384-0.364-0.769-0.725-1.151-1.101c-2.116-3.26-12.722-20.645-18.706-49.9c68.441-20.68,122.592-13.987,182.748,22.741    c-18.158,14.802-55.98,42.013-94.977,48.034c-0.488,0.028-0.972,0.094-1.446,0.207c-4.736,0.667-9.486,1.021-14.216,0.991    c-0.099-0.001-0.198,0.002-0.297,0.001c-0.836-0.008-1.672-0.036-2.507-0.068C124.137,184.504,123.9,184.5,123.664,184.489z     M444.37,16.769c0.797,0,1.586,0.008,2.384,0.008c6.945,30.815,7.329,57.394,4.773,79.125    c-68.324-20.217-123.448-14.798-183.113,18.63C297.434,49.641,356.479,16.769,444.37,16.769z M57.167,16.781    c0.789,0,1.586-0.008,2.375-0.008c87.889,0,146.947,32.87,175.964,97.76c-59.665-33.434-114.783-38.846-183.113-18.63    C49.838,74.173,50.222,47.595,57.167,16.781z M104.032,242.584c35.87,27.767,48.991,49.501,47.224,75.866    c-0.025,0.369-0.025,0.747,0,1.116c1.9,28.385-12.546,50.745-55.431,82.06C110.601,363.367,120.29,309.474,104.032,242.584z     M81.731,431.762c56.708-37.418,89.021-68.034,86.312-112.75c2.542-41.957-25.443-70.644-71.587-102.781    c-2.533-7.643-5.384-15.427-8.623-23.367c0.118,0.057,0.238,0.106,0.356,0.162c0.787,0.371,1.576,0.731,2.366,1.076    c0.105,0.046,0.21,0.094,0.316,0.139c0.934,0.403,1.87,0.786,2.809,1.153c0.072,0.028,0.144,0.055,0.217,0.083    c0.897,0.347,1.797,0.678,2.699,0.993c0.073,0.026,0.147,0.052,0.221,0.078c1.952,0.676,3.914,1.277,5.883,1.807    c0.026,0.007,0.052,0.014,0.078,0.021c8.06,2.16,16.245,3.13,24.434,3.13c4.043,0,8.087-0.242,12.117-0.683    c0.41,0.595,0.832,1.206,1.272,1.842c25.815,37.449,94.004,136.348-13.985,278.78c-25.898-3.832-49.58-10.189-64.213-20.677    C67.196,454.812,74.336,445.052,81.731,431.762z M241.366,486.953c-20.778,0.226-58.745,0.602-95.631-3.146    c102.911-142.476,38.65-246.757,11.687-286.291c1.018-0.257,2.034-0.526,3.047-0.805c0.046-0.013,0.092-0.025,0.138-0.038    c0.933-0.257,1.864-0.523,2.793-0.798c0.061-0.018,0.122-0.036,0.184-0.054c0.941-0.279,1.879-0.567,2.815-0.863    c0.029-0.009,0.058-0.018,0.087-0.027c3.885-1.233,7.723-2.606,11.497-4.093c0.122-0.048,0.244-0.097,0.366-0.146    c0.782-0.31,1.561-0.624,2.337-0.943c0.211-0.087,0.421-0.175,0.632-0.262c0.69-0.286,1.377-0.576,2.062-0.869    c0.249-0.106,0.497-0.213,0.745-0.32c0.646-0.28,1.29-0.563,1.932-0.849c0.265-0.118,0.53-0.235,0.794-0.354    c0.634-0.285,1.265-0.574,1.894-0.864c0.258-0.119,0.517-0.237,0.774-0.357c0.676-0.315,1.348-0.634,2.019-0.955    c0.2-0.096,0.402-0.19,0.602-0.286c0.853-0.411,1.701-0.826,2.545-1.246c0.272-0.135,0.541-0.273,0.813-0.41    c0.563-0.283,1.125-0.565,1.684-0.851c0.405-0.208,0.807-0.417,1.21-0.627c0.415-0.216,0.831-0.431,1.244-0.648    c0.449-0.236,0.894-0.474,1.34-0.712c0.358-0.191,0.715-0.382,1.071-0.574c0.474-0.256,0.946-0.514,1.417-0.772    c0.313-0.172,0.626-0.344,0.938-0.517c0.502-0.278,1.001-0.556,1.498-0.836c0.255-0.144,0.509-0.288,0.762-0.432    c0.546-0.31,1.091-0.619,1.631-0.931c0.148-0.085,0.294-0.171,0.441-0.256c13.865-8.026,25.85-16.604,34.834-23.615v50.674    c-1.194-0.639-2.427-1.222-3.715-1.708l-17.744-6.681c-6.555-2.476-13.925-1.57-19.691,2.426    c-5.766,3.987-9.208,10.559-9.208,17.576v31.115c0,6.782,3.106,13.01,8.536,17.081c3.76,2.829,8.217,4.306,12.775,4.306    c1.998,0,4.02-0.285,6.01-0.873l16.988-4.927c2.13-0.618,4.143-1.474,6.048-2.495v228.232    C242.849,486.938,242.12,486.945,241.366,486.953z M263.239,486.97c-0.996-0.011-1.956-0.022-2.887-0.032V258.704    c1.904,1.021,3.917,1.876,6.046,2.494l16.988,4.927c1.989,0.579,4.012,0.865,6.018,0.865c4.549,0,9.006-1.469,12.775-4.297    c5.422-4.079,8.536-10.299,8.536-17.089v-31.115c0-7.009-3.441-13.589-9.208-17.568c-5.783-4.004-13.136-4.902-19.699-2.426    l-17.744,6.681c-1.287,0.485-2.519,1.067-3.712,1.705v-50.647c1.56,1.218,3.21,2.484,4.952,3.791    c0.21,0.157,0.426,0.318,0.638,0.476c0.329,0.245,0.657,0.491,0.992,0.738c0.352,0.261,0.711,0.524,1.069,0.787    c0.195,0.143,0.389,0.286,0.586,0.43c0.436,0.318,0.877,0.639,1.322,0.961c0.111,0.08,0.221,0.16,0.333,0.24    c0.511,0.369,1.028,0.739,1.551,1.111c0.024,0.017,0.048,0.034,0.071,0.051c19.048,13.558,45.835,29.468,74.605,36.73    c-26.984,39.57-91.205,143.875,11.788,286.366C321.579,487.628,283.89,487.2,263.239,486.97z M377.384,481.552    c-108.107-142.491-39.888-241.43-14.067-278.889c0.434-0.626,0.848-1.225,1.252-1.81c11.794,1.286,23.713,0.796,35.385-2.166    c0.085-0.022,0.171-0.042,0.256-0.064c0.619-0.159,1.238-0.326,1.856-0.499c0.204-0.057,0.407-0.117,0.61-0.176    c1.053-0.304,2.104-0.628,3.153-0.974c0.24-0.079,0.48-0.154,0.72-0.236c0.503-0.171,1.004-0.35,1.505-0.53    c0.376-0.135,0.752-0.274,1.128-0.416c0.458-0.172,0.915-0.343,1.372-0.523c0.746-0.295,1.49-0.601,2.233-0.918    c0.365-0.156,0.729-0.321,1.093-0.483c0.527-0.234,1.054-0.473,1.579-0.719c0.208-0.098,0.418-0.186,0.626-0.285    c-3.239,7.94-6.091,15.724-8.624,23.367c-46.144,32.137-74.129,60.824-71.587,102.781c-2.709,44.714,29.601,75.329,86.304,112.744    c7.399,13.298,14.542,23.063,19.338,29.017C426.841,471.346,403.2,477.725,377.384,481.552z"/>
	</g>
</g>
<g>
</g>
<g>
</g>
<g>
</g>
<g>
</g>
<g>
</g>
<g>
</g>
<g>
</g>
<g>
</g>
<g>
</g>
<g>
</g>
<g>
</g>
<g>
</g>
<g>
</g>
<g>
</g>
<g>
</g>
</svg>
