<?xml version="1.0" encoding="iso-8859-1"?>
<!-- Generator: Adobe Illustrator 19.0.0, SVG Export Plug-In . SVG Version: 6.00 Build 0)  -->
<svg xmlns="http://www.w3.org/2000/svg" xmlns:xlink="http://www.w3.org/1999/xlink" version="1.1" id="Layer_1" x="0px" y="0px" viewBox="0 0 503.919 503.919" style="enable-background:new 0 0 503.919 503.919;" xml:space="preserve">
<g>
	<g>
		<path d="M443.883,172.177c4.778-7.045,42.408-66.782,17.661-165.754c-0.932-3.735-4.289-6.362-8.142-6.362l-4.138-0.042    C380.078-0.63,291.743,18.244,251.962,110.222C212.218,18.244,124.146-0.685,54.655,0.019l-4.138,0.042    c-3.853,0-7.21,2.619-8.142,6.362c-24.748,98.976,12.886,158.714,17.661,165.755c87.914,176.386-11.202,279.295-15.462,283.597    c-3.265,3.29-3.265,8.586,0.008,11.86c12.466,12.463,33.016,20.685,56.658,26.093c0.864,0.35,1.77,0.55,2.684,0.601    c47.421,10.326,106.32,9.746,137.61,9.415c8.402-0.084,13.018-0.076,21.512,0.017c6.429,0.076,14.025,0.159,22.444,0.159    c53.701,0,141.069-3.508,173.845-36.285c3.282-3.282,3.282-8.586,0-11.868C458.288,454.718,355.722,349.08,443.883,172.177z     M251.959,419.733c-9.258,0-16.787-7.529-16.787-16.787s7.529-16.787,16.787-16.787c9.258,0,16.787,7.529,16.787,16.787    S261.217,419.733,251.959,419.733z M251.959,335.798c-9.258,0-16.787-7.529-16.787-16.787c0-9.258,7.529-16.787,16.787-16.787    c9.258,0,16.787,7.529,16.787,16.787C268.746,328.269,261.217,335.798,251.959,335.798z M251.959,251.864    c-9.258,0-16.787-7.529-16.787-16.787c0-9.258,7.529-16.787,16.787-16.787c9.258,0,16.787,7.529,16.787,16.787    C268.746,244.335,261.217,251.864,251.959,251.864z M73.771,162.505c-2.11-3.257-12.712-20.641-18.699-49.895    c22.136-6.688,42.769-10.492,62.6-11.367c0.102,28.171,1.17,58.443,12.302,83.322C110.218,185.047,90.686,179.14,73.771,162.505z     M147.657,182.538c-11.952-22.425-13.083-52.917-13.19-81.327c35.099,1.475,68.205,12.682,103.358,34.145    C220.419,149.551,184.931,175.147,147.657,182.538z M266.116,135.342c35.145-21.456,68.244-32.66,103.336-34.135    c-0.107,28.397-1.236,58.876-13.172,81.299C319.279,175.153,283.954,149.838,266.116,135.342z M386.247,101.239    c19.83,0.876,40.463,4.68,62.6,11.37c-5.987,29.252-16.588,46.637-18.699,49.895c-16.907,16.623-36.43,22.528-56.194,22.036    C385.078,159.665,386.145,129.402,386.247,101.239z M444.371,16.772c0.797,0,1.586,0.008,2.384,0.008    c6.946,30.816,7.328,57.394,4.771,79.125c-25.665-7.594-49.469-11.566-72.347-11.799c-0.429-0.068-0.866-0.113-1.314-0.113    c-0.373,0-0.738,0.033-1.098,0.08c-37.133,0.048-71.913,10.039-108.393,30.485C297.386,49.636,356.461,16.772,444.371,16.772z     M57.164,16.78c0.797,0,1.586-0.008,2.384-0.008c87.9,0,146.987,32.87,175.997,97.784    c-36.485-20.452-71.266-30.441-108.406-30.485c-0.356-0.046-0.717-0.078-1.085-0.078c-0.443,0-0.874,0.045-1.299,0.111    c-22.88,0.233-46.689,4.206-72.361,11.802C49.836,74.174,50.218,47.597,57.164,16.78z M87.834,192.866    c16.216,7.738,33.298,9.735,50.159,8.085c57.051,145.733-19.546,254.003-36.732,275.654c-15.587-3.786-29.196-8.911-38.859-15.837    C83.083,435.093,147.344,338.744,87.834,192.866z M241.367,486.956c-25.794,0.28-78.079,0.794-121.898-6.641    c24.674-34.001,88.827-141.601,35.418-282.184c36.045-8.422,69.319-30.816,88.679-45.92v50.355    c-14.466,3.735-25.18,16.893-25.18,32.512s10.714,28.776,25.18,32.512V286.5c-14.466,3.735-25.18,16.893-25.18,32.512    c0,15.619,10.714,28.776,25.18,32.512v18.911c-14.466,3.735-25.18,16.893-25.18,32.512s10.714,28.776,25.18,32.512v51.476    C242.85,486.941,242.121,486.948,241.367,486.956z M263.24,486.973c-0.996-0.011-1.956-0.022-2.887-0.032v-51.483    c14.466-3.735,25.18-16.893,25.18-32.512s-10.714-28.776-25.18-32.512v-18.911c14.466-3.735,25.18-16.893,25.18-32.512    c0-15.619-10.714-28.776-25.18-32.512v-18.911c14.466-3.735,25.18-16.893,25.18-32.512s-10.714-28.776-25.18-32.512v-50.329    c19.172,14.978,52.501,37.492,88.661,45.936c-53.428,140.688,10.883,248.338,35.513,282.25    C340.874,487.853,288.896,487.258,263.24,486.973z M402.726,476.696c-17.045-21.443-93.919-129.796-36.809-275.709    c16.859,1.645,33.946-0.361,50.168-8.121c-59.518,145.895,4.759,242.243,25.432,267.91    C431.839,467.75,418.259,472.9,402.726,476.696z"/>
	</g>
</g>
<g>
</g>
<g>
</g>
<g>
</g>
<g>
</g>
<g>
</g>
<g>
</g>
<g>
</g>
<g>
</g>
<g>
</g>
<g>
</g>
<g>
</g>
<g>
</g>
<g>
</g>
<g>
</g>
<g>
</g>
</svg>
