<?xml version="1.0" encoding="iso-8859-1"?>
<!-- Generator: Adobe Illustrator 19.0.0, SVG Export Plug-In . SVG Version: 6.00 Build 0)  -->
<svg xmlns="http://www.w3.org/2000/svg" xmlns:xlink="http://www.w3.org/1999/xlink" version="1.1" id="Layer_1" x="0px" y="0px" viewBox="0 0 495.815 495.815" style="enable-background:new 0 0 495.815 495.815;" xml:space="preserve">
<g>
	<g>
		<path d="M450.001,446.343c-1.688-1.903-3.586-4.192-5.643-6.86c-5.935-7.699-11.891-16.844-17.462-27.382    c-7.888-14.924-14.152-30.692-18.559-47.282c0.007-0.799-0.1-1.612-0.338-2.418c-0.176-0.597-0.419-1.156-0.71-1.678    c-4.423-18.042-6.65-37.042-6.383-56.979c0.6-1.642,0.676-3.482,0.122-5.268c0.711-20.181,3.973-41.306,10.086-63.352    c0.517-0.993,0.838-2.09,0.918-3.233c5.794-20.061,13.943-40.877,24.686-62.434c3.424-4.95,8.149-13.674,12.807-25.999    c14.257-37.726,17.91-83.817,4.587-137.111c-0.919-3.676-4.222-6.255-8.011-6.255c-1.043,0-0.899,0.002-4.984-0.05    c-37.621-0.478-68.046,3.077-101.456,17.044c-40.843,17.075-72.53,46.765-91.754,91.357    c-19.224-44.592-50.91-74.283-91.754-91.357C122.745,3.119,92.319-0.437,54.698,0.041c-4.085,0.052-3.941,0.05-4.984,0.05    c-3.789,0-7.092,2.579-8.011,6.255c-13.324,53.295-9.67,99.386,4.587,137.111c4.658,12.325,9.383,21.049,12.807,25.999    c10.744,21.557,18.892,42.373,24.686,62.434c0.08,1.143,0.4,2.24,0.918,3.233c6.114,22.045,9.375,43.17,10.087,63.351    c-0.554,1.786-0.477,3.626,0.122,5.268c0.268,19.936-1.96,38.937-6.383,56.979c-0.291,0.522-0.533,1.081-0.71,1.678    c-0.238,0.806-0.346,1.619-0.338,2.418c-4.407,16.59-10.671,32.358-18.559,47.282c-5.571,10.539-11.527,19.683-17.462,27.382    c-2.056,2.668-3.954,4.956-5.643,6.86c-0.976,1.1-1.64,1.803-1.939,2.103c-3.225,3.225-3.225,8.454,0,11.679    c18.385,18.385,53.799,28.433,102.639,32.942c27.366,2.527,52.408,3.02,87.8,2.63c12.033-0.133,10.825-0.121,13.594-0.121    c2.62,0,1.78-0.007,12.686,0.099c35.667,0.346,60.897-0.176,88.568-2.745c49.052-4.554,84.536-14.562,102.779-32.805    c3.225-3.225,3.225-8.454,0-11.679C451.641,448.146,450.977,447.443,450.001,446.343z M323.389,171.131    c-0.47-0.195-0.94-0.391-1.41-0.591c-1.138-0.488-2.28-0.986-3.427-1.504c-0.022-0.01-0.045-0.02-0.067-0.03    c26.655-50.91,71.36-76.105,126.716-83.802c-1.371,19.515-5.345,37.015-11.143,52.391c-2.528,6.704-5.223,12.506-7.899,17.376    c-1.262,2.297-2.263,3.938-2.908,4.913c-0.437,0.431-0.88,0.844-1.321,1.261c-0.483,0.456-0.963,0.922-1.45,1.362    c-0.525,0.474-1.058,0.921-1.589,1.377c-0.452,0.388-0.901,0.783-1.357,1.158c-0.195,0.16-0.393,0.312-0.589,0.47    c-0.383,0.309-0.77,0.606-1.157,0.906c-0.407,0.316-0.813,0.638-1.223,0.943c-0.254,0.189-0.509,0.372-0.764,0.557    c-0.392,0.285-0.788,0.558-1.184,0.833c-0.389,0.271-0.775,0.547-1.167,0.809c-0.227,0.152-0.454,0.303-0.682,0.453    c-0.46,0.3-0.924,0.584-1.388,0.872c-0.452,0.281-0.901,0.57-1.357,0.84c-0.096,0.057-0.19,0.116-0.286,0.172    c-0.549,0.321-1.105,0.618-1.659,0.923c-0.526,0.29-1.049,0.591-1.58,0.866c-0.591,0.306-1.192,0.585-1.789,0.873    c-0.533,0.257-1.062,0.526-1.599,0.769c-0.605,0.273-1.22,0.518-1.831,0.773c-0.541,0.226-1.077,0.464-1.622,0.676    c-0.62,0.241-1.25,0.453-1.876,0.675c-0.546,0.194-1.088,0.401-1.639,0.582c-0.64,0.21-1.29,0.39-1.936,0.581    c-0.547,0.162-1.09,0.337-1.642,0.486c-0.661,0.178-1.332,0.327-2,0.486c-0.548,0.131-1.09,0.276-1.642,0.394    c-0.686,0.147-1.382,0.264-2.074,0.391c-0.544,0.1-1.083,0.215-1.631,0.303c-0.716,0.115-1.442,0.2-2.165,0.295    c-0.535,0.07-1.064,0.156-1.603,0.216c-0.77,0.085-1.55,0.139-2.328,0.201c-0.501,0.04-0.997,0.097-1.501,0.128    c-0.854,0.053-1.719,0.073-2.581,0.1c-0.439,0.013-0.872,0.043-1.313,0.05c-1.307,0.02-2.625,0.011-3.953-0.028    c-13.379-0.392-27.463-3.733-41.904-9.485C325.045,171.824,324.217,171.478,323.389,171.131z M346.032,32.324    c30.441-12.726,58.61-16.134,93.532-15.783c4.151,18.325,6.138,35.642,6.292,51.922c-61.634,7.876-112.235,35.789-142.128,93.164    c-4.295-2.354-8.603-4.872-12.92-7.581c-9.422-5.911-18.237-12.243-26.292-18.651c-0.683-0.543-1.347-1.077-1.998-1.604    c-0.217-0.176-0.424-0.346-0.637-0.52c-0.426-0.347-0.851-0.694-1.263-1.034c-0.249-0.206-0.49-0.407-0.734-0.61    c-0.363-0.302-0.726-0.604-1.079-0.9c-0.252-0.211-0.497-0.42-0.743-0.628c-0.205-0.174-0.407-0.346-0.608-0.517    C274.079,80.715,304.778,49.57,346.032,32.324z M56.251,16.541c34.922-0.351,63.091,3.057,93.532,15.783    c41.254,17.246,71.953,48.391,88.578,97.258c-0.202,0.172-0.403,0.344-0.608,0.517c-0.246,0.209-0.492,0.417-0.743,0.628    c-0.353,0.297-0.715,0.598-1.079,0.9c-0.244,0.203-0.485,0.404-0.734,0.61c-0.412,0.34-0.837,0.687-1.263,1.034    c-0.213,0.174-0.42,0.345-0.637,0.52c-0.651,0.527-1.315,1.061-1.998,1.604c-8.055,6.408-16.87,12.74-26.292,18.651    c-4.317,2.708-8.626,5.227-12.92,7.581c-29.893-57.375-80.494-85.288-142.128-93.164C50.113,52.183,52.1,34.866,56.251,16.541z     M173.836,170.54c-0.471,0.201-0.94,0.396-1.41,0.591c-0.828,0.347-1.656,0.693-2.48,1.023    c-14.441,5.752-28.525,9.093-41.904,9.485c-1.328,0.039-2.646,0.048-3.953,0.028c-0.441-0.007-0.874-0.036-1.313-0.05    c-0.863-0.026-1.728-0.047-2.581-0.1c-0.504-0.031-1-0.087-1.501-0.128c-0.777-0.063-1.558-0.116-2.328-0.201    c-0.538-0.059-1.067-0.145-1.601-0.215c-0.723-0.095-1.45-0.18-2.167-0.296c-0.547-0.088-1.085-0.203-1.628-0.303    c-0.693-0.128-1.39-0.245-2.076-0.392c-0.552-0.118-1.095-0.263-1.642-0.394c-0.668-0.159-1.339-0.308-2-0.486    c-0.552-0.149-1.095-0.324-1.642-0.486c-0.646-0.191-1.296-0.372-1.936-0.581c-0.551-0.18-1.093-0.388-1.639-0.582    c-0.626-0.223-1.256-0.435-1.876-0.675c-0.545-0.212-1.082-0.45-1.622-0.676c-0.611-0.255-1.226-0.5-1.831-0.773    c-0.538-0.243-1.067-0.512-1.599-0.769c-0.597-0.288-1.198-0.566-1.789-0.873c-0.531-0.275-1.054-0.577-1.58-0.866    c-0.554-0.305-1.111-0.602-1.659-0.923c-0.096-0.056-0.191-0.115-0.286-0.172c-0.456-0.27-0.905-0.559-1.357-0.84    c-0.463-0.288-0.928-0.572-1.388-0.872c-0.228-0.149-0.455-0.3-0.682-0.453c-0.391-0.262-0.778-0.538-1.167-0.809    c-0.395-0.276-0.791-0.549-1.184-0.833c-0.255-0.185-0.511-0.368-0.764-0.557c-0.41-0.306-0.816-0.627-1.223-0.943    c-0.386-0.3-0.773-0.597-1.157-0.906c-0.196-0.158-0.394-0.31-0.589-0.47c-0.456-0.375-0.906-0.77-1.357-1.158    c-0.531-0.455-1.064-0.903-1.589-1.377c-0.488-0.44-0.968-0.906-1.45-1.362c-0.441-0.417-0.884-0.83-1.321-1.261    c-0.644-0.975-1.646-2.616-2.908-4.913c-2.676-4.87-5.371-10.673-7.899-17.376c-5.798-15.376-9.771-32.877-11.143-52.391    c55.357,7.697,100.061,32.892,126.716,83.802c-0.022,0.01-0.045,0.02-0.067,0.03C176.117,169.554,174.975,170.052,173.836,170.54z     M234.131,479.181c-34.862,0.385-59.446-0.1-86.099-2.561c-39.868-3.681-69.893-11.304-86.55-23.2    c0.951-1.164,1.973-2.449,3.055-3.854c6.49-8.419,12.957-18.348,18.983-29.748c7.458-14.11,13.56-28.923,18.139-44.408    c5.021,2.033,11.738,5.549,30.39,15.328c29.401,15.416,49.373,22.254,74.567,22.254c4.561,0,8.258-3.697,8.258-8.258    c0-4.561-3.697-8.258-8.258-8.258c-21.887,0-39.667-6.088-66.898-20.365c-21.692-11.373-27.992-14.671-33.9-16.833    c3.242-14.71,5.133-29.987,5.539-45.81c1.542,0.727,3.146,1.508,4.841,2.359c2.541,1.275,5.18,2.646,8.752,4.534    c-0.493-0.26,7.064,3.747,9.203,4.869c11.232,5.892,19.457,9.786,28.252,13.113c4.266,1.614,9.032-0.536,10.646-4.801    c1.614-4.266-0.536-9.032-4.801-10.646c-8.042-3.043-15.734-6.684-26.424-12.292c-2.1-1.102-9.618-5.089-9.156-4.844    c-3.666-1.938-6.397-3.357-9.063-4.694c-4.553-2.285-8.601-4.163-12.431-5.738c-0.747-16.514-3.086-33.587-7.158-51.196    c4.726,2.142,11.647,5.811,27.447,14.192c1.903,1.01,3.628,1.914,5.297,2.775c4.053,2.092,9.034,0.503,11.126-3.55    c2.092-4.053,0.503-9.034-3.55-11.126c-1.609-0.831-3.281-1.707-5.133-2.69c-29.299-15.542-29.434-15.609-40.186-19.009    c-0.05-0.016-0.098-0.029-0.148-0.044c-3.392-11.4-7.494-23.01-12.356-34.828c23.75,11.379,50.838,10.965,79.838,1.211    c0.679-0.225,1.357-0.453,2.037-0.688c0.296-0.104,0.592-0.208,0.888-0.313c14.715-5.186,29.614-12.684,44.506-22.026    c9.232-5.792,17.881-11.95,25.866-18.201v329.283C238.332,479.134,236.63,479.153,234.131,479.181z M347.635,476.484    c-26.963,2.503-51.741,3.016-86.88,2.675c-1.839-0.018-3.34-0.032-4.589-0.044V149.836c7.984,6.251,16.633,12.409,25.866,18.201    c14.891,9.342,29.791,16.84,44.506,22.026c0.296,0.106,0.592,0.21,0.888,0.313c0.679,0.235,1.358,0.463,2.037,0.688    c29,9.753,56.088,10.168,79.838-1.211c-4.862,11.819-8.964,23.429-12.356,34.828c-0.05,0.016-0.098,0.029-0.148,0.044    c-10.752,3.4-10.886,3.467-40.186,19.009c-1.852,0.982-3.523,1.859-5.133,2.69c-4.053,2.092-5.642,7.073-3.55,11.126    c2.092,4.053,7.073,5.642,11.126,3.55c1.669-0.861,3.393-1.766,5.297-2.775c15.8-8.381,22.721-12.05,27.447-14.192    c-4.072,17.609-6.412,34.682-7.158,51.196c-3.829,1.575-7.878,3.453-12.431,5.738c-2.665,1.338-5.397,2.756-9.063,4.694    c0.462-0.245-7.055,3.742-9.156,4.844c-10.69,5.608-18.382,9.249-26.424,12.292c-4.266,1.614-6.415,6.38-4.801,10.646    c1.614,4.266,6.38,6.415,10.646,4.801c8.794-3.327,17.02-7.222,28.252-13.113c2.139-1.122,9.695-5.13,9.203-4.869    c3.571-1.888,6.21-3.259,8.752-4.534c1.695-0.851,3.3-1.632,4.841-2.359c0.407,15.823,2.297,31.1,5.539,45.81    c-5.908,2.161-12.208,5.459-33.9,16.833c-27.23,14.277-45.01,20.365-66.898,20.365c-4.561,0-8.258,3.697-8.258,8.258    c0,4.561,3.697,8.258,8.258,8.258c25.194,0,45.166-6.839,74.567-22.254c18.652-9.78,25.369-13.295,30.39-15.328    c4.579,15.485,10.681,30.297,18.139,44.408c6.026,11.4,12.493,21.329,18.983,29.748c1.079,1.4,2.097,2.681,3.046,3.843    C417.727,465.178,387.629,472.771,347.635,476.484z"/>
	</g>
</g>
<g>
</g>
<g>
</g>
<g>
</g>
<g>
</g>
<g>
</g>
<g>
</g>
<g>
</g>
<g>
</g>
<g>
</g>
<g>
</g>
<g>
</g>
<g>
</g>
<g>
</g>
<g>
</g>
<g>
</g>
</svg>
