<?xml version="1.0" encoding="iso-8859-1"?>
<!-- Generator: Adobe Illustrator 19.0.0, SVG Export Plug-In . SVG Version: 6.00 Build 0)  -->
<svg xmlns="http://www.w3.org/2000/svg" xmlns:xlink="http://www.w3.org/1999/xlink" version="1.1" id="Layer_1" x="0px" y="0px" viewBox="0 0 503.759 503.759" style="enable-background:new 0 0 503.759 503.759;" xml:space="preserve">
<g>
	<g>
		<path d="M486.896,344.14v-8.383c0.838-21.585-2.316-43.458-8.89-61.624C456.72,215.362,419.982,17.26,419.613,15.271    c-0.604-3.24-3.03-5.825-6.228-6.622l-33.574-8.393c-0.122-0.03-0.246-0.043-0.37-0.068c-0.131-0.027-0.262-0.052-0.395-0.072    c-0.227-0.034-0.453-0.057-0.68-0.072c-0.092-0.007-0.182-0.026-0.275-0.029c-0.055-0.002-0.108,0.006-0.162,0.004    c-0.195-0.003-0.389,0.006-0.583,0.016c-0.181,0.009-0.361,0.015-0.54,0.036c-0.143,0.017-0.283,0.046-0.425,0.07    c-0.216,0.036-0.432,0.07-0.644,0.123c-0.084,0.021-0.165,0.052-0.248,0.076c-1.168,0.331-2.249,0.912-3.172,1.704    c-0.072,0.061-0.15,0.113-0.22,0.177c-0.009,0.008-0.016,0.018-0.025,0.026c-0.163,0.151-0.312,0.318-0.464,0.483    c-0.093,0.102-0.192,0.199-0.28,0.304c-0.128,0.154-0.243,0.32-0.361,0.484c-0.096,0.134-0.194,0.266-0.281,0.405    c-0.033,0.053-0.075,0.1-0.107,0.154c-20.346,33.884-81.324,121.831-118.708,121.831S153.509,37.96,133.172,4.076    c-0.02-0.034-0.045-0.064-0.065-0.097c-0.085-0.137-0.177-0.27-0.27-0.403c-0.098-0.14-0.199-0.276-0.305-0.408    c-0.083-0.104-0.166-0.207-0.255-0.308c-0.166-0.189-0.339-0.367-0.519-0.538c-0.034-0.032-0.062-0.069-0.097-0.101    c-0.009-0.008-0.019-0.015-0.028-0.023c-0.25-0.228-0.511-0.44-0.783-0.634c-0.006-0.004-0.012-0.008-0.018-0.012    c-0.263-0.187-0.537-0.354-0.818-0.508c-0.039-0.021-0.078-0.041-0.118-0.062c-0.271-0.143-0.547-0.271-0.831-0.383    c-0.019-0.008-0.038-0.016-0.057-0.023c-0.95-0.368-1.961-0.56-2.984-0.566c-0.008,0-0.016,0-0.024,0    c-0.72-0.002-1.443,0.085-2.155,0.273L90.374,8.65c-3.198,0.797-5.624,3.383-6.22,6.614    c-0.369,1.998-37.116,200.091-58.393,258.862c-6.585,18.158-9.739,40.042-8.897,61.661v8.348c0,0.331,0.024,0.656,0.061,0.977    c1.468,15.448,4.421,29.096,8.531,41.104c2.972,16.524,6.004,33.036,9.035,49.554c2.98,16.233,12.313,32.231,25.592,43.889    c17.912,15.729,43.537,24.098,70.295,24.098c13.883,0,28.068-2.249,41.64-6.899c11.759-4.012,22.318-9.787,32.541-15.377    c5.817-3.173,11.818-6.463,17.844-9.292c1.796-0.839,3.592-1.721,5.414-2.619c8.284-4.079,16.115-7.923,24.064-7.923    c7.949,0,15.771,3.844,24.047,7.923c1.821,0.89,3.626,1.779,5.422,2.619c6.018,2.829,12.028,6.119,17.844,9.292    c10.215,5.59,20.782,11.365,32.541,15.377c39.76,13.597,84.74,6.681,111.935-17.198c13.278-11.658,22.604-27.656,25.592-43.889    c3.026-16.491,6.052-32.977,9.013-49.474c4.125-12.029,7.089-25.704,8.56-41.188C486.872,344.791,486.896,344.469,486.896,344.14z     M462.766,378.235c-1.715,5.111-3.977,10.914-6.939,16.914c-11.44,22.909-29.888,41.695-56.876,47.705    c19.083-26.935,20.658-64.938,20.785-98.339c15.841,0.727,32.353,2.8,49.534,6.253c-1.257,8.882-3.301,17.912-6.198,26.689    C462.959,377.708,462.856,377.967,462.766,378.235z M277.06,352.534c0-13.891,11.298-25.18,25.18-25.18    c4.507,0,8.863,1.242,12.934,3.71c2.787,1.687,6.253,1.46,8.964-0.344c2.711-1.796,4.113-5.145,3.643-8.36    c-0.159-1.116-0.361-2.241-0.361-3.399c0-13.891,11.298-25.18,25.18-25.18c1.854,0,3.685,0.229,5.475,0.622    c0.417,0.138,0.852,0.236,1.297,0.31c8.863,2.42,16.365,9.365,18.693,18.037c0.881,3.257,3.634,5.682,6.975,6.127    c3.357,0.478,6.639-1.15,8.36-4.046c7.898-13.379,20.555-21.051,34.74-21.051c0.119,0,0.237,0.008,0.355,0.009    c0.218,0.022,0.437,0.039,0.659,0.044c3.487,0.083,6.856,0.583,10.067,1.443c0.293,0.08,0.586,0.163,0.877,0.25    c0.247,0.072,0.492,0.146,0.736,0.222c16.368,5.207,28.411,20.199,29.223,38.073c-19.986-3.884-39.163-6.019-57.487-6.375    c-0.399-0.058-0.803-0.098-1.218-0.098c-0.375,0-0.742,0.033-1.104,0.081c-50.252-0.568-94.093,12.215-130.952,38.249    C277.772,361.619,277.06,356.718,277.06,352.534z M403.153,203.209l15.965,74.516c-12.024,1.956-22.89,7.82-31.501,16.97    c-5.837-7.861-14.385-13.668-24.01-16.235c-25.029-11.66-47.665-29.618-54.396-39.703c-14.511-21.77-12.978-66.05,72.641-154.113    C389.926,132.861,399.595,189.014,403.153,203.209z M402.951,344.252c-0.129,38.06-2,78.982-28.523,100.485    c-7.318-0.402-25.537-2.098-44.168-9.242c-22.583-8.66-39.492-29.571-44.129-54.072    C318.868,357.4,357.962,344.984,402.951,344.252z M404.094,23.631c6.136,32.785,38.098,200.931,58.125,256.218    c1.192,3.315,2.266,6.774,3.215,10.341c-6.416-5.225-13.992-9.108-22.311-11.254c-0.184-0.049-0.367-0.098-0.552-0.145    c-0.438-0.108-0.879-0.207-1.321-0.306c-1.641-0.376-3.306-0.685-4.996-0.919l-16.758-78.151    c-5.254-21.017-24.937-140.406-31.375-179.779L404.094,23.631z M251.872,142.694c42.772,0,97.002-74.376,121.189-111.129    c1.478,9.014,3.326,20.237,5.384,32.632c-81.99,81.849-109.976,143.694-83.199,183.876c6.641,9.958,21.575,22.547,38.736,33.289    c-11.714,5.823-20.342,16.952-22.702,30.229c-2.971-0.68-6.001-1.024-9.04-1.024c-23.141,0-41.967,18.827-41.967,41.967    c0,2.813,0.274,9.63,2.537,16.787h-22.065c2.046-6.437,2.743-12.9,2.743-16.791c0-23.141-18.826-41.967-41.967-41.967    c-3.03,0-6.068,0.352-9.04,1.024c-2.36-13.277-10.988-24.405-22.701-30.228c17.161-10.742,32.088-23.331,38.719-33.285    c26.776-40.173-1.213-102.029-83.186-183.881c2.058-12.393,3.906-23.611,5.384-32.622    C154.883,68.326,209.103,142.694,251.872,142.694z M40.987,378.235c-0.067-0.199-0.147-0.389-0.227-0.58    c-2.936-8.843-5.005-17.943-6.271-26.888c20.233-4.069,39.546-6.224,57.926-6.507c0.122,34.108,1.702,73.074,21.902,100.154    c-30.323-3.098-51.116-21.434-64.087-44.92C46.101,391.969,43.113,384.566,40.987,378.235z M121.901,84.647    c85.608,88.06,87.141,132.34,72.63,154.109c-6.724,10.085-29.363,28.046-54.402,39.706c-9.618,2.573-18.161,8.381-23.987,16.236    c-8.616-9.149-19.482-15.017-31.501-16.977l15.906-74.243C104.133,189.128,113.819,132.897,121.901,84.647z M73.968,293.817    c0.47,0.026,0.935,0.016,1.391-0.035c0.087-0.001,0.172-0.007,0.259-0.007c14.177,0,26.834,7.672,34.74,21.051    c1.721,2.913,5.036,4.499,8.36,4.054c3.349-0.453,6.094-2.879,6.975-6.136c2.322-8.652,9.791-15.583,18.629-18.019    c0.452-0.074,0.892-0.177,1.316-0.319c1.804-0.399,3.651-0.631,5.521-0.631c13.883,0,25.18,11.298,25.18,25.18    c0,1.125-0.185,2.199-0.411,3.71c-0.47,3.215,0.948,6.413,3.66,8.209c2.711,1.805,6.203,1.872,8.989,0.193    c4.071-2.468,8.435-3.718,12.943-3.718c13.883,0,25.18,11.298,25.18,25.18c0,3.461-0.834,8.704-2.394,13.038    c-34.693-24.456-75.562-37.18-122.137-38.098c-0.447-0.074-0.903-0.121-1.371-0.121c-0.368,0-0.729,0.032-1.084,0.078    c-20.883-0.225-42.903,1.908-66.014,6.397C34.683,312.117,52.228,294.663,73.968,293.817z M136.927,444.099    c-25.71-21.616-27.587-61.965-27.723-99.566c41.457,2.063,77.738,14.378,108.421,36.886c-4.64,24.504-21.552,45.426-44.13,54.076    C159.65,440.804,146.043,443.102,136.927,444.099z M99.665,23.624l15.981-3.987c-6.446,39.374-26.146,158.804-31.45,180.056    l-16.683,77.868c-11.003,1.526-21.047,6.097-29.234,12.852c0.953-3.651,2.036-7.19,3.261-10.571    C61.559,224.555,93.529,56.418,99.665,23.624z M452.753,432.733c-2.317,12.59-9.661,25.096-20.161,34.321    c-22.813,20.044-61.171,25.625-95.433,13.925c-10.383-3.55-19.876-8.738-29.914-14.227c-6.035-3.299-12.271-6.706-18.768-9.753    c-1.704-0.797-3.408-1.645-5.128-2.493c-9.199-4.524-19.607-9.644-31.467-9.644c-11.86,0-22.285,5.128-31.484,9.652    c-1.712,0.839-3.425,1.687-5.12,2.484c-6.497,3.047-12.733,6.455-18.768,9.753c-10.039,5.489-19.532,10.676-29.914,14.227    c-34.245,11.717-72.603,6.11-95.433-13.925c-10.492-9.224-17.844-21.722-20.161-34.321c-0.213-1.163-0.423-2.314-0.64-3.474    c3.341,3.631,6.843,6.927,10.473,9.895c16.773,14.235,37.37,21.975,60.936,22.473c0.224,0.005,0.447,0.011,0.671,0.015    c0.413,0.006,0.826,0.011,1.241,0.013c0.183,0.001,0.368,0.006,0.551,0.006c0.428,0,0.856-0.006,1.284-0.011    c0.155-0.002,0.308,0.001,0.463-0.001c1.074,0,26.515-0.126,53.533-10.483c27.463-10.525,48.162-35.597,54.306-65.058h36.117    c6.144,29.453,26.834,54.524,54.306,65.058c26.498,10.164,51.502,10.475,53.449,10.483c0.713,0.008,1.419,0.017,2.115,0.017    c24.115,0,45.425-7.713,62.673-22.155c3.787-3.059,7.437-6.469,10.912-10.244C453.179,430.423,452.973,431.575,452.753,432.733z"/>
	</g>
</g>
<g>
</g>
<g>
</g>
<g>
</g>
<g>
</g>
<g>
</g>
<g>
</g>
<g>
</g>
<g>
</g>
<g>
</g>
<g>
</g>
<g>
</g>
<g>
</g>
<g>
</g>
<g>
</g>
<g>
</g>
</svg>
