<?xml version="1.0" encoding="iso-8859-1"?>
<!-- Generator: Adobe Illustrator 19.0.0, SVG Export Plug-In . SVG Version: 6.00 Build 0)  -->
<svg xmlns="http://www.w3.org/2000/svg" xmlns:xlink="http://www.w3.org/1999/xlink" version="1.1" id="Layer_1" x="0px" y="0px" viewBox="0 0 511.996 511.996" style="enable-background:new 0 0 511.996 511.996;" xml:space="preserve">
<g>
	<g>
		<path d="M349.376,295.821c-11.853-33.527-7.996-59.162-2.671-74.76c2.594-7.598,7.284-14.95,14.716-23.092    c24.411-21.919,29.309-59.42,13.607-106.791c-0.018-0.054-0.047-0.103-0.066-0.156c-0.03-0.084-0.051-0.168-0.084-0.251    C362.248,58.325,358.4,39.108,358.4,8.533c0-4.719-3.823-8.533-8.533-8.533c-4.719,0-8.533,3.814-8.533,8.533    c0,28.901,3.366,49.066,13.418,77.13c-45.986,2.471-79.098,19.246-98.754,50.01c-19.655-30.766-52.768-47.542-98.755-50.014    c10.05-28.055,13.416-48.22,13.416-77.126c0-4.719-3.814-8.533-8.533-8.533c-4.71,0-8.533,3.814-8.533,8.533    c0,30.583-3.849,49.801-16.478,82.236c-0.036,0.093-0.061,0.187-0.094,0.28c-0.016,0.046-0.041,0.087-0.056,0.133    c-15.691,47.365-10.804,84.862,13.596,106.775c7.445,8.147,12.13,15.502,14.726,23.103c2.868,8.404,5.787,19.521,5.673,33.568    c-0.129,0.795-0.144,1.597-0.049,2.387c-0.361,11.168-2.654,24.111-8.346,38.95l-34.133,102.4    c-1.468,4.403,0.853,9.173,5.231,10.735c0.802,0.282,80.299,29.32,105.805,97.357c1.254,3.328,4.437,5.538,7.996,5.538h17.067    c3.558,0,6.741-2.21,7.996-5.538c25.438-67.849,105.011-97.075,105.813-97.365c4.361-1.562,6.69-6.332,5.222-10.726    L349.376,295.821z M256.067,346.423c-13.473-34.711-40.993-74.38-68.106-94.75c-0.262-12.144-2.433-24.144-6.522-36.126    c-0.481-1.407-1.016-2.801-1.597-4.186c5.827,1.288,11.544,1.941,17.111,1.941c10.018,0,19.55-2.091,28.356-6.272    c12.883-6.113,23.365-16.435,30.688-29.905c7.323,13.467,17.803,23.788,30.685,29.9c8.806,4.19,18.338,6.272,28.356,6.272    c5.568,0,11.289-0.652,17.121-1.941c-0.582,1.387-1.118,2.782-1.6,4.191c-3.141,9.193-5.854,21.336-6.031,36.012    C297.298,271.944,269.624,311.677,256.067,346.423z M360.692,102.484c7.201,24.37,12.762,61.64-10.723,82.82    c-0.057,0.05-0.115,0.098-0.172,0.15c-1.318,1.177-2.706,2.316-4.21,3.387c-19.115,8.764-36.949,9.728-51.593,2.773    c-13.636-6.477-23.834-19.635-28.945-37.231C281.187,121.317,313.332,103.875,360.692,102.484z M151.3,102.489    c47.36,1.382,79.505,18.825,95.642,51.891c-5.111,17.596-15.309,30.754-28.945,37.231c-14.652,6.972-32.469,5.99-51.593-2.773    c-1.495-1.065-2.874-2.195-4.185-3.364c-0.07-0.064-0.141-0.124-0.213-0.185C138.541,164.112,144.108,126.853,151.3,102.489z     M258.752,494.929h-5.512c-25.071-59.255-84.608-89.515-106.078-98.782l31.471-94.43c3.776-9.838,6.401-19.489,7.893-29.013    c30.608,28.213,60.992,81.973,60.992,111.292c0,4.71,3.823,8.533,8.533,8.533c4.71,0,8.533-3.823,8.533-8.533    c0-29.314,30.623-83.244,61.399-111.462c1.327,8.964,3.63,18.589,7.249,28.825l31.599,94.788    C343.36,405.414,283.823,435.674,258.752,494.929z"/>
	</g>
</g>
<g>
</g>
<g>
</g>
<g>
</g>
<g>
</g>
<g>
</g>
<g>
</g>
<g>
</g>
<g>
</g>
<g>
</g>
<g>
</g>
<g>
</g>
<g>
</g>
<g>
</g>
<g>
</g>
<g>
</g>
</svg>
