<?xml version="1.0" encoding="iso-8859-1"?>
<!-- Generator: Adobe Illustrator 19.0.0, SVG Export Plug-In . SVG Version: 6.00 Build 0)  -->
<svg xmlns="http://www.w3.org/2000/svg" xmlns:xlink="http://www.w3.org/1999/xlink" version="1.1" id="Layer_1" x="0px" y="0px" viewBox="0 0 512.208 512.208" style="enable-background:new 0 0 512.208 512.208;" xml:space="preserve">
<g transform="translate(-1 -1)">
	<g>
		<path d="M495.001,354.763c0.063-0.606,0.128-1.209,0.186-1.818c0.006-0.061,0.004-0.121,0.009-0.182    c2.401-25.456-0.35-51.376-8.202-73.06c-5.833-16.109-13.205-43.635-21.7-80.211c-3.052-13.141-6.217-27.317-9.473-42.376    c-6.647-30.747-13.359-63.704-19.796-96.663c-2.253-11.537-4.311-22.249-6.131-31.862c-0.637-3.363-1.198-6.348-1.679-8.921    c-0.486-2.604-0.486-2.604-0.586-3.147c-0.608-3.287-3.079-5.917-6.322-6.727l-34.133-8.533c-0.106-0.026-0.21-0.036-0.316-0.058    c-0.182-0.038-0.364-0.074-0.548-0.1c-0.215-0.031-0.428-0.051-0.641-0.066c-0.134-0.009-0.266-0.018-0.4-0.021    c-0.245-0.006-0.488,0.002-0.729,0.017c-0.119,0.007-0.237,0.014-0.355,0.027c-0.226,0.024-0.448,0.06-0.669,0.102    c-0.151,0.028-0.302,0.056-0.452,0.092c-0.158,0.039-0.312,0.086-0.466,0.134c-0.215,0.065-0.428,0.133-0.638,0.215    c-0.058,0.023-0.113,0.05-0.17,0.074c-1.181,0.491-2.268,1.254-3.16,2.304c-0.003,0.004-0.007,0.008-0.011,0.012    c-0.141,0.166-0.27,0.346-0.401,0.527c-0.107,0.146-0.213,0.293-0.311,0.446c-0.04,0.063-0.088,0.117-0.127,0.181    c-0.57,0.951-1.69,2.776-3.307,5.349c-2.711,4.312-5.819,9.124-9.276,14.308c-9.872,14.809-20.532,29.614-31.563,43.403    c-14.072,17.59-27.704,32.196-40.4,42.775c-14.209,11.841-26.572,18.022-36.137,18.022c-9.564,0-21.924-6.179-36.129-18.016    c-12.697-10.58-26.33-25.188-40.403-42.781c-11.03-13.789-21.689-28.594-31.56-43.403c-3.456-5.184-6.564-9.995-9.275-14.308    c-1.617-2.573-2.737-4.398-3.307-5.349c-0.026-0.044-0.059-0.078-0.086-0.12c-0.172-0.274-0.359-0.535-0.56-0.787    c-1.392-1.784-3.268-2.791-5.238-3.109c-0.113-0.019-0.224-0.042-0.338-0.057c-0.203-0.024-0.406-0.036-0.61-0.046    c-0.203-0.011-0.407-0.017-0.614-0.014c-0.174,0.004-0.346,0.013-0.519,0.027c-0.217,0.017-0.435,0.044-0.654,0.078    c-0.183,0.029-0.364,0.06-0.545,0.1c-0.076,0.017-0.15,0.022-0.226,0.041L92.901,9.796c-3.243,0.811-5.714,3.44-6.321,6.727    c-0.1,0.542-0.1,0.542-0.586,3.147c-0.481,2.573-1.042,5.558-1.679,8.921c-1.82,9.612-3.878,20.325-6.131,31.862    c-6.437,32.959-13.149,65.915-19.796,96.663c-3.256,15.06-6.421,29.235-9.473,42.376c-8.495,36.576-15.867,64.102-21.7,80.211    c-7.853,21.687-10.604,47.612-8.201,73.072c0.002,0.024,0.001,0.047,0.003,0.071c0.022,0.236,0.049,0.47,0.072,0.706    c0.074,0.751,0.147,1.502,0.23,2.252c1.284,11.784,3.563,22.986,6.785,33.443c2.456,13.7,4.657,25.754,9.125,50.07    c0.433,2.358,0.433,2.358,0.866,4.715c3.078,16.78,12.644,32.896,26.016,44.636c28.517,25.035,74.226,31.015,113.811,17.483    c9.803-3.353,17.363-7.05,32.293-15.206c0.519-0.283,0.519-0.283,1.036-0.566c8.747-4.78,12.854-6.941,17.893-9.308    c1.709-0.803,1.815-0.854,6.368-3.094c11.446-5.629,17.149-7.634,23.592-7.634c6.443,0,12.146,2.004,23.592,7.634    c4.553,2.239,4.659,2.291,6.367,3.093c5.04,2.367,9.147,4.528,17.894,9.308c0.518,0.283,0.518,0.283,1.036,0.566    c14.93,8.157,22.49,11.853,32.292,15.206c39.587,13.533,85.296,7.553,113.812-17.482c13.372-11.74,22.938-27.857,26.017-44.638    c0.433-2.355,0.433-2.355,0.866-4.713c4.443-24.183,6.645-36.239,9.085-49.847c3.283-10.628,5.588-22.029,6.868-34.028    C494.957,355.215,494.978,354.989,495.001,354.763z M472.045,382.921c-0.055,0.152-0.115,0.298-0.164,0.457    c-1.696,5.514-3.648,10.751-5.847,15.694c-0.022,0.049-0.044,0.097-0.066,0.145c-0.48,1.076-0.975,2.134-1.479,3.181    c-0.144,0.298-0.289,0.594-0.434,0.89c-0.395,0.805-0.798,1.599-1.207,2.387c-0.218,0.418-0.436,0.835-0.657,1.248    c-0.357,0.668-0.722,1.326-1.089,1.981c-0.262,0.466-0.523,0.932-0.79,1.392c-0.354,0.61-0.715,1.209-1.078,1.807    c-0.281,0.462-0.559,0.927-0.845,1.383c-0.388,0.618-0.786,1.224-1.184,1.83c-0.266,0.405-0.528,0.815-0.799,1.213    c-0.513,0.756-1.037,1.496-1.565,2.231c-0.162,0.226-0.32,0.459-0.484,0.683c-11.746,16.044-27.302,26.926-46.241,31.466    c-0.052,0.012-0.103,0.024-0.155,0.036c-1.079,0.257-2.171,0.49-3.272,0.705c-0.16,0.031-0.321,0.062-0.482,0.093    c-0.995,0.188-2.001,0.357-3.014,0.511c-0.242,0.037-0.483,0.075-0.725,0.11c-0.839,0.121-1.688,0.221-2.539,0.318    c13.702-18.435,19.548-43.695,20.911-77.763c0.289-7.224,0.381-13.24,0.4-23.945c18.397,0.478,37.709,3.067,58.086,7.711    C476.175,366.957,474.416,375.105,472.045,382.921z M401.788,374.237c-1.539,38.479-9.063,63.203-27.12,78.35    c-1.383-0.145-2.797-0.305-4.27-0.499c-11.323-1.494-22.783-4.181-33.608-8.333c-0.877-0.336-1.74-0.692-2.595-1.058    c-0.219-0.094-0.436-0.191-0.654-0.287c-0.693-0.305-1.379-0.618-2.058-0.943c-0.163-0.078-0.328-0.155-0.49-0.234    c-1.746-0.851-3.446-1.764-5.093-2.74c-0.033-0.02-0.066-0.04-0.099-0.059c-5.072-3.017-9.661-6.608-13.717-10.662    c-0.084-0.084-0.168-0.169-0.252-0.254c-0.568-0.573-1.123-1.156-1.669-1.747c-0.091-0.099-0.185-0.196-0.275-0.295    c-0.565-0.618-1.115-1.247-1.656-1.884c-0.239-0.282-0.471-0.569-0.705-0.854c-0.269-0.327-0.536-0.657-0.8-0.989    c-0.316-0.4-0.63-0.801-0.937-1.207c-0.105-0.138-0.207-0.279-0.31-0.418c-6.491-8.724-10.857-18.824-12.895-29.428    c33.179-24.674,69.148-37.588,109.591-39.533C402.154,361.512,402.064,367.334,401.788,374.237z M221.583,390.913    c-0.099,0.515-0.205,1.027-0.315,1.538c-0.09,0.415-0.184,0.828-0.281,1.241c-0.046,0.197-0.092,0.393-0.14,0.589    c-2.271,9.283-6.354,18.091-12.101,25.822c-0.111,0.149-0.22,0.299-0.332,0.447c-0.302,0.4-0.612,0.795-0.923,1.189    c-0.27,0.341-0.544,0.679-0.821,1.016c-0.228,0.277-0.453,0.556-0.685,0.83c-0.544,0.641-1.098,1.274-1.666,1.895    c-0.085,0.093-0.173,0.184-0.258,0.276c-0.553,0.599-1.116,1.189-1.69,1.769c-0.079,0.08-0.158,0.159-0.237,0.239    c-4.059,4.058-8.652,7.653-13.729,10.672c-0.03,0.018-0.06,0.036-0.091,0.054c-1.648,0.977-3.349,1.891-5.097,2.743    c-0.161,0.079-0.325,0.155-0.487,0.232c-0.679,0.325-1.366,0.638-2.059,0.943c-0.218,0.096-0.435,0.193-0.655,0.287    c-0.854,0.366-1.716,0.721-2.591,1.057c-0.001,0-0.002,0.001-0.003,0.001c-4.938,1.894-10.01,3.468-15.138,4.778    c-3.305,0.844-6.632,1.587-9.967,2.207c-2.836,0.527-5.675,0.975-8.506,1.349c-1.229,0.162-2.417,0.3-3.583,0.428    c-18.211-15.24-25.997-40.195-27.722-78.529c-0.314-6.969-0.43-12.915-0.465-22.805c40.443,1.97,76.42,14.849,109.6,39.439    C221.621,390.718,221.602,390.815,221.583,390.913z M94.973,350.979c0.035,10.289,0.154,16.452,0.483,23.775    c1.532,34.041,7.633,59.469,21.575,78.002c-0.1-0.011-0.2-0.022-0.299-0.033c-0.976-0.107-1.946-0.225-2.906-0.363    c-0.223-0.032-0.444-0.067-0.666-0.1c-0.982-0.149-1.956-0.313-2.921-0.494c-0.349-0.067-0.697-0.136-1.044-0.207    c-0.535-0.107-1.064-0.225-1.594-0.342c-15.039-3.373-28.022-10.688-38.675-21.19c-3.25-3.239-6.291-6.783-9.107-10.632    c-0.063-0.086-0.123-0.176-0.186-0.263c-0.631-0.869-1.252-1.752-1.861-2.651c-0.219-0.324-0.432-0.657-0.648-0.985    c-0.448-0.678-0.894-1.36-1.33-2.055c-0.256-0.408-0.506-0.825-0.757-1.239c-0.392-0.644-0.781-1.29-1.162-1.947    c-0.247-0.426-0.489-0.857-0.731-1.289c-0.386-0.687-0.769-1.379-1.144-2.081c-0.208-0.389-0.414-0.781-0.619-1.175    c-0.421-0.809-0.836-1.626-1.242-2.454c-0.137-0.278-0.273-0.556-0.408-0.836c-0.511-1.063-1.014-2.136-1.501-3.228    c-0.016-0.036-0.033-0.073-0.049-0.109c-2.201-4.947-4.155-10.188-5.852-15.706c-0.049-0.159-0.109-0.305-0.164-0.457    c-2.379-7.843-4.142-16.019-5.294-24.319C57.25,353.999,76.568,351.438,94.973,350.979z M411.854,25.025    c0.383,2.039,0.807,4.29,1.271,6.741c1.826,9.644,3.89,20.388,6.15,31.958c6.457,33.062,13.191,66.126,19.865,96.998    c3.273,15.14,6.457,29.4,9.53,42.631c8.641,37.204,16.147,65.231,22.277,82.161c6.012,16.602,8.655,36.242,7.896,56.038    c-23.822-5.274-46.398-7.869-67.888-7.692c-0.082-0.002-0.162-0.012-0.245-0.012c-0.103,0-0.203,0.012-0.305,0.015    c-43.664,0.456-82.838,12.4-118.847,36.674c0.048-0.549,0.086-1.098,0.146-1.648c0.001-0.007,0.003-0.014,0.003-0.021    c0.992-9.066,3.655-17.832,7.91-25.94c0.007-0.014,0.014-0.028,0.022-0.042c0.85-1.617,1.764-3.209,2.74-4.771    c0-0.001,0.001-0.001,0.001-0.002c0.449-0.719,0.915-1.43,1.391-2.136c0.114-0.169,0.23-0.336,0.346-0.504    c0.373-0.544,0.755-1.085,1.145-1.621c0.151-0.208,0.301-0.415,0.455-0.622c0.38-0.513,0.771-1.021,1.166-1.527    c0.153-0.196,0.303-0.393,0.458-0.588c0.526-0.66,1.063-1.314,1.615-1.96c0.018-0.022,0.036-0.044,0.054-0.065    c6.659-7.784,14.503-13.63,25.509-19.005c5.319-2.597,11.383-5.086,18.407-7.632c2.921-1.059,6.004-2.126,9.275-3.216    c0.096-0.032,0.187-0.067,0.283-0.099c1.173-0.395,2.343-0.808,3.512-1.232c0.796-0.288,1.582-0.582,2.364-0.879    c0.696-0.265,1.394-0.534,2.093-0.811c0.599-0.237,1.199-0.474,1.789-0.717c0.075-0.031,0.148-0.059,0.223-0.089    c0.028-0.011,0.051-0.028,0.078-0.039c44.834-18.584,64.622-53.028,54.971-91.632c-2.446-9.785-8.236-41.711-16.243-88.742    c-0.601-3.53-0.601-3.53-1.2-7.066c-2.192-12.933-4.454-26.421-6.734-40.126c-0.001-0.006-0.001-0.013-0.002-0.019    c-2.013-12.093-4.468-26.98-6.422-38.875c-0.448-2.734-0.884-5.394-1.302-7.947L411.854,25.025z M393.246,110.784    c0.601,3.541,0.601,3.541,1.202,7.077c8.12,47.696,13.905,79.596,16.51,90.017c7.25,29.002-6.674,54.713-41.575,70.292    c-28.181-13.22-48.07-25.556-53.987-34.431c-19.345-29.017-2.093-78.702,73.847-156.71    C390.595,95.095,391.933,103.04,393.246,110.784z M167.238,78.87c14.73,18.414,29.099,33.81,42.805,45.231    c16.988,14.155,32.622,21.972,47.054,21.972c14.435,0,30.072-7.818,47.063-21.978c13.705-11.42,28.072-26.814,42.801-45.225    c11.369-14.211,22.309-29.406,32.437-44.597c0.297-0.445,0.591-0.888,0.883-1.328c0.487,2.966,0.99,6.027,1.508,9.176    c1.328,8.067,2.661,16.13,3.991,24.134c-88.325,88.162-110.42,148.196-84.583,186.952c6.913,10.369,22.9,21.342,46.044,33.152    c-0.114,0.041-0.221,0.083-0.335,0.124c-1.315,0.477-2.602,0.953-3.862,1.43c-0.192,0.073-0.381,0.145-0.571,0.218    c-1.306,0.498-2.588,0.996-3.836,1.496c-0.074,0.03-0.146,0.06-0.22,0.089c-1.265,0.508-2.501,1.018-3.71,1.531    c-0.071,0.03-0.145,0.06-0.216,0.091c-1.182,0.503-2.332,1.01-3.462,1.52c-0.169,0.076-0.34,0.152-0.507,0.229    c-1.081,0.492-2.138,0.988-3.175,1.489c-0.189,0.091-0.377,0.183-0.565,0.275c-1.025,0.501-2.032,1.006-3.015,1.518    c-0.157,0.082-0.311,0.165-0.467,0.247c-0.994,0.523-1.971,1.05-2.924,1.586c-0.062,0.035-0.123,0.07-0.184,0.104    c-0.932,0.526-1.84,1.062-2.735,1.603c-0.162,0.098-0.327,0.195-0.489,0.294c-0.864,0.529-1.708,1.068-2.54,1.613    c-0.194,0.127-0.389,0.255-0.581,0.383c-0.814,0.543-1.614,1.093-2.399,1.654c-0.179,0.128-0.356,0.258-0.534,0.387    c-0.798,0.579-1.586,1.165-2.357,1.765c-0.116,0.09-0.229,0.183-0.345,0.274c-0.738,0.58-1.463,1.171-2.178,1.773    c-0.107,0.091-0.217,0.179-0.324,0.27c-0.746,0.635-1.477,1.286-2.2,1.946c-0.15,0.137-0.301,0.274-0.451,0.412    c-0.705,0.653-1.398,1.321-2.083,2.001c-0.147,0.146-0.293,0.293-0.44,0.441c-0.692,0.697-1.376,1.407-2.05,2.134    c-0.11,0.118-0.218,0.24-0.328,0.359c-0.702,0.765-1.396,1.542-2.082,2.342c-0.011,0.012-0.022,0.024-0.032,0.036    c-0.09,0.106-0.175,0.214-0.265,0.32c-0.549,0.647-1.092,1.298-1.619,1.955c-0.087,0.109-0.17,0.22-0.256,0.329    c-0.532,0.669-1.056,1.341-1.566,2.019c-0.039,0.052-0.077,0.106-0.116,0.159c-8.446,11.284-13.822,23.811-16.343,36.631h-37.549    c-1.994-10.138-5.777-20.091-11.446-29.392c-0.023-0.037-0.044-0.075-0.067-0.112c-0.448-0.733-0.91-1.462-1.382-2.186    c-0.07-0.107-0.137-0.216-0.207-0.323c-0.415-0.631-0.843-1.257-1.276-1.882c-0.132-0.19-0.259-0.383-0.392-0.573    c-0.354-0.503-0.721-1-1.087-1.498c-0.22-0.3-0.435-0.603-0.659-0.901c-0.23-0.305-0.471-0.605-0.705-0.909    c-0.949-1.23-1.923-2.446-2.941-3.636c-0.078-0.091-0.159-0.176-0.237-0.267c-0.578-0.671-1.163-1.326-1.753-1.972    c-0.172-0.189-0.344-0.38-0.518-0.567c-0.625-0.673-1.259-1.33-1.9-1.977c-0.199-0.201-0.399-0.402-0.6-0.601    c-0.641-0.635-1.289-1.259-1.947-1.87c-0.198-0.184-0.4-0.366-0.6-0.549c-0.68-0.62-1.367-1.232-2.068-1.829    c-0.158-0.134-0.32-0.265-0.478-0.399c-0.648-0.544-1.306-1.08-1.973-1.606c-0.159-0.126-0.315-0.254-0.476-0.378    c-0.744-0.578-1.504-1.144-2.274-1.703c-0.203-0.148-0.406-0.296-0.612-0.443c-0.771-0.55-1.556-1.09-2.354-1.623    c-0.202-0.135-0.405-0.268-0.609-0.402c-0.829-0.544-1.672-1.081-2.533-1.609c-0.154-0.094-0.311-0.187-0.466-0.281    c-0.923-0.559-1.86-1.111-2.822-1.654c-0.012-0.007-0.023-0.013-0.035-0.02c-1.007-0.568-2.041-1.125-3.094-1.678    c-0.109-0.057-0.216-0.115-0.326-0.172c-1.031-0.538-2.088-1.068-3.166-1.594c-0.124-0.06-0.248-0.121-0.372-0.181    c-1.099-0.532-2.221-1.059-3.37-1.581c-0.082-0.037-0.165-0.074-0.247-0.112c-3.654-1.653-7.571-3.264-11.792-4.869    c-0.084-0.032-0.167-0.064-0.252-0.096c-1.335-0.506-2.702-1.012-4.1-1.519c-0.08-0.029-0.155-0.058-0.235-0.087    c23.127-11.798,39.124-22.779,46.038-33.149c25.836-38.754,3.744-98.784-84.571-186.94c1.33-8.007,2.664-16.074,3.993-24.145    c0.042-0.256,0.083-0.507,0.125-0.762c0.051-0.313,0.102-0.621,0.154-0.933c0.298-1.809,0.59-3.587,0.877-5.334    c0.117-0.709,0.236-1.434,0.352-2.139c0.29,0.437,0.583,0.877,0.878,1.32C144.93,49.464,155.869,64.658,167.238,78.87z     M119.759,117.861c0.602-3.536,0.602-3.536,1.202-7.077c1.312-7.74,2.649-15.682,4-23.743    c75.931,78.001,93.18,127.682,73.836,156.698c-5.92,8.88-25.826,21.226-53.984,34.427c-34.892-15.58-48.814-41.288-41.564-70.288    C105.854,197.457,111.639,165.558,119.759,117.861z M43.261,285.514c6.13-16.93,13.636-44.956,22.277-82.161    c3.073-13.231,6.257-27.49,9.53-42.631c6.674-30.872,13.408-63.936,19.865-96.998c2.26-11.57,4.324-22.315,6.15-31.958    c0.464-2.451,0.888-4.702,1.271-6.741l16.242-4.06c-0.875,5.35-1.823,11.131-2.828,17.233c-0.095,0.578-0.19,1.153-0.285,1.733    c-0.26,1.581-0.521,3.162-0.782,4.743c-1.249,7.567-2.531,15.306-3.834,23.138c-0.002,0.011-0.002,0.022-0.003,0.033    c-2.278,13.692-4.538,27.166-6.728,40.087c-0.6,3.536-0.6,3.536-1.2,7.066c-8.007,47.03-13.796,78.957-16.243,88.742    c-10.365,41.459,13.21,78.13,65.313,95.498c2.487,0.828,4.865,1.644,7.148,2.453c10.302,3.653,18.596,7.154,25.528,10.987    c0.207,0.114,0.406,0.23,0.611,0.345c0.313,0.176,0.629,0.352,0.936,0.529c7.71,4.453,13.708,9.392,18.968,15.539    c0.19,0.222,0.37,0.447,0.556,0.67c0.354,0.424,0.708,0.847,1.052,1.276c0.235,0.294,0.462,0.592,0.692,0.889    c0.307,0.396,0.613,0.793,0.912,1.194c0.216,0.29,0.427,0.581,0.638,0.872c0.314,0.435,0.622,0.872,0.926,1.311    c0.179,0.259,0.358,0.517,0.533,0.777c0.374,0.557,0.739,1.118,1.096,1.683c0.092,0.146,0.188,0.29,0.28,0.436    c0.469,0.753,0.925,1.511,1.365,2.277c0.012,0.02,0.023,0.041,0.034,0.061c0.423,0.737,0.83,1.481,1.225,2.23    c0.064,0.122,0.126,0.244,0.19,0.366c0.355,0.681,0.7,1.367,1.032,2.058c0.047,0.098,0.095,0.196,0.142,0.295    c3.509,7.374,5.739,15.245,6.629,23.356c0.001,0.009,0,0.018,0.002,0.028c0.058,0.534,0.095,1.066,0.142,1.599    c-35.939-24.146-75.031-36.061-118.584-36.593c-0.188-0.012-0.374-0.029-0.565-0.029c-0.149,0-0.293,0.015-0.44,0.022    c-21.433-0.176-43.945,2.389-67.692,7.602C34.613,321.702,37.257,302.093,43.261,285.514z M461.328,440.947    c-2.363,12.882-9.921,25.615-20.49,34.895c-23.568,20.691-62.879,25.834-97.031,14.159c-8.597-2.941-15.529-6.33-29.631-14.034    c-0.517-0.282-0.517-0.282-1.035-0.565c-9.047-4.944-13.368-7.217-18.822-9.779c-1.57-0.737-1.673-0.788-6.091-2.961    c-13.726-6.751-21.224-9.386-31.124-9.386c-9.901,0-17.398,2.635-31.124,9.386c-4.418,2.173-4.521,2.223-6.091,2.961    c-5.453,2.561-9.775,4.835-18.821,9.779c-0.518,0.283-0.518,0.283-1.035,0.565c-14.102,7.705-21.034,11.094-29.633,14.035    c-34.15,11.674-73.461,6.532-97.029-14.159c-10.569-9.279-18.127-22.012-20.49-34.892c-0.35-1.904-0.419-2.283-0.66-3.593    c18.841,21.267,44.957,33.64,77.037,33.019c3.321,0.002,9.21-0.334,16.773-1.331c12.565-1.656,25.299-4.64,37.486-9.31    c21.78-8.352,38.45-24.358,47.862-44.275c0.093-0.195,0.183-0.391,0.274-0.586c0.317-0.683,0.625-1.371,0.925-2.063    c0.165-0.379,0.328-0.758,0.487-1.139c0.198-0.475,0.389-0.953,0.579-1.432c0.227-0.571,0.452-1.142,0.668-1.718    c0.08-0.216,0.157-0.433,0.235-0.65c2.302-6.296,3.902-12.88,4.747-19.639c0.015-0.122,0.031-0.243,0.046-0.365    c0.085-0.703,0.165-1.407,0.233-2.114c0.044-0.443,0.08-0.888,0.117-1.332c0.039-0.47,0.084-0.938,0.115-1.41    c0.071-1.039,0.122-2.079,0.157-3.121c0.001-0.023,0.001-0.046,0.002-0.068c0.037-1.114,0.05-2.23,0.046-3.347l34.185,0    c-0.004,1.117,0.009,2.233,0.046,3.348c0.001,0.023,0.001,0.045,0.002,0.068c0.036,1.042,0.086,2.082,0.157,3.12    c0.032,0.474,0.077,0.946,0.116,1.419c0.037,0.441,0.072,0.882,0.116,1.322c0.069,0.71,0.149,1.417,0.234,2.123    c0.003,0.026,0.005,0.053,0.009,0.079c0.003,0.027,0.001,0.054,0.005,0.081c0.02,0.162,0.047,0.322,0.067,0.484    c0.096,0.745,0.197,1.489,0.311,2.23c0.052,0.34,0.11,0.679,0.166,1.018c0.109,0.656,0.218,1.313,0.341,1.965    c0.108,0.578,0.229,1.151,0.348,1.725c0.084,0.404,0.162,0.811,0.252,1.214c6.311,28.514,26.002,52.306,54.319,63.164    c12.188,4.67,24.923,7.654,37.488,9.311c7.563,0.997,13.452,1.333,16.938,1.333c31.973,0.62,58.032-11.735,76.849-32.971    C461.741,438.698,461.663,439.118,461.328,440.947z"/>
	</g>
</g>
<g>
</g>
<g>
</g>
<g>
</g>
<g>
</g>
<g>
</g>
<g>
</g>
<g>
</g>
<g>
</g>
<g>
</g>
<g>
</g>
<g>
</g>
<g>
</g>
<g>
</g>
<g>
</g>
<g>
</g>
</svg>
