<?xml version="1.0" encoding="iso-8859-1"?>
<!-- Generator: Adobe Illustrator 19.0.0, SVG Export Plug-In . SVG Version: 6.00 Build 0)  -->
<svg xmlns="http://www.w3.org/2000/svg" xmlns:xlink="http://www.w3.org/1999/xlink" version="1.1" id="Layer_1" x="0px" y="0px" viewBox="0 0 512.207 512.207" style="enable-background:new 0 0 512.207 512.207;" xml:space="preserve">
<g transform="translate(0 -1)">
	<g>
		<path d="M493.148,308.672c-1.499-10.165-3.884-19.936-7.155-28.97c-5.833-16.109-13.205-43.635-21.7-80.211    c-3.052-13.141-6.217-27.317-9.473-42.376c-6.647-30.747-13.359-63.704-19.796-96.663c-2.253-11.537-4.311-22.249-6.131-31.862    c-0.637-3.363-1.198-6.348-1.679-8.921c-0.486-2.604-0.486-2.604-0.586-3.147c-0.608-3.287-3.079-5.917-6.322-6.727l-34.133-8.533    c-0.112-0.028-0.222-0.038-0.333-0.061c-0.173-0.036-0.346-0.07-0.521-0.095c-0.224-0.033-0.446-0.053-0.668-0.068    c-0.125-0.008-0.249-0.017-0.374-0.02c-0.255-0.006-0.506,0.002-0.756,0.018c-0.109,0.007-0.218,0.013-0.327,0.025    c-0.235,0.025-0.466,0.062-0.696,0.106c-0.142,0.026-0.284,0.053-0.425,0.087c-0.167,0.041-0.331,0.091-0.494,0.142    c-0.206,0.063-0.41,0.128-0.612,0.206c-0.068,0.027-0.132,0.058-0.199,0.087c-1.164,0.488-2.236,1.241-3.119,2.273    c-0.011,0.013-0.024,0.025-0.035,0.038c-0.137,0.162-0.263,0.337-0.39,0.512c-0.111,0.151-0.221,0.303-0.322,0.461    c-0.039,0.062-0.086,0.114-0.123,0.177c-0.57,0.951-1.69,2.776-3.307,5.349c-2.711,4.312-5.819,9.124-9.276,14.308    c-9.872,14.809-20.532,29.614-31.563,43.403c-14.072,17.59-27.704,32.196-40.399,42.775    c-14.209,11.841-26.572,18.022-36.137,18.022c-9.564,0-21.924-6.179-36.129-18.016c-12.697-10.58-26.33-25.188-40.403-42.781    c-11.03-13.789-21.689-28.594-31.56-43.403c-3.456-5.184-6.564-9.995-9.275-14.308c-1.617-2.573-2.737-4.398-3.307-5.349    c-0.025-0.042-0.057-0.075-0.083-0.116c-0.176-0.28-0.367-0.547-0.572-0.804c-1.385-1.769-3.248-2.77-5.204-3.092    c-0.124-0.021-0.246-0.047-0.371-0.063c-0.195-0.023-0.389-0.034-0.584-0.044c-0.212-0.012-0.425-0.018-0.641-0.014    c-0.166,0.004-0.33,0.013-0.495,0.026c-0.226,0.018-0.452,0.045-0.68,0.082c-0.175,0.028-0.348,0.057-0.521,0.096    c-0.079,0.017-0.157,0.023-0.236,0.043L91.9,9.796c-3.243,0.811-5.714,3.44-6.321,6.727c-0.1,0.542-0.1,0.542-0.586,3.147    c-0.481,2.573-1.042,5.558-1.679,8.921c-1.82,9.612-3.878,20.325-6.131,31.862c-6.437,32.958-13.149,65.915-19.796,96.663    c-3.256,15.06-6.421,29.235-9.473,42.376c-8.495,36.576-15.867,64.102-21.7,80.211c-3.279,9.056-5.667,18.853-7.165,29.044    c-4.541,29.081-2.065,58.058,6.554,83.281c2.267,12.617,4.463,24.629,8.626,47.288c0.433,2.357,0.433,2.357,0.866,4.715    c3.078,16.78,12.644,32.896,26.016,44.636c28.517,25.035,74.226,31.015,113.811,17.483c9.803-3.353,17.363-7.05,32.293-15.206    c0.519-0.283,0.519-0.283,1.036-0.566c8.746-4.78,12.854-6.941,17.893-9.308c1.709-0.803,1.815-0.854,6.368-3.094    c11.446-5.629,17.149-7.634,23.592-7.634c6.443,0,12.146,2.004,23.592,7.634c4.553,2.239,4.659,2.291,6.367,3.093    c5.04,2.367,9.147,4.529,17.894,9.308c0.518,0.283,0.518,0.283,1.036,0.566c14.93,8.157,22.49,11.853,32.292,15.206    c39.587,13.533,85.296,7.553,113.812-17.482c13.372-11.74,22.938-27.857,26.017-44.638c0.433-2.355,0.433-2.355,0.866-4.713    c4.156-22.62,6.351-34.629,8.614-47.222C495.226,366.836,497.706,337.808,493.148,308.672z M128.103,453.274    c-1.141,0.022-2.267,0.014-3.389-0.002c-0.911-0.016-1.817-0.043-2.716-0.086c-0.025-0.001-0.051-0.002-0.076-0.003    c-31.05-1.525-55.194-19.147-70.284-45.132c-0.214-0.389-0.432-0.774-0.642-1.168c-0.208-0.388-0.413-0.779-0.617-1.172    c-0.421-0.81-0.837-1.628-1.243-2.457c-0.136-0.277-0.272-0.554-0.407-0.833c-0.511-1.063-1.014-2.137-1.501-3.229    c-0.016-0.036-0.033-0.073-0.049-0.109c-2.201-4.947-4.155-10.188-5.852-15.706c-0.049-0.159-0.109-0.305-0.164-0.457    c-6.911-22.788-8.635-48.418-5.251-71.571c0.022-0.143,0.042-0.286,0.065-0.429c0.019-0.13,0.042-0.258,0.062-0.388    c4.796,1.35,11.024,3.06,25.651,7.072c82.188,22.546,119.844,39.022,157.885,77.278c-3.271,13.005-9.917,24.594-19.265,33.674    c-0.236,0.228-0.47,0.458-0.71,0.683c-0.303,0.286-0.61,0.567-0.918,0.848c-0.426,0.387-0.857,0.769-1.293,1.146    c-0.185,0.16-0.368,0.324-0.555,0.482c-0.667,0.564-1.345,1.116-2.035,1.656c-0.115,0.09-0.233,0.178-0.349,0.268    c-0.63,0.487-1.268,0.964-1.917,1.431c-0.115,0.083-0.23,0.167-0.346,0.249c-1.511,1.073-3.072,2.092-4.682,3.053    c-0.119,0.071-0.238,0.141-0.358,0.211c-0.74,0.436-1.489,0.86-2.248,1.271c-0.075,0.041-0.149,0.083-0.225,0.124    c-0.808,0.433-1.629,0.851-2.459,1.255c-0.16,0.078-0.322,0.153-0.482,0.23c-0.681,0.326-1.37,0.64-2.065,0.946    c-0.124,0.055-0.248,0.109-0.373,0.163c-0.1,0.043-0.2,0.088-0.3,0.131c-0.849,0.363-1.704,0.716-2.574,1.049    c-1.353,0.519-2.716,1.015-4.088,1.489c-0.271,0.093-0.545,0.176-0.816,0.267c-3.009,1.018-6.056,1.924-9.127,2.734    c-1.847,0.487-3.702,0.94-5.563,1.356c-1.834,0.409-3.67,0.797-5.51,1.139c-1.418,0.263-2.837,0.507-4.255,0.732    c-1.418,0.225-2.836,0.43-4.251,0.617c-3.964,0.523-7.617,0.858-10.865,1.044C130.041,453.239,128.729,453.274,128.103,453.274z     M471.044,382.921c-0.055,0.152-0.115,0.298-0.164,0.457c-1.696,5.514-3.648,10.751-5.847,15.694    c-0.022,0.049-0.044,0.097-0.066,0.145c-0.48,1.076-0.976,2.135-1.479,3.183c-0.143,0.297-0.288,0.592-0.433,0.887    c-0.396,0.806-0.799,1.601-1.209,2.39c-0.217,0.417-0.435,0.833-0.656,1.246c-0.31,0.58-0.628,1.151-0.946,1.721    c-15.069,25.624-38.992,42.974-69.664,44.536c-0.214,0.01-0.428,0.018-0.642,0.026c-0.723,0.032-1.45,0.055-2.18,0.069    c-1.155,0.018-2.315,0.024-3.49,0.002c-0.593-0.001-1.479-0.021-2.689-0.077c-0.403-0.019-0.842-0.041-1.318-0.068    c-3.248-0.185-6.901-0.521-10.865-1.044c-11.323-1.494-22.783-4.181-33.608-8.333c-0.877-0.336-1.74-0.692-2.595-1.058    c-0.219-0.094-0.436-0.191-0.654-0.287c-0.693-0.305-1.379-0.618-2.058-0.943c-0.163-0.078-0.328-0.155-0.49-0.234    c-0.851-0.415-1.692-0.841-2.519-1.286c-0.002-0.001-0.004-0.002-0.006-0.003c-0.858-0.461-1.702-0.94-2.534-1.432    c-0.035-0.021-0.071-0.041-0.106-0.062c-0.009-0.005-0.018-0.011-0.027-0.016c-1.668-0.992-3.283-2.046-4.845-3.158    c-0.055-0.039-0.109-0.078-0.164-0.117c-0.766-0.549-1.521-1.111-2.261-1.687c-0.005-0.004-0.009-0.007-0.014-0.011    c-0.735-0.573-1.454-1.161-2.162-1.76c-0.124-0.105-0.246-0.214-0.37-0.32c-0.518-0.444-1.026-0.897-1.529-1.355    c-0.231-0.211-0.463-0.421-0.691-0.635c-0.371-0.347-0.734-0.702-1.096-1.056c-0.678-0.664-1.345-1.338-1.994-2.028    c-0.034-0.036-0.068-0.071-0.102-0.107c-8.025-8.579-13.795-19.132-16.823-30.851c38.291-38.508,76.255-55.133,159.203-77.98    c13.753-3.788,19.76-5.444,24.239-6.704C479.709,333.997,478.024,359.907,471.044,382.921z M410.853,25.024    c0.383,2.039,0.807,4.29,1.271,6.741c1.826,9.643,3.89,20.388,6.15,31.958c6.457,33.062,13.191,66.126,19.865,96.998    c3.273,15.14,6.457,29.4,9.53,42.631c8.641,37.204,16.147,65.231,22.277,82.161c0.988,2.728,1.878,5.544,2.684,8.423    c-4.587,1.296-10.365,2.889-25.212,6.979c-78.917,21.737-119.217,38.391-157.083,73.086c0.068-1.698,0.182-3.402,0.369-5.111    c0.001-0.008,0.003-0.015,0.003-0.022c0.993-9.074,3.659-17.849,7.921-25.963c0.001-0.002,0.002-0.004,0.003-0.006    c1.247-2.374,2.634-4.69,4.153-6.941c0.102-0.152,0.207-0.302,0.311-0.453c0.386-0.563,0.78-1.121,1.183-1.675    c0.141-0.194,0.282-0.388,0.425-0.581c0.395-0.533,0.8-1.061,1.21-1.585c0.139-0.177,0.274-0.356,0.415-0.533    c0.548-0.688,1.108-1.37,1.684-2.043c0.701-0.819,1.414-1.616,2.143-2.394c4.741-5.057,10.135-9.279,16.813-13.136    c7.803-4.506,17.37-8.516,29.707-12.784c1.47-0.508,2.974-1.02,4.525-1.536c0.054-0.018,0.105-0.038,0.159-0.056    c1.236-0.415,2.468-0.85,3.699-1.298c0.719-0.26,1.43-0.526,2.137-0.793c0.772-0.293,1.546-0.592,2.323-0.9    c0.565-0.225,1.133-0.448,1.691-0.677c0.086-0.035,0.171-0.068,0.257-0.103c0.032-0.013,0.058-0.032,0.09-0.045    c44.825-18.585,64.61-53.026,54.959-91.627c-2.446-9.785-8.236-41.711-16.243-88.742c-0.601-3.53-0.601-3.53-1.2-7.066    c-2.193-12.934-4.455-26.422-6.735-40.128c-0.001-0.006-0.001-0.011-0.002-0.017c-1.993-11.971-4.418-26.68-6.363-38.514    c-0.47-2.863-0.925-5.642-1.361-8.308L410.853,25.024z M392.245,110.783c0.601,3.541,0.601,3.541,1.202,7.077    c8.12,47.696,13.905,79.596,16.51,90.017c7.251,29.002-6.675,54.713-41.576,70.293c-28.18-13.22-48.069-25.556-53.986-34.431    c-19.345-29.018-2.093-78.702,73.847-156.71C389.595,95.094,390.933,103.04,392.245,110.783z M166.237,78.87    c14.73,18.414,29.099,33.81,42.805,45.231c16.987,14.155,32.622,21.972,47.054,21.972c14.435,0,30.072-7.818,47.063-21.978    c13.705-11.42,28.072-26.814,42.8-45.225c11.369-14.211,22.309-29.406,32.437-44.597c0.297-0.445,0.592-0.888,0.884-1.329    c0.487,2.965,0.99,6.026,1.508,9.176c1.328,8.067,2.662,16.131,3.991,24.134c-88.326,88.162-110.42,148.196-84.583,186.952    c6.913,10.369,22.9,21.342,46.044,33.152c-0.083,0.03-0.16,0.06-0.243,0.09c-1.373,0.498-2.717,0.995-4.03,1.492    c-0.132,0.05-0.262,0.1-0.393,0.15c-1.361,0.518-2.696,1.037-3.995,1.557c-0.01,0.004-0.02,0.008-0.03,0.012    c-1.354,0.543-2.676,1.088-3.966,1.636c-0.016,0.007-0.033,0.014-0.05,0.021c-1.22,0.519-2.408,1.042-3.574,1.569    c-0.132,0.06-0.265,0.119-0.396,0.179c-1.112,0.506-2.198,1.016-3.262,1.53c-0.158,0.076-0.316,0.153-0.473,0.23    c-1.053,0.514-2.087,1.033-3.096,1.559c-0.125,0.065-0.248,0.132-0.373,0.197c-1.043,0.548-2.069,1.101-3.067,1.664    c-0.005,0.003-0.01,0.006-0.016,0.009c-0.979,0.552-1.931,1.114-2.87,1.682c-0.138,0.084-0.278,0.166-0.415,0.25    c-0.884,0.541-1.748,1.092-2.599,1.65c-0.173,0.114-0.346,0.227-0.518,0.342c-0.832,0.554-1.651,1.118-2.453,1.691    c-0.159,0.114-0.317,0.229-0.475,0.344c-0.816,0.591-1.621,1.191-2.408,1.804c-0.096,0.075-0.189,0.152-0.285,0.227    c-0.768,0.603-1.523,1.218-2.265,1.844c-0.087,0.074-0.176,0.145-0.263,0.219c-0.761,0.648-1.508,1.312-2.245,1.986    c-0.134,0.123-0.27,0.245-0.404,0.369c-0.718,0.665-1.425,1.345-2.122,2.038c-0.133,0.132-0.265,0.265-0.397,0.398    c-0.704,0.709-1.401,1.432-2.087,2.172c-0.096,0.103-0.19,0.209-0.285,0.313c-0.722,0.787-1.438,1.587-2.143,2.411    c-0.647,0.756-1.277,1.518-1.894,2.287c-0.031,0.039-0.06,0.078-0.091,0.117c-0.591,0.738-1.168,1.482-1.731,2.231    c-0.006,0.008-0.012,0.017-0.018,0.025c-8.497,11.314-13.9,23.885-16.43,36.751h-37.549c-1.997-10.155-5.789-20.125-11.474-29.441    c-0.01-0.016-0.019-0.032-0.029-0.048c-0.463-0.758-0.94-1.511-1.428-2.26c-0.054-0.083-0.107-0.168-0.161-0.252    c-0.435-0.662-0.883-1.318-1.337-1.973c-0.111-0.16-0.218-0.323-0.33-0.482c-0.385-0.546-0.783-1.087-1.182-1.628    c-0.189-0.256-0.371-0.516-0.563-0.77c-0.283-0.376-0.579-0.747-0.869-1.121c-0.902-1.162-1.824-2.312-2.788-3.438    c-0.063-0.074-0.129-0.143-0.192-0.216c-0.603-0.7-1.213-1.384-1.828-2.057c-0.157-0.172-0.313-0.346-0.471-0.516    c-0.637-0.686-1.284-1.357-1.938-2.017c-0.185-0.187-0.372-0.375-0.558-0.56c-0.653-0.647-1.314-1.283-1.984-1.906    c-0.184-0.171-0.371-0.34-0.556-0.509c-0.693-0.632-1.394-1.256-2.108-1.865c-0.14-0.12-0.284-0.236-0.425-0.354    c-0.674-0.567-1.359-1.124-2.054-1.672c-0.139-0.11-0.276-0.222-0.417-0.331c-0.761-0.592-1.538-1.17-2.326-1.742    c-0.183-0.133-0.366-0.267-0.551-0.399c-0.788-0.562-1.59-1.115-2.407-1.659c-0.182-0.121-0.366-0.242-0.55-0.363    c-0.848-0.557-1.71-1.106-2.592-1.646c-0.128-0.078-0.259-0.155-0.387-0.233c-1.935-1.173-3.953-2.309-6.065-3.416    c-0.077-0.04-0.153-0.081-0.23-0.122c-1.058-0.552-2.142-1.096-3.248-1.635c-0.093-0.045-0.186-0.091-0.28-0.136    c-1.128-0.547-2.282-1.088-3.464-1.625c-0.041-0.018-0.082-0.037-0.123-0.055c-3.705-1.678-7.681-3.314-11.971-4.943    c-0.023-0.009-0.046-0.018-0.069-0.026c-1.39-0.527-2.814-1.055-4.272-1.582c-0.049-0.018-0.094-0.035-0.143-0.053    c23.127-11.798,39.124-22.779,46.038-33.149c25.836-38.754,3.744-98.784-84.571-186.94c0.932-5.613,1.866-11.254,2.799-16.908    c0.044-0.264,0.086-0.521,0.129-0.785c0.355-2.151,0.71-4.302,1.064-6.453c0.017-0.102,0.033-0.201,0.05-0.302    c0.131-0.796,0.26-1.583,0.391-2.375c0.194-1.182,0.387-2.353,0.577-3.508c0.163-0.991,0.329-1.999,0.49-2.982    c0.29,0.437,0.583,0.877,0.878,1.32C143.93,49.464,154.869,64.658,166.237,78.87z M102.248,207.877    c2.605-10.421,8.39-42.32,16.51-90.017c0.602-3.536,0.602-3.536,1.202-7.077c1.312-7.739,2.649-15.681,4-23.742    c75.931,78.001,93.18,127.682,73.836,156.698c-5.92,8.88-25.825,21.226-53.983,34.426    C108.921,262.586,94.998,236.877,102.248,207.877z M64.537,203.352c3.073-13.231,6.257-27.49,9.53-42.631    c6.674-30.872,13.408-63.936,19.865-96.998c2.26-11.57,4.324-22.315,6.15-31.958c0.464-2.451,0.888-4.702,1.271-6.741l16.242-4.06    c-0.924,5.648-1.927,11.763-2.994,18.244c-0.012,0.07-0.023,0.14-0.035,0.21c-0.376,2.284-0.753,4.567-1.129,6.85    c-1.165,7.058-2.36,14.263-3.571,21.544c-0.002,0.01-0.002,0.02-0.003,0.03c-2.278,13.692-4.538,27.167-6.728,40.089    c-0.6,3.536-0.6,3.536-1.2,7.066c-8.007,47.03-13.796,78.957-16.243,88.742c-9.655,38.619,10.152,73.075,55.021,91.653    c0.002,0.001,0.003,0.002,0.005,0.003c0.004,0.002,0.008,0.003,0.011,0.005c3.295,1.364,6.712,2.65,10.276,3.838    c1.666,0.555,3.284,1.104,4.858,1.65c0.045,0.016,0.092,0.032,0.138,0.047c0.002,0.001,0.003,0.001,0.005,0.002    c12.922,4.49,22.777,8.702,30.755,13.519c6.981,4.217,12.531,8.901,17.436,14.635c0.155,0.181,0.301,0.365,0.454,0.547    c0.394,0.469,0.786,0.939,1.167,1.416c0.22,0.275,0.433,0.554,0.648,0.832c0.323,0.416,0.645,0.834,0.959,1.256    c0.205,0.275,0.406,0.552,0.606,0.828c0.327,0.452,0.648,0.907,0.963,1.364c0.168,0.243,0.337,0.487,0.501,0.732    c0.39,0.58,0.771,1.165,1.143,1.754c0.078,0.123,0.159,0.245,0.236,0.369c0.939,1.506,1.819,3.039,2.64,4.596    c0.057,0.108,0.113,0.217,0.169,0.326c0.363,0.696,0.715,1.397,1.055,2.103c0.042,0.086,0.083,0.172,0.125,0.259    c3.514,7.379,5.746,15.256,6.637,23.373c0.001,0.009,0,0.017,0.001,0.025c0.166,1.517,0.269,3.028,0.342,4.536    c-37.569-34.353-77.559-50.84-155.638-72.259c-15.681-4.302-21.664-5.945-26.591-7.338c0.797-2.834,1.674-5.607,2.647-8.295    C48.39,268.583,55.896,240.557,64.537,203.352z M460.327,440.946c-2.363,12.882-9.921,25.615-20.49,34.895    c-23.568,20.691-62.879,25.834-97.031,14.159c-8.597-2.941-15.529-6.33-29.631-14.034c-0.517-0.282-0.517-0.282-1.035-0.565    c-9.047-4.944-13.368-7.217-18.822-9.779c-1.57-0.737-1.673-0.788-6.091-2.961c-13.726-6.751-21.224-9.386-31.124-9.386    c-9.901,0-17.398,2.635-31.124,9.386c-4.418,2.173-4.521,2.223-6.091,2.961c-5.453,2.561-9.775,4.835-18.821,9.779    c-0.518,0.283-0.518,0.283-1.035,0.565c-14.102,7.705-21.034,11.094-29.633,14.035c-34.15,11.674-73.461,6.532-97.029-14.159    c-10.569-9.279-18.127-22.012-20.49-34.892c-0.368-2.004-0.424-2.306-0.697-3.796c0.665,0.759,1.342,1.504,2.025,2.24    c0.124,0.133,0.25,0.263,0.374,0.395c0.696,0.742,1.401,1.47,2.115,2.188c0.195,0.196,0.389,0.393,0.585,0.587    c0.814,0.804,1.636,1.596,2.473,2.369c0.155,0.143,0.313,0.281,0.469,0.423c0.697,0.636,1.403,1.26,2.116,1.874    c0.261,0.225,0.522,0.45,0.786,0.672c0.835,0.703,1.676,1.396,2.532,2.069c0.191,0.15,0.386,0.293,0.578,0.442    c0.697,0.54,1.402,1.069,2.113,1.589c0.327,0.239,0.655,0.476,0.984,0.711c0.728,0.517,1.462,1.025,2.203,1.521    c0.344,0.23,0.689,0.457,1.036,0.683c0.713,0.464,1.432,0.918,2.158,1.362c0.381,0.233,0.764,0.463,1.148,0.69    c0.661,0.391,1.327,0.773,1.998,1.148c0.414,0.232,0.828,0.463,1.246,0.688c0.781,0.421,1.568,0.831,2.362,1.23    c0.419,0.211,0.841,0.417,1.264,0.621c0.64,0.31,1.286,0.611,1.935,0.907c0.376,0.171,0.748,0.348,1.127,0.515    c0.924,0.406,1.858,0.795,2.799,1.172c0.431,0.173,0.865,0.339,1.299,0.506c0.667,0.256,1.338,0.505,2.013,0.747    c0.404,0.145,0.805,0.294,1.211,0.433c0.977,0.335,1.962,0.654,2.956,0.959c0.418,0.128,0.839,0.249,1.26,0.372    c0.726,0.212,1.456,0.416,2.19,0.612c0.406,0.108,0.81,0.219,1.218,0.323c1.044,0.264,2.096,0.513,3.156,0.745    c0.372,0.081,0.748,0.154,1.122,0.232c0.819,0.169,1.643,0.329,2.473,0.479c0.389,0.07,0.778,0.142,1.169,0.208    c1.12,0.189,2.248,0.363,3.386,0.517c0.294,0.04,0.592,0.072,0.887,0.109c0.941,0.119,1.888,0.226,2.84,0.32    c0.368,0.036,0.735,0.073,1.105,0.106c1.201,0.107,2.408,0.2,3.627,0.268c0.175,0.01,0.353,0.014,0.528,0.023    c1.099,0.056,2.206,0.095,3.319,0.119c0.294,0.007,0.588,0.015,0.883,0.019c0.107,0.002,0.216,0.001,0.323,0.003    c1.139,0.013,2.284,0.014,3.438-0.005c0.059-0.001,0.117,0.001,0.177,0c0.043,0,0.097-0.002,0.141-0.002    c0.787-0.001,1.715-0.02,2.772-0.062c0.092-0.004,0.186-0.008,0.28-0.012c0.492-0.021,1.01-0.047,1.554-0.078    c1.309-0.075,2.763-0.179,4.353-0.32c1.55-0.137,3.227-0.308,5.016-0.519c0.006-0.001,0.012-0.001,0.017-0.002    c0.881-0.104,1.789-0.217,2.722-0.34c12.565-1.658,25.3-4.644,37.487-9.318c0.908-0.348,1.805-0.709,2.693-1.082    c0.063-0.026,0.124-0.055,0.186-0.082c0.052-0.022,0.102-0.045,0.153-0.067c0.253-0.108,0.503-0.221,0.755-0.331    c0.78-0.34,1.552-0.688,2.316-1.047c0.224-0.105,0.447-0.212,0.67-0.319c0.876-0.42,1.741-0.853,2.596-1.298    c0.076-0.04,0.154-0.079,0.23-0.119c11.273-5.912,20.669-13.939,28.018-23.337c0.024-0.031,0.048-0.061,0.072-0.092    c0.594-0.762,1.174-1.532,1.741-2.311c0.106-0.146,0.214-0.29,0.319-0.437c0.497-0.691,0.982-1.39,1.458-2.094    c0.143-0.211,0.289-0.421,0.43-0.633c0.471-0.711,0.931-1.427,1.38-2.15c0.372-0.597,0.731-1.202,1.089-1.808    c0.097-0.166,0.197-0.33,0.293-0.496c5.972-10.265,9.863-21.735,11.367-33.754c0.015-0.122,0.031-0.244,0.046-0.365    c0.085-0.703,0.165-1.407,0.233-2.114c0.044-0.443,0.079-0.888,0.117-1.332c0.039-0.47,0.084-0.938,0.115-1.41    c0.071-1.039,0.122-2.079,0.157-3.121c0.001-0.023,0.001-0.045,0.002-0.068c0.037-1.114,0.05-2.23,0.046-3.347h34.185    c-0.004,1.117,0.009,2.233,0.046,3.348c0.001,0.023,0.001,0.045,0.002,0.068c0.036,1.042,0.086,2.082,0.157,3.12    c0.032,0.475,0.077,0.946,0.116,1.419c0.037,0.441,0.072,0.881,0.116,1.321c0.069,0.71,0.149,1.417,0.234,2.123    c0.014,0.117,0.029,0.234,0.044,0.351c1.503,12.025,5.396,23.501,11.373,33.77c0.09,0.156,0.184,0.31,0.275,0.466    c0.364,0.616,0.728,1.231,1.107,1.838c0.404,0.65,0.819,1.292,1.24,1.932c0.192,0.291,0.387,0.581,0.583,0.869    c0.468,0.693,0.946,1.38,1.435,2.061c0.11,0.152,0.222,0.303,0.333,0.455c0.561,0.771,1.136,1.533,1.723,2.287    c0.029,0.038,0.058,0.075,0.088,0.113c7.347,9.393,16.74,17.417,28.009,23.327c0.079,0.042,0.159,0.082,0.239,0.123    c0.455,0.237,0.908,0.476,1.369,0.706c0.038,0.019,0.074,0.039,0.112,0.058c0.365,0.181,0.737,0.353,1.106,0.53    c0.216,0.104,0.432,0.208,0.649,0.31c0.832,0.392,1.672,0.771,2.521,1.139c0.16,0.069,0.318,0.142,0.478,0.21    c1.031,0.44,2.071,0.868,3.126,1.273c12.186,4.674,24.921,7.66,37.486,9.318c7.564,0.998,13.453,1.334,16.939,1.334    c0.259,0.005,0.514-0.001,0.772,0.002c0.84,0.01,1.678,0.014,2.51,0.006c0.265-0.003,0.531-0.002,0.795-0.007    c0.36-0.005,0.716-0.02,1.074-0.029c0.622-0.016,1.24-0.039,1.857-0.065c0.248-0.011,0.498-0.016,0.745-0.029    c0.992-0.047,1.976-0.114,2.956-0.186c0.357-0.027,0.715-0.049,1.07-0.079c0.824-0.069,1.643-0.151,2.458-0.238    c0.198-0.021,0.394-0.044,0.591-0.067c16.718-1.885,31.588-7.573,44.367-16.528c0.036-0.025,0.072-0.05,0.108-0.075    c0.657-0.462,1.309-0.933,1.955-1.412c0.168-0.124,0.333-0.251,0.5-0.376c1.066-0.802,2.117-1.626,3.152-2.474    c0.253-0.207,0.508-0.411,0.759-0.621c0.498-0.416,0.99-0.839,1.48-1.266c0.371-0.323,0.739-0.651,1.106-0.98    c0.56-0.502,1.116-1.009,1.666-1.525c0.575-0.54,1.146-1.085,1.711-1.64c0.353-0.347,0.701-0.7,1.05-1.053    c0.507-0.513,1.009-1.034,1.507-1.56c0.278-0.293,0.558-0.583,0.833-0.88c0.641-0.693,1.275-1.394,1.9-2.107    C460.75,438.642,460.695,438.944,460.327,440.946z"/>
	</g>
</g>
<g>
</g>
<g>
</g>
<g>
</g>
<g>
</g>
<g>
</g>
<g>
</g>
<g>
</g>
<g>
</g>
<g>
</g>
<g>
</g>
<g>
</g>
<g>
</g>
<g>
</g>
<g>
</g>
<g>
</g>
</svg>
