<?xml version="1.0" encoding="iso-8859-1"?>
<!-- Generator: Adobe Illustrator 19.0.0, SVG Export Plug-In . SVG Version: 6.00 Build 0)  -->
<svg xmlns="http://www.w3.org/2000/svg" xmlns:xlink="http://www.w3.org/1999/xlink" version="1.1" id="Layer_1" x="0px" y="0px" viewBox="0 0 512.147 512.147" style="enable-background:new 0 0 512.147 512.147;" xml:space="preserve">
<g>
	<g>
		<path d="M485.965,278.696c-21.641-59.742-58.991-261.154-59.366-263.177c-0.606-3.285-3.072-5.914-6.323-6.733l-34.133-8.533    c-0.137-0.034-0.276-0.048-0.413-0.075c-0.114-0.023-0.228-0.044-0.343-0.062c-0.238-0.036-0.476-0.06-0.715-0.076    c-0.094-0.007-0.184-0.026-0.278-0.03c-0.061-0.003-0.12,0.006-0.18,0.004c-0.152-0.002-0.303,0.004-0.454,0.01    c-2.458,0.068-4.658,1.164-6.183,2.984c-0.005,0.006-0.01,0.011-0.015,0.017c-0.173,0.208-0.332,0.43-0.487,0.656    c-0.062,0.09-0.128,0.178-0.186,0.27c-0.041,0.065-0.091,0.123-0.13,0.189c-20.685,34.449-82.679,123.861-120.687,123.861    c-38.007,0-100.002-89.412-120.678-123.861c-0.028-0.047-0.061-0.088-0.09-0.134c-0.07-0.111-0.144-0.219-0.22-0.327    c-0.121-0.175-0.246-0.343-0.378-0.506c-0.066-0.082-0.132-0.163-0.201-0.243c-0.197-0.226-0.402-0.441-0.618-0.642    c-0.012-0.011-0.022-0.024-0.034-0.035c-0.003-0.003-0.007-0.005-0.01-0.008c-0.507-0.466-1.065-0.859-1.656-1.183    c-0.05-0.028-0.102-0.054-0.153-0.08c-0.251-0.131-0.508-0.25-0.77-0.355c-0.049-0.02-0.096-0.041-0.145-0.06    c-0.621-0.237-1.267-0.401-1.926-0.488c-0.047-0.006-0.093-0.009-0.14-0.014c-0.277-0.032-0.556-0.05-0.836-0.055    c-0.072-0.001-0.143-0.002-0.214-0.001c-0.277,0.002-0.553,0.018-0.83,0.048c-0.054,0.006-0.107,0.008-0.161,0.015    c-0.332,0.042-0.663,0.1-0.992,0.182c-0.003,0.001-0.007,0.001-0.01,0.002L91.874,8.79c-3.251,0.811-5.717,3.439-6.323,6.733    c-0.315,1.696-26.625,143.53-47.869,224.545c-0.012,0.044-0.03,0.086-0.041,0.13c-0.009,0.034-0.017,0.068-0.026,0.094    c-0.009,0.017-0.009,0.034-0.017,0.043c-4.309,16.435-8.158,29.338-11.409,38.34c-10.708,29.553-12.845,71.454-1.218,108.979    c3.052,17.06,6.18,34.097,9.319,51.141l0.776,4.233c3.029,16.503,12.51,32.768,26.01,44.629    c18.21,15.983,44.262,24.491,71.467,24.491c14.106,0,28.544-2.287,42.342-7.006c11.947-4.079,22.69-9.958,33.084-15.633    c5.905-3.234,12.015-6.571,18.142-9.446c1.826-0.853,3.652-1.758,5.495-2.662c8.431-4.147,16.384-8.064,24.474-8.064    c8.073,0,16.026,3.917,24.457,8.064c1.843,0.905,3.669,1.809,5.495,2.662c6.127,2.876,12.237,6.212,18.142,9.446    c10.394,5.675,21.137,11.554,33.084,15.633c40.431,13.807,86.153,6.793,113.809-17.485c13.491-11.853,22.98-28.126,26.018-44.638    l1.451-7.868c2.896-15.805,5.789-31.603,8.622-47.416C498.803,350.196,496.672,308.269,485.965,278.696z M471.142,381.564    c-0.11,0.262-0.209,0.531-0.295,0.809c-2.63,8.551-6.706,18.949-12.905,29.085c-0.355,0.576-0.708,1.152-1.073,1.721    c-0.237,0.372-0.48,0.744-0.723,1.115c-0.716,1.084-1.443,2.16-2.198,3.215c-2.041,2.853-4.176,5.532-6.4,8.043    c-13.349,14.979-32.909,26.736-61.437,26.736c-0.666,0-1.34-0.009-2.022-0.017c-0.234,0-23.014-0.162-46.895-8.98    c-8.933-24.789-3.939-52.312,13.412-72.577c13.397-15.659,33.621-23.33,53.197-29.858c32.517-10.841,56.07-31.03,66.632-54.852    C479.299,311.689,480.999,348.646,471.142,381.564z M410.829,24.019c5.114,27.327,27.876,147.141,47.132,220.402    c0.001,0.005,0.002,0.01,0.003,0.016c8.192,32.819-16.299,65.809-59.563,80.23c-21.845,7.279-44.527,15.974-60.757,34.944    c-17.435,20.373-24.747,46.703-20.871,72.309c-11.861-9.458-20.379-22.584-24.275-37.964c-5.854-23.074-0.06-47.701,15.488-65.877    c13.38-15.642,33.613-23.322,53.188-29.85c60.706-20.233,73.54-62.601,65.314-95.497c-5.342-21.367-25.352-142.746-31.906-182.775    L410.829,24.019z M409.933,206.871c7.509,30.027-7.58,55.133-41.577,70.295c-39.157-18.357-50.64-29.412-53.992-34.432    c-14.753-22.133-13.194-67.159,73.853-156.691C396.433,135.099,406.282,192.28,409.933,206.871z M256.068,145.068    c43.485,0,98.62-75.618,123.21-112.983c1.503,9.161,3.382,20.573,5.474,33.171c-83.351,83.218-111.813,146.102-84.587,186.941    c6.508,9.758,21.64,20.665,46.044,33.141c-18.75,6.734-37.334,15.445-51.195,31.647c-10.282,12.019-17.095,26.335-20.086,41.417    h-37.712c-2.989-15.081-9.799-29.394-20.081-41.413c-13.863-16.211-32.456-24.917-51.198-31.655    c24.398-12.472,39.527-23.372,46.034-33.136c27.221-40.841-1.23-103.716-84.57-186.927c2.092-12.598,3.972-24.011,5.476-33.173    C157.468,69.468,212.589,145.068,256.068,145.068z M123.934,86.059c87.031,89.521,88.589,134.543,73.837,156.675    c-3.36,5.027-14.833,16.081-53.978,34.426c-33.997-15.157-49.077-40.269-41.577-70.294    C105.868,192.276,115.717,135.11,123.934,86.059z M101.329,24.022l16.239-4.062c-6.554,40.03-26.564,161.408-31.898,182.767    c-8.226,32.904,4.608,75.273,65.306,95.505c19.575,6.528,39.808,14.208,53.188,29.85c15.556,18.176,21.342,42.803,15.488,65.869    c-3.903,15.392-12.428,28.523-24.293,37.983c3.879-25.611-3.432-51.95-20.869-72.32c-16.23-18.97-38.912-27.665-60.757-34.953    c-43.083-14.358-67.537-47.123-59.657-79.791C73.351,171.655,96.198,51.405,101.329,24.022z M128.323,452.263    c-0.083-0.002-0.163-0.012-0.246-0.012h-0.171c-28.971,0.708-52.787-11.128-69.709-34.765c-0.823-1.15-1.62-2.319-2.396-3.503    c-0.053-0.082-0.108-0.164-0.162-0.247c-0.546-0.837-1.067-1.692-1.59-2.545c-6.105-10.064-10.144-20.361-12.744-28.819    c-0.087-0.28-0.188-0.552-0.3-0.817c-9.853-32.903-8.161-69.857,0.689-95.543c10.564,23.817,34.116,43.998,66.645,54.844    c19.567,6.519,39.8,14.2,53.188,29.85c17.342,20.272,22.344,47.796,13.42,72.584C152.741,451.489,131.502,452.204,128.323,452.263    z M460.3,439.938c-2.355,12.809-9.822,25.523-20.497,34.893c-23.194,20.378-62.191,26.061-97.024,14.157    c-10.564-3.61-20.207-8.875-30.421-14.456c-6.127-3.354-12.476-6.827-19.072-9.924c-1.724-0.811-3.465-1.664-5.214-2.526    c-9.353-4.599-19.942-9.813-31.991-9.813c-12.066,0-22.665,5.214-32.009,9.813c-1.749,0.862-3.49,1.715-5.214,2.526    c-6.596,3.098-12.937,6.571-19.072,9.924c-10.206,5.581-19.857,10.846-30.421,14.456c-34.816,11.93-73.822,6.221-97.024-14.157    c-10.675-9.37-18.142-22.084-20.489-34.884l-0.7-3.823c19.388,22.101,45.875,33.894,76.928,33.212    c1.084,0,26.957-0.12,54.417-10.65c0.011-0.004,0.021-0.01,0.032-0.014c26.975-10.348,46.529-32.408,53.66-60.523    c1.901-7.489,2.797-15.109,2.752-22.681h34.259c-0.047,7.572,0.849,15.19,2.75,22.677c7.134,28.126,26.709,50.193,53.692,60.544    c0.034,0.013,0.068,0.021,0.102,0.033c27.105,10.367,52.624,10.61,54.111,10.613c0.017,0,0.034,0.003,0.051,0.004    c0.777,0.008,1.545,0.017,2.304,0.017c0.202,0,0.402-0.007,0.603-0.008c0.03,0,0.059-0.001,0.088-0.001    c22.113-0.13,41.806-6.477,58.252-18.629c0.07-0.051,0.138-0.105,0.208-0.156c0.635-0.472,1.268-0.948,1.893-1.437    c0.292-0.228,0.578-0.465,0.868-0.696c0.407-0.326,0.816-0.647,1.219-0.98c4.122-3.406,8.012-7.192,11.658-11.35L460.3,439.938z"/>
	</g>
</g>
<g>
</g>
<g>
</g>
<g>
</g>
<g>
</g>
<g>
</g>
<g>
</g>
<g>
</g>
<g>
</g>
<g>
</g>
<g>
</g>
<g>
</g>
<g>
</g>
<g>
</g>
<g>
</g>
<g>
</g>
</svg>
