<?xml version="1.0" encoding="iso-8859-1"?>
<!-- Generator: Adobe Illustrator 19.0.0, SVG Export Plug-In . SVG Version: 6.00 Build 0)  -->
<svg xmlns="http://www.w3.org/2000/svg" xmlns:xlink="http://www.w3.org/1999/xlink" version="1.1" id="Layer_1" x="0px" y="0px" viewBox="0 0 512.147 512.147" style="enable-background:new 0 0 512.147 512.147;" xml:space="preserve">
<g>
	<g>
		<path d="M485.967,278.699c-21.641-59.75-58.991-261.154-59.366-263.185c-0.606-3.285-3.072-5.914-6.323-6.724l-34.133-8.533    c-0.128-0.032-0.258-0.045-0.386-0.071c-0.129-0.026-0.257-0.051-0.388-0.071c-0.235-0.036-0.469-0.059-0.704-0.075    c-0.092-0.007-0.182-0.026-0.274-0.029c-0.056-0.003-0.111,0.005-0.167,0.004c-0.172-0.003-0.343,0.004-0.515,0.012    c-0.237,0.008-0.472,0.018-0.705,0.046c-0.007,0.001-0.015,0.003-0.022,0.004c-2.112,0.256-4.012,1.299-5.381,2.908    c-0.015,0.017-0.032,0.033-0.046,0.051c-0.174,0.208-0.334,0.43-0.49,0.657c-0.057,0.083-0.118,0.164-0.173,0.249    c-0.044,0.069-0.097,0.13-0.139,0.2c-20.685,34.449-82.679,123.861-120.687,123.861c-38.007,0-100.002-89.412-120.678-123.861    c-0.019-0.031-0.041-0.059-0.06-0.09c-0.09-0.146-0.187-0.287-0.286-0.427c-0.095-0.136-0.194-0.268-0.295-0.397    c-0.09-0.113-0.18-0.225-0.276-0.334c-0.146-0.167-0.3-0.324-0.458-0.477c-0.055-0.054-0.102-0.114-0.159-0.166    c-0.015-0.014-0.033-0.025-0.048-0.039c-0.244-0.221-0.499-0.426-0.764-0.616c-0.031-0.022-0.063-0.04-0.094-0.062    c-0.243-0.169-0.493-0.323-0.75-0.464c-0.057-0.032-0.115-0.061-0.173-0.091c-0.251-0.131-0.507-0.249-0.769-0.354    c-0.043-0.017-0.085-0.036-0.128-0.052c-0.63-0.241-1.285-0.407-1.954-0.494c-0.022-0.003-0.045-0.004-0.067-0.007    c-0.302-0.037-0.606-0.056-0.911-0.061c-0.057-0.001-0.114-0.001-0.171-0.001c-0.286,0.002-0.573,0.017-0.859,0.048    c-0.05,0.005-0.1,0.008-0.15,0.014c-0.33,0.041-0.659,0.098-0.985,0.179c-0.006,0.001-0.012,0.002-0.018,0.003L91.879,8.787    c-3.251,0.819-5.717,3.447-6.332,6.733c-0.375,2.022-37.734,203.426-59.366,263.177c-10.705,29.564-12.838,71.484-1.2,109.019    c3.048,17.039,6.173,34.056,9.308,51.08l0.776,4.233c3.029,16.503,12.51,32.768,26.01,44.629    c18.21,15.983,44.262,24.491,71.467,24.491c14.106,0,28.544-2.287,42.342-7.006c11.947-4.079,22.69-9.958,33.084-15.633    c5.905-3.234,12.015-6.571,18.142-9.446c1.826-0.853,3.652-1.758,5.495-2.662c8.431-4.147,16.384-8.064,24.474-8.064    c8.073,0,16.026,3.917,24.457,8.064c1.843,0.905,3.669,1.809,5.495,2.662c6.127,2.876,12.237,6.212,18.142,9.446    c10.394,5.675,21.137,11.554,33.084,15.633c40.422,13.807,86.153,6.793,113.809-17.485c13.491-11.853,22.98-28.126,26.018-44.638    l1.451-7.868c2.895-15.801,5.787-31.595,8.619-47.403C498.806,350.205,496.675,308.271,485.967,278.699z M410.823,24.022    c6.246,33.331,38.733,204.279,59.093,260.48c9.324,25.741,11.271,63.518,1.221,97.076c-0.198,0.471-0.351,0.967-0.464,1.483    c-3.85,12.366-9.334,24.128-16.722,34.45c-16.913,23.629-40.388,35.277-69.862,34.756c-0.239,0-23.936-0.162-48.333-9.515    c-21.734-8.337-37.513-26.121-43.264-48.802c-5.845-23.066-0.06-47.693,15.497-65.869c13.38-15.65,33.613-23.322,53.188-29.85    c60.698-20.232,73.532-62.601,65.306-95.505c-5.342-21.359-25.344-142.737-31.898-182.767L410.823,24.022z M409.935,206.874    c7.501,30.02-7.582,55.132-41.585,70.289c-39.153-18.356-50.635-29.41-53.987-34.43c-14.752-22.133-13.194-67.158,73.849-156.687    C396.428,135.104,406.279,192.284,409.935,206.874z M143.789,277.161c-33.99-15.163-49.077-40.274-41.576-70.291    c3.651-14.594,13.501-71.763,21.718-120.814c87.034,89.523,88.591,134.546,73.84,156.677    C194.41,247.761,182.937,258.815,143.789,277.161z M42.232,284.507C62.584,228.298,95.088,57.35,101.325,24.019l16.239-4.062    C111.019,59.987,91,181.365,85.667,202.732c-8.226,32.896,4.608,75.264,65.306,95.497c19.575,6.528,39.808,14.208,53.197,29.85    c15.548,18.176,21.342,42.803,15.479,65.877c-5.751,22.673-21.521,40.457-43.264,48.794c-24.397,9.361-48.085,9.523-48.478,9.523    c-29.056,0.683-52.796-11.127-69.717-34.765c-7.392-10.329-12.878-22.098-16.727-34.471c-0.111-0.501-0.26-0.984-0.451-1.443    C30.956,348.03,32.906,310.248,42.232,284.507z M439.802,474.831c-23.202,20.378-62.191,26.061-97.024,14.157    c-10.564-3.61-20.207-8.875-30.421-14.456c-6.127-3.354-12.476-6.827-19.072-9.924c-1.724-0.811-3.465-1.664-5.214-2.526    c-9.353-4.599-19.942-9.813-31.991-9.813c-12.066,0-22.665,5.214-32.009,9.813c-1.749,0.862-3.49,1.715-5.214,2.526    c-6.596,3.098-12.937,6.571-19.072,9.924c-10.206,5.581-19.857,10.846-30.421,14.456c-34.816,11.93-73.822,6.221-97.024-14.157    c-10.675-9.37-18.142-22.084-20.489-34.884l-0.714-3.899c19.127,21.859,44.736,33.308,74.654,33.308c0.759,0,1.519,0,2.287-0.017    c1.092,0,26.957-0.128,54.426-10.65c26.982-10.351,46.558-32.41,53.692-60.544c7.211-28.433,0.085-58.769-19.063-81.152    c-13.864-16.213-32.453-24.919-51.202-31.657c24.402-12.473,39.532-23.375,46.04-33.139    c27.222-40.841-1.231-103.717-84.572-186.929c2.092-12.599,3.973-24.012,5.476-33.174    c24.59,37.369,79.713,112.974,123.194,112.974c43.483,0,98.614-75.61,123.206-112.977c1.503,9.161,3.382,20.572,5.473,33.169    c-83.348,83.216-111.808,146.098-84.583,186.937c6.508,9.758,21.638,20.664,46.041,33.139    c-18.745,6.737-37.334,15.443-51.188,31.652c-19.149,22.383-26.283,52.719-19.063,81.161    c7.134,28.126,26.709,50.193,53.692,60.535c27.52,10.547,53.675,10.522,54.263,10.65c0.777,0.017,1.545,0.026,2.304,0.026    c30.06,0,55.675-11.461,74.802-33.323l-0.715,3.902C457.944,452.747,450.477,465.462,439.802,474.831z"/>
	</g>
</g>
<g>
</g>
<g>
</g>
<g>
</g>
<g>
</g>
<g>
</g>
<g>
</g>
<g>
</g>
<g>
</g>
<g>
</g>
<g>
</g>
<g>
</g>
<g>
</g>
<g>
</g>
<g>
</g>
<g>
</g>
</svg>
