<?xml version="1.0" encoding="iso-8859-1"?>
<!-- Generator: Adobe Illustrator 19.0.0, SVG Export Plug-In . SVG Version: 6.00 Build 0)  -->
<svg xmlns="http://www.w3.org/2000/svg" xmlns:xlink="http://www.w3.org/1999/xlink" version="1.1" id="Layer_1" x="0px" y="0px" viewBox="0 0 512.206 512.206" style="enable-background:new 0 0 512.206 512.206;" xml:space="preserve">
<g transform="translate(0 -1)">
	<g>
		<path d="M493.14,308.609c-0.024-0.165-0.05-0.329-0.075-0.493c-0.069-0.436-0.138-0.872-0.21-1.308    c-1.509-9.495-3.791-18.627-6.862-27.107c-5.833-16.109-13.205-43.635-21.7-80.211c-3.052-13.141-6.217-27.317-9.473-42.376    c-6.647-30.747-13.359-63.704-19.796-96.663c-2.253-11.537-4.311-22.249-6.131-31.862c-0.637-3.363-1.198-6.348-1.679-8.921    c-0.486-2.604-0.486-2.604-0.586-3.147c-0.608-3.287-3.079-5.917-6.322-6.727l-33.723-8.431c-0.133-0.038-0.267-0.068-0.402-0.1    l-0.008-0.002c0,0-0.001,0-0.001,0c-0.335-0.08-0.674-0.145-1.016-0.186c-0.13-0.017-0.259-0.022-0.389-0.032    c-0.154-0.012-0.308-0.021-0.462-0.024c-0.203-0.005-0.405-0.006-0.606,0.003c-0.214,0.009-0.428,0.024-0.641,0.048    c-0.113,0.014-0.224,0.031-0.336,0.05c-2.788,0.425-5.375,2.17-6.556,5.292c-0.171,0.432-0.312,0.878-0.411,1.342l-79.075,308.38    c-0.551,0.61-1.099,1.228-1.64,1.86c-10.671,12.472-17.282,26.752-20.165,41.413h-37.548    c-2.883-14.661-9.493-28.941-20.165-41.413c-0.54-0.632-1.088-1.249-1.638-1.858L136.449,7.744    c-0.096-0.451-0.233-0.885-0.398-1.306c-1.176-3.141-3.772-4.894-6.569-5.319c-0.11-0.018-0.22-0.035-0.332-0.049    c-0.217-0.025-0.435-0.04-0.653-0.049c-0.197-0.009-0.395-0.008-0.595-0.002c-0.154,0.004-0.307,0.013-0.46,0.024    c-0.131,0.011-0.26,0.016-0.391,0.033c-0.341,0.041-0.678,0.106-1.012,0.185c-0.001,0-0.003,0-0.004,0.001l-0.032,0.008    c-0.125,0.03-0.251,0.058-0.375,0.094L91.9,9.794c-3.243,0.811-5.714,3.44-6.322,6.727c-0.1,0.542-0.1,0.542-0.586,3.147    c-0.481,2.573-1.042,5.558-1.679,8.921c-1.82,9.612-3.878,20.325-6.131,31.862c-6.437,32.958-13.149,65.915-19.796,96.663    c-3.256,15.06-6.421,29.235-9.473,42.376c-8.495,36.576-15.867,64.102-21.7,80.211c-3.07,8.477-5.351,17.606-6.86,27.098    c-0.06,0.361-0.116,0.722-0.174,1.083c-0.042,0.274-0.085,0.547-0.125,0.821c-4.528,29.15-2.055,58.141,6.554,83.357    c2.265,12.605,4.46,24.616,8.62,47.255c0.433,2.357,0.433,2.357,0.866,4.715c3.078,16.78,12.644,32.896,26.016,44.636    c28.517,25.035,74.226,31.015,113.811,17.483c9.803-3.353,17.363-7.05,32.293-15.206c0.519-0.283,0.519-0.283,1.036-0.566    c8.746-4.78,12.854-6.941,17.893-9.308c1.709-0.803,1.815-0.854,6.368-3.094c11.445-5.629,17.149-7.634,23.592-7.634    c6.443,0,12.146,2.004,23.592,7.634c4.553,2.239,4.659,2.291,6.367,3.093c5.04,2.367,9.147,4.529,17.894,9.308    c0.518,0.283,0.518,0.283,1.036,0.566c14.93,8.157,22.49,11.853,32.292,15.206c39.587,13.533,85.296,7.553,113.812-17.482    c13.372-11.74,22.938-27.857,26.017-44.638c0.433-2.355,0.433-2.355,0.866-4.713c4.153-22.602,6.347-34.61,8.609-47.193    C495.212,366.868,497.689,337.82,493.14,308.609z M352.406,448.916c-5.633-1.378-11.205-3.087-16.617-5.163    c-0.052-0.02-0.102-0.043-0.154-0.063c-1.13-0.436-2.237-0.905-3.332-1.391c-0.38-0.169-0.755-0.343-1.13-0.518    c-0.816-0.379-1.621-0.774-2.417-1.181c-0.352-0.18-0.708-0.354-1.056-0.539c-1.027-0.547-2.035-1.116-3.026-1.708    c-0.389-0.232-0.767-0.477-1.149-0.715c-0.658-0.41-1.309-0.829-1.951-1.259c-0.422-0.283-0.844-0.567-1.258-0.859    c-0.733-0.515-1.452-1.045-2.161-1.585c-0.41-0.312-0.815-0.627-1.217-0.948c-0.729-0.581-1.447-1.174-2.149-1.782    c-0.323-0.279-0.64-0.563-0.957-0.848c-0.708-0.636-1.404-1.283-2.083-1.946c-0.173-0.168-0.35-0.332-0.521-0.502    c-0.915-0.912-1.806-1.845-2.667-2.805c-0.019-0.021-0.037-0.042-0.055-0.063c-7.242-8.097-12.539-17.854-15.5-28.638    c38.268-38.563,75.788-55.022,157.549-77.426c14.9-4.083,21.129-5.79,25.812-7.106c3.283,23.016,1.538,48.43-5.322,71.047    c-0.055,0.153-0.115,0.299-0.164,0.458c-1.696,5.514-3.648,10.751-5.847,15.694c-0.022,0.049-0.044,0.096-0.066,0.145    c-0.481,1.077-0.976,2.136-1.481,3.185c-0.142,0.295-0.286,0.589-0.43,0.882c-0.396,0.807-0.801,1.604-1.211,2.393    c-0.217,0.417-0.435,0.833-0.656,1.245c-0.357,0.668-0.722,1.327-1.09,1.983c-0.064,0.114-0.129,0.226-0.193,0.34    c-15.108,25.352-38.955,42.44-69.47,43.94c-0.081,0.004-0.161,0.007-0.242,0.01c-0.845,0.039-1.695,0.065-2.55,0.08    c-1.118,0.016-2.241,0.024-3.378,0.002c-0.593-0.001-1.479-0.021-2.689-0.077c-0.403-0.019-0.842-0.041-1.318-0.068    c-3.248-0.185-6.901-0.521-10.865-1.044c-0.354-0.047-0.709-0.105-1.063-0.154C363.023,451.196,357.688,450.207,352.406,448.916z     M382.266,51.078c2.477,14.999,4.959,29.908,7.385,44.332l-41.63,190.309c-11.651,4.138-21.135,8.196-29.203,12.797    L382.266,51.078z M397.3,140.308c6.103,35.253,10.486,58.88,12.658,67.568c7.345,29.381-7.037,55.386-42.948,70.9L397.3,140.308z     M308.01,329.088c0.49-0.572,0.988-1.131,1.492-1.683c0.345-0.269,0.682-0.564,1.004-0.9    c10.691-11.154,24.514-18.356,47.574-26.199c0.083-0.028,0.159-0.069,0.24-0.099c0.946-0.322,1.903-0.646,2.881-0.972    c52.105-17.368,75.679-54.04,65.314-95.499c-2.446-9.785-8.236-41.711-16.243-88.742c-0.601-3.53-0.601-3.53-1.2-7.066    c-0.764-4.504-1.537-9.089-2.315-13.713c-0.001-0.004-0.001-0.009-0.002-0.013c-3.306-19.644-6.682-39.985-9.947-59.854    c-0.779-4.738-1.512-9.211-2.194-13.387l16.239,4.06c0.383,2.039,0.807,4.29,1.271,6.741c1.826,9.643,3.89,20.388,6.15,31.958    c6.457,33.062,13.191,66.126,19.865,96.998c3.273,15.14,6.457,29.4,9.53,42.631c8.641,37.204,16.147,65.231,22.277,82.161    c1.121,3.096,2.122,6.3,3.009,9.589c-4.822,1.363-10.729,2.983-26.911,7.417c-78.164,21.418-118.03,37.959-155.755,72.781    c0.048-2.134,0.182-4.279,0.417-6.432c0.009-0.086,0.007-0.171,0.014-0.257C292.294,354.677,297.91,340.893,308.01,329.088z     M128.103,453.273c-1.14,0.022-2.266,0.014-3.388-0.002c-0.873-0.016-1.742-0.041-2.604-0.081    c-0.061-0.003-0.122-0.005-0.183-0.008c-30.835-1.508-54.859-18.86-69.968-44.547c-0.324-0.581-0.648-1.163-0.965-1.754    c-0.207-0.387-0.412-0.778-0.616-1.169c-0.422-0.812-0.838-1.631-1.245-2.461c-0.136-0.276-0.271-0.552-0.405-0.831    c-0.512-1.064-1.015-2.139-1.503-3.233c-0.016-0.035-0.032-0.07-0.047-0.105c-2.202-4.947-4.155-10.189-5.853-15.707    c-0.049-0.159-0.11-0.305-0.164-0.458c-6.873-22.661-8.612-48.131-5.303-71.183c4.817,1.355,11.125,3.085,26.314,7.246    c81.65,22.369,119.178,38.813,157.13,77.008c-3.283,12.244-9.571,23.184-18.297,31.895c-0.042,0.042-0.086,0.082-0.129,0.124    c-0.81,0.805-1.649,1.583-2.5,2.349c-0.266,0.239-0.533,0.476-0.803,0.711c-0.757,0.66-1.531,1.303-2.319,1.931    c-0.195,0.155-0.383,0.317-0.579,0.471c-0.908,0.708-1.843,1.388-2.79,2.054c-0.366,0.257-0.738,0.507-1.109,0.757    c-0.703,0.474-1.416,0.935-2.139,1.385c-0.341,0.212-0.678,0.43-1.023,0.637c-1.021,0.611-2.059,1.201-3.118,1.764    c-0.294,0.157-0.596,0.303-0.893,0.456c-0.859,0.441-1.728,0.868-2.611,1.278c-0.342,0.159-0.684,0.318-1.03,0.472    c-1.162,0.517-2.337,1.017-3.539,1.478c-0.001,0.001-0.003,0.001-0.004,0.002c-5.413,2.076-10.985,3.786-16.619,5.164    c-1.408,0.344-2.821,0.668-4.235,0.971c-4.244,0.91-8.509,1.638-12.756,2.199c-3.964,0.523-7.617,0.858-10.865,1.044    C130.041,453.238,128.729,453.273,128.103,453.273z M114.907,140.305l30.291,138.471c-35.912-15.513-50.294-41.519-42.949-70.901    C104.42,199.188,108.804,175.56,114.907,140.305z M164.186,285.72L122.556,95.408c2.426-14.424,4.908-29.334,7.385-44.332    l63.449,247.441C185.322,293.916,175.837,289.858,164.186,285.72z M64.537,203.351c3.073-13.231,6.257-27.49,9.53-42.631    c6.674-30.872,13.408-63.936,19.865-96.998c2.26-11.57,4.324-22.315,6.15-31.958c0.464-2.451,0.888-4.702,1.271-6.741l16.24-4.06    c-0.683,4.176-1.416,8.649-2.194,13.387c-2.841,17.286-5.765,34.929-8.654,52.161c-0.037,0.22-0.074,0.439-0.11,0.658    c-0.366,2.181-0.731,4.354-1.095,6.52c-0.808,4.804-1.612,9.564-2.404,14.241c-0.6,3.536-0.6,3.536-1.2,7.066    c-8.007,47.03-13.796,78.957-16.243,88.742c-10.365,41.459,13.21,78.13,65.313,95.498c0.98,0.327,1.939,0.651,2.887,0.974    c0.08,0.03,0.155,0.07,0.236,0.098c23.06,7.843,36.883,15.045,47.574,26.199c0.321,0.335,0.657,0.629,1.001,0.897    c0.504,0.553,1.003,1.112,1.494,1.685c10.1,11.805,15.716,25.589,17.29,39.523c0.007,0.086,0.005,0.17,0.014,0.256    c0.218,1.99,0.352,3.974,0.41,5.949c-37.57-34.495-77.428-50.98-155.228-72.295c-16.443-4.505-22.428-6.146-27.397-7.552    c0.878-3.243,1.869-6.402,2.975-9.457C48.39,268.582,55.896,240.555,64.537,203.351z M460.327,440.945    c-2.363,12.882-9.921,25.615-20.49,34.895c-23.568,20.691-62.879,25.834-97.031,14.159c-8.598-2.941-15.529-6.33-29.631-14.034    c-0.517-0.282-0.517-0.282-1.035-0.565c-9.047-4.944-13.368-7.217-18.822-9.779c-1.57-0.737-1.673-0.788-6.091-2.961    c-13.726-6.751-21.224-9.386-31.124-9.386s-17.398,2.635-31.124,9.386c-4.418,2.173-4.521,2.223-6.091,2.961    c-5.453,2.561-9.775,4.835-18.821,9.779c-0.518,0.283-0.518,0.283-1.035,0.565c-14.102,7.705-21.034,11.094-29.633,14.035    c-34.15,11.674-73.461,6.532-97.029-14.159c-10.569-9.279-18.127-22.012-20.49-34.892c-0.368-2.004-0.424-2.306-0.697-3.796    c0.666,0.76,1.343,1.505,2.026,2.241c0.122,0.132,0.247,0.26,0.37,0.391c0.697,0.743,1.404,1.474,2.12,2.193    c0.194,0.195,0.386,0.39,0.581,0.583c0.814,0.805,1.638,1.598,2.475,2.371c0.153,0.142,0.31,0.278,0.464,0.419    c0.699,0.637,1.406,1.263,2.121,1.878c0.26,0.224,0.52,0.448,0.783,0.669c0.835,0.703,1.677,1.397,2.533,2.07    c0.191,0.15,0.386,0.293,0.577,0.441c0.698,0.54,1.403,1.07,2.115,1.59c0.326,0.238,0.653,0.475,0.982,0.709    c0.729,0.519,1.466,1.027,2.209,1.525c0.341,0.228,0.684,0.453,1.027,0.677c0.715,0.465,1.436,0.92,2.163,1.365    c0.38,0.233,0.762,0.462,1.146,0.689c0.661,0.392,1.328,0.774,2,1.149c0.413,0.231,0.827,0.463,1.244,0.688    c0.781,0.421,1.569,0.831,2.364,1.231c0.418,0.21,0.84,0.416,1.262,0.62c0.642,0.311,1.288,0.612,1.939,0.909    c0.375,0.171,0.746,0.347,1.124,0.513c0.924,0.406,1.859,0.795,2.799,1.173c0.43,0.173,0.864,0.339,1.298,0.506    c0.667,0.257,1.339,0.505,2.015,0.747c0.403,0.144,0.804,0.293,1.21,0.432c0.977,0.335,1.963,0.654,2.957,0.959    c0.417,0.128,0.838,0.249,1.258,0.371c0.726,0.212,1.457,0.416,2.192,0.613c0.405,0.108,0.809,0.219,1.216,0.322    c1.044,0.264,2.096,0.513,3.157,0.745c0.371,0.081,0.747,0.154,1.12,0.231c0.82,0.169,1.644,0.329,2.473,0.479    c0.389,0.07,0.778,0.142,1.169,0.208c1.12,0.189,2.248,0.363,3.386,0.517c0.294,0.04,0.592,0.072,0.887,0.109    c0.941,0.119,1.888,0.226,2.841,0.32c0.368,0.036,0.735,0.073,1.105,0.106c1.201,0.107,2.408,0.2,3.627,0.268    c0.175,0.01,0.353,0.014,0.528,0.023c1.099,0.056,2.206,0.095,3.319,0.119c0.296,0.007,0.591,0.015,0.888,0.019    c0.114,0.002,0.229,0.002,0.343,0.003c1.129,0.013,2.264,0.014,3.409-0.006c0.061-0.001,0.121,0.001,0.182,0    c0.043,0,0.097-0.002,0.141-0.002c0.786-0.001,1.715-0.02,2.772-0.062c0.092-0.004,0.186-0.008,0.28-0.012    c0.492-0.021,1.01-0.047,1.554-0.078c1.627-0.093,3.48-0.232,5.535-0.429c1.211-0.116,2.491-0.252,3.834-0.41    c0.006-0.001,0.012-0.001,0.017-0.002c0.881-0.104,1.789-0.217,2.722-0.34c12.565-1.658,25.3-4.644,37.487-9.318    c1.025-0.393,2.033-0.806,3.033-1.231c0.253-0.108,0.503-0.221,0.755-0.331c0.78-0.34,1.552-0.688,2.316-1.047    c0.224-0.105,0.447-0.212,0.67-0.319c0.876-0.42,1.741-0.853,2.596-1.298c0.076-0.04,0.154-0.079,0.23-0.119    c11.274-5.913,20.67-13.94,28.019-23.339c0.023-0.029,0.046-0.059,0.068-0.088c0.595-0.762,1.176-1.534,1.743-2.313    c0.106-0.146,0.214-0.29,0.319-0.436c0.497-0.691,0.982-1.39,1.458-2.094c0.143-0.211,0.289-0.421,0.43-0.633    c0.471-0.711,0.931-1.427,1.38-2.15c0.372-0.597,0.731-1.202,1.089-1.808c0.097-0.166,0.197-0.33,0.293-0.496    c5.972-10.264,9.862-21.733,11.366-33.752c0.016-0.123,0.031-0.247,0.046-0.37c0.085-0.701,0.164-1.404,0.233-2.109    c0.044-0.448,0.08-0.896,0.118-1.345c0.038-0.466,0.083-0.93,0.114-1.398c0.071-1.04,0.122-2.082,0.158-3.126    c0.001-0.02,0.001-0.04,0.001-0.06c0.037-1.116,0.05-2.234,0.046-3.353h34.185c-0.004,1.117,0.009,2.233,0.046,3.348    c0.001,0.023,0.001,0.045,0.002,0.068c0.036,1.042,0.086,2.082,0.157,3.12c0.031,0.473,0.077,0.942,0.115,1.414    c0.037,0.443,0.073,0.887,0.117,1.33c0.069,0.708,0.148,1.412,0.234,2.117c0.015,0.12,0.03,0.24,0.045,0.359    c1.504,12.024,5.397,23.498,11.373,33.766c0.09,0.156,0.183,0.31,0.274,0.465c0.364,0.617,0.729,1.232,1.108,1.84    c0.393,0.633,0.799,1.259,1.209,1.883c0.203,0.308,0.409,0.615,0.616,0.921c0.467,0.692,0.944,1.378,1.432,2.057    c0.11,0.152,0.222,0.303,0.333,0.455c0.561,0.771,1.136,1.533,1.723,2.287c0.029,0.038,0.058,0.075,0.088,0.113    c7.348,9.393,16.741,17.417,28.01,23.328c0.078,0.041,0.158,0.081,0.237,0.122c0.852,0.443,1.714,0.874,2.587,1.293    c0.226,0.109,0.452,0.216,0.679,0.323c0.439,0.206,0.878,0.411,1.322,0.611c0.334,0.151,0.672,0.296,1.01,0.443    c0.24,0.105,0.478,0.213,0.72,0.316c1.005,0.428,2.018,0.844,3.045,1.237c5.142,1.971,10.385,3.626,15.667,5.024    c2.184,0.578,4.373,1.114,6.568,1.6c1.935,0.429,3.871,0.835,5.809,1.195c2.166,0.403,4.332,0.749,6.495,1.07    c0.983,0.146,1.967,0.298,2.949,0.428c0.286,0.038,0.553,0.068,0.835,0.104c0.643,0.082,1.29,0.165,1.907,0.238    c0.438,0.052,0.849,0.094,1.274,0.141c0.436,0.048,0.886,0.101,1.308,0.144c0.462,0.048,0.894,0.086,1.337,0.128    c0.355,0.034,0.724,0.072,1.067,0.102c0.472,0.042,0.912,0.075,1.362,0.111c0.286,0.023,0.587,0.05,0.863,0.07    c0.406,0.03,0.78,0.052,1.165,0.077c0.292,0.019,0.599,0.041,0.879,0.058c0.348,0.02,0.662,0.034,0.991,0.05    c0.283,0.014,0.581,0.031,0.849,0.042c0.3,0.012,0.568,0.019,0.849,0.028c0.263,0.008,0.541,0.019,0.788,0.025    c0.249,0.006,0.464,0.006,0.696,0.009c0.228,0.003,0.475,0.008,0.686,0.009c1.176,0.022,2.342,0.021,3.503,0.008    c0.182-0.002,0.366-0.001,0.548-0.004c0.396-0.006,0.789-0.019,1.183-0.029c0.686-0.018,1.368-0.044,2.048-0.073    c0.143-0.007,0.289-0.009,0.432-0.016c1.033-0.048,2.057-0.115,3.077-0.191c0.357-0.027,0.715-0.049,1.07-0.079    c0.824-0.069,1.643-0.151,2.459-0.238c0.197-0.021,0.394-0.044,0.591-0.067c16.716-1.885,31.585-7.571,44.364-16.526    c0.038-0.026,0.076-0.052,0.114-0.078c0.656-0.461,1.307-0.932,1.952-1.41c0.169-0.125,0.337-0.254,0.505-0.38    c1.063-0.799,2.11-1.621,3.142-2.467c0.255-0.209,0.513-0.415,0.766-0.627c0.496-0.415,0.988-0.837,1.477-1.263    c0.373-0.324,0.742-0.654,1.111-0.985c0.556-0.499,1.11-1.003,1.656-1.516c0.578-0.542,1.151-1.089,1.717-1.646    c0.352-0.347,0.701-0.7,1.049-1.053c0.508-0.514,1.011-1.036,1.51-1.563c0.276-0.292,0.556-0.58,0.829-0.877    c0.641-0.693,1.275-1.395,1.901-2.109C460.75,438.641,460.695,438.943,460.327,440.945z"/>
	</g>
</g>
<g>
</g>
<g>
</g>
<g>
</g>
<g>
</g>
<g>
</g>
<g>
</g>
<g>
</g>
<g>
</g>
<g>
</g>
<g>
</g>
<g>
</g>
<g>
</g>
<g>
</g>
<g>
</g>
<g>
</g>
</svg>
