<?xml version="1.0" encoding="iso-8859-1"?>
<!-- Generator: Adobe Illustrator 19.0.0, SVG Export Plug-In . SVG Version: 6.00 Build 0)  -->
<svg xmlns="http://www.w3.org/2000/svg" xmlns:xlink="http://www.w3.org/1999/xlink" version="1.1" id="Layer_1" x="0px" y="0px" viewBox="0 0 512.049 512.049" style="enable-background:new 0 0 512.049 512.049;" xml:space="preserve">
<g transform="translate(-1)">
	<g>
		<path d="M512.74,168.414l-8.387-50.324c-0.876-5.258-6.305-8.434-11.318-6.622c-37.849,13.682-188.241,33.625-236.032,33.625    S58.818,125.15,20.97,111.468c-5.013-1.812-10.442,1.364-11.318,6.622l-8.533,51.2c-0.14,0.839-0.141,1.663-0.042,2.46    c0.579,23.058,19.441,41.578,42.639,41.578c9.997,0,19.363-3.425,26.711-9.228c6.302,15.457,21.293,26.295,39.025,26.295    c9.346,0,18.107-3.074,25.229-8.35c5.639,13.125,18.678,22.321,33.865,22.321c1.174,0,2.337-0.061,3.489-0.171    c-0.103,1.127-0.161,2.263-0.161,3.407c0,13.707,7.322,25.703,18.266,32.294c-6.154,6.784-9.888,15.802-9.888,25.595    c0,11.744,5.372,22.23,13.792,29.139c-8.419,6.908-13.792,17.392-13.792,29.131c0,18.712,13.76,34.339,32.058,37.085    c0.646,0.156,1.321,0.247,2.027,0.247h85.333c0.604,0,1.181-0.077,1.742-0.192c18.486-2.585,32.437-18.299,32.437-37.14    c0-11.739-5.372-22.223-13.792-29.132c8.419-6.908,13.792-17.392,13.792-29.132c0-9.797-3.734-18.818-9.889-25.602    c10.943-6.592,18.266-18.588,18.266-32.294c0-1.144-0.058-2.279-0.161-3.407c1.152,0.109,2.316,0.171,3.489,0.171    c15.187,0,28.228-9.196,33.867-22.321c7.122,5.277,15.883,8.35,25.227,8.35c17.732,0,32.724-10.839,39.025-26.296    c7.349,5.805,16.714,9.229,26.711,9.229c23.563,0,42.667-19.104,42.667-42.667C513.049,169.883,512.936,169.132,512.74,168.414z     M43.716,196.262c-11.102,0-20.553-7.07-24.1-16.952c5.425,0.084,10.737,0.23,15.92,0.449c0.166,0.007,0.332,0.014,0.498,0.021    c1.809,0.078,3.583,0.175,5.363,0.27c8.726,0.482,17.162,1.159,25.306,2.042C62.842,190.47,53.869,196.262,43.716,196.262z     M109.451,213.329c-14.015,0-25.148-11.34-25.148-25.6c0-1.206,0.041-2.31,0.128-3.335c18.319,2.798,34.664,6.696,49.127,11.618    C130.035,206.262,120.384,213.329,109.451,213.329z M148.765,207.51c0-1.832,0.253-3.618,0.745-5.329    c12.763,5.582,23.674,12.065,32.863,19.36c-3.664,3.674-8.559,5.758-13.828,5.758C157.624,227.299,148.765,218.438,148.765,207.51    z M194.852,233.193c0.024-0.024,0.048-0.048,0.072-0.073c0.133,0.143,0.262,0.289,0.394,0.433    c9.376,10.191,16.069,21.43,20.494,33.594c-1.088,0.251-2.023,0.493-3.097,0.798c-0.543,0.074-1.083,0.157-1.618,0.254    c-0.313,0.007-0.713,0.011-1.237,0.011c-0.185,0-0.185,0-0.32,0c-11.373,0-20.599-9.228-20.599-20.608    C188.94,242.163,191.111,236.983,194.852,233.193z M197.317,305.491c0-9.837,6.821-18.242,15.996-20.321    c1.133-0.094,2.124-0.27,3.258-0.582c1.443-0.363,1.695-0.427,3.833-0.909c0.263,1.308,0.499,2.608,0.713,3.911    c1.258,8.602,1.751,17.883,1.751,28.17c0,3.281-0.165,6.714-0.469,10.267c-1.424,0.049-2.826,0.068-4.483,0.068    c-0.015,0-0.03,0.001-0.045,0.001C206.514,326.072,197.317,316.859,197.317,305.491z M197.317,363.762    c0-11.361,9.198-20.573,20.554-20.597c0.015,0,0.03,0.001,0.045,0.001c0.724,0,1.407-0.004,2.071-0.012    c-0.137,0.724-0.27,1.445-0.416,2.172c-0.071,0.355-0.143,0.71-0.217,1.066c-0.276,1.338-0.563,2.682-0.868,4.032    c-0.042,0.188-0.087,0.377-0.13,0.565c-1.069,4.678-2.302,9.421-3.684,14.195c-1.765,6.096-3.654,11.838-5.544,17.071    C202.099,378.968,197.317,371.895,197.317,363.762z M226.63,384.027c1.529-4.451,3.038-9.191,4.471-14.151    c3.389-11.729,5.986-23.404,7.475-34.639c0.001-0.005,0.002-0.009,0.003-0.014c0.919-6.946,1.405-13.392,1.405-19.492    c0-11.266-0.4-20.187-1.714-28.98c-3.101-23.395-11.085-42.757-28.379-62.539c-30.848-35.287-85.141-56.834-167.838-61.209    c-7.291-0.399-14.762-0.671-22.453-0.791l5.276-31.656C75.49,144.637,210.79,162.16,257.002,162.16s181.512-17.523,232.126-31.604    l5.276,31.658c-6.519,0.103-12.883,0.314-19.113,0.617c-84.584,3.965-139.916,25.62-171.179,61.381    c-19.751,22.592-27.356,44.64-29.415,72.771c-0.032,0.434-0.064,0.869-0.094,1.308c-0.033,0.497-0.064,0.998-0.094,1.5    c-0.023,0.398-0.046,0.797-0.067,1.199c-0.256,4.741-0.375,9.651-0.375,14.771c0,4.276,0.227,8.711,0.665,13.291    c1.249,13.057,4.152,26.884,8.205,40.881c1.43,4.939,2.936,9.661,4.462,14.095H226.63z M316.781,363.762    c0,8.145-4.794,15.227-11.839,18.509c-1.891-5.248-3.782-11.016-5.549-17.132c-2.144-7.421-3.944-14.797-5.308-21.985    c0.671,0.008,1.363,0.012,2.096,0.012c0.011,0,0.022-0.001,0.034-0.001C307.577,343.183,316.781,352.397,316.781,363.762z     M296.181,326.096c-1.661,0-3.067-0.02-4.518-0.072c-0.319-3.61-0.483-7.032-0.483-10.294c0-4.736,0.075-8.992,0.265-12.968    c0.085-1.662,0.185-3.303,0.309-4.914c0.004-0.05,0.008-0.1,0.012-0.15c0.044-0.565,0.095-1.122,0.144-1.681    c0.39-4.236,0.961-8.255,1.783-12.339c2.143,0.483,2.391,0.547,3.843,0.912c1.14,0.311,2.133,0.487,3.252,0.581    c9.173,2.081,15.992,10.486,15.992,20.328c0,11.364-9.204,20.579-20.566,20.598C296.204,326.097,296.193,326.096,296.181,326.096z     M304.558,268.21c-0.135,0-0.135,0-0.266,0c-0.55,0-0.967-0.004-1.292-0.012c-0.537-0.097-1.079-0.181-1.624-0.255    c-1.066-0.303-1.998-0.544-3.09-0.796c4.488-12.336,11.301-23.723,20.887-34.028c0.029,0.03,0.059,0.059,0.088,0.089    c3.727,3.783,5.896,8.958,5.896,14.394C325.158,258.982,315.932,268.21,304.558,268.21z M345.553,227.299    c-5.271,0-10.168-2.086-13.828-5.758c9.189-7.296,20.1-13.778,32.862-19.36c0.494,1.722,0.746,3.505,0.746,5.338    C365.333,218.439,356.473,227.299,345.553,227.299z M404.647,213.329c-10.928,0-20.576-7.061-24.106-17.317    c14.463-4.922,30.808-8.819,49.126-11.618c0.086,1.027,0.128,2.129,0.128,3.335C429.794,201.989,418.662,213.329,404.647,213.329z     M470.382,196.262c-10.151,0-19.121-5.788-22.984-14.17c8.506-0.922,17.33-1.621,26.472-2.105c1.18-0.06,2.35-0.125,3.542-0.178    c0.52-0.024,1.045-0.045,1.567-0.067c5.052-0.209,10.222-0.352,15.504-0.433C490.937,189.191,481.485,196.262,470.382,196.262z"/>
	</g>
</g>
<g>
</g>
<g>
</g>
<g>
</g>
<g>
</g>
<g>
</g>
<g>
</g>
<g>
</g>
<g>
</g>
<g>
</g>
<g>
</g>
<g>
</g>
<g>
</g>
<g>
</g>
<g>
</g>
<g>
</g>
</svg>
