<?xml version="1.0" encoding="iso-8859-1"?>
<!-- Generator: Adobe Illustrator 19.0.0, SVG Export Plug-In . SVG Version: 6.00 Build 0)  -->
<svg xmlns="http://www.w3.org/2000/svg" xmlns:xlink="http://www.w3.org/1999/xlink" version="1.1" id="Layer_1" x="0px" y="0px" viewBox="0 0 512 512" style="enable-background:new 0 0 512 512;" xml:space="preserve">
<g transform="translate(0 -1)">
	<g>
		<g>
			<path d="M151.119,199.517c6.955,7.722,11.632,14.969,14.221,22.549c7.212,21.101,7.475,46.081-2.666,74.755l-8.584,25.747     c-1.648,4.943,1.481,10.196,6.612,11.102c65.4,11.548,125.301,11.548,190.701,0c5.131-0.906,8.259-6.159,6.612-11.102     l-8.533-25.6c-10.191-28.821-9.928-53.801-2.717-74.9c2.647-7.749,7.473-15.15,14.686-23.064     c27.172-23.985,28.152-62.861,13.583-106.822c-0.015-0.044-0.038-0.083-0.054-0.127c-0.033-0.095-0.058-0.191-0.095-0.286     C362.191,59.186,358.4,40.134,358.4,9.533c0-4.713-3.82-8.533-8.533-8.533s-8.533,3.82-8.533,8.533     c0,29.051,3.309,48.967,13.413,77.131c-43.711,2.333-78.109,17.641-98.747,50.016c-20.638-32.375-55.036-47.682-98.747-50.016     c10.105-28.164,13.413-48.08,13.413-77.131c0-4.713-3.82-8.533-8.533-8.533s-8.533,3.82-8.533,8.533     c0,30.601-3.791,49.653-16.484,82.236c-0.037,0.095-0.062,0.19-0.095,0.285c-0.015,0.044-0.039,0.083-0.054,0.128     C122.295,136.454,123.38,175.575,151.119,199.517z M173.434,318.506l5.356-16.068c11.429-32.361,11.118-61.258,2.7-85.889     c-0.488-1.428-1.025-2.838-1.612-4.232c3.027,0.657,6.015,1.139,8.959,1.451c0.073,0.008,0.146,0.016,0.219,0.023     c1.877,0.194,3.736,0.321,5.575,0.378c0.198,0.006,0.395,0.01,0.592,0.014c0.695,0.016,1.387,0.023,2.076,0.019     c0.231-0.001,0.463,0,0.694-0.003c0.817-0.012,1.631-0.035,2.44-0.073c0.289-0.014,0.575-0.036,0.863-0.053     c0.527-0.032,1.053-0.067,1.576-0.111c0.387-0.032,0.773-0.067,1.158-0.105c0.419-0.042,0.835-0.09,1.251-0.139     c0.8-0.094,1.594-0.203,2.384-0.324c0.267-0.041,0.536-0.078,0.803-0.122c0.517-0.086,1.031-0.182,1.543-0.279     c0.221-0.042,0.442-0.085,0.663-0.129c19.24-3.856,35.222-15.94,45.356-34.594c11.366,20.922,30.081,33.59,52.508,35.638     c0.078,0.007,0.156,0.014,0.234,0.021c1.764,0.155,3.55,0.247,5.359,0.27c0.215,0.003,0.43,0.002,0.646,0.003     c0.645,0.002,1.292-0.003,1.943-0.018c0.287-0.006,0.573-0.011,0.861-0.021c0.75-0.025,1.503-0.061,2.26-0.109     c0.403-0.025,0.809-0.06,1.214-0.092c0.486-0.038,0.973-0.078,1.461-0.126c0.466-0.045,0.932-0.096,1.4-0.15     c0.355-0.041,0.711-0.087,1.068-0.133c1.848-0.237,3.713-0.542,5.593-0.913c0.156-0.031,0.311-0.061,0.467-0.093     c0.396-0.081,0.79-0.15,1.188-0.236c-0.588,1.396-1.126,2.807-1.615,4.237c-8.424,24.649-8.729,53.571,2.727,85.962l5.33,15.994     C282.258,327.517,229.846,327.517,173.434,318.506z M360.705,103.487c10.621,35.518,8.871,65.406-10.801,82.917     c-0.001,0.001-0.003,0.002-0.004,0.003c-0.119,0.106-0.234,0.203-0.352,0.306c-1.25,1.091-2.565,2.138-3.958,3.13     c-7.095,3.253-13.96,5.383-20.508,6.466c-0.078,0.013-0.157,0.03-0.235,0.042c-0.861,0.139-1.711,0.246-2.56,0.349     c-0.272,0.033-0.548,0.076-0.819,0.105c-0.695,0.075-1.381,0.123-2.068,0.174c-0.418,0.031-0.839,0.071-1.254,0.092     c-0.562,0.03-1.115,0.037-1.671,0.05c-0.532,0.012-1.066,0.031-1.593,0.029c-0.45-0.002-0.893-0.021-1.338-0.034     c-0.624-0.018-1.248-0.034-1.864-0.073c-0.353-0.022-0.701-0.058-1.051-0.086c-0.699-0.058-1.398-0.119-2.086-0.204     c-0.268-0.033-0.532-0.076-0.799-0.113c-0.763-0.107-1.524-0.222-2.273-0.362c-0.191-0.036-0.38-0.078-0.57-0.115     c-0.817-0.163-1.628-0.338-2.428-0.54c-0.124-0.031-0.247-0.067-0.371-0.099c-0.862-0.225-1.715-0.468-2.556-0.739     c-0.062-0.02-0.122-0.041-0.184-0.061c-0.9-0.294-1.789-0.611-2.664-0.956c-0.006-0.002-0.012-0.005-0.018-0.007     c-14.846-5.873-26.038-19.184-31.585-38.455C282.125,120.407,315.343,104.774,360.705,103.487z M151.295,103.487     c45.4,1.288,78.636,16.944,95.654,51.903c-5.013,17.358-14.617,29.861-27.342,36.446c-0.014,0.007-0.028,0.014-0.041,0.021     c-0.815,0.421-1.645,0.816-2.485,1.188c-0.067,0.03-0.135,0.058-0.202,0.087c-0.792,0.346-1.596,0.67-2.409,0.973     c-0.123,0.046-0.248,0.089-0.372,0.134c-0.765,0.277-1.539,0.536-2.323,0.774c-0.183,0.055-0.367,0.106-0.551,0.159     c-0.734,0.213-1.474,0.413-2.223,0.592c-0.247,0.059-0.497,0.111-0.746,0.166c-0.695,0.155-1.395,0.3-2.103,0.426     c-0.319,0.056-0.642,0.103-0.963,0.153c-0.65,0.102-1.303,0.199-1.963,0.277c-0.397,0.046-0.799,0.08-1.2,0.117     c-0.596,0.056-1.193,0.111-1.796,0.148c-0.488,0.029-0.982,0.042-1.475,0.057c-0.529,0.017-1.056,0.038-1.59,0.04     c-0.594,0.002-1.195-0.016-1.795-0.033c-0.445-0.012-0.888-0.018-1.336-0.04c-0.72-0.037-1.449-0.097-2.178-0.16     c-0.339-0.029-0.676-0.05-1.017-0.085c-0.877-0.091-1.762-0.209-2.652-0.339c-0.202-0.029-0.402-0.051-0.605-0.083     c-1.085-0.169-2.179-0.365-3.281-0.593c-0.011-0.002-0.021-0.004-0.032-0.006c-5.725-1.184-11.677-3.159-17.8-5.966     c-1.391-0.996-2.775-2.117-4.262-3.438c-0.255-0.227-0.513-0.434-0.774-0.625C142.396,168.192,140.797,138.593,151.295,103.487z"/>
			<path d="M375.267,365.875c-1.065-4.286-5.224-7.051-9.589-6.375c-72.532,11.244-146.76,11.246-219.251,0     c-4.355-0.676-8.509,2.077-9.584,6.351l-8.585,34.133c-1.072,4.262,1.269,8.642,5.409,10.119c0.787,0.281,2.389,0.9,4.687,1.867     c3.901,1.641,8.266,3.649,12.977,6.034c13.487,6.825,26.977,15.263,39.533,25.366c22.436,18.053,39.343,39.377,48.613,64.093     c1.249,3.33,4.433,5.537,7.99,5.537h17.067c3.557,0,6.741-2.207,7.99-5.537c9.268-24.718,26.177-46.043,48.616-64.098     c12.555-10.102,26.045-18.539,39.531-25.362c4.711-2.384,9.076-4.392,12.977-6.033c2.298-0.967,3.899-1.585,4.686-1.866     c4.131-1.473,6.473-5.839,5.415-10.095L375.267,365.875z M352.966,402.775c-14.488,7.33-28.971,16.389-42.524,27.293     c-23.008,18.512-40.91,40.386-51.689,65.865h-5.504c-10.781-25.476-28.681-47.349-51.685-65.859     c-13.554-10.907-28.038-19.966-42.527-27.298c-4.433-2.243-8.597-4.185-12.415-5.833l4.885-19.425     c69.202,9.978,139.831,9.977,209.068,0.002l4.824,19.414C361.576,398.584,357.406,400.528,352.966,402.775z"/>
		</g>
	</g>
</g>
<g>
</g>
<g>
</g>
<g>
</g>
<g>
</g>
<g>
</g>
<g>
</g>
<g>
</g>
<g>
</g>
<g>
</g>
<g>
</g>
<g>
</g>
<g>
</g>
<g>
</g>
<g>
</g>
<g>
</g>
</svg>
