<?xml version="1.0" encoding="iso-8859-1"?>
<!-- Generator: Adobe Illustrator 19.0.0, SVG Export Plug-In . SVG Version: 6.00 Build 0)  -->
<svg xmlns="http://www.w3.org/2000/svg" xmlns:xlink="http://www.w3.org/1999/xlink" version="1.1" id="Layer_1" x="0px" y="0px" viewBox="0 0 511.983 511.983" style="enable-background:new 0 0 511.983 511.983;" xml:space="preserve">
<g>
	<g>
		<path d="M502.455,238.117c-0.001-0.008-0.002-0.016-0.003-0.024c-2.457-20.689-5.179-39.169-7.903-55.348    c-0.025-0.168-0.049-0.335-0.084-0.502c-1.392-8.242-2.783-15.901-4.139-22.916c-0.01-0.054-0.028-0.105-0.039-0.159    c-6.813-35.305-12.572-54.227-12.81-55.02c-1.34-4.343-5.871-6.852-10.231-5.777c-33.143,8.294-169.259,25.353-211.26,25.353    c-42.001,0-178.116-17.058-211.26-25.353c-4.343-1.067-8.883,1.434-10.232,5.777c-0.239,0.794-6.016,19.772-12.843,55.177    c-0.01,0.051-0.013,0.101-0.022,0.152c-1.344,6.959-2.722,14.547-4.101,22.711c-0.053,0.244-0.093,0.489-0.124,0.735    c-2.709,16.104-5.414,34.481-7.858,55.043c-0.009,0.073-0.019,0.145-0.025,0.218C4.115,283.734,0,339.892,0,405.326h0.009    c0.009,1.57,0.427,3.149,1.297,4.531c2.005,3.217,5.905,4.719,9.583,3.661c0.896-0.247,1.715-0.648,2.449-1.143    c12.578-4.318,141.696-33.05,222.285,0.811c2.654,1.109,5.649,0.819,8.03-0.751c2.381-1.587,3.814-4.258,3.814-7.117    l-0.017-51.465c2.988,0.179,5.76,0.269,8.533,0.269c0.002,0,0.004,0,0.006,0c0,0,0.001,0,0.001,0c2.776,0,5.552-0.09,8.543-0.269    l-0.017,51.465c0,2.859,1.434,5.53,3.806,7.117c2.389,1.57,5.385,1.86,8.03,0.751c80.589-33.86,209.698-5.129,222.285-0.811    c0.734,0.495,1.562,0.896,2.449,1.143c0.785,0.23,1.579,0.341,2.364,0.341c2.884,0,5.641-1.468,7.219-4.002    c0.87-1.382,1.297-2.961,1.306-4.531h0.009C511.983,339.86,507.864,283.678,502.455,238.117z M48.693,116.744    c44.177,9.054,166.246,24.047,207.292,24.047c41.037,0,163.115-14.993,207.283-24.047c1.956,7.338,5.065,19.901,8.585,37.153    c-59.028,8.962-176.447,21.029-215.861,21.029c-39.424,0-156.842-12.068-215.875-21.03    C43.636,136.645,46.745,124.081,48.693,116.744z M24.835,254.664C62.151,284.72,88.288,329.84,98.08,381.368    c-34.091,2.494-63.874,7.883-80.971,12.489C17.507,340.711,20.626,294.068,24.835,254.664z M115.262,380.385    c-10.896-60.211-42.647-112.645-88.161-145.456c1.656-13.459,3.419-25.933,5.213-37.387    c61.916,37.714,105.054,104.67,117.525,182.665C138.196,379.826,126.579,379.924,115.262,380.385z M281.598,351.226    c15.455-3.08,32.231-8.408,46.25-14.973c4.267-2.005,6.11-7.083,4.105-11.349c-1.997-4.267-7.074-6.11-11.341-4.113    c-19.527,9.151-45.7,15.858-63.061,16.246c-1.044,0.013-2.085,0.013-3.129,0c-17.362-0.39-43.53-7.096-63.055-16.246    c-4.275-1.997-9.353-0.154-11.341,4.113c-2.005,4.267-0.162,9.344,4.104,11.349c14.021,6.566,30.8,11.895,46.256,14.974    l0.015,41.777c-19.366-6.478-41.048-10.145-63.137-11.846c-12.828-86.928-61.643-161.528-131.96-201.685    c0.528-3.021,1.055-5.963,1.578-8.805c60.322,9.224,178.082,21.325,219.11,21.325c41.02,0,158.78-12.1,219.11-21.325    c0.523,2.841,1.049,5.782,1.576,8.803c-70.318,40.156-119.134,114.757-131.962,201.686c-22.086,1.703-43.766,5.37-63.133,11.847    L281.598,351.226z M362.139,380.206c12.471-77.995,55.61-144.95,117.526-182.664c1.793,11.454,3.556,23.929,5.212,37.388    c-45.513,32.818-77.264,85.243-88.153,145.452C385.406,379.922,373.786,379.823,362.139,380.206z M413.906,381.365    c9.787-51.521,35.922-96.645,73.238-126.702c4.211,39.405,7.332,86.048,7.729,139.194    C477.773,389.247,447.994,383.858,413.906,381.365z"/>
	</g>
</g>
<g>
</g>
<g>
</g>
<g>
</g>
<g>
</g>
<g>
</g>
<g>
</g>
<g>
</g>
<g>
</g>
<g>
</g>
<g>
</g>
<g>
</g>
<g>
</g>
<g>
</g>
<g>
</g>
<g>
</g>
</svg>
