<?xml version="1.0" encoding="iso-8859-1"?>
<!-- Generator: Adobe Illustrator 19.0.0, SVG Export Plug-In . SVG Version: 6.00 Build 0)  -->
<svg xmlns="http://www.w3.org/2000/svg" xmlns:xlink="http://www.w3.org/1999/xlink" version="1.1" id="Layer_1" x="0px" y="0px" viewBox="0 0 511.983 511.983" style="enable-background:new 0 0 511.983 511.983;" xml:space="preserve">
<g transform="translate(0 -1)">
	<g>
		<path d="M511.983,406.318c0-94.783-8.365-177.274-21.65-245.995c0,0,0,0,0,0c-3.017-15.63-6.062-29.28-8.983-40.873    c-1.027-4.077-1.967-7.61-2.802-10.589c-0.508-1.814-0.872-3.055-1.075-3.714c-1.332-4.338-5.825-6.874-10.227-5.774    c-35.08,8.77-170.99,25.345-211.255,25.345c-40.271,0-176.182-16.575-211.264-25.345c-4.402-1.1-8.895,1.436-10.227,5.773    c-0.202,0.659-0.567,1.9-1.075,3.713c-0.834,2.979-1.774,6.512-2.802,10.588c-2.921,11.592-5.966,25.243-8.983,40.877    c-0.022,0.115-0.031,0.229-0.048,0.344C8.341,229.352,0,311.704,0,406.318h0.5c0.162,1.13,0.434,2.578,0.802,4.53    c2.889,4.612,8.465,4.99,12.151,2.46c0.709-0.216,1.829-0.557,3.227-0.946c4.089-1.138,9.856-2.504,16.516-3.879    c17.005-3.511,37.012-6.56,57.561-8.485c56.563-5.297,107.516-1.51,144.871,14.187c5.625,2.364,11.841-1.768,11.839-7.869    l-0.014-51.441c2.03,0.109,4.04,0.182,6.023,0.214c0.852,0.017,1.694,0.029,2.516,0.029c0.795,0,1.609-0.01,2.433-0.026    c2.003-0.029,4.044-0.094,6.113-0.192l-0.022,51.415c-0.003,6.102,6.214,10.234,11.839,7.871    c37.36-15.697,88.313-19.484,144.875-14.187c20.548,1.924,40.554,4.974,57.559,8.485c6.66,1.375,12.426,2.74,16.515,3.879    c1.414,0.394,2.531,0.736,3.304,1.001c3.687,2.472,9.205,2.065,12.074-2.515c0.367-1.952,0.639-3.4,0.802-4.53H511.983z     M496.072,410.687c-0.398-0.544-0.638-1.043-0.744-1.676C495.518,409.611,495.768,410.171,496.072,410.687z M47.174,123.617    c0.532-2.113,1.039-4.069,1.518-5.867c45.374,9.348,168.282,24.035,207.3,24.035c39.011,0,161.918-14.688,207.291-24.035    c0.478,1.799,0.985,3.756,1.518,5.87c2.294,9.104,4.673,19.542,7.058,31.274c-0.979,0.149-1.972,0.299-2.979,0.45    c-0.302,0.045-0.614,0.091-0.919,0.136c-0.717,0.107-1.435,0.213-2.165,0.32c-0.408,0.06-0.825,0.12-1.237,0.18    c-0.639,0.093-1.276,0.186-1.924,0.279c-0.443,0.064-0.895,0.128-1.342,0.192c-0.63,0.09-1.259,0.18-1.898,0.271    c-0.464,0.066-0.935,0.131-1.403,0.197c-0.635,0.089-1.268,0.178-1.91,0.268c-0.483,0.067-0.972,0.134-1.458,0.202    c-0.637,0.088-1.273,0.176-1.917,0.264c-0.502,0.069-1.01,0.138-1.516,0.206c-0.633,0.086-1.267,0.172-1.906,0.258    c-0.534,0.072-1.072,0.144-1.609,0.216c-0.629,0.084-1.259,0.168-1.893,0.253c-0.536,0.071-1.076,0.142-1.616,0.214    c-0.653,0.086-1.308,0.172-1.967,0.259c-0.532,0.07-1.067,0.139-1.603,0.209c-0.66,0.086-1.321,0.172-1.986,0.257    c-0.566,0.073-1.135,0.146-1.705,0.219c-0.649,0.083-1.3,0.166-1.953,0.249c-0.571,0.073-1.143,0.145-1.717,0.218    c-0.659,0.083-1.321,0.167-1.985,0.25c-0.588,0.074-1.176,0.147-1.767,0.221c-0.667,0.083-1.338,0.166-2.01,0.25    c-0.583,0.072-1.166,0.144-1.752,0.216c-0.686,0.084-1.374,0.169-2.064,0.253c-0.575,0.07-1.15,0.141-1.728,0.211    c-0.707,0.086-1.417,0.172-2.128,0.257c-0.585,0.071-1.169,0.141-1.757,0.212c-0.7,0.084-1.404,0.168-2.107,0.252    c-0.586,0.07-1.172,0.14-1.76,0.21c-0.745,0.088-1.494,0.176-2.242,0.264c-0.55,0.065-1.099,0.13-1.651,0.194    c-0.765,0.09-1.534,0.179-2.302,0.268c-0.559,0.065-1.116,0.13-1.677,0.195c-0.778,0.09-1.558,0.179-2.338,0.269    c-0.535,0.061-1.068,0.123-1.604,0.184c-1.168,0.133-2.339,0.266-3.511,0.399c-0.146,0.016-0.291,0.033-0.437,0.05    c-1.34,0.151-2.684,0.302-4.029,0.452c-0.339,0.038-0.68,0.075-1.019,0.113c-0.998,0.111-1.996,0.222-2.996,0.332    c-0.459,0.051-0.92,0.101-1.379,0.151c-0.895,0.098-1.791,0.196-2.688,0.294c-0.498,0.054-0.996,0.108-1.494,0.162    c-0.828,0.09-1.655,0.179-2.484,0.268c-0.607,0.065-1.214,0.13-1.82,0.195c-0.742,0.079-1.485,0.159-2.227,0.237    c-0.601,0.064-1.202,0.127-1.802,0.19c-0.744,0.078-1.487,0.157-2.231,0.235c-0.614,0.064-1.228,0.128-1.841,0.192    c-0.738,0.077-1.475,0.154-2.212,0.23c-0.613,0.063-1.226,0.126-1.839,0.189c-0.717,0.074-1.434,0.147-2.15,0.221    c-0.648,0.066-1.296,0.132-1.944,0.198c-0.696,0.071-1.392,0.141-2.087,0.211c-0.625,0.063-1.25,0.126-1.875,0.188    c-0.727,0.073-1.454,0.145-2.18,0.218c-0.603,0.06-1.205,0.12-1.807,0.179c-0.729,0.072-1.457,0.144-2.184,0.215    c-0.611,0.06-1.222,0.12-1.832,0.179c-0.703,0.069-1.406,0.137-2.107,0.204c-0.627,0.061-1.254,0.121-1.88,0.181    c-0.703,0.067-1.404,0.134-2.104,0.201c-0.606,0.058-1.212,0.115-1.816,0.173c-0.701,0.066-1.401,0.132-2.1,0.198    c-0.614,0.058-1.227,0.115-1.839,0.172c-0.685,0.064-1.368,0.127-2.051,0.19c-0.608,0.056-1.217,0.112-1.823,0.168    c-0.698,0.064-1.391,0.127-2.086,0.19c-0.592,0.054-1.184,0.108-1.774,0.161c-0.697,0.063-1.39,0.125-2.084,0.186    c-0.571,0.051-1.143,0.102-1.711,0.153c-0.754,0.067-1.502,0.132-2.25,0.198c-0.501,0.044-1.005,0.088-1.503,0.132    c-0.801,0.07-1.596,0.138-2.391,0.206c-0.45,0.039-0.904,0.078-1.353,0.116c-0.885,0.076-1.763,0.149-2.64,0.223    c-0.349,0.029-0.701,0.059-1.048,0.088c-1.214,0.102-2.42,0.201-3.618,0.299c-0.343,0.028-0.68,0.055-1.022,0.083    c-0.858,0.07-1.716,0.139-2.565,0.207c-0.456,0.036-0.904,0.071-1.356,0.107c-0.726,0.057-1.453,0.115-2.172,0.171    c-0.48,0.037-0.953,0.073-1.43,0.11c-0.682,0.053-1.365,0.106-2.04,0.157c-0.483,0.037-0.96,0.072-1.439,0.108    c-0.661,0.05-1.323,0.099-1.976,0.148c-0.49,0.036-0.973,0.071-1.458,0.106c-0.619,0.045-1.238,0.09-1.85,0.134    c-0.507,0.036-1.007,0.071-1.509,0.107c-0.593,0.042-1.187,0.084-1.773,0.124c-0.496,0.034-0.985,0.067-1.476,0.101    c-0.571,0.039-1.141,0.078-1.705,0.115c-0.493,0.033-0.981,0.065-1.469,0.097c-0.56,0.037-1.118,0.073-1.671,0.108    c-0.467,0.03-0.929,0.059-1.39,0.088c-0.551,0.035-1.1,0.068-1.643,0.102c-0.472,0.029-0.94,0.057-1.405,0.085    c-0.514,0.031-1.025,0.061-1.531,0.09c-0.465,0.027-0.927,0.053-1.385,0.079c-0.51,0.029-1.016,0.057-1.518,0.084    c-0.434,0.024-0.867,0.047-1.294,0.07c-0.501,0.026-0.995,0.052-1.487,0.077c-0.428,0.022-0.855,0.043-1.276,0.064    c-0.475,0.023-0.944,0.045-1.41,0.067c-0.414,0.019-0.829,0.039-1.236,0.057c-0.461,0.021-0.913,0.04-1.365,0.059    c-0.399,0.017-0.799,0.034-1.191,0.05c-0.447,0.018-0.883,0.035-1.32,0.051c-0.378,0.014-0.758,0.029-1.128,0.042    c-0.443,0.016-0.875,0.03-1.307,0.044c-0.344,0.011-0.692,0.023-1.029,0.033c-0.439,0.013-0.863,0.024-1.29,0.036    c-0.321,0.009-0.648,0.018-0.962,0.026c-0.438,0.01-0.86,0.018-1.284,0.027c-0.279,0.005-0.565,0.012-0.838,0.017    c-0.47,0.008-0.921,0.013-1.373,0.018c-0.215,0.003-0.439,0.006-0.65,0.008c-0.653,0.006-1.288,0.009-1.902,0.009    c-0.614,0-1.249-0.003-1.902-0.009c-0.21-0.002-0.434-0.006-0.648-0.008c-0.453-0.005-0.905-0.01-1.375-0.018    c-0.271-0.005-0.554-0.011-0.831-0.017c-0.427-0.008-0.851-0.016-1.292-0.027c-0.32-0.008-0.652-0.017-0.979-0.026    c-0.418-0.011-0.834-0.022-1.263-0.035c-0.341-0.01-0.694-0.022-1.042-0.034c-0.433-0.014-0.865-0.028-1.309-0.044    c-0.355-0.013-0.721-0.027-1.083-0.041c-0.458-0.017-0.916-0.035-1.385-0.054c-0.362-0.015-0.733-0.031-1.102-0.046    c-0.479-0.02-0.959-0.041-1.449-0.063c-0.383-0.017-0.772-0.036-1.161-0.054c-0.498-0.023-0.999-0.047-1.508-0.072    c-0.388-0.019-0.782-0.039-1.177-0.059c-0.516-0.026-1.036-0.053-1.561-0.081c-0.41-0.022-0.824-0.044-1.24-0.067    c-0.531-0.029-1.066-0.059-1.607-0.089c-0.416-0.023-0.835-0.047-1.256-0.072c-0.557-0.032-1.12-0.065-1.687-0.099    c-0.421-0.025-0.843-0.05-1.269-0.076c-0.577-0.035-1.159-0.071-1.745-0.108c-0.433-0.027-0.867-0.054-1.305-0.082    c-0.602-0.039-1.211-0.078-1.822-0.118c-0.423-0.028-0.845-0.055-1.273-0.084c-0.657-0.044-1.322-0.089-1.988-0.134    c-0.391-0.027-0.781-0.053-1.175-0.08c-0.716-0.049-1.439-0.1-2.165-0.152c-0.367-0.026-0.731-0.051-1.101-0.078    c-0.771-0.055-1.55-0.112-2.332-0.169c-0.33-0.024-0.657-0.048-0.989-0.072c-0.868-0.064-1.745-0.13-2.625-0.196    c-0.257-0.019-0.511-0.038-0.769-0.058c-1.018-0.077-2.045-0.156-3.079-0.237c-0.125-0.01-0.247-0.019-0.372-0.029    c-9.514-0.741-19.691-1.611-30.234-2.58c-0.006-0.001-0.013-0.001-0.019-0.002c-2.633-0.242-5.289-0.49-7.963-0.743    c-0.008-0.001-0.016-0.002-0.025-0.002c-44.238-4.196-93.46-9.932-126.771-15.013C42.501,143.157,44.88,132.719,47.174,123.617z     M16.655,409.011c-0.106,0.633-0.346,1.132-0.744,1.676C16.215,410.171,16.465,409.611,16.655,409.011z M482.24,391.769    c-17.604-3.635-38.229-6.779-59.418-8.763c-53.509-5.011-102.421-2.227-141.233,10.961l0.017-40.56    c29.846-3.748,61.316-13.417,74.289-26.391c3.332-3.332,3.332-8.735,0-12.068c-3.333-3.332-8.736-3.332-12.068,0    c-10.398,10.398-41.804,19.234-69.849,22.111c-0.297-0.031-0.598-0.049-0.903-0.049c-5.8,0.6-10.645,0.93-14.898,1.016    c-0.732,0.011-1.464,0.022-2.183,0.022c-0.743,0-1.495-0.011-2.249-0.024c-4.215-0.087-8.911-0.41-13.887-0.963    c-0.349-0.039-0.695-0.051-1.037-0.048c-25.015-2.864-51.464-11.403-62.127-22.066c-3.333-3.332-8.736-3.332-12.068,0    s-3.332,8.735,0,12.068c12.843,12.843,39.369,22.254,65.758,26.136l0.011,40.815c-38.809-13.188-87.721-15.973-141.232-10.961    c-21.189,1.984-41.815,5.128-59.42,8.763c-4.679,0.966-8.965,1.934-12.635,2.842c0.454-61.11,4.438-116.843,10.968-166.807    c29.812,9.789,69.805,16.365,108.454,16.365c4.713,0,8.533-3.82,8.533-8.533s-3.82-8.533-8.533-8.533    c-38.172,0-77.794-6.752-106.069-16.5c1.963-13.423,4.108-26.41,6.422-38.938c33.057,5.065,81.678,10.763,125.922,14.995    c0.03,0.003,0.06,0.006,0.09,0.009c1.276,0.122,2.549,0.243,3.817,0.362c0.016,0.002,0.033,0.003,0.049,0.005    c1.28,0.121,2.556,0.24,3.828,0.358c0.004,0,0.007,0.001,0.011,0.001c10.116,0.938,19.93,1.791,29.2,2.533    c0.159,0.013,0.32,0.026,0.478,0.038c0.855,0.068,1.7,0.134,2.545,0.201c0.355,0.028,0.713,0.056,1.066,0.084    c0.755,0.059,1.502,0.116,2.25,0.173c0.422,0.032,0.847,0.065,1.266,0.097c0.698,0.053,1.389,0.104,2.079,0.156    c0.467,0.035,0.937,0.07,1.401,0.104c0.659,0.048,1.311,0.096,1.963,0.143c0.469,0.034,0.94,0.068,1.405,0.101    c0.642,0.046,1.277,0.09,1.912,0.135c0.477,0.033,0.953,0.067,1.425,0.099c0.602,0.042,1.198,0.082,1.794,0.122    c0.492,0.033,0.984,0.066,1.471,0.099c0.57,0.038,1.135,0.075,1.697,0.111c0.5,0.032,0.998,0.065,1.492,0.096    c0.538,0.034,1.071,0.068,1.602,0.101c0.505,0.031,1.007,0.062,1.505,0.092c0.52,0.031,1.036,0.062,1.549,0.093    c0.492,0.029,0.98,0.057,1.465,0.085c0.496,0.029,0.989,0.057,1.478,0.084c0.494,0.028,0.983,0.054,1.469,0.081    c0.474,0.026,0.945,0.051,1.412,0.075c0.478,0.025,0.95,0.049,1.421,0.073c0.459,0.023,0.917,0.046,1.369,0.068    c0.468,0.023,0.928,0.044,1.388,0.066c0.435,0.02,0.87,0.041,1.298,0.06c0.468,0.021,0.927,0.04,1.386,0.06    c0.406,0.017,0.813,0.035,1.211,0.051c0.457,0.018,0.904,0.035,1.352,0.052c0.384,0.014,0.772,0.029,1.149,0.043    c0.451,0.016,0.89,0.03,1.33,0.044c0.356,0.011,0.717,0.024,1.066,0.034c0.451,0.013,0.888,0.024,1.327,0.036    c0.32,0.008,0.646,0.018,0.96,0.025c0.45,0.011,0.883,0.019,1.319,0.027c0.29,0.006,0.587,0.013,0.871,0.017    c0.462,0.008,0.906,0.013,1.352,0.018c0.237,0.003,0.484,0.007,0.717,0.009c0.67,0.006,1.321,0.009,1.952,0.009    c0.631,0,1.282-0.003,1.952-0.009c0.232-0.002,0.477-0.006,0.713-0.009c0.448-0.005,0.893-0.01,1.357-0.018    c0.281-0.005,0.575-0.011,0.861-0.017c0.44-0.009,0.877-0.017,1.33-0.027c0.308-0.007,0.629-0.016,0.943-0.025    c0.445-0.012,0.889-0.023,1.346-0.037c0.341-0.01,0.694-0.022,1.042-0.033c0.449-0.014,0.897-0.029,1.357-0.045    c0.366-0.013,0.742-0.027,1.115-0.041c0.46-0.017,0.92-0.034,1.391-0.053c0.383-0.015,0.774-0.032,1.164-0.049    c0.478-0.02,0.956-0.04,1.443-0.062c0.401-0.018,0.809-0.037,1.216-0.056c0.49-0.023,0.982-0.046,1.481-0.07    c0.421-0.021,0.849-0.042,1.276-0.064c0.503-0.025,1.008-0.051,1.52-0.078c0.439-0.023,0.884-0.047,1.33-0.071    c0.513-0.028,1.028-0.056,1.549-0.085c0.453-0.025,0.91-0.051,1.369-0.078c0.534-0.031,1.072-0.062,1.615-0.094    c0.464-0.027,0.931-0.055,1.402-0.084c0.552-0.033,1.108-0.068,1.667-0.102c0.468-0.029,0.937-0.058,1.41-0.088    c0.571-0.036,1.146-0.073,1.724-0.111c0.488-0.032,0.977-0.064,1.47-0.096c0.576-0.038,1.158-0.077,1.741-0.117    c0.499-0.034,0.997-0.067,1.501-0.102c0.595-0.041,1.196-0.083,1.798-0.125c0.508-0.036,1.015-0.071,1.527-0.107    c0.612-0.044,1.23-0.088,1.848-0.133c0.508-0.037,1.015-0.073,1.528-0.111c0.641-0.047,1.288-0.096,1.936-0.144    c0.508-0.038,1.014-0.075,1.526-0.114c0.65-0.049,1.308-0.1,1.965-0.15c0.518-0.04,1.033-0.079,1.555-0.119    c0.701-0.055,1.411-0.111,2.119-0.166c0.48-0.038,0.957-0.075,1.44-0.113c0.727-0.058,1.462-0.117,2.196-0.177    c0.488-0.039,0.973-0.078,1.464-0.118c0.971-0.079,1.95-0.16,2.932-0.242c0.236-0.02,0.469-0.038,0.705-0.058    c1.252-0.104,2.511-0.21,3.779-0.318c0.062-0.005,0.126-0.011,0.188-0.016c1.183-0.101,2.373-0.203,3.569-0.307    c0.44-0.038,0.885-0.078,1.327-0.116c0.842-0.073,1.682-0.147,2.53-0.222c0.469-0.042,0.943-0.084,1.414-0.126    c0.807-0.072,1.613-0.143,2.425-0.216c0.536-0.048,1.076-0.097,1.614-0.146c0.766-0.069,1.531-0.139,2.301-0.209    c0.568-0.052,1.138-0.105,1.708-0.157c0.733-0.068,1.465-0.135,2.201-0.203c0.58-0.054,1.162-0.109,1.744-0.163    c0.755-0.071,1.51-0.141,2.267-0.213c0.566-0.053,1.134-0.108,1.701-0.161c0.752-0.071,1.504-0.143,2.259-0.215    c0.6-0.057,1.201-0.116,1.802-0.174c0.743-0.072,1.486-0.144,2.232-0.216c0.597-0.058,1.196-0.117,1.794-0.175    c0.74-0.072,1.479-0.145,2.221-0.218c0.617-0.061,1.234-0.122,1.852-0.183c0.735-0.073,1.47-0.146,2.207-0.22    c0.61-0.061,1.221-0.122,1.831-0.184c0.752-0.076,1.504-0.152,2.257-0.228c0.617-0.063,1.235-0.125,1.853-0.188    c0.715-0.073,1.43-0.146,2.146-0.22c0.661-0.068,1.322-0.136,1.984-0.204c0.692-0.072,1.385-0.144,2.078-0.216    c0.664-0.069,1.329-0.138,1.993-0.208c0.714-0.075,1.427-0.15,2.141-0.225c0.635-0.067,1.27-0.134,1.905-0.201    c0.769-0.082,1.537-0.164,2.305-0.246c0.577-0.062,1.154-0.123,1.731-0.185c0.805-0.086,1.609-0.173,2.413-0.26    c0.562-0.061,1.124-0.121,1.686-0.183c0.757-0.082,1.512-0.165,2.268-0.248c0.625-0.068,1.25-0.137,1.875-0.206    c0.745-0.082,1.488-0.165,2.231-0.247c0.593-0.066,1.187-0.131,1.779-0.197c0.782-0.087,1.561-0.175,2.341-0.262    c0.579-0.065,1.159-0.13,1.737-0.195c0.81-0.091,1.616-0.183,2.424-0.275c0.53-0.06,1.062-0.12,1.591-0.181    c0.969-0.111,1.935-0.222,2.9-0.333c0.369-0.043,0.74-0.085,1.109-0.128c1.338-0.155,2.672-0.31,4.002-0.466    c0.152-0.018,0.302-0.036,0.453-0.053c1.171-0.137,2.339-0.275,3.502-0.413c0.402-0.048,0.801-0.096,1.202-0.143    c0.907-0.108,1.814-0.216,2.716-0.324c0.541-0.065,1.077-0.13,1.616-0.195c0.743-0.09,1.487-0.179,2.226-0.269    c0.58-0.071,1.156-0.141,1.733-0.212c0.729-0.089,1.459-0.178,2.184-0.268c0.524-0.065,1.043-0.129,1.565-0.194    c0.747-0.093,1.493-0.185,2.235-0.278c0.557-0.07,1.11-0.139,1.664-0.209c0.701-0.088,1.402-0.176,2.098-0.264    c0.567-0.072,1.13-0.144,1.693-0.215c0.677-0.086,1.354-0.172,2.026-0.259c0.56-0.072,1.116-0.144,1.672-0.216    c0.672-0.087,1.343-0.174,2.009-0.26c0.563-0.073,1.123-0.147,1.682-0.22c0.647-0.085,1.292-0.17,1.933-0.254    c0.551-0.073,1.098-0.145,1.645-0.218c0.641-0.085,1.28-0.17,1.915-0.256c0.552-0.074,1.102-0.148,1.65-0.222    c0.628-0.085,1.252-0.169,1.874-0.254c0.532-0.072,1.061-0.145,1.589-0.217c0.619-0.085,1.234-0.17,1.847-0.255    c0.527-0.073,1.052-0.146,1.574-0.218c0.599-0.083,1.192-0.167,1.785-0.25c0.53-0.075,1.059-0.149,1.584-0.223    c0.573-0.081,1.141-0.162,1.707-0.244c0.523-0.075,1.046-0.15,1.563-0.224c0.572-0.083,1.136-0.165,1.701-0.247    c0.492-0.072,0.985-0.143,1.472-0.215c0.577-0.085,1.146-0.169,1.715-0.254c0.474-0.07,0.951-0.141,1.419-0.211    c0.556-0.083,1.101-0.166,1.649-0.249c0.462-0.07,0.927-0.14,1.383-0.21c0.096-0.015,0.196-0.03,0.292-0.044    c2.313,12.525,4.457,25.512,6.42,38.935c-28.276,9.75-67.903,16.504-106.081,16.504c-4.713,0-8.533,3.82-8.533,8.533    s3.82,8.533,8.533,8.533c38.654,0,78.652-6.578,108.465-16.368c6.528,49.964,10.51,105.708,10.962,166.811    C491.204,393.702,486.918,392.735,482.24,391.769z"/>
	</g>
</g>
<g>
</g>
<g>
</g>
<g>
</g>
<g>
</g>
<g>
</g>
<g>
</g>
<g>
</g>
<g>
</g>
<g>
</g>
<g>
</g>
<g>
</g>
<g>
</g>
<g>
</g>
<g>
</g>
<g>
</g>
</svg>
