<?xml version="1.0" encoding="iso-8859-1"?>
<!-- Generator: Adobe Illustrator 19.0.0, SVG Export Plug-In . SVG Version: 6.00 Build 0)  -->
<svg xmlns="http://www.w3.org/2000/svg" xmlns:xlink="http://www.w3.org/1999/xlink" version="1.1" id="Layer_1" x="0px" y="0px" viewBox="0 0 512.007 512.007" style="enable-background:new 0 0 512.007 512.007;" xml:space="preserve">
<g transform="translate(0 -1)">
	<g>
		<path d="M512.007,338.027c0-52.419-16.562-107.23-45.444-166.541c-10.072-20.684-34.855-65.493-39.89-74.582V90.56    c0-0.022-0.003-0.043-0.003-0.065V39.359c0-5.552-5.217-9.625-10.603-8.279c-12.12,3.03-38.855,5.249-75.185,6.646    c-18.558,0.714-38.458,1.173-58.361,1.428c-6.968,0.089-13.438,0.147-19.242,0.179c-3.479,0.019-5.959,0.025-7.276,0.025    s-3.797-0.006-7.276-0.025c-5.805-0.032-12.274-0.089-19.242-0.179c-19.903-0.255-39.804-0.714-58.361-1.428    c-36.329-1.397-63.064-3.616-75.185-6.646c-5.386-1.346-10.603,2.727-10.603,8.279v51.138c0,0.021-0.003,0.042-0.003,0.063v6.344    c-5.035,9.088-29.818,53.898-39.89,74.582C16.562,230.797,0,285.608,0,338.027c0,2.235,0.859,4.253,2.249,5.766    c0.025,0.027,0.053,0.052,0.078,0.079c0.179,0.189,0.364,0.372,0.559,0.544c0.011,0.01,0.021,0.021,0.032,0.031    c0.318,0.279,0.318,0.279,1.805,1.573c1.466,1.275,3.171,2.753,5.097,4.417c5.5,4.751,11.676,10.043,18.388,15.742    c19.178,16.285,38.811,32.571,57.781,47.781c4.472,3.585,8.862,7.075,13.163,10.459c38.509,30.308,67.483,50.514,84.331,57.612    c1.258,0.73,2.715,1.155,4.274,1.155h68.267c0.353,0,0.696-0.035,1.038-0.077c12.087,0.049,67.209,0.075,67.209,0.075    c1.573,0,3.042-0.433,4.308-1.176c16.856-7.118,45.81-27.314,84.278-57.59c4.3-3.385,8.691-6.874,13.163-10.459    c18.97-15.21,38.603-31.496,57.781-47.781c6.711-5.699,12.887-10.991,18.388-15.742c1.926-1.664,3.631-3.142,5.097-4.417    c0.457-0.398,0.763-0.664,0.991-0.863c2.237-1.53,3.728-4.094,3.728-7.04c0-0.007,0-0.015,0-0.022    C512.003,338.072,512.007,338.05,512.007,338.027z M315.737,433v33.026h-59.714h-56.822c-1.757-0.001-2.806-0.002-2.912-0.002    v-33.022c0-2.034-0.05-4.049-0.123-6.056c-0.005-0.153-0.012-0.306-0.017-0.459c-0.032-0.818-0.065-1.636-0.109-2.449    c-0.423-8.158-1.432-15.97-2.991-23.384c17.852-12.828,39.797-19.962,62.974-19.962c23.165,0,45.104,7.131,62.961,19.952    C316.849,410.734,315.737,421.563,315.737,433z M328.64,372.19l-13.394-37.062c-1.602-4.432-6.493-6.727-10.926-5.125    c-4.432,1.602-6.727,6.493-5.125,10.926l12.911,35.726c-17.042-8.462-36.193-13.029-56.083-13.029    c-19.902,0-39.062,4.569-56.106,13.038l12.914-35.735c1.602-4.432-0.693-9.324-5.125-10.926    c-4.432-1.602-9.324,0.693-10.926,5.125l-13.369,36.993c-12.865-26.383-34.78-44.24-62.998-49.529    c5.277-72.093,33.571-158.24,64.222-217.726c26.381,1.458,47.81,2.393,62.834,2.672v25.688c0,4.713,3.82,8.533,8.533,8.533    s8.533-3.82,8.533-8.533v-25.688c7.14-0.133,15.728-0.413,25.607-0.828c5.905-0.22,12.027-0.474,18.357-0.761    c6.181-0.281,12.511-0.591,18.951-0.926c30.652,59.542,58.928,145.718,64.159,217.793    C363.328,328.208,341.477,345.987,328.64,372.19z M102.403,320.957l-85.138,7.708c0.026-0.658,0.058-1.317,0.089-1.975    c0.032-0.663,0.06-1.326,0.097-1.991c0.048-0.852,0.107-1.705,0.164-2.559c0.043-0.64,0.081-1.279,0.128-1.92    c0.067-0.896,0.145-1.795,0.222-2.693c0.051-0.602,0.097-1.203,0.153-1.807c0.09-0.969,0.192-1.942,0.293-2.914    c0.056-0.536,0.105-1.07,0.164-1.606c0.128-1.166,0.27-2.334,0.415-3.504c0.043-0.345,0.079-0.688,0.123-1.033    c0.194-1.524,0.402-3.052,0.623-4.582c0.024-0.164,0.051-0.328,0.075-0.492c0.199-1.359,0.406-2.72,0.626-4.084    c0.077-0.48,0.164-0.962,0.243-1.442c0.175-1.052,0.35-2.104,0.537-3.159c0.101-0.567,0.211-1.137,0.315-1.705    c0.178-0.97,0.355-1.94,0.544-2.912c0.12-0.618,0.249-1.239,0.373-1.859c0.185-0.925,0.369-1.849,0.564-2.777    c0.136-0.646,0.28-1.295,0.42-1.942c0.196-0.906,0.391-1.812,0.596-2.72c0.149-0.661,0.306-1.323,0.46-1.985    c0.208-0.897,0.416-1.794,0.633-2.693c0.163-0.676,0.333-1.353,0.5-2.03c0.22-0.889,0.44-1.778,0.668-2.669    c0.176-0.685,0.357-1.373,0.538-2.06c0.233-0.888,0.467-1.777,0.709-2.667c0.186-0.688,0.378-1.377,0.569-2.066    c0.247-0.892,0.496-1.785,0.752-2.679c0.198-0.694,0.401-1.39,0.604-2.086c0.26-0.892,0.523-1.784,0.791-2.678    c0.21-0.699,0.423-1.4,0.638-2.101c0.274-0.896,0.551-1.793,0.833-2.692c0.22-0.699,0.442-1.4,0.667-2.101    c0.289-0.904,0.581-1.808,0.878-2.714c0.23-0.701,0.462-1.404,0.697-2.107c0.303-0.908,0.61-1.818,0.921-2.728    c0.24-0.703,0.482-1.407,0.726-2.112c0.317-0.915,0.639-1.831,0.964-2.748c0.249-0.704,0.5-1.408,0.754-2.113    c0.333-0.924,0.671-1.85,1.011-2.776c0.257-0.701,0.515-1.401,0.777-2.103c0.35-0.938,0.706-1.878,1.063-2.819    c0.263-0.692,0.526-1.385,0.793-2.079c0.369-0.958,0.745-1.918,1.122-2.878c0.267-0.68,0.533-1.361,0.804-2.042    c0.389-0.979,0.786-1.96,1.183-2.941c0.271-0.669,0.54-1.337,0.814-2.007c0.41-1.002,0.829-2.006,1.247-3.01    c0.273-0.654,0.542-1.307,0.819-1.961c0.436-1.034,0.88-2.071,1.325-3.109c0.269-0.627,0.535-1.254,0.807-1.882    c0.47-1.086,0.95-2.175,1.429-3.264c0.257-0.583,0.51-1.165,0.769-1.749c0.516-1.161,1.042-2.326,1.568-3.491    c0.233-0.517,0.463-1.032,0.698-1.549c0.586-1.288,1.184-2.58,1.783-3.873c0.184-0.398,0.364-0.794,0.55-1.192    c0.747-1.604,1.505-3.211,2.272-4.822c0.042-0.087,0.082-0.174,0.123-0.261c0.823-1.727,1.657-3.459,2.502-5.194    c10.963-22.513,40.391-75.407,40.711-76.048c0.5-1.001,0.798-2.089,0.879-3.201c0.83,0.057,1.681,0.116,2.546,0.175    c0.299,0.021,0.607,0.042,0.911,0.062c0.803,0.055,1.62,0.111,2.451,0.167c0.315,0.021,0.629,0.043,0.947,0.064    c1.111,0.075,2.236,0.152,3.393,0.23c14.851,1.001,30.37,2.002,45.791,2.937c2.568,0.156,5.104,0.307,7.624,0.456    c-30.219,60.869-57.292,145.259-62.63,217.167c-0.178-0.002-0.356-0.002-0.534-0.003    C102.721,320.962,102.564,320.957,102.403,320.957z M355.731,103.433c15.559-0.935,30.713-1.936,44.858-2.937    c3.223-0.228,6.244-0.446,9.04-0.651c0.085,1.096,0.382,2.168,0.875,3.156c0.32,0.641,29.749,53.536,40.711,76.048    c25.264,51.882,40.671,99.926,43.313,145.243c0.002,0.034,0.005,0.068,0.007,0.102c0.068,1.178,0.122,2.352,0.173,3.526    c0.011,0.248,0.024,0.497,0.034,0.745l-84.362-7.669c-0.612-0.005-1.206-0.006-1.785-0.002    c-5.327-71.836-32.35-156.131-62.533-216.993C349.265,103.816,352.485,103.628,355.731,103.433z M170.468,54.78    c18.72,0.72,38.761,1.182,58.798,1.439c7.011,0.09,13.522,0.148,19.367,0.18c3.511,0.019,6.023,0.026,7.369,0.026    s3.858-0.006,7.369-0.026c5.845-0.032,12.356-0.09,19.367-0.18c20.038-0.257,40.078-0.719,58.798-1.439    c29.587-1.138,52.824-2.785,68.065-5.105V82.6c-3.507,0.241-7.344,0.5-11.495,0.776c-14.992,0.996-30.81,1.992-46.728,2.922    c-6.622,0.387-13.137,0.754-19.514,1.1c-0.481,0.026-0.941,0.102-1.39,0.2c-0.446,0.025-0.9,0.051-1.343,0.076    c-14.655,0.819-27.82,1.481-39.232,1.963c-11.888,0.445-22.886,0.754-32.811,0.903c-17.339-0.332-38.84-1.168-64.2-2.464    c-4.155-0.212-8.407-0.439-12.707-0.672c-0.015-0.001-0.028-0.004-0.043-0.005c-6.377-0.346-12.892-0.714-19.514-1.1    c-7.773-0.454-15.521-0.924-23.161-1.402c-7.992-0.501-15.868-1.01-23.527-1.52c-4.166-0.277-8.016-0.538-11.534-0.779V49.676    C117.644,51.995,140.881,53.642,170.468,54.78z M96.664,400.644c-18.832-15.099-38.346-31.286-57.41-47.475    c-3.46-2.938-6.772-5.764-9.925-8.465l73.844-6.713c1.885,0.035,4.585,0.177,7.391,0.454c0.43,0.042,0.852,0.041,1.27,0.021    c31.159,3.432,54.009,25.395,63.073,59.487c0.002,0.02,0.004,0.039,0.006,0.059c0.008,0.09,0.017,0.18,0.028,0.27    c0.044,0.356,0.102,0.709,0.189,1.054c0.003,0.014,0.004,0.028,0.007,0.041c1.684,6.581,2.859,13.445,3.503,20.558    c0,0.001,0,0.002,0,0.003c0.106,1.167,0.188,2.345,0.265,3.525c0.078,1.289,0.151,2.582,0.197,3.893    c0.004,0.095,0.009,0.19,0.013,0.286c0.058,1.738,0.088,3.494,0.088,5.271v27.815c-16.028-9.246-39.978-26.488-69.497-49.722    C105.447,407.656,101.097,404.198,96.664,400.644z M415.343,400.644c-4.433,3.554-8.783,7.011-13.042,10.363    c-29.508,23.224-53.45,40.461-69.478,49.71v-27.802c0-11.796,1.387-23.026,4.071-33.563c0.001-0.006,0.002-0.011,0.003-0.017    c0.088-0.349,0.147-0.705,0.19-1.065c0.01-0.084,0.021-0.168,0.029-0.253c9.92-37.157,36.325-59.9,72.487-59.9l72.987,6.663    c-3.127,2.678-6.41,5.479-9.837,8.389C453.689,369.358,434.175,385.545,415.343,400.644z"/>
	</g>
</g>
<g>
</g>
<g>
</g>
<g>
</g>
<g>
</g>
<g>
</g>
<g>
</g>
<g>
</g>
<g>
</g>
<g>
</g>
<g>
</g>
<g>
</g>
<g>
</g>
<g>
</g>
<g>
</g>
<g>
</g>
</svg>
