<?xml version="1.0" encoding="iso-8859-1"?>
<!-- Generator: Adobe Illustrator 19.0.0, SVG Export Plug-In . SVG Version: 6.00 Build 0)  -->
<svg xmlns="http://www.w3.org/2000/svg" xmlns:xlink="http://www.w3.org/1999/xlink" version="1.1" id="Layer_1" x="0px" y="0px" viewBox="0 0 512 512" style="enable-background:new 0 0 512 512;" xml:space="preserve">
<g transform="translate(0 -1)">
	<g>
		<path d="M511.966,226.379c-0.094-1.057-0.277-3.019-0.546-5.755c-0.447-4.55-0.973-9.616-1.576-15.072    c-1.722-15.596-3.712-31.195-5.945-45.78c-0.415-2.711-0.836-5.365-1.262-7.96c-0.003-0.018-0.008-0.035-0.011-0.053    c-2.511-15.269-5.101-27.961-7.855-37.85c-1.198-4.303-5.512-6.954-9.893-6.078c-1.322,0.264-3.84,0.762-7.417,1.459    c-5.968,1.164-12.72,2.46-20.117,3.857c-21.136,3.991-43.203,7.982-65.097,11.706c-11.161,1.898-22.009,3.681-32.46,5.327    c-46.983,7.399-83.151,11.619-103.781,11.619c-20.63,0-56.799-4.22-103.781-11.619c-10.451-1.646-21.299-3.428-32.46-5.327    c-21.894-3.724-43.961-7.715-65.097-11.706c-7.397-1.397-14.149-2.694-20.117-3.857c-3.577-0.697-6.095-1.195-7.417-1.459    c-4.38-0.875-8.694,1.775-9.893,6.078c-2.763,9.922-5.369,22.67-7.871,37.898c-0.005,0.028-0.005,0.056-0.01,0.085    c-0.422,2.569-0.839,5.196-1.251,7.879c-2.237,14.585-4.228,30.185-5.951,45.781c-0.603,5.456-1.13,10.523-1.577,15.072    c-0.269,2.737-0.452,4.698-0.546,5.755c-0.144,1.62,0.177,3.248,0.927,4.691c2.152,4.142,5.397,8.972,9.7,14.549    c0.043,0.055,0.09,0.105,0.134,0.159c32.344,41.787,136.504,134.429,171.214,154.832c6.399,3.758,13.685,5.725,21.16,5.725h14.746    c0.015,0,0.029,0.003,0.043,0.003h76.092c0.015,0,0.029-0.003,0.043-0.003h14.744c7.475,0,14.761-1.967,21.157-5.723    c34.742-20.421,139.047-113.201,171.299-154.938c0.013-0.016,0.027-0.031,0.04-0.047c4.314-5.579,7.565-10.417,9.712-14.569    C511.791,229.616,512.11,227.994,511.966,226.379z M488.769,228.359c-0.694-0.284-1.391-0.561-2.091-0.833    c-0.738-0.286-1.479-0.567-2.222-0.839c-0.699-0.256-1.401-0.504-2.104-0.748c-0.753-0.261-1.506-0.518-2.264-0.764    c-0.706-0.23-1.415-0.449-2.125-0.667c-0.765-0.234-1.53-0.466-2.3-0.687c-0.71-0.203-1.424-0.394-2.139-0.585    c-0.779-0.208-1.557-0.417-2.341-0.611c-0.711-0.176-1.427-0.339-2.141-0.503c-0.794-0.182-1.586-0.367-2.384-0.535    c-0.713-0.15-1.43-0.285-2.146-0.423c-0.806-0.156-1.612-0.316-2.422-0.457c-0.71-0.124-1.424-0.23-2.137-0.343    c-0.824-0.13-1.646-0.266-2.473-0.38c-0.7-0.097-1.403-0.176-2.105-0.262c-0.845-0.104-1.689-0.215-2.537-0.304    c-0.675-0.07-1.354-0.121-2.03-0.181c-0.881-0.079-1.76-0.166-2.644-0.228c-0.576-0.04-1.156-0.061-1.733-0.095    c-2.309-0.134-4.626-0.219-6.951-0.24c-0.194-0.002-0.388-0.011-0.582-0.012c-0.908-0.004-1.819,0.018-2.729,0.031    c-0.672,0.01-1.342,0.008-2.015,0.027c-0.865,0.024-1.732,0.072-2.599,0.112c-0.719,0.033-1.436,0.057-2.156,0.101    c-0.85,0.052-1.7,0.125-2.551,0.191c-0.739,0.058-1.477,0.109-2.217,0.178c-0.839,0.078-1.678,0.176-2.517,0.269    c-0.752,0.083-1.504,0.161-2.256,0.256c-0.83,0.104-1.661,0.226-2.491,0.345c-0.761,0.109-1.522,0.215-2.284,0.335    c-0.824,0.131-1.648,0.276-2.472,0.421c-0.767,0.134-1.533,0.268-2.3,0.414c-0.818,0.156-1.635,0.326-2.453,0.496    c-0.772,0.161-1.543,0.322-2.314,0.495c-0.81,0.182-1.619,0.374-2.429,0.569c-0.777,0.187-1.552,0.377-2.328,0.577    c-0.802,0.206-1.604,0.422-2.405,0.641c-0.779,0.214-1.557,0.432-2.334,0.659c-0.797,0.232-1.592,0.47-2.387,0.715    c-0.778,0.24-1.555,0.486-2.33,0.739c-0.79,0.257-1.579,0.519-2.367,0.789c-0.778,0.266-1.553,0.542-2.329,0.821    c-0.782,0.281-1.562,0.565-2.341,0.86c-0.778,0.294-1.553,0.598-2.328,0.905c-0.773,0.306-1.545,0.612-2.314,0.93    c-0.774,0.32-1.545,0.653-2.316,0.986c-0.766,0.331-1.531,0.66-2.293,1.003c-0.769,0.346-1.534,0.707-2.299,1.066    c-0.758,0.356-1.517,0.708-2.271,1.077c-0.763,0.372-1.52,0.761-2.279,1.146c-0.75,0.381-1.501,0.756-2.247,1.15    c-0.755,0.398-1.503,0.814-2.253,1.224c-0.743,0.407-1.488,0.807-2.227,1.226c-0.739,0.419-1.471,0.858-2.205,1.29    c-0.742,0.436-1.487,0.864-2.224,1.313c-0.708,0.432-1.408,0.884-2.112,1.328c-0.755,0.475-1.513,0.941-2.262,1.43    c-0.581,0.379-1.154,0.779-1.731,1.167c-0.839,0.563-1.683,1.115-2.515,1.695c-1.499,1.046-2.973,2.114-4.428,3.201    c-0.041,0.031-0.083,0.061-0.124,0.091c-1.389,1.04-2.755,2.1-4.102,3.175c-0.124,0.099-0.248,0.196-0.372,0.295    c-1.293,1.038-2.564,2.094-3.818,3.164c-0.163,0.139-0.327,0.278-0.489,0.418c-1.224,1.053-2.429,2.122-3.615,3.204    c-0.173,0.158-0.346,0.317-0.518,0.475c-1.176,1.082-2.333,2.177-3.471,3.287c-0.162,0.158-0.321,0.316-0.482,0.475    c-1.145,1.127-2.273,2.265-3.378,3.419c-0.126,0.131-0.249,0.264-0.374,0.396c-1.135,1.193-2.252,2.397-3.344,3.617    c-0.061,0.068-0.119,0.136-0.18,0.204c-1.104,1.238-2.186,2.489-3.246,3.753c-0.049,0.058-0.099,0.115-0.147,0.173    c-1.044,1.25-2.063,2.514-3.063,3.789c-0.113,0.144-0.228,0.286-0.34,0.431c-0.959,1.231-1.895,2.474-2.813,3.727    c-0.137,0.188-0.276,0.374-0.413,0.562c-0.895,1.232-1.768,2.474-2.622,3.726c-0.144,0.211-0.287,0.421-0.43,0.632    c-0.844,1.249-1.669,2.508-2.473,3.776c-0.132,0.208-0.262,0.416-0.393,0.625c-0.806,1.284-1.594,2.576-2.358,3.878    c-0.107,0.183-0.212,0.367-0.319,0.55c-0.779,1.338-1.538,2.683-2.273,4.038c-0.068,0.125-0.133,0.25-0.2,0.375    c-0.764,1.42-1.508,2.848-2.224,4.285c-0.008,0.017-0.016,0.033-0.024,0.05c-0.721,1.451-1.414,2.911-2.085,4.377    c-0.042,0.093-0.087,0.185-0.129,0.278c-0.644,1.416-1.26,2.84-1.856,4.269c-0.068,0.163-0.138,0.326-0.205,0.489    c-0.575,1.393-1.124,2.792-1.654,4.196c-0.074,0.197-0.149,0.393-0.222,0.59c-0.517,1.39-1.011,2.785-1.483,4.185    c-0.069,0.206-0.138,0.412-0.207,0.618c-0.203,0.612-0.402,1.224-0.597,1.837l-6.856-18.739c-1.619-4.426-6.52-6.701-10.946-5.082    c-4.426,1.619-6.701,6.52-5.082,10.946l9.368,25.604c-5.869-1.914-12.067-2.931-18.424-2.931c-6.357,0-12.555,1.018-18.424,2.931    l9.367-25.603c1.619-4.426-0.656-9.327-5.082-10.946c-4.426-1.619-9.326,0.656-10.946,5.082l-6.856,18.739    c-0.186-0.586-0.375-1.171-0.569-1.755c-0.086-0.261-0.173-0.521-0.261-0.782c-0.456-1.35-0.932-2.695-1.43-4.035    c-0.093-0.25-0.188-0.499-0.282-0.748c-0.512-1.354-1.041-2.704-1.595-4.048c-0.09-0.217-0.182-0.433-0.273-0.65    c-0.575-1.377-1.169-2.749-1.788-4.113c-0.07-0.154-0.143-0.307-0.214-0.46c-0.63-1.375-1.281-2.745-1.956-4.106    c-0.043-0.087-0.085-0.175-0.128-0.262c-0.686-1.376-1.398-2.743-2.129-4.103c-0.096-0.179-0.189-0.359-0.286-0.538    c-0.71-1.309-1.444-2.608-2.195-3.901c-0.133-0.23-0.265-0.46-0.4-0.689c-0.741-1.261-1.504-2.513-2.285-3.757    c-0.157-0.25-0.313-0.499-0.471-0.748c-0.781-1.23-1.581-2.451-2.4-3.664c-0.169-0.25-0.339-0.5-0.51-0.749    c-0.83-1.214-1.677-2.42-2.545-3.615c-0.166-0.229-0.334-0.456-0.502-0.683c-0.892-1.215-1.799-2.421-2.73-3.616    c-0.143-0.183-0.289-0.365-0.433-0.547c-0.972-1.237-1.96-2.464-2.973-3.678c-0.084-0.1-0.17-0.199-0.255-0.299    c-1.01-1.203-2.04-2.394-3.09-3.573c-0.096-0.108-0.189-0.217-0.286-0.324c-1.063-1.187-2.15-2.358-3.253-3.518    c-0.157-0.165-0.312-0.332-0.469-0.496c-1.078-1.124-2.177-2.234-3.293-3.333c-0.191-0.188-0.381-0.377-0.573-0.564    c-1.11-1.083-2.24-2.152-3.387-3.208c-0.202-0.186-0.405-0.372-0.608-0.558c-1.159-1.057-2.337-2.101-3.533-3.131    c-0.191-0.165-0.384-0.328-0.577-0.492c-1.226-1.046-2.469-2.078-3.733-3.093c-0.156-0.125-0.314-0.249-0.47-0.373    c-1.317-1.05-2.651-2.086-4.008-3.102c-0.076-0.057-0.154-0.113-0.23-0.17c-1.43-1.067-2.88-2.118-4.354-3.146    c-0.582-0.406-1.174-0.789-1.76-1.186c-0.833-0.565-1.662-1.138-2.502-1.686c-0.698-0.456-1.405-0.888-2.108-1.332    c-0.752-0.475-1.5-0.958-2.258-1.419c-0.729-0.444-1.465-0.866-2.198-1.297c-0.74-0.435-1.478-0.878-2.223-1.301    c-0.748-0.424-1.502-0.829-2.255-1.241c-0.739-0.404-1.476-0.814-2.22-1.206c-0.762-0.402-1.529-0.785-2.295-1.174    c-0.741-0.376-1.481-0.756-2.226-1.12c-0.774-0.378-1.551-0.739-2.329-1.104c-0.745-0.349-1.488-0.7-2.236-1.037    c-0.785-0.354-1.573-0.693-2.362-1.033c-0.746-0.322-1.492-0.644-2.241-0.954c-0.794-0.329-1.591-0.645-2.388-0.96    c-0.75-0.296-1.499-0.591-2.251-0.875c-0.803-0.303-1.608-0.596-2.413-0.886c-0.751-0.27-1.502-0.536-2.255-0.795    c-0.81-0.278-1.622-0.547-2.434-0.811c-0.753-0.245-1.507-0.484-2.263-0.717c-0.816-0.252-1.633-0.497-2.45-0.734    c-0.755-0.219-1.51-0.432-2.267-0.639c-0.822-0.226-1.645-0.447-2.468-0.658c-0.754-0.194-1.509-0.379-2.265-0.561    c-0.828-0.2-1.657-0.397-2.486-0.582c-0.752-0.168-1.504-0.326-2.257-0.483c-0.835-0.174-1.67-0.347-2.507-0.507    c-0.748-0.143-1.496-0.273-2.244-0.404c-0.841-0.148-1.682-0.296-2.523-0.429c-0.744-0.118-1.488-0.221-2.233-0.328    c-0.846-0.121-1.692-0.245-2.538-0.351c-0.737-0.093-1.473-0.169-2.21-0.251c-0.854-0.095-1.708-0.194-2.561-0.273    c-0.726-0.068-1.45-0.118-2.176-0.174c-0.863-0.068-1.726-0.142-2.588-0.194c-0.709-0.043-1.416-0.067-2.125-0.099    c-0.876-0.041-1.753-0.089-2.628-0.114c-0.664-0.019-1.327-0.017-1.99-0.026c-0.917-0.013-1.836-0.036-2.751-0.031    c-0.211,0.001-0.42,0.011-0.63,0.013c-2.269,0.021-4.531,0.104-6.785,0.232c-0.619,0.035-1.24,0.058-1.858,0.102    c-0.855,0.06-1.706,0.145-2.558,0.221c-0.707,0.063-1.415,0.116-2.12,0.189c-0.821,0.086-1.638,0.194-2.457,0.294    c-0.73,0.09-1.462,0.172-2.19,0.273c-0.801,0.111-1.598,0.243-2.395,0.368c-0.74,0.116-1.481,0.227-2.218,0.356    c-0.784,0.137-1.562,0.291-2.342,0.442c-0.745,0.144-1.491,0.284-2.233,0.44c-0.766,0.161-1.527,0.338-2.289,0.513    c-0.75,0.172-1.501,0.343-2.247,0.528c-0.747,0.185-1.488,0.384-2.231,0.582c-0.755,0.201-1.508,0.403-2.259,0.618    c-0.728,0.209-1.453,0.429-2.177,0.65c-0.756,0.231-1.51,0.465-2.261,0.709c-0.71,0.231-1.416,0.472-2.121,0.716    c-0.759,0.262-1.515,0.529-2.268,0.806c-0.687,0.252-1.37,0.511-2.052,0.775c-0.765,0.296-1.526,0.599-2.285,0.91    c-0.66,0.271-1.318,0.546-1.974,0.828c-0.349,0.15-0.704,0.288-1.052,0.441c-1.1-1.586-2.047-3.047-2.836-4.376    c0.081-0.853,0.178-1.856,0.29-3c0.441-4.484,0.96-9.482,1.555-14.867c1.67-15.115,3.595-30.227,5.746-44.341    c8.156,1.411,16.25,2.792,24.263,4.14c0.258,0.043,0.515,0.086,0.772,0.13c1.176,0.198,2.35,0.395,3.522,0.591    c0.612,0.102,1.223,0.204,1.835,0.307c0.818,0.136,1.635,0.273,2.451,0.409c0.866,0.144,1.731,0.288,2.595,0.431    c0.574,0.095,1.147,0.19,1.72,0.285c1.035,0.171,2.068,0.342,3.1,0.512c0.435,0.072,0.87,0.143,1.305,0.215    c1.104,0.182,2.206,0.362,3.307,0.543c0.364,0.06,0.727,0.119,1.09,0.178c1.16,0.19,2.317,0.378,3.472,0.566    c0.315,0.051,0.63,0.103,0.945,0.154c1.168,0.19,2.333,0.378,3.496,0.566c0.323,0.052,0.646,0.104,0.969,0.156    c1.13,0.182,2.258,0.364,3.383,0.544c0.381,0.061,0.761,0.122,1.141,0.183c1.041,0.167,2.081,0.333,3.118,0.498    c0.504,0.08,1.007,0.16,1.511,0.24c0.917,0.146,1.833,0.291,2.747,0.436c0.617,0.098,1.232,0.195,1.847,0.292    c0.791,0.125,1.581,0.249,2.368,0.373c0.814,0.128,1.625,0.255,2.436,0.382c0.548,0.086,1.097,0.172,1.644,0.257    c1.067,0.167,2.13,0.332,3.192,0.496c0.328,0.051,0.658,0.102,0.986,0.153c1.302,0.202,2.599,0.402,3.893,0.6    c0.075,0.012,0.151,0.023,0.226,0.035c58.23,8.945,108.093,15.082,139.268,16.097v25.747c0,4.713,3.82,8.533,8.533,8.533    s8.533-3.82,8.533-8.533v-25.747c29.609-0.964,76.075-6.548,130.549-14.769c0.259-0.039,0.519-0.079,0.778-0.118    c1.081-0.163,2.164-0.327,3.251-0.493c0.555-0.084,1.113-0.17,1.669-0.255c0.821-0.125,1.641-0.251,2.465-0.377    c0.757-0.116,1.517-0.233,2.277-0.35c0.608-0.094,1.215-0.187,1.825-0.282c0.942-0.146,1.888-0.292,2.834-0.44    c0.442-0.069,0.883-0.137,1.325-0.206c1.103-0.172,2.21-0.345,3.318-0.519c0.282-0.044,0.563-0.088,0.846-0.133    c1.198-0.188,2.398-0.377,3.602-0.567c0.227-0.036,0.454-0.072,0.682-0.108c1.292-0.204,2.587-0.41,3.886-0.617    c0.107-0.017,0.215-0.034,0.322-0.051c1.394-0.222,2.792-0.445,4.193-0.67c0.027-0.004,0.054-0.009,0.081-0.013    c1.43-0.229,2.863-0.46,4.3-0.692c0.039-0.006,0.079-0.013,0.118-0.019c1.402-0.226,2.807-0.454,4.216-0.683    c0.105-0.017,0.211-0.034,0.316-0.051c1.325-0.215,2.653-0.432,3.983-0.65c0.226-0.037,0.451-0.074,0.677-0.111    c1.198-0.196,2.398-0.393,3.601-0.591c0.408-0.067,0.817-0.135,1.226-0.202c1.01-0.167,2.021-0.333,3.034-0.501    c0.662-0.11,1.326-0.22,1.989-0.33c0.743-0.123,1.486-0.247,2.23-0.37c1.078-0.179,2.158-0.359,3.238-0.54    c0.302-0.05,0.603-0.101,0.905-0.151c9.512-1.591,19.144-3.23,28.864-4.911c2.148,14.114,4.071,29.225,5.74,44.34    c0.595,5.384,1.114,10.383,1.555,14.867c0.113,1.147,0.21,2.152,0.291,3.007c-0.787,1.327-1.732,2.787-2.832,4.372    c-0.314-0.139-0.635-0.263-0.95-0.399C490.222,228.961,489.497,228.657,488.769,228.359z M281.662,364.68    c-0.006,0.202-0.011,0.404-0.016,0.607c-0.036,1.452-0.048,2.903-0.033,4.354c0.002,0.178,0.006,0.357,0.009,0.535    c0.022,1.48,0.066,2.958,0.141,4.435c0.006,0.125,0.015,0.25,0.022,0.375c0.082,1.534,0.189,3.067,0.33,4.596    c0.002,0.022,0.005,0.044,0.007,0.066c0.143,1.55,0.318,3.097,0.522,4.641c0.01,0.073,0.017,0.146,0.027,0.219    c0.199,1.487,0.43,2.969,0.685,4.449c0.018,0.103,0.03,0.206,0.048,0.309h-54.795c0.025-0.141,0.041-0.284,0.065-0.426    c0.243-1.421,0.466-2.845,0.658-4.273c0.019-0.143,0.035-0.286,0.053-0.429c0.188-1.439,0.351-2.881,0.486-4.325    c0.009-0.095,0.02-0.19,0.029-0.286c0.134-1.467,0.235-2.937,0.316-4.409c0.01-0.19,0.024-0.38,0.033-0.57    c0.071-1.418,0.113-2.839,0.135-4.26c0.004-0.24,0.009-0.48,0.012-0.72c0.014-1.395,0.001-2.791-0.032-4.188    c-0.006-0.26-0.012-0.52-0.02-0.781c-0.008-0.268-0.011-0.535-0.021-0.802c7.336-5.575,16.263-8.664,25.682-8.664    c9.419,0,18.345,3.089,25.682,8.664C281.674,364.091,281.67,364.385,281.662,364.68z M31.728,126.127    c5.89,1.147,12.523,2.421,19.772,3.79c21.231,4.009,43.398,8.018,65.402,11.761c11.227,1.91,22.144,3.703,32.667,5.36    c47.849,7.536,84.628,11.827,106.436,11.827c21.808,0,58.587-4.291,106.436-11.827c10.523-1.657,21.44-3.451,32.667-5.36    c22.005-3.743,44.171-7.752,65.402-11.761c7.248-1.369,13.881-2.642,19.771-3.789c1.383,5.864,2.744,12.59,4.086,20.114    c-9.06,1.568-18.059,3.102-26.962,4.595c-0.088,0.015-0.176,0.03-0.264,0.044c-1.198,0.201-2.394,0.4-3.588,0.6    c-0.511,0.085-1.022,0.17-1.533,0.255c-0.784,0.13-1.566,0.26-2.348,0.39c-0.907,0.15-1.813,0.301-2.717,0.45    c-0.484,0.08-0.969,0.16-1.452,0.24c-1.113,0.184-2.225,0.367-3.334,0.549c-0.318,0.052-0.636,0.104-0.954,0.157    c-1.271,0.208-2.539,0.416-3.805,0.622c-0.176,0.029-0.351,0.057-0.527,0.086c-1.381,0.225-2.759,0.449-4.133,0.672    c-0.085,0.014-0.17,0.028-0.254,0.041c-4.456,0.722-8.878,1.431-13.26,2.126c-0.017,0.003-0.033,0.005-0.05,0.008    c-1.416,0.225-2.827,0.447-4.235,0.669c-0.08,0.013-0.159,0.025-0.239,0.038c-1.298,0.204-2.592,0.407-3.883,0.609    c-0.203,0.032-0.406,0.064-0.608,0.095c-1.13,0.176-2.255,0.351-3.378,0.526c-0.368,0.057-0.737,0.115-1.105,0.172    c-0.922,0.143-1.841,0.284-2.759,0.426c-0.562,0.087-1.126,0.174-1.686,0.26c-0.649,0.1-1.294,0.198-1.941,0.297    c-0.836,0.128-1.674,0.256-2.507,0.383c-0.332,0.051-0.662,0.1-0.993,0.151c-1.111,0.169-2.221,0.337-3.325,0.504    c-0.03,0.004-0.059,0.009-0.089,0.013c-59.085,8.908-108.779,14.715-136.431,14.715c-29.537,0-84.199-6.622-148.626-16.577    c-0.168-0.026-0.334-0.052-0.502-0.078c-1.047-0.162-2.098-0.325-3.149-0.489c-0.445-0.069-0.889-0.138-1.334-0.208    c-0.844-0.132-1.691-0.264-2.538-0.397c-0.647-0.101-1.294-0.203-1.943-0.305c-0.682-0.107-1.366-0.215-2.049-0.323    c-0.818-0.129-1.635-0.258-2.456-0.388c-0.535-0.085-1.073-0.17-1.609-0.255c-1-0.159-2.001-0.318-3.005-0.478    c-0.363-0.058-0.727-0.116-1.091-0.174c-1.13-0.181-2.263-0.362-3.398-0.545c-0.333-0.054-0.667-0.107-1.001-0.161    c-1.144-0.184-2.291-0.369-3.44-0.555c-0.349-0.057-0.699-0.113-1.049-0.17c-1.156-0.187-2.314-0.376-3.474-0.565    c-0.316-0.052-0.632-0.103-0.948-0.155c-1.176-0.192-2.354-0.385-3.535-0.578c-0.353-0.058-0.706-0.116-1.059-0.174    c-1.076-0.177-2.155-0.354-3.234-0.532c-0.511-0.084-1.022-0.169-1.533-0.253c-0.934-0.154-1.87-0.309-2.806-0.465    c-0.649-0.108-1.298-0.216-1.948-0.324c-0.74-0.123-1.48-0.247-2.221-0.37c-0.894-0.149-1.788-0.298-2.684-0.449    c-0.454-0.076-0.908-0.152-1.363-0.228c-1.209-0.203-2.418-0.406-3.631-0.61c-0.085-0.014-0.17-0.029-0.255-0.043    c-7.439-1.254-14.941-2.536-22.487-3.842C28.976,138.735,30.34,132.003,31.728,126.127z M190.654,385.894    c-30.713-18.053-122.525-99.122-159.58-142.287c0.288-0.113,0.573-0.231,0.862-0.342c0.526-0.201,1.054-0.397,1.583-0.59    c0.731-0.267,1.464-0.526,2.201-0.777c0.52-0.178,1.042-0.352,1.565-0.522c0.761-0.247,1.526-0.484,2.294-0.714    c0.507-0.152,1.013-0.305,1.523-0.45c0.803-0.229,1.61-0.445,2.419-0.656c0.482-0.126,0.962-0.255,1.446-0.375    c0.867-0.214,1.739-0.412,2.612-0.606c0.433-0.096,0.864-0.199,1.298-0.29c0.995-0.209,1.997-0.399,3-0.583    c0.317-0.058,0.632-0.124,0.95-0.179c2.693-0.47,5.412-0.849,8.151-1.134c0.139-0.014,0.279-0.023,0.419-0.038    c1.211-0.122,2.426-0.228,3.645-0.314c0.356-0.025,0.714-0.04,1.071-0.062c1.006-0.062,2.013-0.118,3.023-0.156    c0.436-0.016,0.874-0.023,1.312-0.034c0.934-0.025,1.869-0.045,2.807-0.049c0.478-0.002,0.956,0.004,1.435,0.007    c0.903,0.006,1.807,0.019,2.712,0.045c0.496,0.014,0.993,0.034,1.49,0.053c0.893,0.036,1.787,0.08,2.682,0.134    c0.502,0.031,1.005,0.064,1.507,0.1c0.897,0.065,1.794,0.14,2.692,0.224c0.498,0.046,0.995,0.093,1.494,0.145    c0.914,0.096,1.829,0.205,2.744,0.32c0.479,0.06,0.957,0.118,1.436,0.183c0.954,0.13,1.908,0.277,2.863,0.429    c0.438,0.07,0.876,0.134,1.314,0.208c1.04,0.176,2.079,0.37,3.118,0.571c0.351,0.068,0.702,0.128,1.052,0.199    c1.3,0.261,2.599,0.543,3.896,0.844c0.088,0.02,0.176,0.037,0.264,0.058c2.818,0.658,5.631,1.411,8.432,2.253    c0.323,0.097,0.645,0.204,0.968,0.304c1.052,0.325,2.104,0.656,3.153,1.007c0.434,0.145,0.867,0.301,1.3,0.45    c0.936,0.323,1.872,0.651,2.804,0.994c0.482,0.178,0.962,0.364,1.443,0.547c0.883,0.336,1.764,0.677,2.643,1.032    c0.505,0.204,1.008,0.414,1.511,0.624c0.853,0.356,1.705,0.718,2.554,1.092c0.513,0.225,1.024,0.455,1.535,0.686    c0.84,0.381,1.677,0.771,2.513,1.169c0.508,0.242,1.015,0.486,1.522,0.734c0.839,0.412,1.675,0.836,2.509,1.265    c0.494,0.255,0.989,0.508,1.481,0.768c0.851,0.451,1.697,0.915,2.543,1.384c0.466,0.259,0.934,0.513,1.399,0.778    c0.891,0.507,1.777,1.032,2.661,1.559c0.41,0.245,0.823,0.483,1.232,0.732c1.007,0.615,2.007,1.249,3.005,1.891    c0.278,0.179,0.56,0.35,0.837,0.531c1.286,0.839,2.565,1.7,3.833,2.584c1.433,0.999,2.843,2.021,4.229,3.061    c0.361,0.271,0.708,0.553,1.066,0.826c1.006,0.769,2.01,1.54,2.991,2.33c0.509,0.41,1.001,0.833,1.504,1.249    c0.809,0.669,1.621,1.336,2.412,2.019c0.556,0.48,1.095,0.973,1.642,1.46c0.715,0.636,1.433,1.269,2.132,1.917    c0.568,0.526,1.12,1.063,1.678,1.596c0.655,0.626,1.313,1.249,1.953,1.884c0.564,0.559,1.112,1.128,1.665,1.694    c0.612,0.626,1.225,1.251,1.823,1.886c0.551,0.585,1.087,1.178,1.626,1.77c0.576,0.632,1.151,1.264,1.714,1.903    c0.533,0.607,1.054,1.221,1.575,1.834c0.544,0.64,1.086,1.28,1.616,1.927c0.512,0.625,1.014,1.256,1.514,1.888    c0.515,0.651,1.027,1.303,1.529,1.96c0.489,0.64,0.968,1.285,1.444,1.931c0.487,0.661,0.97,1.325,1.444,1.992    c0.464,0.654,0.921,1.312,1.373,1.972c0.461,0.673,0.915,1.349,1.362,2.028c0.438,0.665,0.871,1.333,1.296,2.004    c0.435,0.686,0.862,1.374,1.283,2.065c0.411,0.674,0.818,1.351,1.217,2.03c0.409,0.698,0.809,1.4,1.204,2.103    c0.384,0.682,0.765,1.365,1.136,2.052c0.383,0.71,0.755,1.424,1.125,2.139c0.356,0.689,0.712,1.378,1.055,2.071    c0.358,0.723,0.701,1.449,1.045,2.176c0.327,0.693,0.656,1.386,0.971,2.083c0.332,0.737,0.649,1.478,0.967,2.219    c0.297,0.694,0.599,1.386,0.883,2.083c0.307,0.753,0.597,1.509,0.889,2.265c0.268,0.692,0.541,1.384,0.796,2.079    c0.282,0.77,0.544,1.544,0.81,2.316c0.237,0.687,0.481,1.372,0.705,2.061c0.259,0.796,0.495,1.595,0.737,2.394    c0.203,0.671,0.417,1.34,0.608,2.012c0.239,0.841,0.453,1.685,0.673,2.528c0.166,0.635,0.345,1.268,0.5,1.904    c0.234,0.957,0.439,1.918,0.648,2.878c0.115,0.525,0.244,1.048,0.351,1.573c0.301,1.474,0.573,2.95,0.816,4.427    c0.084,0.512,0.146,1.025,0.223,1.537c0.147,0.979,0.299,1.958,0.421,2.937c0.079,0.635,0.133,1.27,0.201,1.904    c0.092,0.857,0.191,1.714,0.263,2.571c0.027,0.324,0.04,0.647,0.064,0.971c0.002,0.152,0.006,0.304,0.017,0.455    c0.001,0.008,0,0.015,0,0.023c0.421,5.913,0.363,11.768-0.162,17.517c-0.019,0.208-0.04,0.416-0.06,0.624    c-0.112,1.152-0.247,2.299-0.398,3.443c-0.055,0.417-0.114,0.833-0.174,1.249c-0.135,0.935-0.285,1.866-0.445,2.795    c-0.1,0.572-0.205,1.144-0.314,1.714c-0.049,0.256-0.104,0.511-0.155,0.767c-0.035,0.177-0.072,0.354-0.108,0.53h-8.038    C198.722,389.267,194.421,388.106,190.654,385.894z M321.35,385.895c-3.764,2.21-8.065,3.372-12.512,3.372H300.8    c-0.095-0.463-0.192-0.925-0.281-1.389c-0.103-0.541-0.204-1.082-0.298-1.625c-0.16-0.927-0.31-1.858-0.445-2.792    c-0.061-0.416-0.119-0.833-0.175-1.25c-0.15-1.143-0.285-2.289-0.398-3.441c-0.021-0.209-0.041-0.418-0.061-0.627    c-0.526-5.749-0.583-11.603-0.162-17.516c0.001-0.008,0-0.016,0-0.024c0.01-0.151,0.014-0.302,0.017-0.454    c0.023-0.307,0.035-0.615,0.061-0.922c0.086-1.035,0.202-2.07,0.317-3.105c0.051-0.458,0.089-0.916,0.145-1.374    c0.163-1.317,0.356-2.634,0.566-3.95c0.028-0.175,0.048-0.351,0.076-0.527c0.247-1.506,0.524-3.01,0.831-4.513    c0.044-0.218,0.1-0.434,0.146-0.652c0.267-1.269,0.547-2.536,0.856-3.801c0.116-0.473,0.25-0.943,0.372-1.416    c0.259-1.007,0.518-2.015,0.804-3.019c0.158-0.555,0.336-1.108,0.502-1.662c0.275-0.917,0.548-1.834,0.846-2.748    c0.194-0.596,0.406-1.188,0.61-1.781c0.297-0.867,0.592-1.734,0.909-2.598c0.227-0.619,0.471-1.234,0.709-1.851    c0.32-0.832,0.639-1.664,0.978-2.492c0.258-0.632,0.532-1.26,0.801-1.89c0.345-0.807,0.69-1.614,1.053-2.416    c0.288-0.638,0.59-1.272,0.889-1.908c0.37-0.785,0.742-1.57,1.129-2.351c0.318-0.642,0.648-1.28,0.977-1.918    c0.395-0.766,0.794-1.531,1.205-2.292c0.346-0.641,0.702-1.278,1.06-1.915c0.421-0.75,0.847-1.498,1.284-2.242    c0.373-0.636,0.755-1.27,1.14-1.902c0.448-0.735,0.902-1.468,1.365-2.198c0.399-0.629,0.805-1.255,1.215-1.879    c0.475-0.722,0.959-1.441,1.449-2.157c0.424-0.62,0.853-1.237,1.289-1.851c0.503-0.709,1.015-1.413,1.533-2.115    c0.448-0.608,0.899-1.214,1.358-1.816c0.532-0.698,1.076-1.39,1.623-2.081c0.47-0.593,0.94-1.185,1.42-1.771    c0.564-0.688,1.14-1.369,1.719-2.05c0.488-0.574,0.976-1.149,1.474-1.717c0.599-0.682,1.212-1.355,1.826-2.028    c0.503-0.551,1.003-1.105,1.516-1.65c0.64-0.68,1.295-1.349,1.951-2.019c0.511-0.522,1.017-1.048,1.537-1.564    c0.69-0.684,1.397-1.356,2.103-2.029c0.51-0.486,1.013-0.976,1.531-1.456c0.758-0.702,1.536-1.39,2.313-2.079    c0.488-0.433,0.968-0.873,1.463-1.301c0.867-0.749,1.756-1.481,2.644-2.214c0.426-0.351,0.843-0.711,1.274-1.058    c1.107-0.892,2.237-1.765,3.377-2.63c0.229-0.174,0.449-0.354,0.68-0.527c1.395-1.047,2.813-2.074,4.255-3.08    c1.274-0.889,2.558-1.753,3.851-2.597c0.231-0.151,0.465-0.293,0.697-0.442c1.04-0.671,2.084-1.332,3.135-1.973    c0.397-0.242,0.798-0.474,1.197-0.712c0.893-0.533,1.788-1.063,2.688-1.575c0.464-0.264,0.932-0.519,1.398-0.778    c0.843-0.468,1.687-0.931,2.536-1.381c0.5-0.265,1.002-0.522,1.504-0.78c0.823-0.424,1.648-0.842,2.476-1.249    c0.518-0.255,1.038-0.504,1.558-0.752c0.821-0.391,1.645-0.775,2.47-1.15c0.525-0.238,1.051-0.474,1.578-0.706    c0.832-0.365,1.666-0.721,2.501-1.069c0.521-0.217,1.041-0.435,1.563-0.645c0.857-0.346,1.717-0.679,2.578-1.007    c0.502-0.191,1.003-0.386,1.506-0.571c0.907-0.334,1.816-0.652,2.726-0.966c0.459-0.159,0.917-0.323,1.377-0.477    c1.014-0.339,2.032-0.659,3.05-0.974c0.356-0.11,0.711-0.228,1.068-0.335c1.37-0.412,2.742-0.804,4.117-1.172    c0.005-0.001,0.011-0.003,0.016-0.005c1.422-0.38,2.846-0.736,4.272-1.069c0.129-0.03,0.258-0.055,0.387-0.085    c1.257-0.29,2.514-0.564,3.773-0.817c0.373-0.075,0.746-0.139,1.119-0.211c1.018-0.196,2.036-0.387,3.054-0.559    c0.451-0.076,0.902-0.142,1.353-0.214c0.941-0.149,1.883-0.294,2.824-0.423c0.488-0.067,0.976-0.125,1.464-0.187    c0.907-0.114,1.813-0.222,2.72-0.317c0.503-0.053,1.005-0.1,1.508-0.146c0.894-0.083,1.788-0.158,2.681-0.223    c0.505-0.037,1.009-0.07,1.513-0.101c0.894-0.054,1.787-0.098,2.679-0.134c0.497-0.02,0.995-0.039,1.492-0.053    c0.906-0.026,1.81-0.038,2.714-0.045c0.476-0.003,0.953-0.009,1.429-0.007c0.942,0.004,1.881,0.024,2.819,0.049    c0.432,0.012,0.866,0.018,1.297,0.034c1.021,0.038,2.04,0.094,3.057,0.157c0.345,0.021,0.69,0.036,1.034,0.06    c1.245,0.087,2.486,0.196,3.723,0.321c0.113,0.011,0.227,0.019,0.34,0.03c2.748,0.286,5.475,0.666,8.177,1.138    c0.275,0.048,0.547,0.105,0.822,0.155c1.048,0.191,2.093,0.39,3.133,0.609c0.399,0.084,0.795,0.179,1.193,0.267    c0.911,0.202,1.821,0.409,2.725,0.633c0.449,0.111,0.895,0.231,1.342,0.348c0.848,0.221,1.695,0.447,2.536,0.688    c0.47,0.134,0.937,0.275,1.405,0.415c0.813,0.244,1.624,0.495,2.431,0.757c0.477,0.155,0.953,0.315,1.427,0.476    c0.791,0.269,1.578,0.548,2.362,0.835c0.475,0.174,0.948,0.349,1.42,0.529c0.315,0.12,0.627,0.25,0.941,0.373    C443.876,286.774,352.065,367.841,321.35,385.895z"/>
	</g>
</g>
<g>
</g>
<g>
</g>
<g>
</g>
<g>
</g>
<g>
</g>
<g>
</g>
<g>
</g>
<g>
</g>
<g>
</g>
<g>
</g>
<g>
</g>
<g>
</g>
<g>
</g>
<g>
</g>
<g>
</g>
</svg>
