<?xml version="1.0" encoding="iso-8859-1"?>
<!-- Generator: Adobe Illustrator 19.0.0, SVG Export Plug-In . SVG Version: 6.00 Build 0)  -->
<svg xmlns="http://www.w3.org/2000/svg" xmlns:xlink="http://www.w3.org/1999/xlink" version="1.1" id="Layer_1" x="0px" y="0px" viewBox="0 0 511.998 511.998" style="enable-background:new 0 0 511.998 511.998;" xml:space="preserve">
<g>
	<g>
		<path d="M511.858,292.874c-0.811-4.497-20.181-111.078-44.8-177.655c-0.014-0.039-0.033-0.075-0.047-0.113    c-0.004-0.01-0.006-0.019-0.01-0.029c-1.707-4.369-3.191-8.593-4.608-12.587c-3.576-10.103-6.665-18.825-11.563-26.163    c-1.877-2.807-5.205-4.233-8.568-3.669C379.21,83.657,299.235,89.596,255.997,89.596S132.784,83.657,69.731,72.657    c-3.362-0.572-6.69,0.853-8.559,3.669c-4.907,7.339-7.987,16.06-11.563,26.163c-1.417,3.994-2.91,8.218-4.617,12.587    c-0.009,0.023-0.014,0.047-0.023,0.07c-0.009,0.025-0.021,0.048-0.031,0.073C20.321,181.796,0.95,288.377,0.14,292.874    c-0.341,1.86-0.051,3.772,0.811,5.444c1.587,3.063,3.721,6.272,6.511,9.805c0.102,0.128,0.223,0.234,0.331,0.356    c31.998,40.006,141.275,105.894,174.168,125.23c0.016,0.009,0.03,0.021,0.046,0.03c6.374,3.746,13.696,5.726,21.163,5.726h105.66    c7.35,0,14.556-1.928,20.981-5.634c0.063-0.035,0.128-0.06,0.191-0.097c32.875-19.328,142.405-85.384,174.292-125.355    c0.076-0.089,0.163-0.163,0.236-0.255c2.799-3.533,4.932-6.741,6.519-9.805C511.909,296.646,512.199,294.735,511.858,292.874z     M330.019,413.888c-1.842-5.604-2.976-11.366-3.357-17.218c-0.029-0.438-0.091-0.868-0.183-1.287    c-0.043-0.952-0.085-1.905-0.085-2.857c0-49.399,53.666-89.6,119.62-89.6c12.417,0,24.58,1.444,36.318,4.284    C453.022,336.408,387.854,379.47,330.019,413.888z M72.684,90.475c63.019,10.522,140.698,16.188,183.313,16.188    s120.294-5.666,183.313-16.188c2.475,4.949,4.617,10.982,6.989,17.707c0.331,0.933,0.668,1.881,1.009,2.837    c-63.615,7.548-140.709,12.709-191.314,12.709c-50.589,0-127.692-5.161-191.308-12.709c0.341-0.955,0.678-1.903,1.009-2.836    C68.076,101.457,70.209,95.424,72.684,90.475z M58.661,127.481c61.538,7.468,136.64,12.728,188.803,13.264v24.721    c0,4.71,3.823,8.533,8.533,8.533s8.533-3.823,8.533-8.533v-24.721c52.172-0.536,127.277-5.796,188.805-13.264    c20.77,59.153,37.854,147.712,41.156,165.325c-15.548-4.608-31.821-6.946-48.478-6.946c-64.113,0-118.051,34.633-132.733,81.18    l-15.398-33.537c-1.971-4.292-7.031-6.161-11.315-4.198c-4.275,1.971-6.161,7.04-4.19,11.324l20.058,43.68    c-14.514-3.01-30.264-4.576-46.439-4.576c-16.293,0-32.154,1.591-46.756,4.645l20.356-43.707c1.988-4.275,0.145-9.353-4.13-11.349    c-4.275-1.971-9.344-0.136-11.341,4.139L198.62,366.76c-14.807-46.406-68.654-80.9-132.646-80.9    c-16.648,0-32.93,2.338-48.469,6.946C20.799,275.193,37.874,186.66,58.661,127.481z M185.509,395.44    c-0.001,0.005-0.001,0.01-0.002,0.014c-0.078,0.368-0.129,0.737-0.157,1.106c-0.003,0.037-0.013,0.073-0.016,0.11    c-0.38,5.853-1.514,11.615-3.355,17.22c-57.839-34.436-123.012-77.497-152.315-106.679c11.738-2.841,23.9-4.285,36.31-4.285    c65.963,0,119.62,40.201,119.62,89.6C185.595,393.498,185.553,394.469,185.509,395.44z M203.168,422.398    c-1.965,0-3.904-0.229-5.8-0.687c2.176-5.928,3.687-11.938,4.521-17.99c32.415-9.077,75.797-9.078,108.214-0.001    c0.835,6.053,2.349,12.063,4.528,17.992c-1.889,0.45-3.828,0.688-5.802,0.688H203.168z"/>
	</g>
</g>
<g>
</g>
<g>
</g>
<g>
</g>
<g>
</g>
<g>
</g>
<g>
</g>
<g>
</g>
<g>
</g>
<g>
</g>
<g>
</g>
<g>
</g>
<g>
</g>
<g>
</g>
<g>
</g>
<g>
</g>
</svg>
