<?xml version="1.0" encoding="iso-8859-1"?>
<!-- Generator: Adobe Illustrator 19.0.0, SVG Export Plug-In . SVG Version: 6.00 Build 0)  -->
<svg xmlns="http://www.w3.org/2000/svg" xmlns:xlink="http://www.w3.org/1999/xlink" version="1.1" id="Layer_1" x="0px" y="0px" viewBox="0 0 512 512" style="enable-background:new 0 0 512 512;" xml:space="preserve">
<g transform="translate(0 -1)">
	<g>
		<path d="M512,137.828c0-19.503-15.808-35.31-35.31-35.31h-17.655c-10.55,0-20.013,4.632-26.483,11.966    c-6.47-7.334-15.933-11.966-26.483-11.966h-17.655c-10.55,0-20.013,4.632-26.483,11.966c-6.47-7.334-15.932-11.966-26.483-11.966    h-17.655c-10.55,0-20.013,4.632-26.483,11.966c-6.47-7.334-15.933-11.966-26.483-11.966h-17.655    c-10.55,0-20.013,4.632-26.483,11.966c-6.47-7.334-15.932-11.966-26.483-11.966h-17.655c-10.55,0-20.013,4.632-26.483,11.966    c-6.47-7.334-15.933-11.966-26.483-11.966h-17.655c-10.55,0-20.013,4.632-26.483,11.966c-6.47-7.334-15.933-11.966-26.483-11.966    H35.31c-19.503,0-35.31,15.808-35.31,35.31c0,16.92,11.901,31.052,27.789,34.5c6.543,24.032,37.438,73.794,78.771,129.648    c48.331,65.313,88.48,109.508,105.303,109.508h88.276c16.823,0,56.972-44.195,105.303-109.508    c41.332-55.855,72.227-105.616,78.771-129.648C500.099,168.879,512,154.748,512,137.828z M388.414,120.172h17.655    c9.752,0,17.655,7.903,17.655,17.655c0,9.752-7.903,17.655-17.655,17.655h-17.655c-9.752,0-17.655-7.903-17.655-17.655    C370.759,128.076,378.662,120.172,388.414,120.172z M434.084,162.814c0.032,0.032,0.066,0.062,0.099,0.094    c0.449,0.445,0.913,0.876,1.386,1.297c0.153,0.136,0.308,0.268,0.463,0.401c0.38,0.327,0.768,0.646,1.162,0.957    c0.155,0.122,0.309,0.246,0.466,0.366c0.539,0.411,1.087,0.811,1.65,1.19c0.004,0.003,0.008,0.006,0.012,0.009    c-0.131,0.073-0.264,0.153-0.395,0.226c-0.35,0.196-0.702,0.402-1.054,0.603c-0.8,0.457-1.602,0.923-2.406,1.403    c-0.401,0.24-0.803,0.482-1.206,0.727c-0.794,0.484-1.591,0.98-2.389,1.485c-0.37,0.234-0.74,0.465-1.11,0.703    c-1.053,0.678-2.11,1.373-3.169,2.088c-0.103,0.069-0.204,0.134-0.307,0.204c-1.161,0.787-2.326,1.599-3.492,2.428    c-0.351,0.249-0.703,0.507-1.055,0.76c-0.829,0.597-1.658,1.201-2.489,1.819c-0.41,0.305-0.821,0.613-1.231,0.922    c-0.809,0.61-1.619,1.231-2.43,1.86c-0.383,0.297-0.765,0.591-1.148,0.892c-1.036,0.814-2.073,1.644-3.111,2.488    c-0.141,0.115-0.282,0.225-0.424,0.341c-1.177,0.962-2.355,1.946-3.533,2.945c-0.35,0.296-0.699,0.6-1.049,0.9    c-0.841,0.721-1.682,1.448-2.523,2.187c-0.413,0.363-0.826,0.729-1.24,1.097c-0.811,0.721-1.622,1.452-2.433,2.19    c-0.387,0.352-0.774,0.702-1.161,1.058c-1.01,0.929-2.019,1.871-3.028,2.825c-0.17,0.161-0.34,0.317-0.51,0.478    c-1.175,1.116-2.349,2.251-3.52,3.4c-0.34,0.333-0.679,0.673-1.018,1.008c-0.842,0.832-1.683,1.671-2.523,2.519    c-0.41,0.414-0.819,0.831-1.228,1.248c-0.799,0.816-1.597,1.64-2.394,2.47c-0.386,0.402-0.772,0.803-1.158,1.208    c-0.967,1.017-1.931,2.045-2.894,3.082c-0.197,0.212-0.395,0.42-0.591,0.633c-1.153,1.249-2.303,2.513-3.448,3.789    c-0.321,0.357-0.64,0.72-0.96,1.079c-0.835,0.937-1.667,1.878-2.497,2.829c-0.394,0.452-0.787,0.906-1.181,1.36    c-0.779,0.901-1.555,1.807-2.329,2.719c-0.377,0.444-0.754,0.887-1.13,1.333c-0.92,1.093-1.835,2.196-2.748,3.305    c-0.207,0.252-0.416,0.5-0.622,0.752c-1.114,1.361-2.222,2.734-3.324,4.118c-0.298,0.374-0.593,0.753-0.891,1.129    c-0.809,1.023-1.616,2.051-2.418,3.086c-0.378,0.487-0.754,0.976-1.13,1.466c-0.741,0.964-1.478,1.934-2.212,2.908    c-0.363,0.482-0.727,0.962-1.088,1.446c-0.855,1.144-1.704,2.295-2.549,3.451c-0.216,0.296-0.435,0.589-0.651,0.886    c-1.054,1.45-2.1,2.91-3.138,4.377c-0.271,0.383-0.538,0.77-0.808,1.154c-0.771,1.097-1.537,2.198-2.298,3.304    c-0.352,0.512-0.701,1.025-1.051,1.538c-0.693,1.018-1.381,2.039-2.066,3.063c-0.341,0.511-0.683,1.021-1.021,1.533    c-0.779,1.177-1.55,2.36-2.317,3.545c-0.217,0.336-0.438,0.67-0.654,1.007c-0.974,1.516-1.938,3.04-2.892,4.569    c-0.242,0.388-0.48,0.779-0.721,1.169c-0.714,1.154-1.423,2.309-2.125,3.469c-0.321,0.531-0.639,1.062-0.957,1.594    c-0.632,1.056-1.258,2.114-1.88,3.174c-0.311,0.53-0.622,1.06-0.93,1.592c-0.696,1.201-1.383,2.405-2.065,3.61    c-0.206,0.365-0.416,0.728-0.621,1.093c-0.877,1.563-1.741,3.13-2.593,4.7c-0.208,0.384-0.411,0.769-0.617,1.154    c-0.643,1.196-1.281,2.393-1.909,3.593c-0.285,0.545-0.567,1.09-0.849,1.636c-0.555,1.074-1.104,2.149-1.647,3.226    c-0.276,0.547-0.552,1.094-0.825,1.642c-0.599,1.202-1.187,2.406-1.769,3.611c-0.19,0.392-0.383,0.784-0.571,1.176    c-0.76,1.588-1.505,3.177-2.236,4.767c-0.168,0.366-0.329,0.731-0.496,1.097c-0.561,1.234-1.116,2.469-1.659,3.704    c-0.238,0.542-0.472,1.083-0.706,1.624c-0.471,1.088-0.935,2.176-1.391,3.264c-0.231,0.551-0.462,1.101-0.689,1.652    c-0.493,1.196-0.975,2.391-1.45,3.586c-0.162,0.407-0.328,0.814-0.488,1.221c-0.624,1.592-1.232,3.182-1.823,4.771    c-0.128,0.344-0.248,0.687-0.374,1.031c-0.459,1.251-0.909,2.502-1.347,3.751c-0.188,0.537-0.371,1.073-0.555,1.61    c-0.371,1.082-0.734,2.163-1.088,3.243c-0.18,0.55-0.361,1.099-0.537,1.648c-0.374,1.168-0.736,2.333-1.09,3.497    c-0.128,0.422-0.262,0.844-0.387,1.266c-0.469,1.572-0.92,3.142-1.35,4.707c-0.086,0.313-0.165,0.625-0.249,0.938    c-0.34,1.257-0.669,2.511-0.983,3.763c-0.132,0.523-0.257,1.045-0.384,1.567c-0.259,1.063-0.508,2.125-0.748,3.184    c-0.122,0.538-0.243,1.076-0.36,1.614c-0.246,1.131-0.479,2.259-0.703,3.385c-0.084,0.423-0.174,0.848-0.255,1.271    c-0.294,1.532-0.569,3.06-0.821,4.58c-0.046,0.278-0.084,0.553-0.128,0.83c-0.2,1.245-0.387,2.486-0.558,3.723    c-0.069,0.503-0.132,1.004-0.196,1.506c-0.132,1.029-0.255,2.055-0.367,3.076c-0.057,0.522-0.113,1.043-0.164,1.564    c-0.106,1.077-0.198,2.149-0.28,3.219c-0.032,0.419-0.071,0.841-0.099,1.259c-0.009,0.134-0.023,0.27-0.032,0.405h-71.211    c-0.009-0.134-0.023-0.27-0.032-0.405c-0.029-0.418-0.067-0.839-0.099-1.259c-0.082-1.069-0.174-2.141-0.28-3.219    c-0.051-0.52-0.107-1.042-0.164-1.564c-0.111-1.022-0.234-2.048-0.367-3.076c-0.065-0.502-0.127-1.003-0.196-1.506    c-0.171-1.236-0.358-2.477-0.558-3.723c-0.045-0.277-0.082-0.552-0.128-0.83c-0.252-1.52-0.527-3.047-0.821-4.58    c-0.081-0.422-0.171-0.847-0.255-1.271c-0.224-1.126-0.456-2.253-0.703-3.385c-0.117-0.537-0.238-1.075-0.36-1.614    c-0.24-1.059-0.489-2.12-0.748-3.184c-0.127-0.522-0.252-1.044-0.384-1.567c-0.314-1.251-0.643-2.506-0.983-3.763    c-0.085-0.313-0.163-0.624-0.249-0.938c-0.43-1.565-0.882-3.134-1.35-4.707c-0.126-0.421-0.259-0.844-0.387-1.266    c-0.354-1.164-0.716-2.33-1.09-3.497c-0.176-0.549-0.356-1.099-0.537-1.648c-0.354-1.08-0.717-2.161-1.088-3.243    c-0.184-0.537-0.367-1.073-0.555-1.61c-0.438-1.249-0.888-2.5-1.347-3.751c-0.126-0.344-0.247-0.687-0.374-1.031    c-0.59-1.589-1.198-3.18-1.823-4.771c-0.16-0.407-0.326-0.814-0.488-1.221c-0.475-1.195-0.957-2.391-1.45-3.586    c-0.227-0.551-0.458-1.101-0.689-1.652c-0.456-1.088-0.92-2.176-1.391-3.264c-0.234-0.542-0.468-1.083-0.706-1.624    c-0.543-1.235-1.097-2.47-1.659-3.704c-0.166-0.366-0.328-0.731-0.496-1.097c-0.73-1.59-1.476-3.179-2.236-4.767    c-0.188-0.392-0.382-0.784-0.571-1.176c-0.582-1.205-1.171-2.408-1.769-3.611c-0.273-0.548-0.549-1.095-0.825-1.642    c-0.543-1.077-1.092-2.152-1.647-3.226c-0.282-0.546-0.564-1.091-0.849-1.636c-0.628-1.2-1.265-2.397-1.909-3.593    c-0.207-0.384-0.409-0.77-0.617-1.154c-0.852-1.57-1.716-3.137-2.593-4.7c-0.205-0.365-0.415-0.728-0.621-1.093    c-0.682-1.206-1.369-2.41-2.065-3.61c-0.308-0.531-0.619-1.061-0.93-1.592c-0.621-1.06-1.248-2.118-1.88-3.174    c-0.318-0.532-0.636-1.063-0.957-1.594c-0.702-1.16-1.411-2.316-2.125-3.469c-0.241-0.389-0.479-0.78-0.721-1.169    c-0.954-1.529-1.918-3.052-2.892-4.569c-0.216-0.337-0.437-0.671-0.654-1.007c-0.767-1.186-1.538-2.368-2.317-3.545    c-0.339-0.512-0.68-1.022-1.021-1.533c-0.684-1.025-1.373-2.046-2.066-3.063c-0.35-0.513-0.699-1.027-1.051-1.538    c-0.761-1.106-1.527-2.207-2.298-3.304c-0.27-0.384-0.537-0.771-0.808-1.154c-1.038-1.468-2.083-2.927-3.138-4.377    c-0.216-0.297-0.435-0.59-0.651-0.886c-0.845-1.156-1.694-2.307-2.549-3.451c-0.362-0.484-0.725-0.964-1.088-1.446    c-0.734-0.974-1.471-1.943-2.212-2.908c-0.376-0.49-0.752-0.979-1.13-1.466c-0.802-1.035-1.609-2.062-2.418-3.086    c-0.297-0.376-0.593-0.755-0.891-1.129c-1.102-1.383-2.21-2.757-3.324-4.118c-0.207-0.253-0.415-0.501-0.622-0.752    c-0.912-1.109-1.828-2.211-2.748-3.305c-0.376-0.447-0.753-0.889-1.13-1.333c-0.774-0.912-1.551-1.819-2.329-2.719    c-0.393-0.455-0.786-0.909-1.181-1.36c-0.83-0.95-1.663-1.892-2.497-2.829c-0.32-0.359-0.639-0.722-0.96-1.079    c-1.146-1.276-2.295-2.54-3.448-3.789c-0.197-0.213-0.395-0.421-0.591-0.633c-0.962-1.037-1.927-2.065-2.894-3.082    c-0.385-0.406-0.772-0.806-1.158-1.208c-0.797-0.83-1.595-1.654-2.394-2.47c-0.409-0.418-0.818-0.834-1.228-1.248    c-0.84-0.848-1.681-1.687-2.523-2.519c-0.339-0.336-0.678-0.675-1.018-1.008c-1.172-1.149-2.345-2.284-3.52-3.4    c-0.17-0.161-0.34-0.317-0.51-0.478c-1.008-0.954-2.018-1.896-3.028-2.825c-0.387-0.356-0.774-0.706-1.161-1.058    c-0.811-0.738-1.622-1.468-2.433-2.19c-0.413-0.367-0.826-0.734-1.24-1.097c-0.841-0.739-1.682-1.467-2.523-2.187    c-0.35-0.3-0.699-0.604-1.049-0.9c-1.178-0.999-2.356-1.983-3.533-2.945c-0.141-0.116-0.282-0.226-0.424-0.341    c-1.038-0.844-2.075-1.673-3.111-2.488c-0.383-0.301-0.765-0.595-1.148-0.892c-0.811-0.629-1.621-1.25-2.43-1.86    c-0.411-0.31-0.821-0.618-1.231-0.922c-0.831-0.617-1.66-1.222-2.489-1.819c-0.352-0.253-0.704-0.511-1.055-0.76    c-1.167-0.829-2.331-1.641-3.492-2.428c-0.103-0.07-0.205-0.134-0.307-0.204c-1.059-0.714-2.115-1.409-3.169-2.088    c-0.371-0.239-0.74-0.469-1.11-0.703c-0.798-0.505-1.594-1.001-2.389-1.485c-0.402-0.245-0.804-0.488-1.206-0.727    c-0.804-0.48-1.606-0.946-2.406-1.403c-0.351-0.201-0.703-0.406-1.054-0.603c-0.131-0.074-0.264-0.153-0.395-0.226    c0.004-0.003,0.008-0.006,0.012-0.009c0.563-0.38,1.111-0.78,1.65-1.19c0.157-0.12,0.311-0.244,0.466-0.367    c0.394-0.311,0.781-0.629,1.161-0.956c0.155-0.133,0.311-0.266,0.464-0.402c0.473-0.421,0.936-0.851,1.385-1.297    c0.032-0.032,0.067-0.062,0.099-0.094c0.478-0.478,0.939-0.972,1.389-1.476c0.046-0.052,0.097-0.1,0.143-0.152    c0.054,0.061,0.112,0.118,0.166,0.178c0.23,0.257,0.467,0.508,0.704,0.758c0.168,0.178,0.334,0.357,0.507,0.531    c0.255,0.258,0.518,0.508,0.781,0.758c0.164,0.156,0.324,0.316,0.491,0.469c0.305,0.279,0.618,0.548,0.933,0.816    c0.134,0.114,0.264,0.234,0.399,0.346c0.454,0.376,0.917,0.741,1.389,1.094c0.078,0.058,0.16,0.112,0.239,0.17    c0.397,0.292,0.798,0.578,1.208,0.854c0.172,0.116,0.35,0.223,0.524,0.336c0.322,0.208,0.644,0.416,0.973,0.614    c0.206,0.124,0.416,0.24,0.625,0.359c0.306,0.176,0.612,0.351,0.924,0.518c0.223,0.119,0.449,0.231,0.675,0.346    c0.306,0.155,0.612,0.309,0.923,0.455c0.235,0.111,0.473,0.216,0.71,0.321c0.309,0.137,0.619,0.272,0.933,0.401    c0.244,0.1,0.491,0.196,0.738,0.291c0.314,0.121,0.63,0.237,0.949,0.349c0.252,0.088,0.504,0.174,0.759,0.257    c0.322,0.105,0.646,0.204,0.972,0.3c0.256,0.075,0.512,0.149,0.771,0.219c0.332,0.089,0.666,0.171,1.002,0.251    c0.258,0.061,0.516,0.124,0.776,0.179c0.346,0.074,0.695,0.138,1.045,0.202c0.254,0.046,0.508,0.096,0.764,0.136    c0.368,0.059,0.739,0.106,1.111,0.153c0.244,0.031,0.486,0.067,0.731,0.093c0.412,0.044,0.828,0.073,1.243,0.102    c0.209,0.015,0.415,0.036,0.625,0.047c0.627,0.033,1.258,0.052,1.894,0.052h17.655c0.635,0,1.267-0.019,1.894-0.052    c0.21-0.011,0.416-0.033,0.625-0.047c0.416-0.029,0.832-0.059,1.243-0.102c0.245-0.026,0.487-0.062,0.731-0.093    c0.372-0.047,0.743-0.094,1.111-0.153c0.256-0.041,0.51-0.09,0.764-0.136c0.35-0.064,0.699-0.128,1.045-0.202    c0.26-0.056,0.518-0.118,0.776-0.179c0.336-0.08,0.671-0.162,1.003-0.251c0.258-0.069,0.514-0.143,0.77-0.219    c0.326-0.096,0.651-0.195,0.974-0.3c0.254-0.083,0.506-0.168,0.758-0.256c0.319-0.112,0.635-0.228,0.949-0.349    c0.247-0.095,0.494-0.191,0.738-0.291c0.313-0.128,0.623-0.263,0.932-0.4c0.238-0.106,0.476-0.211,0.711-0.321    c0.311-0.146,0.617-0.3,0.922-0.455c0.226-0.114,0.452-0.227,0.675-0.346c0.312-0.167,0.618-0.342,0.924-0.518    c0.208-0.12,0.419-0.235,0.625-0.359c0.328-0.197,0.649-0.405,0.97-0.613c0.175-0.113,0.354-0.222,0.527-0.338    c0.406-0.273,0.804-0.557,1.198-0.846c0.082-0.06,0.167-0.116,0.249-0.177c0.472-0.353,0.935-0.718,1.389-1.094    c0.136-0.112,0.265-0.232,0.399-0.346c0.314-0.268,0.628-0.537,0.933-0.816c0.168-0.153,0.329-0.314,0.493-0.47    c0.262-0.249,0.524-0.498,0.779-0.756c0.173-0.175,0.34-0.356,0.51-0.535c0.236-0.249,0.472-0.498,0.701-0.754    c0.054-0.061,0.113-0.118,0.167-0.179c0.054,0.061,0.112,0.118,0.167,0.179c0.229,0.256,0.465,0.505,0.701,0.754    c0.169,0.179,0.337,0.36,0.51,0.535c0.254,0.257,0.517,0.506,0.779,0.756c0.165,0.157,0.326,0.317,0.493,0.47    c0.305,0.279,0.618,0.548,0.933,0.816c0.134,0.114,0.264,0.234,0.399,0.346c0.454,0.376,0.916,0.741,1.389,1.094    c0.081,0.06,0.166,0.116,0.247,0.176c0.395,0.29,0.793,0.575,1.2,0.848c0.172,0.116,0.35,0.223,0.524,0.336    c0.322,0.208,0.644,0.416,0.973,0.614c0.206,0.124,0.416,0.24,0.625,0.359c0.306,0.176,0.612,0.351,0.924,0.518    c0.223,0.119,0.449,0.231,0.675,0.346c0.306,0.155,0.612,0.309,0.923,0.455c0.235,0.111,0.473,0.216,0.71,0.321    c0.309,0.137,0.619,0.272,0.933,0.401c0.244,0.1,0.491,0.196,0.738,0.291c0.314,0.121,0.63,0.237,0.949,0.349    c0.252,0.088,0.504,0.174,0.759,0.257c0.322,0.105,0.646,0.204,0.972,0.3c0.256,0.075,0.512,0.149,0.771,0.219    c0.332,0.089,0.666,0.171,1.002,0.251c0.258,0.061,0.516,0.124,0.776,0.179c0.346,0.074,0.695,0.138,1.045,0.202    c0.254,0.046,0.508,0.096,0.764,0.136c0.368,0.059,0.739,0.106,1.111,0.153c0.244,0.031,0.486,0.067,0.731,0.093    c0.412,0.044,0.828,0.073,1.243,0.102c0.209,0.015,0.415,0.036,0.625,0.047c0.627,0.033,1.258,0.052,1.894,0.052h17.655    c0.635,0,1.267-0.019,1.894-0.052c0.21-0.011,0.416-0.033,0.625-0.047c0.416-0.029,0.832-0.059,1.243-0.102    c0.245-0.026,0.488-0.062,0.731-0.093c0.371-0.047,0.743-0.094,1.111-0.153c0.256-0.041,0.509-0.09,0.764-0.136    c0.35-0.064,0.699-0.128,1.045-0.202c0.26-0.056,0.518-0.118,0.776-0.179c0.336-0.08,0.67-0.161,1.002-0.251    c0.258-0.069,0.515-0.144,0.771-0.219c0.326-0.096,0.65-0.195,0.972-0.3c0.254-0.083,0.507-0.168,0.759-0.257    c0.318-0.112,0.634-0.228,0.949-0.349c0.247-0.095,0.493-0.191,0.738-0.291c0.314-0.129,0.624-0.263,0.933-0.401    c0.238-0.106,0.475-0.21,0.71-0.321c0.311-0.146,0.617-0.3,0.923-0.455c0.226-0.114,0.452-0.227,0.675-0.346    c0.312-0.167,0.618-0.342,0.924-0.518c0.208-0.12,0.419-0.235,0.625-0.359c0.329-0.198,0.651-0.406,0.973-0.614    c0.174-0.113,0.352-0.22,0.524-0.336c0.407-0.273,0.805-0.558,1.2-0.848c0.081-0.06,0.166-0.115,0.247-0.176    c0.472-0.353,0.935-0.718,1.389-1.094c0.136-0.112,0.265-0.232,0.399-0.346c0.314-0.268,0.628-0.537,0.933-0.816    c0.168-0.153,0.329-0.314,0.493-0.47c0.262-0.249,0.524-0.498,0.779-0.756c0.173-0.175,0.34-0.356,0.51-0.535    c0.236-0.249,0.472-0.498,0.701-0.754c0.054-0.061,0.113-0.118,0.167-0.179c0.054,0.061,0.112,0.118,0.167,0.179    c0.229,0.256,0.465,0.505,0.701,0.754c0.17,0.179,0.337,0.36,0.51,0.535c0.254,0.257,0.516,0.505,0.777,0.754    c0.165,0.157,0.327,0.318,0.496,0.472c0.304,0.278,0.617,0.546,0.931,0.814c0.135,0.115,0.265,0.234,0.401,0.347    c0.454,0.376,0.917,0.741,1.389,1.094c0.079,0.059,0.161,0.113,0.24,0.171c0.397,0.291,0.797,0.577,1.206,0.852    c0.173,0.116,0.352,0.225,0.528,0.338c0.321,0.208,0.642,0.415,0.97,0.612c0.206,0.124,0.416,0.24,0.625,0.359    c0.306,0.176,0.612,0.351,0.924,0.518c0.223,0.119,0.449,0.231,0.675,0.346c0.306,0.155,0.612,0.309,0.923,0.455    c0.235,0.111,0.473,0.216,0.71,0.321c0.309,0.137,0.619,0.272,0.933,0.401c0.244,0.1,0.491,0.196,0.738,0.291    c0.314,0.121,0.63,0.237,0.949,0.349c0.252,0.088,0.504,0.174,0.759,0.257c0.322,0.105,0.646,0.204,0.972,0.3    c0.256,0.075,0.512,0.149,0.771,0.219c0.332,0.089,0.666,0.171,1.002,0.251c0.258,0.061,0.516,0.124,0.776,0.179    c0.346,0.074,0.695,0.138,1.045,0.202c0.254,0.046,0.508,0.096,0.764,0.136c0.368,0.059,0.739,0.106,1.111,0.153    c0.244,0.031,0.486,0.067,0.731,0.093c0.412,0.044,0.828,0.073,1.243,0.102c0.209,0.015,0.415,0.036,0.625,0.047    c0.627,0.033,1.258,0.052,1.894,0.052h17.655c0.635,0,1.267-0.019,1.894-0.052c0.21-0.011,0.416-0.033,0.625-0.047    c0.416-0.029,0.832-0.059,1.243-0.102c0.245-0.026,0.487-0.062,0.731-0.093c0.372-0.047,0.743-0.094,1.111-0.153    c0.256-0.041,0.509-0.09,0.763-0.136c0.35-0.064,0.699-0.128,1.045-0.202c0.26-0.056,0.518-0.118,0.776-0.179    c0.336-0.08,0.671-0.162,1.003-0.251c0.258-0.069,0.514-0.143,0.77-0.219c0.326-0.096,0.651-0.195,0.974-0.3    c0.254-0.083,0.506-0.168,0.757-0.256c0.319-0.112,0.635-0.229,0.95-0.349c0.247-0.095,0.493-0.191,0.737-0.291    c0.314-0.129,0.624-0.263,0.934-0.401c0.237-0.105,0.475-0.21,0.709-0.321c0.312-0.147,0.618-0.301,0.925-0.456    c0.225-0.114,0.451-0.226,0.672-0.344c0.313-0.167,0.62-0.344,0.928-0.52c0.207-0.119,0.417-0.234,0.622-0.357    c0.329-0.198,0.65-0.406,0.972-0.614c0.175-0.113,0.353-0.221,0.526-0.337c0.409-0.275,0.809-0.561,1.206-0.852    c0.079-0.058,0.161-0.112,0.24-0.171c0.473-0.353,0.936-0.719,1.39-1.094c0.134-0.111,0.262-0.228,0.394-0.341    c0.316-0.269,0.631-0.54,0.938-0.82c0.168-0.153,0.329-0.314,0.493-0.47c0.262-0.249,0.524-0.498,0.779-0.756    c0.173-0.175,0.34-0.356,0.51-0.535c0.236-0.249,0.472-0.498,0.701-0.754c0.054-0.061,0.113-0.118,0.167-0.179    c0.054,0.061,0.112,0.118,0.167,0.179c0.229,0.256,0.465,0.505,0.701,0.754c0.169,0.179,0.337,0.36,0.51,0.535    c0.254,0.257,0.517,0.506,0.779,0.756c0.165,0.157,0.326,0.317,0.493,0.47c0.305,0.279,0.618,0.548,0.933,0.816    c0.134,0.114,0.264,0.234,0.399,0.346c0.454,0.376,0.916,0.741,1.389,1.094c0.081,0.06,0.166,0.116,0.247,0.176    c0.395,0.29,0.793,0.575,1.2,0.848c0.172,0.116,0.35,0.223,0.524,0.336c0.322,0.208,0.644,0.416,0.973,0.614    c0.206,0.124,0.416,0.24,0.625,0.359c0.306,0.176,0.612,0.351,0.924,0.518c0.223,0.119,0.449,0.231,0.675,0.346    c0.306,0.155,0.612,0.309,0.923,0.455c0.235,0.111,0.473,0.216,0.71,0.321c0.309,0.137,0.619,0.272,0.933,0.401    c0.244,0.1,0.491,0.196,0.738,0.291c0.314,0.121,0.63,0.237,0.949,0.349c0.252,0.088,0.504,0.174,0.759,0.257    c0.322,0.105,0.646,0.204,0.972,0.3c0.256,0.075,0.512,0.149,0.771,0.219c0.332,0.089,0.666,0.171,1.002,0.251    c0.258,0.061,0.516,0.124,0.776,0.179c0.346,0.074,0.695,0.138,1.045,0.202c0.254,0.046,0.508,0.096,0.764,0.136    c0.368,0.059,0.739,0.106,1.111,0.153c0.244,0.031,0.486,0.067,0.731,0.093c0.412,0.044,0.828,0.073,1.243,0.102    c0.209,0.015,0.415,0.036,0.625,0.047c0.627,0.033,1.258,0.052,1.894,0.052h17.655c0.635,0,1.267-0.019,1.894-0.052    c0.21-0.011,0.416-0.033,0.625-0.047c0.416-0.029,0.832-0.059,1.243-0.102c0.245-0.026,0.488-0.062,0.731-0.093    c0.371-0.047,0.743-0.094,1.111-0.153c0.256-0.041,0.509-0.09,0.764-0.136c0.35-0.064,0.699-0.128,1.045-0.202    c0.26-0.056,0.518-0.118,0.776-0.179c0.336-0.08,0.67-0.161,1.002-0.251c0.258-0.069,0.515-0.144,0.771-0.219    c0.326-0.096,0.65-0.195,0.972-0.3c0.254-0.083,0.507-0.168,0.759-0.257c0.318-0.112,0.634-0.228,0.949-0.349    c0.247-0.095,0.493-0.191,0.738-0.291c0.314-0.129,0.624-0.263,0.933-0.401c0.238-0.106,0.475-0.21,0.71-0.321    c0.311-0.146,0.617-0.3,0.923-0.455c0.226-0.114,0.452-0.227,0.675-0.346c0.312-0.167,0.618-0.342,0.924-0.518    c0.208-0.12,0.419-0.235,0.625-0.359c0.329-0.198,0.651-0.406,0.973-0.614c0.174-0.113,0.352-0.22,0.524-0.336    c0.407-0.273,0.805-0.558,1.2-0.848c0.081-0.06,0.166-0.115,0.247-0.176c0.472-0.353,0.935-0.718,1.389-1.094    c0.136-0.112,0.265-0.232,0.399-0.346c0.314-0.268,0.628-0.537,0.933-0.816c0.168-0.153,0.329-0.314,0.493-0.47    c0.262-0.249,0.524-0.498,0.779-0.756c0.173-0.175,0.34-0.356,0.51-0.535c0.236-0.249,0.472-0.498,0.701-0.754    c0.054-0.061,0.113-0.118,0.167-0.179c0.054,0.061,0.112,0.118,0.167,0.179c0.229,0.256,0.465,0.505,0.701,0.754    c0.169,0.179,0.337,0.36,0.51,0.535c0.254,0.257,0.517,0.506,0.779,0.756c0.165,0.157,0.326,0.317,0.493,0.47    c0.305,0.279,0.618,0.548,0.933,0.816c0.134,0.114,0.264,0.234,0.399,0.346c0.454,0.376,0.916,0.741,1.389,1.094    c0.081,0.061,0.167,0.117,0.249,0.177c0.394,0.289,0.792,0.573,1.198,0.846c0.173,0.116,0.352,0.225,0.527,0.338    c0.321,0.208,0.642,0.415,0.97,0.613c0.206,0.124,0.416,0.24,0.625,0.359c0.306,0.176,0.612,0.351,0.924,0.518    c0.223,0.119,0.449,0.231,0.675,0.346c0.306,0.155,0.612,0.309,0.922,0.455c0.235,0.111,0.473,0.216,0.711,0.321    c0.309,0.137,0.618,0.272,0.932,0.4c0.245,0.1,0.491,0.196,0.738,0.291c0.314,0.121,0.63,0.237,0.949,0.349    c0.251,0.088,0.504,0.174,0.758,0.256c0.322,0.105,0.647,0.204,0.974,0.3c0.256,0.075,0.512,0.149,0.77,0.219    c0.332,0.089,0.667,0.171,1.003,0.251c0.258,0.061,0.516,0.123,0.776,0.179c0.346,0.074,0.695,0.138,1.045,0.202    c0.254,0.046,0.508,0.096,0.764,0.136c0.368,0.059,0.739,0.106,1.111,0.153c0.244,0.031,0.486,0.067,0.731,0.093    c0.412,0.044,0.828,0.073,1.243,0.102c0.209,0.015,0.415,0.036,0.625,0.047c0.627,0.033,1.258,0.052,1.894,0.052h17.655    c0.635,0,1.267-0.019,1.894-0.052c0.21-0.011,0.416-0.033,0.625-0.047c0.416-0.029,0.832-0.059,1.243-0.102    c0.245-0.026,0.488-0.062,0.731-0.093c0.371-0.047,0.743-0.094,1.111-0.153c0.256-0.041,0.509-0.09,0.764-0.136    c0.35-0.064,0.699-0.128,1.045-0.202c0.26-0.056,0.518-0.118,0.776-0.179c0.336-0.08,0.67-0.161,1.002-0.251    c0.258-0.069,0.515-0.144,0.771-0.219c0.326-0.096,0.65-0.195,0.972-0.3c0.254-0.083,0.507-0.168,0.759-0.257    c0.318-0.112,0.634-0.228,0.949-0.349c0.247-0.095,0.493-0.191,0.738-0.291c0.314-0.129,0.624-0.263,0.933-0.401    c0.238-0.106,0.475-0.21,0.71-0.321c0.311-0.146,0.617-0.3,0.923-0.455c0.226-0.114,0.452-0.227,0.675-0.346    c0.312-0.167,0.618-0.342,0.924-0.518c0.208-0.12,0.419-0.235,0.625-0.359c0.329-0.198,0.651-0.406,0.973-0.614    c0.174-0.113,0.352-0.22,0.524-0.336c0.41-0.275,0.811-0.562,1.208-0.854c0.079-0.058,0.16-0.111,0.239-0.17    c0.473-0.353,0.936-0.718,1.389-1.094c0.136-0.112,0.265-0.232,0.399-0.346c0.314-0.268,0.628-0.537,0.933-0.816    c0.167-0.153,0.327-0.313,0.491-0.469c0.263-0.25,0.526-0.5,0.781-0.758c0.172-0.174,0.338-0.354,0.507-0.531    c0.237-0.25,0.474-0.501,0.704-0.758c0.054-0.06,0.112-0.117,0.166-0.178c0.046,0.052,0.097,0.1,0.143,0.152    C433.145,161.841,433.606,162.336,434.084,162.814z M317.793,120.172h17.655c9.752,0,17.655,7.903,17.655,17.655    c0,9.752-7.903,17.655-17.655,17.655h-17.655c-9.752,0-17.655-7.903-17.655-17.655    C300.138,128.076,308.041,120.172,317.793,120.172z M247.172,120.172h17.655c9.752,0,17.655,7.903,17.655,17.655    c0,9.752-7.903,17.655-17.655,17.655h-17.655c-9.752,0-17.655-7.903-17.655-17.655    C229.517,128.076,237.42,120.172,247.172,120.172z M176.552,120.172h17.655c9.752,0,17.655,7.903,17.655,17.655    c0,9.752-7.903,17.655-17.655,17.655h-17.655c-9.752,0-17.655-7.903-17.655-17.655C158.897,128.076,166.8,120.172,176.552,120.172    z M105.931,120.172h17.655c9.752,0,17.655,7.903,17.655,17.655c0,9.752-7.903,17.655-17.655,17.655h-17.655    c-9.752,0-17.655-7.903-17.655-17.655C88.276,128.076,96.179,120.172,105.931,120.172z M17.655,137.828    c0-9.752,7.903-17.655,17.655-17.655h17.655c9.752,0,17.655,7.903,17.655,17.655c0,9.752-7.903,17.655-17.655,17.655H35.31    C25.558,155.483,17.655,147.58,17.655,137.828z M179.637,364.444c-17.14-18.867-38.084-44.86-58.886-72.97    c-35.65-48.176-64.399-93.864-73.552-116.142c0.014,0.004,0.026,0.008,0.04,0.012c0.11,0.036,0.225,0.08,0.335,0.118    c0.712,0.24,1.432,0.495,2.163,0.77c0.286,0.108,0.577,0.226,0.866,0.339c0.568,0.222,1.139,0.451,1.718,0.694    c0.33,0.139,0.663,0.284,0.996,0.429c0.557,0.243,1.119,0.495,1.685,0.756c0.34,0.157,0.68,0.314,1.022,0.477    c0.596,0.284,1.199,0.582,1.805,0.885c0.314,0.157,0.625,0.309,0.941,0.472c0.768,0.395,1.545,0.808,2.327,1.233    c0.157,0.086,0.312,0.164,0.47,0.251c0.941,0.517,1.892,1.058,2.852,1.618c0.281,0.164,0.566,0.338,0.849,0.506    c0.687,0.407,1.376,0.82,2.071,1.249c0.361,0.222,0.724,0.452,1.087,0.68c0.632,0.397,1.267,0.801,1.906,1.215    c0.381,0.247,0.764,0.497,1.148,0.75c0.644,0.425,1.292,0.86,1.942,1.302c0.37,0.252,0.74,0.501,1.112,0.758    c0.734,0.507,1.473,1.028,2.215,1.555c0.286,0.204,0.57,0.401,0.858,0.607c1.03,0.741,2.066,1.499,3.108,2.279    c0.194,0.145,0.39,0.297,0.584,0.444c0.85,0.64,1.704,1.29,2.561,1.955c0.365,0.283,0.732,0.574,1.098,0.862    c0.698,0.548,1.396,1.1,2.098,1.664c0.405,0.325,0.81,0.655,1.216,0.985c0.678,0.551,1.357,1.11,2.038,1.676    c0.406,0.337,0.812,0.674,1.219,1.017c0.723,0.608,1.449,1.228,2.175,1.852c0.357,0.307,0.714,0.609,1.071,0.92    c0.977,0.848,1.956,1.71,2.938,2.585c0.107,0.095,0.213,0.187,0.319,0.282c1.087,0.972,2.176,1.964,3.267,2.969    c0.335,0.309,0.671,0.626,1.007,0.938c0.76,0.706,1.52,1.417,2.281,2.139c0.408,0.387,0.817,0.78,1.225,1.171    c0.698,0.669,1.396,1.343,2.095,2.025c0.422,0.412,0.844,0.825,1.267,1.242c0.709,0.699,1.418,1.406,2.127,2.117    c0.397,0.398,0.793,0.794,1.19,1.196c0.816,0.827,1.632,1.666,2.448,2.51c0.283,0.292,0.566,0.58,0.848,0.874    c1.094,1.139,2.187,2.293,3.279,3.461c0.255,0.272,0.509,0.551,0.763,0.826c0.841,0.905,1.68,1.815,2.519,2.735    c0.386,0.424,0.771,0.854,1.157,1.282c0.71,0.787,1.419,1.578,2.127,2.376c0.416,0.469,0.831,0.941,1.245,1.413    c0.69,0.787,1.379,1.579,2.067,2.376c0.405,0.469,0.81,0.938,1.214,1.411c0.735,0.86,1.467,1.729,2.198,2.6    c0.345,0.412,0.691,0.82,1.036,1.234c1.069,1.286,2.135,2.581,3.195,3.89c1.207,1.491,2.399,2.989,3.579,4.49    c0.385,0.49,0.762,0.982,1.144,1.472c0.791,1.016,1.58,2.033,2.359,3.053c0.446,0.585,0.886,1.173,1.328,1.759    c0.703,0.933,1.404,1.866,2.097,2.802c0.461,0.623,0.917,1.247,1.374,1.872c0.664,0.908,1.324,1.818,1.977,2.729    c0.456,0.636,0.91,1.272,1.361,1.91c0.645,0.91,1.283,1.822,1.918,2.735c0.44,0.633,0.88,1.266,1.315,1.9    c0.645,0.94,1.281,1.882,1.915,2.825c0.406,0.604,0.816,1.208,1.218,1.813c0.685,1.032,1.359,2.066,2.031,3.1    c0.334,0.515,0.674,1.028,1.005,1.544c0.946,1.472,1.878,2.946,2.796,4.422c0.049,0.078,0.099,0.156,0.148,0.234    c0.966,1.556,1.914,3.114,2.849,4.674c0.294,0.49,0.578,0.981,0.869,1.471c0.633,1.069,1.265,2.138,1.883,3.208    c0.347,0.601,0.686,1.202,1.028,1.803c0.549,0.964,1.096,1.928,1.632,2.892c0.356,0.639,0.705,1.279,1.056,1.918    c0.51,0.93,1.015,1.861,1.512,2.791c0.349,0.653,0.695,1.305,1.038,1.958c0.488,0.927,0.968,1.854,1.444,2.781    c0.331,0.645,0.662,1.29,0.987,1.935c0.48,0.953,0.951,1.905,1.418,2.857c0.302,0.614,0.606,1.229,0.903,1.842    c0.498,1.032,0.983,2.064,1.466,3.095c0.248,0.531,0.503,1.062,0.747,1.592c0.644,1.397,1.272,2.793,1.887,4.188    c0.071,0.162,0.147,0.324,0.218,0.486c0.683,1.555,1.345,3.108,1.992,4.66c0.202,0.485,0.394,0.97,0.593,1.455    c0.438,1.068,0.873,2.135,1.293,3.201c0.234,0.593,0.458,1.185,0.687,1.777c0.369,0.956,0.735,1.912,1.089,2.866    c0.235,0.632,0.463,1.264,0.692,1.895c0.332,0.916,0.659,1.831,0.977,2.744c0.223,0.641,0.443,1.281,0.659,1.921    c0.308,0.909,0.608,1.817,0.903,2.723c0.205,0.632,0.41,1.263,0.608,1.893c0.292,0.926,0.572,1.85,0.85,2.773    c0.181,0.602,0.365,1.205,0.54,1.806c0.289,0.993,0.563,1.983,0.835,2.973c0.144,0.522,0.294,1.046,0.433,1.568    c0.347,1.301,0.675,2.598,0.992,3.891c0.05,0.205,0.107,0.412,0.156,0.617c0.361,1.496,0.7,2.987,1.02,4.472    c0.097,0.45,0.182,0.897,0.276,1.346c0.215,1.034,0.427,2.068,0.621,3.096c0.106,0.561,0.201,1.118,0.301,1.677    c0.164,0.913,0.324,1.826,0.472,2.735c0.096,0.595,0.185,1.188,0.274,1.78c0.131,0.869,0.257,1.737,0.373,2.601    c0.081,0.603,0.157,1.204,0.231,1.805c0.048,0.396,0.089,0.789,0.134,1.183C196.306,381.851,188.467,374.163,179.637,364.444z     M391.249,291.473c-20.802,28.11-41.746,54.103-58.886,72.97c-8.83,9.719-16.669,17.408-22.453,22.479    c0.045-0.395,0.086-0.788,0.134-1.183c0.073-0.601,0.15-1.202,0.231-1.805c0.116-0.864,0.242-1.732,0.373-2.601    c0.089-0.593,0.178-1.185,0.274-1.78c0.147-0.908,0.308-1.821,0.472-2.735c0.1-0.559,0.195-1.116,0.301-1.677    c0.195-1.028,0.406-2.062,0.621-3.096c0.093-0.449,0.178-0.896,0.276-1.346c0.32-1.485,0.659-2.976,1.02-4.472    c0.049-0.205,0.106-0.412,0.156-0.617c0.317-1.293,0.645-2.59,0.992-3.891c0.139-0.521,0.289-1.045,0.433-1.568    c0.272-0.99,0.546-1.979,0.835-2.973c0.175-0.601,0.359-1.204,0.54-1.806c0.277-0.923,0.558-1.847,0.85-2.773    c0.199-0.63,0.403-1.262,0.608-1.893c0.294-0.907,0.595-1.814,0.903-2.723c0.217-0.64,0.436-1.28,0.659-1.921    c0.318-0.913,0.645-1.828,0.977-2.744c0.229-0.631,0.457-1.263,0.692-1.895c0.354-0.954,0.721-1.91,1.089-2.866    c0.228-0.592,0.453-1.184,0.687-1.777c0.42-1.066,0.855-2.133,1.293-3.201c0.199-0.485,0.39-0.969,0.593-1.454    c0.647-1.552,1.31-3.107,1.993-4.663c0.066-0.149,0.136-0.299,0.201-0.449c0.62-1.406,1.254-2.814,1.903-4.223    c0.245-0.533,0.501-1.066,0.751-1.599c0.481-1.028,0.965-2.057,1.461-3.086c0.297-0.616,0.603-1.233,0.906-1.85    c0.467-0.951,0.937-1.902,1.416-2.853c0.325-0.645,0.656-1.29,0.987-1.935c0.476-0.927,0.956-1.854,1.444-2.781    c0.343-0.653,0.689-1.305,1.038-1.958c0.498-0.931,1.003-1.861,1.512-2.791c0.35-0.639,0.7-1.279,1.056-1.918    c0.536-0.963,1.081-1.925,1.63-2.887c0.344-0.604,0.684-1.207,1.033-1.811c0.614-1.063,1.242-2.126,1.871-3.188    c0.294-0.497,0.583-0.994,0.88-1.491c0.934-1.557,1.881-3.114,2.845-4.668c0.058-0.093,0.119-0.187,0.177-0.28    c0.909-1.461,1.831-2.919,2.767-4.376c0.333-0.519,0.676-1.037,1.013-1.555c0.67-1.031,1.341-2.062,2.024-3.09    c0.403-0.607,0.814-1.213,1.221-1.819c0.632-0.94,1.267-1.879,1.91-2.816c0.436-0.636,0.878-1.271,1.319-1.906    c0.634-0.912,1.271-1.822,1.915-2.731c0.453-0.639,0.908-1.277,1.365-1.915c0.652-0.908,1.31-1.815,1.972-2.72    c0.458-0.626,0.915-1.252,1.377-1.877c0.692-0.936,1.393-1.869,2.096-2.801c0.442-0.587,0.882-1.174,1.328-1.759    c0.779-1.021,1.568-2.037,2.359-3.053c0.382-0.491,0.759-0.983,1.144-1.472c1.18-1.502,2.372-2.999,3.579-4.49    c1.06-1.31,2.126-2.605,3.195-3.89c0.344-0.414,0.691-0.822,1.036-1.234c0.731-0.872,1.463-1.74,2.198-2.6    c0.404-0.473,0.809-0.942,1.214-1.411c0.688-0.797,1.376-1.59,2.067-2.376c0.415-0.473,0.83-0.944,1.245-1.413    c0.708-0.798,1.417-1.589,2.127-2.376c0.386-0.428,0.771-0.858,1.157-1.282c0.842-0.925,1.685-1.838,2.529-2.747    c0.25-0.269,0.5-0.544,0.751-0.812c1.092-1.168,2.185-2.321,3.279-3.461c0.285-0.297,0.571-0.587,0.856-0.882    c0.815-0.842,1.629-1.68,2.444-2.506c0.395-0.4,0.79-0.794,1.185-1.191c0.71-0.713,1.42-1.421,2.13-2.121    c0.421-0.415,0.842-0.828,1.263-1.239c0.7-0.683,1.399-1.358,2.098-2.028c0.408-0.391,0.816-0.783,1.224-1.17    c0.76-0.72,1.518-1.429,2.276-2.134c0.338-0.314,0.677-0.634,1.014-0.945c1.09-1.004,2.178-1.994,3.263-2.965    c0.113-0.101,0.226-0.198,0.339-0.299c0.975-0.87,1.949-1.727,2.92-2.57c0.358-0.311,0.714-0.613,1.072-0.92    c0.727-0.624,1.453-1.244,2.176-1.853c0.406-0.342,0.811-0.678,1.216-1.015c0.681-0.566,1.361-1.125,2.039-1.677    c0.407-0.331,0.814-0.661,1.219-0.987c0.699-0.562,1.395-1.112,2.09-1.658c0.369-0.289,0.738-0.583,1.106-0.868    c0.856-0.664,1.708-1.313,2.558-1.952c0.195-0.147,0.391-0.3,0.586-0.445c1.042-0.779,2.077-1.537,3.107-2.277    c0.29-0.208,0.576-0.407,0.865-0.613c0.739-0.526,1.477-1.046,2.209-1.551c0.372-0.257,0.742-0.506,1.113-0.758    c0.65-0.442,1.298-0.877,1.942-1.302c0.384-0.253,0.767-0.503,1.148-0.751c0.638-0.413,1.272-0.816,1.903-1.213    c0.364-0.229,0.729-0.459,1.091-0.682c0.696-0.429,1.385-0.842,2.072-1.249c0.281-0.167,0.565-0.341,0.845-0.504    c0.96-0.56,1.912-1.102,2.853-1.619c0.158-0.087,0.313-0.166,0.471-0.252c0.781-0.425,1.557-0.838,2.325-1.232    c0.317-0.163,0.63-0.316,0.944-0.474c0.605-0.303,1.207-0.601,1.803-0.884c0.343-0.163,0.683-0.321,1.022-0.477    c0.566-0.261,1.128-0.513,1.685-0.756c0.333-0.145,0.666-0.29,0.996-0.429c0.579-0.243,1.15-0.472,1.718-0.694    c0.289-0.113,0.58-0.232,0.866-0.339c0.731-0.275,1.451-0.531,2.163-0.77c0.111-0.037,0.225-0.081,0.335-0.118    c0.014-0.004,0.026-0.008,0.04-0.012C455.648,197.609,426.899,243.297,391.249,291.473z M476.69,155.483h-17.655    c-9.752,0-17.655-7.903-17.655-17.655c0-9.752,7.903-17.655,17.655-17.655h17.655c9.752,0,17.655,7.903,17.655,17.655    C494.345,147.58,486.442,155.483,476.69,155.483z"/>
	</g>
</g>
<g>
</g>
<g>
</g>
<g>
</g>
<g>
</g>
<g>
</g>
<g>
</g>
<g>
</g>
<g>
</g>
<g>
</g>
<g>
</g>
<g>
</g>
<g>
</g>
<g>
</g>
<g>
</g>
<g>
</g>
</svg>
