<?xml version="1.0" encoding="iso-8859-1"?>
<!-- Generator: Adobe Illustrator 19.0.0, SVG Export Plug-In . SVG Version: 6.00 Build 0)  -->
<svg xmlns="http://www.w3.org/2000/svg" xmlns:xlink="http://www.w3.org/1999/xlink" version="1.1" id="Layer_1" x="0px" y="0px" viewBox="0 0 512.036 512.036" style="enable-background:new 0 0 512.036 512.036;" xml:space="preserve">
<g transform="translate(-1 -1)">
	<g>
		<path d="M504.19,102.535c-12.724,0-30.781,3.48-121.512,22.252c-2.828,0.585-2.828,0.585-5.658,1.169    c-69.393,14.327-104.916,20.716-120.003,20.716c-15.087,0-50.609-6.389-120.003-20.716c-2.83-0.584-2.83-0.584-5.658-1.169    C40.626,106.015,22.569,102.535,9.845,102.535c-7.999,0-11.874,9.786-6.043,15.262c20.002,18.786,45.265,35.471,73.694,49.249    c88.593,67.431,144.211,146.007,144.211,235.627c0,4.875,3.952,8.828,8.828,8.828h52.966c4.875,0,8.828-3.952,8.828-8.828    c0-89.62,55.618-168.196,144.211-235.627c28.43-13.777,53.692-30.463,73.694-49.249    C516.064,112.321,512.189,102.535,504.19,102.535z M127.78,142.076c2.832,0.586,2.832,0.586,5.665,1.171    c60.815,12.556,95.367,19.01,114.745,20.651v26.79c-1.59-0.039-3.18-0.088-4.772-0.148c-0.6-0.023-1.2-0.043-1.8-0.069    c-2.235-0.096-4.472-0.207-6.71-0.344c-0.121-0.007-0.242-0.017-0.362-0.025c-2.121-0.132-4.244-0.285-6.366-0.453    c-0.598-0.047-1.197-0.098-1.795-0.148c-1.766-0.148-3.532-0.308-5.298-0.48c-0.534-0.052-1.068-0.101-1.601-0.155    c-2.253-0.229-4.506-0.475-6.758-0.743c-0.249-0.03-0.498-0.064-0.747-0.094c-1.966-0.238-3.93-0.493-5.894-0.761    c-0.704-0.096-1.408-0.196-2.111-0.296c-1.57-0.222-3.138-0.456-4.705-0.697c-0.729-0.112-1.459-0.221-2.188-0.337    c-2.072-0.33-4.142-0.674-6.209-1.036c-0.888-0.156-1.775-0.324-2.663-0.486c-1.212-0.221-2.423-0.443-3.633-0.675    c-1.205-0.231-2.409-0.469-3.613-0.71c-0.788-0.158-1.575-0.32-2.361-0.483c-32.472-6.724-64.198-17.373-93.003-31.305    c-0.416-0.201-0.827-0.357-1.236-0.493c-16.227-7.915-31.33-16.799-44.839-26.495C56.787,127.462,83.733,132.963,127.78,142.076z     M274.837,393.845h-35.639c-2.885-77.218-43.542-145.598-108.943-205.764c20.258,6.504,41.325,11.599,62.644,15.069    c0.125,0.02,0.25,0.041,0.375,0.062c2.458,0.398,4.919,0.773,7.383,1.127c0.318,0.046,0.637,0.091,0.955,0.136    c2.374,0.336,4.75,0.653,7.128,0.947c0.348,0.043,0.696,0.084,1.044,0.126c2.403,0.292,4.808,0.567,7.213,0.816    c0.189,0.02,0.378,0.036,0.567,0.056c2.328,0.238,4.657,0.454,6.985,0.651c0.286,0.024,0.571,0.051,0.857,0.075    c2.33,0.192,4.66,0.359,6.989,0.51c0.428,0.028,0.857,0.057,1.285,0.083c2.281,0.14,4.561,0.259,6.84,0.359    c0.436,0.019,0.871,0.037,1.306,0.054c2.312,0.093,4.621,0.169,6.928,0.22c0.323,0.007,0.646,0.011,0.969,0.017    c2.435,0.048,4.867,0.078,7.295,0.078c2.428,0,4.86-0.03,7.295-0.078c0.323-0.006,0.646-0.01,0.969-0.017    c2.307-0.051,4.617-0.127,6.928-0.22c0.435-0.018,0.871-0.035,1.306-0.054c2.278-0.1,4.558-0.219,6.84-0.359    c0.428-0.026,0.857-0.055,1.285-0.083c2.329-0.151,4.659-0.318,6.989-0.51c0.286-0.024,0.571-0.051,0.857-0.075    c2.328-0.197,4.657-0.413,6.985-0.651c0.189-0.019,0.378-0.036,0.567-0.056c2.405-0.249,4.81-0.524,7.213-0.816    c0.348-0.042,0.696-0.083,1.044-0.126c2.378-0.295,4.754-0.612,7.128-0.947c0.318-0.045,0.637-0.09,0.955-0.136    c2.464-0.354,4.925-0.729,7.383-1.127c0.125-0.02,0.25-0.041,0.375-0.062c21.319-3.469,42.386-8.564,62.644-15.069    C318.379,248.247,277.722,316.627,274.837,393.845z M429.673,150.75c-0.409,0.136-0.82,0.292-1.236,0.493    c-28.805,13.932-60.531,24.581-93.003,31.305c-0.786,0.162-1.573,0.325-2.36,0.483c-1.204,0.242-2.409,0.479-3.614,0.711    c-1.208,0.231-2.418,0.454-3.629,0.674c-0.889,0.162-1.777,0.331-2.667,0.487c-2.067,0.362-4.136,0.706-6.208,1.036    c-0.729,0.116-1.459,0.225-2.189,0.338c-1.567,0.241-3.135,0.474-4.704,0.696c-0.704,0.1-1.408,0.2-2.112,0.296    c-1.963,0.268-3.928,0.523-5.894,0.761c-0.249,0.03-0.498,0.064-0.747,0.094c-2.252,0.268-4.505,0.514-6.758,0.743    c-0.534,0.054-1.068,0.103-1.601,0.155c-1.766,0.172-3.532,0.333-5.298,0.48c-0.599,0.05-1.197,0.101-1.795,0.148    c-2.123,0.168-4.245,0.321-6.366,0.453c-0.121,0.008-0.242,0.017-0.362,0.025c-2.238,0.137-4.475,0.248-6.71,0.344    c-0.601,0.026-1.2,0.046-1.8,0.069c-1.592,0.061-3.183,0.109-4.772,0.148v-26.79c19.378-1.642,53.931-8.095,114.745-20.651    c2.834-0.585,2.834-0.585,5.665-1.171c44.046-9.113,70.992-14.614,88.256-17.821C461.002,133.951,445.9,142.836,429.673,150.75z"/>
	</g>
</g>
<g>
</g>
<g>
</g>
<g>
</g>
<g>
</g>
<g>
</g>
<g>
</g>
<g>
</g>
<g>
</g>
<g>
</g>
<g>
</g>
<g>
</g>
<g>
</g>
<g>
</g>
<g>
</g>
<g>
</g>
</svg>
