<?xml version="1.0" encoding="iso-8859-1"?>
<!-- Generator: Adobe Illustrator 19.0.0, SVG Export Plug-In . SVG Version: 6.00 Build 0)  -->
<svg xmlns="http://www.w3.org/2000/svg" xmlns:xlink="http://www.w3.org/1999/xlink" version="1.1" id="Layer_1" x="0px" y="0px" viewBox="0 0 512.004 512.004" style="enable-background:new 0 0 512.004 512.004;" xml:space="preserve">
<g transform="translate(0 -1)">
	<g>
		<path d="M511.99,176.205c0.005-0.179,0.006-0.357,0.002-0.536c-0.003-0.102-0.006-0.204-0.013-0.306    c-0.026-0.451-0.085-0.898-0.175-1.339l-8.451-50.708c-0.876-5.258-6.305-8.434-11.318-6.622    c-37.849,13.682-188.241,33.625-236.032,33.625S57.818,130.375,19.97,116.694c-5.013-1.812-10.442,1.364-11.318,6.622L0.2,174.025    c-0.09,0.441-0.149,0.888-0.175,1.338c-0.007,0.103-0.01,0.205-0.013,0.307c-0.005,0.178-0.004,0.356,0.002,0.534    c0.004,0.119,0.006,0.238,0.015,0.355c0.271,4.043,3.103,7.893,8.507,7.893c21.51,0,80.346,22.305,122.324,51.536    c58.753,40.912,87.454,91.87,74.159,151.351c-0.043,0.184-0.069,0.368-0.1,0.552c-0.032,0.185-0.062,0.37-0.083,0.551    c-0.007,0.075-0.013,0.149-0.019,0.224c-0.32,3.6,1.534,6.417,4.156,7.929c0.029,0.017,0.057,0.036,0.086,0.053    c0.236,0.133,0.479,0.253,0.726,0.364c0.165,0.076,0.334,0.143,0.505,0.208c0.132,0.05,0.265,0.094,0.399,0.138    c0.163,0.053,0.323,0.108,0.49,0.151c0.993,0.267,2.028,0.363,3.053,0.277h83.537c1.025,0.086,2.061-0.01,3.053-0.277    c0.167-0.043,0.328-0.098,0.49-0.151c0.134-0.044,0.268-0.088,0.4-0.139c0.171-0.065,0.34-0.133,0.505-0.208    c0.247-0.111,0.49-0.232,0.726-0.364c0.029-0.017,0.057-0.036,0.087-0.053c2.621-1.511,4.475-4.328,4.155-7.927    c-0.005-0.075-0.012-0.15-0.019-0.226c-0.02-0.18-0.051-0.364-0.083-0.547c-0.03-0.185-0.057-0.37-0.1-0.555    c-13.294-59.48,15.407-110.439,74.16-151.35c41.978-29.231,100.814-51.536,122.324-51.536c5.404,0,8.236-3.85,8.507-7.893    C511.984,176.442,511.986,176.324,511.99,176.205z M140.612,221.983c-17.861-12.437-38.516-23.665-58.495-32.66    c2.018,0.298,4.012,0.609,5.981,0.933c0.506,0.083,1.006,0.17,1.51,0.255c1.666,0.282,3.314,0.573,4.945,0.873    c0.5,0.092,1.003,0.183,1.499,0.277c2.03,0.384,4.038,0.779,6.013,1.192c0.201,0.042,0.397,0.087,0.597,0.129    c1.777,0.375,3.53,0.765,5.264,1.164c0.504,0.116,1.005,0.233,1.505,0.351c1.653,0.39,3.288,0.79,4.902,1.202    c0.263,0.067,0.531,0.131,0.793,0.199c1.861,0.481,3.692,0.978,5.5,1.488c0.398,0.112,0.79,0.228,1.186,0.342    c1.462,0.42,2.906,0.849,4.333,1.288c0.414,0.127,0.83,0.253,1.242,0.382c1.752,0.549,3.484,1.109,5.183,1.687    c0.091,0.031,0.179,0.063,0.269,0.094c1.595,0.545,3.162,1.105,4.711,1.675c0.406,0.149,0.809,0.3,1.212,0.451    c1.41,0.529,2.803,1.067,4.175,1.617c0.223,0.089,0.451,0.176,0.673,0.266c1.585,0.642,3.142,1.299,4.676,1.969    c0.301,0.131,0.595,0.266,0.894,0.398c1.261,0.559,2.505,1.128,3.731,1.706c0.333,0.157,0.669,0.313,0.999,0.472    c2.939,1.408,5.774,2.872,8.51,4.388c0.316,0.175,0.63,0.352,0.944,0.529c1.176,0.663,2.334,1.335,3.473,2.017    c0.185,0.111,0.374,0.219,0.558,0.331c1.315,0.797,2.604,1.607,3.868,2.431c0.219,0.142,0.432,0.288,0.649,0.431    c1.056,0.696,2.095,1.402,3.116,2.117c0.264,0.185,0.53,0.37,0.792,0.556c2.397,1.705,4.695,3.463,6.896,5.271    c0.243,0.199,0.483,0.4,0.723,0.601c0.944,0.788,1.871,1.584,2.778,2.391c0.15,0.134,0.305,0.265,0.454,0.399    c1.05,0.943,2.076,1.9,3.077,2.868c0.154,0.148,0.302,0.299,0.455,0.449c0.848,0.829,1.677,1.668,2.489,2.516    c0.203,0.212,0.407,0.423,0.608,0.636c0.936,0.992,1.854,1.993,2.743,3.009c20.544,23.5,25.826,46.494,25.826,80.315    c0,1.022-0.018,2.049-0.048,3.077c-0.009,0.328-0.025,0.658-0.037,0.987c-0.027,0.709-0.058,1.419-0.098,2.131    c-0.009,0.156-0.02,0.313-0.029,0.47C211.94,287.24,183.358,251.748,140.612,221.983z M226.471,380.719    c0.11-0.276,0.218-0.56,0.327-0.839c0.085-0.216,0.169-0.432,0.254-0.65c0.448-1.154,0.892-2.329,1.332-3.531    c0.069-0.189,0.137-0.381,0.206-0.57c0.46-1.269,0.915-2.557,1.362-3.875c5.609-16.565,8.984-33.598,8.984-50.269    c0-37.594-6.102-64.164-30.04-91.548c-0.793-0.907-1.619-1.795-2.443-2.685c-0.271-0.292-0.528-0.591-0.802-0.881    c-0.663-0.702-1.356-1.387-2.039-2.077c-0.473-0.478-0.932-0.963-1.414-1.435c-0.659-0.645-1.344-1.274-2.02-1.908    c-0.535-0.501-1.058-1.01-1.604-1.505c-0.672-0.61-1.37-1.205-2.06-1.805c-0.578-0.503-1.146-1.012-1.736-1.507    c-0.692-0.582-1.409-1.15-2.118-1.722c-0.616-0.497-1.224-0.999-1.852-1.489c-0.715-0.557-1.453-1.101-2.184-1.649    c-0.651-0.488-1.296-0.979-1.96-1.459c-0.739-0.534-1.5-1.056-2.255-1.581c-0.686-0.476-1.366-0.955-2.065-1.424    c-0.766-0.513-1.551-1.014-2.332-1.518c-0.718-0.462-1.433-0.927-2.164-1.381c-0.792-0.492-1.602-0.973-2.409-1.455    c-0.752-0.449-1.502-0.899-2.268-1.34c-0.818-0.471-1.653-0.932-2.487-1.394c-0.785-0.434-1.569-0.868-2.367-1.294    c-0.847-0.451-1.708-0.894-2.57-1.335c-0.817-0.418-1.635-0.836-2.466-1.246c-0.875-0.432-1.763-0.855-2.654-1.277    c-0.849-0.402-1.701-0.803-2.565-1.197c-0.902-0.411-1.815-0.815-2.733-1.216c-0.885-0.387-1.774-0.772-2.674-1.15    c-0.928-0.39-1.867-0.775-2.811-1.156c-0.919-0.371-1.844-0.738-2.777-1.1c-0.955-0.37-1.919-0.735-2.89-1.096    c-0.955-0.355-1.917-0.705-2.887-1.05c-0.982-0.35-1.971-0.696-2.969-1.036c-0.99-0.338-1.99-0.67-2.996-0.998    c-1.009-0.33-2.024-0.656-3.049-0.976c-1.025-0.32-2.062-0.634-3.102-0.945c-1.037-0.31-2.078-0.617-3.131-0.918    c-1.062-0.303-2.138-0.598-3.216-0.892c-1.063-0.289-2.128-0.577-3.207-0.857c-1.1-0.286-2.215-0.562-3.332-0.838    c-1.089-0.269-2.177-0.537-3.281-0.797c-1.141-0.268-2.298-0.526-3.456-0.784c-1.112-0.248-2.223-0.497-3.35-0.735    c-1.183-0.25-2.385-0.49-3.585-0.73c-1.134-0.227-2.265-0.456-3.415-0.674c-1.229-0.233-2.479-0.454-3.726-0.676    c-1.153-0.206-2.3-0.414-3.467-0.611c-1.277-0.215-2.577-0.417-3.872-0.621c-1.172-0.185-2.336-0.374-3.523-0.549    c-1.328-0.197-2.68-0.379-4.027-0.564c-1.186-0.163-2.362-0.332-3.562-0.487c-1.394-0.18-2.815-0.343-4.229-0.511    c-1.185-0.141-2.358-0.288-3.557-0.42c-1.474-0.163-2.978-0.308-4.473-0.458c-1.173-0.118-2.333-0.243-3.519-0.353    c-1.596-0.148-3.224-0.277-4.844-0.411c-1.116-0.092-2.216-0.194-3.343-0.279c-1.845-0.14-3.724-0.259-5.599-0.38    c-0.936-0.061-1.854-0.132-2.798-0.188c-2.829-0.168-5.691-0.317-8.588-0.444c-0.421-0.018-0.855-0.029-1.278-0.047    c-2.488-0.104-4.99-0.199-7.528-0.273c-1.061-0.031-2.148-0.046-3.217-0.071c-1.812-0.043-3.613-0.093-5.451-0.121l5.28-31.68    c50.614,14.081,185.914,31.604,232.126,31.604s181.512-17.523,232.126-31.604l5.28,31.68c-1.837,0.028-3.639,0.078-5.451,0.121    c-1.07,0.025-2.156,0.04-3.217,0.071c-2.538,0.074-5.04,0.169-7.528,0.273c-0.422,0.018-0.857,0.028-1.278,0.047    c-2.897,0.127-5.759,0.276-8.588,0.444c-0.942,0.056-1.859,0.127-2.794,0.188c-1.876,0.122-3.757,0.241-5.603,0.381    c-1.127,0.085-2.227,0.187-3.343,0.279c-1.62,0.134-3.248,0.263-4.844,0.411c-1.186,0.11-2.346,0.236-3.519,0.353    c-1.495,0.15-2.999,0.296-4.473,0.458c-1.199,0.132-2.372,0.28-3.557,0.42c-1.414,0.168-2.835,0.331-4.229,0.511    c-1.2,0.155-2.376,0.323-3.561,0.487c-1.347,0.186-2.7,0.368-4.029,0.564c-1.186,0.176-2.349,0.364-3.52,0.549    c-1.296,0.204-2.597,0.406-3.875,0.621c-1.167,0.196-2.313,0.405-3.465,0.61c-1.248,0.223-2.499,0.443-3.729,0.677    c-1.149,0.218-2.279,0.447-3.413,0.673c-1.201,0.24-2.403,0.48-3.586,0.73c-1.128,0.239-2.238,0.487-3.35,0.735    c-1.158,0.258-2.315,0.516-3.456,0.784c-1.104,0.259-2.193,0.528-3.281,0.797c-1.117,0.276-2.232,0.552-3.332,0.838    c-1.079,0.28-2.144,0.568-3.207,0.857c-1.078,0.293-2.154,0.589-3.216,0.892c-1.053,0.3-2.094,0.608-3.131,0.918    c-1.041,0.311-2.077,0.624-3.102,0.945c-1.026,0.32-2.041,0.647-3.051,0.977c-1.005,0.328-2.004,0.66-2.993,0.998    c-0.998,0.341-1.988,0.686-2.971,1.036c-0.97,0.345-1.932,0.695-2.887,1.05c-0.971,0.361-1.935,0.726-2.89,1.096    c-0.934,0.362-1.859,0.729-2.777,1.1c-0.944,0.381-1.883,0.765-2.811,1.156c-0.9,0.378-1.789,0.763-2.674,1.15    c-0.918,0.402-1.831,0.805-2.733,1.216c-0.864,0.394-1.716,0.794-2.565,1.197c-0.891,0.422-1.779,0.846-2.654,1.277    c-0.831,0.41-1.649,0.827-2.466,1.246c-0.862,0.442-1.724,0.884-2.57,1.335c-0.798,0.426-1.582,0.86-2.367,1.294    c-0.835,0.462-1.67,0.923-2.489,1.395c-0.765,0.44-1.514,0.89-2.265,1.338c-0.809,0.483-1.62,0.965-2.413,1.458    c-0.731,0.454-1.444,0.918-2.161,1.379c-0.782,0.504-1.568,1.006-2.334,1.519c-0.699,0.468-1.38,0.947-2.065,1.424    c-0.755,0.525-1.516,1.047-2.255,1.581c-0.664,0.48-1.308,0.971-1.959,1.458c-0.732,0.548-1.471,1.093-2.187,1.651    c-0.626,0.488-1.232,0.988-1.846,1.484c-0.711,0.574-1.43,1.143-2.124,1.727c-0.588,0.494-1.155,1.002-1.731,1.503    c-0.691,0.601-1.39,1.197-2.064,1.808c-0.544,0.494-1.066,1.001-1.6,1.501c-0.678,0.636-1.365,1.266-2.025,1.913    c-0.477,0.467-0.931,0.947-1.398,1.419c-0.689,0.696-1.387,1.386-2.055,2.094c-0.258,0.273-0.5,0.555-0.754,0.829    c-0.841,0.906-1.682,1.811-2.49,2.736c-23.938,27.384-30.04,53.954-30.04,91.548c0,16.671,3.375,33.703,8.984,50.269    c0.447,1.321,0.903,2.61,1.364,3.881c0.068,0.187,0.134,0.375,0.202,0.561c0.44,1.203,0.885,2.379,1.333,3.534    c0.084,0.218,0.169,0.433,0.254,0.649c0.109,0.279,0.218,0.563,0.328,0.839H226.471z M371.392,221.983    c-42.746,29.766-71.328,65.257-81.045,105.668c-0.009-0.156-0.02-0.312-0.029-0.467c-0.04-0.714-0.071-1.426-0.098-2.137    c-0.012-0.328-0.028-0.656-0.037-0.983c-0.029-1.029-0.048-2.055-0.048-3.077c0-33.821,5.282-56.815,25.826-80.315    c0.888-1.016,1.806-2.016,2.741-3.008c0.202-0.214,0.407-0.427,0.611-0.64c0.811-0.846,1.639-1.683,2.485-2.511    c0.154-0.15,0.303-0.303,0.458-0.452c1.001-0.968,2.026-1.924,3.075-2.866c0.151-0.135,0.306-0.268,0.458-0.403    c0.906-0.805,1.831-1.601,2.774-2.387c0.241-0.201,0.482-0.403,0.726-0.603c2.201-1.808,4.498-3.565,6.895-5.269    c0.262-0.186,0.528-0.371,0.792-0.556c1.021-0.715,2.059-1.421,3.116-2.117c0.217-0.143,0.43-0.288,0.649-0.431    c1.265-0.823,2.553-1.634,3.868-2.431c0.184-0.112,0.373-0.22,0.559-0.331c1.138-0.682,2.296-1.354,3.471-2.016    c0.314-0.177,0.628-0.354,0.945-0.53c2.735-1.516,5.571-2.979,8.509-4.388c0.331-0.159,0.667-0.315,1.001-0.472    c1.225-0.577,2.468-1.146,3.728-1.704c0.3-0.133,0.596-0.268,0.897-0.4c1.533-0.67,3.09-1.327,4.674-1.968    c0.222-0.09,0.45-0.177,0.673-0.266c1.371-0.55,2.764-1.088,4.174-1.617c0.403-0.151,0.807-0.302,1.214-0.451    c1.547-0.569,3.113-1.129,4.707-1.673c0.092-0.031,0.181-0.064,0.274-0.096c1.699-0.578,3.43-1.138,5.182-1.687    c0.411-0.129,0.828-0.255,1.243-0.382c1.426-0.438,2.869-0.867,4.33-1.287c0.397-0.114,0.789-0.23,1.189-0.342    c1.807-0.509,3.638-1.006,5.499-1.487c0.263-0.068,0.532-0.132,0.796-0.2c1.613-0.411,3.247-0.811,4.9-1.201    c0.5-0.118,1.002-0.235,1.506-0.351c1.733-0.399,3.484-0.788,5.26-1.163c0.202-0.043,0.399-0.088,0.601-0.13    c1.975-0.413,3.983-0.808,6.012-1.192c0.497-0.094,1.001-0.185,1.501-0.277c1.63-0.3,3.278-0.591,4.942-0.873    c0.504-0.085,1.005-0.172,1.512-0.256c1.969-0.324,3.963-0.635,5.98-0.933C409.908,198.317,389.253,209.546,371.392,221.983z"/>
	</g>
</g>
<g>
</g>
<g>
</g>
<g>
</g>
<g>
</g>
<g>
</g>
<g>
</g>
<g>
</g>
<g>
</g>
<g>
</g>
<g>
</g>
<g>
</g>
<g>
</g>
<g>
</g>
<g>
</g>
<g>
</g>
</svg>
