<?xml version="1.0" encoding="iso-8859-1"?>
<!-- Generator: Adobe Illustrator 19.0.0, SVG Export Plug-In . SVG Version: 6.00 Build 0)  -->
<svg xmlns="http://www.w3.org/2000/svg" xmlns:xlink="http://www.w3.org/1999/xlink" version="1.1" id="Layer_1" x="0px" y="0px" viewBox="0 0 512 512" style="enable-background:new 0 0 512 512;" xml:space="preserve">
<g transform="translate(0 -1)">
	<g>
		<path d="M503.467,308.198c-18.02,0-33.435-4.476-51.2-13.663V120.468c0-4.713-3.82-8.533-8.533-8.533H409.6    c-4.713,0-8.533,3.82-8.533,8.533v133.084c-30.035-10.04-65.963-5.499-94.894,16.05c-13.977,10.412-23.865,24.007-28.888,38.596    h-42.569c-5.024-14.589-14.912-28.184-28.888-38.596c-28.932-21.55-64.859-26.091-94.894-16.049V120.468    c0-4.713-3.82-8.533-8.533-8.533H68.267c-4.713,0-8.533,3.82-8.533,8.533v174.067c-17.765,9.187-33.18,13.663-51.2,13.663    c-4.713,0-8.533,3.82-8.533,8.533v59.733c0,4.713,3.82,8.533,8.533,8.533h97.954c11.676,9.029,25.343,14.813,41.185,16.519    c0.183,0.02,0.366,0.041,0.55,0.061c0.769,0.078,1.543,0.147,2.323,0.206c0.594,0.046,1.193,0.082,1.792,0.117    c0.542,0.03,1.082,0.065,1.63,0.086c1.214,0.048,2.436,0.078,3.672,0.078c0.006,0,0.012,0,0.018,0c0.001,0,0.001,0,0.002,0    c0.001,0,0.002,0,0.002,0c1.443,0,2.864-0.039,4.273-0.096c0.227-0.009,0.454-0.017,0.68-0.028    c1.405-0.067,2.793-0.163,4.164-0.287c0.112-0.01,0.223-0.022,0.335-0.033c16.715-1.573,30.897-7.359,42.626-16.623h92.518    c11.728,9.262,25.908,15.048,42.622,16.622c0.114,0.011,0.228,0.023,0.342,0.033c1.37,0.124,2.756,0.22,4.16,0.287    c0.227,0.011,0.456,0.018,0.683,0.028c1.409,0.058,2.829,0.096,4.272,0.096c0.001,0,0.001,0,0.002,0c0,0,0.001,0,0.001,0    c0.005,0,0.01,0,0.015,0c1.238,0,2.463-0.031,3.679-0.079c0.543-0.021,1.079-0.055,1.617-0.085c0.605-0.035,1.21-0.071,1.81-0.118    c0.773-0.058,1.541-0.127,2.304-0.204c0.193-0.02,0.386-0.042,0.579-0.064c15.834-1.708,29.496-7.492,41.168-16.516h97.954    c4.713,0,8.533-3.821,8.533-8.533v-59.733C512,312.019,508.18,308.198,503.467,308.198z M364.246,384.314    c-0.489,0.069-0.982,0.129-1.476,0.187c-0.476,0.056-0.953,0.107-1.434,0.154c-0.425,0.041-0.85,0.081-1.278,0.114    c-0.593,0.046-1.19,0.082-1.79,0.114c-0.343,0.018-0.685,0.041-1.03,0.055c-0.952,0.037-1.911,0.06-2.88,0.06    c-0.006,0-0.013,0-0.019,0c-1.055,0-2.092-0.025-3.122-0.062c-0.225-0.008-0.45-0.017-0.674-0.027    c-2.139-0.094-4.226-0.265-6.257-0.518c-0.058-0.007-0.115-0.014-0.173-0.021c-12.877-1.636-23.615-6.445-32.612-14.007    c-0.138-0.134-0.278-0.267-0.429-0.395c-0.662-0.564-1.309-1.141-1.947-1.724c3.555-12.833,12.002-24.899,23.893-33.756    c28.328-21.096,65.357-23.222,92.855-7.428c-0.453,1.073-0.906,2.146-1.387,3.222c-7.409,16.601-16.744,30.317-28.01,39.594    c-0.327,0.27-0.621,0.556-0.895,0.851c-8.871,7.057-18.94,11.652-30.318,13.431C364.926,384.212,364.588,384.267,364.246,384.314z     M418.133,129.002H435.2v145.097c-5.154-5.002-10.889-9.309-17.067-12.883V129.002z M316.368,283.289    c27.375-20.391,61.972-22.593,88.284-9.888c0.349,0.249,0.715,0.477,1.105,0.674c12.306,6.208,22.249,15.359,28.904,26.814    c-0.79,3.158-1.736,6.501-2.826,9.961c-33.073-17.628-76.078-14.572-109.009,9.951c-11.593,8.636-20.628,19.808-26.228,32.154    c-5.475-9.63-7.09-20.429-5.263-31.053c0.187-1.051,0.396-2.104,0.652-3.158c0.024-0.098,0.033-0.196,0.053-0.294    C295.218,305.383,303.585,292.811,316.368,283.289z M167.716,384.391c-2.033,0.254-4.121,0.424-6.262,0.519    c-0.223,0.01-0.447,0.018-0.671,0.026c-1.03,0.037-2.068,0.062-3.123,0.062c-0.008,0-0.016,0-0.024,0    c-0.967,0-1.924-0.023-2.874-0.06c-0.348-0.014-0.691-0.037-1.037-0.055c-0.596-0.032-1.19-0.067-1.779-0.113    c-0.433-0.034-0.864-0.074-1.293-0.116c-0.473-0.046-0.943-0.097-1.412-0.151c-0.501-0.059-1.002-0.12-1.498-0.19    c-0.329-0.046-0.654-0.099-0.981-0.149c-11.389-1.776-21.468-6.372-30.346-13.436c-0.273-0.295-0.567-0.581-0.894-0.851    c-11.266-9.277-20.601-22.993-28.01-39.594c-0.48-1.076-0.933-2.15-1.387-3.223c27.498-15.793,64.528-13.667,92.864,7.43    c11.883,8.856,20.329,20.925,23.883,33.757c-0.636,0.581-1.281,1.155-1.94,1.716c-0.151,0.129-0.292,0.262-0.431,0.397    c-8.999,7.565-19.739,12.374-32.619,14.01C167.826,384.378,167.771,384.384,167.716,384.391z M195.632,283.289    c12.781,9.521,21.149,22.091,24.326,35.158c0.02,0.098,0.029,0.195,0.053,0.293c0.355,1.466,0.632,2.929,0.854,4.389    c1.501,10.227-0.2,20.567-5.464,29.827c-5.598-12.345-14.63-23.517-26.217-32.153c-32.942-24.525-75.947-27.581-109.02-9.954    c-1.09-3.46-2.036-6.802-2.826-9.96c6.655-11.455,16.598-20.606,28.904-26.814c0.388-0.195,0.752-0.422,1.099-0.669    C133.656,260.695,168.254,262.896,195.632,283.289z M93.867,129.002v132.216c-6.177,3.574-11.913,7.882-17.067,12.884v-145.1    H93.867z M17.067,324.97c15.807-1.113,30.135-5.373,45.452-12.743c0.41,1.455,0.86,2.993,1.362,4.62    c1.456,4.722,3.124,9.442,4.992,14.118c0.028,0.07,0.057,0.138,0.084,0.207c0.444,1.107,0.892,2.213,1.36,3.314    c5.289,12.589,11.649,23.869,19.163,33.446H17.067V324.97z M226,367.932c0.297-0.406,0.591-0.814,0.88-1.224    c0.647-0.917,1.258-1.848,1.851-2.784c0.124-0.196,0.24-0.393,0.362-0.59c0.461-0.746,0.906-1.497,1.333-2.255    c0.129-0.229,0.256-0.458,0.382-0.688c0.437-0.797,0.855-1.6,1.254-2.409c0.072-0.146,0.148-0.292,0.219-0.438    c1.454-3.002,2.647-6.079,3.59-9.212c0.02-0.067,0.039-0.133,0.059-0.2c0.303-1.018,0.58-2.042,0.828-3.071    c0.004-0.017,0.009-0.034,0.013-0.051c0.759-3.151,1.268-6.35,1.525-9.581c0.014-0.175,0.024-0.351,0.036-0.526    c0.058-0.814,0.101-1.629,0.127-2.446c0.011-0.326,0.019-0.651,0.025-0.976c0.01-0.632,0.009-1.265,0.001-1.898    c-0.005-0.452-0.008-0.903-0.023-1.355c-0.013-0.378-0.038-0.757-0.057-1.135c-0.03-0.608-0.051-1.217-0.098-1.825h35.386    c-0.036,0.461-0.05,0.923-0.076,1.385c-0.033,0.564-0.067,1.128-0.086,1.691c-0.01,0.335-0.012,0.67-0.017,1.005    c-0.013,0.766-0.014,1.53,0.001,2.294c0.005,0.219,0.01,0.438,0.017,0.656c0.028,0.95,0.077,1.898,0.148,2.844    c0.004,0.057,0.007,0.114,0.012,0.171c0.34,4.382,1.143,8.705,2.407,12.928c0.001,0.002,0.001,0.005,0.002,0.007    c0.95,3.172,2.157,6.287,3.63,9.325c0.058,0.119,0.12,0.237,0.178,0.357c0.412,0.835,0.844,1.665,1.295,2.488    c0.118,0.215,0.237,0.43,0.358,0.645c0.434,0.771,0.887,1.536,1.357,2.295c0.116,0.188,0.227,0.376,0.345,0.563    c0.593,0.938,1.205,1.869,1.853,2.788c0.29,0.411,0.584,0.82,0.882,1.227H226z M494.933,367.932h-72.411    c7.524-9.589,13.889-20.883,19.179-33.487c0.451-1.061,0.881-2.127,1.31-3.193c0.04-0.101,0.082-0.2,0.122-0.301    c1.866-4.671,3.532-9.387,4.987-14.104c0.502-1.628,0.953-3.165,1.362-4.62c15.317,7.37,29.644,11.631,45.452,12.743V367.932z"/>
	</g>
</g>
<g>
</g>
<g>
</g>
<g>
</g>
<g>
</g>
<g>
</g>
<g>
</g>
<g>
</g>
<g>
</g>
<g>
</g>
<g>
</g>
<g>
</g>
<g>
</g>
<g>
</g>
<g>
</g>
<g>
</g>
</svg>
