<?xml version="1.0" encoding="iso-8859-1"?>
<!-- Generator: Adobe Illustrator 19.0.0, SVG Export Plug-In . SVG Version: 6.00 Build 0)  -->
<svg xmlns="http://www.w3.org/2000/svg" xmlns:xlink="http://www.w3.org/1999/xlink" version="1.1" id="Layer_1" x="0px" y="0px" viewBox="0 0 512.107 512.107" style="enable-background:new 0 0 512.107 512.107;" xml:space="preserve">
<g transform="translate(-1 -1)">
	<g>
		<path d="M448.983,236.453c-0.84-2.993-4.567-16.239-5.513-19.606c-2.516-8.954-4.696-16.738-6.899-24.641    c-5.807-20.833-11.1-40.097-16.107-58.711c-1.574-5.85-3.103-11.578-4.588-17.183c-9.868-37.249-17.519-68.16-22.477-91.386    c-0.542-2.538-2.208-4.691-4.529-5.851L355.144,2.211c-0.686-0.381-1.413-0.661-2.168-0.841c-1.571-0.404-3.132-0.344-4.557,0.103    c-0.268,0.079-0.526,0.188-0.786,0.293c-0.074,0.031-0.151,0.055-0.224,0.088c-1.393,0.609-2.63,1.599-3.542,2.972    c-0.189,0.273-0.354,0.563-0.51,0.858c-0.022,0.043-0.05,0.079-0.072,0.122c-0.273,0.535-0.476,1.106-0.63,1.698    c-0.336,1.129-0.936,3.084-1.795,5.774c-1.558,4.879-3.381,10.323-5.451,16.189c-5.911,16.749-12.609,33.492-19.941,49.073    c-19.908,42.304-40.767,67.633-58.412,67.633c-17.645,0-38.504-25.33-58.412-67.633c-7.332-15.581-14.029-32.324-19.941-49.073    c-2.07-5.866-3.893-11.31-5.451-16.189c-0.831-2.601-1.421-4.519-1.762-5.664c-0.027-0.102-0.055-0.204-0.085-0.305    c-0.147-0.513-0.33-1.008-0.567-1.477c-0.064-0.134-0.147-0.248-0.217-0.376c-0.08-0.144-0.163-0.284-0.25-0.424    c-0.038-0.059-0.069-0.122-0.109-0.179c-0.133-0.202-0.273-0.394-0.419-0.58c-0.201-0.261-0.414-0.512-0.641-0.749    c-0.006-0.006-0.012-0.014-0.019-0.02c-2.022-2.094-5.051-3.184-8.501-2.032c-0.584,0.172-1.141,0.425-1.68,0.721l-33.763,16.882    c-2.321,1.16-3.988,3.314-4.529,5.851c-4.957,23.226-12.609,54.137-22.477,91.386c-1.485,5.605-3.014,11.332-4.588,17.183    c-5.007,18.614-10.3,37.878-16.107,58.711c-2.203,7.904-4.383,15.687-6.899,24.641c-0.946,3.367-4.672,16.613-5.513,19.606    c-5.699,20.291-6.053,40.707-0.348,59.197c4.561,14.808,11.639,26.589,20.791,35.801c1.307,9.276,4.203,29.8,5.172,36.744    c0.825,5.907,1.574,11.334,2.283,16.53c0.461,3.381,0.906,6.677,1.337,9.902c0.001,0.006,0.002,0.012,0.002,0.018    c3.326,24.882,5.753,45.167,7.26,61.357c0.005,0.074,0,0.146,0.007,0.22c1.202,13.057,1.824,23.526,1.824,31.286    c0,4.068,2.871,7.57,6.86,8.368c0.001,0,0.002,0,0.003,0c0.001,0,0.001,0,0.002,0c0.692,0.138,1.996,0.393,3.86,0.748    c3.093,0.589,6.636,1.245,10.576,1.95c11.247,2.014,23.431,4.028,36.121,5.908c17.74,2.628,35.023,4.778,51.319,6.282    c16.527,1.525,31.587,2.343,44.865,2.343c13.278,0,28.338-0.818,44.865-2.343c16.296-1.504,33.579-3.654,51.319-6.282    c12.69-1.88,24.874-3.894,36.121-5.908c3.94-0.706,7.483-1.361,10.576-1.95c1.864-0.355,3.168-0.61,3.86-0.748    c3.989-0.798,6.86-4.3,6.86-8.368c0-1.692,0.029-3.498,0.084-5.409c0.007-0.233,0.013-0.463,0.021-0.699    c0.006-0.19,0.013-0.386,0.02-0.578c0.239-6.764,0.809-14.977,1.695-24.601c0.003-0.034,0.001-0.067,0.003-0.102    c1.7-18.313,4.579-41.869,8.605-71.395c0.711-5.214,1.463-10.659,2.29-16.586c0.974-6.98,3.865-27.467,5.163-36.688    c9.152-9.213,16.231-20.994,20.792-35.804C455.036,277.16,454.682,256.743,448.983,236.453z M363.034,98.157    c3.209,18.72,4.953,34.991,4.953,48.017c0,16.904-8.54,29.983-29.285,48.497c-3.939,3.515-18.55,16.009-20.86,18.03    c-0.33,0.289-0.64,0.569-0.966,0.857c1.406-22.284,14.806-56.48,45.898-116.883C362.86,97.168,362.95,97.666,363.034,98.157z     M183.202,85.808c22.759,48.363,46.699,77.433,73.854,77.433c27.155,0,51.096-29.07,73.854-77.433    c7.034-14.947,13.47-30.84,19.216-46.798c1.8,7.004,3.571,14.238,5.267,21.592c0.719,3.116,1.415,6.219,2.088,9.303    c-46.97,89.083-62.045,130.089-56.83,158.914c-11.475,11.717-19.818,22.867-26.179,35.675c-0.248,0.495-0.492,0.992-0.733,1.491    c-0.21,0.437-0.422,0.873-0.627,1.314c-0.544,1.16-1.076,2.327-1.584,3.51c-0.748,1.632-1.884,4.63-2.995,8.565    c-1.084,3.837-1.913,7.809-2.411,11.869h-18.136c-0.499-4.061-1.33-8.035-2.416-11.873c-1.113-3.935-2.251-6.934-3.08-8.744    c-0.483-1.125-0.988-2.236-1.504-3.341c-0.24-0.517-0.488-1.028-0.734-1.539c-0.207-0.426-0.415-0.85-0.627-1.273    c-6.34-12.777-14.684-23.927-26.174-35.656c5.221-28.825-9.856-69.832-56.831-158.91c0.668-3.06,1.36-6.137,2.073-9.229    c1.703-7.381,3.482-14.641,5.289-21.671C169.731,54.966,176.167,70.86,183.202,85.808z M196.265,212.701    c-2.31-2.021-16.922-14.515-20.86-18.03c-20.745-18.514-29.285-31.594-29.285-48.497c0-13.025,1.743-29.296,4.953-48.017    c0.084-0.49,0.174-0.988,0.26-1.48c31.098,60.404,44.498,94.599,45.9,116.881C196.906,213.271,196.596,212.99,196.265,212.701z     M81.555,241.067c0.839-2.989,4.565-16.233,5.512-19.603c2.519-8.965,4.702-16.759,6.909-24.676    c5.82-20.879,11.126-40.191,16.148-58.86c1.579-5.871,3.115-11.62,4.605-17.246c9.378-35.399,16.774-65.14,21.802-88.174    l13.246-6.623c-0.249,0.931-0.497,1.891-0.745,2.832c-0.188,0.713-0.376,1.426-0.564,2.144c-0.53,2.026-1.057,4.071-1.583,6.136    c-0.173,0.681-0.347,1.359-0.52,2.044c-0.326,1.293-0.65,2.589-0.973,3.895c-0.193,0.779-0.384,1.565-0.576,2.349    c-0.484,1.978-0.964,3.963-1.44,5.965c-0.213,0.895-0.424,1.792-0.634,2.691c-0.223,0.951-0.45,1.891-0.671,2.846    c-3.071,13.308-5.72,26.232-7.821,38.485c-3.359,19.592-5.198,36.758-5.198,50.9c0,23.008,10.948,39.776,34.987,61.23    c4.103,3.662,18.804,16.232,20.986,18.141c4.636,4.056,8.824,7.907,12.658,11.651c0.137,0.156,0.264,0.319,0.414,0.466    c11.636,11.44,20.144,22.318,26.195,34.318c0.151,0.302,0.3,0.604,0.448,0.907c0.269,0.546,0.535,1.094,0.793,1.645    c0.463,0.993,0.918,1.992,1.354,3.008c0.527,1.185,1.349,3.406,2.193,6.469c1.356,4.917,2.162,9.924,2.268,14.829    c-0.035,0.319-0.056,0.642-0.055,0.971c0.014,3.577-0.325,6.97-1.047,10.173c-0.095,0.406-0.191,0.811-0.299,1.213    c-3.156,11.715-11.616,20.778-27.474,26.523c-0.204,0.074-0.409,0.146-0.616,0.219c-0.942,0.332-1.903,0.656-2.896,0.966    c-0.024,0.007-0.047,0.016-0.071,0.023c-0.569,0.176-1.154,0.329-1.731,0.492c-7.968,2.247-16.752,3.25-26.694,3.169    c-1.188-0.01-2.364-0.034-3.536-0.064c-0.432-0.011-0.864-0.023-1.294-0.037c-0.56-0.017-1.115-0.041-1.671-0.063    c-26.15-1.084-48.641-7.526-64.712-22.404c-0.617-0.571-1.274-1.021-1.953-1.372c-7.184-7.337-12.689-16.57-16.216-28.022    C76.405,275.451,76.701,258.35,81.555,241.067z M393.718,480.427c-2.261,0.422-4.723,0.873-7.369,1.347    c-11.086,1.986-23.103,3.972-35.613,5.825c-17.45,2.585-34.43,4.697-50.387,6.17c-16.042,1.481-30.596,2.271-43.296,2.271    s-27.255-0.79-43.296-2.271c-15.957-1.473-32.937-3.585-50.387-6.17c-12.51-1.853-24.526-3.84-35.613-5.825    c-2.643-0.473-5.102-0.923-7.36-1.345c-0.148-4.423-0.427-9.35-0.835-14.807c48.915,7.797,98.566,13.352,137.49,13.352    c38.926,0,88.581-5.555,137.498-13.353C394.145,471.077,393.866,476.004,393.718,480.427z M406.474,365.779    c-0.829,5.943-1.584,11.406-2.298,16.638c-0.256,1.878-0.506,3.724-0.753,5.555c-32.781,16.12-60.619,22.735-103.703,22.735    c-4.713,0-8.533,3.82-8.533,8.533s3.82,8.533,8.533,8.533c41.294,0,70.065-5.893,101.057-19.711    c-1.949,15.218-3.506,28.498-4.666,40.019c-49.455,8.021-100.153,13.825-139.058,13.825c-38.903,0-89.598-5.804-139.051-13.824    c-1.16-11.519-2.718-24.799-4.669-40.018c30.99,13.816,59.761,19.709,101.053,19.709c4.713,0,8.533-3.821,8.533-8.533    s-3.82-8.533-8.533-8.533c-43.084,0-70.921-6.614-103.701-22.733c-0.247-1.831-0.497-3.677-0.754-5.556    c-0.711-5.214-1.464-10.658-2.291-16.582c-0.545-3.906-1.698-12.094-2.836-20.164c16.89,9.07,37.637,13.243,60.906,13.895    c1.53,0.044,3.069,0.073,4.617,0.086c11.577,0.094,22.033-1.114,31.762-3.898c0.619-0.177,1.245-0.339,1.858-0.529    c0.803-0.249,1.592-0.507,2.372-0.771c0.27-0.091,0.532-0.186,0.799-0.279c0.488-0.17,0.975-0.341,1.455-0.517    c0.37-0.136,0.734-0.276,1.099-0.415c0.346-0.132,0.691-0.264,1.032-0.4c0.448-0.177,0.891-0.358,1.331-0.541    c0.216-0.09,0.432-0.181,0.646-0.272c0.539-0.229,1.073-0.462,1.599-0.699c0.046-0.021,0.091-0.042,0.137-0.063    c18.355-8.311,28.789-21.374,32.441-37.374c0.437-1.854,0.779-3.717,1.032-5.588h18.325c0.253,1.87,0.594,3.734,1.032,5.588    c3.651,15.995,14.081,29.056,32.426,37.367c0.053,0.024,0.106,0.049,0.159,0.073c0.522,0.235,1.051,0.466,1.586,0.693    c0.217,0.093,0.436,0.185,0.655,0.276c0.438,0.182,0.878,0.362,1.325,0.538c0.343,0.136,0.691,0.27,1.039,0.403    c0.362,0.138,0.723,0.277,1.091,0.412c0.485,0.178,0.978,0.351,1.472,0.523c0.261,0.091,0.517,0.184,0.78,0.273    c0.781,0.264,1.571,0.523,2.374,0.772c0.59,0.183,1.193,0.339,1.788,0.509c9.75,2.799,20.229,4.013,31.832,3.919    c1.549-0.013,3.088-0.042,4.618-0.086c23.27-0.652,44.018-4.826,60.908-13.896C408.169,353.706,407.021,361.862,406.474,365.779z     M433.023,290.619c-3.528,11.454-9.034,20.689-16.219,28.027c-0.678,0.351-1.335,0.801-1.951,1.371    c-16.069,14.877-38.552,21.319-64.701,22.404c-0.561,0.022-1.12,0.046-1.685,0.064c-0.429,0.014-0.86,0.026-1.292,0.037    c-1.172,0.029-2.348,0.054-3.537,0.064c-9.984,0.081-18.801-0.93-26.798-3.199c-0.542-0.154-1.091-0.297-1.626-0.462    c-0.027-0.008-0.052-0.017-0.078-0.025c-0.99-0.308-1.946-0.631-2.884-0.961c-0.21-0.074-0.419-0.148-0.627-0.223    c-15.853-5.744-24.312-14.806-27.467-26.52c-0.108-0.401-0.203-0.807-0.299-1.212c-0.722-3.203-1.062-6.595-1.047-10.173    c0.001-0.329-0.02-0.652-0.055-0.971c0.107-4.904,0.912-9.912,2.268-14.829c0.845-3.063,1.666-5.284,2.146-6.362    c0.447-1.041,0.913-2.065,1.387-3.082c0.223-0.475,0.452-0.946,0.683-1.417c0.183-0.378,0.37-0.754,0.557-1.129    c6.099-12.085,14.595-22.942,26.207-34.358c0.14-0.137,0.258-0.29,0.387-0.435c3.843-3.754,8.04-7.614,12.688-11.681    c2.182-1.909,16.883-14.479,20.986-18.141c24.039-21.455,34.987-38.222,34.987-61.23c0-14.142-1.839-31.308-5.198-50.9    c-2.101-12.254-4.75-25.177-7.821-38.485c-0.221-0.957-0.449-1.9-0.672-2.853c-0.225-0.961-0.45-1.919-0.677-2.875    c-0.289-1.213-0.577-2.424-0.869-3.629c-0.401-1.656-0.805-3.302-1.211-4.94c-0.243-0.981-0.487-1.957-0.732-2.931    c-0.458-1.82-0.917-3.63-1.379-5.422c-0.189-0.733-0.379-1.457-0.568-2.185c-0.457-1.754-0.914-3.494-1.373-5.216    c-0.075-0.281-0.149-0.572-0.224-0.852l13.246,6.623c5.028,23.034,12.424,52.775,21.802,88.174    c1.49,5.626,3.026,11.375,4.605,17.246c5.022,18.669,10.328,37.981,16.148,58.86c2.207,7.917,4.39,15.711,6.909,24.676    c0.947,3.37,4.673,16.614,5.512,19.603C437.406,258.35,437.703,275.451,433.023,290.619z"/>
	</g>
</g>
<g>
</g>
<g>
</g>
<g>
</g>
<g>
</g>
<g>
</g>
<g>
</g>
<g>
</g>
<g>
</g>
<g>
</g>
<g>
</g>
<g>
</g>
<g>
</g>
<g>
</g>
<g>
</g>
<g>
</g>
</svg>
