<?xml version="1.0" encoding="iso-8859-1"?>
<!-- Generator: Adobe Illustrator 19.0.0, SVG Export Plug-In . SVG Version: 6.00 Build 0)  -->
<svg xmlns="http://www.w3.org/2000/svg" xmlns:xlink="http://www.w3.org/1999/xlink" version="1.1" id="Layer_1" x="0px" y="0px" viewBox="0 0 512.013 512.013" style="enable-background:new 0 0 512.013 512.013;" xml:space="preserve">
<g transform="translate(-1 -1)">
	<g>
		<path d="M461.186,253.819c-5.638-13.966-14.652-44.62-25.983-87.387c-1.54-5.812-3.114-11.814-4.718-17.991    c-6.547-25.209-13.322-52.228-19.935-79.248c-2.315-9.458-4.444-18.24-6.339-26.121c-0.663-2.757-1.25-5.205-1.753-7.314    c-0.509-2.136-0.509-2.136-0.615-2.581c-0.531-2.237-1.941-4.165-3.912-5.347L356.408,2.916c-1.222-0.98-2.71-1.588-4.257-1.809    c-0.223-0.034-0.445-0.052-0.668-0.068c-0.08-0.006-0.16-0.011-0.24-0.015c-0.207-0.009-0.414-0.016-0.619-0.009    c-3.733,0.079-7.394,2.389-8.151,7.074c-0.021,0.127-0.044,0.252-0.06,0.381c-0.006,0.046-0.016,0.087-0.021,0.133    c-0.043,0.387-0.177,1.294-0.435,2.646c-0.448,2.354-1.083,5.004-1.932,7.872c-2.438,8.227-6.094,16.455-11.185,24.091    c-14.453,21.68-37.423,34.6-71.833,34.6s-57.38-12.92-71.833-34.6c-5.091-7.636-8.747-15.864-11.185-24.091    c-0.85-2.868-1.484-5.518-1.932-7.872c-0.257-1.351-0.392-2.259-0.435-2.646c-0.005-0.046-0.015-0.088-0.021-0.133    c-0.016-0.129-0.039-0.254-0.06-0.381c-0.757-4.685-4.418-6.995-8.151-7.074c-0.206-0.007-0.412,0-0.619,0.009    c-0.08,0.004-0.16,0.009-0.24,0.015c-0.223,0.016-0.445,0.034-0.668,0.068c-1.547,0.22-3.035,0.828-4.257,1.809l-41.522,24.913    c-1.971,1.183-3.382,3.111-3.912,5.347c-0.106,0.445-0.106,0.445-0.615,2.581c-0.504,2.109-1.09,4.557-1.753,7.314    c-1.895,7.881-4.024,16.663-6.339,26.121c-6.613,27.02-13.388,54.039-19.935,79.248c-1.604,6.177-3.178,12.18-4.718,17.991    c-11.332,42.768-20.346,73.422-25.983,87.387c-15.386,38.116-10.844,75.941,9.086,109.912    c21.358,36.416,32.96,77.539,32.96,140.749c0,4.713,3.82,8.533,8.533,8.533h307.2c4.713,0,8.533-3.82,8.533-8.533    c0-63.21,11.602-104.333,32.961-140.75C472.03,329.76,476.572,291.935,461.186,253.819z M257.007,94.88    c39.725,0,67.74-15.463,85.333-41.163v40.654c-45.278,42.317-62.54,90.529-62.281,142.319c-4.644,1.535-9.407,2.602-14.218,3.192    c-0.083,0.01-0.167,0.019-0.25,0.029c-0.843,0.1-1.687,0.185-2.533,0.256c-0.354,0.029-0.708,0.049-1.062,0.073    c-0.639,0.044-1.277,0.089-1.917,0.116c-0.77,0.032-1.54,0.045-2.311,0.053c-0.254,0.003-0.508,0.015-0.762,0.015    c-0.255,0-0.511-0.013-0.766-0.016c-0.769-0.008-1.537-0.021-2.305-0.053c-0.642-0.027-1.283-0.072-1.924-0.117    c-0.352-0.024-0.703-0.044-1.055-0.073c-0.848-0.071-1.694-0.156-2.539-0.257c-0.081-0.009-0.161-0.018-0.242-0.028    c-4.812-0.59-9.576-1.658-14.221-3.192c0.259-51.79-17.003-100.002-62.281-142.319V53.716    C189.267,79.417,217.281,94.88,257.007,94.88z M342.34,118.614v10.399c0,40.54-12.853,70.323-34.98,91.43    c-3.167,3.021-6.56,5.682-10.112,8.018C298.62,188.924,311.682,152.073,342.34,118.614z M171.673,118.614    c30.658,33.459,43.72,70.31,45.092,109.847c-3.552-2.336-6.945-4.996-10.112-8.017c-22.127-21.107-34.981-50.891-34.981-91.43    V118.614z M437.38,355.095c-21.871,37.291-34.204,79.251-35.236,140.851H111.869c-1.032-61.6-13.365-103.56-35.235-140.85    c-17.384-29.631-21.268-61.974-7.981-94.889c6.006-14.878,15.126-45.892,26.655-89.405c1.547-5.839,3.128-11.869,4.739-18.072    c6.57-25.295,13.363-52.389,19.994-79.481c2.321-9.481,4.455-18.286,6.355-26.188c0.573-2.385,1.09-4.539,1.546-6.445    l26.665-15.999v73.496v30.899c0,45.224,14.777,79.464,40.267,103.779c16.089,15.351,36.678,23.539,57.57,24.58    c0.034,0.002,0.068,0.005,0.102,0.007c2.972,0.145,5.949,0.145,8.921,0c0.037-0.002,0.074-0.006,0.111-0.008    c20.89-1.043,41.475-9.231,57.563-24.58c25.489-24.314,40.266-58.555,40.266-103.778V98.114V24.618l26.665,15.999    c0.456,1.906,0.972,4.06,1.546,6.445c1.9,7.902,4.035,16.706,6.355,26.188c6.631,27.092,13.424,54.185,19.994,79.481    c1.611,6.203,3.192,12.233,4.739,18.072c11.529,43.513,20.649,74.527,26.655,89.405    C458.647,293.122,454.763,325.465,437.38,355.095z"/>
	</g>
</g>
<g>
</g>
<g>
</g>
<g>
</g>
<g>
</g>
<g>
</g>
<g>
</g>
<g>
</g>
<g>
</g>
<g>
</g>
<g>
</g>
<g>
</g>
<g>
</g>
<g>
</g>
<g>
</g>
<g>
</g>
</svg>
