<?xml version="1.0" encoding="iso-8859-1"?>
<!-- Generator: Adobe Illustrator 19.0.0, SVG Export Plug-In . SVG Version: 6.00 Build 0)  -->
<svg xmlns="http://www.w3.org/2000/svg" xmlns:xlink="http://www.w3.org/1999/xlink" version="1.1" id="Layer_1" x="0px" y="0px" viewBox="0 0 512.006 512.006" style="enable-background:new 0 0 512.006 512.006;" xml:space="preserve">
<g transform="translate(0 -1)">
	<g>
		<path d="M369.49,369.059c0.029-0.757-0.034-1.53-0.218-2.304c-0.179-0.753-0.461-1.453-0.813-2.102    c-3.404-14.913-5.874-29.192-7.521-43.139c0.202-1.395,0.063-2.856-0.476-4.263c-3.155-29.588-2.64-57.839,0.446-87.735    c9.669-6.105,17.409-14.646,21.646-24.99c3.061-7.47,5.353-15.549,6.984-24.223c2.955-15.714,3.515-29.284,3.164-51.443    c-0.082-5.172-0.098-6.327-0.099-8.15c0-0.002,0-0.004,0-0.005c0-0.077,0-0.152,0-0.232c0-0.129-0.014-0.255-0.019-0.383    c-0.007-0.141-0.008-0.281-0.021-0.423c-0.03-0.321-0.076-0.637-0.141-0.946c-4.98-24.123-9.253-48.377-12.816-71.56    c-1.247-8.115-2.316-15.514-3.207-22.046c-0.533-3.908-0.887-6.651-1.062-8.079c-0.429-3.506-2.974-6.385-6.4-7.241l-34.133-8.533    c-5.946-1.487-11.474,3.594-10.493,9.645c0.253,1.563,0.73,4.49,1.398,8.587c1.115,6.827,2.361,14.435,3.71,22.627    c3.854,23.408,7.754,46.816,11.459,68.666c0.074,0.436,0.139,0.817,0.197,1.159c-38.632,0.11-66.538,19.552-85.072,50.58    c-18.533-31.028-46.439-50.47-85.072-50.58c0.058-0.342,0.123-0.723,0.197-1.159c3.705-21.851,7.605-45.259,11.459-68.666    c1.349-8.192,2.596-15.8,3.71-22.627c0.669-4.097,1.145-7.024,1.398-8.587c0.981-6.05-4.546-11.131-10.493-9.645L143.07,9.794    c-3.426,0.857-5.971,3.736-6.4,7.241c-0.175,1.428-0.529,4.171-1.062,8.079c-0.89,6.532-1.959,13.931-3.207,22.046    c-3.563,23.183-7.837,47.438-12.817,71.561c-0.065,0.309-0.111,0.624-0.141,0.944c-0.014,0.143-0.015,0.285-0.022,0.427    c-0.006,0.127-0.019,0.252-0.019,0.38c0,0.079,0,0.154,0,0.23c0,0.003,0,0.005,0,0.008c-0.001,1.823-0.017,2.979-0.099,8.15    c-0.351,22.159,0.21,35.729,3.164,51.443c1.631,8.674,3.923,16.754,6.985,24.225c4.217,10.293,11.902,18.803,21.506,24.901    c3.094,29.923,3.612,58.202,0.451,87.823c-0.538,1.406-0.677,2.867-0.475,4.261c-1.648,13.948-4.118,28.228-7.522,43.143    c-0.352,0.648-0.633,1.347-0.812,2.1c-0.184,0.773-0.247,1.544-0.218,2.301c-5.297,22.207-12.642,45.861-22.435,71.979    c-1.1,2.934-0.504,6.235,1.554,8.599c1.836,2.109,5.216,5.632,10.033,10.098c7.953,7.375,17.116,14.737,27.388,21.611    c29.513,19.753,62.142,31.657,96.991,31.662c0.007,0,0.015,0.001,0.022,0.001c0.007,0,0.014-0.001,0.021-0.001    c34.847-0.004,67.476-11.909,96.992-31.662c10.272-6.875,19.436-14.236,27.39-21.611c4.817-4.467,8.198-7.99,10.034-10.098    c2.058-2.364,2.655-5.665,1.554-8.6C382.133,414.917,374.787,391.265,369.49,369.059z M359.153,24.941    c0.103,0.768,0.215,1.595,0.335,2.479c0.903,6.626,1.986,14.12,3.248,22.334c3.102,20.18,6.735,41.161,10.901,62.186h-15.253    c-0.181-1.066-0.328-1.931-0.68-4.007c-3.7-21.821-7.596-45.203-11.446-68.586c-1.076-6.534-2.087-12.695-3.017-18.384    L359.153,24.941z M268.417,175.158c15.794-28.695,39.383-46.152,72.986-46.152h9.779h24.453    c0.336,21.195-0.188,33.879-2.87,48.144c-1.427,7.592-3.407,14.569-6.004,20.906c-3.034,7.407-9.022,13.64-16.598,18.007    c-0.438,0.151-0.875,0.33-1.305,0.561c-7.542,4.047-16.244,6.255-24.647,6.248c-1.295,0.001-1.295,0.001-2.576,0.003    c-1.909,0.003-3.687-0.001-5.361-0.012c-11.849-0.084-18.312-0.583-26.754-2.244c-7.027-1.38-12.899-4.982-17.182-9.858    c-0.259-0.3-0.514-0.605-0.762-0.916c-0.007-0.009-0.015-0.017-0.022-0.026c-3.831-4.812-6.265-10.835-6.919-17.449    C264.217,186.642,265.369,180.692,268.417,175.158z M149.27,49.753c1.262-8.214,2.345-15.708,3.248-22.334    c0.121-0.884,0.232-1.711,0.335-2.479l15.911-3.978c-0.93,5.689-1.941,11.851-3.017,18.384    c-3.85,23.383-7.746,46.765-11.446,68.586c-0.352,2.076-0.499,2.941-0.68,4.007h-15.253    C142.535,90.914,146.168,69.933,149.27,49.753z M139.241,177.15c-2.682-14.265-3.206-26.949-2.872-48.019    c0.001-0.042,34.234-0.124,34.234-0.124c33.603,0,57.192,17.457,72.985,46.15c2.378,4.317,3.596,8.887,3.824,13.407    c-0.001,0.059-0.009,0.117-0.009,0.176v1.057c-0.368,12.846-7.358,23.836-18.294,28.725c-0.112,0.05-0.226,0.098-0.339,0.147    c-0.378,0.164-0.76,0.321-1.147,0.47c-0.393,0.15-0.789,0.296-1.191,0.431c-0.228,0.077-0.46,0.145-0.69,0.217    c-0.322,0.1-0.646,0.196-0.974,0.286c-0.219,0.06-0.438,0.12-0.66,0.176c-0.448,0.113-0.901,0.216-1.359,0.31    c-0.089,0.018-0.176,0.041-0.266,0.058c-9.665,1.901-16.732,2.281-32.244,2.258c-1.28-0.002-1.28-0.002-2.567-0.003    c-8.418,0.007-17.119-2.201-24.651-6.246c-0.287-0.154-0.579-0.273-0.87-0.392c-7.721-4.375-13.83-10.672-16.905-18.177    C142.647,191.719,140.668,184.742,139.241,177.15z M143.139,447.217c-1.99-1.846-3.779-3.583-5.358-5.184    c8.162-22.206,14.59-42.738,19.524-62.19c4.295,1.78,9.816,4.433,18.01,8.529c20.792,10.395,28.879,13.703,37.957,13.703    c4.713,0,8.533-3.82,8.533-8.533s-3.82-8.533-8.533-8.533c-5.143,0-12.718-3.098-30.313-11.895    c-10.105-5.052-16.461-8.081-21.706-10.082c2.22-10.285,4.018-20.302,5.416-30.133c2.368,1.146,5.155,2.526,8.647,4.272    c20.801,10.402,28.873,13.704,37.955,13.704c4.713,0,8.533-3.82,8.533-8.533s-3.82-8.533-8.533-8.533    c-5.145,0-12.708-3.094-30.312-11.897c-6.416-3.208-10.608-5.263-14.155-6.872c1.02-10.587,1.585-21.026,1.756-31.44    c1.41,0.698,2.97,1.474,4.749,2.363c20.817,10.407,28.884,13.706,37.963,13.706c4.713,0,8.533-3.82,8.533-8.533    s-3.82-8.533-8.533-8.533c-5.143,0-12.703-3.092-30.309-11.894c-5.72-2.859-9.38-4.66-12.527-6.119    c-0.26-9.015-0.789-18.066-1.576-27.235c6.049,1.69,12.398,2.588,18.813,2.585c1.263,0.001,1.263,0.001,2.54,0.003    c16.577,0.025,24.499-0.401,35.567-2.578c0.133-0.026,0.26-0.063,0.393-0.09c0.757-0.155,1.507-0.325,2.247-0.513    c0.364-0.092,0.721-0.197,1.08-0.297c0.506-0.141,1.009-0.286,1.507-0.443c0.41-0.129,0.817-0.264,1.221-0.403    c0.414-0.143,0.824-0.292,1.232-0.446c0.451-0.169,0.902-0.338,1.345-0.519c0.266-0.109,0.526-0.227,0.789-0.341    c4.364-1.879,8.32-4.354,11.809-7.303v268.657c-27.968-1.769-54.54-12.145-78.987-28.507    C158.932,460.813,150.463,454.009,143.139,447.217z M368.736,447.217c-7.325,6.791-15.795,13.596-25.278,19.943    c-24.45,16.363-51.022,26.739-78.988,28.508V226.945c5.97,5.11,13.287,8.782,21.629,10.419c9.704,1.909,16.994,2.471,29.823,2.563    c1.837,0.014,3.786,0.018,5.873,0.015c1.276-0.002,1.276-0.002,2.543-0.003c6.367,0.003,12.668-0.88,18.676-2.545    c-0.786,9.156-1.314,18.193-1.573,27.194c-3.146,1.458-6.801,3.257-12.508,6.109c-17.629,8.813-25.188,11.905-30.331,11.905    c-4.713,0-8.533,3.82-8.533,8.533s3.82,8.533,8.533,8.533c9.079,0,17.146-3.3,37.941-13.695c1.788-0.894,3.356-1.675,4.772-2.375    c0.17,10.414,0.734,20.853,1.754,31.44c-3.546,1.609-7.736,3.662-14.146,6.867c-17.614,8.808-25.177,11.902-30.322,11.902    c-4.713,0-8.533,3.82-8.533,8.533s3.82,8.533,8.533,8.533c9.081,0,17.154-3.302,37.945-13.699c3.496-1.748,6.286-3.13,8.656-4.277    c1.397,9.831,3.196,19.848,5.416,30.133c-5.243,2.001-11.596,5.028-21.693,10.076c-17.606,8.803-25.182,11.901-30.325,11.901    c-4.713,0-8.533,3.82-8.533,8.533s3.821,8.533,8.533,8.533c9.078,0,17.165-3.307,37.945-13.697    c8.201-4.1,13.725-6.754,18.022-8.535c4.934,19.451,11.363,39.983,19.527,62.189C372.515,443.634,370.726,445.371,368.736,447.217    z"/>
	</g>
</g>
<g>
</g>
<g>
</g>
<g>
</g>
<g>
</g>
<g>
</g>
<g>
</g>
<g>
</g>
<g>
</g>
<g>
</g>
<g>
</g>
<g>
</g>
<g>
</g>
<g>
</g>
<g>
</g>
<g>
</g>
</svg>
