<?xml version="1.0" encoding="iso-8859-1"?>
<!-- Generator: Adobe Illustrator 19.0.0, SVG Export Plug-In . SVG Version: 6.00 Build 0)  -->
<svg xmlns="http://www.w3.org/2000/svg" xmlns:xlink="http://www.w3.org/1999/xlink" version="1.1" id="Layer_1" x="0px" y="0px" viewBox="0 0 512 512" style="enable-background:new 0 0 512 512;" xml:space="preserve">
<g transform="translate(0 -1)">
	<g>
		<path d="M344.965,214.117c-17.036-29.663-16.201-73.189,2.71-110.984c7.08-10.794,9.431-23.638,6.704-35.906l-10.991-49.442    C341.205,7.975,332.511,1,322.463,1c-6.991,0-13.542,3.414-17.553,9.141l-48.895,69.845l-48.886-69.842    C203.115,4.415,196.555,1,189.564,1c-10.049,0-18.742,6.975-20.925,16.783l-10.983,49.445c-2.728,12.27-0.382,25.113,6.512,35.621    c19.103,28.544,20.021,71.875,2.471,112.108c-0.774,1.775-5.369,12.048-6.744,15.222c-9.918,22.898-14.815,40.648-14.815,60.954    l17.094,214.014c0.355,4.435,4.057,7.853,8.506,7.853h51.2c4.149,0,7.696-2.984,8.407-7.071l25.726-147.926l25.726,147.926    c0.711,4.087,4.258,7.071,8.407,7.071h51.2c4.449,0,8.151-3.418,8.506-7.853l17.067-213.333    C366.947,263.787,358.745,238.088,344.965,214.117z M333.47,495.933h-36.146l-31.382-180.446    c7.074-1.631,14.413-4.757,20.34-8.736c3.913-2.627,4.955-7.928,2.328-11.841s-7.928-4.955-11.841-2.328    c-6.155,4.132-14.879,7.085-20.844,7.085c-6.934,0-14.439-2.482-20.616-6.927c-3.826-2.753-9.158-1.883-11.911,1.943    c-2.753,3.825-1.883,9.158,1.943,11.91c6.239,4.489,13.399,7.608,20.705,9.112l-31.344,180.228h-36.145L162.12,290.453    c0.027-16.825,4.365-32.545,13.437-53.49c1.324-3.057,5.906-13.302,6.725-15.18c19.727-45.223,18.68-94.644-3.428-127.653    c-4.781-7.294-6.266-15.424-4.537-23.198L185.3,21.487c0.445-2,2.215-3.421,4.265-3.421c1.423,0,2.766,0.699,3.584,1.867    l55.874,79.827c3.397,4.853,10.584,4.853,13.982,0l55.885-79.829c0.819-1.169,2.154-1.864,3.574-1.864    c2.05,0,3.82,1.42,4.266,3.424l10.99,49.44c1.727,7.768,0.239,15.899-4.13,22.557l-0.945,1.546    c-21.573,42.769-22.601,92.546-2.477,127.585c12.404,21.578,19.713,44.479,19.713,68.514L333.47,495.933z"/>
	</g>
</g>
<g>
</g>
<g>
</g>
<g>
</g>
<g>
</g>
<g>
</g>
<g>
</g>
<g>
</g>
<g>
</g>
<g>
</g>
<g>
</g>
<g>
</g>
<g>
</g>
<g>
</g>
<g>
</g>
<g>
</g>
</svg>
