<?xml version="1.0" encoding="iso-8859-1"?>
<!-- Generator: Adobe Illustrator 19.0.0, SVG Export Plug-In . SVG Version: 6.00 Build 0)  -->
<svg xmlns="http://www.w3.org/2000/svg" xmlns:xlink="http://www.w3.org/1999/xlink" version="1.1" id="Layer_1" x="0px" y="0px" viewBox="0 0 503.977 503.977" style="enable-background:new 0 0 503.977 503.977;" xml:space="preserve">
<g>
	<g>
		<path d="M438.481,0.574c-0.446-0.1-1.072-0.211-1.862-0.311c-6.594-0.828-14.061,0.191-21.249,4.535    C395,17.109,388.432,48.99,400.101,105.547c-43.929-11.505-85.187-1.667-121.823,21.961c-8.974,5.788-16.946,11.988-23.841,18.202    c-0.871,0.785-1.688,1.536-2.449,2.249c-0.762-0.713-1.578-1.464-2.449-2.249c-6.894-6.214-14.867-12.414-23.841-18.202    c-36.636-23.628-77.894-33.466-121.823-21.961c11.669-56.557,5.101-88.438-15.268-100.748C81.42,0.454,73.952-0.564,67.358,0.264    c-0.79,0.099-1.417,0.211-1.862,0.311c-4.523,1.015-7.367,5.504-6.353,10.027s5.504,7.367,10.027,6.353    c-0.062,0.014,0.039-0.004,0.279-0.034c3.164-0.397,6.96,0.12,10.476,2.245c13.973,8.445,18.721,37.225,4.628,95.901    c-1.354,2.877-3.115,7.337-4.854,13.134c-7.725,25.75-7.723,53.334,5.315,79.401c4.006,8.009,9.183,15.633,15.591,22.809    c6.015,6.734,9.893,15.703,12.685,28.099c6.765,30.041,6.083,102.168-3.826,151.487c-1.15,5.723,3.749,10.844,9.518,9.947    c1.232-0.192,3.579-0.238,7.029-0.143c0.802,0.022,1.59,0.048,2.797,0.092c3.499,0.126,4.325,0.151,5.673,0.151    c37.061,0,71.135,35.834,75.162,76.371c0.427,4.293,4.038,7.564,8.352,7.564h67.987c4.314,0,7.926-3.271,8.352-7.564    c4.027-40.537,38.102-76.371,75.162-76.371c1.348,0,2.174-0.025,5.673-0.151c1.207-0.043,1.995-0.07,2.797-0.092    c3.45-0.095,5.796-0.048,7.029,0.143c5.833,0.906,10.755-4.332,9.486-10.098c-9.865-44.836-10.573-114.82-3.731-151.648    c2.086-11.245,6.271-20.678,12.62-27.786c6.409-7.178,11.586-14.802,15.592-22.81c13.038-26.067,13.04-53.651,5.315-79.401    c-1.739-5.797-3.5-10.256-4.854-13.134c-14.092-58.676-9.345-87.456,4.628-95.901c3.516-2.125,7.312-2.643,10.476-2.245    c0.24,0.03,0.341,0.048,0.279,0.034c4.523,1.015,9.012-1.83,10.027-6.353C445.849,6.078,443.005,1.589,438.481,0.574z     M403.949,200.091c-3.341,6.679-7.68,13.069-13.099,19.138c-0.17,0.19-0.33,0.388-0.498,0.58    c-0.573,0.345-1.117,0.755-1.611,1.249c-1.223,1.223-5.158,3.708-12.671,6.44c-13.461,4.895-32.168,7.888-56.935,7.888    c-4.636,0-8.393,3.758-8.393,8.393s3.758,8.393,8.393,8.393c23.821,0,42.829-2.646,57.591-7.205    c-1.005,3.266-1.831,6.658-2.482,10.164c-6.731,36.231-6.579,101.158,1.779,147.932c-0.43,0.014-0.903,0.031-1.46,0.051    c-3.229,0.116-4.017,0.14-5.068,0.14c-43.861,0-82.765,38.505-90.821,83.934h-53.374c-8.056-45.429-46.96-83.934-90.821-83.934    c-1.052,0-1.84-0.024-5.068-0.14c-0.621-0.022-1.138-0.04-1.606-0.056c8.526-50.72,8.701-117.865,1.861-148.24    c-0.788-3.496-1.667-6.794-2.65-9.925c14.795,4.604,33.876,7.278,57.823,7.278c4.636,0,8.393-3.758,8.393-8.393    s-3.758-8.393-8.393-8.393c-24.767,0-43.473-2.993-56.935-7.888c-7.513-2.732-11.448-5.217-12.671-6.44    c-0.494-0.494-1.038-0.904-1.611-1.249c-0.168-0.193-0.328-0.39-0.499-0.581c-5.418-6.068-9.757-12.457-13.098-19.137    c-10.852-21.695-10.853-45.057-4.25-67.068c0.944-3.146,1.949-5.972,2.948-8.428c42.487-14.306,82.297-5.926,117.874,17.019    c8.178,5.274,15.445,10.926,21.7,16.564c1.894,1.707,3.554,3.292,5.002,4.739c-1.443,7.808-8.264,13.714-16.494,13.714    c-4.636,0-8.393,3.758-8.393,8.393s3.758,8.393,8.393,8.393c10.034,0,19.03-4.4,25.18-11.371    c6.151,6.971,15.146,11.371,25.18,11.371c4.636,0,8.393-3.758,8.393-8.393s-3.758-8.393-8.393-8.393    c-8.23,0-15.052-5.906-16.494-13.714c1.448-1.448,3.109-3.032,5.002-4.739c6.255-5.638,13.522-11.29,21.7-16.564    c35.577-22.945,75.387-31.326,117.874-17.019c0.999,2.456,2.004,5.282,2.948,8.428    C414.802,155.035,414.801,178.396,403.949,200.091z"/>
	</g>
</g>
<g>
</g>
<g>
</g>
<g>
</g>
<g>
</g>
<g>
</g>
<g>
</g>
<g>
</g>
<g>
</g>
<g>
</g>
<g>
</g>
<g>
</g>
<g>
</g>
<g>
</g>
<g>
</g>
<g>
</g>
</svg>
