<?xml version="1.0" encoding="iso-8859-1"?>
<!-- Generator: Adobe Illustrator 19.0.0, SVG Export Plug-In . SVG Version: 6.00 Build 0)  -->
<svg xmlns="http://www.w3.org/2000/svg" xmlns:xlink="http://www.w3.org/1999/xlink" version="1.1" id="Layer_1" x="0px" y="0px" viewBox="0 0 512.004 512.004" style="enable-background:new 0 0 512.004 512.004;" xml:space="preserve">
<g transform="translate(0 -1)">
	<g>
		<path d="M452.239,8.825c-0.392-4.697-4.516-8.186-9.213-7.795c-6.13,0.511-14.436,3.679-22.471,11.531    c-19.291,18.853-25.724,54.91-13.957,112.439c-44.665-11.701-86.615-1.7-123.864,22.324c-9.124,5.884-17.229,12.188-24.238,18.505    c-0.885,0.798-1.716,1.561-2.49,2.286c-0.775-0.725-1.605-1.488-2.49-2.286c-7.009-6.318-15.115-12.621-24.238-18.505    c-37.252-24.026-79.205-34.027-123.873-22.322c11.768-57.531,5.335-93.588-13.956-112.442C83.414,4.709,75.108,1.541,68.978,1.03    c-4.697-0.392-8.821,3.098-9.213,7.795c-0.392,4.697,3.098,8.821,7.795,9.213c2.477,0.207,7.084,1.963,11.96,6.729    c15.73,15.373,20.723,49.639,6.25,109.93c-1.375,2.926-3.162,7.453-4.926,13.332c-7.856,26.179-7.854,54.223,5.403,80.724    c4.073,8.142,9.338,15.894,15.854,23.19c7.168,8.025,11.686,17.713,12.735,27.593c0.722,6.774,1.616,20.877,2.467,38.486    l-44.392,74.539c-4.559,7.64-5.752,16.772-2.668,24.82c4.153,10.809,13.547,17.17,28.316,18.254l-12.613,31.533l-0.444,1.495    c-0.087,0.437-0.189,1.068-0.281,1.869c-0.556,4.831-0.228,10.133,1.711,15.384c6.445,17.455,25.936,23.206,58.257,13.372    c13.774-4.197,27.63-3.852,39.127,1.297c5.354,2.405,10.21,5.677,14.452,9.919c3.351,3.351,8.79,3.33,12.114-0.047    c1.416-1.438,5.081-4.066,11.268-6.859c8.987-4.058,20.2-6.827,33.852-7.647c13.652,0.82,24.865,3.588,33.852,7.647    c6.186,2.793,9.852,5.422,11.268,6.859c3.325,3.377,8.764,3.398,12.114,0.047c4.248-4.248,9.1-7.519,14.457-9.922    c11.492-5.146,25.349-5.492,39.119-1.296c32.325,9.835,51.816,4.083,58.261-13.371c1.939-5.251,2.266-10.553,1.711-15.384    c-0.092-0.801-0.193-1.432-0.281-1.869l-0.444-1.495l-12.613-31.533c14.772-1.084,24.167-7.445,28.309-18.254    c3.091-8.033,1.899-17.161-2.658-24.817l-44.48-74.686c0.856-17.361,1.793-31.576,2.545-38.294    c1.117-9.97,5.625-19.675,12.74-27.639c6.517-7.296,11.781-15.048,15.855-23.19c13.259-26.502,13.263-54.548,5.409-80.727    c-1.771-5.902-3.564-10.44-4.941-13.364c-14.463-60.269-9.469-94.526,6.258-109.896c4.877-4.766,9.483-6.523,11.96-6.729    C449.141,17.646,452.631,13.521,452.239,8.825z M409.064,480.004c-2.782,7.534-12.657,10.448-37.28,2.957    c-17.516-5.337-35.583-4.887-51.07,2.048c-4.943,2.217-9.592,5.002-13.885,8.392c-2.679-1.738-5.986-3.567-9.95-5.357    c-11.005-4.969-24.43-8.258-40.394-9.16h-0.962c-15.964,0.901-29.39,4.19-40.394,9.16c-3.965,1.79-7.272,3.619-9.951,5.357    c-4.289-3.387-8.937-6.17-13.875-8.388c-15.496-6.939-33.564-7.39-51.083-2.051c-24.619,7.49-34.494,4.576-37.276-2.958    c-0.861-2.331-1.038-5.051-0.776-7.431l15.187-37.968c0.074-0.012,0.151-0.027,0.225-0.039c1.08-0.173,2.177-0.365,3.293-0.575    c0.419-0.079,0.848-0.169,1.271-0.253c0.725-0.144,1.454-0.292,2.194-0.451c0.555-0.119,1.116-0.245,1.678-0.373    c0.622-0.142,1.251-0.29,1.884-0.443c0.618-0.149,1.235-0.297,1.862-0.455c0.582-0.148,1.176-0.307,1.766-0.464    c0.596-0.158,1.178-0.301,1.783-0.468c5.391-1.489,10.799-2.405,16.109-2.764c9.998-0.672,19.647,0.664,28.153,4.119    c1.832,0.745,3.601,1.58,5.32,2.487c3.946,2.085,7.6,4.601,10.905,7.598c3.271,2.967,8.266,2.948,11.514-0.043    c1.622-1.494,5.756-4.182,12.712-7.029c10.094-4.132,22.68-6.945,37.981-7.769c15.297,0.824,27.882,3.637,37.977,7.769    c6.471,2.649,10.499,5.159,12.337,6.699c0.135,0.113,0.26,0.222,0.371,0.324c0.204,0.188,0.416,0.364,0.633,0.529    c3.238,2.459,7.821,2.303,10.889-0.48c2.965-2.69,6.206-5,9.692-6.953c2.092-1.17,4.273-2.213,6.538-3.134    c9.175-3.726,19.676-4.993,30.519-3.923c4.544,0.449,9.145,1.301,13.734,2.568c0.645,0.178,1.268,0.332,1.903,0.5    c0.545,0.144,1.094,0.292,1.632,0.429c0.644,0.163,1.277,0.315,1.91,0.467c0.617,0.149,1.231,0.293,1.838,0.432    c0.571,0.13,1.14,0.258,1.703,0.379c0.733,0.158,1.455,0.304,2.174,0.447c0.428,0.085,0.862,0.176,1.285,0.256    c1.115,0.21,2.213,0.402,3.292,0.575c0.073,0.012,0.149,0.027,0.222,0.039l15.187,37.968    C410.101,474.953,409.924,477.673,409.064,480.004z M425.823,411.263c-2.157,5.627-8.702,8.879-22.512,7.441    c-0.532-0.169-1.078-0.306-1.646-0.369c-4.717-0.521-9.914-1.495-15.666-2.969c-0.904-0.235-1.822-0.48-2.763-0.74    c-4.686-1.291-9.403-2.234-14.101-2.824c-0.062-0.008-0.123-0.019-0.185-0.026c-0.228-0.028-0.455-0.045-0.683-0.072    c-14.045-1.637-27.909-0.094-40.254,4.92c-2.833,1.152-5.579,2.461-8.228,3.932c-2.649,1.47-5.201,3.102-7.646,4.903    c-3.055-1.866-6.939-3.86-11.696-5.807c-11.976-4.903-26.595-8.151-44.003-9.042c-18.285,0.891-32.906,4.139-44.883,9.042    c-4.756,1.947-8.64,3.94-11.695,5.806c-2.883-2.125-5.919-4.008-9.086-5.674c-2.199-1.158-4.459-2.213-6.78-3.157    c-11.346-4.608-23.975-6.285-36.847-5.258c-0.176,0.014-0.351,0.02-0.527,0.035c-0.138,0.012-0.276,0.031-0.414,0.043    c-5.798,0.521-11.64,1.582-17.434,3.18c-0.918,0.253-1.816,0.494-2.7,0.724c-5.777,1.484-10.997,2.463-15.733,2.986    c-0.568,0.063-1.114,0.199-1.647,0.369c-13.81,1.438-20.356-1.813-22.517-7.438c-1.102-2.876-0.616-6.599,1.393-9.966    l45.281-76.031h246.305l45.276,76.024C426.442,404.67,426.928,408.391,425.823,411.263z M410.495,221.118    c-3.397,6.791-7.809,13.287-13.32,19.457c-0.174,0.195-0.339,0.397-0.511,0.594c-0.579,0.35-1.129,0.765-1.629,1.265    c-1.244,1.244-5.244,3.77-12.882,6.548c-13.686,4.977-32.704,8.02-57.884,8.02c-4.713,0-8.533,3.82-8.533,8.533    s3.82,8.533,8.533,8.533c23.993,0,43.186-2.638,58.135-7.194c-1.043,3.537-1.791,7.151-2.201,10.811    c-0.664,5.936-1.433,16.879-2.174,30.513H133.896c-0.724-13.698-1.455-24.521-2.089-30.468c-0.39-3.669-1.13-7.295-2.173-10.847    c14.944,4.55,34.127,7.184,58.102,7.184c4.713,0,8.533-3.82,8.533-8.533s-3.82-8.533-8.533-8.533    c-25.18,0-44.198-3.043-57.884-8.02c-7.638-2.778-11.638-5.304-12.882-6.548c-0.5-0.5-1.05-0.915-1.628-1.265    c-0.172-0.197-0.337-0.399-0.512-0.595c-5.51-6.169-9.922-12.666-13.319-19.456c-11.034-22.056-11.035-45.806-4.32-68.183    c0.96-3.199,1.983-6.072,2.998-8.57c43.195-14.545,83.669-6.025,119.84,17.303c8.314,5.362,15.703,11.108,22.062,16.84    c1.924,1.734,3.611,3.344,5.082,4.814c-1.466,7.939-8.402,13.945-16.769,13.945c-4.713,0-8.533,3.82-8.533,8.533    s3.821,8.533,8.533,8.533c10.202,0,19.347-4.473,25.6-11.56c6.253,7.087,15.398,11.56,25.6,11.56c4.713,0,8.533-3.82,8.533-8.533    s-3.821-8.533-8.533-8.533c-8.365,0-15.299-6.002-16.768-13.938c1.473-1.473,3.162-3.085,5.089-4.822    c6.359-5.732,13.748-11.478,22.062-16.84c36.17-23.328,76.644-31.848,119.839-17.303c1.015,2.496,2.037,5.368,2.996,8.566    C421.533,175.309,421.53,199.06,410.495,221.118z"/>
	</g>
</g>
<g>
</g>
<g>
</g>
<g>
</g>
<g>
</g>
<g>
</g>
<g>
</g>
<g>
</g>
<g>
</g>
<g>
</g>
<g>
</g>
<g>
</g>
<g>
</g>
<g>
</g>
<g>
</g>
<g>
</g>
</svg>
