<?xml version="1.0" encoding="iso-8859-1"?>
<!-- Generator: Adobe Illustrator 19.0.0, SVG Export Plug-In . SVG Version: 6.00 Build 0)  -->
<svg xmlns="http://www.w3.org/2000/svg" xmlns:xlink="http://www.w3.org/1999/xlink" version="1.1" id="Layer_1" x="0px" y="0px" viewBox="0 0 512.002 512.002" style="enable-background:new 0 0 512.002 512.002;" xml:space="preserve">
<g transform="translate(0 -1)">
	<g>
		<g>
			<path d="M144.978,227.341c5.963,3.54,12.068,4.504,17.34,4.085c7.72-0.06,16.101-0.96,25.273-2.597     c8.594-1.534,17.668-3.677,26.972-6.274c6.842-1.909,13.415-3.953,19.493-5.998c2.132-0.717,4.053-1.385,5.734-1.986     c0.236-0.084,0.452-0.162,0.656-0.235h31.111c0.204,0.073,0.42,0.151,0.656,0.235c1.681,0.601,3.602,1.268,5.734,1.986     c6.078,2.045,12.652,4.089,19.493,5.998c9.304,2.597,18.377,4.74,26.972,6.274c9.171,1.637,17.552,2.537,25.005,2.572     c5.54,0.444,11.645-0.519,17.608-4.06c10.8-6.412,16.977-19.216,16.977-38.606c0-6.823-0.972-14.054-2.809-21.647     c-3.031-12.536-8.313-25.721-15.202-39.122c-3.859-7.508-7.987-14.621-12.118-21.129c-1.45-2.284-2.8-4.334-4.016-6.122     c-0.021-0.032-0.039-0.057-0.06-0.088c-0.958-21.934-12.575-68.534-26.507-95.06c-2.191-4.172-7.35-5.778-11.523-3.587     c-4.172,2.191-5.778,7.35-3.587,11.523c12.667,24.118,23.609,68.001,24.548,87.365c-4.53,5.245-25.095,27.128-31.876,35.031     c-10.49,12.224-18.845,23.499-25.012,34.325c-5.447,9.561-9.05,18.558-10.535,27.044h-18.609     c-1.485-8.486-5.088-17.484-10.535-27.044c-6.167-10.826-14.522-22.101-25.012-34.325c-6.781-7.902-27.346-29.785-31.876-35.031     c0.939-19.364,11.881-63.247,24.548-87.365c2.191-4.172,0.586-9.331-3.587-11.523c-4.172-2.191-9.331-0.586-11.523,3.587     c-13.932,26.526-25.549,73.126-26.507,95.06c-0.021,0.031-0.039,0.056-0.06,0.088c-1.216,1.788-2.566,3.837-4.016,6.122     c-4.131,6.508-8.259,13.621-12.118,21.129c-6.889,13.402-12.171,26.586-15.202,39.122c-1.836,7.594-2.809,14.825-2.809,21.647     C128.001,208.125,134.178,220.929,144.978,227.341z M290.669,178.672c5.546-9.735,13.294-20.192,23.135-31.659     c3.562-4.151,17.396-18.945,26.665-29.433c3.532,5.657,7.048,11.779,10.343,18.188c6.319,12.292,11.118,24.273,13.792,35.331     c1.536,6.352,2.331,12.261,2.331,17.636c0,13.747-3.423,20.844-8.623,23.931c-2.495,1.481-5.216,1.911-7.274,1.747     c-0.11-0.011-1.17-0.078-1.17-0.078c-6.446,0-14.017-0.801-22.457-2.308c-8.012-1.43-16.569-3.452-25.384-5.911     c-6.536-1.824-12.829-3.78-18.639-5.735c-0.423-0.142-0.832-0.281-1.227-0.415C283.301,193.718,286.168,186.572,290.669,178.672z      M147.398,171.099c2.674-11.058,7.473-23.039,13.792-35.331c3.295-6.409,6.81-12.531,10.343-18.188     c9.269,10.488,23.103,25.282,26.665,29.433c9.84,11.467,17.589,21.924,23.135,31.659c4.501,7.901,7.368,15.047,8.507,21.294     c-0.395,0.134-0.804,0.273-1.227,0.415c-5.81,1.955-12.103,3.911-18.639,5.735c-8.815,2.46-17.372,4.481-25.384,5.911     c-8.44,1.507-16.011,2.308-22.457,2.308l-1.233,0.09c-1.995,0.152-4.716-0.278-7.211-1.759c-5.2-3.087-8.623-10.183-8.623-23.931     C145.068,183.36,145.862,177.451,147.398,171.099z"/>
			<path d="M399.485,380.051c-2.734-3.839-8.062-4.734-11.901-2c-18.202,12.965-33.909,21.266-47.945,24.186     c-27.598,5.319-59.366,8.364-83.638,8.364c-24.272,0-56.04-3.045-83.638-8.364c-14.035-2.92-29.742-11.221-47.945-24.186     c-3.839-2.734-9.167-1.839-11.901,2c-2.734,3.839-1.839,9.167,2,11.901c17.985,12.81,33.983,21.579,49.319,25.764     c7.507,22.265,33.087,57.775,56.021,81.617c8.162,8.492,23.924,13.668,36.145,13.668c12.17,0,27.754-5.208,36.053-13.575     c22.208-22.366,48.487-59.036,56.114-81.711c15.335-4.185,31.333-12.954,49.317-25.763     C401.324,389.218,402.219,383.89,399.485,380.051z M279.94,487.405c-4.738,4.777-15.969,8.53-23.939,8.53     c-7.971,0-19.322-3.728-23.842-8.431c-18.164-18.884-38.742-46.599-48.264-65.926c24.737,3.912,51.014,6.09,72.107,6.09     c21.102,0,47.393-2.18,72.14-6.096C318.494,441.324,297.503,469.717,279.94,487.405z"/>
		</g>
	</g>
</g>
<g>
</g>
<g>
</g>
<g>
</g>
<g>
</g>
<g>
</g>
<g>
</g>
<g>
</g>
<g>
</g>
<g>
</g>
<g>
</g>
<g>
</g>
<g>
</g>
<g>
</g>
<g>
</g>
<g>
</g>
</svg>
