<?xml version="1.0" encoding="iso-8859-1"?>
<!-- Generator: Adobe Illustrator 19.0.0, SVG Export Plug-In . SVG Version: 6.00 Build 0)  -->
<svg xmlns="http://www.w3.org/2000/svg" xmlns:xlink="http://www.w3.org/1999/xlink" version="1.1" id="Layer_1" x="0px" y="0px" viewBox="0 0 503.716 503.716" style="enable-background:new 0 0 503.716 503.716;" xml:space="preserve">
<g transform="translate(0 -1)">
	<g>
		<path d="M425.723,41.575c-2.698-6.226-7.423-12.284-14.518-17.742C392.475,9.426,360.04,1.109,310.612,1.109    c-2.226,0-4.361,0.884-5.935,2.458c-2.703,2.703-6.388,7.616-9.966,14.772c-5.286,10.572-8.632,22.997-9.195,37.218    c-9.443,7.212-17.324,15.474-24.576,25.238c-2.948,3.969-5.725,8.081-8.824,12.978c-3.598-4.984-6.371-9.091-9.314-13.055    c-7.258-9.777-15.147-18.049-24.602-25.27c-0.563-14.221-3.909-26.647-9.195-37.218c-3.578-7.155-7.262-12.068-9.966-14.772    C197.465,1.884,195.33,1,193.104,1c-49.428,0-81.863,8.317-100.593,22.724C85.416,29.182,80.69,35.24,77.992,41.466    c-1.761,4.064-2.397,7.488-2.397,9.895c0,4.636,3.758,8.393,8.393,8.393c0.638,0,1.979,0.04,3.921,0.163    c3.316,0.211,7.031,0.592,11.04,1.186c11.441,1.695,22.867,4.742,33.441,9.442c22.67,10.076,38.229,26.21,44.176,50    c0.149,0.776,5.514,17.205,7.575,24.355c1.74,6.036,3.19,11.736,4.349,17.137c0.012,0.063,0.016,0.126,0.029,0.19    c2.777,13.012,3.534,23.405,1.985,29.865c-0.077,0.321-0.133,0.642-0.172,0.961c-0.048,0.161-0.09,0.333-0.141,0.488    c-4.514,13.71-11.477,29.276-21.212,46.793c-1.341,2.665-2.941,6.752-4.492,12.438c-6.012,22.046-6.012,48.594,3.865,78.228    c-0.024,0.064,0.34,1.669,0.851,3.97c0.855,3.846,1.808,8.233,2.835,13.082c2.935,13.86,5.87,28.635,8.609,43.697    c2.516,13.839,4.741,27.247,6.595,39.97c3.779,25.93,5.859,47.888,5.859,64.495c0,4.636,3.758,8.393,8.393,8.393h49.004    c0.442,0.072,0.895,0.109,1.357,0.109h50.361c4.636,0,8.393-3.758,8.393-8.393c0-16.608,2.08-38.565,5.859-64.495    c1.854-12.723,4.079-26.131,6.595-39.97c2.739-15.063,5.674-29.837,8.609-43.697c1.027-4.849,1.98-9.236,2.835-13.082    c0.511-2.301,0.875-3.906,1.067-4.737c9.662-28.867,9.662-55.415,3.65-77.461c-1.551-5.686-3.15-9.774-4.321-12.115    c-9.906-17.84-16.869-33.407-21.383-47.117c-0.06-0.181-0.11-0.38-0.165-0.57c-0.038-0.317-0.092-0.635-0.167-0.954    c-1.529-6.493-0.757-16.909,2.026-29.89c0.014-0.064,0.017-0.127,0.029-0.19c1.155-5.372,2.598-11.037,4.326-17.035    c2.028-7.036,7.255-23.057,7.642-24.652c5.88-23.492,21.438-39.627,44.109-49.703c10.575-4.7,22-7.747,33.441-9.442    c4.01-0.594,7.724-0.975,11.04-1.186c1.942-0.123,3.283-0.163,3.921-0.163c4.636,0,8.393-3.758,8.393-8.393    C428.12,49.063,427.484,45.639,425.723,41.575z M320.062,248.596c0.524,1.066,1.722,4.128,2.969,8.701    c5.179,18.989,5.179,42.18-3.595,68.502c-0.417,1.641-0.791,3.29-1.313,5.637c-0.867,3.9-1.831,8.341-2.87,13.246    c-2.967,14.009-5.933,28.939-8.702,44.172c-2.549,14.022-4.806,27.621-6.691,40.552c-3.293,22.596-5.339,42.333-5.886,58.523    h-40.759c-0.442-0.072-0.895-0.109-1.357-0.109h-42.116c-0.547-16.19-2.593-35.927-5.886-58.523    c-1.885-12.931-4.141-26.53-6.691-40.552c-2.77-15.233-5.736-30.163-8.702-44.172c-1.039-4.905-2.004-9.346-2.87-13.246    c-0.521-2.347-0.895-3.996-1.097-4.87c-8.99-27.09-8.99-50.28-3.811-69.269c1.247-4.573,2.445-7.635,3.14-9.024    c9.239-16.609,16.222-31.901,21.067-45.723h23.715c-11.669,11.225-18.715,25.204-18.715,41.967c0,4.636,3.758,8.393,8.393,8.393    c4.636,0,8.393-3.758,8.393-8.393c0-12.779,5.886-23.373,16.002-32.107c2.004-1.73,4.095-3.314,6.225-4.751    c0.797,4.62,2.045,9.581,3.887,14.58c6.948,18.854,20.408,30.812,41.091,30.671c4.635-0.032,8.367-3.815,8.336-8.451    c-0.032-4.635-3.815-8.368-8.451-8.336c-12.668,0.087-20.501-6.873-25.224-19.689c-1.608-4.365-2.701-9.098-3.362-13.885h33.605    C303.633,216.293,310.642,231.646,320.062,248.596z M295.581,185.654h-39.315c-0.09-0.002-0.18-0.001-0.27,0h-47.863    c0.105-5.031-0.346-10.626-1.293-16.787h90.055C295.943,175.026,295.484,180.622,295.581,185.654z M402.306,44.606    c-12.845,1.903-25.706,5.333-37.799,10.707c-27.069,12.031-46.327,32.003-53.644,61.268c-0.086,0.383-5.117,15.79-7.42,23.778    c-1.161,4.029-2.197,7.924-3.128,11.721h-96.889c-0.937-3.831-1.981-7.763-3.154-11.83c-2.302-7.987-7.333-23.395-7.337-23.415    c-7.399-29.629-26.658-49.601-53.726-61.631c-12.093-5.375-24.954-8.804-37.799-10.707c-1.994-0.295-3.877-0.54-5.637-0.741    c1.597-2.051,3.855-4.328,6.973-6.726c14.928-11.483,42.661-18.813,86.436-19.225c1.618,2.187,3.258,4.832,4.808,7.932    c4.679,9.358,7.507,20.671,7.507,34.017c0,2.722,1.32,5.274,3.54,6.848c9.477,6.716,17.16,14.525,24.286,24.123    c2.665,3.59,5.215,7.366,8.102,11.93c1.321,2.087,5.107,8.229,6.677,10.77c2.415,5.822,11.049,7.256,14.873,1.139    c0.626-1.001,5.744-9.316,7.324-11.812c2.893-4.571,5.447-8.352,8.116-11.946c7.12-9.586,14.797-17.386,24.262-24.094    c2.221-1.574,3.54-4.126,3.54-6.848c0-13.346,2.828-24.659,7.507-34.017c1.55-3.1,3.19-5.745,4.808-7.932    c43.775,0.411,71.508,7.742,86.436,19.225c3.117,2.398,5.376,4.675,6.973,6.726C406.183,44.066,404.299,44.311,402.306,44.606z"/>
	</g>
</g>
<g>
</g>
<g>
</g>
<g>
</g>
<g>
</g>
<g>
</g>
<g>
</g>
<g>
</g>
<g>
</g>
<g>
</g>
<g>
</g>
<g>
</g>
<g>
</g>
<g>
</g>
<g>
</g>
<g>
</g>
</svg>
