<?xml version="1.0" encoding="iso-8859-1"?>
<!-- Generator: Adobe Illustrator 19.0.0, SVG Export Plug-In . SVG Version: 6.00 Build 0)  -->
<svg xmlns="http://www.w3.org/2000/svg" xmlns:xlink="http://www.w3.org/1999/xlink" version="1.1" id="Layer_1" x="0px" y="0px" viewBox="0 0 512.108 512.108" style="enable-background:new 0 0 512.108 512.108;" xml:space="preserve">
<g>
	<g>
		<path d="M485.004,480.667c-0.008-0.011-0.014-0.023-0.022-0.034c-0.11-0.162-0.229-0.317-0.35-0.472    c-0.062-0.08-0.121-0.163-0.186-0.241c-0.062-0.074-0.13-0.143-0.195-0.216c-0.108-0.121-0.212-0.246-0.327-0.361    c-79.084-79.101-137.471-210.053-150.746-241.356c1.184-23.545,6.448-45.005,14.229-58.583c0.008-0.017,0.486-0.734,0.495-0.751    c6.852-10.445,9.225-23.441,6.519-35.627l-10.991-49.442c-1.369-6.167-5.237-11.173-10.412-14.066    c1.749-32.34,17.71-62.452,33.968-62.452c4.719,0,8.533-3.814,8.533-8.533S371.705,0,366.986,0    c-28.308,0-48.564,39.589-50.961,77.806c-4.431,1.406-8.346,4.231-11.08,8.133l-48.896,69.845l-48.887-69.845    c-2.734-3.903-6.65-6.728-11.081-8.134C193.683,39.588,173.427,0,145.119,0c-4.719,0-8.533,3.814-8.533,8.533    s3.814,8.533,8.533,8.533c16.258,0,32.219,30.113,33.968,62.453c-5.174,2.893-9.042,7.899-10.411,14.065l-10.991,49.442    c-2.705,12.203-0.333,25.19,6.494,35.575l0.461,0.708c0.205,0.324,0.427,0.623,0.683,0.913    c8.46,9.896,13.631,31.139,13.912,57.036c-16.614,39.393-73.396,165.18-150.723,242.735c-0.07,0.07-0.13,0.146-0.197,0.218    c-0.542,0.514-1.022,1.1-1.42,1.755c-1.545,2.543-1.656,5.7-0.29,8.337c0.606,1.186,11.827,21.811,50.449,21.803    c14.02,0,31.65-2.714,53.692-10.061c0.35-0.111,35.285-11.486,64.589-5.299l2.842,0.606c14.174,3.004,28.834,6.11,43.938,6.11    h27.878c15.104,0,29.764-3.106,43.938-6.11l2.842-0.606c29.329-6.238,64.239,5.188,64.58,5.291    c73.597,24.547,97.995-3.296,103.12-10.999c0.007-0.011,0.016-0.021,0.024-0.032c0.017-0.027,0.032-0.051,0.049-0.077    c0.599-0.91,0.919-1.521,1.009-1.701C486.975,486.386,486.654,483.132,485.004,480.667z M193.438,247.467h28.636    c1.188,36.006,9.858,70.166,24.514,100.969C208.664,422.01,136.735,469.834,54.891,476.94    C124.852,399.382,175.94,288.441,193.438,247.467z M239.136,247.467h79.531c17.459,40.849,68.582,151.637,139.494,229.572    C338.473,467.174,243.42,368.563,239.136,247.467z M178.481,169.284c-4.343-6.613-5.845-14.822-4.13-22.562l10.991-49.442    c0.742-3.405,5.837-4.412,7.834-1.553l55.885,79.829c3.2,4.565,10.786,4.565,13.986,0l55.885-79.829    c1.997-2.859,7.083-1.852,7.834,1.553l10.991,49.442c1.715,7.731,0.213,15.957-4.087,22.519c-0.111,0.162-0.666,1.015-0.768,1.186    c-8.695,15.13-14.404,36.198-16.341,59.972H196.128c-1.143-26.829-7.364-48.657-17.451-60.809    C178.567,169.429,178.481,169.293,178.481,169.284z M386.753,485.86c-1.604-0.546-39.578-13.005-73.515-5.811l-2.85,0.606    c-13.321,2.833-27.085,5.743-40.397,5.743h-27.878c-13.312,0-27.076-2.91-40.397-5.743l-2.85-0.606    c-33.911-7.177-71.91,5.274-73.515,5.811c-31.095,10.368-51.268,10.496-63.983,7.603c81.73-8.68,153.723-55.358,194.764-126.869    c39.871,68.941,110.963,117.714,193.772,126.785C437.192,496.24,417.262,496.022,386.753,485.86z"/>
	</g>
</g>
<g>
</g>
<g>
</g>
<g>
</g>
<g>
</g>
<g>
</g>
<g>
</g>
<g>
</g>
<g>
</g>
<g>
</g>
<g>
</g>
<g>
</g>
<g>
</g>
<g>
</g>
<g>
</g>
<g>
</g>
</svg>
