<?xml version="1.0" encoding="iso-8859-1"?>
<!-- Generator: Adobe Illustrator 19.0.0, SVG Export Plug-In . SVG Version: 6.00 Build 0)  -->
<svg xmlns="http://www.w3.org/2000/svg" xmlns:xlink="http://www.w3.org/1999/xlink" version="1.1" id="Layer_1" x="0px" y="0px" viewBox="0 0 512.015 512.015" style="enable-background:new 0 0 512.015 512.015;" xml:space="preserve">
<g>
	<g>
		<g>
			<path d="M502.715,337.662l-15.466-34.246c-0.088-0.291-0.191-0.58-0.313-0.866c-0.165-0.389-0.364-0.753-0.577-1.104     L383.948,74.673c-0.836-11.435-8.286-32.896-21.726-39.629l-67.9-33.95c-1.229-0.703-2.627-1.089-4.108-1.074     c-0.026,0-0.051-0.005-0.077-0.005H221.87c-0.022,0-0.044,0.004-0.066,0.004c-1.496-0.013-2.903,0.376-4.136,1.088     l-67.875,33.938c-13.448,6.733-20.89,28.194-21.726,39.629L25.662,301.431c-0.217,0.355-0.418,0.724-0.585,1.119     c-0.122,0.287-0.225,0.578-0.314,0.87L9.3,337.662c-0.939,2.074-1.007,4.437-0.196,6.562c0.811,2.125,2.441,3.831,4.523,4.762     l39.023,17.237c4.062,1.792,8.781,0.196,10.914-3.686l89.148-161.271c9.301,25.719,23.117,57.404,26.496,65.084v8.777     c-23.4,7.566-58.877,30.187-59.73,74.585c-0.094,4.719,3.652,8.61,8.363,8.704h0.171c4.634,0,8.439-3.721,8.533-8.363     c0.659-34.346,26.884-50.169,42.246-56.5c-1.41,15.574-6.488,30.586-14.917,43.871c-23.467,36.949-35.866,79.616-35.866,123.392     v42.667c0,4.719,3.823,8.533,8.533,8.533h85.331h0.003h68.264c0,0,0.001,0,0.001,0s0.001,0,0.001,0h85.333     c4.71,0,8.533-3.814,8.533-8.533v-42.667c0-43.767-12.399-86.434-35.866-123.392c-5.233-8.248-9.167-17.164-11.745-26.463     c13.473,14.185,33.027,29.329,55.751,30.38c0.137,0.008,0.265,0.008,0.401,0.008c4.531,0,8.303-3.567,8.516-8.141     c0.213-4.71-3.422-8.704-8.132-8.917c-29.366-1.36-54.385-36.506-60.125-45.175v-12.767c3.379-7.68,17.195-39.364,26.496-65.084     l89.148,161.271c2.133,3.883,6.861,5.47,10.914,3.686l39.023-17.237c2.082-0.93,3.712-2.637,4.523-4.762     C503.722,342.099,503.653,339.735,502.715,337.662z M263.353,47.806l-7.347,16.525l-21-47.25h42.002L263.353,47.806z      M220.371,26.183l27.102,60.971v9.984l-28.262-14.131l8.695-8.695c2.176-2.167,3.012-5.35,2.193-8.303     c-0.819-2.97-3.174-5.257-6.152-5.999l-22.391-5.606L220.371,26.183z M284.108,74.314l8.695,8.695l-11.766,5.883     c-0.018,0.009-0.037,0.014-0.056,0.023l-16.441,8.223v-9.982l27.102-60.979l18.816,28.228l-22.391,5.598     c-2.978,0.742-5.333,3.038-6.153,5.999C281.095,68.963,281.932,72.138,284.108,74.314z M52.411,347.458l-24.021-10.607     l8.953-19.824l25.828,10.965L52.411,347.458z M145.074,460.815c0-40.533,11.486-80.034,33.203-114.244     c11.776-18.543,17.997-39.953,17.997-61.926v-20.096c0-1.195-0.247-2.372-0.734-3.456c-0.247-0.563-24.934-56.329-32.657-83.371     c-0.939-3.319-3.797-5.743-7.236-6.135c-3.379-0.41-6.758,1.323-8.431,4.352L71.473,312.97L44.37,301.467l99.757-220.88     c0.444-0.87,0.742-1.826,0.87-2.85c0.051-0.393,0.068-0.794,0.06-1.195c0.111-6.758,5.803-22.946,12.365-26.223l39.526-19.763     L180.64,55.017c-1.536,2.304-1.86,5.222-0.862,7.808c1.007,2.586,3.2,4.531,5.888,5.197l19.516,4.881l-6.409,6.409     c-1.946,1.946-2.833,4.693-2.389,7.407c0.435,2.705,2.15,5.035,4.608,6.263l18.299,9.149     c7.271,60.202,11.114,128.036,11.114,196.55c0,69.82-8.354,135.629-15.727,193.681l-0.327,2.586h-69.277V460.815z      M231.557,494.948l0.051-0.435c7.441-58.556,15.863-124.937,15.863-195.831c0-64.98-3.422-129.396-9.924-187.422l7.314,3.657     l7.329,3.669c0.086,0.043,0.175,0.072,0.262,0.112c0.101,0.046,0.202,0.088,0.304,0.13c0.246,0.101,0.495,0.19,0.748,0.267     c0.108,0.033,0.214,0.067,0.323,0.095c0.264,0.07,0.531,0.123,0.8,0.167c0.095,0.016,0.189,0.037,0.285,0.049     c0.731,0.094,1.47,0.093,2.201-0.002c0.084-0.011,0.167-0.03,0.251-0.044c0.275-0.044,0.547-0.098,0.817-0.169     c0.113-0.03,0.225-0.065,0.337-0.099c0.25-0.077,0.497-0.164,0.741-0.264c0.098-0.041,0.196-0.081,0.294-0.125     c0.091-0.041,0.185-0.072,0.275-0.117l6.596-3.302l8.046-4.023c-6.511,58.025-9.932,122.442-9.932,187.421     c0,70.895,8.431,137.276,15.863,195.831l0.051,0.435H231.557z M356.368,171.586c-3.439,0.393-6.298,2.816-7.245,6.135     c-7.706,27.025-32.401,82.799-32.648,83.371c-0.486,1.084-0.734,2.261-0.734,3.456v20.096c0,21.982,6.221,43.392,17.997,61.926     c21.717,34.219,33.203,73.719,33.203,114.244v34.133h-69.282l-0.327-2.586c-7.373-58.052-15.727-123.861-15.727-193.681     c0-68.512,3.851-136.344,11.114-196.545l18.303-9.151c2.458-1.229,4.173-3.558,4.608-6.272c0.444-2.705-0.444-5.453-2.389-7.398     l-6.409-6.409l19.516-4.881c2.688-0.666,4.881-2.611,5.888-5.205c0.998-2.577,0.674-5.495-0.862-7.808l-16.302-24.453     l39.521,19.761c6.562,3.277,12.254,19.465,12.365,26.223c-0.008,0.401,0.009,0.802,0.06,1.195c0.128,1.024,0.435,1.98,0.87,2.85     l99.757,220.88l-27.103,11.503l-75.742-137.032C363.126,172.9,359.764,171.1,356.368,171.586z M459.604,347.458l-10.76-19.466     l25.828-10.965l8.953,19.824L459.604,347.458z"/>
			<path d="M204.807,418.148h-34.133c-4.71,0-8.533,3.814-8.533,8.533s3.823,8.533,8.533,8.533h34.133     c4.71,0,8.533-3.814,8.533-8.533S209.518,418.148,204.807,418.148z"/>
			<path d="M298.674,426.681c0,4.719,3.823,8.533,8.533,8.533h34.133c4.71,0,8.533-3.814,8.533-8.533s-3.823-8.533-8.533-8.533     h-34.133C302.497,418.148,298.674,421.962,298.674,426.681z"/>
			<path d="M213.341,298.681c4.71,0,8.533-3.814,8.533-8.533v-8.533c0-4.719-3.823-8.533-8.533-8.533     c-4.71,0-8.533,3.814-8.533,8.533v8.533C204.807,294.867,208.63,298.681,213.341,298.681z"/>
			<path d="M307.207,290.148v-8.533c0-4.719-3.823-8.533-8.533-8.533s-8.533,3.814-8.533,8.533v8.533     c0,4.719,3.823,8.533,8.533,8.533S307.207,294.867,307.207,290.148z"/>
		</g>
	</g>
</g>
<g>
</g>
<g>
</g>
<g>
</g>
<g>
</g>
<g>
</g>
<g>
</g>
<g>
</g>
<g>
</g>
<g>
</g>
<g>
</g>
<g>
</g>
<g>
</g>
<g>
</g>
<g>
</g>
<g>
</g>
</svg>
