<?xml version="1.0" encoding="iso-8859-1"?>
<!-- Generator: Adobe Illustrator 19.0.0, SVG Export Plug-In . SVG Version: 6.00 Build 0)  -->
<svg xmlns="http://www.w3.org/2000/svg" xmlns:xlink="http://www.w3.org/1999/xlink" version="1.1" id="Layer_1" x="0px" y="0px" viewBox="0 0 512.005 512.005" style="enable-background:new 0 0 512.005 512.005;" xml:space="preserve">
<g>
	<g>
		<g>
			<path d="M256.003,307.205c4.71,0,8.533-3.814,8.533-8.533s-3.823-8.533-8.533-8.533s-8.533,3.814-8.533,8.533     S251.293,307.205,256.003,307.205z"/>
			<path d="M349.87,102.405c4.71,0,8.533-3.814,8.533-8.533s-3.823-8.533-8.533-8.533s-8.533,3.814-8.533,8.533     S345.159,102.405,349.87,102.405z"/>
			<path d="M162.136,102.405c4.71,0,8.533-3.814,8.533-8.533s-3.823-8.533-8.533-8.533c-4.71,0-8.533,3.814-8.533,8.533     S157.426,102.405,162.136,102.405z"/>
			<path d="M315.736,162.138h-34.133c-4.71,0-8.533,3.814-8.533,8.533s3.823,8.533,8.533,8.533h34.133     c4.71,0,8.533-3.814,8.533-8.533S320.447,162.138,315.736,162.138z"/>
			<path d="M221.87,401.072h-51.2c-4.71,0-8.533,3.814-8.533,8.533c0,4.719,3.823,8.533,8.533,8.533h51.2     c4.71,0,8.533-3.814,8.533-8.533C230.403,404.886,226.58,401.072,221.87,401.072z"/>
			<path d="M281.603,409.605c0,4.719,3.823,8.533,8.533,8.533h51.2c4.71,0,8.533-3.814,8.533-8.533c0-4.719-3.823-8.533-8.533-8.533     h-51.2C285.426,401.072,281.603,404.886,281.603,409.605z"/>
			<path d="M502.712,337.643l-15.46-34.209c-0.09-0.3-0.194-0.599-0.32-0.894c-0.172-0.408-0.381-0.787-0.605-1.153L408.745,129.72     c-0.096-1.373-0.526-2.742-1.318-3.985c-0.328-0.513-0.702-0.976-1.112-1.393l-22.336-49.423     c-0.41-19.447-7.245-32.623-20.335-39.177L293.952,0.901c-0.075-0.037-0.152-0.064-0.227-0.099     c-0.043-0.02-0.081-0.044-0.125-0.063c-0.026-0.011-0.052-0.019-0.077-0.03c-0.085-0.037-0.171-0.074-0.257-0.108     c-0.009-0.004-0.018-0.007-0.027-0.011c-0.099-0.038-0.198-0.071-0.298-0.106c-0.078-0.027-0.155-0.057-0.234-0.082     c-0.085-0.027-0.17-0.051-0.256-0.075c-0.065-0.018-0.129-0.037-0.194-0.054c-0.018-0.005-0.037-0.007-0.055-0.012     c-0.017-0.004-0.034-0.007-0.051-0.011c-0.092-0.022-0.183-0.048-0.275-0.067c-0.083-0.017-0.166-0.03-0.249-0.045     c-0.09-0.016-0.18-0.03-0.27-0.042c-0.103-0.015-0.205-0.033-0.308-0.045c-0.089-0.01-0.179-0.013-0.269-0.02     c-0.074-0.006-0.148-0.01-0.223-0.013c-0.109-0.005-0.219-0.015-0.328-0.016c-0.056-0.001-0.111,0.001-0.167,0.002h-68.128     c-0.156-0.001-0.311,0.007-0.467,0.014c-0.078,0.004-0.156,0.007-0.234,0.013c-0.134,0.01-0.268,0.022-0.402,0.038     c-0.041,0.005-0.081,0.013-0.122,0.018c-0.016,0.002-0.032,0.005-0.048,0.007c-0.088,0.012-0.175,0.024-0.263,0.04     c-0.186,0.032-0.369,0.073-0.552,0.118c-0.038,0.009-0.076,0.015-0.114,0.024c-0.05,0.013-0.1,0.028-0.151,0.042     c-0.187,0.052-0.37,0.113-0.553,0.177c-0.083,0.029-0.166,0.056-0.248,0.088c-0.008,0.003-0.017,0.006-0.025,0.009     c-0.002,0.001-0.004,0.001-0.006,0.002c-0.172,0.067-0.34,0.145-0.508,0.224c-0.063,0.029-0.127,0.051-0.189,0.082     l-69.692,34.842c-13.09,6.554-19.925,19.729-20.335,39.177l-22.343,49.439c-0.404,0.413-0.773,0.871-1.096,1.377     c-0.793,1.239-1.224,2.605-1.323,3.974L26.266,300.087c-0.245,0.387-0.469,0.791-0.654,1.227c-0.136,0.32-0.245,0.644-0.339,0.97     l-15.98,35.36c-0.939,2.082-1.007,4.446-0.196,6.571c0.811,2.125,2.44,3.831,4.523,4.762l39.023,17.237     c1.126,0.495,2.295,0.725,3.447,0.725c3.021,0,5.922-1.604,7.467-4.412l88.994-160.99c6.536,18.714,15.215,38.827,26.65,61.833     v2.638c-9.93,3.524-17.064,13.009-17.064,24.131v17.067c0,7.051,2.867,13.445,7.495,18.08c-1.674,4.261-3.337,8.31-5.768,12.128     c-23.458,36.949-35.857,79.616-35.857,123.392v42.667c0,4.719,3.814,8.533,8.533,8.533h134.093c0,0,0.001,0,0.001,0     c0,0,0.001,0,0.001,0h104.832c4.719,0,8.533-3.814,8.533-8.533v-42.667c0-43.776-12.399-86.443-35.857-123.392l-7.202,4.574     l7.066-4.779c-2.047-3.223-4.255-7.316-6.189-11.389c4.953-4.671,8.054-11.286,8.054-18.614v-17.067     c0-11.122-7.135-20.607-17.065-24.131v-2.638c11.435-23.006,20.113-43.119,26.65-61.833l88.994,160.99     c1.545,2.807,4.446,4.412,7.467,4.412c1.152,0,2.321-0.23,3.447-0.725l39.023-17.237c2.082-0.93,3.712-2.637,4.523-4.762     C503.719,342.089,503.65,339.725,502.712,337.643z M366.938,76.668c-0.009,0.375,0.009,0.751,0.06,1.135     c0,0.017,0,0.034,0.009,0.06v0.008v0.009v0.009v0.009v0.017v0.009c0.008,0.034,0.008,0.068,0.017,0.111     c0.145,1.118,0.512,2.167,1.041,3.106l20.747,45.912c-12.047,6.217-25.363,9.486-38.942,9.486     c-22.434,0-43.75-8.815-59.639-24.439l22.682-20.42c0.664-0.596,1.211-1.273,1.642-2.003c0.004-0.006,0.007-0.013,0.01-0.02     c0.14-0.238,0.267-0.481,0.382-0.728c0.033-0.071,0.058-0.145,0.089-0.217c0.08-0.185,0.159-0.37,0.225-0.559     c0.039-0.112,0.068-0.228,0.103-0.342c0.046-0.153,0.095-0.305,0.133-0.459c0.032-0.132,0.054-0.266,0.079-0.4     c0.027-0.141,0.057-0.282,0.077-0.425c0.019-0.136,0.029-0.274,0.041-0.411c0.013-0.145,0.028-0.29,0.034-0.436     c0.002-0.04,0.008-0.079,0.009-0.118c0.002-0.095-0.007-0.189-0.007-0.284c-0.001-0.151-0.003-0.301-0.012-0.452     c-0.008-0.127-0.021-0.253-0.035-0.379c-0.017-0.159-0.035-0.317-0.061-0.474c-0.019-0.115-0.041-0.228-0.065-0.341     c-0.034-0.168-0.072-0.335-0.117-0.502c-0.027-0.101-0.057-0.201-0.088-0.301c-0.053-0.174-0.112-0.346-0.177-0.517     c-0.035-0.092-0.072-0.184-0.111-0.275c-0.071-0.169-0.147-0.335-0.23-0.5c-0.047-0.094-0.095-0.186-0.145-0.278     c-0.083-0.152-0.171-0.301-0.264-0.449c-0.065-0.103-0.131-0.204-0.2-0.304c-0.088-0.128-0.18-0.253-0.276-0.377     c-0.088-0.113-0.178-0.224-0.272-0.334c-0.046-0.054-0.086-0.111-0.133-0.164c-0.052-0.058-0.109-0.107-0.162-0.163     c-0.05-0.052-0.094-0.109-0.145-0.161l-6.409-6.409l19.516-4.881c2.688-0.666,4.881-2.611,5.888-5.205     c0.998-2.577,0.674-5.495-0.862-7.808L315.068,30.55l40.939,20.467C360.692,53.355,366.904,58.561,366.938,76.668z      M245.934,128.995l45.703-102.821l18.817,28.223l-22.391,5.598c-2.978,0.742-5.333,3.038-6.153,5.999     c-0.819,2.961,0.017,6.135,2.193,8.311l10.701,10.709l-22.417,20.173c-0.013,0.012-0.024,0.025-0.037,0.037L245.934,128.995z      M230.096,65.993c-0.819-2.961-3.174-5.257-6.153-5.999l-22.391-5.598l18.819-28.226l26.295,59.163l-4.143,9.321L219.207,83     l8.695-8.695C230.079,72.129,230.915,68.954,230.096,65.993z M277.004,17.072l-12.293,27.659l-8.713,19.598l-21.001-47.258     H277.004z M144.197,80.568c0.418-0.845,0.7-1.783,0.811-2.765c0.008-0.026,0.008-0.043,0.008-0.068v-0.008     c0.009-0.034,0.009-0.026,0.009-0.026v-0.017c0-0.017,0-0.034,0.009-0.06v-0.051c0.051-0.461,0.06-0.922,0.043-1.365     c0.128-17.732,6.281-22.878,10.923-25.19l40.94-20.467l-16.302,24.453c-1.536,2.313-1.86,5.231-0.862,7.808     c1.007,2.594,3.2,4.54,5.888,5.205l19.516,4.881l-6.409,6.409c-1.946,1.946-2.833,4.693-2.389,7.398     c0.435,2.714,2.15,5.043,4.608,6.272l25.062,12.527c-16.273,19.84-39.108,31.036-63.915,31.036     c-13.58,0-26.896-3.269-38.944-9.488L144.197,80.568z M52.404,347.448l-24.013-10.607l9.506-21.037l25.916,11.002L52.404,347.448     z M162.885,177.712c-0.947-3.319-3.806-5.743-7.236-6.135c-3.388-0.41-6.758,1.323-8.439,4.352L72.117,311.784l-27.187-11.541     l71.226-157.619c14.253,7.208,29.962,10.982,45.981,10.982c24.388,0,47.135-8.868,65.277-24.954l-13.343,30.023     c-0.052,0.117-0.093,0.237-0.139,0.356c-0.028,0.071-0.058,0.142-0.084,0.214c-0.067,0.187-0.125,0.375-0.179,0.564     c-0.019,0.067-0.041,0.132-0.059,0.199c-0.134,0.52-0.218,1.045-0.252,1.571c-0.005,0.07-0.004,0.141-0.007,0.212     c-0.008,0.197-0.011,0.394-0.006,0.591c0.003,0.088,0.009,0.176,0.014,0.264c0.011,0.185,0.028,0.369,0.051,0.552     c0.006,0.051,0.007,0.102,0.014,0.154l14.454,101.188h-31.611v-3.174c0-1.323-0.307-2.637-0.896-3.814     C179.934,226.676,169.617,201.306,162.885,177.712z M332.803,290.138v17.067c0,3.438-2.046,6.396-4.977,7.747     c-0.046,0.019-0.094,0.033-0.139,0.053c-1.101,0.486-2.253,0.734-3.422,0.734h-79.232h-57.297c-4.702,0-8.533-3.823-8.533-8.533     v-17.067c0-4.71,3.831-8.533,8.533-8.533h49.981h86.552C328.971,281.605,332.803,285.428,332.803,290.138z M145.072,460.805     c0-40.533,11.477-80.034,33.331-114.449c2.901-4.563,4.87-9.18,6.664-13.69c0.878,0.091,1.768,0.14,2.669,0.14h49.895     l23.162,162.133H145.072V460.805z M326.202,332.728c2.278,4.847,4.907,9.702,7.415,13.653l0.12,0.196     c21.726,34.202,33.195,73.702,33.195,114.227v34.133h-88.9l-23.159-162.133h69.393h0.004c0.616,0,1.226-0.03,1.831-0.073     C326.134,332.73,326.169,332.731,326.202,332.728z M356.357,171.576c-3.43,0.393-6.289,2.816-7.236,6.135     c-6.733,23.595-17.05,48.964-32.486,79.838c-0.589,1.178-0.896,2.492-0.896,3.814v3.174h-70.622l-14.153-99.106l46.56-41.904     c19.145,19.217,45.053,30.077,72.347,30.077c16.018,0,31.726-3.774,45.979-10.981l71.778,158.839l-27.089,11.497l-75.742-137.031     C363.124,172.907,359.813,171.158,356.357,171.576z M459.601,347.448l-10.76-19.467l25.816-10.96l8.956,19.82L459.601,347.448z"/>
		</g>
	</g>
</g>
<g>
</g>
<g>
</g>
<g>
</g>
<g>
</g>
<g>
</g>
<g>
</g>
<g>
</g>
<g>
</g>
<g>
</g>
<g>
</g>
<g>
</g>
<g>
</g>
<g>
</g>
<g>
</g>
<g>
</g>
</svg>
