<?xml version="1.0" encoding="iso-8859-1"?>
<!-- Generator: Adobe Illustrator 19.0.0, SVG Export Plug-In . SVG Version: 6.00 Build 0)  -->
<svg xmlns="http://www.w3.org/2000/svg" xmlns:xlink="http://www.w3.org/1999/xlink" version="1.1" id="Layer_1" x="0px" y="0px" viewBox="0 0 512.005 512.005" style="enable-background:new 0 0 512.005 512.005;" xml:space="preserve">
<g>
	<g>
		<g>
			<path d="M221.869,401.072h-51.2c-4.71,0-8.533,3.814-8.533,8.533v25.6c0,18.825,15.309,34.133,34.133,34.133     s34.133-15.309,34.133-34.133v-25.6C230.402,404.886,226.58,401.072,221.869,401.072z M213.336,435.205     c0,9.412-7.654,17.067-17.067,17.067s-17.067-7.654-17.067-17.067v-17.067h34.133V435.205z"/>
			<path d="M281.603,409.605v25.6c0,18.825,15.309,34.133,34.133,34.133s34.133-15.309,34.133-34.133v-25.6     c0-4.719-3.823-8.533-8.533-8.533h-51.2C285.425,401.072,281.603,404.886,281.603,409.605z M298.669,418.138h34.133v17.067     c0,9.412-7.654,17.067-17.067,17.067s-17.067-7.654-17.067-17.067V418.138z"/>
			<path d="M502.718,337.66L383.362,71.958c1.698-14.993-6.042-29.372-19.721-36.215L293.95,0.901     c-0.072-0.036-0.145-0.061-0.217-0.095c-0.157-0.073-0.314-0.145-0.474-0.209c-0.007-0.003-0.014-0.005-0.021-0.008     c-0.102-0.04-0.205-0.073-0.307-0.109c-0.16-0.056-0.321-0.109-0.484-0.155c-0.063-0.018-0.126-0.036-0.19-0.052     c-0.014-0.003-0.028-0.005-0.041-0.009c-0.032-0.008-0.064-0.013-0.096-0.021c-0.163-0.039-0.326-0.076-0.491-0.105     c-0.103-0.018-0.206-0.032-0.31-0.047c-0.013-0.002-0.026-0.004-0.039-0.006c-0.036-0.005-0.071-0.012-0.108-0.016     c-0.129-0.016-0.258-0.028-0.388-0.038c-0.084-0.006-0.168-0.01-0.253-0.014c-0.155-0.007-0.309-0.015-0.464-0.014h-68.153     c-0.142-0.001-0.283,0.008-0.424,0.014c-0.094,0.004-0.188,0.008-0.282,0.015c-0.123,0.01-0.246,0.021-0.369,0.036     c-0.048,0.006-0.095,0.015-0.143,0.021c0,0-0.001,0-0.001,0c-0.109,0.015-0.218,0.03-0.327,0.049     c-0.162,0.029-0.322,0.065-0.481,0.103c-0.032,0.008-0.064,0.012-0.095,0.02c-0.016,0.004-0.032,0.006-0.048,0.01     c-0.064,0.016-0.127,0.035-0.191,0.053c-0.162,0.046-0.321,0.099-0.481,0.154c-0.105,0.036-0.211,0.071-0.315,0.112     c-0.162,0.063-0.321,0.136-0.48,0.209c-0.076,0.035-0.154,0.062-0.229,0.1l-69.692,34.842     c-13.09,6.554-19.925,19.729-20.335,39.177L26.28,300.063c-0.251,0.393-0.48,0.806-0.668,1.25     c-0.139,0.327-0.249,0.658-0.344,0.991l-15.97,35.339c-0.939,2.082-1.015,4.446-0.196,6.571c0.811,2.125,2.441,3.831,4.514,4.762     l39.031,17.237c4.062,1.792,8.781,0.196,10.914-3.686l88.994-160.99c6.536,18.731,15.215,38.844,26.65,61.833v18.236h-0.003     c-4.71,0-8.533,3.814-8.533,8.533c0,4.584,3.61,8.303,8.133,8.513c-1.265,12.956-5.681,24.194-14.94,38.762     c-23.458,36.958-35.857,79.625-35.857,123.392v42.667c0,4.719,3.814,8.533,8.533,8.533h134.09h0.003h104.838     c4.71,0,8.533-3.814,8.533-8.533v-42.667c0-43.768-12.399-86.434-35.994-123.597c-9.146-14.398-13.543-25.607-14.804-38.557     c4.523-0.211,8.131-3.93,8.131-8.513c0-4.719-3.823-8.533-8.533-8.533v-18.236c11.435-23.006,20.113-43.119,26.65-61.833     l88.994,160.99c2.133,3.883,6.869,5.47,10.914,3.686l39.023-17.237c2.074-0.93,3.703-2.637,4.523-4.753     C503.717,342.098,503.648,339.742,502.718,337.66z M284.103,74.305l10.701,10.709l-48.87,43.981l8.549-19.228     c0.003-0.008,0.008-0.014,0.011-0.022l1.494-3.363l7.815-17.578c0.01-0.023,0.017-0.047,0.027-0.07l27.805-62.562l18.819,28.226     l-22.391,5.598c-2.978,0.742-5.333,3.038-6.153,5.999C281.09,68.954,281.927,72.129,284.103,74.305z M242.521,94.657     l-23.313-11.665l8.695-8.687c2.176-2.176,3.012-5.35,2.193-8.311c-0.828-2.961-3.174-5.257-6.161-5.999l-22.383-5.598     l18.819-28.226l26.294,59.162l-2.132,4.796L242.521,94.657z M277.007,17.072l-21.009,47.258l-21.001-47.258H277.007z      M52.4,347.448l-24.013-10.607l9.507-21.038l25.916,11.002L52.4,347.448z M195.367,257.549     c-15.42-30.857-25.745-56.218-32.486-79.838c-0.947-3.319-3.806-5.743-7.236-6.135c-3.405-0.41-6.758,1.323-8.431,4.352     L72.115,311.783l-27.188-11.542l99.274-219.673c0.41-0.845,0.691-1.784,0.811-2.765c0-0.026,0-0.043,0.008-0.068v-0.008     c0.026-0.034,0.009-0.026,0-0.026v-0.017c0.009-0.017,0.009-0.034,0.009-0.06c0-0.017,0.009-0.034,0.009-0.051     c0.051-0.461,0.06-0.922,0.034-1.365c0.137-17.732,6.281-22.878,10.923-25.19l40.947-20.471l-16.305,24.457     c-1.536,2.313-1.86,5.231-0.862,7.808c0.998,2.594,3.2,4.54,5.888,5.205l19.516,4.881l-6.409,6.409     c-1.946,1.937-2.833,4.693-2.389,7.398c0.435,2.705,2.15,5.043,4.608,6.263l34.594,17.301l-21.513,48.405     c-0.045,0.101-0.08,0.205-0.12,0.307c-0.038,0.095-0.077,0.189-0.112,0.285c-0.055,0.154-0.101,0.308-0.147,0.464     c-0.029,0.099-0.062,0.197-0.088,0.298c-0.047,0.185-0.084,0.371-0.118,0.557c-0.02,0.105-0.039,0.21-0.055,0.316     c-0.032,0.218-0.057,0.437-0.072,0.656c-0.007,0.104-0.006,0.21-0.01,0.314c-0.005,0.161-0.009,0.322-0.005,0.483     c0.003,0.112,0.011,0.223,0.018,0.335c0.01,0.157,0.024,0.314,0.043,0.471c0.008,0.064,0.008,0.127,0.017,0.191l16.896,118.255     h-34.045v-20.241C196.272,260.041,195.965,258.727,195.367,257.549z M145.072,460.805c0-40.525,11.477-80.026,33.331-114.449     c9.365-14.745,15.996-28.835,17.529-47.684h31.866c-11.409,11.51-22.424,30.184-22.992,59.563     c-0.094,4.719,3.652,8.61,8.363,8.704h0.171c4.634,0,8.44-3.721,8.533-8.363c0.374-19.615,6.353-33.189,13.38-42.421     l25.544,178.784H145.072V460.805z M366.936,460.805v34.133h-88.9l-27.527-192.683c0.166-0.102,0.335-0.209,0.497-0.307     c6.34,16.043,22.673,46.379,55.799,47.915c4.855,0.486,8.704-3.413,8.926-8.132c0.213-4.71-3.43-8.704-8.132-8.917     c-21.489-0.993-33.749-21.197-39.425-34.142h47.903c1.534,18.853,8.179,32.965,17.657,47.889     C355.45,380.779,366.936,420.28,366.936,460.805z M356.363,171.576c-3.439,0.393-6.298,2.816-7.236,6.135     c-6.733,23.595-17.058,48.956-32.495,79.838c-0.589,1.178-0.896,2.492-0.896,3.814v20.241h-68.178l-16.597-116.171l81.95-73.755     c1.741-1.562,2.765-3.772,2.825-6.118c0.06-2.338-0.845-4.599-2.5-6.255l-6.409-6.409l19.516-4.881     c2.688-0.666,4.881-2.611,5.888-5.205c0.998-2.577,0.674-5.495-0.862-7.808l-16.305-24.457l40.949,20.472     c7.518,3.755,11.631,11.827,10.24,20.079c-0.137,0.802-0.009,2.859,0.085,3.669c0.102,0.853,0.333,1.698,0.691,2.5     l100.693,224.156l-27.186,11.538l-75.742-137.032C363.121,172.907,359.811,171.158,356.363,171.576z M459.599,347.448     l-10.76-19.466l25.879-10.986l8.911,19.837L459.599,347.448z"/>
			<path d="M315.736,162.138h-34.133c-4.71,0-8.533,3.814-8.533,8.533s3.823,8.533,8.533,8.533h34.133     c4.71,0,8.533-3.814,8.533-8.533S320.446,162.138,315.736,162.138z"/>
		</g>
	</g>
</g>
<g>
</g>
<g>
</g>
<g>
</g>
<g>
</g>
<g>
</g>
<g>
</g>
<g>
</g>
<g>
</g>
<g>
</g>
<g>
</g>
<g>
</g>
<g>
</g>
<g>
</g>
<g>
</g>
<g>
</g>
</svg>
