<?xml version="1.0" encoding="iso-8859-1"?>
<!-- Generator: Adobe Illustrator 19.0.0, SVG Export Plug-In . SVG Version: 6.00 Build 0)  -->
<svg xmlns="http://www.w3.org/2000/svg" xmlns:xlink="http://www.w3.org/1999/xlink" version="1.1" id="Layer_1" x="0px" y="0px" viewBox="0 0 511.763 511.763" style="enable-background:new 0 0 511.763 511.763;" xml:space="preserve">
<g>
	<g>
		<g>
			<path d="M494.64,459.083c-5.149-25.065-30.659-159.182-33.594-174.272c-2.973-15.289-5.771-29.48-8.461-42.891     C431.298,135.772,417.601,80.79,406.807,70.596c-7.131-6.732-26.449-15.37-50.041-23.344     c-2.028-6.532-5.712-12.762-11.236-18.096c-11.633-11.368-17.891-16.429-26.715-20c-0.02-0.008-0.041-0.013-0.062-0.021     c-0.027-0.011-0.053-0.025-0.081-0.035C304.868,3.8,280.24,0,255.881,0c-24.359,0-48.986,3.8-62.792,9.1     c-0.028,0.011-0.053,0.024-0.081,0.035c-0.02,0.008-0.041,0.013-0.062,0.021c-8.824,3.57-15.082,8.632-26.493,19.777     c-0.2,0.199-0.2,0.199-0.328,0.327c-5.491,5.303-9.156,11.502-11.173,18.007c-23.572,7.969-42.872,16.601-49.997,23.328     C94.162,80.79,80.465,135.772,59.177,241.92c-2.69,13.411-5.487,27.603-8.461,42.891c-2.935,15.09-28.445,149.207-33.594,174.272     c-0.989,4.816,2.285,9.469,7.152,10.165l59.733,8.533c4.545,0.649,8.789-2.414,9.604-6.932c0.081-0.451,0.081-0.451,0.469-2.597     c0.532-2.938,0.532-2.938,1.331-7.345c1.435-7.911,3.039-16.727,4.773-26.221c4.954-27.124,9.956-54.248,14.691-79.561     c0.617-3.298,0.617-3.298,1.235-6.593c11.358-60.552,19.283-100.347,21.469-106.898c1.887-5.665,5.249-14.464,9.683-25.474     c0.562-1.393,0.562-1.393,1.125-2.783c1.164-2.871,2.363-5.802,3.583-8.761c5.387,21.234,9.01,45.258,9.796,67.82l0,0     l-0.074,0.407c-3.166,0.119-5.952,1.969-7.32,4.722c-0.044,0.087-0.08,0.179-0.121,0.268c-0.057,0.126-0.117,0.25-0.169,0.379     c-0.073,0.185-0.137,0.375-0.198,0.566c-0.013,0.041-0.029,0.079-0.042,0.12c-0.071,0.237-0.133,0.477-0.184,0.723     c-1.376,6.611-2.534,13.386-4.181,24.019c0.039-0.251-1.61,10.472-2.095,13.557c-0.823,5.232-1.551,9.63-2.304,13.869     c-0.001,0.003,0,0.007-0.001,0.01c-0.071,0.399-0.103,0.793-0.118,1.185c-0.004,0.114-0.003,0.226-0.002,0.338     c0.001,0.302,0.017,0.601,0.05,0.896c0.011,0.097,0.017,0.195,0.031,0.292c0.055,0.379,0.131,0.751,0.235,1.113     c0.016,0.056,0.039,0.11,0.056,0.166c0.095,0.309,0.209,0.611,0.338,0.905c0.042,0.096,0.086,0.189,0.131,0.283     c0.137,0.283,0.287,0.557,0.453,0.823c0.034,0.054,0.063,0.111,0.099,0.165c0.206,0.314,0.434,0.612,0.679,0.896     c0.051,0.06,0.108,0.114,0.161,0.172c0.205,0.225,0.422,0.438,0.65,0.64c0.072,0.064,0.144,0.128,0.219,0.19     c0.285,0.235,0.58,0.458,0.895,0.656c0.004,0.002,0.007,0.006,0.011,0.008c-14.489,69.02-21.083,110.437-21.083,146.357     c0,3.232,1.826,6.187,4.717,7.632c16.656,8.328,37.552,13.277,62.7,15.792c17.887,1.789,32.561,2.175,60.548,2.176     c0.012,0,0.023,0.002,0.034,0.002s0.023-0.002,0.034-0.002c27.987,0,42.662-0.387,60.548-2.176     c25.148-2.515,46.045-7.464,62.701-15.792c2.891-1.445,4.717-4.4,4.717-7.632c0-35.867-6.658-77.631-21.083-146.357     c0.004-0.002,0.006-0.005,0.01-0.007c0.315-0.198,0.611-0.421,0.896-0.656c0.075-0.062,0.147-0.126,0.219-0.191     c0.228-0.202,0.445-0.415,0.65-0.64c0.053-0.058,0.109-0.112,0.16-0.172c0.245-0.284,0.473-0.582,0.68-0.896     c0.035-0.054,0.065-0.111,0.099-0.165c0.166-0.265,0.317-0.539,0.453-0.822c0.045-0.094,0.089-0.188,0.131-0.283     c0.129-0.294,0.242-0.595,0.338-0.905c0.017-0.056,0.04-0.11,0.056-0.166c0.104-0.362,0.18-0.734,0.235-1.113     c0.014-0.097,0.02-0.194,0.031-0.292c0.032-0.295,0.049-0.594,0.05-0.896c0-0.113,0.002-0.225-0.002-0.338     c-0.015-0.392-0.047-0.786-0.118-1.185c-0.001-0.003,0-0.007-0.001-0.01c-0.754-4.239-1.481-8.637-2.304-13.869     c-0.485-3.085-2.134-13.808-2.095-13.557c-1.647-10.633-2.805-17.408-4.181-24.019c-0.051-0.246-0.113-0.487-0.184-0.724     c-0.007-0.025-0.017-0.048-0.025-0.073c-0.065-0.21-0.136-0.418-0.217-0.62c-0.02-0.05-0.044-0.097-0.065-0.146     c-0.073-0.174-0.148-0.348-0.232-0.516c-0.029-0.057-0.062-0.112-0.092-0.169c-0.082-0.156-0.166-0.311-0.257-0.461     c-0.036-0.06-0.077-0.116-0.115-0.174c-0.092-0.142-0.184-0.283-0.283-0.419c-0.044-0.059-0.091-0.115-0.136-0.174     c-0.1-0.13-0.201-0.259-0.308-0.382c-0.05-0.057-0.103-0.111-0.155-0.167c-0.109-0.118-0.217-0.236-0.332-0.348     c-0.056-0.055-0.116-0.105-0.173-0.158c-0.116-0.107-0.233-0.214-0.355-0.314c-0.061-0.05-0.125-0.097-0.188-0.146     c-0.124-0.096-0.248-0.192-0.377-0.281c-0.066-0.046-0.135-0.088-0.202-0.132c-0.13-0.085-0.261-0.169-0.396-0.247     c-0.071-0.041-0.144-0.078-0.216-0.117c-0.136-0.073-0.273-0.146-0.413-0.212c-0.076-0.036-0.153-0.068-0.23-0.101     c-0.141-0.061-0.283-0.121-0.427-0.175c-0.08-0.03-0.161-0.056-0.243-0.084c-0.145-0.049-0.291-0.096-0.44-0.138     c-0.084-0.023-0.169-0.043-0.253-0.064c-0.15-0.037-0.3-0.071-0.452-0.1c-0.087-0.016-0.174-0.03-0.261-0.043     c-0.153-0.024-0.307-0.045-0.463-0.061c-0.09-0.009-0.18-0.015-0.27-0.022c-0.091-0.006-0.18-0.018-0.271-0.022l-0.066-0.361     c0.873-23.187,4.468-46.882,9.789-67.856c1.22,2.958,2.419,5.889,3.583,8.761c0.563,1.391,0.563,1.391,1.125,2.783     c4.434,11.01,7.797,19.808,9.682,25.469c2.187,6.555,10.112,46.35,21.47,106.902c0.618,3.295,0.618,3.295,1.235,6.593     c4.735,25.313,9.737,52.437,14.691,79.561c1.734,9.494,3.338,18.309,4.773,26.221c0.799,4.407,0.799,4.407,1.331,7.345     c0.388,2.146,0.388,2.146,0.469,2.597c0.815,4.518,5.059,7.582,9.605,6.932l59.733-8.533     C492.355,468.552,495.629,463.899,494.64,459.083z M272.948,332.563v0.002h-17.033c-0.011,0-0.022-0.002-0.034-0.002     s-0.022,0.002-0.034,0.002h-17.033v-0.002v-51.198h34.133V332.563z M163.578,324.029c0.066-0.406,0.132-0.825,0.199-1.24     c0.02-0.123,0.039-0.245,0.059-0.369c0.134-0.838,0.269-1.688,0.407-2.568c0.491-3.12,2.144-13.875,2.101-13.597     c1.046-6.75,1.884-11.877,2.701-16.359h52.702v34.133H163.578z M295.288,72.294c-0.136,0.548-0.273,1.096-0.411,1.643     c-0.302,1.205-0.604,2.408-0.909,3.598c-0.493,1.919-0.99,3.83-1.496,5.729c-0.059,0.222-0.118,0.444-0.177,0.666     c-1.202,4.494-2.44,8.931-3.714,13.286c-10.281,35.133-21.701,60.565-32.699,71.197c-10.998-10.632-22.418-36.063-32.699-71.197     c-1.275-4.356-2.512-8.792-3.715-13.287c-0.059-0.222-0.118-0.443-0.177-0.665c-0.506-1.899-1.003-3.811-1.496-5.729     c-0.304-1.186-0.605-2.385-0.906-3.587c-0.139-0.554-0.278-1.107-0.415-1.662c-0.33-1.332-0.66-2.669-0.986-4.019h80.79     C295.949,69.619,295.619,70.959,295.288,72.294z M244.018,180.658c0.262,0.254,0.524,0.508,0.787,0.752     c0.273,0.253,0.547,0.5,0.822,0.743c0.428,0.38,0.859,0.746,1.291,1.102c0.143,0.118,0.286,0.244,0.429,0.359v27.386     c-0.073-0.034-0.15-0.075-0.224-0.109c-0.552-0.259-1.116-0.539-1.692-0.839c-0.253-0.132-0.514-0.276-0.773-0.416     c-0.419-0.227-0.842-0.461-1.273-0.708c-0.292-0.168-0.587-0.34-0.885-0.517c-0.423-0.252-0.854-0.516-1.287-0.787     c-0.3-0.187-0.597-0.369-0.901-0.565c-0.542-0.348-1.095-0.716-1.652-1.093c-0.37-0.25-0.744-0.506-1.121-0.769     c-0.552-0.384-1.108-0.775-1.674-1.186c-0.353-0.256-0.713-0.526-1.071-0.792c-0.442-0.328-0.887-0.661-1.337-1.005     c-0.384-0.294-0.771-0.593-1.161-0.898c-0.447-0.35-0.9-0.71-1.355-1.074c-0.391-0.313-0.78-0.622-1.175-0.946     c-0.539-0.44-1.086-0.899-1.634-1.36c-0.287-0.241-0.57-0.472-0.86-0.719c-5.741-4.885-11.838-10.683-18.385-17.397     c-4.282-4.392-8.606-9.015-13.462-14.353c-2.367-2.602-8.773-9.73-10.588-11.748c-0.246-0.274-0.414-0.46-0.47-0.522     c-5.762-6.544-6.5-15.431-2.946-22.535c0.119-0.235,0.24-0.468,0.368-0.699c0.158-0.288,0.324-0.573,0.497-0.855     c0.259-0.419,0.529-0.832,0.82-1.235c0.08-0.111,0.161-0.222,0.243-0.332c0.379-0.502,0.778-0.993,1.207-1.465     c0.027-0.03,0.054-0.059,0.081-0.089c0.474-0.515,0.975-1.012,1.509-1.484c0.004-0.004,0.008-0.007,0.012-0.011     c0.548-0.485,1.127-0.947,1.737-1.381l20.57-15.152C218.785,142.187,230.431,167.547,244.018,180.658z M327.835,152.709     c-0.889,0.987-8.808,9.804-11.499,12.762c-4.856,5.338-9.179,9.961-13.462,14.353c-6.547,6.714-12.643,12.512-18.385,17.397     c-0.286,0.243-0.564,0.47-0.847,0.708c-0.553,0.464-1.106,0.928-1.649,1.372c-0.394,0.322-0.782,0.631-1.171,0.942     c-0.456,0.365-0.91,0.726-1.358,1.077c-0.39,0.304-0.776,0.603-1.16,0.897c-0.451,0.345-0.897,0.678-1.34,1.007     c-0.357,0.265-0.716,0.534-1.067,0.789c-0.567,0.411-1.124,0.803-1.678,1.188c-0.376,0.262-0.749,0.518-1.119,0.767     c-0.557,0.376-1.11,0.745-1.652,1.093c-0.305,0.196-0.602,0.378-0.901,0.565c-0.434,0.27-0.864,0.535-1.287,0.787     c-0.298,0.177-0.593,0.349-0.885,0.517c-0.431,0.247-0.854,0.481-1.273,0.708c-0.258,0.14-0.519,0.284-0.773,0.416     c-0.576,0.3-1.14,0.579-1.692,0.839c-0.073,0.034-0.151,0.076-0.224,0.109v-27.386c0.144-0.115,0.286-0.241,0.429-0.359     c0.432-0.355,0.863-0.722,1.291-1.102c0.275-0.243,0.549-0.491,0.822-0.743c0.263-0.245,0.525-0.498,0.787-0.752     c13.587-13.111,25.233-38.471,35.551-72.695l20.459,15.071C333.665,130.094,335.516,143.976,327.835,152.709z M340.81,54.02     c0.014,0.417,0.052,0.839,0.13,1.268c0.598,3.326,0.602,6.57,0.081,9.626c-2.03,10.32-10.321,19.217-23.042,20.304     c-0.107,0.009-0.213,0.019-0.321,0.026c-0.688,0.051-1.386,0.085-2.1,0.09c-0.001,0-0.001,0-0.002,0c-0.028,0-0.053,0-0.081,0     c-2.062,0.014-3.857,0.02-5.868,0.018c0.847-3.267,1.683-6.605,2.512-9.992c0.01-0.042,0.021-0.085,0.031-0.127     c0.663-2.71,1.321-5.45,1.973-8.234c0.354-1.504,0.701-3.009,1.046-4.518c0.013-0.055,0.025-0.108,0.038-0.163     c0.094-0.297,0.179-0.6,0.241-0.912l0.281-1.406c1.157-5.124,2.284-10.264,3.348-15.41c1.016-4.914,1.938-9.576,2.761-13.928     c3.18,2.511,6.819,5.866,11.544,10.48C337.298,44.925,339.71,49.399,340.81,54.02z M255.881,17.067     c18.62,0,37.371,2.408,49.873,5.791L300.086,51.2h-88.409l-5.668-28.342C218.511,19.474,237.262,17.067,255.881,17.067z      M178.451,41.072c4.685-4.575,8.304-7.91,11.472-10.411c0.824,4.353,1.745,9.016,2.762,13.93     c1.065,5.146,2.191,10.286,3.348,15.41l0.281,1.406c0.062,0.312,0.147,0.614,0.241,0.912c0.013,0.055,0.025,0.108,0.038,0.163     c0.346,1.509,0.693,3.015,1.047,4.52c0.651,2.78,1.309,5.517,1.971,8.223c0.012,0.048,0.023,0.096,0.035,0.143     c0.828,3.384,1.664,6.719,2.51,9.984c-2.043,0.001-3.855-0.004-5.947-0.018c-0.714-0.005-1.413-0.038-2.102-0.09     c-0.107-0.008-0.213-0.018-0.319-0.026c-11.649-0.994-19.598-8.532-22.454-17.679c-1.067-3.791-1.283-7.953-0.51-12.25     c0.1-0.558,0.127-1.103,0.121-1.641c1.114-4.402,3.44-8.637,7.145-12.215C178.323,41.2,178.323,41.2,178.451,41.072z      M132.572,206.965c-0.57,1.408-0.57,1.408-1.139,2.819c-4.557,11.315-8.018,20.371-10.043,26.453     c-2.58,7.734-10.303,46.515-22.052,109.148c-0.619,3.299-0.619,3.299-1.237,6.602c-4.74,25.34-9.746,52.486-14.704,79.633     c-1.735,9.501-3.341,18.323-4.777,26.241c-0.132,0.731-0.243,1.34-0.338,1.862l-42.66-6.094     c7.662-38.746,29.187-151.883,31.847-165.56c2.967-15.258,5.759-29.417,8.441-42.794c19.285-96.16,34.213-156.085,40.763-162.272     c4.184-3.95,18.782-10.67,36.842-17.156c0.347,2.443,0.899,4.85,1.652,7.195c4.415,14.478,16.384,25.83,33.009,28.67     l-10.291,7.581c-17.819,12.689-21.228,38.253-6.773,54.686c0.268,0.299,0.268,0.299,0.626,0.698     c0.408,0.451,8.333,9.275,11.063,12.276c4.979,5.473,9.43,10.233,13.865,14.783c6.895,7.072,13.366,13.226,19.559,18.495     c11.578,9.851,21.821,16.369,31.122,18.933v35.132h-17.067c-4.712,0-8.532,3.819-8.533,8.532h-42.895l0.002-0.031     c-1.039-32.977-7.829-68.839-17.491-96.213c-0.005-0.016-0.008-0.031-0.014-0.047c-1.206-3.417-2.496-6.745-3.859-9.981     c-5.226-12.407-10.502-21.44-14.164-26.496c-2.764-3.817-8.099-4.671-11.916-1.907c-3.817,2.764-4.671,8.099-1.907,11.916     c0.667,0.921,1.96,2.889,3.672,5.82c2.916,4.992,5.846,10.784,8.587,17.291c0.821,1.949,1.601,3.949,2.361,5.972     c-0.823,1.941-1.726,4.077-2.696,6.385C138.41,192.722,135.392,200.01,132.572,206.965z M157.516,383.766h27.827     c8.703,30.688-9.448,60.175-38.145,66.806C149.265,431.02,152.736,408.919,157.516,383.766z M145.001,480.745     c0.079-4.055,0.249-8.215,0.505-12.503c43.445-6.41,71.169-51.644,53.921-96.096c-1.274-3.283-4.434-5.447-7.956-5.447h-30.617     c1.628-8.098,3.384-16.609,5.278-25.603h55.615v0.002c0,4.713,3.821,8.533,8.533,8.533h17.067v145.048     c-22.066-0.083-35.07-0.548-50.351-2.076C176.206,490.524,158.809,486.706,145.001,480.745z M314.766,492.603     c-15.281,1.528-28.285,1.993-50.351,2.076V349.631h17.067c4.713,0,8.533-3.821,8.533-8.533v-0.002h8.533h47.081     c1.892,8.986,3.647,17.497,5.276,25.6h-30.618c-3.522,0-6.682,2.163-7.956,5.447c-17.247,44.452,10.477,89.686,53.921,96.096     c0.258,4.292,0.429,8.455,0.509,12.506C352.954,486.706,335.557,490.524,314.766,492.603z M290.015,289.896h4.999l17.067,17.067     l-17.067,17.067h-4.999V289.896z M342.716,289.896c0.817,4.482,1.656,9.609,2.701,16.359c-0.043-0.278,1.61,10.477,2.101,13.597     c0.142,0.9,0.28,1.769,0.417,2.625c0.011,0.072,0.023,0.142,0.034,0.213c0.072,0.449,0.144,0.901,0.215,1.339h-29.035     l11.033-11.033c3.332-3.332,3.332-8.735,0-12.068l-11.033-11.033H342.716z M364.557,450.569     c-28.695-6.633-46.844-36.119-38.142-66.806h27.826C359.011,408.889,362.486,431.015,364.557,450.569z M433.481,459.723     c-0.095-0.522-0.205-1.132-0.338-1.862c-1.436-7.918-3.042-16.74-4.777-26.241c-4.958-27.146-9.964-54.293-14.704-79.633     c-0.618-3.302-0.618-3.302-1.237-6.602c-11.749-62.633-19.471-101.415-22.053-109.153c-2.024-6.077-5.484-15.133-10.042-26.448     c-0.569-1.411-0.569-1.411-1.139-2.819c-2.82-6.955-5.838-14.243-8.856-21.425c-0.97-2.308-1.872-4.444-2.696-6.385     c0.76-2.023,1.54-4.023,2.361-5.972c2.741-6.507,5.671-12.299,8.587-17.291c1.712-2.931,3.004-4.899,3.672-5.82     c2.764-3.817,1.911-9.152-1.907-11.916c-3.817-2.764-9.152-1.911-11.916,1.907c-3.661,5.056-8.938,14.089-14.164,26.496     c-1.363,3.236-2.653,6.564-3.859,9.981c-0.005,0.016-0.009,0.031-0.014,0.047c-9.661,27.374-16.452,63.236-17.491,96.213     l0.002,0.031h-34.362h-8.533c-0.001-4.712-3.821-8.532-8.533-8.532h-17.067v-35.132c9.302-2.565,19.544-9.083,31.122-18.933     c6.193-5.269,12.664-11.423,19.559-18.495c4.436-4.55,8.887-9.31,13.865-14.783c2.426-2.667,8.939-9.915,10.67-11.84     c0.219-0.244,0.373-0.415,0.42-0.466c0.332-0.369,0.332-0.369,0.506-0.564c14.093-16.021,11.334-40.513-5.153-53.637     c-0.532-0.423-1.078-0.835-1.638-1.234l-10.18-7.5c16.896-2.886,28.991-14.562,33.227-29.38c0.64-2.122,1.099-4.296,1.409-6.495     c18.071,6.49,32.681,13.214,36.868,17.166c6.549,6.185,21.478,66.111,40.762,162.27c2.683,13.377,5.474,27.536,8.441,42.794     c2.66,13.676,24.185,126.813,31.847,165.56L433.481,459.723z"/>
			<path d="M255.881,324.029c4.713,0,8.533-3.82,8.533-8.533v-17.067c0-4.713-3.82-8.533-8.533-8.533s-8.533,3.821-8.533,8.533     v17.067C247.348,320.209,251.169,324.029,255.881,324.029z"/>
		</g>
	</g>
</g>
<g>
</g>
<g>
</g>
<g>
</g>
<g>
</g>
<g>
</g>
<g>
</g>
<g>
</g>
<g>
</g>
<g>
</g>
<g>
</g>
<g>
</g>
<g>
</g>
<g>
</g>
<g>
</g>
<g>
</g>
</svg>
