<?xml version="1.0" encoding="iso-8859-1"?>
<!-- Generator: Adobe Illustrator 19.0.0, SVG Export Plug-In . SVG Version: 6.00 Build 0)  -->
<svg xmlns="http://www.w3.org/2000/svg" xmlns:xlink="http://www.w3.org/1999/xlink" version="1.1" id="Layer_1" x="0px" y="0px" viewBox="0 0 511.763 511.763" style="enable-background:new 0 0 511.763 511.763;" xml:space="preserve">
<g transform="translate(0 -1)">
	<g>
		<g>
			<circle cx="255.881" cy="308.2" r="8.533"/>
			<circle cx="221.748" cy="248.467" r="8.533"/>
			<circle cx="290.015" cy="248.467" r="8.533"/>
			<circle cx="221.748" cy="367.933" r="8.533"/>
			<circle cx="290.015" cy="367.933" r="8.533"/>
			<circle cx="221.748" cy="410.6" r="8.533"/>
			<circle cx="290.015" cy="410.6" r="8.533"/>
			<path d="M494.64,460.083c-5.149-25.065-30.659-159.182-33.594-174.272c-2.973-15.289-5.771-29.48-8.461-42.891     C431.298,136.772,417.601,81.79,406.807,71.596c-7.131-6.732-26.449-15.37-50.041-23.344     c-2.028-6.532-5.712-12.762-11.236-18.096c-11.633-11.368-17.891-16.429-26.715-20c-0.02-0.008-0.041-0.013-0.062-0.021     c-0.027-0.011-0.053-0.025-0.081-0.035C304.868,4.8,280.24,1,255.881,1c-24.359,0-48.986,3.8-62.792,9.1     c-0.028,0.011-0.053,0.024-0.081,0.035c-0.02,0.008-0.041,0.013-0.062,0.021c-8.824,3.57-15.082,8.632-26.493,19.777     c-0.2,0.199-0.2,0.199-0.328,0.327c-5.491,5.303-9.156,11.502-11.173,18.007c-23.572,7.969-42.872,16.601-49.997,23.328     C94.162,81.79,80.465,136.772,59.177,242.92c-2.69,13.411-5.487,27.603-8.461,42.891c-2.935,15.09-28.445,149.207-33.594,174.272     c-0.989,4.816,2.285,9.469,7.152,10.165l59.733,8.533c4.545,0.649,8.789-2.414,9.604-6.932c0.081-0.451,0.081-0.451,0.469-2.597     c0.532-2.938,0.532-2.938,1.331-7.345c1.435-7.911,3.039-16.727,4.773-26.221c4.954-27.124,9.956-54.248,14.691-79.561     c0.617-3.298,0.617-3.298,1.235-6.593c11.358-60.552,19.283-100.347,21.469-106.898c1.887-5.665,5.249-14.464,9.683-25.473     c0.562-1.393,0.562-1.393,1.125-2.783c1.083-2.672,2.197-5.396,3.33-8.146c4.701,20.473,8.355,45.591,9.676,67.857     c-0.023,0.002-0.045,0.006-0.068,0.008c-0.104,0.008-0.207,0.023-0.31,0.035c-0.137,0.016-0.273,0.031-0.408,0.054     c-0.105,0.018-0.208,0.041-0.312,0.062c-0.13,0.027-0.259,0.053-0.387,0.086c-0.105,0.027-0.208,0.058-0.311,0.089     c-0.124,0.037-0.247,0.074-0.369,0.116c-0.102,0.035-0.202,0.074-0.302,0.113c-0.119,0.046-0.237,0.093-0.354,0.145     c-0.099,0.044-0.196,0.09-0.293,0.137c-0.114,0.055-0.226,0.112-0.337,0.173c-0.094,0.051-0.187,0.105-0.28,0.16     c-0.109,0.064-0.216,0.131-0.321,0.2c-0.09,0.059-0.178,0.119-0.265,0.181c-0.103,0.073-0.203,0.148-0.302,0.225     c-0.085,0.066-0.169,0.133-0.251,0.202c-0.096,0.081-0.189,0.164-0.282,0.249c-0.079,0.073-0.158,0.146-0.234,0.221     c-0.09,0.089-0.176,0.181-0.262,0.274c-0.072,0.078-0.144,0.156-0.213,0.236c-0.084,0.098-0.163,0.199-0.242,0.3     c-0.065,0.083-0.13,0.165-0.192,0.25c-0.077,0.106-0.148,0.216-0.22,0.326c-0.057,0.087-0.115,0.172-0.169,0.261     c-0.07,0.116-0.134,0.236-0.199,0.356c-0.048,0.088-0.098,0.175-0.143,0.265c-0.063,0.128-0.119,0.26-0.176,0.392     c-0.038,0.087-0.079,0.173-0.114,0.262c-0.059,0.149-0.109,0.303-0.159,0.456c-0.025,0.076-0.055,0.15-0.078,0.227     c-0.07,0.233-0.13,0.469-0.181,0.711c-1.376,6.611-2.534,13.386-4.181,24.019c0.039-0.251-1.61,10.472-2.095,13.557     c-0.823,5.232-1.551,9.63-2.304,13.869c-0.053,0.299-0.086,0.597-0.107,0.893c-0.007,0.093-0.007,0.185-0.011,0.278     c-0.008,0.205-0.011,0.409-0.004,0.612c0.003,0.102,0.008,0.203,0.015,0.304c0.014,0.201,0.035,0.399,0.063,0.596     c0.013,0.089,0.022,0.179,0.038,0.267c0.046,0.264,0.102,0.524,0.171,0.78c0.004,0.016,0.007,0.033,0.011,0.049     c0.076,0.271,0.167,0.536,0.268,0.796c0.031,0.08,0.067,0.157,0.1,0.236c0.077,0.181,0.158,0.359,0.246,0.533     c0.044,0.087,0.091,0.174,0.138,0.259c0.092,0.167,0.191,0.33,0.294,0.491c0.049,0.076,0.095,0.152,0.146,0.227     c0.14,0.204,0.289,0.402,0.446,0.593c0.019,0.023,0.035,0.047,0.054,0.069c0.178,0.212,0.367,0.413,0.565,0.606     c0.059,0.058,0.122,0.112,0.183,0.168c0.144,0.134,0.292,0.263,0.445,0.387c0.076,0.061,0.153,0.12,0.231,0.179     c0.153,0.115,0.309,0.223,0.47,0.327c0.077,0.05,0.153,0.102,0.232,0.149c0.205,0.124,0.415,0.239,0.631,0.346     c0.037,0.018,0.072,0.04,0.109,0.057c0.23,0.109,0.465,0.21,0.706,0.299c-2.149,9.925-4.98,22.921-5.383,24.79     c-3.481,16.143-6.04,28.633-8.305,40.821c-5.845,31.456-8.921,57.146-8.947,79.453c-0.13,2.943,1.2,5.953,4.305,7.697     c0.091,0.052,0.182,0.104,0.276,0.153c0.046,0.024,0.087,0.051,0.134,0.074c16.656,8.328,37.552,13.277,62.7,15.792     c17.894,1.789,32.573,2.176,60.582,2.176s42.688-0.386,60.582-2.176c25.148-2.515,46.045-7.464,62.701-15.792     c0.047-0.023,0.088-0.05,0.134-0.074c0.093-0.049,0.184-0.101,0.276-0.153c3.106-1.744,4.436-4.754,4.305-7.697     c-0.026-22.307-3.102-47.998-8.947-79.453c-2.265-12.188-4.824-24.678-8.305-40.821c-0.403-1.87-3.234-14.866-5.383-24.79     c0.241-0.089,0.476-0.19,0.706-0.299c0.037-0.018,0.072-0.039,0.109-0.057c0.216-0.107,0.426-0.222,0.631-0.346     c0.079-0.048,0.155-0.099,0.232-0.15c0.16-0.104,0.317-0.213,0.47-0.327c0.078-0.058,0.155-0.117,0.231-0.178     c0.154-0.124,0.302-0.254,0.447-0.388c0.06-0.056,0.123-0.109,0.182-0.167c0.197-0.194,0.387-0.395,0.565-0.606     c0.02-0.023,0.036-0.049,0.056-0.072c0.157-0.19,0.305-0.388,0.444-0.591c0.051-0.074,0.098-0.151,0.146-0.226     c0.103-0.161,0.202-0.324,0.294-0.491c0.047-0.086,0.093-0.172,0.138-0.259c0.088-0.174,0.169-0.352,0.246-0.533     c0.034-0.079,0.07-0.156,0.101-0.236c0.101-0.26,0.193-0.525,0.268-0.796c0.005-0.016,0.007-0.033,0.011-0.049     c0.069-0.255,0.125-0.515,0.171-0.779c0.015-0.089,0.025-0.179,0.038-0.269c0.028-0.197,0.049-0.395,0.063-0.595     c0.007-0.101,0.012-0.202,0.015-0.304c0.006-0.203,0.004-0.406-0.004-0.612c-0.004-0.093-0.004-0.185-0.011-0.278     c-0.021-0.296-0.054-0.593-0.107-0.893c-0.754-4.239-1.481-8.637-2.304-13.869c-0.485-3.085-2.134-13.808-2.095-13.557     c-1.647-10.633-2.805-17.408-4.181-24.019c-0.05-0.241-0.111-0.478-0.181-0.711c-0.023-0.077-0.052-0.151-0.078-0.227     c-0.051-0.153-0.101-0.307-0.159-0.456c-0.035-0.089-0.076-0.174-0.114-0.262c-0.057-0.132-0.113-0.264-0.176-0.392     c-0.045-0.09-0.095-0.177-0.143-0.265c-0.065-0.12-0.129-0.24-0.199-0.356c-0.054-0.089-0.112-0.174-0.169-0.261     c-0.072-0.11-0.144-0.22-0.22-0.326c-0.062-0.085-0.127-0.167-0.192-0.25c-0.079-0.102-0.159-0.203-0.242-0.3     c-0.069-0.081-0.141-0.158-0.213-0.236c-0.086-0.093-0.172-0.185-0.262-0.274c-0.076-0.076-0.155-0.149-0.234-0.221     c-0.092-0.085-0.186-0.169-0.282-0.249c-0.082-0.069-0.166-0.136-0.251-0.202c-0.099-0.077-0.199-0.152-0.302-0.225     c-0.088-0.062-0.176-0.122-0.266-0.181c-0.105-0.069-0.212-0.135-0.32-0.2c-0.092-0.055-0.185-0.109-0.28-0.16     c-0.111-0.06-0.223-0.117-0.337-0.172c-0.097-0.047-0.194-0.094-0.293-0.137c-0.116-0.051-0.234-0.099-0.353-0.145     c-0.1-0.039-0.201-0.078-0.303-0.113c-0.121-0.042-0.245-0.079-0.368-0.115c-0.103-0.031-0.206-0.062-0.311-0.089     c-0.128-0.033-0.257-0.059-0.387-0.086c-0.104-0.021-0.207-0.044-0.312-0.062c-0.135-0.023-0.272-0.038-0.408-0.054     c-0.103-0.012-0.206-0.027-0.31-0.035c-0.023-0.002-0.045-0.006-0.068-0.008c1.321-22.267,4.975-47.384,9.677-67.857     c1.133,2.75,2.246,5.473,3.33,8.146c0.563,1.391,0.563,1.391,1.125,2.783c4.434,11.01,7.797,19.808,9.682,25.469     c2.187,6.555,10.112,46.35,21.47,106.902c0.618,3.295,0.618,3.295,1.235,6.593c4.735,25.313,9.737,52.437,14.691,79.561     c1.734,9.494,3.338,18.309,4.773,26.221c0.799,4.407,0.799,4.407,1.331,7.345c0.388,2.146,0.388,2.146,0.469,2.597     c0.815,4.518,5.059,7.581,9.605,6.932l59.733-8.533C492.355,469.552,495.629,464.899,494.64,460.083z M267.921,287.572     c0.181,0.249,0.357,0.5,0.571,0.738c2.146,2.383,3.573,5.202,4.157,8.231c0.015,0.08,0.023,0.163,0.037,0.244     c0.074,0.417,0.138,0.837,0.18,1.261c0.05,0.534,0.082,1.074,0.082,1.621v17.067c0,0.547-0.031,1.087-0.082,1.621     c-0.042,0.424-0.106,0.844-0.18,1.261c-0.014,0.081-0.022,0.163-0.037,0.244c-0.584,3.029-2.011,5.848-4.157,8.231     c-0.214,0.238-0.39,0.489-0.571,0.738c-3.086,3.072-7.34,4.972-12.04,4.972c-4.699,0-8.953-1.9-12.04-4.972     c-0.181-0.249-0.357-0.5-0.571-0.738c-2.146-2.383-3.573-5.202-4.157-8.231c-0.015-0.08-0.023-0.163-0.037-0.244     c-0.074-0.417-0.138-0.837-0.18-1.261c-0.05-0.534-0.082-1.074-0.082-1.621v-17.067c0-0.547,0.031-1.087,0.082-1.621     c0.042-0.424,0.106-0.844,0.18-1.261c0.014-0.081,0.022-0.163,0.037-0.244c0.584-3.029,2.011-5.848,4.157-8.231     c0.214-0.238,0.39-0.489,0.571-0.738c3.086-3.072,7.34-4.972,12.039-4.972C260.581,282.6,264.835,284.5,267.921,287.572z      M295.289,73.29c-0.137,0.552-0.275,1.103-0.413,1.653c-0.301,1.2-0.602,2.398-0.905,3.583c-0.494,1.922-0.992,3.837-1.499,5.74     c-0.059,0.221-0.118,0.442-0.177,0.662c-1.202,4.495-2.44,8.932-3.715,13.288c-10.281,35.133-21.701,60.565-32.699,71.197     c-10.998-10.632-22.418-36.063-32.699-71.197c-1.275-4.356-2.513-8.793-3.715-13.288c-0.059-0.221-0.118-0.441-0.176-0.662     c-0.507-1.902-1.005-3.818-1.499-5.74c-0.302-1.181-0.602-2.375-0.902-3.572c-0.14-0.557-0.279-1.114-0.418-1.672     c-0.33-1.331-0.659-2.667-0.985-4.015h80.79C295.949,70.618,295.619,71.957,295.289,73.29z M244.02,181.66     c0.261,0.253,0.523,0.506,0.785,0.75c0.273,0.253,0.547,0.501,0.822,0.744c0.427,0.379,0.857,0.744,1.288,1.099     c0.144,0.118,0.287,0.245,0.432,0.361v27.386c-0.073-0.034-0.15-0.075-0.224-0.109c-0.552-0.259-1.116-0.539-1.692-0.838     c-0.254-0.132-0.516-0.277-0.775-0.417c-0.418-0.226-0.84-0.459-1.269-0.706c-0.293-0.168-0.588-0.341-0.887-0.518     c-0.424-0.252-0.855-0.517-1.29-0.788c-0.298-0.186-0.594-0.367-0.897-0.562c-0.546-0.351-1.104-0.722-1.666-1.102     c-0.362-0.244-0.727-0.495-1.095-0.751c-0.557-0.388-1.119-0.782-1.69-1.197c-0.351-0.254-0.708-0.522-1.064-0.787     c-0.445-0.33-0.891-0.665-1.344-1.01c-0.383-0.293-0.77-0.591-1.158-0.895c-0.448-0.35-0.902-0.711-1.357-1.076     c-0.389-0.312-0.777-0.62-1.171-0.943c-0.544-0.445-1.098-0.909-1.652-1.374c-0.282-0.237-0.56-0.464-0.844-0.706     c-5.741-4.885-11.838-10.683-18.385-17.397c-4.282-4.392-8.606-9.015-13.462-14.353c-2.367-2.602-8.773-9.73-10.588-11.748     c-0.246-0.274-0.414-0.46-0.47-0.522c-5.762-6.544-6.5-15.431-2.946-22.536c0.119-0.234,0.24-0.468,0.368-0.698     c0.158-0.288,0.324-0.573,0.496-0.854c0.259-0.419,0.529-0.833,0.82-1.235c0.08-0.111,0.161-0.222,0.243-0.332     c0.379-0.502,0.778-0.993,1.207-1.465c0.027-0.03,0.054-0.059,0.081-0.089c0.474-0.515,0.975-1.012,1.509-1.484     c0.004-0.004,0.008-0.007,0.012-0.011c0.548-0.485,1.127-0.947,1.737-1.381l20.57-15.152     C218.785,143.189,230.432,168.55,244.02,181.66z M327.835,153.709c-0.889,0.987-8.808,9.804-11.499,12.762     c-4.856,5.338-9.179,9.961-13.462,14.353c-6.547,6.714-12.643,12.512-18.385,17.397c-0.28,0.239-0.553,0.461-0.831,0.695     c-0.559,0.47-1.117,0.937-1.667,1.387c-0.393,0.321-0.779,0.628-1.167,0.939c-0.457,0.366-0.911,0.728-1.361,1.079     c-0.389,0.304-0.774,0.602-1.158,0.894c-0.453,0.346-0.901,0.682-1.347,1.013c-0.355,0.263-0.711,0.53-1.06,0.784     c-0.573,0.415-1.135,0.811-1.694,1.199c-0.367,0.256-0.732,0.505-1.093,0.749c-0.562,0.379-1.12,0.751-1.666,1.102     c-0.303,0.195-0.599,0.376-0.897,0.562c-0.435,0.271-0.866,0.536-1.29,0.788c-0.298,0.177-0.594,0.35-0.887,0.518     c-0.43,0.246-0.852,0.48-1.269,0.706c-0.259,0.14-0.52,0.285-0.775,0.417c-0.576,0.3-1.14,0.579-1.692,0.838     c-0.073,0.034-0.151,0.076-0.224,0.109v-27.386c0.145-0.116,0.288-0.243,0.432-0.361c0.431-0.355,0.861-0.72,1.288-1.099     c0.275-0.243,0.549-0.491,0.822-0.744c0.263-0.244,0.524-0.497,0.785-0.75c13.588-13.111,25.234-38.471,35.553-72.697     l20.459,15.071C333.665,131.094,335.516,144.976,327.835,153.709z M340.81,55.02c0.014,0.417,0.052,0.839,0.13,1.268     c0.598,3.326,0.602,6.57,0.081,9.626c-2.03,10.32-10.321,19.217-23.042,20.304c-0.107,0.009-0.213,0.019-0.321,0.026     c-0.688,0.051-1.386,0.085-2.1,0.09c-0.001,0-0.001,0-0.002,0c-0.624,0.004-1.219,0.008-1.806,0.01     c-0.802,0.004-1.586,0.006-2.377,0.007c-0.578,0.001-1.162,0.001-1.766,0.001c0.847-3.267,1.683-6.605,2.512-9.992     c0.01-0.042,0.021-0.084,0.031-0.126c0.663-2.71,1.321-5.451,1.973-8.234c0.354-1.504,0.701-3.009,1.046-4.518     c0.013-0.055,0.025-0.108,0.038-0.163c0.094-0.297,0.179-0.6,0.241-0.912L315.73,61c1.157-5.124,2.283-10.263,3.348-15.41     c1.016-4.914,1.938-9.576,2.761-13.928c3.18,2.511,6.819,5.866,11.544,10.48C337.298,45.925,339.71,50.399,340.81,55.02z      M255.881,18.067c18.62,0,37.371,2.408,49.873,5.791L300.086,52.2h-88.409l-5.668-28.342     C218.511,20.474,237.262,18.067,255.881,18.067z M178.451,42.072c4.685-4.575,8.304-7.91,11.472-10.411     c0.824,4.353,1.745,9.016,2.762,13.93c1.064,5.146,2.191,10.286,3.348,15.41l0.281,1.407c0.062,0.312,0.147,0.614,0.241,0.912     c0.013,0.055,0.025,0.108,0.038,0.163c0.346,1.509,0.693,3.015,1.047,4.52c0.651,2.78,1.309,5.518,1.971,8.224     c0.012,0.047,0.023,0.095,0.035,0.142c0.828,3.384,1.664,6.72,2.51,9.985c-0.546,0-1.075,0-1.599,0     c-0.867-0.001-1.718-0.004-2.592-0.008c-0.571-0.003-1.15-0.006-1.756-0.01c-0.714-0.005-1.413-0.038-2.102-0.09     c-0.107-0.008-0.213-0.018-0.319-0.026c-11.649-0.994-19.598-8.532-22.454-17.679c-1.067-3.791-1.283-7.953-0.51-12.25     c0.1-0.558,0.127-1.103,0.121-1.641c1.114-4.402,3.44-8.637,7.145-12.215C178.323,42.2,178.323,42.2,178.451,42.072z      M132.572,207.965c-0.57,1.408-0.57,1.408-1.139,2.819c-4.557,11.315-8.018,20.371-10.043,26.453     c-2.58,7.734-10.303,46.515-22.052,109.148c-0.619,3.299-0.619,3.299-1.237,6.602c-4.74,25.34-9.746,52.486-14.704,79.633     c-1.735,9.501-3.341,18.323-4.777,26.241c-0.132,0.731-0.243,1.34-0.338,1.862l-42.66-6.094     c7.662-38.746,29.187-151.883,31.847-165.56c2.967-15.258,5.759-29.417,8.441-42.794c19.285-96.16,34.213-156.085,40.763-162.271     c4.184-3.95,18.782-10.67,36.842-17.156c0.347,2.444,0.899,4.851,1.652,7.196c4.416,14.478,16.384,25.829,33.009,28.67     l-10.291,7.581c-17.819,12.689-21.228,38.253-6.773,54.686c0.268,0.299,0.268,0.299,0.626,0.698     c0.408,0.451,8.333,9.275,11.063,12.276c4.979,5.473,9.43,10.233,13.865,14.783c6.895,7.072,13.366,13.226,19.559,18.495     c11.578,9.851,21.821,16.369,31.122,18.933v36.443c-5.283,1.359-10.065,3.958-14.033,7.458h-54.831     c-1.89-33.433-8.839-73.009-17.119-96.48c-0.006-0.017-0.009-0.033-0.015-0.05c-1.206-3.417-2.496-6.745-3.859-9.981     c-5.226-12.407-10.502-21.44-14.164-26.496c-2.764-3.817-8.099-4.671-11.916-1.907c-3.817,2.764-4.671,8.099-1.907,11.916     c0.667,0.921,1.96,2.89,3.672,5.82c2.916,4.992,5.846,10.784,8.587,17.291c0.821,1.949,1.601,3.95,2.361,5.973     c-0.824,1.941-1.726,4.077-2.696,6.386C138.41,193.722,135.392,201.01,132.572,207.965z M163.578,325.267     c0.064-0.393,0.128-0.8,0.193-1.201c0.041-0.254,0.081-0.503,0.122-0.761c0.115-0.724,0.232-1.46,0.351-2.215     c0.491-3.12,2.144-13.875,2.101-13.597c1.046-6.75,1.884-11.877,2.701-16.359h53.777c-0.343,1.333-0.597,2.701-0.778,4.092     c-0.011,0.081-0.021,0.162-0.031,0.243c-0.07,0.57-0.126,1.144-0.167,1.722c-0.011,0.147-0.025,0.294-0.034,0.441     c-0.04,0.674-0.066,1.352-0.066,2.036v17.067c0,0.684,0.026,1.362,0.066,2.036c0.009,0.148,0.023,0.294,0.034,0.441     c0.042,0.578,0.097,1.152,0.167,1.722c0.01,0.081,0.02,0.162,0.031,0.243c0.181,1.391,0.435,2.759,0.778,4.092H163.578z      M153.61,410.536c2.23-11.999,4.76-24.344,8.209-40.342c0.44-2.04,3.862-17.75,6.048-27.862h65.448     c3.968,3.5,8.75,6.099,14.033,7.458v34.97c0,0.013,0,0.026,0,0.038c0,0.852-0.011,1.699-0.032,2.542     c-0.007,0.297-0.022,0.59-0.032,0.886c-0.018,0.557-0.036,1.115-0.063,1.668c-0.017,0.35-0.042,0.697-0.063,1.045     c-0.029,0.493-0.057,0.988-0.094,1.478c-0.028,0.373-0.063,0.743-0.095,1.114c-0.04,0.462-0.078,0.924-0.123,1.383     c-0.038,0.38-0.083,0.757-0.125,1.136c-0.05,0.445-0.099,0.891-0.154,1.333c-0.048,0.384-0.103,0.764-0.156,1.146     c-0.06,0.431-0.119,0.863-0.184,1.291c-0.059,0.387-0.123,0.771-0.187,1.155c-0.069,0.419-0.138,0.838-0.213,1.254     c-0.069,0.385-0.143,0.768-0.216,1.151c-0.079,0.41-0.158,0.821-0.243,1.229c-0.079,0.384-0.163,0.766-0.247,1.148     c-0.088,0.402-0.178,0.803-0.272,1.203c-0.089,0.381-0.182,0.759-0.276,1.137c-0.098,0.395-0.198,0.788-0.301,1.18     c-0.1,0.379-0.202,0.756-0.306,1.133c-0.107,0.386-0.216,0.77-0.328,1.153c-0.11,0.376-0.221,0.751-0.336,1.124     c-0.116,0.379-0.235,0.756-0.356,1.132c-0.12,0.372-0.241,0.744-0.365,1.114c-0.125,0.371-0.253,0.741-0.383,1.11     c-0.13,0.369-0.26,0.737-0.395,1.104c-0.134,0.364-0.271,0.726-0.409,1.087c-0.14,0.365-0.279,0.73-0.424,1.093     c-0.142,0.357-0.289,0.711-0.436,1.065c-0.15,0.362-0.299,0.724-0.454,1.083c-0.151,0.35-0.307,0.697-0.462,1.044     c-0.159,0.357-0.318,0.714-0.482,1.068c-0.159,0.343-0.323,0.682-0.487,1.022c-0.17,0.354-0.338,0.708-0.512,1.059     c-0.165,0.332-0.336,0.659-0.505,0.989c-0.182,0.354-0.362,0.709-0.548,1.06c-0.17,0.32-0.347,0.636-0.522,0.953     c-0.194,0.353-0.385,0.707-0.584,1.057c-0.176,0.309-0.358,0.614-0.538,0.92c-0.206,0.352-0.409,0.707-0.62,1.056     c-0.17,0.281-0.348,0.558-0.522,0.837c-0.863,1.389-1.766,2.751-2.709,4.085c-0.173,0.245-0.343,0.494-0.519,0.737     c-0.254,0.352-0.516,0.698-0.776,1.046c-0.196,0.262-0.389,0.527-0.588,0.787c-0.257,0.336-0.521,0.667-0.783,0.999     c-0.21,0.266-0.418,0.534-0.631,0.798c-0.265,0.327-0.536,0.65-0.806,0.973c-0.218,0.262-0.434,0.525-0.656,0.784     c-0.273,0.32-0.552,0.635-0.831,0.951c-0.227,0.258-0.452,0.517-0.682,0.772c-0.281,0.311-0.567,0.619-0.852,0.926     c-0.235,0.253-0.469,0.507-0.707,0.757c-0.29,0.304-0.584,0.605-0.878,0.906c-0.243,0.248-0.485,0.496-0.731,0.741     c-0.298,0.297-0.6,0.591-0.903,0.884c-0.249,0.242-0.499,0.483-0.752,0.722c-0.308,0.291-0.619,0.579-0.931,0.867     c-0.255,0.235-0.512,0.469-0.77,0.701c-0.317,0.284-0.636,0.566-0.957,0.846c-0.263,0.229-0.527,0.457-0.792,0.684     c-0.325,0.277-0.653,0.553-0.983,0.826c-0.268,0.222-0.538,0.443-0.809,0.662c-0.335,0.271-0.672,0.541-1.012,0.808     c-0.273,0.215-0.549,0.428-0.825,0.64c-0.346,0.266-0.693,0.53-1.043,0.791c-0.276,0.206-0.556,0.41-0.835,0.614     c-0.357,0.261-0.716,0.52-1.078,0.777c-0.279,0.198-0.561,0.392-0.843,0.587c-0.37,0.256-0.74,0.511-1.115,0.763     c-0.28,0.188-0.563,0.373-0.846,0.558c-0.383,0.252-0.767,0.503-1.155,0.75c-0.28,0.178-0.564,0.353-0.847,0.529     c-0.397,0.247-0.793,0.494-1.195,0.737c-0.278,0.168-0.56,0.331-0.84,0.496c-0.414,0.244-0.828,0.489-1.247,0.729     c-0.266,0.152-0.536,0.299-0.803,0.448c-0.441,0.246-0.881,0.494-1.327,0.735c-0.236,0.127-0.476,0.25-0.713,0.376     c-0.484,0.257-0.968,0.514-1.458,0.764c-0.152,0.078-0.307,0.152-0.46,0.229c-2.004,1.01-4.057,1.97-6.162,2.871     c-0.003,0.001-0.007,0.003-0.01,0.004c-0.574,0.246-1.155,0.483-1.736,0.721c-0.197,0.08-0.391,0.164-0.589,0.243     c-0.529,0.213-1.064,0.418-1.599,0.624c-0.256,0.099-0.51,0.2-0.768,0.297c-0.508,0.191-1.021,0.376-1.534,0.561     c-0.291,0.105-0.581,0.213-0.874,0.316c-0.501,0.176-1.008,0.347-1.514,0.517c-0.309,0.104-0.617,0.21-0.928,0.312     c-0.498,0.164-1.001,0.322-1.504,0.48c-0.326,0.102-0.651,0.206-0.979,0.306c-0.498,0.152-1,0.299-1.503,0.445     c-0.337,0.098-0.673,0.197-1.012,0.293c-0.503,0.142-1.009,0.279-1.516,0.416c-0.345,0.093-0.689,0.186-1.036,0.276     c-0.507,0.132-1.017,0.26-1.529,0.387c-0.352,0.087-0.705,0.174-1.059,0.259c-0.512,0.122-1.027,0.241-1.543,0.358     c-0.359,0.081-0.719,0.162-1.08,0.24c-0.518,0.113-1.039,0.223-1.561,0.33c-0.364,0.075-0.729,0.148-1.095,0.22     c-0.526,0.104-1.053,0.205-1.582,0.303c-0.366,0.068-0.734,0.134-1.102,0.199c-0.535,0.095-1.071,0.187-1.61,0.276     c-0.369,0.061-0.739,0.119-1.109,0.177c-0.544,0.085-1.088,0.169-1.636,0.249c-0.37,0.054-0.741,0.105-1.112,0.156     c-0.555,0.076-1.11,0.152-1.668,0.222c-0.366,0.046-0.735,0.089-1.103,0.133c-0.569,0.068-1.139,0.135-1.712,0.196     c-0.36,0.039-0.722,0.073-1.084,0.109c-0.586,0.059-1.172,0.117-1.762,0.17c-0.347,0.031-0.697,0.057-1.046,0.086     c-0.61,0.05-1.219,0.1-1.833,0.143c-0.325,0.023-0.653,0.041-0.979,0.062c-0.642,0.041-1.284,0.083-1.93,0.117     c-0.035,0.002-0.07,0.003-0.105,0.005C145.798,459.22,148.683,437.054,153.61,410.536z M314.766,493.605     c-17.154,1.715-31.427,2.091-58.884,2.091s-41.731-0.376-58.884-2.091c-7.015-0.702-13.644-1.601-19.878-2.714     c1.313-0.328,2.612-0.676,3.903-1.036c0.251-0.07,0.498-0.145,0.748-0.216c1.152-0.328,2.295-0.669,3.429-1.023     c0.355-0.111,0.709-0.222,1.062-0.335c1.18-0.378,2.349-0.769,3.508-1.175c0.181-0.063,0.364-0.123,0.544-0.187     c1.347-0.478,2.679-0.976,3.997-1.491c0.253-0.099,0.502-0.203,0.754-0.303c1.06-0.422,2.111-0.856,3.152-1.302     c0.333-0.143,0.665-0.286,0.996-0.431c1.115-0.489,2.22-0.99,3.312-1.506c0.148-0.07,0.298-0.136,0.446-0.207     c1.249-0.596,2.48-1.212,3.697-1.843c0.25-0.13,0.495-0.264,0.744-0.395c0.966-0.51,1.923-1.031,2.869-1.563     c0.308-0.173,0.617-0.347,0.923-0.523c1.043-0.599,2.075-1.21,3.093-1.836c0.117-0.072,0.237-0.141,0.354-0.213     c1.142-0.708,2.265-1.436,3.374-2.178c0.242-0.162,0.479-0.328,0.719-0.491c0.87-0.592,1.729-1.194,2.577-1.806     c0.282-0.204,0.564-0.407,0.843-0.613c0.966-0.711,1.92-1.434,2.857-2.172c0.084-0.067,0.172-0.131,0.256-0.197     c1.029-0.815,2.037-1.649,3.031-2.497c0.23-0.196,0.456-0.397,0.684-0.595c0.769-0.667,1.527-1.344,2.273-2.03     c0.254-0.233,0.508-0.466,0.76-0.702c0.879-0.824,1.746-1.659,2.593-2.51c0.055-0.055,0.112-0.109,0.167-0.164     c0.909-0.917,1.794-1.852,2.666-2.799c0.213-0.231,0.42-0.466,0.631-0.699c0.666-0.738,1.321-1.485,1.965-2.24     c0.223-0.262,0.446-0.523,0.666-0.786c0.786-0.943,1.559-1.895,2.31-2.865c0.026-0.033,0.053-0.065,0.078-0.098     c0.782-1.013,1.539-2.044,2.281-3.085c0.19-0.267,0.375-0.537,0.562-0.805c0.561-0.804,1.111-1.617,1.649-2.438     c0.189-0.288,0.379-0.575,0.564-0.865c0.682-1.066,1.351-2.141,1.993-3.234c0.001-0.002,0.003-0.005,0.004-0.007     c0.648-1.104,1.27-2.225,1.877-3.356c0.162-0.301,0.318-0.606,0.477-0.909c0.453-0.866,0.895-1.74,1.324-2.622     c0.153-0.315,0.308-0.629,0.458-0.946c0.549-1.16,1.085-2.329,1.592-3.515c0.507,1.186,1.042,2.355,1.592,3.515     c0.15,0.317,0.305,0.631,0.458,0.946c0.429,0.882,0.87,1.756,1.324,2.622c0.159,0.303,0.315,0.608,0.477,0.909     c0.607,1.131,1.229,2.252,1.877,3.356c0.001,0.002,0.003,0.005,0.004,0.007c0.642,1.093,1.311,2.168,1.993,3.234     c0.186,0.29,0.376,0.577,0.564,0.865c0.538,0.821,1.087,1.634,1.649,2.438c0.187,0.269,0.372,0.539,0.562,0.805     c0.742,1.042,1.5,2.073,2.281,3.085c0.026,0.033,0.053,0.065,0.078,0.098c0.75,0.97,1.523,1.922,2.31,2.865     c0.22,0.264,0.444,0.525,0.666,0.786c0.643,0.756,1.298,1.503,1.965,2.24c0.21,0.233,0.418,0.468,0.631,0.699     c0.871,0.947,1.757,1.882,2.666,2.799c0.055,0.055,0.112,0.109,0.167,0.164c0.847,0.851,1.714,1.686,2.593,2.51     c0.251,0.236,0.506,0.468,0.76,0.702c0.747,0.686,1.505,1.363,2.273,2.03c0.228,0.198,0.454,0.398,0.684,0.595     c0.994,0.847,2.002,1.682,3.031,2.497c0.084,0.067,0.171,0.131,0.256,0.197c0.937,0.738,1.891,1.461,2.857,2.172     c0.28,0.206,0.562,0.409,0.843,0.613c0.848,0.613,1.708,1.214,2.577,1.806c0.24,0.163,0.477,0.33,0.719,0.491     c1.109,0.742,2.232,1.47,3.374,2.178c0.117,0.072,0.237,0.141,0.354,0.213c1.018,0.626,2.049,1.237,3.093,1.836     c0.306,0.176,0.614,0.349,0.923,0.523c0.946,0.532,1.902,1.053,2.869,1.563c0.249,0.131,0.494,0.265,0.744,0.395     c1.217,0.632,2.449,1.247,3.697,1.843c0.147,0.07,0.298,0.137,0.446,0.207c1.092,0.516,2.197,1.017,3.312,1.506     c0.331,0.145,0.663,0.288,0.996,0.431c1.041,0.446,2.092,0.88,3.152,1.302c0.252,0.1,0.501,0.204,0.754,0.303     c1.318,0.515,2.65,1.013,3.997,1.491c0.18,0.064,0.364,0.124,0.544,0.187c1.159,0.406,2.328,0.797,3.508,1.175     c0.353,0.113,0.707,0.225,1.062,0.335c1.134,0.354,2.277,0.695,3.429,1.023c0.25,0.071,0.497,0.146,0.748,0.216     c1.291,0.36,2.59,0.708,3.903,1.036C328.409,492.004,321.781,492.904,314.766,493.605z M366.654,478.404     c-0.035-0.002-0.07-0.003-0.105-0.005c-0.646-0.034-1.288-0.075-1.93-0.117c-0.326-0.021-0.654-0.039-0.979-0.062     c-0.614-0.043-1.224-0.093-1.833-0.143c-0.349-0.029-0.699-0.055-1.046-0.086c-0.59-0.052-1.177-0.111-1.763-0.17     c-0.361-0.036-0.723-0.071-1.083-0.109c-0.574-0.062-1.144-0.129-1.714-0.196c-0.368-0.044-0.736-0.086-1.102-0.133     c-0.559-0.071-1.114-0.146-1.669-0.222c-0.371-0.051-0.742-0.102-1.111-0.156c-0.548-0.08-1.093-0.164-1.637-0.249     c-0.37-0.058-0.74-0.117-1.108-0.177c-0.539-0.089-1.075-0.182-1.611-0.276c-0.368-0.065-0.736-0.131-1.102-0.199     c-0.529-0.098-1.057-0.199-1.582-0.303c-0.366-0.072-0.731-0.146-1.095-0.22c-0.522-0.107-1.043-0.217-1.561-0.33     c-0.361-0.078-0.72-0.159-1.078-0.24c-0.517-0.117-1.032-0.236-1.544-0.358c-0.354-0.084-0.706-0.171-1.057-0.258     c-0.511-0.127-1.022-0.255-1.529-0.387c-0.347-0.09-0.691-0.183-1.036-0.276c-0.507-0.137-1.014-0.274-1.516-0.416     c-0.339-0.096-0.675-0.195-1.012-0.293c-0.503-0.146-1.005-0.293-1.503-0.445c-0.328-0.1-0.653-0.204-0.979-0.306     c-0.503-0.158-1.006-0.316-1.504-0.48c-0.311-0.102-0.618-0.208-0.928-0.312c-0.506-0.171-1.012-0.341-1.514-0.517     c-0.293-0.103-0.583-0.211-0.874-0.316c-0.513-0.185-1.026-0.37-1.534-0.561c-0.257-0.097-0.51-0.198-0.765-0.296     c-0.536-0.206-1.073-0.412-1.604-0.625c-0.193-0.078-0.383-0.159-0.575-0.238c-2.727-1.114-5.375-2.317-7.938-3.61     c-0.146-0.074-0.295-0.145-0.441-0.219c-0.494-0.252-0.982-0.512-1.47-0.77c-0.233-0.124-0.469-0.245-0.701-0.37     c-0.448-0.242-0.889-0.49-1.332-0.737c-0.266-0.149-0.535-0.295-0.799-0.446c-0.421-0.24-0.835-0.486-1.251-0.731     c-0.279-0.164-0.559-0.327-0.835-0.493c-0.403-0.243-0.8-0.491-1.198-0.738c-0.282-0.176-0.566-0.35-0.845-0.528     c-0.388-0.247-0.771-0.499-1.155-0.75c-0.283-0.185-0.566-0.37-0.846-0.558c-0.375-0.252-0.746-0.508-1.116-0.764     c-0.281-0.194-0.562-0.388-0.84-0.585c-0.364-0.257-0.723-0.518-1.082-0.78c-0.278-0.203-0.555-0.405-0.83-0.61     c-0.352-0.263-0.701-0.528-1.048-0.795c-0.275-0.211-0.549-0.423-0.82-0.636c-0.341-0.268-0.679-0.539-1.016-0.811     c-0.27-0.219-0.54-0.439-0.807-0.66c-0.33-0.274-0.658-0.549-0.984-0.827c-0.266-0.227-0.53-0.455-0.792-0.684     c-0.321-0.28-0.641-0.562-0.958-0.847c-0.258-0.231-0.513-0.465-0.768-0.699c-0.314-0.288-0.626-0.578-0.935-0.87     c-0.252-0.238-0.501-0.479-0.749-0.719c-0.303-0.294-0.606-0.588-0.904-0.885c-0.246-0.245-0.488-0.493-0.731-0.741     c-0.294-0.301-0.589-0.601-0.878-0.906c-0.238-0.25-0.472-0.504-0.707-0.757c-0.286-0.308-0.572-0.615-0.852-0.926     c-0.23-0.255-0.456-0.514-0.682-0.772c-0.278-0.316-0.557-0.631-0.831-0.951c-0.221-0.259-0.437-0.522-0.656-0.784     c-0.27-0.324-0.541-0.646-0.806-0.973c-0.213-0.264-0.421-0.532-0.631-0.798c-0.262-0.332-0.526-0.663-0.783-0.999     c-0.199-0.26-0.392-0.525-0.588-0.787c-0.26-0.348-0.522-0.694-0.776-1.046c-0.176-0.244-0.345-0.492-0.519-0.737     c-0.942-1.334-1.846-2.696-2.709-4.085c-0.174-0.279-0.351-0.556-0.522-0.837c-0.211-0.349-0.414-0.703-0.62-1.056     c-0.18-0.307-0.362-0.611-0.538-0.92c-0.199-0.35-0.39-0.704-0.584-1.057c-0.174-0.317-0.351-0.633-0.522-0.953     c-0.187-0.351-0.366-0.706-0.548-1.06c-0.169-0.329-0.34-0.657-0.505-0.989c-0.175-0.352-0.344-0.708-0.514-1.062     c-0.162-0.338-0.326-0.676-0.484-1.017c-0.165-0.356-0.324-0.716-0.485-1.075c-0.154-0.346-0.31-0.691-0.46-1.039     c-0.155-0.359-0.304-0.721-0.454-1.083c-0.147-0.354-0.293-0.708-0.436-1.065c-0.144-0.362-0.284-0.727-0.424-1.093     c-0.138-0.361-0.276-0.723-0.409-1.087c-0.134-0.366-0.265-0.735-0.395-1.104c-0.13-0.369-0.258-0.738-0.383-1.11     c-0.124-0.37-0.246-0.742-0.365-1.114c-0.121-0.376-0.24-0.753-0.356-1.132c-0.114-0.373-0.226-0.748-0.336-1.124     c-0.112-0.383-0.221-0.767-0.328-1.153c-0.104-0.377-0.207-0.755-0.306-1.134c-0.103-0.391-0.202-0.783-0.299-1.176     c-0.094-0.38-0.188-0.761-0.277-1.144c-0.093-0.398-0.182-0.798-0.271-1.198c-0.084-0.382-0.168-0.765-0.247-1.149     c-0.084-0.408-0.164-0.818-0.243-1.229c-0.074-0.383-0.147-0.766-0.216-1.151c-0.075-0.416-0.144-0.835-0.213-1.254     c-0.063-0.384-0.128-0.768-0.187-1.155c-0.065-0.429-0.124-0.86-0.184-1.291c-0.053-0.381-0.107-0.762-0.156-1.146     c-0.056-0.442-0.104-0.888-0.154-1.333c-0.042-0.378-0.087-0.755-0.125-1.136c-0.046-0.459-0.084-0.921-0.123-1.383     c-0.032-0.371-0.067-0.741-0.095-1.114c-0.036-0.49-0.064-0.984-0.094-1.478c-0.021-0.348-0.046-0.695-0.063-1.045     c-0.027-0.553-0.044-1.111-0.063-1.668c-0.01-0.296-0.025-0.589-0.032-0.886c-0.021-0.843-0.031-1.69-0.032-2.542     c0-0.013,0-0.026,0-0.038v-34.97c5.283-1.359,10.065-3.958,14.033-7.458h65.448c2.185,10.111,5.608,25.822,6.048,27.862     c3.449,15.997,5.979,28.342,8.209,40.342C363.08,437.054,365.965,459.22,366.654,478.404z M341.437,291.133     c2.097,4.482,2.936,9.609,3.981,16.359c-0.043-0.278,1.61,10.477,2.101,13.597c0.12,0.765,0.239,1.511,0.355,2.244     c0.034,0.21,0.066,0.413,0.1,0.621c0.07,0.44,0.141,0.883,0.211,1.313H288.94c0.343-1.333,0.597-2.702,0.778-4.093     c0.011-0.08,0.02-0.16,0.03-0.24c0.07-0.571,0.126-1.145,0.167-1.724c0.011-0.147,0.025-0.294,0.034-0.441     c0.04-0.674,0.066-1.352,0.066-2.036v-17.067c0-0.684-0.026-1.362-0.066-2.036c-0.009-0.148-0.023-0.294-0.034-0.441     c-0.042-0.579-0.097-1.153-0.167-1.724c-0.01-0.08-0.02-0.16-0.03-0.24c-0.181-1.391-0.435-2.76-0.778-4.093H341.437z      M433.481,460.723c-0.095-0.522-0.205-1.132-0.338-1.862c-1.436-7.918-3.042-16.74-4.777-26.241     c-4.958-27.146-9.964-54.293-14.704-79.633c-0.618-3.302-0.618-3.302-1.237-6.602c-11.749-62.633-19.471-101.415-22.053-109.153     c-2.024-6.077-5.484-15.133-10.042-26.448c-0.569-1.411-0.569-1.411-1.139-2.819c-2.82-6.955-5.838-14.243-8.856-21.425     c-0.97-2.308-1.872-4.444-2.696-6.386c0.76-2.023,1.54-4.024,2.361-5.973c2.741-6.507,5.671-12.299,8.587-17.291     c1.712-2.931,3.004-4.899,3.672-5.82c2.764-3.817,1.911-9.152-1.907-11.916s-9.152-1.911-11.916,1.907     c-3.661,5.056-8.938,14.089-14.164,26.496c-1.363,3.236-2.653,6.564-3.859,9.981c-0.006,0.017-0.009,0.033-0.015,0.05     c-8.28,23.471-15.229,63.047-17.119,96.48h-54.831c-3.968-3.5-8.75-6.099-14.033-7.458v-36.443     c9.302-2.565,19.544-9.083,31.122-18.933c6.193-5.269,12.664-11.423,19.559-18.495c4.436-4.55,8.887-9.31,13.865-14.783     c2.426-2.667,8.939-9.915,10.67-11.84c0.219-0.244,0.373-0.415,0.42-0.466c0.332-0.369,0.332-0.369,0.506-0.564     c14.093-16.021,11.334-40.513-5.153-53.637c-0.532-0.423-1.078-0.835-1.638-1.234l-10.18-7.5     c16.896-2.886,28.991-14.562,33.227-29.38c0.64-2.122,1.099-4.296,1.409-6.495c18.071,6.49,32.681,13.214,36.868,17.166     c6.549,6.185,21.478,66.111,40.762,162.27c2.683,13.377,5.474,27.536,8.441,42.794c2.66,13.676,24.185,126.813,31.847,165.56     L433.481,460.723z"/>
		</g>
	</g>
</g>
<g>
</g>
<g>
</g>
<g>
</g>
<g>
</g>
<g>
</g>
<g>
</g>
<g>
</g>
<g>
</g>
<g>
</g>
<g>
</g>
<g>
</g>
<g>
</g>
<g>
</g>
<g>
</g>
<g>
</g>
</svg>
