<?xml version="1.0" encoding="iso-8859-1"?>
<!-- Generator: Adobe Illustrator 19.0.0, SVG Export Plug-In . SVG Version: 6.00 Build 0)  -->
<svg xmlns="http://www.w3.org/2000/svg" xmlns:xlink="http://www.w3.org/1999/xlink" version="1.1" id="Layer_1" x="0px" y="0px" viewBox="0 0 512 512" style="enable-background:new 0 0 512 512;" xml:space="preserve">
<g transform="translate(0 -1)">
	<g>
		<g>
			<path d="M230.4,359.4h-51.2c-4.713,0-8.533,3.821-8.533,8.533v34.133c0,2.263,0.899,4.434,2.499,6.034l25.6,25.6     c3.333,3.333,8.735,3.333,12.068,0l25.6-25.6c1.6-1.6,2.499-3.771,2.499-6.034v-34.133     C238.933,363.221,235.113,359.4,230.4,359.4z M221.867,398.532L204.8,415.599l-17.067-17.067v-22.065h34.133V398.532z"/>
			<path d="M332.8,359.4h-51.2c-4.713,0-8.533,3.821-8.533,8.533v34.133c0,2.263,0.899,4.434,2.499,6.034l25.6,25.6     c3.332,3.333,8.735,3.333,12.068,0l25.6-25.6c1.6-1.6,2.499-3.771,2.499-6.034v-34.133     C341.333,363.221,337.513,359.4,332.8,359.4z M324.267,398.532L307.2,415.599l-17.067-17.067v-22.065h34.133V398.532z"/>
			<circle cx="256" cy="299.667" r="8.533"/>
			<path d="M494.759,460.083c-5.147-25.058-30.646-159.118-33.592-174.268c-2.974-15.292-5.772-29.485-8.462-42.899     C431.417,136.773,417.72,81.79,406.926,71.596c-7.131-6.732-26.449-15.37-50.041-23.344c-2.028-6.532-5.712-12.762-11.236-18.096     c-11.633-11.368-17.891-16.429-26.715-20c-0.02-0.008-0.041-0.013-0.062-0.021c-0.027-0.011-0.053-0.025-0.081-0.035     C304.986,4.8,280.359,1,256,1c-24.359,0-48.986,3.8-62.792,9.1c-0.028,0.011-0.053,0.024-0.081,0.035     c-0.02,0.008-0.041,0.013-0.062,0.021c-8.824,3.57-15.082,8.632-26.493,19.777c-0.2,0.199-0.2,0.199-0.328,0.327     c-5.491,5.303-9.156,11.502-11.173,18.007C131.5,56.236,112.2,64.868,105.075,71.595C94.28,81.79,80.583,136.773,59.296,242.916     c-2.69,13.414-5.488,27.608-8.462,42.899c-2.946,15.15-28.445,149.209-33.592,174.268c-0.989,4.816,2.285,9.469,7.152,10.164     l59.733,8.533c4.545,0.649,8.789-2.414,9.604-6.932c0.081-0.451,0.081-0.451,0.469-2.597c0.532-2.938,0.532-2.938,1.331-7.345     c1.435-7.911,3.039-16.727,4.773-26.221c4.954-27.124,9.956-54.248,14.69-79.561c0.615-3.287,0.615-3.287,1.231-6.572     c11.36-60.567,19.283-100.37,21.467-106.923c1.888-5.657,5.254-14.459,9.692-25.474c0.557-1.382,0.557-1.382,1.116-2.761     c1.171-2.887,2.377-5.834,3.603-8.808c5.431,21.283,9.046,45.189,9.853,67.68c-0.033,0.355-0.052,0.714-0.04,1.08     c0.031,0.918,0.031,0.918,0.063,1.821c0.094,2.639,0.136,4.077,0.15,5.44c-0.227,0.953-0.536,2.257-0.914,3.869     c-0.064,0.271-0.129,0.553-0.195,0.832c-0.044,0.189-0.084,0.36-0.13,0.557c-0.024,0.103-0.049,0.21-0.073,0.313     c-0.097,0.417-0.196,0.841-0.296,1.273c-0.064,0.274-0.128,0.552-0.192,0.83c-0.093,0.402-0.186,0.805-0.282,1.22     c-0.1,0.431-0.201,0.871-0.302,1.312c-0.052,0.225-0.101,0.439-0.154,0.668c-0.009,0.037-0.017,0.076-0.026,0.114     c-0.228,0.992-0.46,2.01-0.695,3.044c-0.065,0.285-0.13,0.57-0.195,0.857c-0.21,0.927-0.422,1.864-0.638,2.822     c-0.106,0.471-0.213,0.948-0.32,1.423c-0.117,0.519-0.234,1.042-0.352,1.569c-0.595,2.658-1.198,5.379-1.808,8.163     c-0.028,0.128-0.056,0.256-0.085,0.384c-0.408,1.864-0.82,3.758-1.234,5.674c-0.156,0.722-0.312,1.445-0.468,2.169     c-0.34,1.582-0.681,3.175-1.025,4.789c0,0.001,0,0.001,0,0.002c-2.571,12.089-5.104,24.523-7.525,37.093     c-3.199,16.613-6.06,32.721-8.495,48.062c-5.61,35.335-8.725,64.995-8.725,87.284c0,4.247,3.123,7.847,7.327,8.448     c0.493,0.07,1.423,0.199,2.762,0.378c2.217,0.296,4.785,0.625,7.674,0.978c8.24,1.009,17.415,2.017,27.295,2.958     C201.306,511.385,229.565,513,256,513s54.694-1.615,82.942-4.305c9.879-0.941,19.055-1.949,27.295-2.958     c2.889-0.354,5.457-0.683,7.674-0.978c1.339-0.179,2.27-0.307,2.762-0.378c4.204-0.601,7.327-4.201,7.327-8.448     c0-22.289-3.116-51.95-8.725-87.284c-2.435-15.341-5.296-31.449-8.495-48.062c-2.421-12.571-4.953-25.004-7.525-37.093     c0-0.001,0-0.001,0-0.002c-0.343-1.614-0.684-3.207-1.025-4.789c-0.156-0.725-0.312-1.447-0.468-2.169     c-0.414-1.915-0.826-3.81-1.234-5.674c-0.028-0.129-0.056-0.256-0.085-0.384c-0.611-2.784-1.214-5.505-1.808-8.163     c-0.118-0.528-0.235-1.05-0.352-1.569c-0.107-0.475-0.214-0.953-0.32-1.423c-0.216-0.958-0.428-1.896-0.638-2.822     c-0.065-0.286-0.13-0.572-0.195-0.857c-0.235-1.034-0.467-2.052-0.695-3.044c-0.009-0.037-0.017-0.076-0.026-0.114     c-0.048-0.209-0.093-0.403-0.14-0.609c-0.11-0.477-0.219-0.952-0.327-1.419c-0.083-0.36-0.164-0.71-0.245-1.061     c-0.079-0.34-0.157-0.679-0.235-1.013c-0.09-0.389-0.179-0.771-0.267-1.147c-0.028-0.121-0.057-0.246-0.085-0.366     c-0.049-0.209-0.092-0.392-0.139-0.593c-0.063-0.269-0.126-0.541-0.188-0.802c-0.377-1.61-0.685-2.912-0.913-3.864     c0.013-1.363,0.056-2.801,0.15-5.44c0.032-0.904,0.032-0.904,0.063-1.821c0.012-0.366-0.007-0.725-0.04-1.08     c0.806-22.492,4.422-46.397,9.853-67.68c1.227,2.975,2.433,5.922,3.603,8.808c0.559,1.379,0.559,1.379,1.116,2.761     c4.438,11.015,7.804,19.817,9.693,25.478c2.182,6.55,10.106,46.352,21.465,106.919c0.616,3.284,0.616,3.284,1.231,6.572     c4.734,25.313,9.736,52.437,14.69,79.561c1.734,9.494,3.338,18.309,4.773,26.221c0.799,4.407,0.799,4.407,1.331,7.345     c0.388,2.146,0.388,2.146,0.469,2.597c0.815,4.518,5.059,7.581,9.605,6.932l59.733-8.533     C492.474,469.552,495.748,464.899,494.759,460.083z M319.535,163.064c-0.325,0.36-0.64,0.71-0.943,1.045     c-0.127,0.141-0.249,0.276-0.371,0.411c-0.271,0.301-0.526,0.583-0.767,0.849c-0.377,0.416-0.721,0.797-1,1.102     c-4.856,5.339-9.179,9.961-13.46,14.353c-6.552,6.72-12.653,12.522-18.398,17.41c-0.881,0.749-1.746,1.466-2.603,2.166     c-0.269,0.219-0.533,0.429-0.799,0.643c-0.593,0.477-1.181,0.944-1.761,1.396c-0.292,0.228-0.583,0.452-0.872,0.674     c-0.575,0.441-1.143,0.867-1.706,1.282c-0.25,0.185-0.503,0.375-0.75,0.555c-0.791,0.574-1.571,1.13-2.335,1.653     c-0.005,0.004-0.011,0.008-0.016,0.011c-0.768,0.526-1.519,1.02-2.258,1.494c-0.23,0.147-0.454,0.284-0.681,0.427     c-0.512,0.321-1.018,0.631-1.515,0.926c-0.248,0.147-0.495,0.291-0.739,0.432c-0.487,0.28-0.965,0.545-1.436,0.799     c-0.213,0.115-0.43,0.235-0.64,0.344c-0.657,0.343-1.303,0.666-1.929,0.956c-0.008,0.003-0.016,0.008-0.023,0.011v-27.388     c0.145-0.116,0.288-0.243,0.432-0.361c0.431-0.355,0.861-0.72,1.288-1.099c0.275-0.243,0.549-0.491,0.822-0.744     c0.263-0.244,0.524-0.497,0.785-0.75c13.588-13.111,25.234-38.471,35.553-72.697l20.459,15.071     c9.91,7.059,11.762,20.942,4.081,29.674C327.289,154.447,322.903,159.33,319.535,163.064z M273.067,325.267v0.002h-17.033     c-0.011,0-0.022-0.002-0.034-0.002c-0.011,0-0.022,0.002-0.034,0.002h-17.033v-0.002v-51.198h34.133V325.267z M171.959,315.363     c0.147-0.673,0.294-1.34,0.44-2.006c0.363-1.653,0.727-3.298,1.091-4.933c0.111-0.5,0.223-1.008,0.334-1.503     c0.097-0.433,0.193-0.866,0.289-1.293c0.305-1.362,0.608-2.709,0.908-4.036c0.047-0.208,0.095-0.42,0.141-0.626     c0.35-1.544,0.696-3.065,1.039-4.557c0.059-0.258,0.117-0.51,0.176-0.766c0.106-0.461,0.211-0.92,0.314-1.366     c0.079-0.342,0.157-0.678,0.234-1.014c0.08-0.346,0.159-0.688,0.237-1.024c0.087-0.376,0.174-0.748,0.26-1.116     c0.117-0.502,0.234-1.004,0.346-1.482c0.01-0.041,0.018-0.078,0.028-0.119c0.151-0.646,0.298-1.272,0.44-1.872     c0.353-1.494,0.598-2.52,0.724-3.043c0.159-0.657,0.239-1.33,0.239-2.006h42.667v34.133H171.66     C171.76,316.277,171.859,315.817,171.959,315.363z M245.515,211.035c-0.21-0.11-0.427-0.23-0.64-0.344     c-0.472-0.254-0.949-0.519-1.436-0.799c-0.245-0.141-0.491-0.285-0.739-0.432c-0.497-0.295-1.003-0.605-1.515-0.926     c-0.227-0.142-0.451-0.279-0.681-0.427c-0.74-0.474-1.49-0.967-2.258-1.494c-0.005-0.004-0.011-0.008-0.016-0.011     c-0.763-0.523-1.544-1.079-2.335-1.653c-0.247-0.18-0.5-0.369-0.75-0.554c-0.563-0.416-1.132-0.843-1.708-1.284     c-0.288-0.221-0.577-0.444-0.868-0.671c-0.581-0.453-1.17-0.921-1.764-1.399c-0.266-0.214-0.53-0.423-0.798-0.642     c-0.857-0.699-1.723-1.416-2.603-2.166c-5.745-4.888-11.846-10.69-18.398-17.41c-4.282-4.391-8.604-9.014-13.46-14.353     c-2.686-2.953-10.588-11.751-11.057-12.27c-5.762-6.544-6.5-15.431-2.946-22.536c0.119-0.234,0.24-0.468,0.368-0.698     c0.158-0.288,0.324-0.573,0.496-0.854c0.259-0.419,0.529-0.833,0.82-1.235c0.08-0.111,0.161-0.222,0.243-0.332     c0.379-0.502,0.778-0.993,1.207-1.465c0.027-0.03,0.054-0.059,0.081-0.089c0.474-0.515,0.975-1.012,1.509-1.484     c0.004-0.004,0.008-0.007,0.012-0.011c0.548-0.485,1.127-0.947,1.737-1.381l20.57-15.152c9.77,32.404,20.73,56.863,33.4,70.502     c0.033,0.035,0.066,0.069,0.098,0.104c0.658,0.705,1.32,1.38,1.987,2.026c0.291,0.283,0.582,0.564,0.875,0.836     c0.26,0.24,0.521,0.476,0.783,0.708c0.446,0.395,0.893,0.777,1.343,1.146c0.13,0.107,0.26,0.221,0.391,0.326     c0.002,0.001,0.003,0.003,0.005,0.004v27.387c-0.008-0.003-0.016-0.008-0.023-0.011     C246.818,211.701,246.172,211.378,245.515,211.035z M295.407,73.29c-0.137,0.552-0.275,1.103-0.413,1.653     c-0.301,1.2-0.602,2.398-0.905,3.583c-0.494,1.922-0.992,3.837-1.499,5.74c-0.059,0.221-0.118,0.442-0.177,0.662     c-1.202,4.495-2.44,8.932-3.715,13.288c-10.282,35.134-21.701,60.566-32.7,71.197c-11.001-10.631-22.421-36.063-32.702-71.197     c-1.23-4.204-2.424-8.487-3.587-12.821c-0.15-0.563-0.301-1.124-0.451-1.691c-0.321-1.211-0.637-2.43-0.953-3.649     c-0.912-3.531-1.814-7.123-2.702-10.789h80.79C296.068,70.618,295.738,71.957,295.407,73.29z M340.929,55.02     c0.014,0.417,0.052,0.839,0.13,1.268c0.598,3.326,0.602,6.57,0.081,9.626c-2.03,10.32-10.321,19.217-23.042,20.304     c-0.107,0.009-0.213,0.019-0.321,0.026c-0.688,0.051-1.386,0.085-2.1,0.09c-0.001,0-0.001,0-0.002,0     c-0.624,0.004-1.219,0.008-1.806,0.01c-0.802,0.004-1.586,0.006-2.377,0.007c-0.578,0.001-1.162,0.001-1.766,0.001     c0.847-3.267,1.683-6.605,2.512-9.992c0.01-0.042,0.021-0.084,0.031-0.126c0.663-2.71,1.321-5.451,1.973-8.234     c0.354-1.504,0.701-3.009,1.046-4.518c0.013-0.055,0.025-0.108,0.038-0.163c0.094-0.297,0.179-0.6,0.241-0.912L315.849,61     c1.157-5.124,2.283-10.263,3.348-15.41c1.016-4.914,1.938-9.576,2.761-13.928c3.18,2.511,6.819,5.866,11.544,10.48     C337.417,45.925,339.829,50.399,340.929,55.02z M256,18.067c18.62,0,37.371,2.408,49.873,5.791L300.204,52.2h-88.409     l-5.668-28.342C218.629,20.474,237.38,18.067,256,18.067z M178.569,42.072c4.685-4.575,8.304-7.91,11.471-10.411     c0.824,4.352,1.745,9.015,2.761,13.929c1.07,5.173,2.202,10.34,3.365,15.491l0.265,1.326c0.062,0.308,0.145,0.607,0.238,0.901     c0.381,1.665,0.765,3.326,1.155,4.985c0.597,2.545,1.2,5.053,1.806,7.536c0.071,0.288,0.141,0.575,0.213,0.863     c0.802,3.272,1.611,6.5,2.43,9.661c-0.562,0-1.107,0-1.645,0c-0.824-0.001-1.636-0.004-2.466-0.007     c-0.597-0.003-1.202-0.006-1.836-0.011c-0.714-0.005-1.413-0.038-2.102-0.09c-0.107-0.008-0.213-0.018-0.319-0.026     c-11.649-0.994-19.598-8.532-22.454-17.679c-1.067-3.791-1.283-7.953-0.51-12.25c0.1-0.558,0.127-1.103,0.121-1.641     c1.114-4.402,3.44-8.637,7.145-12.215C178.441,42.2,178.441,42.2,178.569,42.072z M132.684,207.982     c-0.566,1.396-0.566,1.396-1.13,2.797c-4.56,11.318-8.024,20.375-10.052,26.454c-2.579,7.741-10.302,46.532-22.05,109.175     c-0.616,3.289-0.616,3.289-1.232,6.58c-4.739,25.34-9.745,52.486-14.703,79.633c-1.735,9.501-3.341,18.323-4.777,26.241     c-0.132,0.731-0.243,1.34-0.338,1.862l-42.66-6.094c7.66-38.735,29.175-151.824,31.845-165.555     c2.968-15.261,5.76-29.422,8.443-42.801c19.284-96.157,34.213-156.082,40.763-162.268c4.184-3.95,18.782-10.67,36.842-17.156     c0.347,2.444,0.899,4.851,1.652,7.196c4.416,14.478,16.384,25.829,33.009,28.67l-10.291,7.581     c-17.819,12.689-21.228,38.253-6.773,54.686c0.268,0.299,0.268,0.299,0.626,0.698c0.327,0.362,5.48,6.099,8.92,9.909     c0.854,0.946,1.602,1.773,2.143,2.367c4.979,5.473,9.43,10.233,13.865,14.783c6.895,7.072,13.366,13.226,19.559,18.495     c11.578,9.851,21.821,16.369,31.122,18.933v26.836H230.4c-4.712,0-8.532,3.819-8.533,8.532h-43.208     c-1.818-30.527-8.236-62.63-17.192-87.995c-0.433-1.227-1.095-2.24-1.888-3.073c-0.638-1.647-1.295-3.273-1.97-4.876     c-5.226-12.407-10.502-21.44-14.164-26.496c-2.764-3.817-8.099-4.671-11.916-1.907c-3.817,2.764-4.671,8.099-1.907,11.916     c0.667,0.921,1.96,2.889,3.672,5.82c2.916,4.992,5.846,10.784,8.587,17.291c0.675,1.602,1.326,3.235,1.959,4.887     c-0.714,1.685-1.482,3.506-2.297,5.445C138.525,193.733,135.505,201.025,132.684,207.982z M147.837,488.797     c-0.919-0.113-1.805-0.223-2.656-0.33c0.601-20.328,3.537-46.512,8.399-77.142c2.404-15.145,5.233-31.071,8.398-47.51     c1.951-10.129,3.976-20.17,6.035-30.015h53.853v0.002c0,4.713,3.821,8.533,8.533,8.533h17.067v153.534     c-23.363-0.303-48.069-1.81-72.791-4.164C164.955,490.779,155.931,489.788,147.837,488.797z M366.818,488.467     c-0.851,0.107-1.736,0.217-2.656,0.33c-8.093,0.991-17.118,1.983-26.839,2.908c-24.722,2.355-49.428,3.862-72.791,4.164V342.335     H281.6c4.713,0,8.533-3.82,8.533-8.533V333.8h53.853c2.059,9.845,4.084,19.886,6.035,30.015     c3.166,16.439,5.994,32.366,8.398,47.51C363.282,441.955,366.218,468.139,366.818,488.467z M290.133,282.6H332.8     c0,0.433,0.045,0.863,0.11,1.29c0.037,0.24,0.072,0.48,0.129,0.716c0.004,0.015,0.008,0.034,0.012,0.049     c0.129,0.535,0.369,1.538,0.713,2.994c0.142,0.6,0.289,1.226,0.44,1.872c0.01,0.041,0.018,0.078,0.028,0.119     c0.112,0.478,0.229,0.98,0.346,1.482c0.086,0.368,0.172,0.741,0.26,1.116c0.078,0.336,0.157,0.679,0.237,1.024     c0.078,0.336,0.156,0.672,0.234,1.014c0.103,0.446,0.208,0.905,0.314,1.366c0.059,0.255,0.117,0.507,0.176,0.766     c0.342,1.493,0.689,3.013,1.039,4.557c0.047,0.206,0.094,0.418,0.141,0.626c0.3,1.327,0.603,2.673,0.908,4.036     c0.096,0.427,0.192,0.86,0.289,1.293c0.111,0.496,0.223,1.003,0.334,1.503c0.364,1.635,0.727,3.28,1.091,4.933     c0.146,0.666,0.293,1.333,0.44,2.006c0.099,0.455,0.199,0.915,0.298,1.371h-50.206V282.6z M433.599,460.723     c-0.095-0.522-0.205-1.132-0.338-1.862c-1.436-7.918-3.042-16.74-4.777-26.241c-4.958-27.146-9.964-54.293-14.703-79.633     c-0.616-3.291-0.616-3.291-1.232-6.58C400.8,283.765,393.078,244.974,390.5,237.236c-2.03-6.083-5.493-15.14-10.053-26.458     c-0.565-1.4-0.565-1.4-1.13-2.797c-2.821-6.957-5.841-14.249-8.861-21.435c-0.815-1.939-1.583-3.76-2.297-5.445     c0.634-1.652,1.285-3.285,1.959-4.887c2.741-6.507,5.671-12.299,8.587-17.291c1.712-2.931,3.004-4.899,3.672-5.82     c2.764-3.817,1.911-9.152-1.907-11.916c-3.817-2.764-9.152-1.911-11.916,1.907c-3.661,5.056-8.938,14.089-14.164,26.496     c-0.675,1.603-1.332,3.228-1.97,4.876c-0.793,0.833-1.454,1.846-1.888,3.073c-8.956,25.365-15.373,57.468-17.192,87.995h-43.208     c-0.001-4.712-3.821-8.532-8.533-8.532h-17.067v-26.836c9.302-2.565,19.544-9.083,31.122-18.933     c6.193-5.269,12.664-11.423,19.559-18.495c4.436-4.55,8.887-9.31,13.865-14.783c2.73-3.001,10.655-11.825,11.09-12.306     c0.332-0.369,0.332-0.369,0.506-0.564c14.093-16.021,11.334-40.513-5.153-53.637c-0.532-0.423-1.078-0.835-1.638-1.234     l-10.18-7.5c16.896-2.886,28.991-14.562,33.227-29.38c0.64-2.122,1.099-4.296,1.409-6.495     c18.071,6.49,32.681,13.214,36.868,17.166c6.549,6.185,21.478,66.111,40.762,162.267c2.683,13.379,5.475,27.541,8.443,42.801     c2.67,13.731,24.186,126.82,31.845,165.555L433.599,460.723z"/>
		</g>
	</g>
</g>
<g>
</g>
<g>
</g>
<g>
</g>
<g>
</g>
<g>
</g>
<g>
</g>
<g>
</g>
<g>
</g>
<g>
</g>
<g>
</g>
<g>
</g>
<g>
</g>
<g>
</g>
<g>
</g>
<g>
</g>
</svg>
