<?xml version="1.0" encoding="iso-8859-1"?>
<!-- Generator: Adobe Illustrator 19.0.0, SVG Export Plug-In . SVG Version: 6.00 Build 0)  -->
<svg xmlns="http://www.w3.org/2000/svg" xmlns:xlink="http://www.w3.org/1999/xlink" version="1.1" id="Layer_1" x="0px" y="0px" viewBox="0 0 512 512" style="enable-background:new 0 0 512 512;" xml:space="preserve">
<g transform="translate(0 -1)">
	<g>
		<g>
			<path d="M344.905,102.704c-22.505-2.804-47.708-0.283-71.161,7.625c17.348-36.252,32.617-77.824,32.617-100.935     c0-4.636-3.758-8.393-8.393-8.393s-8.393,3.758-8.393,8.393c0,20.82-16.29,63.742-33.574,99.025     c-17.284-35.283-33.574-78.205-33.574-99.025c0-4.636-3.758-8.393-8.393-8.393s-8.393,3.758-8.393,8.393     c0,23.111,15.269,64.683,32.617,100.935c-23.453-7.908-48.656-10.429-71.161-7.625c-30.078,3.747-50.698,16.598-45.02,35.059     c1.775,5.768,4.272,13.427,7.4,22.76c0.313,0.933,0.313,0.933,0.626,1.866c1.523,4.533,3.127,9.261,4.93,14.544     c1.042,3.054,4.077,11.922,3.912,11.438c7.724,22.56,80.586,16.476,117.057-8.944c36.471,25.42,109.333,31.505,117.056,8.948     c-0.164,0.48,2.871-8.388,3.913-11.442c1.803-5.283,3.406-10.011,4.93-14.544c0.313-0.932,0.313-0.932,0.626-1.866     c3.128-9.333,5.625-16.992,7.399-22.759C395.603,119.301,374.983,106.451,344.905,102.704z M162.438,184.444     c-3.182-0.54-5.679-1.263-7.274-2.044c-0.655-0.32-0.619-0.287-0.337,0.537c0.165,0.482-2.868-8.38-3.907-11.425     c-1.795-5.26-3.39-9.964-4.905-14.47c-0.311-0.926-0.311-0.926-0.622-1.852c-3.087-9.213-5.547-16.756-7.272-22.363     c-0.388-1.262,0.625-3.047,4.779-5.637c5.748-3.582,15.056-6.431,26.271-7.828c24.824-3.093,53.678,1.131,78.436,12.757v32.705     c-14.263,10.656-35.781,17.73-58.14,19.953C179.159,185.802,169.559,185.652,162.438,184.444z M373.879,132.827     c-1.725,5.605-4.185,13.149-7.272,22.362c-0.311,0.926-0.311,0.926-0.622,1.852c-1.514,4.506-3.11,9.21-4.905,14.47     c-1.039,3.045-4.072,11.907-3.909,11.429c0.283-0.828,0.319-0.861-0.336-0.541c-1.596,0.781-4.092,1.505-7.274,2.044     c-7.122,1.207-16.721,1.357-27.029,0.332c-22.359-2.223-43.877-9.297-58.14-19.953v-32.705     c24.758-11.626,53.611-15.85,78.436-12.757c11.215,1.397,20.523,4.246,26.271,7.828     C373.255,129.779,374.268,131.564,373.879,132.827z"/>
			<path d="M318.87,287.455c-1.256-0.707-2.674-1.078-4.115-1.078H197.246c-1.511,0-2.995,0.408-4.293,1.181     c-8.369,4.982-20.321,15.749-32.084,33.534c-19.272,29.138-30.77,67.601-30.77,116.367c0,4.247,3.172,7.825,7.389,8.333     c0.786,0.095,2.398,0.335,4.716,0.757c3.939,0.716,8.348,1.684,13.106,2.938c13.596,3.583,27.185,8.718,39.801,15.649     c19.876,10.921,35.4,25.253,45.09,43.421c1.459,2.735,4.306,4.443,7.406,4.443h16.787c3.1,0,5.947-1.708,7.406-4.443     c9.69-18.167,25.214-32.5,45.09-43.421c12.616-6.932,26.205-12.067,39.801-15.649c4.758-1.254,9.167-2.222,13.106-2.938     c2.318-0.421,3.93-0.662,4.716-0.757c4.217-0.508,7.389-4.086,7.389-8.333c0-49.61-11.5-88.269-30.793-117.123     C339.308,302.688,327.3,292.198,318.87,287.455z M352.413,433.254c-14.839,3.91-29.685,9.52-43.607,17.17     c-20.949,11.51-37.898,26.606-49.313,45.79h-6.986c-11.415-19.184-28.364-34.28-49.313-45.79     c-13.923-7.65-28.769-13.26-43.607-17.17c-4.502-1.186-8.732-2.141-12.615-2.89c1.041-42.072,11.366-75.017,27.897-100.011     c6.024-9.107,12.442-16.458,18.814-22.198c2.503-2.255,4.579-3.904,6.088-4.991h112.563c1.493,1.027,3.567,2.612,6.078,4.805     c6.343,5.541,12.736,12.717,18.741,21.698c16.527,24.718,26.854,57.836,27.877,100.696     C361.147,431.112,356.916,432.067,352.413,433.254z"/>
		</g>
	</g>
</g>
<g>
</g>
<g>
</g>
<g>
</g>
<g>
</g>
<g>
</g>
<g>
</g>
<g>
</g>
<g>
</g>
<g>
</g>
<g>
</g>
<g>
</g>
<g>
</g>
<g>
</g>
<g>
</g>
<g>
</g>
</svg>
