<?xml version="1.0" encoding="iso-8859-1"?>
<!-- Generator: Adobe Illustrator 19.0.0, SVG Export Plug-In . SVG Version: 6.00 Build 0)  -->
<svg xmlns="http://www.w3.org/2000/svg" xmlns:xlink="http://www.w3.org/1999/xlink" version="1.1" id="Layer_1" x="0px" y="0px" viewBox="0 0 512.004 512.004" style="enable-background:new 0 0 512.004 512.004;" xml:space="preserve">
<g transform="translate(0 -1)">
	<g>
		<g>
			<path d="M494.761,460.087c-5.147-25.058-30.646-159.118-33.592-174.268c-2.974-15.292-5.772-29.485-8.462-42.899     C431.419,136.777,417.722,81.795,406.928,71.6c-8.287-7.826-30.982-19.547-51.968-26.693L322.399,4.207     c-0.005-0.007-0.012-0.013-0.017-0.019c-0.174-0.219-0.365-0.423-0.56-0.624c-0.038-0.039-0.075-0.081-0.114-0.119     c-0.207-0.206-0.427-0.399-0.656-0.583c-0.019-0.015-0.037-0.029-0.056-0.044c-0.894-0.708-1.944-1.24-3.125-1.536     c-0.122-0.031-0.245-0.058-0.368-0.084c-0.203-0.041-0.404-0.085-0.614-0.112c-0.344-0.047-0.69-0.072-1.037-0.076     C315.813,1.008,315.776,1,315.736,1H196.269c-0.04,0-0.077,0.008-0.117,0.009c-0.347,0.005-0.693,0.03-1.037,0.076     c-0.21,0.027-0.411,0.071-0.614,0.112c-0.123,0.026-0.246,0.052-0.368,0.084c-1.181,0.297-2.23,0.828-3.125,1.536     c-0.019,0.015-0.037,0.029-0.056,0.044c-0.229,0.185-0.448,0.377-0.656,0.583c-0.039,0.038-0.075,0.08-0.114,0.119     c-0.195,0.202-0.386,0.405-0.56,0.624c-0.006,0.007-0.012,0.013-0.017,0.019l-32.561,40.701     c-20.986,7.146-43.682,18.867-51.968,26.693c-10.794,10.195-24.492,65.177-45.779,171.32c-2.69,13.414-5.488,27.608-8.462,42.899     c-2.946,15.15-28.445,149.209-33.592,174.268c-0.989,4.816,2.285,9.469,7.152,10.164l59.733,8.533     c4.545,0.649,8.789-2.414,9.604-6.932c0.081-0.451,0.081-0.451,0.469-2.597c0.532-2.938,0.532-2.938,1.331-7.345     c1.435-7.911,3.039-16.727,4.773-26.221c4.954-27.124,9.957-54.248,14.692-79.562c0.617-3.296,0.617-3.296,1.234-6.589     c11.359-60.553,19.283-100.348,21.469-106.902c1.886-5.662,5.25-14.463,9.687-25.478c0.56-1.388,0.56-1.388,1.121-2.774     c1.164-2.872,2.364-5.804,3.584-8.763c5.383,21.219,9.005,45.224,9.794,67.773l-9.7,50.258     c-14.613,65.431-24.185,124.135-24.185,163.75c0,3.232,1.826,6.187,4.717,7.632c16.656,8.328,37.552,13.277,62.7,15.792     c17.894,1.789,32.573,2.176,60.582,2.176s42.688-0.386,60.582-2.176c25.148-2.515,46.045-7.464,62.701-15.792     c3.437-1.718,4.885-4.913,4.717-8.012c-0.061-39.611-9.618-98.149-24.235-163.613l-9.649-50.016     c0.788-22.549,4.41-46.554,9.794-67.773c1.22,2.959,2.419,5.891,3.584,8.763c0.561,1.386,0.561,1.386,1.121,2.774     c4.436,11.014,7.8,19.815,9.686,25.475c2.187,6.557,10.111,46.352,21.47,106.905c0.617,3.293,0.617,3.293,1.234,6.589     c4.735,25.313,9.737,52.437,14.692,79.562c1.734,9.494,3.338,18.31,4.773,26.221c0.799,4.407,0.799,4.407,1.331,7.345     c0.388,2.146,0.388,2.146,0.469,2.597c0.815,4.518,5.059,7.581,9.604,6.932l59.733-8.533     C492.476,469.557,495.75,464.903,494.761,460.087z M339.123,53.84c-2.641,3.591-6.37,8.167-10.32,12.634     c-8.965,10.136-17.554,17.889-20.691,18.903c-7.37,2.379-14.584,1.112-25.096-3.834c-2.316-1.091-4.575-2.227-8.146-4.074     c-0.76-0.393-0.76-0.393-1.524-0.79c-1.291-0.669-2.45-1.267-3.512-1.81l22.227-25.367l23.377-26.677l24.22,30.276     C339.483,53.344,339.313,53.582,339.123,53.84z M206.655,86.098c-0.923-0.183-1.842-0.424-2.764-0.721     c-3.135-1.013-11.725-8.766-20.689-18.902c-3.951-4.467-7.679-9.043-10.32-12.634c-0.19-0.259-0.36-0.496-0.535-0.74     l24.22-30.275l23.377,26.677l22.227,25.367c-1.063,0.544-2.222,1.141-3.512,1.81c-0.765,0.396-0.765,0.396-1.524,0.79     c-3.569,1.846-5.827,2.982-8.145,4.074C219.79,85.871,213.117,87.382,206.655,86.098z M296.913,18.067l-17.666,20.161     l-23.245,26.526l-23.245-26.526l-17.666-20.161H296.913z M145.129,481.992c0.825-37.94,10.035-93.368,23.764-154.861     l9.932-51.442l0.15-1.886c-1.039-32.977-7.829-68.839-17.491-96.213c-0.005-0.016-0.008-0.031-0.014-0.047     c-1.206-3.417-2.496-6.745-3.859-9.981c-5.226-12.407-10.502-21.44-14.164-26.496c-2.764-3.817-8.099-4.671-11.916-1.907     c-3.817,2.764-4.671,8.099-1.907,11.916c0.667,0.921,1.96,2.889,3.672,5.82c2.916,4.992,5.846,10.784,8.587,17.291     c0.821,1.949,1.601,3.949,2.361,5.973c-0.824,1.942-1.726,4.078-2.696,6.387c-3.018,7.183-6.036,14.472-8.856,21.427     c-0.568,1.403-0.568,1.403-1.136,2.81c-4.559,11.319-8.021,20.377-10.047,26.457c-2.581,7.739-10.304,46.522-22.052,109.153     c-0.618,3.297-0.618,3.297-1.236,6.598c-4.74,25.34-9.746,52.487-14.705,79.633c-1.735,9.501-3.341,18.323-4.777,26.241     c-0.133,0.731-0.243,1.34-0.338,1.862l-42.66-6.094c7.66-38.735,29.175-151.824,31.845-165.555     c2.968-15.261,5.76-29.422,8.443-42.801c19.284-96.157,34.213-156.082,40.763-162.268c5.682-5.366,23.526-14.768,41.004-21.255     c0.057,0.078,0.123,0.162,0.181,0.24c0.253,0.341,0.515,0.689,0.788,1.045c0.116,0.151,0.234,0.305,0.354,0.458     c0.273,0.351,0.555,0.71,0.847,1.076c0.096,0.121,0.189,0.238,0.287,0.361c0.389,0.484,0.794,0.981,1.217,1.493     c0.107,0.13,0.221,0.265,0.33,0.397c0.337,0.406,0.684,0.821,1.042,1.245c0.144,0.17,0.289,0.342,0.435,0.515     c0.407,0.479,0.826,0.97,1.258,1.473c0.07,0.082,0.137,0.16,0.208,0.243c0.512,0.595,1.046,1.21,1.594,1.839     c0.148,0.17,0.303,0.347,0.454,0.519c0.429,0.491,0.868,0.993,1.318,1.505c0.163,0.186,0.327,0.372,0.493,0.561     c0.589,0.669,1.189,1.349,1.813,2.055c10.002,11.309,18.904,19.575,25.851,22.868v393.108     C175.859,491.659,158.746,487.869,145.129,481.992z M213.335,495.119V103.578c7.187-0.381,14.56-2.66,22.918-6.592     c2.563-1.204,5.002-2.43,8.724-4.356c0.832-0.431,0.832-0.431,1.658-0.859c1.684-0.873,3.123-1.614,4.402-2.265     c1.942-0.986,3.514-1.761,4.964-2.442c1.451,0.681,3.023,1.456,4.964,2.442c1.279,0.65,2.718,1.391,4.402,2.265     c0.826,0.429,0.826,0.429,1.658,0.859c3.687,1.908,6.116,3.129,8.657,4.324c0.021,0.01,0.042,0.02,0.063,0.03     c0.001,0.001,0.002,0.001,0.003,0.002c0.001,0.001,0.002,0.001,0.004,0.002c8.356,3.931,15.729,6.21,22.915,6.591v391.541     c-11.5,0.646-24.054,0.819-42.667,0.819S224.836,495.764,213.335,495.119z M433.601,460.727     c-0.095-0.522-0.205-1.132-0.338-1.862c-1.436-7.918-3.042-16.74-4.777-26.241c-4.958-27.146-9.965-54.293-14.705-79.633     c-0.618-3.3-0.618-3.3-1.236-6.598c-11.748-62.631-19.471-101.414-22.053-109.155c-2.025-6.078-5.487-15.136-10.046-26.455     c-0.567-1.407-0.567-1.407-1.136-2.81c-2.82-6.955-5.838-14.244-8.856-21.427c-0.97-2.309-1.872-4.445-2.696-6.387     c0.76-2.023,1.54-4.023,2.361-5.973c2.741-6.507,5.671-12.299,8.587-17.291c1.712-2.931,3.004-4.899,3.672-5.82     c2.764-3.817,1.911-9.152-1.907-11.916c-3.817-2.764-9.152-1.911-11.916,1.907c-3.661,5.056-8.938,14.089-14.164,26.496     c-1.363,3.236-2.653,6.564-3.859,9.981c-0.005,0.016-0.009,0.031-0.014,0.047c-9.661,27.374-16.452,63.236-17.491,96.213     l0.15,1.886l9.882,51.2c13.778,61.724,22.99,117.163,23.815,155.104c-13.616,5.877-30.73,9.667-51.14,11.765V100.649     c6.948-3.294,15.849-11.559,25.851-22.868c0.624-0.706,1.225-1.387,1.813-2.055c0.166-0.189,0.33-0.375,0.493-0.561     c0.453-0.516,0.895-1.021,1.327-1.515c0.146-0.167,0.296-0.338,0.439-0.503c0.55-0.632,1.086-1.249,1.6-1.846     c0.07-0.081,0.135-0.158,0.204-0.238c0.436-0.507,0.858-1.002,1.268-1.485c0.143-0.169,0.284-0.336,0.424-0.502     c0.364-0.432,0.718-0.855,1.061-1.268c0.103-0.124,0.21-0.252,0.311-0.374c0.427-0.517,0.836-1.019,1.229-1.508     c0.089-0.111,0.172-0.217,0.26-0.327c0.305-0.382,0.6-0.756,0.883-1.122c0.109-0.141,0.218-0.282,0.325-0.42     c0.293-0.382,0.574-0.755,0.844-1.12c0.044-0.06,0.095-0.125,0.139-0.184c17.477,6.487,35.321,15.889,41.004,21.255     c6.55,6.186,21.479,66.112,40.763,162.268c2.683,13.379,5.475,27.541,8.443,42.801c2.67,13.731,24.186,126.82,31.845,165.555     L433.601,460.727z"/>
			<circle cx="238.936" cy="146.071" r="8.533"/>
			<circle cx="273.069" cy="146.071" r="8.533"/>
			<circle cx="238.936" cy="197.271" r="8.533"/>
			<circle cx="273.069" cy="197.271" r="8.533"/>
			<circle cx="238.936" cy="248.471" r="8.533"/>
			<circle cx="273.069" cy="248.471" r="8.533"/>
			<circle cx="238.936" cy="299.671" r="8.533"/>
			<circle cx="273.069" cy="299.671" r="8.533"/>
			<circle cx="238.936" cy="350.871" r="8.533"/>
			<circle cx="273.069" cy="350.871" r="8.533"/>
			<circle cx="238.936" cy="402.071" r="8.533"/>
			<circle cx="273.069" cy="402.071" r="8.533"/>
			<circle cx="238.936" cy="453.271" r="8.533"/>
			<circle cx="273.069" cy="453.271" r="8.533"/>
		</g>
	</g>
</g>
<g>
</g>
<g>
</g>
<g>
</g>
<g>
</g>
<g>
</g>
<g>
</g>
<g>
</g>
<g>
</g>
<g>
</g>
<g>
</g>
<g>
</g>
<g>
</g>
<g>
</g>
<g>
</g>
<g>
</g>
</svg>
