<?xml version="1.0" encoding="iso-8859-1"?>
<!-- Generator: Adobe Illustrator 19.0.0, SVG Export Plug-In . SVG Version: 6.00 Build 0)  -->
<svg xmlns="http://www.w3.org/2000/svg" xmlns:xlink="http://www.w3.org/1999/xlink" version="1.1" id="Layer_1" x="0px" y="0px" viewBox="0 0 512.004 512.004" style="enable-background:new 0 0 512.004 512.004;" xml:space="preserve">
<g transform="translate(0 -1)">
	<g>
		<g>
			<circle cx="256.002" cy="299.671" r="8.533"/>
			<path d="M494.761,460.087c-5.149-25.065-30.659-159.182-33.594-174.272c-2.973-15.289-5.771-29.48-8.461-42.891     C431.419,136.777,417.722,81.795,406.928,71.6c-8.287-7.826-30.982-19.547-51.968-26.693L322.399,4.207     c-0.005-0.007-0.012-0.013-0.017-0.019c-0.174-0.219-0.365-0.423-0.56-0.624c-0.038-0.039-0.075-0.081-0.114-0.119     c-0.207-0.206-0.427-0.399-0.656-0.583c-0.019-0.015-0.037-0.029-0.056-0.044c-0.894-0.708-1.944-1.24-3.125-1.536     c-0.122-0.031-0.245-0.058-0.368-0.084c-0.203-0.041-0.404-0.085-0.614-0.112c-0.344-0.047-0.69-0.072-1.037-0.076     C315.813,1.008,315.776,1,315.736,1H196.269c-0.04,0-0.077,0.008-0.117,0.009c-0.347,0.005-0.693,0.03-1.037,0.076     c-0.21,0.027-0.411,0.071-0.614,0.112c-0.123,0.026-0.246,0.052-0.368,0.084c-1.181,0.297-2.23,0.828-3.125,1.536     c-0.019,0.015-0.037,0.029-0.056,0.044c-0.229,0.185-0.448,0.377-0.656,0.583c-0.039,0.038-0.075,0.08-0.114,0.119     c-0.195,0.202-0.386,0.405-0.56,0.624c-0.006,0.007-0.012,0.013-0.017,0.019l-32.561,40.701     c-20.986,7.146-43.682,18.867-51.968,26.693c-10.794,10.194-24.491,65.177-45.779,171.324     c-2.69,13.411-5.487,27.603-8.461,42.891c-2.935,15.09-28.445,149.207-33.594,174.272c-0.989,4.816,2.285,9.469,7.152,10.165     l59.733,8.533c4.545,0.649,8.789-2.414,9.604-6.932c0.081-0.451,0.081-0.451,0.469-2.597c0.532-2.938,0.532-2.938,1.331-7.345     c1.435-7.911,3.039-16.727,4.773-26.221c4.954-27.124,9.956-54.248,14.691-79.561c0.617-3.298,0.617-3.298,1.235-6.593     c11.358-60.552,19.283-100.347,21.469-106.898c1.887-5.665,5.249-14.464,9.683-25.473c0.562-1.393,0.562-1.393,1.125-2.783     c1.164-2.871,2.363-5.802,3.583-8.761c4.764,18.778,8.149,39.738,9.411,59.94c-0.021,0.002-0.041,0.005-0.062,0.007     c-0.102,0.008-0.203,0.023-0.304,0.035c-0.139,0.016-0.277,0.032-0.414,0.055c-0.104,0.017-0.205,0.04-0.307,0.061     c-0.131,0.027-0.262,0.054-0.392,0.087c-0.104,0.026-0.205,0.058-0.307,0.088c-0.125,0.037-0.25,0.074-0.372,0.117     c-0.101,0.035-0.2,0.074-0.3,0.113c-0.12,0.047-0.239,0.094-0.356,0.146c-0.098,0.043-0.194,0.09-0.29,0.137     c-0.114,0.056-0.228,0.113-0.339,0.174c-0.094,0.051-0.186,0.104-0.277,0.159c-0.109,0.065-0.217,0.132-0.323,0.201     c-0.089,0.059-0.177,0.118-0.264,0.18c-0.103,0.073-0.203,0.148-0.303,0.226c-0.085,0.066-0.168,0.133-0.25,0.202     c-0.096,0.081-0.19,0.165-0.282,0.25c-0.079,0.072-0.157,0.145-0.233,0.22c-0.09,0.09-0.177,0.182-0.264,0.276     c-0.072,0.078-0.143,0.155-0.212,0.235c-0.084,0.098-0.163,0.199-0.243,0.301c-0.065,0.083-0.13,0.164-0.191,0.249     c-0.077,0.106-0.148,0.217-0.221,0.327c-0.057,0.086-0.115,0.172-0.168,0.26c-0.07,0.116-0.134,0.236-0.199,0.356     c-0.048,0.088-0.098,0.174-0.142,0.264c-0.063,0.128-0.12,0.261-0.177,0.393c-0.038,0.087-0.079,0.172-0.114,0.261     c-0.059,0.149-0.109,0.302-0.159,0.455c-0.025,0.076-0.055,0.15-0.078,0.228c-0.07,0.232-0.13,0.469-0.181,0.71     c-1.376,6.611-2.534,13.386-4.181,24.019c0.039-0.251-1.61,10.472-2.095,13.557c-0.823,5.232-1.551,9.63-2.304,13.869     c-0.053,0.296-0.084,0.589-0.106,0.881c-0.007,0.089-0.009,0.176-0.012,0.265c-0.009,0.211-0.011,0.42-0.004,0.627     c0.003,0.09,0.005,0.18,0.011,0.27c0.015,0.242,0.04,0.481,0.076,0.717c0.006,0.043,0.009,0.086,0.016,0.129     c0.046,0.277,0.107,0.549,0.179,0.816c0.02,0.075,0.045,0.147,0.067,0.221c0.059,0.197,0.124,0.391,0.196,0.582     c0.031,0.083,0.063,0.165,0.097,0.247c0.082,0.198,0.172,0.392,0.269,0.582c0.029,0.056,0.054,0.114,0.084,0.17     c0.129,0.241,0.269,0.475,0.42,0.702c0.036,0.054,0.075,0.104,0.112,0.157c0.121,0.174,0.248,0.343,0.381,0.507     c0.055,0.068,0.112,0.134,0.169,0.201c0.133,0.154,0.271,0.302,0.415,0.445c0.053,0.053,0.104,0.108,0.158,0.16     c0.198,0.188,0.403,0.368,0.618,0.537c0.036,0.028,0.074,0.052,0.11,0.08c0.183,0.139,0.373,0.271,0.567,0.396     c0.073,0.047,0.148,0.091,0.222,0.135c0.173,0.103,0.349,0.199,0.53,0.29c0.074,0.037,0.146,0.076,0.221,0.111     c0.038,0.018,0.074,0.039,0.112,0.056c-13.454,61.759-22.106,116.678-22.106,154.343c0,3.232,1.826,6.187,4.717,7.632     c16.656,8.328,37.552,13.277,62.7,15.792c17.894,1.789,32.573,2.176,60.582,2.176s42.688-0.386,60.582-2.176     c25.148-2.515,46.045-7.464,62.701-15.792c2.891-1.445,4.717-4.4,4.717-7.632c0-37.665-8.652-92.585-22.106-154.343     c0.038-0.017,0.074-0.038,0.112-0.056c0.075-0.035,0.148-0.074,0.221-0.111c0.181-0.091,0.357-0.187,0.53-0.29     c0.075-0.044,0.149-0.089,0.222-0.135c0.195-0.125,0.385-0.257,0.569-0.396c0.035-0.027,0.073-0.051,0.108-0.078     c0.215-0.169,0.421-0.349,0.619-0.537c0.054-0.051,0.104-0.106,0.157-0.158c0.144-0.144,0.283-0.292,0.416-0.446     c0.057-0.066,0.114-0.133,0.169-0.201c0.134-0.164,0.26-0.334,0.381-0.507c0.037-0.053,0.076-0.103,0.112-0.157     c0.151-0.227,0.291-0.461,0.42-0.702c0.029-0.055,0.054-0.112,0.083-0.168c0.097-0.191,0.187-0.385,0.27-0.584     c0.034-0.082,0.066-0.164,0.097-0.247c0.073-0.191,0.137-0.385,0.196-0.582c0.022-0.074,0.047-0.147,0.067-0.221     c0.072-0.268,0.133-0.54,0.179-0.816c0.007-0.043,0.01-0.086,0.016-0.129c0.035-0.237,0.061-0.476,0.076-0.717     c0.006-0.09,0.008-0.18,0.011-0.27c0.006-0.208,0.005-0.417-0.004-0.627c-0.004-0.088-0.006-0.176-0.012-0.265     c-0.022-0.292-0.054-0.586-0.106-0.881c-0.754-4.239-1.481-8.637-2.304-13.869c-0.485-3.085-2.134-13.808-2.095-13.557     c-1.647-10.633-2.805-17.408-4.181-24.019c-0.05-0.241-0.111-0.478-0.181-0.71c-0.023-0.077-0.053-0.151-0.078-0.228     c-0.05-0.153-0.1-0.306-0.159-0.455c-0.035-0.089-0.077-0.175-0.115-0.263c-0.057-0.131-0.113-0.263-0.176-0.39     c-0.045-0.091-0.095-0.178-0.143-0.266c-0.065-0.119-0.128-0.239-0.198-0.355c-0.054-0.089-0.112-0.175-0.169-0.261     c-0.072-0.109-0.143-0.219-0.219-0.325c-0.062-0.086-0.128-0.168-0.193-0.252c-0.079-0.101-0.158-0.202-0.241-0.299     c-0.069-0.081-0.141-0.158-0.213-0.236c-0.086-0.094-0.173-0.186-0.263-0.276c-0.076-0.075-0.154-0.148-0.233-0.22     c-0.093-0.085-0.186-0.169-0.282-0.25c-0.082-0.069-0.166-0.136-0.25-0.202c-0.099-0.077-0.2-0.153-0.302-0.226     c-0.087-0.062-0.175-0.122-0.265-0.181c-0.106-0.069-0.213-0.136-0.322-0.201c-0.092-0.055-0.184-0.108-0.278-0.159     c-0.112-0.061-0.225-0.118-0.339-0.174c-0.096-0.047-0.192-0.093-0.29-0.137c-0.117-0.052-0.236-0.099-0.356-0.146     c-0.099-0.039-0.199-0.078-0.3-0.113c-0.123-0.042-0.247-0.08-0.372-0.117c-0.102-0.03-0.203-0.061-0.307-0.088     c-0.129-0.033-0.26-0.06-0.392-0.087c-0.102-0.021-0.204-0.044-0.307-0.061c-0.137-0.023-0.276-0.038-0.414-0.055     c-0.101-0.012-0.202-0.027-0.304-0.035c-0.021-0.002-0.041-0.006-0.062-0.007c1.262-20.202,4.647-41.162,9.411-59.94     c1.22,2.958,2.419,5.889,3.583,8.761c0.563,1.391,0.563,1.391,1.125,2.783c4.434,11.01,7.797,19.808,9.682,25.469     c2.187,6.555,10.112,46.35,21.47,106.902c0.618,3.295,0.618,3.295,1.235,6.593c4.735,25.313,9.737,52.437,14.691,79.561     c1.734,9.494,3.338,18.309,4.773,26.221c0.799,4.407,0.799,4.407,1.331,7.345c0.388,2.146,0.388,2.146,0.469,2.597     c0.815,4.518,5.059,7.581,9.605,6.932l59.733-8.533C492.476,469.557,495.75,464.903,494.761,460.087z M339.123,53.84     c-2.641,3.591-6.37,8.167-10.32,12.634c-8.965,10.136-17.554,17.889-20.691,18.903c-0.461,0.149-0.921,0.283-1.381,0.403     c-0.013,0.003-0.026,0.006-0.039,0.009c-2.288,0.594-4.582,0.836-6.986,0.724c-4.834-0.225-10.114-1.879-16.691-4.971     c-0.015-0.007-0.031-0.015-0.046-0.022c-2.38-1.121-4.651-2.265-8.448-4.231c-0.584-0.303-1.135-0.588-1.67-0.864     c-1.089-0.564-2.098-1.085-3.018-1.556l22.227-25.368l23.377-26.677l24.22,30.276C339.483,53.344,339.313,53.582,339.123,53.84z      M341.557,282.604c2.097,4.482,2.936,9.609,3.981,16.359c-0.043-0.278,1.61,10.477,2.101,13.597     c0.124,0.786,0.245,1.551,0.365,2.303c0.034,0.211,0.067,0.416,0.1,0.625c0.067,0.418,0.134,0.841,0.201,1.25H289.06     c0.343-1.333,0.597-2.702,0.778-4.093c0.011-0.08,0.02-0.16,0.03-0.24c0.07-0.571,0.126-1.145,0.167-1.724     c0.011-0.147,0.025-0.294,0.034-0.441c0.04-0.674,0.066-1.352,0.066-2.036v-17.067c0-0.684-0.026-1.362-0.066-2.036     c-0.009-0.148-0.023-0.294-0.034-0.441c-0.042-0.579-0.097-1.153-0.167-1.724c-0.01-0.08-0.02-0.16-0.03-0.24     c-0.181-1.391-0.435-2.76-0.778-4.093h18.128c0.023,0,0.045,0,0.068,0H341.557z M230.298,80.919     c-0.213,0.103-0.423,0.203-0.632,0.303c-0.22,0.105-0.44,0.209-0.66,0.313c-0.005,0.003-0.011,0.005-0.016,0.008     c-0.035,0.017-0.069,0.031-0.104,0.047c-5.872,2.752-10.711,4.356-15.124,4.813c-0.353,0.036-0.7,0.057-1.048,0.079     c-0.138,0.009-0.278,0.025-0.415,0.031c-2.397,0.112-4.686-0.13-6.967-0.72c-0.02-0.005-0.04-0.009-0.06-0.014     c-0.46-0.12-0.92-0.255-1.381-0.403c-3.135-1.013-11.725-8.766-20.689-18.902c-3.951-4.467-7.679-9.043-10.32-12.634     c-0.19-0.259-0.36-0.496-0.535-0.74l24.22-30.275l23.377,26.677l22.227,25.368c-0.131,0.067-0.277,0.142-0.41,0.211     c-0.377,0.194-0.768,0.395-1.172,0.603c-0.02,0.011-0.041,0.021-0.061,0.031c-0.594,0.306-1.209,0.624-1.867,0.965     c-4.053,2.099-6.315,3.249-8.305,4.211C230.337,80.9,230.317,80.909,230.298,80.919z M296.913,18.067l-17.666,20.161     l-23.245,26.526l-23.245-26.526l-17.666-20.161H296.913z M132.693,207.969c-0.57,1.408-0.57,1.408-1.139,2.819     c-4.557,11.315-8.018,20.371-10.043,26.453c-2.58,7.734-10.303,46.515-22.052,109.148c-0.619,3.299-0.619,3.299-1.237,6.602     c-4.74,25.34-9.746,52.486-14.704,79.633c-1.735,9.501-3.341,18.323-4.777,26.241c-0.132,0.731-0.243,1.34-0.338,1.862     l-42.66-6.094c7.662-38.746,29.187-151.883,31.847-165.56c2.967-15.258,5.759-29.417,8.441-42.794     c19.285-96.16,34.213-156.085,40.763-162.271c5.682-5.366,23.526-14.768,41.004-21.255c0.057,0.078,0.123,0.162,0.181,0.24     c0.253,0.341,0.515,0.689,0.788,1.045c0.116,0.151,0.234,0.305,0.354,0.458c0.273,0.351,0.555,0.71,0.847,1.076     c0.096,0.121,0.189,0.238,0.287,0.361c0.389,0.484,0.794,0.981,1.217,1.493c0.107,0.13,0.221,0.265,0.33,0.397     c0.337,0.406,0.684,0.821,1.042,1.245c0.144,0.17,0.289,0.342,0.435,0.515c0.407,0.479,0.826,0.97,1.258,1.473     c0.07,0.082,0.137,0.16,0.208,0.243c0.512,0.595,1.046,1.21,1.594,1.839c0.148,0.17,0.303,0.347,0.454,0.519     c0.429,0.491,0.868,0.993,1.318,1.505c0.163,0.186,0.327,0.372,0.493,0.561c0.589,0.669,1.189,1.349,1.813,2.055     c11.18,12.641,20.993,21.499,28.229,23.836c5.371,1.734,10.548,2.33,15.852,1.898c6.803-0.553,13.813-2.799,21.695-6.502     c0.02-0.009,0.039-0.017,0.058-0.027c0,0,0.001,0,0.001,0c0,0,0.001,0,0.001-0.001c2.563-1.204,5.002-2.43,8.724-4.356     c0.832-0.431,0.832-0.431,1.658-0.859c0.668-0.346,1.29-0.668,1.887-0.976c0.279-0.144,0.56-0.288,0.825-0.424     c0.058-0.03,0.117-0.06,0.175-0.09c2.685-1.377,4.672-2.367,6.48-3.216c1.811,0.85,3.8,1.841,6.491,3.222     c0.043,0.022,0.087,0.045,0.131,0.067c0.277,0.142,0.572,0.294,0.865,0.445c0.595,0.307,1.215,0.627,1.88,0.972     c0.826,0.429,0.826,0.429,1.658,0.859c3.697,1.914,6.129,3.136,8.678,4.334c0.015,0.007,0.03,0.014,0.045,0.022     c0,0,0.001,0,0.001,0.001c0.001,0,0.002,0.001,0.002,0.001c7.906,3.72,14.934,5.974,21.755,6.528     c0.251,0.02,0.5,0.024,0.751,0.04c0.504,0.032,1.009,0.068,1.512,0.081c0.093,0.002,0.185-0.002,0.278-0.001     c9.433,56.855,9.598,110.735,0.111,161.901h-21.592c-6.016-5.307-13.912-8.533-22.566-8.533c-8.654,0-16.55,3.226-22.566,8.533     h-54.85c-1.81-30.609-8.241-62.845-17.101-87.948c-0.005-0.016-0.008-0.031-0.014-0.047c-1.206-3.417-2.496-6.745-3.859-9.981     c-5.226-12.407-10.502-21.44-14.164-26.496c-2.764-3.817-8.099-4.671-11.916-1.907c-3.817,2.764-4.671,8.099-1.907,11.916     c0.667,0.921,1.96,2.889,3.672,5.82c2.916,4.992,5.846,10.784,8.587,17.291c0.821,1.949,1.601,3.949,2.361,5.972     c-0.823,1.941-1.726,4.077-2.696,6.385C138.531,193.727,135.513,201.014,132.693,207.969z M243.963,320.299     c-0.181-0.249-0.357-0.5-0.571-0.738c-2.146-2.383-3.573-5.202-4.157-8.231c-0.015-0.08-0.023-0.163-0.037-0.244     c-0.074-0.417-0.138-0.837-0.18-1.261c-0.05-0.534-0.082-1.074-0.082-1.621v-17.067c0-0.547,0.031-1.087,0.082-1.621     c0.042-0.424,0.106-0.844,0.18-1.261c0.014-0.081,0.022-0.163,0.037-0.244c0.584-3.029,2.011-5.848,4.157-8.231     c0.214-0.238,0.39-0.489,0.571-0.738c3.086-3.072,7.34-4.972,12.04-4.972c4.699,0,8.953,1.9,12.039,4.972     c0.181,0.249,0.357,0.5,0.571,0.738c2.146,2.383,3.573,5.202,4.157,8.231c0.015,0.08,0.023,0.163,0.037,0.244     c0.074,0.417,0.138,0.837,0.18,1.261c0.05,0.534,0.082,1.074,0.082,1.621v17.067c0,0.547-0.031,1.087-0.082,1.621     c-0.042,0.424-0.106,0.844-0.18,1.261c-0.014,0.081-0.022,0.163-0.037,0.244c-0.584,3.029-2.011,5.848-4.157,8.231     c-0.214,0.238-0.39,0.489-0.571,0.738c-3.086,3.072-7.34,4.972-12.04,4.972C251.303,325.271,247.049,323.371,243.963,320.299z      M163.699,316.738c0.062-0.384,0.125-0.781,0.188-1.172c0.039-0.244,0.078-0.483,0.117-0.73c0.119-0.743,0.238-1.499,0.36-2.275     c0.491-3.12,2.144-13.875,2.101-13.597c1.046-6.75,1.884-11.877,2.701-16.359h53.777c-0.343,1.333-0.597,2.701-0.778,4.092     c-0.011,0.081-0.021,0.162-0.031,0.243c-0.07,0.57-0.126,1.144-0.167,1.722c-0.011,0.147-0.025,0.294-0.034,0.441     c-0.04,0.674-0.066,1.352-0.066,2.036v17.067c0,0.684,0.026,1.362,0.066,2.036c0.009,0.148,0.023,0.294,0.034,0.441     c0.042,0.578,0.097,1.152,0.167,1.722c0.01,0.081,0.02,0.162,0.031,0.243c0.181,1.391,0.435,2.759,0.778,4.092H163.699z      M197.118,493.847c-20.788-2.079-38.182-5.896-51.989-11.855c0.795-36.562,9.378-89.367,22.288-148.187h66.019     c6.016,5.307,13.912,8.533,22.566,8.533c8.654,0,16.55-3.226,22.566-8.533h21.973c9.536,40.624,8.677,92.331-0.828,161.254     c-11.788,0.695-24.533,0.879-43.711,0.879C228.545,495.938,214.272,495.562,197.118,493.847z M366.875,481.992     c-13.304,5.742-29.951,9.491-49.744,11.616c8.998-66.851,9.919-118.162,0.905-159.804h26.551     C357.497,392.625,366.08,445.43,366.875,481.992z M433.601,460.727c-0.095-0.522-0.205-1.132-0.338-1.862     c-1.436-7.918-3.042-16.74-4.777-26.241c-4.958-27.146-9.964-54.293-14.704-79.633c-0.618-3.302-0.618-3.302-1.237-6.602     c-11.749-62.633-19.471-101.415-22.053-109.153c-2.024-6.077-5.484-15.133-10.042-26.448c-0.569-1.411-0.569-1.411-1.139-2.819     c-2.82-6.955-5.838-14.243-8.856-21.425c-0.97-2.308-1.872-4.444-2.696-6.385c0.76-2.023,1.54-4.023,2.361-5.972     c2.741-6.507,5.671-12.299,8.587-17.291c1.712-2.931,3.004-4.899,3.672-5.82c2.764-3.817,1.911-9.152-1.907-11.916     c-3.817-2.764-9.152-1.911-11.916,1.907c-3.661,5.056-8.938,14.089-14.164,26.496c-1.363,3.236-2.653,6.564-3.859,9.981     c-0.005,0.016-0.009,0.031-0.014,0.047c-8.86,25.103-15.291,57.34-17.101,87.948h-15.909     c9.326-52.473,8.932-107.545-0.741-165.409c6.788-3.592,15.305-11.592,24.818-22.348c0.624-0.706,1.225-1.387,1.813-2.055     c0.166-0.189,0.33-0.375,0.493-0.561c0.453-0.516,0.895-1.021,1.327-1.515c0.146-0.167,0.296-0.338,0.439-0.503     c0.55-0.632,1.086-1.249,1.6-1.846c0.07-0.081,0.135-0.158,0.204-0.238c0.436-0.507,0.858-1.002,1.268-1.485     c0.143-0.169,0.284-0.336,0.424-0.502c0.364-0.432,0.718-0.855,1.061-1.268c0.103-0.124,0.21-0.252,0.311-0.374     c0.427-0.517,0.836-1.019,1.229-1.508c0.089-0.111,0.172-0.217,0.26-0.327c0.305-0.382,0.6-0.756,0.883-1.122     c0.109-0.141,0.218-0.282,0.325-0.42c0.293-0.382,0.574-0.755,0.844-1.12c0.044-0.06,0.095-0.125,0.139-0.184     c17.477,6.487,35.321,15.889,41.004,21.255c6.55,6.186,21.478,66.112,40.763,162.271c2.683,13.377,5.474,27.536,8.441,42.794     c2.66,13.676,24.185,126.813,31.847,165.56L433.601,460.727z"/>
			<circle cx="238.936" cy="163.138" r="8.533"/>
			<circle cx="281.602" cy="163.138" r="8.533"/>
			<circle cx="238.936" cy="214.338" r="8.533"/>
			<circle cx="281.602" cy="214.338" r="8.533"/>
			<circle cx="238.936" cy="385.004" r="8.533"/>
			<circle cx="238.936" cy="436.204" r="8.533"/>
			<circle cx="281.602" cy="385.004" r="8.533"/>
			<circle cx="281.602" cy="436.204" r="8.533"/>
		</g>
	</g>
</g>
<g>
</g>
<g>
</g>
<g>
</g>
<g>
</g>
<g>
</g>
<g>
</g>
<g>
</g>
<g>
</g>
<g>
</g>
<g>
</g>
<g>
</g>
<g>
</g>
<g>
</g>
<g>
</g>
<g>
</g>
</svg>
