<?xml version="1.0" encoding="iso-8859-1"?>
<!-- Generator: Adobe Illustrator 19.0.0, SVG Export Plug-In . SVG Version: 6.00 Build 0)  -->
<svg xmlns="http://www.w3.org/2000/svg" xmlns:xlink="http://www.w3.org/1999/xlink" version="1.1" id="Layer_1" x="0px" y="0px" viewBox="0 0 512.003 512.003" style="enable-background:new 0 0 512.003 512.003;" xml:space="preserve">
<g transform="translate(0 -1)">
	<g>
		<g>
			<path d="M494.76,460.087c-5.149-25.065-30.659-159.182-33.594-174.272c-2.973-15.289-5.771-29.48-8.461-42.891     C431.418,136.777,417.721,81.795,406.927,71.6c-8.284-7.823-30.986-19.546-51.972-26.694l-32.56-40.7     c-0.005-0.007-0.012-0.013-0.017-0.019c-0.174-0.219-0.365-0.423-0.56-0.624c-0.038-0.039-0.075-0.081-0.114-0.119     c-0.207-0.206-0.427-0.399-0.656-0.583c-0.019-0.015-0.037-0.029-0.056-0.044c-0.894-0.708-1.944-1.24-3.125-1.536     c-0.122-0.031-0.245-0.058-0.368-0.084c-0.203-0.041-0.404-0.085-0.614-0.112c-0.344-0.047-0.69-0.072-1.037-0.076     C315.809,1.008,315.772,1,315.732,1H196.265c-0.04,0-0.077,0.008-0.117,0.009c-0.347,0.005-0.693,0.03-1.037,0.076     c-0.21,0.027-0.411,0.071-0.614,0.112c-0.123,0.026-0.246,0.052-0.368,0.084c-1.181,0.297-2.23,0.828-3.125,1.536     c-0.019,0.015-0.037,0.029-0.056,0.044c-0.229,0.185-0.448,0.377-0.656,0.583c-0.039,0.038-0.075,0.08-0.114,0.119     c-0.195,0.202-0.386,0.405-0.56,0.624c-0.006,0.007-0.012,0.013-0.017,0.019L157.04,44.909     c-20.985,7.146-43.679,18.866-51.965,26.691c-10.794,10.194-24.491,65.177-45.779,171.324     c-2.69,13.411-5.487,27.603-8.461,42.891c-2.935,15.09-28.445,149.207-33.594,174.272c-0.989,4.816,2.285,9.469,7.152,10.165     l59.733,8.533c4.545,0.649,8.789-2.414,9.604-6.932c0.081-0.451,0.081-0.451,0.469-2.597c0.532-2.938,0.532-2.938,1.331-7.345     c1.435-7.911,3.039-16.727,4.773-26.221c4.954-27.124,9.956-54.249,14.691-79.562c0.615-3.285,0.615-3.285,1.23-6.568     c11.36-60.568,19.283-100.37,21.467-106.927c1.887-5.656,5.253-14.458,9.691-25.473c0.557-1.382,0.557-1.382,1.116-2.761     c1.167-2.877,2.368-5.814,3.591-8.778c5.383,21.219,9.005,45.225,9.794,67.774l-9.708,50.258     c-14.555,65.227-24.091,123.64-24.172,163.238c-0.223,2.976,1.047,6.06,4.233,7.878c0.128,0.075,0.257,0.148,0.389,0.216     c0.031,0.016,0.058,0.034,0.09,0.05c16.656,8.328,37.552,13.277,62.7,15.792c17.894,1.789,32.573,2.176,60.582,2.176     s42.688-0.386,60.582-2.176c25.148-2.515,46.045-7.464,62.7-15.792c3.534-1.767,4.938-5.003,4.714-8.12     c-0.077-39.609-9.628-98.097-24.231-163.504l-9.658-50.015c0.794-22.551,4.419-46.557,9.802-67.774     c1.22,2.959,2.42,5.891,3.584,8.763c0.561,1.386,0.561,1.386,1.121,2.774c4.436,11.014,7.8,19.815,9.686,25.475     c2.187,6.557,10.111,46.352,21.47,106.905c0.617,3.293,0.617,3.293,1.234,6.589c4.735,25.313,9.737,52.437,14.692,79.562     c1.734,9.494,3.338,18.31,4.773,26.221c0.799,4.407,0.799,4.407,1.331,7.345c0.388,2.146,0.388,2.146,0.469,2.597     c0.815,4.518,5.059,7.581,9.604,6.932l59.733-8.533C492.475,469.557,495.749,464.903,494.76,460.087z M228.988,81.542     c-1.96,0.922-3.805,1.716-5.559,2.383c-0.01,0.004-0.021,0.008-0.031,0.012c-0.429,0.163-0.846,0.309-1.264,0.457     c-0.155,0.055-0.316,0.117-0.47,0.17c-0.428,0.147-0.846,0.277-1.264,0.407c-0.136,0.042-0.276,0.092-0.41,0.132     c-4.058,1.224-7.642,1.655-11.094,1.317c-1.686-0.165-3.343-0.506-5.006-1.043c-0.771-0.249-1.875-0.909-3.228-1.906     c-4.155-3.064-10.701-9.35-17.464-16.996c-3.951-4.467-7.679-9.043-10.32-12.634c-0.115-0.156-0.222-0.305-0.331-0.455     c-0.069-0.095-0.138-0.19-0.205-0.283l24.221-30.277l23.377,26.677l22.227,25.368c-0.08,0.041-0.171,0.088-0.252,0.13     c-0.994,0.509-2.069,1.064-3.258,1.68c-0.765,0.396-0.765,0.396-1.524,0.79c-2.938,1.52-4.986,2.557-6.912,3.486     C229.807,81.153,229.397,81.349,228.988,81.542z M269.83,74.869l22.227-25.368l23.377-26.677l24.222,30.277     c-0.04,0.055-0.081,0.112-0.121,0.167c-0.135,0.187-0.271,0.374-0.415,0.57c-2.641,3.591-6.37,8.167-10.32,12.634     c-8.965,10.136-17.554,17.889-20.691,18.903c-7.37,2.379-14.584,1.112-25.096-3.834c-1.293-0.608-2.579-1.236-4.068-1.985     c-1.219-0.614-2.578-1.31-4.229-2.165c-0.687-0.356-0.687-0.356-1.377-0.714c-0.468-0.242-0.914-0.473-1.349-0.698     C271.23,75.589,270.501,75.214,269.83,74.869z M296.91,18.067l-17.666,20.161l-23.245,26.526l-23.245-26.526l-17.666-20.161     H296.91z M168.885,327.129l9.94-51.44l0.151-1.887c-1.04-32.996-7.837-68.881-17.507-96.261     c-0.001-0.003-0.002-0.005-0.003-0.007c-1.205-3.414-2.494-6.74-3.856-9.973c-5.226-12.407-10.502-21.44-14.164-26.496     c-2.764-3.817-8.099-4.671-11.916-1.907c-3.817,2.764-4.671,8.099-1.907,11.916c0.667,0.921,1.96,2.889,3.672,5.82     c2.916,4.992,5.846,10.784,8.587,17.291c0.821,1.95,1.602,3.951,2.362,5.976c-0.824,1.942-1.727,4.079-2.697,6.388     c-3.02,7.187-6.04,14.478-8.861,21.435c-0.566,1.396-0.566,1.396-1.13,2.797c-4.56,11.318-8.024,20.375-10.052,26.454     c-2.579,7.745-10.302,46.538-22.05,109.178c-0.616,3.286-0.616,3.286-1.232,6.576c-4.739,25.34-9.745,52.487-14.704,79.633     c-1.735,9.501-3.341,18.323-4.777,26.241c-0.132,0.731-0.243,1.34-0.338,1.862l-42.66-6.094     c7.662-38.746,29.187-151.883,31.847-165.56c2.967-15.258,5.759-29.417,8.441-42.794c19.285-96.16,34.213-156.085,40.763-162.271     c5.682-5.366,23.523-14.766,40.999-21.253c0.164,0.223,0.348,0.461,0.521,0.691c0.1,0.133,0.199,0.265,0.302,0.401     c0.221,0.29,0.451,0.587,0.686,0.888c0.095,0.121,0.193,0.245,0.29,0.368c0.841,1.066,1.767,2.201,2.781,3.411     c0.033,0.039,0.065,0.077,0.098,0.117c2.227,2.654,4.857,5.663,7.94,9.15c7.994,9.038,15.285,16.127,21.441,20.297     c2.452,1.662,4.73,2.874,6.791,3.54c2.302,0.743,4.568,1.277,6.825,1.611c4.512,0.668,8.982,0.534,13.612-0.332     c4.194-0.784,8.525-2.183,13.128-4.117c1.326-0.557,2.667-1.146,4.043-1.792c0.446-0.21,0.89-0.422,1.335-0.637     c2.117-1.018,4.315-2.13,7.388-3.72c0.832-0.431,0.832-0.431,1.658-0.859c0.287-0.149,0.56-0.29,0.833-0.432v293.665     c0,0.009,0.001,0.018,0.001,0.027c0,0.868-0.011,1.732-0.032,2.591c-0.002,0.081-0.006,0.161-0.009,0.243     c-0.021,0.774-0.049,1.546-0.086,2.313c-0.011,0.214-0.027,0.426-0.038,0.639c-0.035,0.63-0.072,1.259-0.118,1.883     c-0.021,0.279-0.047,0.554-0.07,0.832c-0.046,0.555-0.092,1.111-0.147,1.662c-0.031,0.314-0.069,0.624-0.103,0.936     c-0.056,0.51-0.111,1.019-0.175,1.525c-0.043,0.34-0.091,0.677-0.137,1.016c-0.064,0.471-0.128,0.942-0.199,1.409     c-0.055,0.365-0.116,0.727-0.176,1.09c-0.071,0.436-0.143,0.872-0.22,1.304c-0.068,0.384-0.142,0.765-0.215,1.146     c-0.077,0.405-0.155,0.809-0.237,1.211c-0.083,0.405-0.171,0.807-0.259,1.209c-0.081,0.371-0.163,0.741-0.248,1.109     c-0.099,0.428-0.203,0.853-0.308,1.277c-0.083,0.335-0.166,0.669-0.253,1.002c-0.117,0.45-0.239,0.899-0.362,1.346     c-0.083,0.298-0.166,0.596-0.251,0.892c-0.138,0.478-0.28,0.955-0.425,1.429c-0.078,0.254-0.157,0.507-0.237,0.76     c-0.162,0.51-0.327,1.018-0.498,1.523c-0.07,0.207-0.141,0.413-0.212,0.619c-0.189,0.547-0.383,1.093-0.582,1.634     c-0.055,0.151-0.112,0.3-0.168,0.45c-0.222,0.593-0.449,1.182-0.684,1.768c-0.034,0.086-0.069,0.17-0.104,0.256     c-0.262,0.648-0.53,1.293-0.807,1.932c-0.002,0.005-0.004,0.009-0.006,0.014c-14.407,33.209-48.955,54.232-94.878,56.601     C146.489,440.851,155.549,386.907,168.885,327.129z M314.885,493.845c-17.154,1.715-31.427,2.091-58.884,2.091     s-41.731-0.376-58.884-2.091c-6.936-0.694-13.494-1.581-19.667-2.676c35.527-8.882,62.836-29.659,76.79-58.873     c0.011-0.022,0.021-0.044,0.032-0.066c0.597-1.253,1.18-2.516,1.727-3.8c13.33,31.256,41.455,53.481,78.51,62.747     C328.348,492.268,321.804,493.153,314.885,493.845z M433.6,460.727c-0.095-0.522-0.205-1.132-0.338-1.862     c-1.436-7.918-3.042-16.74-4.777-26.241c-4.958-27.146-9.965-54.293-14.705-79.633c-0.618-3.3-0.618-3.3-1.236-6.598     c-11.748-62.631-19.471-101.414-22.053-109.155c-2.025-6.078-5.487-15.136-10.046-26.455c-0.567-1.407-0.567-1.407-1.136-2.81     c-2.82-6.955-5.838-14.244-8.856-21.427c-0.971-2.31-1.873-4.448-2.697-6.39c0.76-2.022,1.539-4.021,2.36-5.969     c2.741-6.507,5.671-12.299,8.587-17.291c1.712-2.931,3.004-4.899,3.672-5.82c2.764-3.817,1.911-9.152-1.907-11.916     c-3.817-2.764-9.152-1.911-11.916,1.907c-3.661,5.056-8.938,14.089-14.164,26.496c-1.363,3.236-2.653,6.564-3.859,9.981     c-0.012,0.035-0.02,0.071-0.032,0.107c-9.648,27.36-16.432,63.194-17.479,96.151l0.151,1.889l9.89,51.2     c13.379,59.939,22.453,113.952,23.722,151.769c-47.771-2.429-83.261-25.111-96.537-60.72c-0.021-0.055-0.042-0.111-0.062-0.166     c-0.234-0.632-0.46-1.269-0.681-1.91c-0.038-0.11-0.076-0.221-0.113-0.332c-0.203-0.597-0.398-1.197-0.588-1.801     c-0.049-0.157-0.098-0.314-0.147-0.472c-0.175-0.567-0.344-1.136-0.509-1.709c-0.057-0.199-0.113-0.398-0.168-0.598     c-0.151-0.542-0.298-1.085-0.44-1.632c-0.06-0.233-0.119-0.468-0.177-0.702c-0.13-0.521-0.257-1.043-0.379-1.569     c-0.061-0.266-0.12-0.533-0.179-0.8c-0.111-0.502-0.221-1.005-0.324-1.512c-0.06-0.293-0.116-0.588-0.173-0.882     c-0.095-0.489-0.188-0.978-0.276-1.47c-0.056-0.316-0.107-0.634-0.16-0.951c-0.08-0.478-0.159-0.957-0.232-1.439     c-0.05-0.334-0.095-0.671-0.142-1.007c-0.066-0.471-0.132-0.942-0.192-1.416c-0.044-0.353-0.082-0.709-0.122-1.064     c-0.052-0.463-0.107-0.924-0.153-1.39c-0.036-0.368-0.066-0.74-0.098-1.11c-0.04-0.46-0.083-0.92-0.117-1.383     c-0.027-0.373-0.047-0.751-0.071-1.126c-0.029-0.464-0.061-0.927-0.084-1.394c-0.018-0.374-0.028-0.751-0.042-1.126     c-0.018-0.475-0.04-0.948-0.051-1.426c-0.007-0.3-0.006-0.604-0.011-0.905c-0.008-0.546-0.019-1.091-0.019-1.641h-0.001     c0-0.001,0-0.001,0-0.002c0-0.012-0.002-0.024-0.002-0.036V91.339c0.247,0.128,0.491,0.254,0.749,0.387     c0.029,0.015,0.055,0.029,0.084,0.044c0.826,0.429,0.826,0.429,1.658,0.859c1.617,0.837,2.985,1.537,4.233,2.165     c1.624,0.818,3.03,1.506,4.481,2.189c3.457,1.625,6.744,2.967,9.919,4.013c3.718,1.226,7.282,2.029,10.784,2.403     c1.065,0.114,2.126,0.198,3.182,0.229c0.048,0.001,0.097,0.007,0.145,0.008c4.521,0.116,8.982-0.534,13.587-2.019     c7.239-2.338,17.052-11.197,28.232-23.837c2.509-2.837,4.712-5.352,6.651-7.625c0.078-0.092,0.159-0.186,0.236-0.277     c0.318-0.374,0.629-0.742,0.932-1.102c0.14-0.166,0.275-0.329,0.412-0.492c0.884-1.058,1.702-2.06,2.451-3.006     c0.169-0.213,0.337-0.426,0.499-0.634c0.19-0.243,0.376-0.484,0.556-0.72c0.172-0.225,0.336-0.445,0.5-0.663     c0.125-0.167,0.261-0.343,0.382-0.506c17.477,6.488,35.325,15.891,41.004,21.254c6.55,6.186,21.478,66.112,40.763,162.271     c2.683,13.377,5.474,27.536,8.442,42.794c2.66,13.676,24.185,126.813,31.847,165.56L433.6,460.727z"/>
			<circle cx="290.132" cy="171.671" r="8.533"/>
			<circle cx="221.865" cy="171.671" r="8.533"/>
			<circle cx="290.132" cy="222.871" r="8.533"/>
			<circle cx="221.865" cy="222.871" r="8.533"/>
			<circle cx="290.132" cy="274.071" r="8.533"/>
			<circle cx="221.865" cy="274.071" r="8.533"/>
			<circle cx="290.132" cy="325.271" r="8.533"/>
			<circle cx="221.865" cy="325.271" r="8.533"/>
			<circle cx="290.132" cy="376.471" r="8.533"/>
			<circle cx="221.865" cy="376.471" r="8.533"/>
		</g>
	</g>
</g>
<g>
</g>
<g>
</g>
<g>
</g>
<g>
</g>
<g>
</g>
<g>
</g>
<g>
</g>
<g>
</g>
<g>
</g>
<g>
</g>
<g>
</g>
<g>
</g>
<g>
</g>
<g>
</g>
<g>
</g>
</svg>
