<?xml version="1.0" encoding="iso-8859-1"?>
<!-- Generator: Adobe Illustrator 19.0.0, SVG Export Plug-In . SVG Version: 6.00 Build 0)  -->
<svg xmlns="http://www.w3.org/2000/svg" xmlns:xlink="http://www.w3.org/1999/xlink" version="1.1" id="Layer_1" x="0px" y="0px" viewBox="0 0 512.004 512.004" style="enable-background:new 0 0 512.004 512.004;" xml:space="preserve">
<g transform="translate(0 -1)">
	<g>
		<g>
			<path d="M494.761,460.087c-5.149-25.065-30.659-159.182-33.594-174.272c-2.973-15.289-5.771-29.48-8.461-42.891     C431.419,136.777,417.722,81.795,406.928,71.6c-8.284-7.823-30.987-19.546-51.973-26.694l-32.56-40.7     c-0.005-0.007-0.012-0.013-0.017-0.019c-0.174-0.219-0.365-0.423-0.56-0.624c-0.038-0.039-0.075-0.081-0.114-0.119     c-0.207-0.206-0.427-0.399-0.656-0.583c-0.019-0.015-0.037-0.029-0.056-0.044c-0.894-0.708-1.944-1.24-3.125-1.536     c-0.122-0.031-0.245-0.058-0.368-0.084c-0.203-0.041-0.404-0.085-0.614-0.112c-0.344-0.047-0.69-0.072-1.037-0.076     C315.809,1.008,315.772,1,315.732,1H196.265c-0.04,0-0.077,0.008-0.117,0.009c-0.347,0.005-0.693,0.03-1.037,0.076     c-0.21,0.027-0.411,0.071-0.614,0.112c-0.123,0.026-0.246,0.052-0.368,0.084c-1.181,0.297-2.23,0.828-3.125,1.536     c-0.019,0.015-0.037,0.029-0.056,0.044c-0.229,0.185-0.448,0.377-0.656,0.583c-0.039,0.038-0.075,0.08-0.114,0.119     c-0.195,0.202-0.386,0.405-0.56,0.624c-0.006,0.007-0.012,0.013-0.017,0.019L157.04,44.909     c-20.994,7.149-43.693,18.871-51.967,26.695c-10.79,10.191-24.487,65.173-45.775,171.32c-2.69,13.411-5.487,27.603-8.461,42.891     c-2.935,15.09-28.445,149.207-33.594,174.272c-0.989,4.816,2.285,9.469,7.152,10.165l59.733,8.533     c4.545,0.649,8.789-2.414,9.604-6.932c0.081-0.451,0.081-0.451,0.469-2.597c0.532-2.938,0.532-2.938,1.331-7.345     c1.435-7.911,3.039-16.727,4.773-26.221c4.954-27.124,9.956-54.249,14.691-79.562c0.615-3.285,0.615-3.285,1.23-6.568     c11.36-60.568,19.283-100.37,21.467-106.927c1.887-5.656,5.253-14.458,9.691-25.473c0.557-1.382,0.557-1.382,1.116-2.761     c1.167-2.877,2.368-5.814,3.591-8.778c5.383,21.219,9.005,45.225,9.794,67.774l-9.708,50.258     c-14.617,65.506-24.176,124.146-24.176,163.752c0,3.232,1.826,6.187,4.717,7.632c16.656,8.328,37.552,13.277,62.7,15.792     c17.894,1.789,32.573,2.176,60.582,2.176s42.688-0.386,60.582-2.176c25.148-2.515,46.045-7.464,62.701-15.792     c2.891-1.445,4.717-4.4,4.717-7.632c0-39.616-9.572-98.32-24.235-163.993l-9.658-50.016c0.788-22.54,4.412-46.543,9.797-67.773     c1.22,2.958,2.42,5.889,3.584,8.76c0.562,1.388,0.562,1.388,1.123,2.779c4.438,11.014,7.802,19.815,9.688,25.474     c2.187,6.557,10.111,46.352,21.47,106.905c0.617,3.293,0.617,3.293,1.234,6.589c4.735,25.313,9.737,52.437,14.692,79.562     c1.734,9.494,3.338,18.31,4.773,26.221c0.799,4.407,0.799,4.407,1.331,7.345c0.388,2.146,0.388,2.146,0.469,2.597     c0.815,4.518,5.059,7.581,9.604,6.932l59.733-8.533C492.476,469.557,495.75,464.903,494.761,460.087z M339.119,53.84     c-2.641,3.591-6.37,8.167-10.32,12.634c-4.344,4.912-8.594,9.255-12.185,12.552c-3.819,3.506-6.891,5.828-8.51,6.351     c-2.667,0.861-5.313,1.237-8.101,1.142c-4.92-0.168-10.283-1.819-16.991-4.976c-1.031-0.485-2.059-0.983-3.186-1.544     c-1.438-0.716-3.05-1.54-5.111-2.606c-0.687-0.356-0.687-0.356-1.377-0.714c-0.564-0.292-1.094-0.566-1.611-0.833     c-0.207-0.107-0.409-0.211-0.609-0.314c-0.136-0.07-0.268-0.138-0.401-0.206c-0.297-0.153-0.606-0.312-0.888-0.457l22.227-25.368     l23.377-26.677l24.222,30.278C339.485,53.341,339.306,53.587,339.119,53.84z M228.988,81.542     c-7.886,3.71-13.916,5.351-19.547,4.935c-1.876-0.139-3.708-0.506-5.55-1.1c-1.032-0.333-2.662-1.407-4.693-3.042     c-4.143-3.339-9.983-9.057-16-15.86c-3.951-4.467-7.679-9.043-10.32-12.634c-0.071-0.097-0.136-0.188-0.206-0.282     c-0.114-0.156-0.222-0.306-0.33-0.456l24.221-30.276l23.377,26.677l22.227,25.368c-0.213,0.109-0.448,0.231-0.67,0.344     c-0.274,0.141-0.555,0.285-0.842,0.433c-0.061,0.031-0.121,0.062-0.183,0.094c-0.579,0.298-1.176,0.607-1.815,0.938     c-0.765,0.396-0.765,0.396-1.524,0.79c-2.678,1.385-4.618,2.37-6.399,3.237C230.142,80.994,229.566,81.27,228.988,81.542z      M296.91,18.067l-17.666,20.161l-23.245,26.526l-23.245-26.526l-17.666-20.161H296.91z M433.601,460.727     c-0.095-0.522-0.205-1.132-0.338-1.862c-1.436-7.918-3.042-16.74-4.777-26.241c-4.958-27.146-9.965-54.293-14.705-79.633     c-0.618-3.3-0.618-3.3-1.236-6.598c-11.748-62.631-19.471-101.414-22.053-109.155c-2.025-6.078-5.488-15.136-10.049-26.456     c-0.568-1.409-0.568-1.409-1.138-2.815c-2.82-6.954-5.84-14.242-8.859-21.425c-0.969-2.305-1.871-4.439-2.694-6.378     c0.761-2.025,1.541-4.027,2.363-5.978c2.741-6.507,5.671-12.299,8.587-17.291c1.712-2.931,3.004-4.899,3.672-5.82     c2.764-3.817,1.911-9.152-1.907-11.916c-3.817-2.764-9.152-1.911-11.916,1.907c-3.661,5.056-8.938,14.089-14.164,26.496     c-1.357,3.223-2.642,6.538-3.844,9.94c-0.005,0.015-0.013,0.028-0.019,0.043c-9.669,27.403-16.467,63.281-17.506,96.258     l0.151,1.887l9.89,51.2c13.778,61.723,22.989,117.161,23.815,155.102c-13.806,5.959-31.201,9.776-51.989,11.855     c-17.154,1.715-31.427,2.091-58.884,2.091s-41.731-0.376-58.884-2.091c-20.788-2.079-38.182-5.896-51.989-11.855     c0.824-37.927,10.023-93.301,23.756-154.863l9.94-51.44l0.151-1.887c-1.04-32.996-7.837-68.881-17.507-96.261     c-0.003-0.007-0.006-0.013-0.009-0.02c-1.204-3.41-2.491-6.731-3.852-9.96c-5.226-12.407-10.502-21.44-14.164-26.496     c-2.764-3.817-8.099-4.671-11.916-1.907c-3.817,2.764-4.671,8.099-1.907,11.916c0.667,0.921,1.96,2.889,3.672,5.82     c2.916,4.992,5.846,10.784,8.587,17.291c0.822,1.951,1.602,3.952,2.362,5.977c-0.824,1.942-1.726,4.079-2.696,6.387     c-3.02,7.187-6.04,14.478-8.861,21.435c-0.566,1.396-0.566,1.396-1.13,2.797c-4.56,11.318-8.024,20.375-10.052,26.454     c-2.579,7.745-10.302,46.538-22.05,109.178c-0.616,3.286-0.616,3.286-1.232,6.576c-4.739,25.34-9.745,52.487-14.704,79.633     c-1.735,9.501-3.341,18.323-4.777,26.241c-0.132,0.731-0.243,1.34-0.338,1.862l-42.66-6.094     c7.662-38.746,29.187-151.883,31.847-165.56c2.967-15.258,5.759-29.417,8.441-42.794c19.285-96.16,34.213-156.085,40.763-162.271     c5.672-5.363,23.517-14.765,40.999-21.253c0.139,0.189,0.296,0.392,0.441,0.585c0.137,0.183,0.273,0.365,0.416,0.552     c0.197,0.258,0.4,0.521,0.608,0.788c0.137,0.175,0.278,0.354,0.419,0.533c0.781,0.988,1.636,2.035,2.564,3.145     c0.103,0.124,0.206,0.247,0.312,0.372c0.329,0.391,0.666,0.791,1.013,1.198c0.022,0.026,0.045,0.053,0.068,0.079     c1.969,2.312,4.214,4.875,6.777,7.773c7.017,7.934,13.497,14.376,19.14,18.653c3.346,2.537,6.398,4.313,9.091,5.183     c2.337,0.754,4.637,1.29,6.927,1.623c5.228,0.76,10.403,0.447,15.838-0.837c2.719-0.642,5.508-1.541,8.394-2.654     c2.092-0.807,4.233-1.72,6.449-2.762c0.628-0.296,1.248-0.592,1.88-0.9c1.953-0.948,4.032-2.003,6.843-3.458     c0.832-0.431,0.832-0.431,1.658-0.859c0.638-0.331,1.234-0.639,1.808-0.935c3.235-1.667,5.516-2.811,7.561-3.771     c2.083,0.979,4.409,2.147,7.757,3.874c0.131,0.068,0.257,0.133,0.392,0.202c0.084,0.044,0.176,0.091,0.262,0.135     c0.311,0.161,0.626,0.324,0.955,0.495c0.826,0.429,0.826,0.429,1.658,0.859c2.07,1.072,3.738,1.923,5.258,2.678     c1.207,0.601,2.319,1.14,3.457,1.677c2.639,1.241,5.18,2.318,7.646,3.224c3.688,1.355,7.21,2.311,10.655,2.869     c2.696,0.437,5.345,0.636,7.983,0.554c3.756-0.117,7.495-0.775,11.33-2.014c4.14-1.337,9.126-4.816,14.726-9.909     c4.19-3.809,8.721-8.518,13.506-13.927c2.571-2.906,4.822-5.476,6.794-7.792c0.015-0.018,0.031-0.036,0.046-0.053     c0.356-0.418,0.701-0.827,1.038-1.228c0.087-0.104,0.173-0.206,0.259-0.309c0.951-1.136,1.824-2.207,2.621-3.215     c0.13-0.164,0.26-0.329,0.386-0.49c0.214-0.274,0.423-0.544,0.625-0.809c0.137-0.179,0.267-0.354,0.399-0.529     c0.149-0.199,0.31-0.407,0.453-0.601c17.477,6.488,35.325,15.891,41.005,21.254c6.55,6.186,21.478,66.112,40.763,162.271     c2.683,13.377,5.474,27.536,8.442,42.794c2.66,13.676,24.185,126.813,31.847,165.56L433.601,460.727z"/>
			<circle cx="255.999" cy="137.538" r="8.533"/>
			<circle cx="255.999" cy="188.738" r="8.533"/>
			<circle cx="255.999" cy="239.938" r="8.533"/>
			<circle cx="255.999" cy="291.138" r="8.533"/>
			<circle cx="255.999" cy="342.338" r="8.533"/>
			<circle cx="255.999" cy="393.538" r="8.533"/>
			<circle cx="255.999" cy="444.738" r="8.533"/>
		</g>
	</g>
</g>
<g>
</g>
<g>
</g>
<g>
</g>
<g>
</g>
<g>
</g>
<g>
</g>
<g>
</g>
<g>
</g>
<g>
</g>
<g>
</g>
<g>
</g>
<g>
</g>
<g>
</g>
<g>
</g>
<g>
</g>
</svg>
