<?xml version="1.0" encoding="iso-8859-1"?>
<!-- Generator: Adobe Illustrator 19.0.0, SVG Export Plug-In . SVG Version: 6.00 Build 0)  -->
<svg xmlns="http://www.w3.org/2000/svg" xmlns:xlink="http://www.w3.org/1999/xlink" version="1.1" id="Layer_1" x="0px" y="0px" viewBox="0 0 512 512" style="enable-background:new 0 0 512 512;" xml:space="preserve">
<g transform="translate(-1 -1)">
	<g>
		<g>
			<path d="M143.297,210.437c0.887,2.662,2.967,4.756,5.623,5.661c30.55,10.417,82.463,14.647,108.081,1.895     c25.618,12.752,77.531,8.522,108.081-1.895c2.655-0.905,4.735-3,5.623-5.661l9.117-27.352     c11.998-36.006-14.153-73.742-51.939-74.286c-0.451-0.008-0.848-0.01-1.63-0.01c-13.034,0-24.744,2.182-35.176,6.127     c0.814-1.419,1.623-2.837,2.424-4.258c9.109-16.168,16.61-31.231,22.424-45.567c8.377-20.656,12.936-39.055,12.936-55.108     c0-4.961-4.022-8.982-8.982-8.982s-8.982,4.022-8.982,8.982c0,13.369-4.036,29.659-11.619,48.356     c-5.493,13.543-12.666,27.949-21.428,43.5c-4.833,8.578-9.867,17.024-15.923,26.844c-0.489,0.794-2.568,4.135-4.924,7.931     c-2.357-3.795-4.435-7.137-4.924-7.931c-6.057-9.82-11.09-18.265-15.923-26.844c-8.762-15.551-15.935-29.957-21.428-43.5     c-7.583-18.697-11.619-34.987-11.619-48.356c0-4.961-4.022-8.982-8.982-8.982s-8.982,4.022-8.982,8.982     c0,16.053,4.559,34.452,12.936,55.108c5.814,14.336,13.315,29.399,22.424,45.567c0.801,1.422,1.61,2.839,2.424,4.258     c-10.432-3.944-22.142-6.127-35.176-6.127c-0.781,0-1.179,0.002-1.663,0.01c-37.752,0.544-63.904,38.279-51.905,74.285     L143.297,210.437z M257,162.684c9.922,0.001,17.962,8.043,17.962,17.965c0,9.922-8.04,17.963-17.962,17.965     c-9.922-0.001-17.962-8.043-17.962-17.965C239.038,170.727,247.078,162.686,257,162.684z M327.589,126.762     c25.565,0.368,43.377,26.071,35.188,50.643l-7.672,23.016c-20.624,6.104-51.665,9.268-73.312,6.231     c0.082-0.078,0.159-0.162,0.24-0.241c0.257-0.25,0.51-0.503,0.759-0.76c0.157-0.162,0.313-0.325,0.468-0.49     c0.247-0.265,0.49-0.534,0.729-0.806c0.146-0.167,0.292-0.334,0.436-0.503c0.237-0.279,0.468-0.563,0.696-0.85     c0.136-0.171,0.273-0.342,0.406-0.516c0.225-0.294,0.444-0.592,0.66-0.893c0.126-0.175,0.252-0.35,0.375-0.528     c0.213-0.308,0.419-0.621,0.623-0.936c0.115-0.177,0.23-0.354,0.342-0.534c0.202-0.325,0.396-0.654,0.588-0.986     c0.103-0.178,0.207-0.354,0.307-0.534c0.19-0.341,0.371-0.688,0.55-1.036c0.091-0.177,0.184-0.352,0.271-0.53     c0.177-0.359,0.344-0.722,0.509-1.087c0.079-0.175,0.161-0.348,0.237-0.524c0.163-0.378,0.316-0.761,0.467-1.146     c0.066-0.169,0.136-0.336,0.2-0.507c0.15-0.4,0.288-0.806,0.424-1.213c0.054-0.16,0.111-0.318,0.162-0.48     c0.136-0.427,0.259-0.86,0.379-1.294c0.04-0.145,0.085-0.289,0.124-0.435c0.122-0.462,0.23-0.93,0.333-1.4     c0.027-0.122,0.059-0.243,0.084-0.365c0.108-0.516,0.202-1.037,0.287-1.561c0.013-0.079,0.03-0.156,0.042-0.235     c0.095-0.603,0.175-1.211,0.239-1.823c0-0.001,0-0.003,0-0.004c0.13-1.244,0.2-2.507,0.2-3.786c0-0.821-0.037-1.633-0.092-2.44     c-0.011-0.161-0.024-0.321-0.037-0.481c-0.061-0.753-0.14-1.501-0.246-2.24c-0.007-0.048-0.011-0.096-0.018-0.144     c-0.118-0.795-0.265-1.579-0.434-2.356c-0.03-0.14-0.064-0.278-0.096-0.418c-0.155-0.676-0.329-1.345-0.522-2.006     c-0.031-0.106-0.058-0.213-0.09-0.318c-0.227-0.751-0.477-1.491-0.751-2.22c-0.038-0.102-0.08-0.201-0.119-0.302     c-0.246-0.637-0.51-1.264-0.79-1.883c-0.058-0.129-0.115-0.258-0.174-0.386c-0.328-0.702-0.674-1.393-1.045-2.069     c-0.022-0.041-0.047-0.08-0.069-0.12c-0.348-0.628-0.717-1.241-1.1-1.845c-0.083-0.131-0.166-0.261-0.251-0.391     c-0.832-1.274-1.742-2.491-2.725-3.646c-0.102-0.12-0.206-0.239-0.31-0.358c-0.458-0.525-0.929-1.038-1.417-1.535     c-0.044-0.045-0.086-0.092-0.13-0.136c-0.534-0.539-1.087-1.057-1.654-1.561c-0.112-0.099-0.226-0.195-0.339-0.293     c-0.492-0.426-0.994-0.839-1.508-1.239c-0.1-0.078-0.198-0.158-0.298-0.234c-0.6-0.456-1.215-0.893-1.843-1.312     c-0.105-0.07-0.213-0.135-0.318-0.204c-0.542-0.352-1.095-0.69-1.656-1.013c-0.14-0.081-0.28-0.163-0.421-0.242     c-0.66-0.368-1.331-0.72-2.016-1.047c-0.016-0.007-0.03-0.016-0.046-0.024c1.786-1.869,3.767-3.711,5.946-5.491     c12.192-9.957,27.928-15.939,47.893-15.939C326.98,126.755,327.25,126.756,327.589,126.762z M186.377,126.762     c0.373-0.007,0.643-0.008,1.371-0.008c19.965,0,35.701,5.982,47.893,15.939c2.179,1.78,4.16,3.622,5.946,5.491     c-0.016,0.007-0.03,0.016-0.046,0.024c-0.685,0.327-1.356,0.679-2.016,1.047c-0.142,0.079-0.281,0.161-0.421,0.242     c-0.562,0.323-1.114,0.661-1.656,1.013c-0.106,0.069-0.214,0.134-0.318,0.204c-0.629,0.418-1.243,0.856-1.843,1.312     c-0.101,0.077-0.198,0.157-0.298,0.234c-0.514,0.399-1.017,0.813-1.508,1.239c-0.113,0.098-0.227,0.194-0.339,0.293     c-0.567,0.504-1.12,1.023-1.654,1.561c-0.044,0.045-0.086,0.091-0.13,0.136c-0.488,0.497-0.958,1.01-1.417,1.535     c-0.104,0.119-0.208,0.237-0.31,0.358c-0.983,1.155-1.893,2.372-2.725,3.646c-0.085,0.13-0.168,0.26-0.251,0.391     c-0.383,0.604-0.753,1.217-1.1,1.845c-0.022,0.04-0.047,0.08-0.069,0.12c-0.371,0.676-0.717,1.367-1.045,2.069     c-0.06,0.128-0.116,0.257-0.174,0.386c-0.28,0.619-0.544,1.246-0.79,1.883c-0.039,0.101-0.081,0.201-0.119,0.302     c-0.274,0.729-0.524,1.469-0.751,2.22c-0.032,0.105-0.059,0.213-0.09,0.318c-0.193,0.661-0.366,1.33-0.522,2.006     c-0.032,0.139-0.066,0.278-0.096,0.418c-0.169,0.777-0.316,1.561-0.434,2.356c-0.007,0.048-0.011,0.096-0.018,0.144     c-0.106,0.739-0.186,1.487-0.246,2.24c-0.013,0.16-0.026,0.32-0.037,0.481c-0.054,0.807-0.092,1.619-0.092,2.44     c0,1.279,0.069,2.541,0.2,3.786c0,0.001,0,0.003,0,0.004c0.064,0.612,0.144,1.22,0.239,1.823     c0.012,0.079,0.029,0.156,0.042,0.235c0.086,0.524,0.179,1.045,0.287,1.561c0.026,0.123,0.057,0.243,0.084,0.365     c0.104,0.469,0.211,0.937,0.333,1.4c0.038,0.146,0.083,0.29,0.124,0.435c0.12,0.434,0.243,0.867,0.379,1.294     c0.051,0.161,0.109,0.32,0.162,0.48c0.136,0.407,0.274,0.813,0.424,1.213c0.064,0.17,0.133,0.337,0.2,0.507     c0.151,0.385,0.303,0.768,0.467,1.146c0.076,0.176,0.158,0.349,0.237,0.524c0.165,0.365,0.332,0.729,0.509,1.087     c0.088,0.178,0.181,0.354,0.271,0.53c0.179,0.348,0.36,0.695,0.55,1.036c0.1,0.18,0.204,0.356,0.307,0.534     c0.192,0.331,0.386,0.661,0.588,0.986c0.112,0.18,0.227,0.356,0.342,0.534c0.204,0.315,0.41,0.628,0.623,0.936     c0.123,0.178,0.249,0.353,0.375,0.528c0.216,0.301,0.435,0.599,0.66,0.893c0.133,0.174,0.269,0.345,0.406,0.516     c0.228,0.287,0.459,0.57,0.696,0.85c0.143,0.169,0.289,0.336,0.436,0.503c0.239,0.272,0.482,0.541,0.729,0.806     c0.154,0.165,0.31,0.328,0.468,0.49c0.249,0.257,0.502,0.511,0.759,0.76c0.081,0.079,0.158,0.162,0.24,0.241     c-21.647,3.037-52.688-0.127-73.312-6.231l-7.672-23.017C143.034,152.833,160.847,127.13,186.377,126.762z"/>
			<path d="M370.286,405.914c-0.446,0.188-1.354,0.56-2.686,1.09c-2.251,0.895-4.854,1.896-7.771,2.976     c-8.357,3.094-17.531,6.19-27.22,9.079c-18.193,5.424-36.014,9.463-52.6,11.548c-8.128,1.022-15.822,1.552-23.009,1.552     c-7.188,0-14.881-0.53-23.009-1.552c-16.586-2.085-34.407-6.124-52.6-11.548c-9.689-2.889-18.863-5.985-27.22-9.079     c-2.917-1.08-5.52-2.08-7.771-2.976c-1.333-0.53-2.241-0.902-2.686-1.09c-5.921-2.493-12.468,1.854-12.468,8.279v42.164     c0,3.948,2.578,7.434,6.354,8.589l8.982,2.749c24.587,7.336,62.361,23.076,106.509,44.411c2.469,1.193,5.348,1.193,7.817,0     c44.148-21.335,81.923-37.075,106.449-44.392l9.043-2.767c3.776-1.155,6.354-4.641,6.354-8.589v-42.164     C382.755,407.769,376.207,403.422,370.286,405.914z M364.79,449.712l-2.628,0.804c-24.818,7.404-61.897,22.769-105.161,43.532     c-43.265-20.763-80.345-36.128-105.221-43.55l-2.568-0.786v-22.414c8.357,3.065,17.456,6.117,27.048,8.977     c19.07,5.685,37.82,9.935,55.492,12.156c8.838,1.111,17.272,1.692,25.25,1.692s16.412-0.581,25.25-1.692     c17.672-2.221,36.422-6.471,55.492-12.156c9.592-2.86,18.69-5.913,27.048-8.977V449.712z"/>
		</g>
	</g>
</g>
<g>
</g>
<g>
</g>
<g>
</g>
<g>
</g>
<g>
</g>
<g>
</g>
<g>
</g>
<g>
</g>
<g>
</g>
<g>
</g>
<g>
</g>
<g>
</g>
<g>
</g>
<g>
</g>
<g>
</g>
</svg>
