<?xml version="1.0" encoding="iso-8859-1"?>
<!-- Generator: Adobe Illustrator 19.0.0, SVG Export Plug-In . SVG Version: 6.00 Build 0)  -->
<svg xmlns="http://www.w3.org/2000/svg" xmlns:xlink="http://www.w3.org/1999/xlink" version="1.1" id="Layer_1" x="0px" y="0px" viewBox="0 0 512 512" style="enable-background:new 0 0 512 512;" xml:space="preserve">
<g transform="translate(0 -1)">
	<g>
		<path d="M494.759,460.083c-5.149-25.065-30.659-159.182-33.594-174.272c-2.973-15.289-5.771-29.48-8.461-42.891    C431.417,136.772,417.72,81.79,406.926,71.596c-8.169-7.709-33.084-18.244-60.433-26.738l-23.934-31.912    c-0.016-0.021-0.035-0.037-0.051-0.058c-0.228-0.299-0.474-0.586-0.743-0.856c-0.006-0.006-0.013-0.012-0.019-0.019    c-0.061-0.062-0.124-0.12-0.187-0.179C311.932,2.385,297.829,1,255.997,1c-41.831,0-55.935,1.385-65.561,10.835    c-0.063,0.059-0.125,0.117-0.187,0.179c-0.006,0.006-0.013,0.012-0.019,0.019c-0.27,0.27-0.515,0.557-0.743,0.856    c-0.016,0.021-0.035,0.037-0.051,0.058L165.501,44.86c-27.354,8.493-52.267,19.027-60.428,26.737    C94.28,81.79,80.583,136.772,59.296,242.92c-2.69,13.411-5.487,27.603-8.461,42.891C47.9,300.901,22.39,435.018,17.241,460.083    c-0.989,4.816,2.285,9.469,7.152,10.165l59.733,8.533c4.545,0.649,8.789-2.414,9.604-6.932c0.081-0.451,0.081-0.451,0.469-2.597    c0.532-2.938,0.532-2.938,1.331-7.345c1.435-7.911,3.039-16.727,4.773-26.221c4.954-27.124,9.956-54.249,14.691-79.562    c0.615-3.285,0.615-3.285,1.23-6.568c11.36-60.568,19.283-100.37,21.467-106.927c1.887-5.656,5.253-14.458,9.691-25.473    c0.557-1.382,0.557-1.382,1.116-2.761c1.167-2.877,2.368-5.814,3.591-8.778c5.383,21.219,9.005,45.225,9.794,67.774l-9.708,50.258    c-14.574,65.313-24.117,123.795-24.174,163.396c-0.153,2.962,1.173,6.002,4.3,7.76c0.094,0.054,0.188,0.107,0.285,0.158    c0.044,0.023,0.083,0.048,0.128,0.071c16.656,8.328,37.552,13.277,62.7,15.792c17.894,1.789,32.573,2.176,60.582,2.176    s42.688-0.386,60.582-2.176c25.148-2.515,46.045-7.464,62.701-15.792c0.033-0.016,0.061-0.035,0.093-0.052    c0.128-0.066,0.253-0.136,0.377-0.209c0.157-0.09,0.311-0.182,0.459-0.279c0.018-0.012,0.036-0.024,0.053-0.036    c2.669-1.762,3.831-4.536,3.736-7.264c-0.033-39.613-9.595-98.225-24.233-163.786l-9.658-50.015    c0.794-22.551,4.419-46.557,9.802-67.774c1.22,2.959,2.42,5.891,3.584,8.763c0.561,1.386,0.561,1.386,1.121,2.774    c4.436,11.014,7.8,19.815,9.686,25.475c2.187,6.557,10.111,46.352,21.47,106.905c0.617,3.293,0.617,3.293,1.234,6.589    c4.735,25.313,9.737,52.437,14.692,79.562c1.734,9.494,3.338,18.31,4.773,26.221c0.799,4.407,0.799,4.407,1.331,7.345    c0.388,2.146,0.388,2.146,0.469,2.597c0.815,4.518,5.059,7.581,9.604,6.932l59.733-8.533    C492.474,469.552,495.748,464.899,494.759,460.083z M298.664,252.001l8.533,8.533v30.599h-17.067v-30.599L298.664,252.001z     M297.261,69.335c-0.346,1.405-0.75,2.915-1.209,4.52c-0.009,0.032-0.018,0.064-0.027,0.096    c-4.971,17.341-16.194,45.466-26.958,67.843c-0.002,0.004-0.004,0.008-0.006,0.012c-1.02,2.121-2.036,4.19-3.042,6.193    c-0.009,0.017-0.017,0.035-0.026,0.052c-0.995,1.98-1.98,3.895-2.95,5.733c-0.022,0.042-0.044,0.084-0.066,0.125    c-0.958,1.813-1.901,3.548-2.824,5.195c-0.029,0.052-0.059,0.105-0.088,0.158c-0.913,1.625-1.805,3.16-2.672,4.595    c-0.036,0.06-0.073,0.121-0.109,0.181c-0.431,0.712-0.857,1.4-1.275,2.06c-0.004,0.006-0.007,0.011-0.011,0.017    c-0.004-0.006-0.007-0.011-0.011-0.017c-0.418-0.66-0.844-1.348-1.275-2.06c-0.036-0.06-0.073-0.121-0.109-0.181    c-0.868-1.437-1.76-2.972-2.674-4.599c-0.028-0.049-0.056-0.1-0.084-0.149c-0.924-1.648-1.867-3.385-2.827-5.2    c-0.022-0.042-0.044-0.084-0.066-0.125c-0.968-1.835-1.952-3.746-2.945-5.723c-0.012-0.024-0.024-0.049-0.037-0.073    c-1.004-2-2.018-4.065-3.037-6.181c-0.002-0.004-0.004-0.008-0.006-0.012c-10.765-22.38-21.99-50.509-26.96-67.849    c-0.008-0.027-0.015-0.054-0.023-0.081c-0.46-1.609-0.866-3.124-1.213-4.533c-0.005-0.021-0.01-0.042-0.015-0.064h82.561    C297.272,69.29,297.267,69.312,297.261,69.335z M191.638,38.455l4.647,23.237c0.017,0.378,0.046,0.777,0.082,1.189    c0.003,0.032,0.007,0.066,0.01,0.097c0.032,0.353,0.07,0.718,0.116,1.095c0.008,0.063,0.017,0.13,0.025,0.193    c0.044,0.353,0.093,0.713,0.148,1.085c0.012,0.083,0.026,0.169,0.039,0.252c0.056,0.362,0.115,0.731,0.181,1.111    c0.016,0.094,0.034,0.191,0.051,0.287c0.067,0.378,0.138,0.763,0.215,1.157c0.02,0.104,0.041,0.209,0.062,0.314    c0.079,0.397,0.161,0.8,0.249,1.212c0.023,0.106,0.046,0.214,0.069,0.321c0.091,0.421,0.187,0.849,0.287,1.285    c0.024,0.106,0.049,0.212,0.074,0.318c0.105,0.452,0.216,0.913,0.331,1.381c0.023,0.092,0.045,0.184,0.068,0.277    c0.121,0.49,0.248,0.989,0.379,1.496c0.021,0.079,0.041,0.158,0.061,0.237c0.142,0.543,0.289,1.096,0.442,1.657    c0.011,0.041,0.022,0.081,0.033,0.122c4.744,17.374,14.603,42.89,24.981,65.237c0.003,0.005,0.005,0.011,0.008,0.017    c0.37,0.796,0.74,1.587,1.11,2.374c0,0.001,0,0.001,0.001,0.002c4.083,8.671,8.219,16.789,12.133,23.673    c0.031,0.054,0.061,0.107,0.092,0.161c0.316,0.556,0.631,1.103,0.945,1.642c0.051,0.088,0.102,0.174,0.152,0.261    c0.293,0.502,0.584,0.997,0.874,1.483c0.064,0.107,0.127,0.213,0.191,0.319c0.276,0.462,0.551,0.917,0.824,1.364    c0.071,0.117,0.142,0.232,0.213,0.348c0.265,0.431,0.528,0.855,0.79,1.271c0.075,0.12,0.15,0.239,0.225,0.357    c0.258,0.407,0.513,0.806,0.768,1.199c0.075,0.116,0.15,0.232,0.225,0.346c0.254,0.389,0.505,0.768,0.755,1.142    c0.073,0.108,0.145,0.218,0.218,0.325c0.251,0.371,0.499,0.732,0.746,1.087c0.07,0.1,0.14,0.203,0.209,0.302    c0.254,0.362,0.505,0.712,0.754,1.057c0.058,0.08,0.117,0.164,0.175,0.243c0.267,0.366,0.531,0.719,0.793,1.063    c0.038,0.05,0.078,0.104,0.116,0.154c0.323,0.422,0.643,0.832,0.958,1.22v25.239c-0.248-0.162-0.495-0.324-0.744-0.491    c-0.522-0.349-1.047-0.706-1.574-1.073c-0.417-0.291-0.836-0.585-1.256-0.886c-0.561-0.403-1.126-0.82-1.691-1.243    c-0.386-0.288-0.771-0.574-1.159-0.871c-0.673-0.517-1.349-1.052-2.026-1.595c-0.28-0.225-0.559-0.441-0.84-0.669    c-0.979-0.799-1.962-1.621-2.946-2.472c-22.656-19.599-37.825-47.484-43.221-78.589l-6.444-34.885l-5.827-31.566L191.638,38.455z     M320.005,120.683c-4.081,23.522-13.711,45.159-27.912,62.783c-0.009,0.01-0.017,0.021-0.026,0.031    c-4.627,5.738-9.736,11.053-15.299,15.866c-0.979,0.847-1.957,1.664-2.932,2.46c-0.289,0.236-0.576,0.458-0.865,0.69    c-0.682,0.547-1.363,1.087-2.042,1.608c-0.351,0.269-0.7,0.527-1.049,0.789c-0.616,0.461-1.23,0.915-1.841,1.353    c-0.366,0.262-0.73,0.519-1.094,0.773c-0.596,0.416-1.189,0.82-1.779,1.213c-0.212,0.141-0.423,0.28-0.634,0.418v-25.241    c0.314-0.388,0.634-0.798,0.958-1.22c0.038-0.05,0.077-0.103,0.116-0.154c0.262-0.344,0.526-0.697,0.793-1.063    c0.058-0.079,0.117-0.163,0.175-0.243c0.249-0.344,0.5-0.695,0.754-1.057c0.069-0.099,0.14-0.201,0.209-0.302    c0.247-0.355,0.495-0.716,0.746-1.087c0.072-0.107,0.145-0.217,0.218-0.325c0.25-0.373,0.502-0.753,0.755-1.142    c0.075-0.114,0.15-0.231,0.225-0.346c0.254-0.393,0.51-0.792,0.768-1.199c0.075-0.118,0.15-0.238,0.225-0.357    c0.262-0.417,0.525-0.84,0.79-1.271c0.071-0.116,0.142-0.231,0.213-0.348c0.273-0.447,0.548-0.902,0.824-1.364    c0.064-0.106,0.127-0.212,0.191-0.319c0.29-0.487,0.581-0.982,0.874-1.483c0.051-0.087,0.102-0.173,0.152-0.261    c0.313-0.539,0.628-1.087,0.945-1.642c0.031-0.054,0.061-0.107,0.092-0.161c3.914-6.885,8.05-15.002,12.133-23.673    c0,0,0-0.001,0.001-0.002c0.371-0.787,0.741-1.578,1.11-2.374c0.003-0.005,0.005-0.011,0.008-0.017    c10.378-22.347,20.237-47.863,24.981-65.237c0.011-0.041,0.022-0.081,0.033-0.122c0.153-0.561,0.3-1.113,0.442-1.657    c0.021-0.08,0.041-0.158,0.061-0.237c0.131-0.506,0.258-1.005,0.379-1.496c0.023-0.093,0.045-0.185,0.068-0.277    c0.115-0.468,0.225-0.928,0.331-1.381c0.025-0.107,0.049-0.212,0.074-0.318c0.1-0.436,0.196-0.864,0.287-1.285    c0.023-0.107,0.047-0.215,0.069-0.321c0.088-0.412,0.171-0.816,0.249-1.212c0.021-0.105,0.042-0.21,0.062-0.314    c0.077-0.394,0.148-0.779,0.215-1.157c0.017-0.096,0.035-0.193,0.051-0.287c0.066-0.38,0.125-0.749,0.181-1.111    c0.013-0.084,0.027-0.17,0.039-0.252c0.055-0.372,0.104-0.733,0.148-1.085c0.008-0.064,0.018-0.13,0.025-0.193    c0.046-0.377,0.084-0.742,0.116-1.095c0.003-0.032,0.007-0.066,0.01-0.097c0.036-0.412,0.065-0.811,0.082-1.189l4.647-23.237    l11.905,15.873L320.005,120.683z M255.997,18.067c28.505,0,43.332,0.976,50.256,3.873l-6.052,30.26h-88.409l-6.052-30.26    C212.665,19.042,227.493,18.067,255.997,18.067z M168.883,327.125l9.94-51.44l0.151-1.887    c-1.04-32.996-7.837-68.881-17.507-96.261c-0.001-0.003-0.002-0.005-0.003-0.007c-1.205-3.414-2.494-6.74-3.856-9.973    c-5.226-12.407-10.502-21.44-14.164-26.496c-2.764-3.817-8.099-4.671-11.916-1.907c-3.817,2.764-4.671,8.099-1.907,11.916    c0.667,0.921,1.96,2.889,3.672,5.82c2.916,4.992,5.846,10.784,8.587,17.291c0.821,1.95,1.602,3.951,2.362,5.976    c-0.824,1.942-1.727,4.079-2.697,6.388c-3.02,7.187-6.04,14.478-8.861,21.435c-0.566,1.396-0.566,1.396-1.13,2.797    c-4.56,11.318-8.024,20.375-10.052,26.454c-2.579,7.745-10.302,46.538-22.05,109.178c-0.616,3.286-0.616,3.286-1.232,6.576    c-4.739,25.34-9.745,52.487-14.704,79.633c-1.735,9.501-3.341,18.323-4.777,26.241c-0.132,0.731-0.243,1.34-0.338,1.862    l-42.66-6.094c7.662-38.746,29.187-151.883,31.847-165.56c2.967-15.258,5.759-29.417,8.441-42.794    c19.285-96.16,34.213-156.085,40.763-162.271c5.067-4.787,25.003-13.427,47.234-20.751l4.703,25.462l6.473,35.066    c6.035,34.795,23.143,66.238,48.853,88.488c1.796,1.552,3.595,3.035,5.392,4.446c6.085,4.78,12.156,8.726,18.015,11.655V385    c0,1.764-0.044,3.51-0.131,5.236c-0.002,0.04-0.005,0.079-0.007,0.119c-0.041,0.803-0.092,1.602-0.152,2.397    c-0.013,0.167-0.029,0.332-0.042,0.498c-0.054,0.665-0.111,1.329-0.177,1.988c-0.024,0.239-0.053,0.477-0.079,0.715    c-0.063,0.58-0.128,1.16-0.201,1.736c-0.037,0.292-0.079,0.582-0.119,0.873c-0.07,0.516-0.142,1.031-0.22,1.543    c-0.051,0.332-0.106,0.662-0.161,0.992c-0.076,0.466-0.154,0.932-0.237,1.394c-0.065,0.361-0.134,0.72-0.203,1.079    c-0.081,0.424-0.164,0.849-0.251,1.27c-0.08,0.389-0.165,0.776-0.25,1.162c-0.085,0.385-0.171,0.77-0.26,1.153    c-0.097,0.413-0.197,0.823-0.299,1.233c-0.087,0.349-0.175,0.696-0.266,1.043c-0.114,0.436-0.232,0.87-0.352,1.303    c-0.087,0.313-0.176,0.626-0.266,0.937c-0.133,0.458-0.269,0.915-0.409,1.369c-0.085,0.277-0.172,0.553-0.26,0.828    c-0.154,0.482-0.311,0.964-0.472,1.442c-0.081,0.238-0.163,0.476-0.246,0.713c-0.177,0.508-0.357,1.015-0.543,1.518    c-0.073,0.197-0.148,0.392-0.222,0.588c-0.203,0.538-0.409,1.074-0.623,1.606c-0.06,0.149-0.122,0.298-0.183,0.447    c-0.234,0.573-0.471,1.145-0.717,1.711c-0.04,0.093-0.083,0.186-0.123,0.279c-0.27,0.617-0.545,1.232-0.83,1.84    c-0.01,0.022-0.021,0.044-0.032,0.067c-4.768,10.19-11.477,19.192-19.859,26.803c-0.005,0.005-0.01,0.009-0.016,0.014    c-0.549,0.499-1.106,0.991-1.67,1.477c-0.017,0.015-0.034,0.03-0.051,0.044c-0.554,0.477-1.114,0.949-1.682,1.414    c-0.029,0.024-0.058,0.047-0.087,0.071c-0.559,0.458-1.125,0.91-1.697,1.357c-0.037,0.029-0.075,0.058-0.112,0.087    c-0.567,0.441-1.141,0.877-1.721,1.307c-0.043,0.032-0.087,0.064-0.13,0.095c-0.577,0.426-1.16,0.847-1.75,1.262    c-0.046,0.033-0.093,0.065-0.139,0.097c-0.59,0.414-1.186,0.822-1.788,1.225c-0.044,0.03-0.09,0.059-0.134,0.089    c-0.606,0.404-1.218,0.802-1.836,1.194c-0.039,0.025-0.079,0.049-0.119,0.074c-0.627,0.396-1.259,0.787-1.898,1.171    c-0.022,0.013-0.045,0.026-0.067,0.039c-4.011,2.407-8.264,4.578-12.74,6.499c-0.021,0.009-0.042,0.019-0.064,0.028    c-0.528,0.226-1.063,0.445-1.598,0.664c-0.251,0.103-0.499,0.209-0.752,0.311c-0.45,0.181-0.905,0.355-1.359,0.531    c-0.345,0.133-0.687,0.269-1.034,0.4c-0.408,0.154-0.82,0.301-1.231,0.451c-0.4,0.145-0.798,0.292-1.201,0.434    c-0.383,0.135-0.769,0.264-1.155,0.395c-0.439,0.149-0.876,0.299-1.319,0.444c-0.365,0.12-0.733,0.235-1.101,0.351    c-0.469,0.149-0.938,0.298-1.411,0.441c-0.351,0.107-0.706,0.21-1.06,0.314c-0.497,0.146-0.994,0.292-1.495,0.433    c-0.339,0.095-0.681,0.188-1.022,0.281c-0.521,0.142-1.043,0.282-1.568,0.418c-0.332,0.086-0.665,0.169-0.999,0.253    c-0.541,0.135-1.084,0.269-1.629,0.398c-0.325,0.077-0.65,0.152-0.977,0.227c-0.561,0.128-1.124,0.254-1.69,0.376    c-0.319,0.069-0.639,0.136-0.96,0.203c-0.579,0.12-1.161,0.237-1.745,0.351c-0.312,0.061-0.625,0.121-0.939,0.18    c-0.598,0.112-1.198,0.22-1.801,0.325c-0.308,0.054-0.617,0.107-0.926,0.159c-0.614,0.103-1.231,0.201-1.85,0.296    c-0.303,0.047-0.606,0.094-0.91,0.139c-0.632,0.093-1.267,0.181-1.904,0.267c-0.298,0.04-0.595,0.081-0.894,0.119    c-0.648,0.083-1.299,0.16-1.952,0.235c-0.294,0.034-0.586,0.069-0.881,0.101c-0.666,0.073-1.337,0.139-2.008,0.203    c-0.287,0.027-0.572,0.057-0.86,0.083c-0.681,0.061-1.366,0.116-2.052,0.169c-0.284,0.022-0.567,0.046-0.853,0.067    c-0.702,0.05-1.408,0.093-2.115,0.134c-0.273,0.016-0.544,0.035-0.817,0.049c-0.096,0.005-0.193,0.008-0.289,0.013    C146.489,440.841,155.548,386.899,168.883,327.125z M314.882,493.842c-17.154,1.715-31.427,2.091-58.884,2.091    s-41.731-0.376-58.884-2.091c-7.015-0.701-13.644-1.601-19.878-2.714c1.288-0.322,2.563-0.663,3.83-1.015    c0.359-0.1,0.712-0.206,1.069-0.309c1.042-0.299,2.077-0.607,3.104-0.927c0.413-0.129,0.824-0.258,1.234-0.39    c1.124-0.361,2.238-0.735,3.343-1.121c0.218-0.076,0.44-0.148,0.657-0.226c1.338-0.475,2.659-0.971,3.968-1.483    c0.255-0.1,0.506-0.204,0.761-0.305c1.076-0.429,2.143-0.869,3.199-1.323c0.3-0.129,0.6-0.257,0.898-0.388    c1.221-0.535,2.431-1.082,3.624-1.65c0.04-0.019,0.081-0.037,0.121-0.056c1.302-0.621,2.586-1.264,3.854-1.923    c0.145-0.076,0.288-0.154,0.433-0.23c1.109-0.582,2.203-1.18,3.286-1.792c0.187-0.106,0.374-0.211,0.56-0.317    c2.458-1.406,4.846-2.887,7.16-4.442c0.056-0.038,0.111-0.077,0.168-0.115c1.107-0.747,2.196-1.513,3.27-2.294    c0.096-0.07,0.192-0.139,0.287-0.209c2.282-1.671,4.485-3.417,6.606-5.237c0.004-0.003,0.007-0.006,0.011-0.009    c1.054-0.904,2.085-1.828,3.098-2.768c0.039-0.036,0.078-0.072,0.117-0.108c3.079-2.868,5.966-5.901,8.651-9.091    c0.019-0.023,0.038-0.045,0.057-0.067c1.793-2.135,3.496-4.34,5.104-6.614c0.009-0.013,0.018-0.026,0.027-0.038    c0.783-1.109,1.543-2.234,2.281-3.375c0.03-0.046,0.06-0.092,0.09-0.138c1.489-2.31,2.885-4.686,4.185-7.124    c0.044-0.082,0.086-0.166,0.13-0.248c0.595-1.124,1.169-2.262,1.723-3.413c0.055-0.115,0.112-0.228,0.166-0.343    c0.586-1.231,1.158-2.471,1.696-3.731c0.524,1.226,1.08,2.433,1.649,3.631c0.098,0.207,0.2,0.411,0.299,0.617    c0.487,1.007,0.99,2.003,1.509,2.989c0.114,0.216,0.225,0.433,0.34,0.648c1.23,2.298,2.547,4.539,3.946,6.723    c0.17,0.265,0.343,0.526,0.515,0.789c0.543,0.83,1.099,1.651,1.666,2.464c0.195,0.279,0.387,0.559,0.584,0.836    c0.729,1.023,1.472,2.035,2.239,3.03c0.089,0.116,0.183,0.228,0.273,0.343c0.672,0.863,1.359,1.715,2.06,2.556    c0.297,0.357,0.6,0.71,0.902,1.063c0.518,0.605,1.043,1.204,1.575,1.797c0.337,0.376,0.672,0.752,1.014,1.123    c0.624,0.675,1.26,1.341,1.904,2c0.534,0.549,1.079,1.089,1.626,1.627c0.487,0.478,0.975,0.956,1.472,1.426    c0.489,0.462,0.985,0.916,1.483,1.369c0.398,0.361,0.799,0.719,1.202,1.075c0.549,0.484,1.098,0.967,1.658,1.441    c0.245,0.207,0.496,0.407,0.742,0.612c1.268,1.054,2.564,2.081,3.888,3.084c0.205,0.155,0.407,0.313,0.614,0.467    c0.728,0.543,1.466,1.076,2.21,1.604c0.202,0.143,0.405,0.285,0.608,0.427c12.268,8.578,26.687,15.05,42.797,19.073    C328.539,492.239,321.904,493.14,314.882,493.842z M433.599,460.723c-0.095-0.522-0.205-1.132-0.338-1.862    c-1.436-7.918-3.042-16.74-4.777-26.241c-4.958-27.146-9.965-54.293-14.705-79.633c-0.618-3.3-0.618-3.3-1.236-6.598    c-11.748-62.631-19.471-101.414-22.053-109.155c-2.025-6.078-5.487-15.136-10.046-26.455c-0.567-1.407-0.567-1.407-1.136-2.81    c-2.82-6.955-5.838-14.244-8.856-21.427c-0.971-2.31-1.873-4.448-2.697-6.39c0.76-2.022,1.539-4.021,2.36-5.969    c2.741-6.507,5.671-12.299,8.587-17.291c1.712-2.931,3.004-4.899,3.672-5.82c2.764-3.817,1.911-9.152-1.907-11.916    c-3.817-2.764-9.152-1.911-11.916,1.907c-3.661,5.056-8.938,14.089-14.164,26.496c-1.363,3.236-2.653,6.564-3.859,9.981    c-0.012,0.035-0.02,0.071-0.032,0.107c-9.648,27.36-16.432,63.194-17.479,96.151l0.151,1.889l9.89,51.2    c13.377,59.928,22.45,113.932,23.721,151.749c-41.074-2.152-73.142-19.309-89.743-46.751c-0.172-0.285-0.338-0.575-0.507-0.863    c-0.214-0.363-0.429-0.724-0.637-1.09c-0.212-0.373-0.416-0.751-0.622-1.127c-0.157-0.287-0.317-0.571-0.471-0.86    c-0.22-0.414-0.433-0.832-0.647-1.25c-0.131-0.257-0.265-0.512-0.394-0.771c-0.22-0.441-0.432-0.886-0.644-1.331    c-0.115-0.241-0.231-0.48-0.344-0.722c-0.213-0.459-0.42-0.923-0.625-1.387c-0.104-0.234-0.209-0.467-0.311-0.702    c-0.204-0.473-0.402-0.949-0.598-1.427c-0.095-0.231-0.191-0.461-0.284-0.693c-0.195-0.486-0.383-0.977-0.569-1.468    c-0.086-0.228-0.173-0.456-0.258-0.685c-0.183-0.496-0.36-0.995-0.535-1.495c-0.08-0.23-0.161-0.461-0.239-0.692    c-0.171-0.504-0.336-1.012-0.498-1.521c-0.074-0.231-0.147-0.462-0.218-0.695c-0.159-0.514-0.313-1.032-0.463-1.551    c-0.067-0.231-0.133-0.463-0.198-0.696c-0.146-0.523-0.289-1.048-0.426-1.576c-0.061-0.234-0.12-0.469-0.18-0.705    c-0.133-0.53-0.263-1.062-0.387-1.597c-0.055-0.237-0.108-0.475-0.161-0.712c-0.12-0.538-0.237-1.077-0.348-1.619    c-0.049-0.239-0.095-0.479-0.142-0.718c-0.107-0.547-0.212-1.095-0.31-1.646c-0.042-0.236-0.08-0.473-0.12-0.709    c-0.095-0.56-0.188-1.122-0.273-1.687c-0.035-0.229-0.065-0.46-0.098-0.69c-0.082-0.576-0.163-1.152-0.235-1.732    c-0.027-0.22-0.051-0.442-0.077-0.663c-0.07-0.595-0.138-1.19-0.198-1.79c-0.02-0.198-0.035-0.399-0.053-0.598    c-0.058-0.627-0.114-1.255-0.161-1.887c-0.011-0.148-0.018-0.298-0.028-0.446c-0.047-0.686-0.092-1.374-0.125-2.067    c-0.001-0.024-0.002-0.048-0.003-0.072c-0.078-1.631-0.117-3.278-0.117-4.943h-0.003V228.371    c7.589-3.794,15.532-9.292,23.403-16.1c0.74-0.64,1.471-1.29,2.197-1.945v26.073l-14.567,14.567c-1.6,1.6-2.499,3.771-2.499,6.034    v42.667c0,4.713,3.82,8.533,8.533,8.533h34.133c4.713,0,8.533-3.821,8.533-8.533V257c0-2.263-0.899-4.434-2.499-6.034    l-14.567-14.567v-44.524c15.044-19.465,25.224-42.917,29.607-68.183l11.165-60.439c22.229,7.325,42.167,15.965,47.241,20.753    c6.548,6.184,21.476,66.11,40.761,162.269c2.683,13.377,5.474,27.536,8.442,42.794c2.66,13.676,24.185,126.813,31.847,165.56    L433.599,460.723z"/>
	</g>
</g>
<g>
</g>
<g>
</g>
<g>
</g>
<g>
</g>
<g>
</g>
<g>
</g>
<g>
</g>
<g>
</g>
<g>
</g>
<g>
</g>
<g>
</g>
<g>
</g>
<g>
</g>
<g>
</g>
<g>
</g>
</svg>
