<?xml version="1.0" encoding="iso-8859-1"?>
<!-- Generator: Adobe Illustrator 19.0.0, SVG Export Plug-In . SVG Version: 6.00 Build 0)  -->
<svg xmlns="http://www.w3.org/2000/svg" xmlns:xlink="http://www.w3.org/1999/xlink" version="1.1" id="Layer_1" x="0px" y="0px" viewBox="0 0 512 512" style="enable-background:new 0 0 512 512;" xml:space="preserve">
<g transform="translate(0 -1)">
	<g>
		<g>
			<circle cx="256" cy="325.267" r="8.533"/>
			<circle cx="256" cy="393.533" r="8.533"/>
			<path d="M494.759,460.083c-5.149-25.065-30.659-159.182-33.594-174.272c-2.973-15.289-5.771-29.48-8.461-42.891     C431.417,136.772,417.72,81.79,406.926,71.596c-8.169-7.709-33.082-18.243-60.43-26.737l-23.935-31.913     c-0.016-0.021-0.035-0.037-0.051-0.058c-0.228-0.299-0.474-0.586-0.743-0.856c-0.006-0.006-0.013-0.012-0.019-0.019     c-0.061-0.062-0.124-0.12-0.187-0.179C311.935,2.385,297.831,1,256,1c-41.831,0-55.935,1.385-65.561,10.835     c-0.063,0.059-0.125,0.117-0.187,0.179c-0.006,0.006-0.013,0.012-0.019,0.019c-0.27,0.27-0.515,0.557-0.743,0.856     c-0.016,0.021-0.035,0.037-0.051,0.058l-23.935,31.913c-27.348,8.494-52.261,19.028-60.427,26.735     C94.28,81.79,80.583,136.773,59.296,242.916c-2.69,13.414-5.488,27.608-8.462,42.899c-2.946,15.15-28.445,149.209-33.592,174.268     c-0.989,4.816,2.285,9.469,7.152,10.164l59.733,8.533c4.545,0.649,8.789-2.414,9.604-6.932c0.081-0.451,0.081-0.451,0.469-2.597     c0.532-2.938,0.532-2.938,1.331-7.345c1.435-7.911,3.039-16.727,4.773-26.221c4.954-27.124,9.956-54.248,14.69-79.561     c0.615-3.287,0.615-3.287,1.231-6.572c11.36-60.567,19.283-100.37,21.467-106.923c1.888-5.657,5.254-14.459,9.692-25.474     c0.557-1.382,0.557-1.382,1.116-2.761c1.171-2.887,2.377-5.834,3.603-8.808c6.107,23.933,9.928,51.187,10.028,76.011     c-0.29,1.215-0.709,2.986-1.241,5.269c-1.173,5.028-2.479,10.749-3.886,17.06c-4.017,18.028-8.034,37.186-11.784,56.66     c-3.199,16.613-6.06,32.721-8.495,48.062c-5.61,35.335-8.725,64.995-8.725,87.284c0,4.336,3.252,7.983,7.56,8.478     c0.594,0.068,1.717,0.195,3.321,0.371c2.666,0.293,5.711,0.62,9.084,0.972c9.633,1.005,19.973,2.009,30.619,2.946     c11.788,1.038,23.232,1.93,34.066,2.631C229.331,512.411,243.962,513,256,513h34.133c0.084,0,0.166-0.01,0.25-0.013     c0.077-0.002,0.153,0.003,0.231-0.001c2.859-0.161,5.781-0.344,8.76-0.547c12.023-0.82,24.764-1.955,37.855-3.326     c9.864-1.033,19.359-2.14,28.142-3.247c3.076-0.388,5.845-0.748,8.264-1.072c1.457-0.195,2.477-0.335,3.017-0.411     c4.214-0.591,7.348-4.196,7.348-8.451c0-22.289-3.116-51.95-8.725-87.284c-2.435-15.341-5.296-31.449-8.495-48.062     c-3.75-19.473-7.767-38.632-11.784-56.66c-1.406-6.312-2.713-12.032-3.886-17.06c-0.533-2.284-0.951-4.055-1.241-5.269     c0.1-24.825,3.922-52.079,10.029-76.012c1.224,2.969,2.428,5.91,3.596,8.791c0.563,1.391,0.563,1.391,1.125,2.783     c4.434,11.01,7.797,19.808,9.682,25.469c2.187,6.555,10.112,46.35,21.47,106.902c0.618,3.295,0.618,3.295,1.235,6.593     c4.735,25.313,9.737,52.437,14.691,79.561c1.734,9.494,3.338,18.309,4.773,26.221c0.799,4.407,0.799,4.407,1.331,7.345     c0.388,2.146,0.388,2.146,0.469,2.597c0.815,4.518,5.059,7.581,9.605,6.932l59.733-8.533     C492.474,469.552,495.748,464.899,494.759,460.083z M320.007,120.683c-2.349,13.543-6.54,26.46-12.381,38.347     c-0.046,0.093-0.089,0.188-0.135,0.281c-0.014,0.028-0.028,0.055-0.042,0.082c-7.6,15.349-17.961,28.966-30.681,39.97     c-0.038,0.033-0.075,0.064-0.113,0.096c-0.947,0.817-1.893,1.61-2.835,2.379c-0.07,0.057-0.141,0.117-0.211,0.174     c-0.951,0.773-1.899,1.517-2.843,2.238c-0.081,0.062-0.163,0.127-0.244,0.189c-0.935,0.711-1.864,1.392-2.788,2.05     c-0.09,0.064-0.181,0.131-0.271,0.195c-0.915,0.647-1.822,1.264-2.724,1.857c-0.067,0.044-0.135,0.091-0.203,0.135v-25.252     c0.314-0.388,0.634-0.798,0.958-1.22c0.038-0.05,0.077-0.103,0.116-0.154c0.262-0.344,0.526-0.697,0.793-1.063     c0.058-0.079,0.117-0.163,0.175-0.243c0.249-0.344,0.5-0.695,0.754-1.057c0.069-0.099,0.14-0.201,0.209-0.302     c0.247-0.355,0.495-0.716,0.746-1.087c0.072-0.107,0.145-0.217,0.218-0.325c0.25-0.373,0.502-0.753,0.755-1.142     c0.075-0.114,0.15-0.231,0.225-0.346c0.254-0.393,0.51-0.792,0.768-1.199c0.075-0.118,0.15-0.238,0.225-0.357     c0.262-0.417,0.525-0.84,0.79-1.271c0.071-0.116,0.142-0.231,0.213-0.348c0.273-0.447,0.548-0.902,0.824-1.364     c0.064-0.106,0.127-0.212,0.191-0.319c0.29-0.487,0.581-0.982,0.874-1.483c0.051-0.087,0.102-0.173,0.152-0.261     c0.313-0.539,0.628-1.087,0.945-1.642c0.031-0.054,0.061-0.107,0.092-0.161c3.914-6.885,8.05-15.002,12.133-23.673     c0,0,0-0.001,0.001-0.002c0.371-0.787,0.741-1.578,1.11-2.374c0.003-0.005,0.005-0.011,0.008-0.017     c10.378-22.347,20.237-47.863,24.981-65.237c0.011-0.041,0.022-0.081,0.033-0.122c0.153-0.561,0.3-1.113,0.442-1.657     c0.021-0.08,0.041-0.158,0.061-0.237c0.131-0.506,0.258-1.005,0.379-1.496c0.023-0.093,0.045-0.185,0.068-0.277     c0.115-0.468,0.225-0.928,0.331-1.381c0.025-0.107,0.049-0.212,0.074-0.318c0.1-0.436,0.196-0.864,0.287-1.285     c0.023-0.107,0.047-0.215,0.069-0.321c0.088-0.412,0.171-0.816,0.249-1.212c0.021-0.105,0.042-0.21,0.062-0.314     c0.077-0.394,0.148-0.779,0.215-1.157c0.017-0.096,0.035-0.193,0.051-0.287c0.066-0.38,0.125-0.749,0.181-1.111     c0.013-0.084,0.027-0.17,0.039-0.252c0.055-0.372,0.104-0.733,0.148-1.085c0.008-0.064,0.018-0.13,0.025-0.193     c0.046-0.377,0.084-0.742,0.116-1.095c0.003-0.032,0.007-0.066,0.01-0.097c0.036-0.412,0.065-0.811,0.082-1.189l4.647-23.237     l11.904,15.871l-1.916,10.38L320.007,120.683z M244.539,206.686c-0.09-0.064-0.181-0.131-0.272-0.195     c-0.925-0.658-1.854-1.34-2.79-2.051c-0.08-0.061-0.16-0.124-0.24-0.185c-0.946-0.723-1.897-1.47-2.85-2.244     c-0.068-0.055-0.136-0.113-0.204-0.168c-0.944-0.77-1.891-1.564-2.839-2.382c-0.038-0.032-0.075-0.064-0.113-0.096     c-13.361-11.558-24.115-26-31.802-42.284c-5.346-11.327-9.207-23.544-11.42-36.305l-10.301-55.769l-1.971-10.679l11.904-15.871     l4.647,23.237c0.017,0.378,0.046,0.777,0.082,1.189c0.003,0.032,0.007,0.066,0.01,0.097c0.032,0.353,0.07,0.718,0.116,1.095     c0.008,0.063,0.017,0.13,0.025,0.193c0.044,0.353,0.093,0.713,0.148,1.085c0.012,0.083,0.026,0.169,0.039,0.252     c0.056,0.362,0.115,0.731,0.181,1.111c0.016,0.094,0.034,0.191,0.051,0.287c0.067,0.378,0.138,0.763,0.215,1.157     c0.02,0.104,0.041,0.209,0.062,0.314c0.079,0.397,0.161,0.8,0.249,1.212c0.023,0.106,0.046,0.214,0.069,0.321     c0.091,0.421,0.187,0.849,0.287,1.285c0.024,0.106,0.049,0.212,0.074,0.318c0.105,0.452,0.216,0.913,0.331,1.381     c0.023,0.092,0.045,0.184,0.068,0.277c0.121,0.49,0.248,0.989,0.379,1.496c0.021,0.079,0.041,0.158,0.061,0.237     c0.142,0.543,0.289,1.096,0.442,1.657c0.011,0.041,0.022,0.081,0.033,0.122c4.744,17.374,14.603,42.89,24.981,65.237     c0.003,0.005,0.005,0.011,0.008,0.017c0.37,0.796,0.74,1.587,1.11,2.374c0,0.001,0,0.001,0.001,0.002     c4.083,8.671,8.219,16.789,12.133,23.673c0.031,0.054,0.061,0.107,0.092,0.161c0.316,0.556,0.631,1.103,0.945,1.642     c0.051,0.088,0.102,0.174,0.152,0.261c0.293,0.502,0.584,0.997,0.874,1.483c0.064,0.107,0.127,0.213,0.191,0.319     c0.276,0.462,0.551,0.917,0.824,1.364c0.071,0.117,0.142,0.232,0.213,0.348c0.265,0.431,0.528,0.855,0.79,1.271     c0.075,0.12,0.15,0.239,0.225,0.357c0.258,0.407,0.513,0.806,0.768,1.199c0.075,0.116,0.15,0.232,0.225,0.346     c0.254,0.389,0.505,0.768,0.755,1.142c0.073,0.108,0.145,0.218,0.218,0.325c0.251,0.371,0.499,0.732,0.746,1.087     c0.07,0.1,0.14,0.203,0.209,0.302c0.254,0.362,0.505,0.712,0.754,1.057c0.058,0.08,0.117,0.164,0.175,0.243     c0.267,0.366,0.531,0.719,0.793,1.063c0.038,0.05,0.078,0.104,0.116,0.154c0.323,0.422,0.643,0.832,0.958,1.22v25.252     c-0.067-0.044-0.135-0.09-0.202-0.134C246.361,207.95,245.454,207.333,244.539,206.686z M297.264,69.335     c-0.346,1.405-0.75,2.915-1.209,4.52c-0.009,0.032-0.018,0.064-0.027,0.096c-4.971,17.341-16.194,45.466-26.958,67.843     c-0.002,0.004-0.004,0.008-0.006,0.012c-1.02,2.121-2.036,4.19-3.042,6.193c-0.009,0.017-0.017,0.035-0.026,0.052     c-0.995,1.98-1.98,3.895-2.95,5.733c-0.022,0.042-0.044,0.084-0.066,0.125c-0.958,1.813-1.901,3.548-2.824,5.195     c-0.029,0.052-0.059,0.105-0.088,0.158c-0.913,1.625-1.805,3.16-2.672,4.595c-0.036,0.06-0.073,0.121-0.109,0.181     c-0.431,0.712-0.857,1.4-1.275,2.06c-0.004,0.006-0.007,0.011-0.011,0.017c-0.004-0.006-0.007-0.011-0.011-0.017     c-0.418-0.66-0.844-1.348-1.275-2.06c-0.036-0.06-0.073-0.121-0.109-0.181c-0.868-1.437-1.76-2.972-2.674-4.599     c-0.028-0.049-0.056-0.1-0.084-0.149c-0.924-1.648-1.867-3.385-2.827-5.2c-0.022-0.042-0.044-0.084-0.066-0.125     c-0.968-1.835-1.952-3.746-2.945-5.723c-0.012-0.024-0.024-0.049-0.037-0.073c-1.004-2-2.018-4.065-3.037-6.181     c-0.002-0.004-0.004-0.008-0.006-0.012c-10.765-22.38-21.99-50.509-26.96-67.849c-0.008-0.027-0.015-0.054-0.023-0.081     c-0.46-1.609-0.866-3.124-1.213-4.533c-0.005-0.021-0.01-0.042-0.015-0.064h82.561C297.275,69.29,297.27,69.312,297.264,69.335z      M256,18.067c28.505,0,43.332,0.976,50.256,3.873l-6.052,30.26h-88.409l-6.052-30.26C212.668,19.042,227.496,18.067,256,18.067z      M213.752,494.301c-10.692-0.692-22.007-1.574-33.671-2.601c-10.549-0.929-20.799-1.925-30.346-2.92     c-1.592-0.166-3.11-0.326-4.548-0.48c0.612-20.304,3.545-46.428,8.394-76.974c2.404-15.145,5.233-31.071,8.398-47.51     c3.717-19.299,7.7-38.299,11.683-56.175c1.394-6.255,2.687-11.92,3.848-16.895c0.695-2.978,1.189-5.058,1.451-6.139     c0.159-0.657,0.239-1.33,0.239-2.006c0-35.207-7.08-74.867-17.716-105.013c-0.006-0.016-0.009-0.032-0.014-0.049     c-1.206-3.417-2.496-6.745-3.859-9.981c-5.226-12.407-10.502-21.44-14.164-26.496c-2.764-3.817-8.099-4.671-11.916-1.907     c-3.817,2.764-4.671,8.099-1.907,11.916c0.667,0.921,1.96,2.889,3.672,5.82c2.916,4.992,5.846,10.784,8.587,17.291     c0.821,1.949,1.601,3.949,2.361,5.973c-0.824,1.943-1.727,4.081-2.698,6.392c-3.02,7.187-6.04,14.478-8.861,21.435     c-0.566,1.396-0.566,1.396-1.13,2.797c-4.56,11.318-8.024,20.375-10.052,26.454c-2.579,7.741-10.302,46.532-22.05,109.175     c-0.616,3.289-0.616,3.289-1.232,6.58c-4.739,25.34-9.745,52.486-14.703,79.633c-1.735,9.501-3.341,18.323-4.777,26.241     c-0.132,0.731-0.243,1.34-0.338,1.862l-42.66-6.094c7.66-38.735,29.175-151.824,31.845-165.555     c2.968-15.261,5.76-29.422,8.443-42.801c19.284-96.157,34.213-156.082,40.763-162.268c5.072-4.786,25.008-13.426,47.237-20.751     l0.855,4.628l10.319,55.901c2.344,13.494,6.357,26.477,11.882,38.618c8.724,19.177,21.234,36.249,36.98,49.87     c1.041,0.9,2.083,1.773,3.125,2.627c0.08,0.065,0.159,0.132,0.239,0.197c0.996,0.812,1.992,1.599,2.987,2.367     c0.131,0.101,0.262,0.203,0.393,0.303c0.979,0.749,1.956,1.476,2.933,2.181c0.129,0.093,0.258,0.185,0.388,0.277     c0.992,0.71,1.983,1.4,2.971,2.063c0.08,0.053,0.159,0.104,0.238,0.157c2.049,1.366,4.086,2.625,6.104,3.773     c0.104,0.059,0.209,0.121,0.313,0.18c0.956,0.539,1.906,1.048,2.852,1.536c0.141,0.073,0.282,0.145,0.423,0.217     c0.933,0.474,1.862,0.922,2.784,1.344c0.053,0.024,0.107,0.053,0.16,0.077c0.105,0.188,0.211,0.375,0.315,0.563     c0.312,0.564,0.619,1.131,0.927,1.697c0.335,0.616,0.669,1.232,0.998,1.851c0.304,0.572,0.604,1.146,0.904,1.72     c0.323,0.617,0.645,1.235,0.962,1.855c0.296,0.579,0.588,1.159,0.879,1.74c0.311,0.62,0.622,1.24,0.927,1.862     c0.287,0.583,0.569,1.167,0.851,1.752c0.302,0.626,0.602,1.252,0.899,1.88c0.276,0.586,0.549,1.173,0.821,1.761     c0.291,0.63,0.581,1.26,0.867,1.892c0.268,0.592,0.532,1.185,0.795,1.778c0.28,0.632,0.559,1.265,0.833,1.9     c0.258,0.596,0.513,1.193,0.766,1.79c0.27,0.636,0.537,1.273,0.802,1.911c0.248,0.6,0.494,1.2,0.737,1.802     c0.26,0.641,0.517,1.282,0.771,1.925c0.238,0.603,0.474,1.206,0.708,1.81c0.249,0.644,0.496,1.29,0.739,1.936     c0.229,0.607,0.456,1.215,0.68,1.824c0.238,0.646,0.473,1.293,0.706,1.942c0.219,0.611,0.437,1.223,0.651,1.835     c0.228,0.652,0.453,1.305,0.676,1.959c0.208,0.611,0.415,1.222,0.619,1.835c0.218,0.656,0.432,1.313,0.645,1.971     c0.199,0.617,0.398,1.234,0.592,1.853c0.207,0.657,0.41,1.316,0.611,1.975c0.189,0.618,0.377,1.236,0.561,1.856     c0.197,0.664,0.39,1.329,0.582,1.994c0.179,0.62,0.357,1.239,0.53,1.86c0.187,0.667,0.369,1.336,0.55,2.005     c0.168,0.621,0.336,1.243,0.5,1.865c0.176,0.67,0.347,1.341,0.517,2.012c0.159,0.625,0.317,1.25,0.471,1.876     c0.166,0.675,0.326,1.351,0.486,2.028c0.148,0.623,0.296,1.246,0.438,1.871c0.155,0.68,0.305,1.361,0.455,2.042     c0.138,0.626,0.276,1.252,0.409,1.879c0.145,0.682,0.283,1.366,0.422,2.05c0.127,0.626,0.255,1.251,0.378,1.877     c0.135,0.689,0.262,1.38,0.391,2.07c0.117,0.625,0.235,1.25,0.347,1.876c0.124,0.692,0.24,1.386,0.358,2.08     c0.106,0.626,0.215,1.251,0.316,1.878c0.113,0.697,0.219,1.396,0.326,2.094c0.096,0.624,0.194,1.248,0.285,1.873     c0.102,0.702,0.197,1.405,0.293,2.108c0.086,0.625,0.174,1.25,0.255,1.875c0.092,0.708,0.175,1.417,0.26,2.125     c0.075,0.62,0.153,1.24,0.223,1.86c0.081,0.719,0.154,1.44,0.229,2.16c0.064,0.614,0.132,1.227,0.191,1.841     c0.07,0.726,0.132,1.453,0.196,2.181c0.054,0.609,0.111,1.218,0.161,1.828c0.06,0.74,0.11,1.482,0.163,2.223     c0.043,0.598,0.09,1.195,0.129,1.793c0.049,0.761,0.088,1.524,0.13,2.286c0.032,0.579,0.069,1.158,0.097,1.737     c0.039,0.795,0.066,1.592,0.097,2.388c0.021,0.548,0.048,1.095,0.065,1.643c0.029,0.903,0.047,1.807,0.066,2.711     c0.009,0.44,0.024,0.88,0.032,1.321c0.022,1.347,0.033,2.695,0.033,4.043v144.538H256     C244.384,495.933,230.096,495.358,213.752,494.301z M433.599,460.723c-0.095-0.522-0.205-1.132-0.338-1.862     c-1.436-7.918-3.042-16.74-4.777-26.241c-4.958-27.146-9.964-54.293-14.704-79.633c-0.618-3.302-0.618-3.302-1.237-6.602     c-11.749-62.633-19.471-101.415-22.053-109.153c-2.024-6.077-5.484-15.133-10.042-26.448c-0.569-1.411-0.569-1.411-1.139-2.819     c-2.82-6.955-5.838-14.243-8.856-21.425c-1.02-2.428-1.968-4.672-2.826-6.692c0.745-1.979,1.51-3.936,2.313-5.844     c2.741-6.507,5.671-12.299,8.587-17.291c1.712-2.931,3.004-4.899,3.672-5.82c2.764-3.817,1.911-9.152-1.907-11.916     s-9.152-1.911-11.916,1.907c-3.661,5.056-8.938,14.089-14.164,26.496c-1.363,3.236-2.653,6.564-3.859,9.981     c-0.233,0.66-0.37,1.329-0.437,1.996C339.62,209.276,332.8,248.069,332.8,282.6c0,0.676,0.08,1.349,0.239,2.006     c0.261,1.081,0.756,3.162,1.451,6.139c1.16,4.974,2.454,10.64,3.848,16.895c3.983,17.876,7.966,36.876,11.683,56.175     c3.166,16.439,5.994,32.366,8.398,47.51c4.864,30.635,7.8,56.823,8.4,77.152c-1.14,0.147-2.335,0.3-3.581,0.457     c-8.67,1.093-18.048,2.186-27.786,3.206c-12.734,1.334-25.118,2.44-36.785,3.242V351.396c0-1.41-0.012-2.818-0.034-4.226     c-0.007-0.464-0.022-0.927-0.032-1.39c-0.02-0.944-0.039-1.888-0.069-2.831c-0.018-0.556-0.042-1.111-0.063-1.667     c-0.032-0.849-0.064-1.699-0.104-2.547c-0.028-0.597-0.063-1.193-0.095-1.789c-0.044-0.807-0.087-1.615-0.138-2.421     c-0.039-0.613-0.083-1.226-0.126-1.839c-0.055-0.79-0.112-1.58-0.174-2.369c-0.049-0.622-0.103-1.243-0.156-1.864     c-0.067-0.777-0.135-1.555-0.209-2.331c-0.06-0.628-0.123-1.256-0.187-1.883c-0.079-0.771-0.16-1.542-0.245-2.312     c-0.069-0.626-0.141-1.253-0.215-1.878c-0.091-0.771-0.186-1.542-0.283-2.312c-0.079-0.623-0.159-1.246-0.243-1.869     c-0.104-0.773-0.212-1.544-0.322-2.316c-0.088-0.617-0.176-1.234-0.269-1.85c-0.117-0.779-0.24-1.556-0.363-2.334     c-0.097-0.607-0.192-1.214-0.293-1.82c-0.131-0.789-0.269-1.577-0.407-2.365c-0.104-0.592-0.206-1.185-0.313-1.776     c-0.149-0.816-0.306-1.631-0.462-2.446c-0.107-0.558-0.211-1.116-0.321-1.673c-0.175-0.882-0.36-1.762-0.544-2.642     c-0.102-0.49-0.2-0.981-0.305-1.47c-0.245-1.139-0.5-2.275-0.76-3.411c-0.052-0.226-0.099-0.452-0.152-0.678     c-0.315-1.363-0.642-2.724-0.979-4.082c-0.097-0.392-0.201-0.782-0.3-1.174c-0.244-0.963-0.488-1.927-0.742-2.887     c-0.137-0.518-0.281-1.034-0.421-1.551c-0.226-0.832-0.45-1.664-0.684-2.494c-0.159-0.564-0.324-1.125-0.486-1.688     c-0.225-0.78-0.45-1.561-0.682-2.339c-0.174-0.583-0.354-1.165-0.532-1.747c-0.232-0.757-0.464-1.514-0.702-2.269     c-0.187-0.591-0.378-1.181-0.569-1.772c-0.239-0.741-0.48-1.481-0.726-2.22c-0.199-0.598-0.402-1.194-0.605-1.79     c-0.249-0.73-0.5-1.459-0.755-2.187c-0.209-0.597-0.421-1.193-0.635-1.789c-0.26-0.726-0.524-1.45-0.79-2.174     c-0.218-0.592-0.438-1.184-0.66-1.775c-0.273-0.725-0.55-1.449-0.83-2.173c-0.226-0.585-0.452-1.169-0.682-1.753     c-0.287-0.728-0.58-1.454-0.873-2.18c-0.232-0.574-0.464-1.149-0.7-1.721c-0.304-0.737-0.614-1.471-0.925-2.205     c-0.236-0.557-0.47-1.115-0.71-1.671c-0.326-0.756-0.659-1.509-0.993-2.263c-0.234-0.529-0.465-1.06-0.703-1.587     c-0.36-0.8-0.729-1.597-1.097-2.394c-0.22-0.477-0.437-0.956-0.66-1.433c-0.44-0.938-0.89-1.873-1.341-2.807     c-0.16-0.331-0.315-0.663-0.476-0.993c-0.615-1.26-1.241-2.516-1.877-3.768c-0.159-0.313-0.324-0.624-0.484-0.936     c-0.449-0.876-0.898-1.752-1.357-2.623c0.009-0.005,0.017-0.01,0.026-0.015c0.756-0.421,1.515-0.861,2.277-1.313     c0.162-0.096,0.325-0.196,0.487-0.293c0.625-0.376,1.252-0.763,1.88-1.16c0.159-0.101,0.318-0.2,0.477-0.302     c0.769-0.492,1.54-0.997,2.313-1.519c0.04-0.027,0.081-0.056,0.121-0.083c0.723-0.49,1.448-0.996,2.173-1.512     c0.176-0.125,0.352-0.251,0.528-0.378c0.681-0.49,1.363-0.989,2.046-1.501c0.091-0.068,0.181-0.134,0.272-0.202     c0.782-0.589,1.564-1.193,2.347-1.811c0.128-0.101,0.257-0.205,0.385-0.307c0.66-0.524,1.319-1.058,1.979-1.601     c0.164-0.135,0.329-0.27,0.493-0.406c0.776-0.645,1.552-1.298,2.328-1.969c15.085-13.05,27.201-29.266,35.867-47.486     c0.105-0.221,0.215-0.44,0.319-0.661c0.012-0.026,0.023-0.052,0.035-0.077c5.925-12.628,10.198-26.206,12.656-40.353l10.39-56.28     l0.769-4.16c22.228,7.325,42.165,15.965,47.239,20.753c6.548,6.184,21.476,66.11,40.761,162.269     c2.683,13.377,5.474,27.536,8.441,42.794c2.66,13.676,24.185,126.813,31.847,165.56L433.599,460.723z"/>
		</g>
	</g>
</g>
<g>
</g>
<g>
</g>
<g>
</g>
<g>
</g>
<g>
</g>
<g>
</g>
<g>
</g>
<g>
</g>
<g>
</g>
<g>
</g>
<g>
</g>
<g>
</g>
<g>
</g>
<g>
</g>
<g>
</g>
</svg>
