<?xml version="1.0" encoding="iso-8859-1"?>
<!-- Generator: Adobe Illustrator 19.0.0, SVG Export Plug-In . SVG Version: 6.00 Build 0)  -->
<svg xmlns="http://www.w3.org/2000/svg" xmlns:xlink="http://www.w3.org/1999/xlink" version="1.1" id="Layer_1" x="0px" y="0px" viewBox="0 0 511.998 511.998" style="enable-background:new 0 0 511.998 511.998;" xml:space="preserve">
<g transform="translate(0 -1)">
	<g>
		<g>
			<path d="M494.758,460.083c-5.149-25.065-30.659-159.182-33.594-174.272c-2.973-15.289-5.771-29.48-8.461-42.891     C431.416,136.772,417.719,81.79,406.925,71.596c-8.169-7.709-33.084-18.244-60.433-26.738l-23.934-31.912     c-0.016-0.021-0.035-0.037-0.051-0.058c-0.228-0.299-0.474-0.586-0.743-0.856c-0.006-0.006-0.013-0.012-0.019-0.019     c-0.061-0.062-0.124-0.12-0.187-0.179C311.931,2.385,297.828,1,255.997,1c-41.831,0-55.935,1.385-65.561,10.835     c-0.063,0.059-0.125,0.117-0.187,0.179c-0.006,0.006-0.013,0.012-0.019,0.019c-0.27,0.27-0.515,0.557-0.743,0.856     c-0.016,0.021-0.035,0.037-0.051,0.058L165.5,44.86c-27.354,8.493-52.267,19.027-60.428,26.737     C94.279,81.79,80.582,136.772,59.295,242.92c-2.69,13.411-5.487,27.603-8.461,42.891c-2.935,15.09-28.445,149.207-33.594,174.272     c-0.989,4.816,2.285,9.469,7.152,10.165l59.733,8.533c4.545,0.649,8.789-2.414,9.604-6.932c0.081-0.451,0.081-0.451,0.469-2.597     c0.532-2.938,0.532-2.938,1.331-7.345c1.435-7.911,3.039-16.727,4.773-26.221c4.954-27.124,9.956-54.249,14.691-79.562     c0.615-3.285,0.615-3.285,1.23-6.568c11.36-60.568,19.283-100.37,21.467-106.927c1.887-5.656,5.253-14.458,9.691-25.473     c0.557-1.382,0.557-1.382,1.116-2.761c1.167-2.877,2.368-5.814,3.591-8.778c4.728,18.637,8.096,39.423,9.381,59.484     c-0.015,0.311-0.016,0.625,0.004,0.943c0.049,0.811,0.049,0.811,0.099,1.613c0.082,1.327,0.117,1.903,0.158,2.627     c0.066,1.163,0.116,2.171,0.152,3.11l-8.06,41.72c-0.002,0.008-0.002,0.016-0.003,0.025l-1.644,8.509     c-14.55,65.207-24.085,123.604-24.172,163.202c-0.236,3,1.043,6.115,4.27,7.936c0.108,0.062,0.216,0.124,0.327,0.182     c0.039,0.02,0.073,0.043,0.112,0.062c16.656,8.328,37.552,13.277,62.7,15.792c17.894,1.789,32.573,2.176,60.582,2.176     s42.688-0.386,60.582-2.176c25.148-2.515,46.045-7.464,62.7-15.792c3.522-1.761,4.929-4.979,4.718-8.084     c-0.072-39.61-9.624-98.113-24.232-163.54l-1.575-8.157c-0.008-0.045-0.009-0.09-0.018-0.135l-8.06-41.72     c0.036-0.939,0.086-1.946,0.152-3.11c0.041-0.725,0.076-1.301,0.158-2.627c0.049-0.802,0.049-0.802,0.099-1.613     c0.019-0.321,0.019-0.638,0.003-0.951c1.289-20.06,4.658-40.843,9.386-59.475c1.22,2.959,2.42,5.891,3.584,8.763     c0.561,1.386,0.561,1.386,1.121,2.774c4.436,11.014,7.8,19.815,9.686,25.475c2.187,6.557,10.111,46.352,21.47,106.905     c0.617,3.293,0.617,3.293,1.234,6.589c4.735,25.313,9.737,52.437,14.692,79.562c1.734,9.494,3.338,18.31,4.773,26.221     c0.799,4.407,0.799,4.407,1.331,7.345c0.388,2.146,0.388,2.146,0.469,2.597c0.815,4.518,5.059,7.581,9.604,6.932l59.733-8.533     C492.473,469.552,495.747,464.899,494.758,460.083z M333.038,274.067l0.129,1.618l6.281,32.515H290.13v-34.133H333.038z      M273.061,316.735h-17.03c-0.011,0-0.022-0.002-0.034-0.002s-0.022,0.002-0.034,0.002h-17.03c0-0.001,0-0.001,0-0.002v-51.198     h34.128v51.198C273.061,316.734,273.061,316.735,273.061,316.735z M178.751,276.053l0.071-0.368l0.004-0.055l0.126-1.564h42.91     V308.2h-49.323L178.751,276.053z M297.26,69.335c-0.346,1.405-0.75,2.915-1.209,4.52c-0.009,0.032-0.018,0.064-0.027,0.096     c-4.971,17.341-16.194,45.466-26.958,67.843c-0.002,0.004-0.004,0.008-0.006,0.012c-1.02,2.121-2.036,4.19-3.042,6.193     c-0.009,0.017-0.017,0.035-0.026,0.052c-0.995,1.98-1.98,3.895-2.95,5.733c-0.022,0.042-0.044,0.084-0.066,0.125     c-0.958,1.813-1.901,3.548-2.824,5.195c-0.029,0.052-0.059,0.105-0.088,0.158c-0.913,1.625-1.805,3.16-2.672,4.595     c-0.036,0.06-0.073,0.121-0.109,0.181c-0.431,0.712-0.857,1.4-1.275,2.06c-0.004,0.006-0.007,0.011-0.011,0.017     c-0.004-0.006-0.007-0.011-0.011-0.017c-0.418-0.66-0.844-1.348-1.275-2.06c-0.036-0.06-0.073-0.121-0.109-0.181     c-0.868-1.437-1.76-2.972-2.674-4.599c-0.028-0.049-0.056-0.1-0.084-0.149c-0.924-1.648-1.867-3.385-2.827-5.2     c-0.022-0.042-0.044-0.084-0.066-0.125c-0.968-1.835-1.952-3.746-2.945-5.723c-0.012-0.024-0.024-0.049-0.037-0.073     c-1.004-2-2.018-4.065-3.037-6.181c-0.002-0.004-0.004-0.008-0.006-0.012c-10.765-22.38-21.99-50.509-26.96-67.849     c-0.008-0.027-0.015-0.054-0.023-0.081c-0.46-1.609-0.866-3.124-1.213-4.533c-0.005-0.021-0.01-0.042-0.015-0.064h82.561     C297.271,69.29,297.266,69.312,297.26,69.335z M191.637,38.455l4.647,23.237c0.017,0.378,0.046,0.777,0.082,1.189     c0.003,0.032,0.007,0.066,0.01,0.097c0.032,0.353,0.07,0.718,0.116,1.095c0.008,0.063,0.017,0.13,0.025,0.193     c0.044,0.353,0.093,0.713,0.148,1.085c0.012,0.083,0.026,0.169,0.039,0.252c0.056,0.362,0.115,0.731,0.181,1.111     c0.016,0.094,0.034,0.191,0.051,0.287c0.067,0.378,0.138,0.763,0.215,1.157c0.02,0.104,0.041,0.209,0.062,0.314     c0.079,0.397,0.161,0.8,0.249,1.212c0.023,0.106,0.046,0.214,0.069,0.321c0.091,0.421,0.187,0.849,0.287,1.285     c0.024,0.106,0.049,0.212,0.074,0.318c0.105,0.452,0.216,0.913,0.331,1.381c0.023,0.092,0.045,0.184,0.068,0.277     c0.121,0.49,0.248,0.989,0.379,1.496c0.021,0.079,0.041,0.158,0.061,0.237c0.142,0.543,0.289,1.096,0.442,1.657     c0.011,0.041,0.022,0.081,0.033,0.122c4.744,17.374,14.603,42.89,24.981,65.237c0.003,0.005,0.005,0.011,0.008,0.017     c0.37,0.796,0.74,1.587,1.11,2.374c0,0.001,0,0.001,0.001,0.002c4.083,8.671,8.219,16.789,12.133,23.673     c0.031,0.054,0.061,0.107,0.092,0.161c0.316,0.556,0.631,1.103,0.945,1.642c0.051,0.088,0.102,0.174,0.152,0.261     c0.293,0.502,0.584,0.997,0.874,1.483c0.064,0.107,0.127,0.213,0.191,0.319c0.276,0.462,0.551,0.917,0.824,1.364     c0.071,0.117,0.142,0.232,0.213,0.348c0.265,0.431,0.528,0.855,0.79,1.271c0.075,0.12,0.15,0.239,0.225,0.357     c0.258,0.407,0.513,0.806,0.768,1.199c0.075,0.116,0.15,0.232,0.225,0.346c0.254,0.389,0.505,0.768,0.755,1.142     c0.073,0.108,0.145,0.218,0.218,0.325c0.251,0.371,0.499,0.732,0.746,1.087c0.07,0.1,0.14,0.203,0.209,0.302     c0.254,0.362,0.505,0.712,0.754,1.057c0.058,0.08,0.117,0.164,0.175,0.243c0.267,0.366,0.531,0.719,0.793,1.063     c0.038,0.05,0.078,0.104,0.116,0.154c0.323,0.422,0.643,0.832,0.958,1.22v25.239c-0.248-0.162-0.495-0.324-0.744-0.491     c-0.522-0.349-1.047-0.706-1.574-1.073c-0.417-0.291-0.836-0.585-1.256-0.886c-0.561-0.403-1.126-0.82-1.691-1.243     c-0.386-0.288-0.771-0.574-1.159-0.871c-0.673-0.517-1.349-1.052-2.026-1.595c-0.28-0.225-0.559-0.441-0.84-0.669     c-0.979-0.799-1.962-1.621-2.946-2.472c-22.656-19.599-37.825-47.484-43.221-78.589l-6.444-34.885l-5.827-31.566L191.637,38.455z      M320.004,120.683c-5.412,31.196-20.581,59.081-43.237,78.68c-0.979,0.847-1.957,1.664-2.932,2.46     c-0.289,0.236-0.576,0.458-0.865,0.69c-0.682,0.547-1.363,1.087-2.042,1.608c-0.351,0.269-0.7,0.527-1.049,0.789     c-0.616,0.461-1.23,0.915-1.841,1.353c-0.366,0.262-0.73,0.519-1.094,0.773c-0.596,0.416-1.189,0.82-1.779,1.213     c-0.212,0.141-0.423,0.28-0.634,0.418v-25.241c0.314-0.388,0.634-0.798,0.958-1.22c0.038-0.05,0.077-0.103,0.116-0.154     c0.262-0.344,0.526-0.697,0.793-1.063c0.058-0.079,0.117-0.163,0.175-0.243c0.249-0.344,0.5-0.695,0.754-1.057     c0.069-0.099,0.14-0.201,0.209-0.302c0.247-0.355,0.495-0.716,0.746-1.087c0.072-0.107,0.145-0.217,0.218-0.325     c0.25-0.373,0.502-0.753,0.755-1.142c0.075-0.114,0.15-0.231,0.225-0.346c0.254-0.393,0.51-0.792,0.768-1.199     c0.075-0.118,0.15-0.238,0.225-0.357c0.262-0.417,0.525-0.84,0.79-1.271c0.071-0.116,0.142-0.231,0.213-0.348     c0.273-0.447,0.548-0.902,0.824-1.364c0.064-0.106,0.127-0.212,0.191-0.319c0.29-0.487,0.581-0.982,0.874-1.483     c0.051-0.087,0.102-0.173,0.152-0.261c0.313-0.539,0.628-1.087,0.945-1.642c0.031-0.054,0.061-0.107,0.092-0.161     c3.914-6.885,8.05-15.002,12.133-23.673c0,0,0-0.001,0.001-0.002c0.371-0.787,0.741-1.578,1.11-2.374     c0.003-0.005,0.005-0.011,0.008-0.017c10.378-22.347,20.237-47.863,24.981-65.237c0.011-0.041,0.022-0.081,0.033-0.122     c0.153-0.561,0.3-1.113,0.442-1.657c0.021-0.08,0.041-0.158,0.061-0.237c0.131-0.506,0.258-1.005,0.379-1.496     c0.023-0.093,0.045-0.185,0.068-0.277c0.115-0.468,0.225-0.928,0.331-1.381c0.025-0.107,0.049-0.212,0.074-0.318     c0.1-0.436,0.196-0.864,0.287-1.285c0.023-0.107,0.047-0.215,0.069-0.321c0.088-0.412,0.171-0.816,0.249-1.212     c0.021-0.105,0.042-0.21,0.062-0.314c0.077-0.394,0.148-0.779,0.215-1.157c0.017-0.096,0.035-0.193,0.051-0.287     c0.066-0.38,0.125-0.749,0.181-1.111c0.013-0.084,0.027-0.17,0.039-0.252c0.055-0.372,0.104-0.733,0.148-1.085     c0.008-0.064,0.018-0.13,0.025-0.193c0.046-0.377,0.084-0.742,0.116-1.095c0.003-0.032,0.007-0.066,0.01-0.097     c0.036-0.412,0.065-0.811,0.082-1.189l4.647-23.237l11.905,15.873L320.004,120.683z M255.997,18.067     c28.505,0,43.332,0.976,50.256,3.873l-6.052,30.26h-88.409l-6.052-30.26C212.664,19.042,227.492,18.067,255.997,18.067z      M132.683,207.982c-0.566,1.396-0.566,1.396-1.13,2.797c-4.56,11.318-8.024,20.375-10.052,26.454     c-2.579,7.745-10.302,46.538-22.05,109.178c-0.616,3.286-0.616,3.286-1.232,6.576c-4.739,25.34-9.745,52.487-14.704,79.633     c-1.735,9.501-3.341,18.323-4.777,26.241c-0.132,0.731-0.243,1.34-0.338,1.862l-42.66-6.094     c7.662-38.746,29.187-151.883,31.847-165.56c2.967-15.258,5.759-29.417,8.441-42.794c19.285-96.16,34.213-156.085,40.763-162.271     c5.067-4.787,25.003-13.427,47.234-20.751l4.703,25.462l6.473,35.066c6.035,34.795,23.143,66.238,48.853,88.488     c1.796,1.552,3.595,3.035,5.392,4.446c6.085,4.78,12.156,8.726,18.015,11.655v20.098h-17.067c-4.712,0-8.532,3.819-8.533,8.532     h-43.899c-2.405-28.001-8.45-56.676-16.498-79.463c-0.001-0.003-0.002-0.005-0.003-0.007c-1.205-3.414-2.494-6.74-3.856-9.973     c-5.226-12.407-10.502-21.44-14.164-26.496c-2.764-3.817-8.099-4.671-11.916-1.907c-3.817,2.764-4.671,8.099-1.907,11.916     c0.667,0.921,1.96,2.889,3.672,5.82c2.916,4.992,5.846,10.784,8.587,17.291c0.821,1.95,1.602,3.951,2.362,5.976     c-0.824,1.942-1.727,4.079-2.697,6.388C138.524,193.733,135.504,201.025,132.683,207.982z M168.882,327.125l0.359-1.858h52.622     v0.002c0,4.713,3.821,8.533,8.533,8.533h17.067v51.161c0,0.012-0.002,0.024-0.002,0.036c0,3.524-0.174,6.973-0.515,10.342     c-0.005,0.046-0.01,0.092-0.015,0.138c-0.08,0.779-0.169,1.553-0.266,2.323c-0.016,0.122-0.033,0.243-0.049,0.364     c-0.09,0.69-0.187,1.378-0.291,2.062c-0.028,0.181-0.059,0.361-0.087,0.542c-0.098,0.618-0.201,1.235-0.311,1.847     c-0.042,0.231-0.086,0.459-0.129,0.689c-0.104,0.557-0.212,1.112-0.326,1.665c-0.057,0.274-0.116,0.545-0.175,0.818     c-0.108,0.499-0.218,0.997-0.334,1.492c-0.075,0.319-0.152,0.636-0.23,0.953c-0.108,0.439-0.218,0.877-0.332,1.313     c-0.095,0.363-0.193,0.724-0.292,1.085c-0.105,0.381-0.211,0.76-0.321,1.138c-0.119,0.409-0.24,0.817-0.364,1.223     c-0.097,0.317-0.195,0.632-0.295,0.947c-0.146,0.46-0.295,0.918-0.448,1.373c-0.084,0.249-0.169,0.498-0.255,0.746     c-0.179,0.516-0.361,1.03-0.549,1.541c-0.063,0.171-0.127,0.342-0.191,0.513c-0.219,0.582-0.441,1.162-0.672,1.737     c-0.033,0.082-0.066,0.163-0.099,0.245c-13.885,34.336-48.878,56.138-95.694,58.553     C146.487,440.847,155.547,386.903,168.882,327.125z M314.879,493.841c-17.154,1.715-31.427,2.091-58.884,2.091     s-41.731-0.376-58.884-2.091c-6.92-0.692-13.464-1.577-19.624-2.669c37.055-9.266,65.18-31.491,78.51-62.747     c13.335,31.251,41.472,53.47,78.549,62.74C328.373,492.26,321.815,493.147,314.879,493.841z M366.78,478.654     c-47.785-2.43-83.283-25.124-96.549-60.752c-0.014-0.036-0.027-0.073-0.041-0.109c-0.245-0.661-0.482-1.326-0.711-1.996     c-0.024-0.071-0.049-0.142-0.073-0.214c-0.219-0.644-0.43-1.292-0.635-1.944c-0.03-0.097-0.061-0.194-0.091-0.292     c-0.196-0.633-0.386-1.269-0.568-1.909c-0.034-0.119-0.067-0.238-0.1-0.356c-0.176-0.626-0.346-1.256-0.509-1.889     c-0.034-0.132-0.067-0.264-0.1-0.396c-0.158-0.626-0.311-1.255-0.456-1.888c-0.032-0.14-0.063-0.28-0.094-0.421     c-0.142-0.63-0.278-1.263-0.407-1.9c-0.029-0.142-0.056-0.286-0.084-0.428c-0.126-0.64-0.248-1.282-0.361-1.928     c-0.024-0.137-0.046-0.274-0.069-0.411c-0.112-0.658-0.22-1.318-0.319-1.983c-0.017-0.117-0.033-0.235-0.05-0.353     c-0.1-0.687-0.195-1.377-0.28-2.071c-0.01-0.085-0.019-0.171-0.029-0.256c-0.088-0.73-0.17-1.463-0.242-2.201     c-0.002-0.024-0.004-0.048-0.006-0.072c-0.312-3.224-0.471-6.521-0.471-9.887h-0.003v-51.198h17.067     c4.713,0,8.533-3.82,8.533-8.533v-0.002h52.615l0.313,1.618C356.437,386.824,365.511,440.837,366.78,478.654z M433.598,460.723     c-0.095-0.522-0.205-1.132-0.338-1.862c-1.436-7.918-3.042-16.74-4.777-26.241c-4.958-27.146-9.965-54.293-14.705-79.633     c-0.618-3.3-0.618-3.3-1.236-6.598c-11.748-62.631-19.471-101.414-22.053-109.155c-2.025-6.078-5.487-15.136-10.046-26.455     c-0.567-1.407-0.567-1.407-1.136-2.81c-2.82-6.955-5.838-14.244-8.856-21.427c-0.971-2.31-1.873-4.448-2.697-6.39     c0.76-2.022,1.539-4.021,2.36-5.969c2.741-6.507,5.671-12.299,8.587-17.291c1.712-2.931,3.004-4.899,3.672-5.82     c2.764-3.817,1.911-9.152-1.907-11.916c-3.817-2.764-9.152-1.911-11.916,1.907c-3.661,5.056-8.938,14.089-14.164,26.496     c-1.363,3.236-2.653,6.564-3.859,9.981c-0.012,0.035-0.02,0.071-0.032,0.107c-8.028,22.766-14.06,51.395-16.466,79.355H290.13     c-0.001-4.712-3.821-8.532-8.533-8.532H264.53v-20.097c7.589-3.794,15.532-9.292,23.403-16.1     c25.715-22.245,42.818-53.685,48.871-88.579l11.165-60.439c22.229,7.325,42.167,15.965,47.241,20.753     c6.548,6.184,21.476,66.11,40.761,162.269c2.683,13.377,5.474,27.536,8.442,42.794c2.66,13.676,24.185,126.813,31.847,165.56     L433.598,460.723z"/>
			<path d="M238.93,385v-34.133c0-4.713-3.821-8.533-8.533-8.533h-51.2c-4.713,0-8.533,3.82-8.533,8.533V385     c0,2.263,0.899,4.434,2.499,6.034l25.6,25.6c3.333,3.333,8.735,3.333,12.068,0l25.6-25.6     C238.031,389.434,238.93,387.263,238.93,385z M221.863,381.465l-17.067,17.067l-17.067-17.067V359.4h34.133V381.465z"/>
			<path d="M332.797,342.333h-51.2c-4.713,0-8.533,3.82-8.533,8.533V385c0,2.263,0.899,4.434,2.499,6.034l25.6,25.6     c3.332,3.333,8.735,3.333,12.068,0l25.6-25.6c1.6-1.6,2.499-3.771,2.499-6.034v-34.133     C341.33,346.154,337.509,342.333,332.797,342.333z M324.263,381.465l-17.067,17.067l-17.067-17.067V359.4h34.133V381.465z"/>
			<circle cx="255.997" cy="291.133" r="8.533"/>
		</g>
	</g>
</g>
<g>
</g>
<g>
</g>
<g>
</g>
<g>
</g>
<g>
</g>
<g>
</g>
<g>
</g>
<g>
</g>
<g>
</g>
<g>
</g>
<g>
</g>
<g>
</g>
<g>
</g>
<g>
</g>
<g>
</g>
</svg>
