<?xml version="1.0" encoding="iso-8859-1"?>
<!-- Generator: Adobe Illustrator 19.0.0, SVG Export Plug-In . SVG Version: 6.00 Build 0)  -->
<svg xmlns="http://www.w3.org/2000/svg" xmlns:xlink="http://www.w3.org/1999/xlink" version="1.1" id="Layer_1" x="0px" y="0px" viewBox="0 0 511.998 511.998" style="enable-background:new 0 0 511.998 511.998;" xml:space="preserve">
<g transform="translate(0 -1)">
	<g>
		<g>
			<circle cx="255.999" cy="299.667" r="8.533"/>
			<path d="M494.758,460.083c-5.149-25.065-30.659-159.182-33.594-174.272c-2.973-15.289-5.771-29.48-8.461-42.891     C431.416,136.772,417.719,81.79,406.925,71.596c-8.169-7.709-33.082-18.243-60.43-26.737l-23.935-31.913     c-0.016-0.021-0.035-0.037-0.051-0.058c-0.228-0.299-0.474-0.586-0.743-0.856c-0.006-0.006-0.013-0.012-0.019-0.019     c-0.061-0.062-0.124-0.12-0.187-0.179C311.934,2.385,297.83,1,255.999,1c-41.831,0-55.935,1.385-65.561,10.835     c-0.063,0.059-0.125,0.117-0.187,0.179c-0.006,0.006-0.013,0.012-0.019,0.019c-0.27,0.27-0.515,0.557-0.743,0.856     c-0.016,0.021-0.035,0.037-0.051,0.058l-23.935,31.913c-27.348,8.494-52.261,19.028-60.427,26.735     C94.279,81.79,80.582,136.772,59.295,242.92c-2.69,13.411-5.487,27.603-8.461,42.891c-2.935,15.09-28.445,149.207-33.594,174.272     c-0.989,4.816,2.285,9.469,7.152,10.165l59.733,8.533c4.545,0.649,8.789-2.414,9.604-6.932c0.081-0.451,0.081-0.451,0.469-2.597     c0.532-2.938,0.532-2.938,1.331-7.345c1.435-7.911,3.039-16.727,4.773-26.221c4.954-27.124,9.956-54.248,14.69-79.561     c0.615-3.287,0.615-3.287,1.231-6.572c11.36-60.567,19.283-100.37,21.467-106.923c1.887-5.659,5.252-14.458,9.688-25.469     c0.559-1.386,0.559-1.386,1.12-2.77c1.166-2.876,2.368-5.813,3.591-8.776c4.764,18.779,8.149,39.739,9.411,59.941     c-0.021,0.002-0.041,0.005-0.062,0.007c-0.102,0.008-0.203,0.023-0.304,0.035c-0.139,0.016-0.277,0.032-0.414,0.055     c-0.104,0.017-0.205,0.04-0.307,0.061c-0.131,0.027-0.262,0.054-0.392,0.087c-0.104,0.026-0.205,0.058-0.307,0.088     c-0.125,0.037-0.25,0.074-0.372,0.117c-0.101,0.035-0.2,0.074-0.3,0.113c-0.12,0.047-0.239,0.094-0.356,0.146     c-0.098,0.043-0.194,0.09-0.29,0.137c-0.114,0.056-0.228,0.113-0.339,0.174c-0.094,0.051-0.186,0.104-0.277,0.159     c-0.109,0.065-0.217,0.132-0.323,0.201c-0.089,0.059-0.177,0.118-0.264,0.18c-0.103,0.073-0.203,0.148-0.303,0.226     c-0.085,0.066-0.168,0.133-0.25,0.202c-0.096,0.081-0.19,0.165-0.282,0.25c-0.079,0.072-0.157,0.145-0.233,0.22     c-0.09,0.09-0.177,0.182-0.264,0.276c-0.072,0.078-0.143,0.155-0.212,0.235c-0.084,0.098-0.163,0.199-0.243,0.301     c-0.065,0.083-0.13,0.164-0.191,0.249c-0.077,0.106-0.148,0.217-0.221,0.327c-0.057,0.086-0.115,0.172-0.168,0.26     c-0.07,0.116-0.134,0.236-0.199,0.356c-0.048,0.088-0.098,0.174-0.142,0.264c-0.063,0.128-0.12,0.261-0.177,0.393     c-0.038,0.087-0.079,0.172-0.114,0.261c-0.059,0.149-0.109,0.302-0.159,0.455c-0.025,0.076-0.055,0.15-0.078,0.228     c-0.07,0.232-0.13,0.469-0.181,0.71c-1.376,6.611-2.534,13.386-4.181,24.019c0.039-0.251-1.61,10.472-2.095,13.557     c-0.823,5.232-1.551,9.63-2.304,13.869c-0.053,0.296-0.084,0.589-0.106,0.881c-0.007,0.089-0.009,0.176-0.012,0.265     c-0.009,0.211-0.011,0.42-0.004,0.627c0.003,0.09,0.005,0.18,0.011,0.27c0.015,0.242,0.04,0.481,0.076,0.717     c0.006,0.043,0.009,0.086,0.016,0.129c0.046,0.277,0.107,0.549,0.179,0.816c0.02,0.075,0.045,0.147,0.067,0.221     c0.059,0.197,0.124,0.391,0.196,0.582c0.031,0.083,0.063,0.165,0.097,0.247c0.082,0.198,0.172,0.392,0.269,0.582     c0.029,0.056,0.054,0.114,0.084,0.17c0.129,0.241,0.269,0.475,0.42,0.702c0.036,0.054,0.075,0.104,0.112,0.157     c0.121,0.174,0.248,0.343,0.381,0.507c0.055,0.068,0.112,0.134,0.169,0.201c0.133,0.154,0.271,0.302,0.415,0.445     c0.053,0.053,0.104,0.108,0.158,0.16c0.198,0.188,0.403,0.368,0.618,0.537c0.036,0.028,0.074,0.052,0.11,0.08     c0.183,0.139,0.373,0.271,0.567,0.396c0.073,0.047,0.148,0.091,0.222,0.135c0.173,0.103,0.349,0.199,0.53,0.29     c0.074,0.037,0.146,0.076,0.221,0.111c0.038,0.018,0.074,0.039,0.112,0.056c-13.393,61.48-22.025,116.176-22.103,153.826     c-0.224,2.981,1.049,6.07,4.243,7.887c0.123,0.072,0.247,0.142,0.374,0.208c0.033,0.017,0.062,0.036,0.095,0.053     c16.656,8.328,37.552,13.277,62.7,15.792c17.894,1.789,32.573,2.176,60.582,2.176s42.688-0.386,60.582-2.176     c25.148-2.515,46.045-7.464,62.7-15.792c3.533-1.766,4.937-4.998,4.715-8.112c-0.072-37.651-8.706-92.363-22.103-153.862     c0.038-0.017,0.074-0.038,0.112-0.056c0.075-0.035,0.148-0.074,0.221-0.111c0.181-0.091,0.357-0.187,0.53-0.29     c0.075-0.044,0.149-0.089,0.222-0.135c0.195-0.125,0.385-0.257,0.569-0.396c0.035-0.027,0.073-0.051,0.108-0.078     c0.215-0.169,0.421-0.349,0.619-0.537c0.054-0.051,0.104-0.106,0.157-0.158c0.144-0.144,0.283-0.292,0.416-0.446     c0.057-0.066,0.114-0.133,0.169-0.201c0.134-0.164,0.26-0.334,0.381-0.507c0.037-0.053,0.076-0.103,0.112-0.157     c0.151-0.227,0.291-0.461,0.42-0.702c0.029-0.055,0.054-0.112,0.083-0.168c0.097-0.191,0.187-0.385,0.27-0.584     c0.034-0.082,0.066-0.164,0.097-0.247c0.073-0.191,0.137-0.385,0.196-0.582c0.022-0.074,0.047-0.147,0.067-0.221     c0.072-0.268,0.133-0.54,0.179-0.816c0.007-0.043,0.01-0.086,0.016-0.129c0.035-0.237,0.061-0.476,0.076-0.717     c0.006-0.09,0.008-0.18,0.011-0.27c0.006-0.208,0.005-0.417-0.004-0.627c-0.004-0.088-0.006-0.176-0.012-0.265     c-0.022-0.292-0.054-0.586-0.106-0.881c-0.754-4.239-1.481-8.637-2.304-13.869c-0.485-3.085-2.134-13.808-2.095-13.557     c-1.647-10.633-2.805-17.408-4.181-24.019c-0.05-0.241-0.111-0.478-0.181-0.71c-0.023-0.077-0.053-0.151-0.078-0.228     c-0.05-0.153-0.1-0.306-0.159-0.455c-0.035-0.089-0.077-0.175-0.115-0.263c-0.057-0.131-0.113-0.263-0.176-0.39     c-0.045-0.091-0.095-0.178-0.143-0.266c-0.065-0.119-0.128-0.239-0.198-0.355c-0.054-0.089-0.112-0.175-0.169-0.261     c-0.072-0.109-0.143-0.219-0.219-0.325c-0.062-0.086-0.128-0.168-0.193-0.252c-0.079-0.101-0.158-0.202-0.241-0.299     c-0.069-0.081-0.141-0.158-0.213-0.236c-0.086-0.094-0.173-0.186-0.263-0.276c-0.076-0.075-0.154-0.148-0.233-0.22     c-0.093-0.085-0.186-0.169-0.282-0.25c-0.082-0.069-0.166-0.136-0.25-0.202c-0.099-0.077-0.2-0.153-0.302-0.226     c-0.087-0.062-0.175-0.122-0.265-0.181c-0.106-0.069-0.213-0.136-0.322-0.201c-0.092-0.055-0.184-0.108-0.278-0.159     c-0.112-0.061-0.225-0.118-0.339-0.174c-0.096-0.047-0.192-0.093-0.29-0.137c-0.117-0.052-0.236-0.099-0.356-0.146     c-0.099-0.039-0.199-0.078-0.3-0.113c-0.123-0.042-0.247-0.08-0.372-0.117c-0.102-0.03-0.203-0.061-0.307-0.088     c-0.129-0.033-0.26-0.06-0.392-0.087c-0.102-0.021-0.204-0.044-0.307-0.061c-0.137-0.023-0.276-0.038-0.414-0.055     c-0.101-0.012-0.202-0.027-0.304-0.035c-0.021-0.002-0.041-0.006-0.062-0.007c1.262-20.202,4.647-41.162,9.411-59.94     c1.22,2.958,2.419,5.889,3.583,8.761c0.563,1.391,0.563,1.391,1.125,2.783c4.434,11.01,7.797,19.808,9.682,25.469     c2.187,6.555,10.112,46.35,21.47,106.902c0.618,3.295,0.618,3.295,1.235,6.593c4.735,25.313,9.737,52.437,14.691,79.561     c1.734,9.494,3.338,18.309,4.773,26.221c0.799,4.407,0.799,4.407,1.331,7.345c0.388,2.146,0.388,2.146,0.469,2.597     c0.815,4.518,5.059,7.581,9.605,6.932l59.733-8.533C492.473,469.552,495.747,464.899,494.758,460.083z M268.039,279.039     c0.181,0.249,0.357,0.5,0.571,0.738c2.146,2.383,3.573,5.202,4.157,8.231c0.015,0.08,0.023,0.163,0.037,0.244     c0.074,0.417,0.138,0.837,0.18,1.261c0.05,0.534,0.082,1.074,0.082,1.621V308.2c0,0.547-0.031,1.087-0.082,1.621     c-0.042,0.424-0.106,0.844-0.18,1.261c-0.014,0.081-0.022,0.163-0.037,0.244c-0.584,3.029-2.011,5.848-4.157,8.231     c-0.214,0.238-0.39,0.489-0.571,0.738c-3.086,3.072-7.34,4.972-12.04,4.972s-8.953-1.9-12.04-4.972     c-0.181-0.249-0.357-0.5-0.571-0.738c-2.146-2.383-3.573-5.202-4.157-8.231c-0.015-0.08-0.023-0.163-0.037-0.244     c-0.074-0.417-0.138-0.837-0.18-1.261c-0.05-0.534-0.082-1.074-0.082-1.621v-17.067c0-0.547,0.031-1.087,0.082-1.621     c0.042-0.424,0.106-0.844,0.18-1.261c0.014-0.081,0.022-0.163,0.037-0.244c0.584-3.029,2.011-5.848,4.157-8.231     c0.214-0.238,0.39-0.489,0.571-0.738c3.086-3.072,7.34-4.972,12.039-4.972S264.953,275.967,268.039,279.039z M179.736,54.326     l11.904-15.871l4.647,23.237c0.017,0.378,0.046,0.777,0.082,1.189c0.003,0.032,0.007,0.066,0.01,0.097     c0.032,0.353,0.07,0.718,0.116,1.095c0.008,0.063,0.017,0.13,0.025,0.193c0.044,0.353,0.093,0.713,0.148,1.085     c0.012,0.083,0.026,0.169,0.039,0.252c0.056,0.362,0.115,0.731,0.181,1.111c0.016,0.094,0.034,0.191,0.051,0.287     c0.067,0.378,0.138,0.763,0.215,1.157c0.02,0.104,0.041,0.209,0.062,0.314c0.079,0.397,0.161,0.8,0.249,1.212     c0.023,0.106,0.046,0.214,0.069,0.321c0.091,0.421,0.187,0.849,0.287,1.285c0.024,0.106,0.049,0.212,0.074,0.318     c0.105,0.452,0.216,0.913,0.331,1.381c0.023,0.092,0.045,0.184,0.068,0.277c0.121,0.49,0.248,0.989,0.379,1.496     c0.021,0.079,0.041,0.158,0.061,0.237c0.142,0.543,0.289,1.096,0.442,1.657c0.011,0.041,0.022,0.081,0.033,0.122     c4.744,17.374,14.603,42.89,24.981,65.237c0.003,0.005,0.005,0.011,0.008,0.017c0.37,0.796,0.74,1.587,1.11,2.374     c0,0.001,0,0.001,0.001,0.002c4.083,8.671,8.219,16.789,12.133,23.673c0.031,0.054,0.061,0.107,0.092,0.161     c0.316,0.556,0.631,1.103,0.945,1.642c0.051,0.088,0.102,0.174,0.152,0.261c0.293,0.502,0.584,0.997,0.874,1.483     c0.064,0.107,0.127,0.213,0.191,0.319c0.276,0.462,0.551,0.917,0.824,1.364c0.071,0.117,0.142,0.232,0.213,0.348     c0.265,0.431,0.528,0.855,0.79,1.271c0.075,0.12,0.15,0.239,0.225,0.357c0.258,0.407,0.513,0.806,0.768,1.199     c0.075,0.116,0.15,0.232,0.225,0.346c0.254,0.389,0.505,0.768,0.755,1.142c0.073,0.108,0.145,0.218,0.218,0.325     c0.251,0.371,0.499,0.732,0.746,1.087c0.07,0.1,0.14,0.203,0.209,0.302c0.254,0.362,0.505,0.712,0.754,1.057     c0.058,0.08,0.117,0.164,0.175,0.243c0.267,0.366,0.531,0.719,0.793,1.063c0.038,0.05,0.078,0.104,0.116,0.154     c0.323,0.422,0.643,0.832,0.958,1.22v25.24c-0.236-0.155-0.472-0.309-0.709-0.468c-0.541-0.361-1.083-0.73-1.629-1.11     c-0.41-0.285-0.82-0.574-1.232-0.87c-0.553-0.397-1.109-0.808-1.666-1.224c-0.405-0.303-0.81-0.603-1.216-0.915     c-0.595-0.457-1.192-0.932-1.789-1.409c-0.37-0.295-0.738-0.582-1.109-0.885c-0.818-0.668-1.638-1.359-2.459-2.063     c-0.142-0.121-0.282-0.235-0.424-0.357c-13.361-11.558-24.115-26-31.802-42.284c-5.346-11.327-9.207-23.544-11.42-36.305     l-10.301-55.769L179.736,54.326z M297.263,69.335c-0.346,1.405-0.75,2.915-1.209,4.52c-0.009,0.032-0.018,0.064-0.027,0.096     c-4.971,17.341-16.194,45.466-26.958,67.843c-0.002,0.004-0.004,0.008-0.006,0.012c-1.02,2.121-2.036,4.19-3.042,6.193     c-0.009,0.017-0.017,0.035-0.026,0.052c-0.995,1.98-1.98,3.895-2.95,5.733c-0.022,0.042-0.044,0.084-0.066,0.125     c-0.958,1.813-1.901,3.548-2.824,5.195c-0.029,0.052-0.059,0.105-0.088,0.158c-0.913,1.625-1.805,3.16-2.672,4.595     c-0.036,0.06-0.073,0.121-0.109,0.181c-0.431,0.712-0.857,1.4-1.275,2.06c-0.004,0.006-0.007,0.011-0.011,0.017     c-0.004-0.006-0.007-0.011-0.011-0.017c-0.418-0.66-0.844-1.348-1.275-2.06c-0.036-0.06-0.073-0.121-0.109-0.181     c-0.868-1.437-1.76-2.972-2.674-4.599c-0.028-0.049-0.056-0.1-0.084-0.149c-0.924-1.648-1.867-3.385-2.827-5.2     c-0.022-0.042-0.044-0.084-0.066-0.125c-0.968-1.835-1.952-3.746-2.945-5.723c-0.012-0.024-0.024-0.049-0.037-0.073     c-1.004-2-2.018-4.065-3.037-6.181c-0.002-0.004-0.004-0.008-0.006-0.012c-10.765-22.38-21.99-50.509-26.96-67.849     c-0.008-0.027-0.015-0.054-0.023-0.081c-0.46-1.609-0.866-3.124-1.213-4.533c-0.005-0.021-0.01-0.042-0.015-0.064h82.561     C297.274,69.29,297.269,69.312,297.263,69.335z M320.006,120.683c-2.349,13.543-6.54,26.46-12.381,38.347     c-0.046,0.093-0.089,0.188-0.135,0.281c-0.014,0.028-0.028,0.055-0.042,0.082c-7.6,15.349-17.961,28.966-30.681,39.97     c-0.143,0.124-0.286,0.238-0.429,0.361c-0.819,0.702-1.636,1.391-2.452,2.058c-0.373,0.305-0.744,0.593-1.116,0.89     c-0.596,0.476-1.192,0.95-1.785,1.406c-0.407,0.313-0.812,0.612-1.217,0.915c-0.557,0.416-1.112,0.827-1.665,1.224     c-0.412,0.296-0.821,0.584-1.231,0.869c-0.546,0.38-1.089,0.75-1.63,1.111c-0.237,0.158-0.473,0.313-0.709,0.467v-25.24     c0.314-0.388,0.634-0.798,0.958-1.22c0.038-0.05,0.077-0.103,0.116-0.154c0.262-0.344,0.526-0.697,0.793-1.063     c0.058-0.079,0.117-0.163,0.175-0.243c0.249-0.344,0.5-0.695,0.754-1.057c0.069-0.099,0.14-0.201,0.209-0.302     c0.247-0.355,0.495-0.716,0.746-1.087c0.072-0.107,0.145-0.217,0.218-0.325c0.25-0.373,0.502-0.753,0.755-1.142     c0.075-0.114,0.15-0.231,0.225-0.346c0.254-0.393,0.51-0.792,0.768-1.199c0.075-0.118,0.15-0.238,0.225-0.357     c0.262-0.417,0.525-0.84,0.79-1.271c0.071-0.116,0.142-0.231,0.213-0.348c0.273-0.447,0.548-0.902,0.824-1.364     c0.064-0.106,0.127-0.212,0.191-0.319c0.29-0.487,0.581-0.982,0.874-1.483c0.051-0.087,0.102-0.173,0.152-0.261     c0.313-0.539,0.628-1.087,0.945-1.642c0.031-0.054,0.061-0.107,0.092-0.161c3.914-6.885,8.05-15.002,12.133-23.673     c0,0,0-0.001,0.001-0.002c0.371-0.787,0.741-1.578,1.11-2.374c0.003-0.005,0.005-0.011,0.008-0.017     c10.378-22.347,20.237-47.863,24.981-65.237c0.011-0.041,0.022-0.081,0.033-0.122c0.153-0.561,0.3-1.113,0.442-1.657     c0.021-0.08,0.041-0.158,0.061-0.237c0.131-0.506,0.258-1.005,0.379-1.496c0.023-0.093,0.045-0.185,0.068-0.277     c0.115-0.468,0.225-0.928,0.331-1.381c0.025-0.107,0.049-0.212,0.074-0.318c0.1-0.436,0.196-0.864,0.287-1.285     c0.023-0.107,0.047-0.215,0.069-0.321c0.088-0.412,0.171-0.816,0.249-1.212c0.021-0.105,0.042-0.21,0.062-0.314     c0.077-0.394,0.148-0.779,0.215-1.157c0.017-0.096,0.035-0.193,0.051-0.287c0.066-0.38,0.125-0.749,0.181-1.111     c0.013-0.084,0.027-0.17,0.039-0.252c0.055-0.372,0.104-0.733,0.148-1.085c0.008-0.064,0.018-0.13,0.025-0.193     c0.046-0.377,0.084-0.742,0.116-1.095c0.003-0.032,0.007-0.066,0.01-0.097c0.036-0.412,0.065-0.811,0.082-1.189l4.647-23.237     l11.904,15.871l-1.916,10.38L320.006,120.683z M255.999,18.067c28.505,0,43.332,0.976,50.256,3.873l-6.052,30.26h-88.409     l-6.052-30.26C212.667,19.042,227.495,18.067,255.999,18.067z M132.683,207.978c-0.568,1.401-0.568,1.401-1.134,2.806     c-4.558,11.314-8.021,20.369-10.049,26.45c-2.579,7.74-10.301,46.531-22.05,109.174c-0.616,3.289-0.616,3.289-1.232,6.58     c-4.739,25.34-9.745,52.486-14.703,79.633c-1.735,9.501-3.341,18.323-4.777,26.241c-0.132,0.731-0.243,1.34-0.338,1.862     l-42.66-6.094c7.662-38.746,29.187-151.883,31.847-165.56c2.967-15.258,5.759-29.417,8.441-42.794     c19.285-96.16,34.213-156.085,40.763-162.271c5.072-4.786,25.008-13.426,47.237-20.751l0.855,4.628l10.319,55.901     c2.344,13.494,6.357,26.477,11.882,38.618c8.724,19.177,21.234,36.249,36.98,49.87c7.871,6.808,15.813,12.306,23.402,16.1v29.705     c-5.283,1.359-10.065,3.958-14.033,7.458h-54.85c-1.81-30.609-8.241-62.845-17.101-87.948c-0.005-0.016-0.008-0.031-0.014-0.047     c-1.206-3.417-2.496-6.745-3.859-9.981c-5.226-12.407-10.502-21.44-14.164-26.496c-2.764-3.817-8.099-4.671-11.916-1.907     c-3.817,2.764-4.671,8.099-1.907,11.916c0.667,0.921,1.96,2.889,3.672,5.82c2.916,4.992,5.846,10.784,8.587,17.291     c0.821,1.949,1.601,3.949,2.361,5.972c-0.824,1.942-1.727,4.08-2.698,6.39C138.524,193.73,135.504,201.021,132.683,207.978z      M163.696,316.733c0.062-0.384,0.125-0.781,0.188-1.172c0.039-0.244,0.078-0.483,0.117-0.73c0.119-0.743,0.238-1.499,0.36-2.275     c0.491-3.12,2.144-13.875,2.101-13.597c1.046-6.75,1.884-11.877,2.701-16.359h53.777c-0.343,1.333-0.597,2.701-0.778,4.092     c-0.011,0.081-0.021,0.162-0.031,0.243c-0.07,0.57-0.126,1.144-0.167,1.722c-0.011,0.147-0.025,0.294-0.034,0.441     c-0.04,0.674-0.066,1.352-0.066,2.036V308.2c0,0.684,0.026,1.362,0.066,2.036c0.009,0.148,0.023,0.294,0.034,0.441     c0.042,0.578,0.097,1.152,0.167,1.722c0.01,0.081,0.02,0.162,0.031,0.243c0.181,1.391,0.435,2.759,0.778,4.092H163.696z      M167.415,333.8h66.019c3.968,3.5,8.75,6.099,14.033,7.458v43.704c0,0.012-0.002,0.024-0.002,0.036     c0,1.756-0.044,3.494-0.129,5.212c-0.005,0.097-0.012,0.193-0.017,0.29c-0.039,0.748-0.085,1.494-0.14,2.235     c-0.014,0.194-0.033,0.385-0.049,0.578c-0.052,0.64-0.106,1.279-0.169,1.914c-0.025,0.25-0.055,0.499-0.082,0.748     c-0.062,0.573-0.125,1.145-0.196,1.714c-0.036,0.29-0.078,0.577-0.117,0.865c-0.07,0.521-0.142,1.043-0.22,1.56     c-0.049,0.323-0.103,0.643-0.155,0.964c-0.078,0.477-0.156,0.955-0.24,1.429c-0.062,0.35-0.13,0.697-0.196,1.045     c-0.083,0.438-0.167,0.876-0.257,1.311c-0.078,0.377-0.159,0.752-0.241,1.127c-0.087,0.397-0.174,0.793-0.266,1.187     c-0.095,0.406-0.193,0.81-0.293,1.213c-0.088,0.355-0.177,0.71-0.268,1.063c-0.113,0.435-0.231,0.869-0.35,1.301     c-0.086,0.311-0.173,0.621-0.262,0.93c-0.135,0.469-0.274,0.935-0.417,1.4c-0.08,0.262-0.162,0.524-0.245,0.785     c-0.16,0.505-0.324,1.009-0.493,1.509c-0.07,0.209-0.142,0.417-0.214,0.624c-0.19,0.549-0.383,1.095-0.584,1.638     c-0.054,0.146-0.109,0.291-0.163,0.436c-0.225,0.601-0.455,1.199-0.693,1.792c-0.029,0.073-0.059,0.145-0.088,0.217     c-13.883,34.356-48.885,56.171-95.7,58.564C146.44,442.25,154.892,390.855,167.415,333.8z M314.882,493.841     c-17.154,1.715-31.427,2.091-58.884,2.091s-41.731-0.376-58.884-2.091c-6.92-0.692-13.464-1.577-19.624-2.669     c35.518-8.882,62.822-29.676,76.766-58.911c0.003-0.005,0.005-0.01,0.008-0.016c0.601-1.26,1.186-2.53,1.737-3.821     c13.335,31.251,41.472,53.47,78.549,62.74C328.376,492.26,321.817,493.147,314.882,493.841z M366.78,478.65     c-46.863-2.404-81.9-24.263-95.751-58.691c-0.001-0.002-0.002-0.005-0.003-0.007c-0.268-0.667-0.528-1.34-0.78-2.017     c-0.023-0.062-0.046-0.123-0.069-0.185c-0.233-0.63-0.458-1.264-0.678-1.901c-0.038-0.11-0.076-0.22-0.113-0.331     c-0.203-0.598-0.399-1.2-0.59-1.805c-0.048-0.154-0.096-0.308-0.144-0.462c-0.177-0.573-0.348-1.148-0.514-1.727     c-0.054-0.188-0.107-0.377-0.159-0.566c-0.155-0.554-0.305-1.11-0.45-1.669c-0.056-0.216-0.11-0.433-0.164-0.65     c-0.135-0.54-0.267-1.082-0.393-1.627c-0.055-0.24-0.108-0.481-0.162-0.722c-0.118-0.529-0.233-1.06-0.341-1.594     c-0.053-0.259-0.102-0.521-0.153-0.781c-0.102-0.522-0.202-1.046-0.295-1.573c-0.048-0.274-0.093-0.549-0.139-0.824     c-0.087-0.521-0.174-1.042-0.252-1.567c-0.043-0.284-0.081-0.57-0.121-0.856c-0.073-0.521-0.147-1.042-0.212-1.566     c-0.036-0.29-0.067-0.583-0.1-0.874c-0.061-0.526-0.122-1.052-0.174-1.583c-0.028-0.284-0.05-0.57-0.076-0.855     c-0.049-0.544-0.099-1.089-0.139-1.637c-0.019-0.255-0.031-0.513-0.048-0.768c-0.038-0.582-0.077-1.163-0.105-1.749     c-0.009-0.184-0.013-0.371-0.021-0.556c-0.064-1.488-0.101-2.989-0.101-4.506v-43.742c5.283-1.359,10.065-3.958,14.033-7.458     h66.019C357.106,390.854,365.558,442.249,366.78,478.65z M341.554,282.6c2.097,4.482,2.936,9.609,3.981,16.359     c-0.043-0.278,1.61,10.477,2.101,13.597c0.124,0.786,0.245,1.551,0.365,2.303c0.034,0.211,0.067,0.416,0.1,0.625     c0.067,0.418,0.134,0.841,0.201,1.25h-59.245c0.343-1.333,0.597-2.702,0.778-4.093c0.011-0.08,0.02-0.16,0.03-0.24     c0.07-0.571,0.126-1.145,0.167-1.724c0.011-0.147,0.025-0.294,0.034-0.441c0.04-0.674,0.066-1.352,0.066-2.036v-17.067     c0-0.684-0.026-1.362-0.066-2.036c-0.009-0.148-0.023-0.294-0.034-0.441c-0.042-0.579-0.097-1.153-0.167-1.724     c-0.01-0.08-0.02-0.16-0.03-0.24c-0.181-1.391-0.435-2.76-0.778-4.093H341.554z M433.598,460.723     c-0.095-0.522-0.205-1.132-0.338-1.862c-1.436-7.918-3.042-16.74-4.777-26.241c-4.958-27.146-9.964-54.293-14.704-79.633     c-0.618-3.302-0.618-3.302-1.237-6.602c-11.749-62.633-19.471-101.415-22.053-109.153c-2.024-6.077-5.484-15.133-10.042-26.448     c-0.569-1.411-0.569-1.411-1.139-2.819c-2.82-6.955-5.838-14.243-8.856-21.425c-0.97-2.308-1.872-4.444-2.696-6.385     c0.76-2.023,1.54-4.023,2.361-5.972c2.741-6.507,5.671-12.299,8.587-17.291c1.712-2.931,3.004-4.899,3.672-5.82     c2.764-3.817,1.911-9.152-1.907-11.916c-3.817-2.764-9.152-1.911-11.916,1.907c-3.661,5.056-8.938,14.089-14.164,26.496     c-1.363,3.236-2.653,6.564-3.859,9.981c-0.005,0.016-0.009,0.031-0.014,0.047c-8.86,25.103-15.291,57.34-17.101,87.948h-54.85     c-3.968-3.5-8.75-6.099-14.033-7.458v-29.705c7.589-3.794,15.532-9.292,23.402-16.1c15.085-13.05,27.201-29.266,35.867-47.486     c0.105-0.221,0.215-0.44,0.319-0.661c0.012-0.026,0.023-0.052,0.035-0.077c5.925-12.628,10.198-26.206,12.656-40.353l10.39-56.28     l0.769-4.16c22.228,7.325,42.165,15.965,47.239,20.753c6.548,6.184,21.476,66.11,40.761,162.269     c2.683,13.377,5.474,27.536,8.441,42.794c2.66,13.676,24.185,126.813,31.847,165.56L433.598,460.723z"/>
		</g>
	</g>
</g>
<g>
</g>
<g>
</g>
<g>
</g>
<g>
</g>
<g>
</g>
<g>
</g>
<g>
</g>
<g>
</g>
<g>
</g>
<g>
</g>
<g>
</g>
<g>
</g>
<g>
</g>
<g>
</g>
<g>
</g>
</svg>
