<?xml version="1.0" encoding="iso-8859-1"?>
<!-- Generator: Adobe Illustrator 19.0.0, SVG Export Plug-In . SVG Version: 6.00 Build 0)  -->
<svg xmlns="http://www.w3.org/2000/svg" xmlns:xlink="http://www.w3.org/1999/xlink" version="1.1" id="Layer_1" x="0px" y="0px" viewBox="0 0 512 512" style="enable-background:new 0 0 512 512;" xml:space="preserve">
<g transform="translate(0 -1)">
	<g>
		<g>
			<circle cx="256" cy="274.067" r="8.533"/>
			<circle cx="256" cy="325.267" r="8.533"/>
			<circle cx="256" cy="376.467" r="8.533"/>
			<circle cx="256" cy="427.667" r="8.533"/>
			<path d="M494.759,460.083c-5.147-25.058-30.646-159.118-33.592-174.268c-2.974-15.292-5.772-29.485-8.462-42.899     C431.417,136.773,417.72,81.79,406.926,71.596c-8.169-7.709-33.082-18.243-60.43-26.737l-23.935-31.913     c-0.016-0.021-0.035-0.037-0.051-0.058c-0.228-0.299-0.474-0.586-0.743-0.856c-0.006-0.006-0.013-0.012-0.019-0.019     c-0.061-0.062-0.124-0.12-0.187-0.179C311.935,2.385,297.831,1,256,1c-41.831,0-55.935,1.385-65.561,10.835     c-0.063,0.059-0.125,0.117-0.187,0.179c-0.006,0.006-0.013,0.012-0.019,0.019c-0.27,0.27-0.515,0.557-0.743,0.856     c-0.016,0.021-0.035,0.037-0.051,0.058l-23.935,31.913c-27.348,8.494-52.261,19.028-60.427,26.735     C94.28,81.79,80.583,136.773,59.296,242.916c-2.69,13.414-5.488,27.608-8.462,42.899c-2.946,15.15-28.445,149.209-33.592,174.268     c-0.989,4.816,2.285,9.469,7.152,10.164l59.733,8.533c4.545,0.649,8.789-2.414,9.604-6.932c0.081-0.451,0.081-0.451,0.469-2.597     c0.532-2.938,0.532-2.938,1.331-7.345c1.435-7.911,3.039-16.727,4.773-26.221c4.954-27.124,9.957-54.248,14.692-79.562     c0.617-3.296,0.617-3.296,1.234-6.589c11.359-60.553,19.283-100.348,21.469-106.902c1.886-5.664,5.249-14.463,9.683-25.472     c0.562-1.393,0.562-1.393,1.125-2.783c1.168-2.881,2.372-5.822,3.596-8.791c6.107,23.933,9.928,51.187,10.029,76.012     c-0.29,1.215-0.709,2.986-1.241,5.269c-1.173,5.028-2.479,10.749-3.886,17.06c-4.017,18.028-8.034,37.186-11.784,56.66     c-3.199,16.613-6.06,32.721-8.495,48.062c-5.61,35.335-8.725,64.995-8.725,87.284c0,4.247,3.123,7.847,7.327,8.448     c0.493,0.07,1.423,0.199,2.762,0.378c2.217,0.296,4.785,0.625,7.674,0.978c8.24,1.009,17.415,2.017,27.295,2.958     C201.306,511.385,229.565,513,256,513s54.694-1.615,82.942-4.305c9.879-0.941,19.055-1.949,27.295-2.958     c2.889-0.354,5.457-0.683,7.674-0.978c1.339-0.179,2.27-0.307,2.762-0.378c4.204-0.601,7.327-4.201,7.327-8.448     c0-22.289-3.116-51.95-8.725-87.284c-2.435-15.341-5.296-31.449-8.495-48.062c-3.75-19.473-7.767-38.632-11.784-56.66     c-1.406-6.312-2.713-12.032-3.886-17.06c-0.533-2.284-0.951-4.055-1.241-5.269c0.1-24.825,3.922-52.079,10.029-76.012     c1.224,2.969,2.428,5.91,3.596,8.791c0.563,1.391,0.563,1.391,1.125,2.783c4.434,11.01,7.797,19.808,9.682,25.469     c2.187,6.558,10.112,46.353,21.47,106.906c0.617,3.293,0.617,3.293,1.234,6.589c4.735,25.313,9.737,52.437,14.692,79.562     c1.734,9.494,3.338,18.31,4.773,26.221c0.799,4.407,0.799,4.407,1.331,7.345c0.388,2.146,0.388,2.146,0.469,2.597     c0.815,4.518,5.059,7.581,9.604,6.932l59.733-8.533C492.474,469.552,495.748,464.899,494.759,460.083z M179.737,54.326     l11.904-15.871l4.647,23.237c0.017,0.378,0.046,0.777,0.082,1.189c0.003,0.032,0.007,0.066,0.01,0.097     c0.032,0.353,0.07,0.718,0.116,1.095c0.008,0.063,0.017,0.13,0.025,0.193c0.044,0.353,0.093,0.713,0.148,1.085     c0.012,0.083,0.026,0.169,0.039,0.252c0.056,0.362,0.115,0.731,0.181,1.111c0.016,0.094,0.034,0.191,0.051,0.287     c0.067,0.378,0.138,0.763,0.215,1.157c0.02,0.104,0.041,0.209,0.062,0.314c0.079,0.397,0.161,0.8,0.249,1.212     c0.023,0.106,0.046,0.214,0.069,0.321c0.091,0.421,0.187,0.849,0.287,1.285c0.024,0.106,0.049,0.212,0.074,0.318     c0.105,0.452,0.216,0.913,0.331,1.381c0.023,0.092,0.045,0.184,0.068,0.277c0.121,0.49,0.248,0.989,0.379,1.496     c0.021,0.079,0.041,0.158,0.061,0.237c0.142,0.543,0.289,1.096,0.442,1.657c0.011,0.041,0.022,0.081,0.033,0.122     c4.744,17.374,14.603,42.89,24.981,65.237c0.003,0.005,0.005,0.011,0.008,0.017c0.37,0.796,0.74,1.587,1.11,2.374     c0,0.001,0,0.001,0.001,0.002c4.083,8.671,8.219,16.789,12.133,23.673c0.031,0.054,0.061,0.107,0.092,0.161     c0.316,0.556,0.631,1.103,0.945,1.642c0.051,0.088,0.102,0.174,0.152,0.261c0.293,0.502,0.584,0.997,0.874,1.483     c0.064,0.107,0.127,0.213,0.191,0.319c0.276,0.462,0.551,0.917,0.824,1.364c0.071,0.117,0.142,0.232,0.213,0.348     c0.265,0.431,0.528,0.855,0.79,1.271c0.075,0.12,0.15,0.239,0.225,0.357c0.258,0.407,0.513,0.806,0.768,1.199     c0.075,0.116,0.15,0.232,0.225,0.346c0.254,0.389,0.505,0.768,0.755,1.142c0.073,0.108,0.145,0.218,0.218,0.325     c0.251,0.371,0.499,0.732,0.746,1.087c0.07,0.1,0.14,0.203,0.209,0.302c0.254,0.362,0.505,0.712,0.754,1.057     c0.058,0.08,0.117,0.164,0.175,0.243c0.267,0.366,0.531,0.719,0.793,1.063c0.038,0.05,0.078,0.104,0.116,0.154     c0.323,0.422,0.643,0.832,0.958,1.22v25.24c-0.236-0.155-0.472-0.309-0.709-0.468c-0.541-0.361-1.083-0.73-1.629-1.11     c-0.41-0.285-0.82-0.574-1.232-0.87c-0.553-0.397-1.109-0.808-1.666-1.224c-0.405-0.303-0.81-0.603-1.216-0.915     c-0.595-0.457-1.192-0.932-1.789-1.409c-0.37-0.295-0.738-0.582-1.109-0.885c-0.818-0.668-1.638-1.359-2.459-2.063     c-0.142-0.121-0.282-0.235-0.424-0.357c-13.361-11.558-24.115-26-31.802-42.284c-5.346-11.327-9.207-23.544-11.42-36.305     l-10.301-55.769L179.737,54.326z M297.264,69.335c-0.346,1.405-0.75,2.915-1.209,4.52c-0.009,0.032-0.018,0.064-0.027,0.096     c-4.971,17.341-16.194,45.466-26.958,67.843c-0.002,0.004-0.004,0.008-0.006,0.012c-1.02,2.121-2.036,4.19-3.042,6.193     c-0.009,0.017-0.017,0.035-0.026,0.052c-0.995,1.98-1.98,3.895-2.95,5.733c-0.022,0.042-0.044,0.084-0.066,0.125     c-0.958,1.813-1.901,3.548-2.824,5.195c-0.029,0.052-0.059,0.105-0.088,0.158c-0.913,1.625-1.805,3.16-2.672,4.595     c-0.036,0.06-0.073,0.121-0.109,0.181c-0.431,0.712-0.857,1.4-1.275,2.06c-0.004,0.006-0.007,0.011-0.011,0.017     c-0.004-0.006-0.007-0.011-0.011-0.017c-0.418-0.66-0.844-1.348-1.275-2.06c-0.036-0.06-0.073-0.121-0.109-0.181     c-0.868-1.437-1.76-2.972-2.674-4.599c-0.028-0.049-0.056-0.1-0.084-0.149c-0.924-1.648-1.867-3.385-2.827-5.2     c-0.022-0.042-0.044-0.084-0.066-0.125c-0.968-1.835-1.952-3.746-2.945-5.723c-0.012-0.024-0.024-0.049-0.037-0.073     c-1.004-2-2.018-4.065-3.037-6.181c-0.002-0.004-0.004-0.008-0.006-0.012c-10.765-22.38-21.99-50.509-26.96-67.849     c-0.008-0.027-0.015-0.054-0.023-0.081c-0.46-1.609-0.866-3.124-1.213-4.533c-0.005-0.021-0.01-0.042-0.015-0.064h82.561     C297.275,69.29,297.27,69.312,297.264,69.335z M320.007,120.683c-2.349,13.543-6.54,26.46-12.381,38.347     c-0.046,0.093-0.089,0.188-0.135,0.281c-0.014,0.028-0.028,0.055-0.042,0.082c-7.6,15.349-17.961,28.966-30.681,39.97     c-0.143,0.124-0.286,0.238-0.429,0.361c-0.819,0.702-1.636,1.391-2.452,2.058c-0.373,0.305-0.744,0.593-1.116,0.89     c-0.596,0.476-1.192,0.95-1.785,1.406c-0.407,0.313-0.812,0.612-1.217,0.915c-0.557,0.416-1.112,0.827-1.665,1.224     c-0.412,0.296-0.821,0.584-1.231,0.869c-0.546,0.38-1.089,0.75-1.63,1.111c-0.237,0.158-0.473,0.313-0.709,0.467v-25.24     c0.314-0.388,0.634-0.798,0.958-1.22c0.038-0.05,0.077-0.103,0.116-0.154c0.262-0.344,0.526-0.697,0.793-1.063     c0.058-0.079,0.117-0.163,0.175-0.243c0.249-0.344,0.5-0.695,0.754-1.057c0.069-0.099,0.14-0.201,0.209-0.302     c0.247-0.355,0.495-0.716,0.746-1.087c0.072-0.107,0.145-0.217,0.218-0.325c0.25-0.373,0.502-0.753,0.755-1.142     c0.075-0.114,0.15-0.231,0.225-0.346c0.254-0.393,0.51-0.792,0.768-1.199c0.075-0.118,0.15-0.238,0.225-0.357     c0.262-0.417,0.525-0.84,0.79-1.271c0.071-0.116,0.142-0.231,0.213-0.348c0.273-0.447,0.548-0.902,0.824-1.364     c0.064-0.106,0.127-0.212,0.191-0.319c0.29-0.487,0.581-0.982,0.874-1.483c0.051-0.087,0.102-0.173,0.152-0.261     c0.313-0.539,0.628-1.087,0.945-1.642c0.031-0.054,0.061-0.107,0.092-0.161c3.914-6.885,8.05-15.002,12.133-23.673     c0,0,0-0.001,0.001-0.002c0.371-0.787,0.741-1.578,1.11-2.374c0.003-0.005,0.005-0.011,0.008-0.017     c10.378-22.347,20.237-47.863,24.981-65.237c0.011-0.041,0.022-0.081,0.033-0.122c0.153-0.561,0.3-1.113,0.442-1.657     c0.021-0.08,0.041-0.158,0.061-0.237c0.131-0.506,0.258-1.005,0.379-1.496c0.023-0.093,0.045-0.185,0.068-0.277     c0.115-0.468,0.225-0.928,0.331-1.381c0.025-0.107,0.049-0.212,0.074-0.318c0.1-0.436,0.196-0.864,0.287-1.285     c0.023-0.107,0.047-0.215,0.069-0.321c0.088-0.412,0.171-0.816,0.249-1.212c0.021-0.105,0.042-0.21,0.062-0.314     c0.077-0.394,0.148-0.779,0.215-1.157c0.017-0.096,0.035-0.193,0.051-0.287c0.066-0.38,0.125-0.749,0.181-1.111     c0.013-0.084,0.027-0.17,0.039-0.252c0.055-0.372,0.104-0.733,0.148-1.085c0.008-0.064,0.018-0.13,0.025-0.193     c0.046-0.377,0.084-0.742,0.116-1.095c0.003-0.032,0.007-0.066,0.01-0.097c0.036-0.412,0.065-0.811,0.082-1.189l4.647-23.237     l11.904,15.871l-1.916,10.38L320.007,120.683z M256,18.067c28.505,0,43.332,0.976,50.256,3.873l-6.052,30.26h-88.409     l-6.052-30.26C212.668,19.042,227.495,18.067,256,18.067z M433.599,460.723c-0.095-0.522-0.205-1.132-0.338-1.862     c-1.436-7.918-3.042-16.74-4.777-26.241c-4.958-27.146-9.965-54.293-14.705-79.633c-0.618-3.3-0.618-3.3-1.236-6.598     c-11.748-62.631-19.471-101.414-22.053-109.155c-2.024-6.078-5.485-15.134-10.042-26.449c-0.569-1.411-0.569-1.411-1.139-2.819     c-2.82-6.955-5.838-14.243-8.856-21.425c-0.97-2.308-1.872-4.444-2.696-6.385c0.76-2.023,1.54-4.023,2.361-5.972     c2.741-6.507,5.671-12.299,8.587-17.291c1.712-2.931,3.004-4.899,3.672-5.82c2.764-3.817,1.911-9.152-1.907-11.916     c-3.817-2.764-9.152-1.911-11.916,1.907c-3.661,5.056-8.938,14.089-14.164,26.496c-1.363,3.236-2.653,6.564-3.859,9.981     c-0.005,0.016-0.009,0.031-0.014,0.047C339.88,207.732,332.8,247.393,332.8,282.6c0,0.676,0.08,1.349,0.239,2.006     c0.261,1.081,0.756,3.162,1.451,6.139c1.16,4.974,2.454,10.64,3.848,16.895c3.983,17.876,7.966,36.876,11.683,56.175     c3.166,16.439,5.994,32.366,8.398,47.51c4.863,30.63,7.799,56.814,8.399,77.142c-0.851,0.107-1.736,0.217-2.656,0.33     c-8.093,0.991-17.118,1.983-26.839,2.908c-27.751,2.643-55.493,4.228-81.324,4.228s-53.573-1.585-81.324-4.228     c-9.721-0.926-18.745-1.917-26.839-2.908c-0.919-0.113-1.805-0.223-2.656-0.33c0.601-20.328,3.537-46.512,8.399-77.142     c2.404-15.145,5.233-31.071,8.398-47.51c3.717-19.299,7.7-38.299,11.683-56.175c1.394-6.255,2.687-11.92,3.848-16.895     c0.695-2.978,1.189-5.058,1.451-6.139c0.159-0.657,0.239-1.33,0.239-2.006c0-35.207-7.08-74.867-17.716-105.013     c-0.006-0.016-0.009-0.032-0.014-0.049c-1.206-3.417-2.496-6.745-3.859-9.981c-5.226-12.407-10.502-21.44-14.164-26.496     c-2.764-3.817-8.099-4.671-11.916-1.907c-3.817,2.764-4.671,8.099-1.907,11.916c0.667,0.921,1.96,2.889,3.672,5.82     c2.916,4.992,5.846,10.784,8.587,17.291c0.821,1.949,1.601,3.949,2.361,5.972c-0.823,1.941-1.726,4.077-2.696,6.385     c-3.018,7.182-6.036,14.47-8.856,21.425c-0.57,1.408-0.57,1.408-1.139,2.819c-4.557,11.315-8.018,20.371-10.043,26.453     c-2.581,7.738-10.304,46.521-22.052,109.152c-0.618,3.297-0.618,3.297-1.236,6.598c-4.74,25.34-9.746,52.487-14.705,79.633     c-1.735,9.501-3.341,18.323-4.777,26.241c-0.133,0.731-0.243,1.34-0.338,1.862l-42.66-6.094     c7.66-38.735,29.175-151.824,31.845-165.555c2.968-15.261,5.76-29.422,8.443-42.801c19.284-96.157,34.213-156.082,40.763-162.268     c5.072-4.786,25.008-13.426,47.237-20.751l0.855,4.628l10.319,55.901c2.344,13.494,6.357,26.477,11.882,38.618     c8.724,19.177,21.234,36.249,36.98,49.87c9.747,8.432,19.606,14.857,28.766,18.52c0.012,0.005,0.023,0.007,0.035,0.012     c0.013,0.005,0.027,0.009,0.041,0.014c0.129,0.051,0.262,0.092,0.394,0.136c0.148,0.049,0.296,0.098,0.447,0.139     c0.053,0.015,0.106,0.036,0.16,0.05c0.111,0.029,0.225,0.047,0.338,0.071c0.118,0.025,0.236,0.046,0.355,0.065     c0.091,0.015,0.18,0.038,0.271,0.05c0.025,0.003,0.051,0.011,0.076,0.014c0.072,0.009,0.145,0.01,0.217,0.017     c0.073,0.007,0.146,0.008,0.219,0.013c0.127,0.009,0.253,0.019,0.381,0.023c0.078,0.002,0.157,0.014,0.235,0.014     c0.078,0,0.157-0.012,0.235-0.014c0.128-0.004,0.254-0.014,0.381-0.023c0.073-0.005,0.146-0.006,0.219-0.013     c0.072-0.007,0.146-0.008,0.217-0.017c0.025-0.003,0.051-0.01,0.076-0.014c0.092-0.012,0.181-0.035,0.271-0.05     c0.119-0.02,0.237-0.041,0.355-0.065c0.113-0.024,0.227-0.042,0.338-0.071c0.053-0.014,0.106-0.035,0.16-0.05     c0.15-0.041,0.299-0.09,0.447-0.14c0.132-0.044,0.264-0.085,0.393-0.136c0.013-0.005,0.027-0.009,0.041-0.014     c0.012-0.005,0.023-0.007,0.035-0.012c9.16-3.662,19.019-10.088,28.766-18.519c15.085-13.05,27.201-29.266,35.867-47.486     c0.105-0.221,0.215-0.44,0.319-0.661c0.012-0.026,0.023-0.052,0.035-0.077c5.925-12.628,10.198-26.206,12.656-40.353l10.39-56.28     l0.769-4.16c22.228,7.325,42.165,15.965,47.239,20.753c6.548,6.184,21.477,66.109,40.761,162.266     c2.683,13.379,5.475,27.541,8.443,42.801c2.67,13.731,24.186,126.82,31.845,165.555L433.599,460.723z"/>
		</g>
	</g>
</g>
<g>
</g>
<g>
</g>
<g>
</g>
<g>
</g>
<g>
</g>
<g>
</g>
<g>
</g>
<g>
</g>
<g>
</g>
<g>
</g>
<g>
</g>
<g>
</g>
<g>
</g>
<g>
</g>
<g>
</g>
</svg>
