<?xml version="1.0" encoding="iso-8859-1"?>
<!-- Generator: Adobe Illustrator 19.0.0, SVG Export Plug-In . SVG Version: 6.00 Build 0)  -->
<svg xmlns="http://www.w3.org/2000/svg" xmlns:xlink="http://www.w3.org/1999/xlink" version="1.1" id="Layer_1" x="0px" y="0px" viewBox="0 0 512.002 512.002" style="enable-background:new 0 0 512.002 512.002;" xml:space="preserve">
<g transform="translate(0 -1)">
	<g>
		<g>
			<path d="M399.485,380.051c-2.734-3.839-8.062-4.734-11.901-2c-18.202,12.965-33.909,21.266-47.945,24.186     c-27.598,5.319-59.366,8.364-83.638,8.364c-24.272,0-56.04-3.045-83.638-8.364c-14.035-2.92-29.742-11.221-47.945-24.186     c-3.839-2.734-9.167-1.839-11.901,2c-2.734,3.839-1.839,9.167,2,11.901c17.98,12.807,33.974,21.574,49.306,25.76     c7.813,23.476,35.114,61.994,56.343,81.926c9.128,8.58,21.099,13.363,33.574,13.363h4.523c12.475,0,24.446-4.783,33.578-13.366     c21.226-19.929,48.527-58.448,56.339-81.923c15.332-4.186,31.326-12.954,49.306-25.76     C401.324,389.218,402.219,383.89,399.485,380.051z M280.155,487.197c-5.983,5.623-13.778,8.738-21.892,8.738h-4.523     c-8.114,0-15.91-3.115-21.889-8.735c-16.673-15.654-38.271-45.136-48.079-65.641c24.773,3.924,51.101,6.11,72.229,6.11     c21.128,0,47.456-2.186,72.229-6.11C318.422,442.064,296.824,471.545,280.155,487.197z"/>
			<path d="M144.978,227.341c5.963,3.54,12.068,4.504,17.34,4.085c19.279-0.107,43.053-5.536,66.731-13.224     c6.245,8.029,15.991,13.2,26.952,13.2c10.961,0,20.707-5.171,26.952-13.2c23.676,7.688,47.429,13.115,66.464,13.199     c5.539,0.444,11.644-0.52,17.607-4.06c10.8-6.412,16.977-19.216,16.977-38.606c0-6.823-0.972-14.054-2.809-21.647     c-3.031-12.536-8.313-25.721-15.202-39.122c-3.859-7.508-7.987-14.621-12.118-21.129c-1.45-2.284-2.8-4.334-4.016-6.122     c-0.021-0.032-0.039-0.057-0.06-0.088c-0.958-21.934-12.575-68.534-26.507-95.06c-2.191-4.172-7.35-5.778-11.523-3.587     c-4.172,2.191-5.778,7.35-3.587,11.523c12.668,24.119,23.609,68.003,24.548,87.367c-4.527,5.251-25.064,27.141-31.84,35.05     c-10.316,12.042-18.554,23.16-24.686,33.838c-5.657-4.16-12.64-6.623-20.201-6.623s-14.544,2.462-20.201,6.623     c-6.132-10.677-14.37-21.796-24.686-33.838c-6.776-7.909-27.313-29.799-31.84-35.05c0.939-19.363,11.881-63.248,24.548-87.367     c2.191-4.172,0.586-9.331-3.587-11.523c-4.172-2.191-9.331-0.586-11.523,3.587c-13.932,26.526-25.549,73.126-26.507,95.06     c-0.021,0.031-0.039,0.057-0.06,0.088c-1.216,1.788-2.566,3.838-4.016,6.122c-4.131,6.509-8.259,13.623-12.118,21.131     c-6.884,13.392-12.163,26.566-15.195,39.093c-1.841,7.604-2.816,14.843-2.816,21.673     C128.001,208.125,134.178,220.929,144.978,227.341z M313.848,147.024c3.566-4.163,17.371-18.951,26.625-29.436     c3.531,5.655,7.045,11.775,10.338,18.181c6.319,12.292,11.118,24.273,13.792,35.331c1.536,6.352,2.331,12.261,2.331,17.636     c0,13.747-3.423,20.844-8.623,23.931c-2.495,1.481-5.216,1.911-7.274,1.747c-0.11-0.011-1.17-0.078-1.17-0.078     c-16.449,0-38.334-4.904-60.126-11.872c0.122-0.802,0.207-1.617,0.272-2.436c0.009-0.106,0.016-0.213,0.024-0.32     c0.057-0.806,0.096-1.618,0.096-2.439c0-0.551-0.014-1.101-0.042-1.648c-0.186-3.912-1.036-7.648-2.43-11.106     c0.929-1.903,1.959-3.851,3.094-5.844C296.295,168.939,304.029,158.485,313.848,147.024z M256.001,180.202     c5.987,0,11.245,3.088,14.291,7.752c0.135,0.329,0.288,0.652,0.466,0.966c1.135,2,1.861,4.069,2.157,6.181     c0.002,0.015,0.005,0.03,0.007,0.046c0.033,0.242,0.053,0.485,0.075,0.727c0.037,0.461,0.07,0.924,0.07,1.396     c0,2.423-0.551,4.806-1.616,7.105c-0.098,0.211-0.176,0.424-0.255,0.638c-2.823,5.53-8.56,9.324-15.196,9.324     c-6.636,0-12.373-3.794-15.196-9.323c-0.079-0.214-0.157-0.428-0.255-0.639c-1.065-2.299-1.616-4.682-1.616-7.105     c0-0.471,0.033-0.934,0.07-1.396c0.022-0.243,0.042-0.486,0.075-0.727c0.002-0.015,0.005-0.03,0.007-0.046     c0.296-2.112,1.022-4.181,2.157-6.181c0.178-0.313,0.331-0.637,0.466-0.966C244.756,183.289,250.014,180.202,256.001,180.202z      M147.404,171.077c2.675-11.05,7.472-23.023,13.786-35.306c3.293-6.407,6.808-12.528,10.339-18.183     c9.254,10.486,23.058,25.273,26.624,29.436c9.819,11.462,17.554,21.915,23.093,31.647c1.134,1.993,2.165,3.941,3.094,5.844     c-1.394,3.458-2.245,7.194-2.43,11.106c-0.028,0.547-0.042,1.097-0.042,1.648c0,0.821,0.039,1.633,0.096,2.44     c0.008,0.106,0.015,0.211,0.024,0.317c0.066,0.82,0.15,1.635,0.272,2.438c-21.792,6.967-43.677,11.872-60.126,11.872l-1.233,0.09     c-1.995,0.152-4.716-0.278-7.211-1.759c-5.2-3.087-8.623-10.183-8.623-23.931C145.068,183.354,145.864,177.438,147.404,171.077z"/>
		</g>
	</g>
</g>
<g>
</g>
<g>
</g>
<g>
</g>
<g>
</g>
<g>
</g>
<g>
</g>
<g>
</g>
<g>
</g>
<g>
</g>
<g>
</g>
<g>
</g>
<g>
</g>
<g>
</g>
<g>
</g>
<g>
</g>
</svg>
