<?xml version="1.0" encoding="iso-8859-1"?>
<!-- Generator: Adobe Illustrator 19.0.0, SVG Export Plug-In . SVG Version: 6.00 Build 0)  -->
<svg xmlns="http://www.w3.org/2000/svg" xmlns:xlink="http://www.w3.org/1999/xlink" version="1.1" id="Layer_1" x="0px" y="0px" viewBox="0 0 503.614 503.614" style="enable-background:new 0 0 503.614 503.614;" xml:space="preserve">
<g>
	<g>
		<g>
			<path d="M461.573,158.399c-1.12-8.602-3.573-18.34-6.936-28.495c-0.072-0.478-0.177-0.957-0.336-1.432     c-3.754-11.207-8.796-23.089-14.417-34.528c-13.316-27.525-29.736-51.983-40.894-59.058c-0.015-0.009-0.032-0.019-0.047-0.028     c-0.336-0.212-0.69-0.426-1.063-0.644c-0.292-0.171-0.608-0.346-0.924-0.522c-0.084-0.046-0.161-0.092-0.247-0.138     c-6.733-3.696-18.766-8.479-35.684-14.453c-3.073-1.085-6.286-2.201-9.635-3.348c-8.795-3.011-17.97-6.048-28.5-9.464     c-1.715-0.556-16.078-5.187-18.068-5.85c-0.03-0.01-0.059-0.014-0.089-0.024c-0.313-0.101-0.631-0.19-0.958-0.253     c-0.06-0.012-0.119-0.016-0.179-0.026c-0.236-0.041-0.475-0.073-0.718-0.094c-0.174-0.015-0.346-0.021-0.519-0.025     c-0.064-0.001-0.127-0.009-0.191-0.009c-6.715,0-10.985,0.843-25.726,4.435c-8.465,2.063-13.289,3.049-18.394,3.601     c-2.194,0.237-4.266,0.357-6.241,0.357s-4.047-0.121-6.241-0.357c-5.105-0.551-9.929-1.538-18.394-3.601     c-14.741-3.592-19.011-4.435-25.726-4.435c-0.064,0-0.127,0.008-0.191,0.009c-0.173,0.004-0.345,0.01-0.519,0.025     c-0.242,0.02-0.481,0.053-0.718,0.094c-0.06,0.011-0.119,0.014-0.179,0.026c-0.327,0.064-0.645,0.153-0.958,0.253     c-0.03,0.01-0.06,0.014-0.089,0.024c-1.99,0.663-16.353,5.294-18.068,5.85c-10.531,3.415-19.705,6.452-28.5,9.464     c-3.349,1.147-6.562,2.263-9.635,3.348c-16.879,5.96-28.896,10.736-35.638,14.428c-0.145,0.079-0.278,0.156-0.418,0.234     c-0.264,0.148-0.534,0.297-0.78,0.441c-0.396,0.231-0.773,0.458-1.125,0.682c-0.001,0.001-0.002,0.001-0.003,0.002c0,0,0,0,0,0     c-11.252,7.134-27.855,31.943-41.229,59.749c-5.483,11.225-10.397,22.857-14.075,33.838c-0.154,0.46-0.257,0.925-0.329,1.389     c-3.37,10.17-5.828,19.923-6.95,28.537c-0.283,2.172,0.294,4.368,1.608,6.12c3.612,4.817,10.206,11.696,19.614,18.539     c15.764,11.465,33.949,18.392,54.248,18.392c3.613,0,6.82-2.312,7.963-5.739l9.838-29.514c2.668,6.744,5.299,13.943,7.806,21.502     c9.512,28.684,15.5,57.201,16.276,83.616c0.046,1.555,0.073,3.1,0.081,4.633c-0.285,1.122-0.687,2.723-1.193,4.769     c-1.155,4.661-2.441,9.972-3.825,15.839c-3.727,15.794-7.45,32.581-10.957,49.735c-0.133,0.651-0.268,1.303-0.399,1.952     c-0.08,0.395-0.162,0.788-0.242,1.183c-0.155,0.768-0.306,1.529-0.459,2.295c-0.176,0.878-0.352,1.754-0.526,2.629     c-0.197,0.989-0.392,1.976-0.586,2.961c-0.212,1.075-0.421,2.147-0.629,3.218c-0.164,0.842-0.327,1.683-0.489,2.522     c-0.249,1.292-0.493,2.578-0.737,3.862c-0.121,0.637-0.243,1.275-0.362,1.91c-0.362,1.923-0.718,3.839-1.068,5.743     c-0.002,0.01-0.004,0.02-0.006,0.03c-0.36,1.963-0.713,3.915-1.059,5.858c-0.084,0.472-0.166,0.94-0.249,1.412     c-0.253,1.426-0.503,2.848-0.748,4.263c-0.115,0.663-0.227,1.322-0.341,1.982c-0.207,1.208-0.412,2.413-0.614,3.612     c-0.126,0.75-0.251,1.498-0.375,2.245c-0.178,1.074-0.353,2.143-0.527,3.209c-0.086,0.526-0.175,1.059-0.26,1.583     c-0.05,0.309-0.096,0.611-0.145,0.919c-0.143,0.893-0.282,1.779-0.421,2.666c-0.155,0.987-0.312,1.977-0.463,2.955     c-0.036,0.235-0.071,0.468-0.107,0.703c-0.725,4.724-1.394,9.334-2.008,13.831c-0.003,0.021-0.006,0.042-0.009,0.063     c-0.206,1.512-0.405,3.008-0.599,4.494c-0.008,0.064-0.017,0.13-0.026,0.194c-0.001,0.004,0,0.008-0.001,0.012     c-2.69,20.68-4.14,38.797-4.14,53.837c0,3.912,2.702,7.305,6.515,8.18c0.595,0.137,1.712,0.388,3.302,0.738     c2.636,0.58,5.645,1.226,8.978,1.921c9.514,1.984,19.725,3.968,30.24,5.82c11.653,2.053,22.969,3.816,33.692,5.204     c16.569,2.144,31.127,3.316,43.175,3.316c12.047,0,26.605-1.172,43.175-3.316c10.723-1.388,22.04-3.152,33.692-5.204     c6.057-1.067,12.007-2.178,17.787-3.307c4.255-0.831,8.42-1.671,12.455-2.511c3.332-0.694,6.34-1.34,8.976-1.919     c1.589-0.35,2.706-0.601,3.301-0.737c3.813-0.875,6.516-4.269,6.516-8.181c0-0.001,0-0.002,0-0.003c0,0,0,0,0-0.001     c0-0.026-0.001-0.053-0.001-0.079c0-1.258-0.011-2.538-0.031-3.838c-0.008-0.525-0.025-1.068-0.036-1.6     c-0.017-0.807-0.033-1.609-0.058-2.431c-0.021-0.701-0.051-1.42-0.078-2.132c-0.025-0.672-0.047-1.336-0.077-2.017     c-0.036-0.826-0.081-1.671-0.124-2.512c-0.03-0.581-0.056-1.155-0.089-1.743c-0.053-0.951-0.115-1.92-0.177-2.888     c-0.031-0.488-0.06-0.97-0.093-1.463c-0.073-1.078-0.154-2.174-0.237-3.274c-0.03-0.392-0.057-0.779-0.088-1.173     c-0.095-1.211-0.198-2.44-0.305-3.676c-0.025-0.286-0.048-0.569-0.073-0.856c-0.12-1.361-0.249-2.74-0.384-4.131     c-0.015-0.157-0.03-0.312-0.045-0.469c-0.149-1.524-0.307-3.066-0.472-4.625c-0.002-0.015-0.003-0.03-0.005-0.045     c-1.329-12.499-3.191-26.106-5.546-40.72c-2.534-15.727-5.582-32.273-9.034-49.334c-3.034-14.998-6.246-29.73-9.49-43.811     c-0.109-0.474-0.218-0.951-0.327-1.422c-0.246-1.065-0.492-2.122-0.739-3.179c-0.214-0.919-0.428-1.831-0.641-2.739     c-0.134-0.571-0.268-1.151-0.402-1.72c-1.284-5.442-2.482-10.399-3.571-14.81c-0.024-0.098-0.048-0.195-0.072-0.292     c-0.061-0.245-0.122-0.496-0.182-0.737c-0.507-2.045-0.909-3.647-1.193-4.769c0.011-1.9,0.06-3.82,0.128-5.748     c0.019-0.543,0.044-1.089,0.068-1.634c0.07-1.622,0.156-3.252,0.265-4.893c0.021-0.323,0.04-0.646,0.063-0.97     c0.926-13.009,3.063-26.612,6.273-40.724c0.071-0.311,0.119-0.622,0.153-0.932c2.537-11.015,5.7-22.168,9.407-33.348     c2.507-7.559,5.138-14.758,7.806-21.502l9.838,29.514c1.142,3.427,4.35,5.739,7.963,5.739c20.3,0,38.484-6.927,54.248-18.392     c9.408-6.842,16.002-13.722,19.614-18.539C461.279,162.767,461.856,160.571,461.573,158.399z M386.392,47.124     c1.147,0.557,2.104,1.056,2.869,1.496c0.243,0.142,0.481,0.282,0.693,0.415c0.015,0.01,0.035,0.021,0.05,0.03     c0.004,0.002,0.008,0.005,0.011,0.008c7.897,5.019,23.709,29.13,36.234,55.286c3.213,6.854,6.224,13.884,8.868,20.812     c-2.327,0.333-4.678,0.504-7.047,0.504c-27.813,0-50.361-22.547-50.361-50.361C377.709,65.101,380.784,55.369,386.392,47.124z      M243.764,24.734c2.77,0.299,5.44,0.454,8.043,0.454s5.273-0.155,8.043-0.454c6.044-0.653,11.423-1.753,20.566-3.981     c6.269-1.528,10.417-2.498,13.56-3.096c-0.002,0.161-0.001,0.315-0.003,0.477c-0.003,0.194-0.007,0.391-0.01,0.588     c-0.014,0.76-0.033,1.532-0.059,2.321c-0.003,0.086-0.005,0.17-0.008,0.257c-0.03,0.856-0.069,1.734-0.113,2.622     c-0.011,0.216-0.023,0.435-0.034,0.653c-0.047,0.864-0.099,1.738-0.161,2.63c-0.004,0.052-0.006,0.103-0.01,0.155     c-0.065,0.932-0.142,1.883-0.225,2.843c-0.02,0.234-0.041,0.469-0.062,0.704c-0.088,0.977-0.182,1.963-0.288,2.967     c-1.394,13.123-4.214,26.009-8.762,37.985c-7.022,18.492-17.642,33.478-32.433,43.985c-14.791-10.507-25.41-25.493-32.433-43.985     c-4.548-11.976-7.368-24.862-8.762-37.985c-0.107-1.004-0.2-1.99-0.288-2.967c-0.021-0.236-0.042-0.471-0.062-0.704     c-0.083-0.96-0.159-1.912-0.225-2.843c-0.004-0.052-0.006-0.103-0.01-0.155c-0.062-0.892-0.114-1.766-0.161-2.63     c-0.012-0.219-0.024-0.437-0.034-0.654c-0.045-0.887-0.084-1.763-0.113-2.617c-0.003-0.093-0.005-0.183-0.008-0.275     c-0.026-0.784-0.044-1.551-0.058-2.306c-0.004-0.197-0.007-0.394-0.01-0.589c-0.002-0.163-0.002-0.316-0.003-0.477     c3.143,0.598,7.29,1.568,13.56,3.096C232.341,22.981,237.721,24.081,243.764,24.734z M117.222,47.121     c5.609,8.24,8.682,17.973,8.682,28.193c0,27.813-22.547,50.361-50.361,50.361c-2.367,0-4.719-0.171-7.046-0.504     c2.567-6.726,5.48-13.547,8.587-20.211c12.568-26.387,28.557-50.828,36.518-55.89c0.003-0.002,0.007-0.005,0.011-0.007     c0.229-0.145,0.492-0.3,0.76-0.456C115.138,48.169,116.089,47.672,117.222,47.121z M147.723,419.146     c0.683-4.861,1.429-9.837,2.231-14.908c0.059-0.371,0.117-0.742,0.177-1.114c0.773-4.856,1.6-9.804,2.474-14.829     c0.124-0.714,0.251-1.432,0.377-2.148c0.331-1.882,0.669-3.775,1.014-5.678c0.12-0.665,0.239-1.327,0.361-1.994     c0.453-2.479,0.915-4.972,1.39-7.484c0.085-0.453,0.174-0.91,0.26-1.364c0.414-2.179,0.835-4.368,1.264-6.57     c0.122-0.626,0.245-1.253,0.368-1.881c0.506-2.579,1.02-5.167,1.546-7.774c14.671,3.618,25.476,16.795,25.476,32.473     c0,18.539-15.035,33.574-33.574,33.574c-1.11,0-2.23-0.072-3.375-0.215C147.715,419.204,147.719,419.175,147.723,419.146z      M354.449,409.354c2.287,14.991,4.004,28.768,5.093,41.152c0.017,0.193,0.034,0.387,0.051,0.579     c0.087,1.008,0.17,2.005,0.249,2.995c0.026,0.323,0.051,0.645,0.076,0.966c0.069,0.889,0.134,1.771,0.196,2.644     c0.03,0.42,0.058,0.837,0.086,1.253c0.053,0.787,0.105,1.57,0.152,2.344c0.03,0.498,0.057,0.988,0.085,1.48     c0.04,0.694,0.08,1.389,0.114,2.073c0.03,0.585,0.054,1.159,0.08,1.736c0.027,0.586,0.055,1.177,0.078,1.754     c0.035,0.898,0.064,1.781,0.091,2.659c0.007,0.238,0.018,0.484,0.024,0.721c-1.665,0.358-3.448,0.736-5.338,1.13     c-4.132,0.862-8.406,1.723-12.773,2.574c-5.513,1.073-11.18,2.129-16.943,3.143c-11.42,2.01-22.493,3.735-32.947,5.086     c-6.666,0.862-12.994,1.56-18.933,2.081c-3.468-7.583-5.297-15.819-5.297-24.309c0-32.447,26.307-58.754,58.754-58.754     C336.899,402.661,346.118,404.985,354.449,409.354z M442.6,158.922c-3.441,3.591-7.498,7.197-12.123,10.56     c-11.485,8.352-24.337,13.736-38.409,14.93l-14.79-44.37c-2.373-7.118-12.179-7.784-15.493-1.053     c-0.294,0.597-0.817,1.693-1.536,3.256c-1.183,2.568-2.496,5.534-3.907,8.864c-4.019,9.482-8.033,20.007-11.78,31.306     c-3.085,9.304-5.817,18.601-8.147,27.841c-3.012-0.426-6.034-0.648-9.067-0.648c-37.085,0-67.148,30.063-67.148,67.148     c0,37.085,30.063,67.148,67.148,67.148c5.009,0,9.952-0.577,14.782-1.681c0.732,3.495,1.458,7.004,2.172,10.532     c2.568,12.692,4.907,25.086,6.972,37.049c-7.637-2.575-15.687-3.93-23.926-3.93c-41.718,0-75.541,33.823-75.541,75.541     c0,8.749,1.521,17.294,4.412,25.358c-1.513,0.036-2.984,0.054-4.412,0.054c-11.22,0-25.106-1.118-41.02-3.178     c-10.451-1.353-21.519-3.078-32.935-5.089c-10.331-1.82-20.374-3.771-29.725-5.721c-1.89-0.394-3.673-0.772-5.338-1.13     c0.291-10.523,1.238-22.534,2.778-35.829c1.837,0.232,3.67,0.354,5.519,0.354c27.81,0,50.361-22.551,50.361-50.361     c0-23.776-16.535-43.712-38.851-48.918c2.672-12.556,5.435-24.83,8.2-36.546c1.37-5.805,2.641-11.055,3.781-15.657     c0.682-2.754,1.168-4.675,1.424-5.67c0.176-0.683,0.265-1.386,0.265-2.092c0-2.041-0.031-4.098-0.092-6.17     c-0.831-28.259-7.138-58.3-17.122-88.407c-3.747-11.299-7.761-21.824-11.78-31.306c-1.411-3.33-2.725-6.296-3.907-8.864     c-0.72-1.563-1.243-2.66-1.536-3.256c-3.314-6.731-13.12-6.065-15.493,1.053l-14.79,44.37     c-14.072-1.194-26.924-6.577-38.409-14.93c-4.624-3.363-8.681-6.969-12.123-10.56c-0.673-0.702-1.269-1.346-1.787-1.922     c0.841-4.91,2.135-10.213,3.777-15.739c4.117,0.788,8.308,1.201,12.539,1.201c37.085,0,67.148-30.063,67.148-67.148     c0-12.484-3.454-24.437-9.771-34.798c4.487-1.717,9.594-3.587,15.259-5.588c3.021-1.067,6.183-2.165,9.483-3.295     c8.696-2.977,17.79-5.988,28.241-9.377c0.679-0.22,3.606-1.165,6.936-2.24c0.005,0.309,0.018,0.625,0.025,0.935     c0.01,0.467,0.023,0.934,0.037,1.404c0.024,0.806,0.056,1.618,0.092,2.433c0.02,0.459,0.039,0.916,0.063,1.378     c0.047,0.918,0.105,1.843,0.168,2.772c0.024,0.356,0.043,0.709,0.069,1.067c0.094,1.285,0.202,2.579,0.326,3.882     c0.024,0.255,0.055,0.513,0.08,0.768c0.104,1.051,0.216,2.106,0.341,3.168c0.054,0.456,0.114,0.915,0.171,1.373     c0.11,0.875,0.224,1.752,0.348,2.634c0.071,0.502,0.144,1.006,0.22,1.51c0.129,0.863,0.265,1.728,0.408,2.595     c0.082,0.497,0.163,0.994,0.249,1.493c0.164,0.945,0.34,1.893,0.52,2.842c0.078,0.412,0.151,0.822,0.233,1.234     c0.269,1.358,0.553,2.72,0.858,4.085c0.038,0.168,0.081,0.337,0.119,0.506c0.271,1.196,0.555,2.394,0.855,3.593     c0.115,0.46,0.238,0.92,0.357,1.38c0.237,0.918,0.481,1.836,0.735,2.755c0.143,0.517,0.291,1.033,0.44,1.55     c0.254,0.883,0.517,1.765,0.787,2.648c0.157,0.513,0.314,1.026,0.477,1.539c0.297,0.937,0.608,1.873,0.925,2.81     c0.15,0.445,0.295,0.89,0.45,1.335c0.478,1.373,0.971,2.745,1.491,4.115c8.931,23.518,23.191,42.561,43.717,55.232     c2.703,1.668,6.115,1.668,8.818,0c20.526-12.671,34.787-31.714,43.717-55.232c0.52-1.369,1.014-2.741,1.491-4.115     c0.155-0.445,0.299-0.89,0.45-1.335c0.316-0.936,0.627-1.873,0.925-2.81c0.163-0.513,0.32-1.026,0.477-1.539     c0.271-0.884,0.533-1.767,0.788-2.65c0.148-0.515,0.296-1.03,0.439-1.546c0.255-0.921,0.499-1.841,0.737-2.762     c0.119-0.459,0.242-0.917,0.356-1.375c0.3-1.2,0.584-2.398,0.855-3.594c0.038-0.168,0.081-0.338,0.119-0.506     c0.305-1.365,0.589-2.727,0.858-4.085c0.081-0.411,0.154-0.819,0.232-1.229c0.181-0.952,0.358-1.902,0.522-2.85     c0.086-0.497,0.167-0.992,0.248-1.487c0.143-0.868,0.279-1.734,0.408-2.597c0.075-0.504,0.149-1.007,0.22-1.51     c0.124-0.881,0.238-1.758,0.348-2.634c0.057-0.458,0.118-0.917,0.171-1.373c0.125-1.061,0.237-2.117,0.341-3.168     c0.025-0.255,0.056-0.513,0.08-0.768c0.124-1.303,0.231-2.597,0.326-3.882c0.026-0.358,0.045-0.711,0.069-1.067     c0.062-0.928,0.12-1.854,0.168-2.772c0.024-0.462,0.043-0.919,0.063-1.378c0.036-0.816,0.067-1.627,0.092-2.433     c0.014-0.47,0.027-0.938,0.037-1.404c0.007-0.311,0.02-0.626,0.025-0.935c3.329,1.076,6.257,2.02,6.936,2.24     c10.451,3.389,19.545,6.4,28.241,9.377c3.3,1.13,6.462,2.228,9.483,3.295c5.666,2.001,10.773,3.871,15.26,5.588     c-6.318,10.364-9.774,22.317-9.774,34.797c0,37.085,30.063,67.148,67.148,67.148c4.234,0,8.423-0.412,12.54-1.201     c1.642,5.526,2.935,10.829,3.777,15.739C443.869,157.575,443.273,158.219,442.6,158.922z M328.151,258.462     c-0.008,0.095-0.017,0.191-0.025,0.286c-0.15,1.836-0.278,3.665-0.385,5.487c-0.015,0.251-0.034,0.503-0.049,0.754     c-0.108,1.952-0.196,3.898-0.253,5.833c-0.001,0.025,0,0.049-0.001,0.073c-0.06,2.044-0.091,4.076-0.091,6.096     c0,0.649,0.084,1.294,0.233,1.925c0.013,0.055,0.018,0.112,0.032,0.167c0.025,0.098,0.055,0.213,0.084,0.329     c0.193,0.754,0.505,1.988,0.925,3.673c0.19,0.763,0.388,1.559,0.589,2.375c0.028,0.112,0.055,0.224,0.083,0.336     c0.64,2.594,1.334,5.443,2.076,8.535c0.549,2.287,1.102,4.618,1.659,6.982c0.352,1.496,0.704,3,1.056,4.513     c0.214,0.922,0.429,1.855,0.645,2.787c0.148,0.643,0.297,1.288,0.445,1.934c1.139,4.964,2.285,10.059,3.43,15.271     c-3.683,0.859-7.447,1.299-11.257,1.299c-27.813,0-50.361-22.547-50.361-50.361s22.547-50.361,50.361-50.361     c1.779,0,3.56,0.104,5.346,0.306C330.549,237.436,329.012,248.048,328.151,258.462z"/>
			<path d="M226.627,142.465c-23.177,0-41.967,18.791-41.967,41.967c0,23.177,18.791,41.967,41.967,41.967     c23.177,0,41.967-18.791,41.967-41.967C268.594,161.255,249.804,142.465,226.627,142.465z M226.627,209.612     c-13.906,0-25.18-11.275-25.18-25.18c0-13.906,11.275-25.18,25.18-25.18c13.906,0,25.18,11.275,25.18,25.18     C251.807,198.338,240.532,209.612,226.627,209.612z"/>
		</g>
	</g>
</g>
<g>
</g>
<g>
</g>
<g>
</g>
<g>
</g>
<g>
</g>
<g>
</g>
<g>
</g>
<g>
</g>
<g>
</g>
<g>
</g>
<g>
</g>
<g>
</g>
<g>
</g>
<g>
</g>
<g>
</g>
</svg>
