<?xml version="1.0" encoding="iso-8859-1"?>
<!-- Generator: Adobe Illustrator 19.0.0, SVG Export Plug-In . SVG Version: 6.00 Build 0)  -->
<svg xmlns="http://www.w3.org/2000/svg" xmlns:xlink="http://www.w3.org/1999/xlink" version="1.1" id="Layer_1" x="0px" y="0px" viewBox="0 0 512.008 512.008" style="enable-background:new 0 0 512.008 512.008;" xml:space="preserve">
<g transform="translate(0 -1)">
	<g>
		<path d="M511.361,194.026L451.628,48.959c-0.893-2.168-2.639-3.874-4.827-4.716l-41.4-15.923c-0.399-0.234-0.815-0.45-1.264-0.623    L336.228,1.577c-1.101-0.424-2.217-0.595-3.302-0.566c-4.568-0.071-8.656,3.591-8.656,8.53c0,21.54-6.775,37.136-20.401,53.41    c-10.596,12.653-24.049,20.172-38.042,22.557c-0.098,0.016-0.197,0.029-0.296,0.045c-5.368,0.887-10.812,1.021-16.204,0.398    c-0.204-0.041-0.404-0.088-0.614-0.115c-6.709-0.848-13.217-2.834-19.333-5.893c-0.003-0.002-0.007-0.003-0.01-0.005    c-3.214-1.609-6.314-3.527-9.284-5.72c-0.318-0.235-0.639-0.463-0.954-0.705c-0.473-0.363-0.937-0.742-1.403-1.119    c-0.412-0.334-0.823-0.669-1.23-1.015c-0.417-0.354-0.828-0.717-1.239-1.084c-0.452-0.404-0.9-0.816-1.345-1.236    c-0.368-0.347-0.736-0.695-1.099-1.052c-0.5-0.492-0.992-1-1.482-1.512c-0.301-0.315-0.606-0.623-0.903-0.945    c-0.71-0.77-1.409-1.561-2.096-2.374c-0.066-0.078-0.134-0.15-0.2-0.228c-0.957-1.142-1.872-2.281-2.762-3.419    c-6.544-8.374-11.252-16.709-14.15-25.895c-2.312-7.331-3.486-15.203-3.486-24.093c0-4.866-3.966-8.502-8.452-8.541    c-1.035-0.009-2.098,0.173-3.146,0.576L65.207,44.243c-2.189,0.842-3.934,2.547-4.827,4.716L0.647,194.026    c-1.922,4.667,0.605,9.972,5.439,11.423l85.333,25.6c4.156,1.247,8.586-0.824,10.295-4.812l14.163-33.046l13.364,79.366    c0.142,0.711,0.275,1.424,0.413,2.136c0.025,0.329,0.068,0.661,0.132,0.994c2.129,11.07,3.755,22.208,4.872,33.372    c0.029,0.292,0.075,0.577,0.132,0.859c2.928,29.855,2.294,59.898-1.9,89.544c-0.143,0.446-0.256,0.906-0.325,1.382    c-1.301,8.938-2.654,16.799-4.207,24.205c-0.185,0.872-0.371,1.743-0.563,2.614c-0.054,0.245-0.105,0.494-0.159,0.738    l-0.775,3.489l-15.72,70.736c-1.184,5.329,2.871,10.385,8.33,10.385h273.067c5.459,0,9.514-5.055,8.33-10.385l-15.771-70.964    l-0.724-3.26c-0.053-0.238-0.103-0.482-0.156-0.721c-0.193-0.876-0.38-1.752-0.566-2.629c-1.553-7.406-2.906-15.268-4.207-24.206    c-0.07-0.478-0.183-0.939-0.326-1.386c-4.198-29.666-4.833-59.714-1.912-89.508c0.06-0.29,0.109-0.584,0.139-0.884    c1.128-11.19,2.757-22.33,4.882-33.378c0.065-0.336,0.107-0.67,0.132-1.001c0.122-0.624,0.237-1.248,0.362-1.871l13.41-79.626    l14.163,33.048c1.709,3.988,6.139,6.059,10.295,4.812l85.333-25.6C510.757,203.998,513.283,198.692,511.361,194.026z     M317.313,73.912c13.371-15.948,21.42-32.049,23.706-52.068l46.729,17.973l-49.369,70.52l-46.479-15.782    C301.348,89.612,309.974,82.667,317.313,73.912z M171.332,21.713c0.708,6.273,1.982,12.161,3.807,17.781    c3.576,11.011,9.279,20.986,16.989,30.798c0.948,1.208,1.917,2.414,2.926,3.618c0.874,1.043,1.768,2.052,2.673,3.039    c0.073,0.079,0.144,0.16,0.217,0.239c0.895,0.969,1.807,1.908,2.731,2.823c0.074,0.073,0.148,0.147,0.222,0.22    c0.96,0.944,1.935,1.859,2.923,2.745c0.009,0.008,0.019,0.017,0.028,0.025c5.19,4.648,10.766,8.502,16.597,11.561l-46.455,15.773    l-49.444-70.628L171.332,21.713z M148.443,410.605h215.122c0.939,5.706,2.001,11.396,3.193,17.067H145.25    C146.442,422.002,147.504,416.311,148.443,410.605z M361.146,299.675H150.854c-0.686-5.701-1.504-11.391-2.441-17.067h215.178    C362.653,288.281,361.833,293.971,361.146,299.675z M359.473,316.741c-1.949,25.552-1.393,51.282,1.667,76.797H150.867    c3.056-25.493,3.61-51.213,1.658-76.797H359.473z M130.109,495.941l11.379-51.203H370.52l11.379,51.203H130.109z M422.98,212.513    l-22.6-52.733c-3.354-7.827-14.844-6.452-16.258,1.945l-17.481,103.817h-221.28l-17.477-103.817    c-1.414-8.397-12.904-9.771-16.258-1.945l-22.6,52.733l-69.011-20.703L74.763,58.854l33.369-12.834l55.55,79.349    c2.176,3.108,6.142,4.406,9.734,3.186l75.165-25.522c5.035,0.499,10.102,0.491,15.135-0.025l75.239,25.547    c3.592,1.22,7.558-0.079,9.734-3.186l55.473-79.239l33.084,12.724l54.746,132.955L422.98,212.513z"/>
	</g>
</g>
<g>
</g>
<g>
</g>
<g>
</g>
<g>
</g>
<g>
</g>
<g>
</g>
<g>
</g>
<g>
</g>
<g>
</g>
<g>
</g>
<g>
</g>
<g>
</g>
<g>
</g>
<g>
</g>
<g>
</g>
</svg>
