<?xml version="1.0" encoding="iso-8859-1"?>
<!-- Generator: Adobe Illustrator 19.0.0, SVG Export Plug-In . SVG Version: 6.00 Build 0)  -->
<svg xmlns="http://www.w3.org/2000/svg" xmlns:xlink="http://www.w3.org/1999/xlink" version="1.1" id="Layer_1" x="0px" y="0px" viewBox="0 0 504.313 504.313" style="enable-background:new 0 0 504.313 504.313;" xml:space="preserve">
<g transform="translate(0 -1)">
	<g>
		<path d="M432.309,73.632c-8.193-10.859-16.957-20.856-25.725-29.779c-3.076-3.13-5.937-5.907-8.514-8.303    c-1.376-1.28-2.401-2.201-3.072-2.789c-4.107-4.037-9.587-6.732-15.774-7.309c-14.546-1.361-27.749-4.506-38.037-9.663    c-17.815-8.915-37.628-13.834-58.106-14.653c-0.22-0.009-0.44-0.019-0.659-0.027c-0.705-0.025-1.41-0.048-2.116-0.063    c-0.824-0.019-1.649-0.029-2.473-0.034C277.541,1.01,277.25,1,276.959,1h-49.605c-0.295,0-0.588,0.01-0.882,0.012    c-0.829,0.005-1.657,0.015-2.485,0.034c-0.697,0.015-1.393,0.038-2.089,0.063c-0.26,0.01-0.52,0.021-0.78,0.032    c-20.437,0.833-40.209,5.749-57.986,14.646c-10.295,5.161-23.494,8.305-38.044,9.666c-6.187,0.577-11.667,3.272-15.774,7.31    c-0.671,0.588-1.695,1.509-3.07,2.787c-2.577,2.396-5.439,5.173-8.514,8.303c-8.768,8.924-17.532,18.92-25.725,29.779    c-23.735,31.456-38.075,63.693-38.075,95.239c0,3.613,2.312,6.82,5.739,7.963l75.541,25.18c3.725,1.242,7.813-0.265,9.841-3.627    l12.454-20.642c5.1,8.764,8.676,17.654,10.408,26.346c0.557,2.792,1.08,5.752,1.567,8.869c4.226,27.019,1.895,55.492-6.476,83.648    c-15.595,52.504-25.142,112.659-25.142,191.211c0,3.613,2.312,6.82,5.739,7.963c0.981,0.327,2.731,0.864,5.167,1.541    c3.996,1.11,8.507,2.216,13.453,3.246c23.371,4.869,47.561,6.419,70.406,2.611c4.782-0.797,9.443-1.827,13.971-3.101    c16.668-4.693,34.457-4.693,51.116,0c4.529,1.275,9.19,2.305,13.973,3.102c22.846,3.808,47.035,2.258,70.406-2.611    c4.945-1.03,9.457-2.136,13.453-3.246c2.436-0.677,4.186-1.214,5.167-1.541c3.427-1.142,5.739-4.35,5.739-7.963    c0-80.183-9.067-143.508-23.161-190.957c-8.371-28.168-10.702-56.632-6.477-83.647c0.465-2.978,0.986-5.915,1.572-8.895    c1.914-9.602,4.813-18.334,8.703-26.112l12.175,20.179c2.028,3.362,6.116,4.868,9.841,3.627l75.541-25.18    c3.427-1.142,5.739-4.35,5.739-7.963C470.384,137.326,456.045,105.089,432.309,73.632z M227.354,17.79h49.605    c11.112,0,22.214,1.455,33.01,4.305c-0.622,3.142-1.409,6.82-2.367,10.902c-2.97,12.661-6.687,25.207-11.184,36.782    c-12.013,30.918-27.161,48.733-44.262,48.733c-17.133,0-32.354-17.844-44.464-48.79c-4.529-11.575-8.279-24.115-11.282-36.764    c-0.961-4.048-1.75-7.684-2.375-10.792C204.918,19.268,216.122,17.79,227.354,17.79z M114.146,183.965L50.92,162.89    c1.73-25.47,14.327-52.434,34.483-79.146c5.44-7.209,11.161-14.032,16.963-20.383c0.027,0.365,0.058,0.727,0.086,1.091    c0.056,0.725,0.112,1.45,0.17,2.172c0.055,0.681,0.114,1.359,0.172,2.038c0.057,0.666,0.113,1.334,0.172,1.997    c0.08,0.888,0.164,1.771,0.248,2.653c0.053,0.552,0.104,1.105,0.159,1.655c0.119,1.206,0.243,2.406,0.371,3.601    c0.049,0.454,0.101,0.904,0.151,1.357c0.099,0.892,0.198,1.783,0.302,2.668c0.055,0.473,0.113,0.943,0.17,1.414    c0.106,0.875,0.213,1.748,0.324,2.617c0.057,0.443,0.114,0.885,0.172,1.326c0.12,0.918,0.243,1.831,0.369,2.741    c0.053,0.381,0.105,0.762,0.159,1.141c0.146,1.034,0.297,2.062,0.451,3.085c0.037,0.245,0.073,0.493,0.11,0.738    c0.604,3.957,1.267,7.832,1.989,11.617c0.019,0.101,0.039,0.201,0.059,0.302c0.221,1.151,0.448,2.293,0.68,3.427    c0.031,0.153,0.063,0.305,0.094,0.457c0.23,1.115,0.466,2.221,0.708,3.318c0.026,0.116,0.051,0.233,0.077,0.349    c1.369,6.181,2.918,12.083,4.659,17.663c0.002,0.006,0.004,0.013,0.006,0.019c0.346,1.109,0.701,2.206,1.062,3.289    c0.007,0.021,0.014,0.043,0.021,0.064c1.831,5.48,3.861,10.623,6.101,15.384c0.002,0.004,0.004,0.008,0.006,0.012    c0.437,0.927,0.882,1.839,1.334,2.736c0.024,0.047,0.047,0.094,0.071,0.14c0.448,0.885,0.903,1.755,1.366,2.61    c0.012,0.022,0.023,0.044,0.035,0.065c0.97,1.786,1.971,3.515,3.012,5.169L114.146,183.965z M341.918,201.062    c-0.631,3.211-1.191,6.363-1.69,9.563c-4.624,29.566-2.088,60.537,6.971,91.019c13.263,44.654,21.988,104.3,22.447,179.889    c-3.302,0.887-6.98,1.77-10.977,2.602c-21.505,4.48-43.722,5.904-64.223,2.487c-4.192-0.699-8.257-1.597-12.183-2.702    c-19.633-5.53-40.571-5.53-60.214,0c-3.926,1.105-7.991,2.003-12.182,2.702c-20.501,3.417-42.717,1.993-64.223-2.487    c-3.996-0.832-7.673-1.715-10.975-2.602c0.494-73.776,9.689-130.528,24.426-180.143c9.058-30.47,11.595-61.45,6.97-91.021    c-0.522-3.343-1.086-6.534-1.69-9.56c-2.97-14.902-10.135-29.761-20.408-43.763c-11.87-16.17-19.321-44.262-23.164-77.222    c-1.059-9.088-1.845-18.546-2.373-28.229c-0.137-2.529,0.814-4.925,2.63-6.75c0.132-0.133,0.239-0.282,0.36-0.421    c1.399-1.24,3.197-2.067,5.228-2.256c16.452-1.538,31.573-5.141,44.001-11.371c2.401-1.202,4.851-2.313,7.335-3.35    c0.588,2.826,1.28,5.962,2.094,9.389c3.171,13.358,7.138,26.624,11.982,39.004c14.404,36.81,33.726,59.46,60.097,59.46    c26.358,0,45.612-22.643,59.909-59.44c4.811-12.382,8.743-25.656,11.88-39.028c0.811-3.457,1.507-6.644,2.093-9.503    c2.586,1.072,5.134,2.222,7.631,3.471c12.42,6.226,27.545,9.829,43.993,11.368c2.033,0.19,3.833,1.017,5.232,2.258    c0.121,0.139,0.227,0.288,0.359,0.42c1.816,1.825,2.767,4.222,2.63,6.753c-0.495,9.085-1.221,17.968-2.183,26.537    c-3.784,33.687-11.283,62.467-23.353,78.911C351.295,169.382,345.272,184.236,341.918,201.062z M390.167,183.965l-13.086-21.689    c1.04-1.652,2.039-3.379,3.008-5.163c0.015-0.028,0.03-0.057,0.045-0.085c0.459-0.847,0.91-1.71,1.354-2.586    c0.028-0.054,0.055-0.109,0.083-0.164c0.448-0.888,0.888-1.79,1.32-2.708c0.006-0.013,0.012-0.025,0.018-0.038    c2.237-4.754,4.263-9.889,6.092-15.36c0.01-0.031,0.021-0.062,0.031-0.093c0.358-1.072,0.708-2.156,1.051-3.253    c0.005-0.018,0.011-0.035,0.017-0.053c1.738-5.573,3.285-11.468,4.653-17.641c0.027-0.122,0.054-0.244,0.081-0.367    c0.241-1.094,0.476-2.195,0.705-3.306c0.032-0.154,0.064-0.307,0.095-0.461c0.232-1.133,0.459-2.273,0.679-3.423    c0.02-0.102,0.04-0.204,0.06-0.307c0.722-3.784,1.385-7.657,1.988-11.613c0.038-0.248,0.074-0.499,0.112-0.748    c0.153-1.02,0.304-2.044,0.45-3.075c0.054-0.382,0.107-0.765,0.16-1.148c0.125-0.907,0.248-1.818,0.368-2.733    c0.058-0.443,0.116-0.887,0.172-1.332c0.111-0.87,0.218-1.744,0.324-2.621c0.056-0.467,0.113-0.933,0.168-1.402    c0.105-0.894,0.205-1.793,0.305-2.693c0.049-0.445,0.1-0.887,0.148-1.333c0.128-1.189,0.251-2.385,0.37-3.585    c0.056-0.566,0.109-1.135,0.163-1.703c0.083-0.872,0.166-1.745,0.245-2.623c0.06-0.668,0.116-1.341,0.173-2.012    c0.057-0.673,0.115-1.346,0.17-2.022c0.059-0.724,0.115-1.45,0.171-2.177c0.028-0.364,0.058-0.725,0.086-1.09    c5.802,6.351,11.523,13.174,16.963,20.383c20.156,26.713,32.753,53.676,34.483,79.146L390.167,183.965z"/>
	</g>
</g>
<g>
</g>
<g>
</g>
<g>
</g>
<g>
</g>
<g>
</g>
<g>
</g>
<g>
</g>
<g>
</g>
<g>
</g>
<g>
</g>
<g>
</g>
<g>
</g>
<g>
</g>
<g>
</g>
<g>
</g>
</svg>
