<?xml version="1.0" encoding="iso-8859-1"?>
<!-- Generator: Adobe Illustrator 19.0.0, SVG Export Plug-In . SVG Version: 6.00 Build 0)  -->
<svg xmlns="http://www.w3.org/2000/svg" xmlns:xlink="http://www.w3.org/1999/xlink" version="1.1" id="Layer_1" x="0px" y="0px" viewBox="0 0 512.004 512.004" style="enable-background:new 0 0 512.004 512.004;" xml:space="preserve">
<g transform="translate(-1 -1)">
	<g>
		<path d="M444.735,470.337c-27.827,0-45.805-30.203-54.516-82.47c-4.754-28.526-6.023-58.548-5.361-83.8    c0.051-1.957,0.102-3.31,0.134-3.991c0.01-55.877-24.138-93.823-64.023-116.615c-4.718-2.696-9.544-5.103-14.439-7.253    l35.056-77.835c0.496-1.102,0.753-2.296,0.753-3.504c0-17.741,3.057-35.318,8.156-51.89c1.785-5.802,3.694-11.052,5.596-15.647    c1.12-2.706,1.969-4.556,2.414-5.447c2.516-5.033-0.442-11.08-5.959-12.184l-42.667-8.533c-5.28-1.056-10.207,2.983-10.207,8.368    c0,14.894-7.3,24.019-20.349,29.456c-4.86,2.025-10.168,3.352-15.492,4.091c-3.181,0.442-5.596,0.586-6.826,0.586    s-3.645-0.144-6.826-0.586c-5.324-0.74-10.632-2.066-15.492-4.091c-13.049-5.437-20.349-14.562-20.349-29.456    c0-5.385-4.926-9.424-10.207-8.368l-42.667,8.533c-5.517,1.103-8.475,7.151-5.959,12.184c0.445,0.891,1.294,2.74,2.414,5.447    c1.901,4.595,3.81,9.845,5.596,15.647c5.099,16.572,8.156,34.149,8.156,51.89c0,1.208,0.257,2.402,0.753,3.504l35.049,77.836    c-4.895,2.15-9.721,4.557-14.438,7.253c-39.885,22.792-64.033,60.738-64.033,116.209c0.042,1.087,0.093,2.44,0.144,4.397    c0.661,25.252-0.607,55.274-5.361,83.8c-8.711,52.267-26.689,82.47-54.516,82.47c-8.201,0-11.681,10.44-5.12,15.36    c5.298,3.973,17.58,9.237,39.468,14.288c35.349,8.158,85.58,13.019,153.385,13.019s118.036-4.861,153.385-13.019    c21.888-5.051,34.17-10.315,39.468-14.288C456.416,480.777,452.936,470.337,444.735,470.337z M188.729,93.015    c-0.203-18.95-3.509-37.531-8.901-55.055c-1.505-4.89-3.094-9.433-4.707-13.585l23.052-4.61    c3.104,16.808,14.043,28.353,29.95,34.981c10.836,4.515,21.455,5.99,28.882,5.99s18.047-1.475,28.882-5.99    c15.908-6.628,26.847-18.173,29.951-34.981l23.052,4.61c-1.613,4.152-3.202,8.695-4.707,13.585    c-5.392,17.523-8.697,36.104-8.901,55.054l-34.747,77.149c-3.492-1.119-6.999-2.121-10.509-3.007    c-0.071-0.018-0.142-0.035-0.213-0.052c-0.723-0.182-1.445-0.362-2.168-0.534c-8.669-2.064-15.522-3.062-19.722-3.386    c-0.099-0.008-0.212-0.018-0.305-0.025l-1.224,0c-0.053,0.004-0.119,0.01-0.174,0.014c-4.187,0.312-11.097,1.31-19.861,3.397    c-0.723,0.172-1.445,0.353-2.168,0.534c-0.071,0.018-0.141,0.034-0.212,0.052c-3.51,0.887-7.017,1.889-10.51,3.008L188.729,93.015    z M406.55,483.356c-5.941,1.371-12.351,2.645-19.222,3.817c-27.06-19.263-53.526-58.52-53.526-85.103    c0-4.713-3.82-8.533-8.533-8.533s-8.533,3.82-8.533,8.533c0,28.272,21.788,64.649,47.682,88.406    c-16.663,2.009-35.508,3.513-56.673,4.428c-0.003-0.009-0.005-0.017-0.007-0.026c-0.393-1.451-1.771-6.48-1.839-6.731    c-2.891-10.6-4.396-17.015-5.361-23.696c-0.576-3.985-0.871-7.687-0.871-11.177c0-4.713-3.82-8.533-8.533-8.533    c-4.713,0-8.533,3.82-8.533,8.533c0,4.354,0.359,8.863,1.046,13.617c1.092,7.559,2.723,14.514,5.787,25.747    c0.037,0.135,0.391,1.428,0.786,2.872c-10.55,0.279-21.61,0.426-33.217,0.426c-12.368,0-24.126-0.164-35.295-0.481    c0.563-1.724,1.251-3.805,2.114-6.408c3.215-9.701,4.874-15.376,6.117-21.741c0.961-4.919,1.466-9.549,1.466-14.033    c0-4.713-3.82-8.533-8.533-8.533s-8.533,3.82-8.533,8.533c0,3.308-0.388,6.862-1.149,10.762    c-1.064,5.451-2.568,10.595-5.566,19.642c-1.78,5.37-2.851,8.628-3.624,11.126c-20.249-0.923-38.343-2.391-54.41-4.328    c25.895-23.757,47.682-60.134,47.682-88.406c0-4.713-3.82-8.533-8.533-8.533s-8.533,3.82-8.533,8.533    c0,26.583-26.466,65.84-53.526,85.103c-6.871-1.173-13.281-2.446-19.222-3.817c-4.138-0.955-7.931-1.93-11.394-2.914    c23.015-13.355,37.138-45.246,44.559-89.768c4.965-29.788,6.275-60.806,5.588-87.053c-0.055-2.082-0.11-3.556-0.148-4.356    c0.01-48.656,20.662-81.11,55.443-100.985c6.693-3.825,13.671-7.005,20.774-9.637c1.726-0.64,3.446-1.238,5.16-1.805    c0.546-0.18,1.092-0.361,1.639-0.535c0.733-0.234,1.466-0.463,2.196-0.684c1.244-0.375,2.489-0.74,3.736-1.083    c0.395-0.109,0.786-0.208,1.18-0.313c1.131-0.301,2.263-0.59,3.395-0.866c0.435-0.106,0.872-0.215,1.305-0.316    c0.45-0.105,0.889-0.202,1.332-0.302c0.676-0.152,1.353-0.305,2.023-0.446c0.23-0.048,0.452-0.091,0.68-0.138    c0.844-0.173,1.686-0.344,2.52-0.5c0.764-0.143,1.515-0.278,2.252-0.403c0.361-0.062,0.708-0.117,1.059-0.174    c0.626-0.101,1.245-0.198,1.849-0.287c0.857-0.126,1.69-0.243,2.469-0.339c0.824-0.102,1.473-0.173,1.937-0.218    c0.851,0.081,2.176,0.234,3.92,0.484c0.932,0.133,1.893,0.283,2.878,0.447c0.091,0.015,0.187,0.032,0.279,0.048    c0.816,0.138,1.654,0.289,2.504,0.449c0.794,0.149,1.596,0.312,2.399,0.477c0.266,0.055,0.525,0.104,0.794,0.161    c0.649,0.137,1.305,0.285,1.959,0.432c0.461,0.104,0.919,0.204,1.387,0.314c0.426,0.1,0.855,0.207,1.283,0.311    c1.133,0.275,2.266,0.565,3.399,0.867c0.397,0.106,0.792,0.206,1.19,0.315c1.24,0.34,2.478,0.704,3.715,1.077    c0.745,0.225,1.492,0.459,2.24,0.698c0.52,0.165,1.039,0.337,1.559,0.509c1.786,0.591,3.579,1.214,5.377,1.883    c7.046,2.62,13.968,5.781,20.609,9.576c34.735,19.849,55.379,52.243,55.434,101.197c-0.037,0.836-0.088,2.234-0.138,4.144    c-0.687,26.247,0.623,57.264,5.588,87.053c7.42,44.522,21.544,76.413,44.559,89.768    C414.481,481.426,410.688,482.401,406.55,483.356z"/>
	</g>
</g>
<g>
</g>
<g>
</g>
<g>
</g>
<g>
</g>
<g>
</g>
<g>
</g>
<g>
</g>
<g>
</g>
<g>
</g>
<g>
</g>
<g>
</g>
<g>
</g>
<g>
</g>
<g>
</g>
<g>
</g>
</svg>
