<?xml version="1.0" encoding="iso-8859-1"?>
<!-- Generator: Adobe Illustrator 19.0.0, SVG Export Plug-In . SVG Version: 6.00 Build 0)  -->
<svg xmlns="http://www.w3.org/2000/svg" xmlns:xlink="http://www.w3.org/1999/xlink" version="1.1" id="Layer_1" x="0px" y="0px" viewBox="0 0 512 512" style="enable-background:new 0 0 512 512;" xml:space="preserve">
<g transform="translate(-1 -1)">
	<g>
		<g>
			<path d="M461.801,444.359c-0.188-57.671-40.239-151.234-98.012-254.874c-2.242-4.023-4.201-8.157-5.881-12.373     c-0.009-0.022-0.013-0.045-0.022-0.068c-5.9-14.828-8.234-31.005-6.973-47.39c0.049-0.631,0.026-1.249-0.058-1.85     c1.412-14.91,5.974-29.572,13.702-42.924c1.349-2.34,2.746-4.657,4.218-7.011c18.159-28.999,2.323-67.115-31.065-74.372     C329.066,1.624,321.563,1,316.733,1c-24.165,0-41.964,5.34-54.187,14.507c-2.107,1.58-3.948,3.185-5.547,4.779     c-1.598-1.594-3.44-3.199-5.547-4.779C239.23,6.34,221.431,1,197.266,1c-4.83,0-12.333,0.624-20.974,2.498     c-33.391,7.258-49.228,45.374-31.066,74.377c1.47,2.35,2.866,4.667,4.209,6.996c7.727,13.352,12.29,28.01,13.705,42.915     c-0.087,0.608-0.111,1.234-0.062,1.874c1.268,16.364-1.066,32.544-6.966,47.389c-0.006,0.016-0.009,0.031-0.015,0.047     c-1.681,4.222-3.643,8.362-5.888,12.39C92.436,293.126,52.386,386.689,52.2,444.331c-0.299,4.024,0.561,9.12,3.34,14.807     c3.936,8.053,11.081,15.748,21.945,22.661C108.451,501.505,165.924,513,256.999,513s148.548-11.495,179.515-31.201     c10.864-6.913,18.009-14.608,21.945-22.661C461.238,453.452,462.098,448.356,461.801,444.359z M180.684,137.533h152.629     c-0.026,11.487,1.547,22.982,4.731,34.133H175.954C179.137,160.516,180.711,149.021,180.684,137.533z M179.912,20.176     c4.256-0.923,8.483-1.52,12.462-1.851c2.349-0.195,4.049-0.259,4.892-0.259c20.635,0,34.836,4.26,43.947,11.093     c4.915,3.686,7.144,7.029,7.691,8.672c2.593,7.78,13.598,7.78,16.191,0c0.548-1.643,2.776-4.985,7.691-8.672     c9.111-6.833,23.311-11.093,43.947-11.093c0.842,0,2.543,0.063,4.892,0.259c3.979,0.331,8.205,0.928,12.466,1.852     c21.792,4.737,32.13,29.619,20.219,48.64c-1.579,2.524-3.08,5.016-4.529,7.528c-7.984,13.795-13.058,28.792-15.238,44.122     H179.455c-2.181-15.333-7.257-30.333-15.243-44.134c-1.442-2.501-2.943-4.992-4.52-7.513     C147.779,49.796,158.117,24.913,179.912,20.176z M443.125,451.644c-2.502,5.12-7.476,10.476-15.774,15.756     c-3.193,2.032-6.76,3.97-10.677,5.817c-27.81-20.429-57.271-62.505-57.271-88.22c0-4.713-3.821-8.533-8.533-8.533     s-8.533,3.821-8.533,8.533c0,29.304,27.006,70.611,55.882,95.342c-20.566,6.511-47.698,11.221-82.142,13.669     c-0.456-1.673-1.546-5.642-1.694-6.179c-4.032-14.716-5.736-22.882-6.12-31.651c-0.043-0.986-0.065-1.958-0.065-2.916     c0-4.713-3.82-8.533-8.533-8.533s-8.533,3.82-8.533,8.533c0,1.21,0.027,2.43,0.081,3.662c0.456,10.422,2.357,19.528,6.716,35.435     c0.079,0.288,0.385,1.4,0.73,2.659c-12.963,0.598-26.823,0.914-41.658,0.914s-28.695-0.316-41.658-0.914     c0.345-1.258,0.651-2.369,0.73-2.658c4.359-15.907,6.26-25.013,6.716-35.436c0.054-1.232,0.081-2.452,0.081-3.662     c0-4.713-3.82-8.533-8.533-8.533s-8.533,3.82-8.533,8.533c0,0.958-0.022,1.93-0.065,2.916c-0.384,8.768-2.088,16.935-6.12,31.651     c-0.148,0.538-1.238,4.507-1.694,6.179c-34.449-2.448-61.583-7.159-82.15-13.671c28.882-24.734,55.895-66.038,55.895-95.34     c0-4.713-3.82-8.533-8.533-8.533s-8.533,3.821-8.533,8.533c0,25.71-29.467,67.782-57.284,88.216     c-3.914-1.846-7.479-3.783-10.67-5.814c-8.298-5.281-13.272-10.637-15.774-15.756c-1.387-2.837-1.738-4.919-1.656-6.021     c0.049-54.381,39.569-146.777,95.899-247.829c1.655-2.97,3.163-5.996,4.554-9.062h174.658c1.391,3.065,2.899,6.092,4.554,9.061     c56.33,101.052,95.85,193.448,95.85,246.939C444.863,446.725,444.512,448.807,443.125,451.644z"/>
			<path d="M216.071,492.361c-0.009,0.035-0.018,0.066-0.027,0.101C216.103,492.248,216.104,492.242,216.071,492.361z"/>
			<path d="M297.954,492.462c-0.01-0.035-0.018-0.067-0.028-0.102C297.894,492.242,297.896,492.249,297.954,492.462z"/>
		</g>
	</g>
</g>
<g>
</g>
<g>
</g>
<g>
</g>
<g>
</g>
<g>
</g>
<g>
</g>
<g>
</g>
<g>
</g>
<g>
</g>
<g>
</g>
<g>
</g>
<g>
</g>
<g>
</g>
<g>
</g>
<g>
</g>
</svg>
