<?xml version="1.0" encoding="iso-8859-1"?>
<!-- Generator: Adobe Illustrator 19.0.0, SVG Export Plug-In . SVG Version: 6.00 Build 0)  -->
<svg xmlns="http://www.w3.org/2000/svg" xmlns:xlink="http://www.w3.org/1999/xlink" version="1.1" id="Layer_1" x="0px" y="0px" viewBox="0 0 511.689 511.689" style="enable-background:new 0 0 511.689 511.689;" xml:space="preserve">
<g>
	<g>
		<path d="M400.615,485.689c-4.531-142.701-43.961-273.266-96.126-329.767c-0.268-0.29-0.559-0.551-0.861-0.798    c19.464-33.214,33.79-67.491,42.536-102.781c0.878-3.543,1.843-7.006,2.88-10.376c1.784-5.798,3.693-11.045,5.594-15.637    c1.119-2.705,1.968-4.554,2.413-5.444c2.516-5.033-0.442-11.08-5.959-12.184l-42.667-8.533c-5.28-1.056-10.207,2.983-10.207,8.368    c0,14.894-7.3,24.02-20.349,29.456c-4.86,2.025-10.168,3.352-15.492,4.091c-3.181,0.442-5.596,0.586-6.826,0.586    s-3.645-0.144-6.826-0.586c-5.324-0.739-10.632-2.066-15.492-4.091c-13.049-5.437-20.349-14.562-20.349-29.456    c0-5.385-4.927-9.424-10.207-8.368l-42.667,8.533c-5.517,1.104-8.475,7.151-5.959,12.184c0.445,0.891,1.294,2.739,2.413,5.444    c1.901,4.592,3.809,9.839,5.594,15.637c1.037,3.37,2.002,6.832,2.88,10.375c8.747,35.29,23.073,69.568,42.536,102.781    c-0.301,0.247-0.592,0.508-0.86,0.798c-51.975,56.287-91.028,186.673-95.572,329.768c-0.406,12.713,8.706,23.667,21.124,25.876    l1.849,0.124c0.723-0.03,1.441-0.076,2.162-0.116h255.459c0.527,0.027,1.048-0.004,1.562-0.074    c0.264-0.032,0.523-0.075,0.775-0.129c0.008-0.002,0.016-0.003,0.024-0.005c2.29-0.495,4.076-1.856,5.214-3.622    c0.076-0.114,0.146-0.231,0.216-0.349c0.061-0.104,0.116-0.212,0.172-0.318c0.154-0.287,0.292-0.583,0.413-0.891    c0.014-0.034,0.026-0.069,0.039-0.104c0.116-0.308,0.216-0.624,0.297-0.951c0.047-0.186,0.088-0.373,0.124-0.561    c0.017-0.097,0.041-0.191,0.055-0.29c0.081-0.527,0.108-1.062,0.092-1.597c0.005-0.822,0.011-2,0.017-3.433    c0.009-2.334,0.013-3.376,0.016-4.944C400.663,489.885,400.654,486.902,400.615,485.689z M383.557,486.231    c-19.208-14.458-36.678-31.205-52.429-49.933c-0.189-0.226-0.382-0.447-0.571-0.674c-0.145-0.174-0.287-0.351-0.432-0.525    c-19.322-23.263-36.071-49.561-50.28-78.421c-0.017-0.035-0.037-0.065-0.055-0.099c-13.643-27.719-24.606-57.361-32.741-86.631    c-0.423-1.53-0.839-3.059-1.247-4.587c-0.02-0.075-0.041-0.15-0.061-0.225c-8.432-31.646-13.568-62.712-15.234-89.864    c-0.026-0.436-0.054-0.873-0.078-1.307c-0.056-0.971-0.106-1.935-0.153-2.896c-0.013-0.277-0.023-0.55-0.036-0.826h64.177    C342.139,224.755,379.218,349.598,383.557,486.231z M178.372,36.947c-1.503-4.885-3.092-9.423-4.703-13.571l23.052-4.61    c3.104,16.808,14.043,28.353,29.95,34.981c10.836,4.515,21.455,5.99,28.882,5.99c7.427,0,18.047-1.475,28.882-5.99    c15.908-6.628,26.847-18.173,29.951-34.981l23.052,4.61c-1.611,4.148-3.2,8.686-4.703,13.571    c-1.129,3.668-2.179,7.435-3.134,11.291c-8.923,36.003-23.959,71.003-44.672,104.939h-58.749    c-20.713-33.936-35.749-68.935-44.672-104.939C180.55,44.381,179.501,40.614,178.372,36.947z M213.34,174.209    c0.027,0.501,0.064,1.011,0.094,1.515c0.01,0.17,0.021,0.341,0.032,0.512c1.823,30.214,7.659,64.294,17.296,98.83    c0.265,0.955,0.533,1.91,0.804,2.865c0.161,0.566,0.323,1.133,0.487,1.699c5.039,17.557,11.039,35.171,17.987,52.331    c4.305,10.631,8.93,20.993,13.857,31.085c-0.031,0.928-0.069,1.854-0.118,2.777c-0.003,0.052-0.004,0.105-0.007,0.157    c-0.056,1.025-0.126,2.046-0.204,3.064c-0.006,0.079-0.01,0.159-0.016,0.238c-0.079,1.004-0.172,2.004-0.273,3.002    c-0.009,0.091-0.016,0.183-0.025,0.274c-0.101,0.983-0.216,1.963-0.338,2.94c-0.013,0.105-0.024,0.21-0.037,0.314    c-0.124,0.975-0.261,1.946-0.406,2.914c-0.015,0.104-0.028,0.208-0.044,0.311c-0.15,0.989-0.313,1.974-0.484,2.956    c-0.014,0.079-0.026,0.16-0.04,0.239c-0.177,1.005-0.366,2.005-0.565,3.002c-0.011,0.056-0.021,0.112-0.032,0.168    c-0.207,1.031-0.426,2.058-0.656,3.081c-0.004,0.02-0.008,0.039-0.013,0.059c-13.193,58.549-64.013,102.836-126.106,105.974    c-0.098,0.005-0.188,0.02-0.285,0.028c-3.681-1.072-6.269-4.473-6.146-8.313C132.351,352.454,167.459,230.436,213.34,174.209z     M198.511,494.506c27.683-14.426,50.369-37.029,64.904-64.603c0.025-0.047,0.05-0.095,0.075-0.142    c0.641-1.219,1.267-2.446,1.875-3.684c0.01-0.02,0.02-0.041,0.03-0.061c1.857-3.78,3.563-7.647,5.11-11.594    c0.054-0.137,0.105-0.274,0.158-0.411c0.437-1.125,0.862-2.257,1.273-3.395c0.089-0.246,0.177-0.493,0.265-0.74    c0.379-1.066,0.746-2.138,1.103-3.215c0.082-0.248,0.166-0.496,0.247-0.745c0.386-1.189,0.759-2.384,1.117-3.586    c0.033-0.112,0.069-0.222,0.102-0.334c0.791-2.678,1.51-5.386,2.156-8.122c0.061-0.258,0.117-0.518,0.177-0.777    c0.248-1.074,0.486-2.152,0.711-3.235c0.026-0.125,0.056-0.249,0.082-0.374c19.091,33.3,41.975,62.96,68.717,88.056    c0.22,0.207,0.44,0.414,0.661,0.62c1.815,1.694,3.647,3.368,5.497,5.02c0.21,0.187,0.417,0.377,0.627,0.564    c4.045,3.592,8.172,7.085,12.385,10.472c0.117,0.094,0.231,0.193,0.349,0.287H198.511z"/>
	</g>
</g>
<g>
</g>
<g>
</g>
<g>
</g>
<g>
</g>
<g>
</g>
<g>
</g>
<g>
</g>
<g>
</g>
<g>
</g>
<g>
</g>
<g>
</g>
<g>
</g>
<g>
</g>
<g>
</g>
<g>
</g>
</svg>
