<?xml version="1.0" encoding="iso-8859-1"?>
<!-- Generator: Adobe Illustrator 19.0.0, SVG Export Plug-In . SVG Version: 6.00 Build 0)  -->
<svg xmlns="http://www.w3.org/2000/svg" xmlns:xlink="http://www.w3.org/1999/xlink" version="1.1" id="Layer_1" x="0px" y="0px" viewBox="0 0 512.002 512.002" style="enable-background:new 0 0 512.002 512.002;" xml:space="preserve">
<g transform="translate(0 -1)">
	<g>
		<path d="M434.854,419.365c-1.157-13.866-6.041-28.345-13.429-42.832c-2.932-5.75-6.069-11.113-9.211-15.959    c-1.905-2.938-3.411-5.081-4.32-6.293c-22.712-25.04-39.639-47.791-51.909-68.836c-6.689-11.472-11.132-24.013-13.351-37.072    c-0.005-0.41-0.029-0.823-0.096-1.242c-1.643-10.361-1.867-21.055-0.695-31.878c0.052-0.484,0.051-0.96,0.024-1.43    c1.106-9.227,3.235-18.477,6.408-27.58c4.445-12.762,7.284-26.155,8.86-39.408c0.551-4.635,0.906-8.93,1.104-12.788    c0.121-2.354,0.162-4.07,0.162-5.046c0-30.168-1.616-59.248-4.309-86.182c-0.944-9.438-1.956-17.939-2.969-25.371    c-0.356-2.611-0.687-4.904-0.986-6.864c-0.181-1.19-0.313-2.013-0.386-2.452C349.066,4.016,345.506,1,341.334,1h-34.133    c-2.756,0-5.342,1.331-6.944,3.573c-20.771,29.08-35.056,68.537-44.256,112.135c-9.201-43.6-23.485-83.056-44.256-112.135    C210.143,2.331,207.557,1,204.801,1h-34.133c-4.171,0-7.731,3.016-8.417,7.13c-0.073,0.439-0.205,1.262-0.386,2.452    c-0.298,1.96-0.63,4.253-0.986,6.864c-1.013,7.432-2.025,15.933-2.969,25.371c-2.693,26.935-4.309,56.014-4.309,86.182    c0,0.977,0.041,2.692,0.162,5.046c0.198,3.858,0.553,8.153,1.104,12.788c1.576,13.254,4.415,26.647,8.86,39.407    c3.172,9.1,5.301,18.348,6.407,27.573c-0.028,0.472-0.029,0.951,0.023,1.438c1.172,10.823,0.948,21.517-0.695,31.878    c-0.067,0.422-0.091,0.838-0.096,1.251c-2.22,13.056-6.662,25.594-13.35,37.063c-12.27,21.045-29.197,43.797-51.397,68.216    c-1.421,1.832-2.927,3.975-4.832,6.913c-3.142,4.846-6.278,10.209-9.211,15.959c-7.388,14.487-12.272,28.966-13.429,42.832    c-1.201,14.396,1.738,27.423,9.611,38.339c3.62,5.025,6.406,10.911,8.416,17.609C102.109,498.403,128.381,513,179.201,513h153.6    c50.82,0,77.092-14.597,84.026-37.687c2.01-6.699,4.797-12.584,8.42-17.614C433.116,446.788,436.055,433.761,434.854,419.365z     M174.892,44.516c0.923-9.229,1.911-17.528,2.897-24.763c0.08-0.587,0.158-1.149,0.232-1.686h22.312    c21.373,31.762,35.438,77.179,43.465,126.271c2.255,13.835,22.148,13.835,24.404-0.004c8.027-49.088,22.091-94.505,43.464-126.267    h22.312c0.075,0.537,0.152,1.099,0.232,1.686c0.987,7.235,1.974,15.534,2.897,24.763c2.64,26.398,4.224,54.919,4.224,84.484    c0,0.694-0.034,2.118-0.14,4.172c-0.179,3.489-0.503,7.406-1.007,11.647c-1.44,12.109-4.029,24.324-8.03,35.808    c-2.893,8.301-5.023,16.726-6.396,25.173H186.24c-1.373-8.447-3.504-16.873-6.397-25.174c-4-11.483-6.589-23.698-8.029-35.807    c-0.504-4.242-0.828-8.159-1.007-11.647c-0.105-2.053-0.14-3.478-0.14-4.172C170.668,99.435,172.252,70.914,174.892,44.516z     M324.378,239.933H187.624c0.47-5.646,0.582-11.345,0.347-17.067h136.06C323.796,228.588,323.909,234.288,324.378,239.933z     M411.401,447.721c-4.792,6.652-8.388,14.249-10.92,22.686c-0.931,3.099-2.515,6.013-4.823,8.69    c-27.088-20.55-54.324-60.226-54.324-85.562c0-4.713-3.82-8.533-8.533-8.533s-8.533,3.82-8.533,8.533    c0,30.026,27.188,71.334,56.46,95.497c-10.837,4.345-26.413,6.903-47.925,6.903h-19.043c-0.035-0.126-0.068-0.246-0.104-0.373    c-0.145-0.514-2.612-9.059-3.243-11.409c-2.223-8.273-3.21-14.587-3.21-22.351c0-4.713-3.82-8.533-8.533-8.533    s-8.533,3.82-8.533,8.533c0,9.417,1.211,17.165,3.795,26.781c0.374,1.391,1.3,4.642,2.076,7.353h-80.009    c0.776-2.711,1.702-5.961,2.076-7.353c2.584-9.615,3.795-17.363,3.795-26.781c0-4.713-3.821-8.533-8.533-8.533    s-8.533,3.82-8.533,8.533c0,7.765-0.987,14.078-3.21,22.351c-0.631,2.349-3.098,10.895-3.243,11.409    c-0.036,0.128-0.069,0.247-0.104,0.373h-19.043c-21.507,0-37.081-2.557-47.917-6.9c29.269-24.16,56.455-65.472,56.455-95.5    c0-4.713-3.82-8.533-8.533-8.533s-8.533,3.82-8.533,8.533c0,25.34-27.236,65.021-54.323,85.567    c-2.311-2.678-3.897-5.595-4.828-8.696c-2.532-8.436-6.128-16.032-10.917-22.68c-5.301-7.35-7.332-16.352-6.448-26.941    c0.945-11.326,5.158-23.817,11.625-36.497c2.648-5.192,5.491-10.053,8.328-14.429c1.683-2.595,2.967-4.423,3.652-5.337    c22.467-24.657,40.106-48.366,52.999-70.479c6.754-11.582,11.526-24.07,14.332-37.04H326.91    c2.806,12.971,7.578,25.459,14.332,37.041c12.839,22.021,30.385,45.624,53.224,70.783c0.723,0.986,1.914,2.699,3.427,5.033    c2.837,4.376,5.68,9.237,8.328,14.429c6.467,12.681,10.68,25.171,11.625,36.497C418.73,431.373,416.699,440.375,411.401,447.721z"/>
	</g>
</g>
<g>
</g>
<g>
</g>
<g>
</g>
<g>
</g>
<g>
</g>
<g>
</g>
<g>
</g>
<g>
</g>
<g>
</g>
<g>
</g>
<g>
</g>
<g>
</g>
<g>
</g>
<g>
</g>
<g>
</g>
</svg>
