<?xml version="1.0" encoding="iso-8859-1"?>
<!-- Generator: Adobe Illustrator 19.0.0, SVG Export Plug-In . SVG Version: 6.00 Build 0)  -->
<svg xmlns="http://www.w3.org/2000/svg" xmlns:xlink="http://www.w3.org/1999/xlink" version="1.1" id="Layer_1" x="0px" y="0px" viewBox="0 0 511.999 511.999" style="enable-background:new 0 0 511.999 511.999;" xml:space="preserve">
<g transform="translate(0 -1)">
	<g>
		<path d="M330.752,228.894c-4.496-7.257-6.373-15.902-5.38-24.631c2.041-17.959,6.725-36.457,13.124-54.51    c9.948-28.023,0.579-59.31-23.492-75.562c-3.316-2.24-6.787-4.323-10.395-6.256c-4.7-2.518-9.542-4.723-14.453-6.667    c20.331-10.27,34.117-29.447,34.117-51.734c0-4.713-3.82-8.533-8.533-8.533s-8.533,3.82-8.533,8.533    c0,23.142-22.39,42.449-50.74,42.657l-0.459-0.057l-0.46,0.057c-28.35-0.208-50.741-19.515-50.741-42.657    c0-4.713-3.82-8.533-8.533-8.533s-8.533,3.82-8.533,8.533c0,22.287,13.787,41.465,34.118,51.735    c-4.911,1.944-9.752,4.149-14.452,6.667c-3.608,1.933-7.079,4.016-10.397,6.258c-24.069,16.25-33.439,47.537-23.489,75.564    c6.398,18.049,11.081,36.547,13.122,54.506c0.993,8.729-0.884,17.374-5.38,24.631c-16.552,26.722-27.656,66.737-27.656,121.973    l8.55,137.066c-0.017,5.473,5.032,11.531,16.014,15.924c14.532,5.813,39.513,9.144,77.836,9.144s63.303-3.331,77.836-9.144    c10.982-4.393,16.031-10.451,16.031-16.456l8.517-136.001C358.408,295.63,347.304,255.615,330.752,228.894z M206.562,88.336    c2.825-1.909,5.798-3.693,8.905-5.357c9.106-4.879,18.936-8.53,28.774-11.107c3.444-0.902,6.633-1.603,9.477-2.125    c0.93-0.171,1.698-0.301,2.289-0.394c0.591,0.093,1.359,0.223,2.289,0.394c2.845,0.522,6.034,1.223,9.477,2.125    c9.838,2.576,19.669,6.228,28.774,11.107c3.106,1.664,6.08,3.449,8.903,5.356c17.461,11.789,24.366,34.848,16.959,55.713    c-6.802,19.19-11.794,38.904-13.997,58.288c-0.466,4.094-0.479,8.186-0.068,12.211c-0.22,2.541-4.394,6.503-12.808,10.014    c-10.305,4.301-24.523,6.839-39.531,6.839c-15.008,0-29.227-2.538-39.532-6.839c-8.405-3.508-12.579-7.465-12.807-10.006    c0.412-4.028,0.399-8.123-0.067-12.22c-2.203-19.383-7.194-39.098-13.995-58.284C182.198,123.183,189.103,100.123,206.562,88.336z     M332.934,485.111c-0.917,0.774-2.648,1.786-5.429,2.898c-5.085,2.034-12.089,3.753-21.176,5.065    c-0.369-1.344-0.835-3.037-1.451-5.275c-4.494-16.321-6.208-24.943-6.208-34.53c0-4.713-3.82-8.533-8.533-8.533    s-8.533,3.82-8.533,8.533c0,11.585,1.934,21.319,6.82,39.062c0.261,0.948,0.491,1.782,0.701,2.546    c-9.504,0.685-20.507,1.056-33.117,1.056c-12.61,0-23.612-0.37-33.116-1.055c0.209-0.758,0.436-1.585,0.694-2.524    c4.885-17.752,6.82-27.493,6.82-39.084c0-4.713-3.821-8.533-8.533-8.533s-8.533,3.82-8.533,8.533    c0,9.595-1.714,18.225-6.208,34.556c-0.612,2.225-1.076,3.911-1.443,5.25c-9.088-1.313-16.093-3.032-21.178-5.066    c-2.798-1.119-4.534-2.137-5.446-2.913l0,0l-8.406-134.763c0.017-51.566,10.255-88.465,25.114-112.453    c0.821-1.326,1.582-2.683,2.282-4.066c10.805,7.961,28.255,13.058,48.069,14.333c-3.418,10.115-12.97,17.386-24.249,17.386    c-4.713,0-8.533,3.82-8.533,8.533s3.82,8.533,8.533,8.533c13.965,0,26.352-6.696,34.133-17.053    c7.782,10.357,20.169,17.053,34.133,17.053c4.713,0,8.533-3.82,8.533-8.533s-3.821-8.533-8.533-8.533    c-11.279,0-20.831-7.271-24.249-17.386c19.814-1.275,37.265-6.373,48.07-14.334c0.7,1.384,1.461,2.741,2.283,4.068    c14.858,23.987,25.097,60.886,25.097,112.984L332.934,485.111z"/>
	</g>
</g>
<g>
</g>
<g>
</g>
<g>
</g>
<g>
</g>
<g>
</g>
<g>
</g>
<g>
</g>
<g>
</g>
<g>
</g>
<g>
</g>
<g>
</g>
<g>
</g>
<g>
</g>
<g>
</g>
<g>
</g>
</svg>
