<?xml version="1.0" encoding="iso-8859-1"?>
<!-- Generator: Adobe Illustrator 19.0.0, SVG Export Plug-In . SVG Version: 6.00 Build 0)  -->
<svg xmlns="http://www.w3.org/2000/svg" xmlns:xlink="http://www.w3.org/1999/xlink" version="1.1" id="Layer_1" x="0px" y="0px" viewBox="0 0 512.017 512.017" style="enable-background:new 0 0 512.017 512.017;" xml:space="preserve">
<g transform="translate(-1 -1)">
	<g>
		<path d="M367.84,434.895l-34.102-221.662c-1.396-11.463,1.207-24.021,7.272-36.462c8.373-17.185,10.773-34.162,9.956-47.895    c-0.031-0.513-0.063-0.942-0.093-1.284c-0.152-13.366-7.256-32.144-19.732-55.748c-3.43-6.489-7.221-13.24-11.313-20.187    c-6.617-11.235-13.697-22.444-20.775-33.113c-2.478-3.735-4.78-7.137-6.848-10.142c-1.247-1.812-2.144-3.095-2.632-3.784    c-4.808-6.789-15.497-3.387-15.497,4.932c0,51.418-4.685,87.337-12.362,110.368c-1.55,4.651-3.135,8.496-4.705,11.613    c-1.569-3.117-3.154-6.961-4.705-11.613c-7.677-23.031-12.362-58.95-12.362-110.368c0-8.319-10.689-11.721-15.497-4.932    c-0.488,0.689-1.385,1.972-2.632,3.784c-2.068,3.005-4.37,6.407-6.848,10.142c-7.079,10.669-14.158,21.879-20.775,33.113    c-4.092,6.947-7.883,13.697-11.313,20.187c-12.476,23.604-19.581,42.382-19.732,55.748c-0.03,0.342-0.062,0.771-0.093,1.284    c-0.818,13.733,1.583,30.71,9.955,47.893c6.066,12.443,8.669,25,7.273,36.462l-34.106,221.687    c-0.006,0.04-0.006,0.079-0.012,0.119c-0.035,0.242-0.057,0.485-0.071,0.731c-0.004,0.081-0.007,0.162-0.009,0.242    c-0.007,0.257-0.006,0.513,0.011,0.771c0.004,0.06,0.012,0.119,0.018,0.179c0.062,0.719,0.218,1.437,0.478,2.146    c0.07,0.194,0.144,0.386,0.227,0.573c0.056,0.123,0.114,0.245,0.177,0.368c0.132,0.261,0.277,0.514,0.434,0.76    c0.031,0.049,0.052,0.1,0.085,0.148l36.89,55.253c10.557,15.836,31.261,21.331,48.295,12.82l130.338-65.084    c0.012-0.006,0.023-0.012,0.035-0.018l0.152-0.076c0.143-0.072,0.275-0.151,0.412-0.228c0.077-0.044,0.157-0.083,0.233-0.129    C367.164,441.521,368.352,438.071,367.84,434.895z M180.089,129.89c0.031-0.514,0.058-0.827,0.068-0.922l0.052-0.941    c0-9.706,6.409-26.738,17.757-48.208c3.3-6.244,6.964-12.768,10.929-19.5c4.633-7.866,9.51-15.737,14.455-23.414    c1.417,38.991,5.948,67.963,12.763,88.41c3.045,9.135,6.396,16.061,9.879,21.092c2.399,3.465,4.565,5.631,6.283,6.776    c2.866,1.911,6.601,1.911,9.467,0c1.718-1.145,3.884-3.311,6.283-6.776c3.483-5.031,6.834-11.957,9.879-21.092    c6.816-20.447,11.346-49.419,12.763-88.41c4.945,7.677,9.822,15.548,14.455,23.414c3.965,6.732,7.629,13.256,10.929,19.5    c11.348,21.469,17.757,38.502,17.757,48.208l0.052,0.941c0.011,0.095,0.038,0.408,0.068,0.922    c0.228,3.828,0.083,8.81-0.729,14.552c-1.186,8.388-3.606,16.794-7.531,24.851c-5.873,12.046-9.15,24.448-9.359,36.523H197.708    c-0.209-12.075-3.486-24.477-9.359-36.525c-3.925-8.055-6.345-16.461-7.531-24.849C180.007,138.7,179.861,133.717,180.089,129.89z     M196.063,222.883h121.892l31.508,204.8H164.556L196.063,222.883z M225.071,493.76c-9.34,4.667-20.686,1.656-26.472-7.023    l-28.032-41.987h152.652L225.071,493.76z"/>
	</g>
</g>
<g>
</g>
<g>
</g>
<g>
</g>
<g>
</g>
<g>
</g>
<g>
</g>
<g>
</g>
<g>
</g>
<g>
</g>
<g>
</g>
<g>
</g>
<g>
</g>
<g>
</g>
<g>
</g>
<g>
</g>
</svg>
