<?xml version="1.0" encoding="iso-8859-1"?>
<!-- Generator: Adobe Illustrator 19.0.0, SVG Export Plug-In . SVG Version: 6.00 Build 0)  -->
<svg xmlns="http://www.w3.org/2000/svg" xmlns:xlink="http://www.w3.org/1999/xlink" version="1.1" id="Layer_1" x="0px" y="0px" viewBox="0 0 512.016 512.016" style="enable-background:new 0 0 512.016 512.016;" xml:space="preserve">
<g transform="translate(0 -1)">
	<g>
		<path d="M333.032,212.824c0.109-15.913,1.948-25.301,7.19-36.053c8.373-17.185,10.773-34.162,9.956-47.895    c-0.031-0.513-0.063-0.942-0.093-1.284c-0.152-13.366-7.256-32.144-19.732-55.748c-3.43-6.489-7.221-13.24-11.313-20.187    c-6.617-11.235-13.697-22.444-20.775-33.113c-2.478-3.735-4.78-7.137-6.848-10.142c-1.247-1.812-2.144-3.095-2.632-3.784    c-4.808-6.789-15.497-3.387-15.497,4.932c0,51.411-4.723,87.324-12.462,110.348c-1.567,4.662-3.169,8.513-4.755,11.633    c-1.552-3.113-3.121-6.952-4.655-11.592C243.802,96.9,239.155,60.974,239.155,9.55c0-8.319-10.689-11.721-15.497-4.932    c-0.488,0.689-1.385,1.972-2.632,3.784c-2.068,3.005-4.37,6.407-6.848,10.142c-7.079,10.669-14.158,21.879-20.775,33.113    c-4.092,6.947-7.883,13.697-11.313,20.187c-12.476,23.604-19.581,42.382-19.732,55.748c-0.03,0.342-0.062,0.771-0.093,1.284    c-0.818,13.733,1.583,30.71,9.955,47.893c5.232,10.731,7.074,20.102,7.191,35.955c-22.277,54.789-34.335,125.191-34.335,206.426    c0,29.238,1.697,58.129,4.963,86.316c0.499,4.304,4.144,7.551,8.477,7.551h71.893h123.093c4.333,0,7.978-3.247,8.477-7.551    c3.267-28.187,4.963-57.077,4.963-86.316C366.941,342.522,354.261,268.624,333.032,212.824z M256.007,346.537    c0,0.015,0.002,0.03,0.002,0.045c0,0.016,0.001,0.032,0.001,0.048c-0.041,6.686-4.473,12.559-10.909,14.428l-17.262,5.009    c-2.981,0.865-5.959-1.372-5.959-4.477v-31.633c0-3.255,3.257-5.51,6.301-4.363l18.042,6.793c5.863,2.21,9.751,7.803,9.788,14.061    C256.011,346.478,256.007,346.507,256.007,346.537z M307.207,329.957v31.633c0,0.193-0.012,0.384-0.034,0.57    c-0.295,2.426-2.432,4.188-4.817,4.09c-0.365-0.016-0.737-0.075-1.108-0.183l-17.263-5.009c-0.103-0.03-0.201-0.07-0.304-0.102    c-1.53-0.485-3.007-1.236-4.406-2.258c-3.349-2.467-5.523-6.147-6.062-10.195c-0.015-0.112-0.029-0.223-0.042-0.335    c-0.057-0.518-0.092-1.042-0.094-1.57c0-0.02,0.003-0.04,0.003-0.061c0-0.026-0.003-0.051-0.003-0.076    c0.019-3.688,1.381-7.14,3.69-9.81c0.875-1.011,1.878-1.916,3.006-2.672c0.951-0.637,1.985-1.172,3.088-1.587l3.795-1.432    l9.892-3.725l4.352-1.636c1.336-0.503,2.709-0.356,3.833,0.242C306.177,326.611,307.207,328.126,307.207,329.957z M179.301,129.89    c0.031-0.514,0.058-0.827,0.068-0.922l0.052-0.941c0-9.706,6.409-26.738,17.757-48.208c3.3-6.244,6.964-12.768,10.929-19.5    c4.632-7.864,9.507-15.733,14.452-23.408c1.406,38.981,5.897,67.944,12.654,88.384c3.019,9.132,6.34,16.055,9.794,21.085    c2.38,3.467,4.531,5.636,6.241,6.785c2.859,1.922,6.593,1.936,9.467,0.036c1.726-1.141,3.907-3.304,6.324-6.767    c3.513-5.033,6.893-11.961,9.965-21.099c6.875-20.454,11.444-49.434,12.873-88.436c4.947,7.679,9.825,15.552,14.459,23.42    c3.965,6.732,7.629,13.256,10.929,19.5c11.348,21.469,17.757,38.502,17.757,48.208l0.052,0.941    c0.011,0.095,0.038,0.408,0.068,0.922c0.228,3.828,0.083,8.81-0.729,14.552c-1.186,8.388-3.606,16.794-7.531,24.851    c-5.629,11.546-8.114,21.974-8.753,36.523H196.315c-0.639-14.549-3.124-24.977-8.754-36.525    c-3.925-8.055-6.345-16.461-7.531-24.849C179.219,138.7,179.073,133.717,179.301,129.89z M162.141,419.15    c0-77.289,11.139-144.183,31.577-196.267H312.58l-31.161,91.812l-0.838,0.316l-3.731,1.405c-1.073,0.404-2.102,0.88-3.111,1.387    c-3.505,1.76-6.61,4.109-9.197,6.916c-3.331-3.611-7.503-6.493-12.304-8.302l-18.042-6.793    c-14.205-5.353-29.384,5.153-29.384,20.334v31.633c0,14.473,13.883,24.901,27.782,20.867l17.263-5.009    c5.69-1.652,10.628-4.791,14.483-8.899l-21.698,68.785l-18.491,58.616h-57.996C163.511,470.808,162.141,445.12,162.141,419.15z     M345.86,495.95H242.048l37.365-118.446l17.081,4.956c0.939,0.272,1.878,0.472,2.813,0.615    c12.034,1.849,23.348-6.707,24.809-18.822c0.105-0.872,0.16-1.762,0.16-2.668v-31.625c0-0.447-0.016-0.888-0.042-1.326    c-0.007-0.12-0.019-0.238-0.028-0.357c-0.024-0.315-0.052-0.628-0.088-0.938c-0.017-0.143-0.037-0.285-0.057-0.427    c-0.04-0.287-0.084-0.572-0.135-0.854c-0.025-0.142-0.051-0.285-0.08-0.426c-0.058-0.291-0.123-0.579-0.193-0.865    c-0.029-0.121-0.057-0.244-0.088-0.364c-0.095-0.363-0.199-0.722-0.311-1.076c-0.012-0.038-0.022-0.076-0.034-0.114    c-0.13-0.401-0.272-0.795-0.424-1.184c-0.029-0.075-0.063-0.148-0.093-0.223c-0.123-0.305-0.252-0.608-0.388-0.906    c-0.051-0.111-0.104-0.219-0.157-0.329c-0.125-0.261-0.255-0.52-0.39-0.775c-0.06-0.113-0.121-0.226-0.183-0.337    c-0.141-0.255-0.288-0.506-0.438-0.754c-0.06-0.098-0.118-0.198-0.18-0.295c-0.181-0.288-0.369-0.57-0.563-0.848    c-0.035-0.05-0.068-0.102-0.103-0.152c-0.24-0.338-0.489-0.669-0.747-0.991c-0.009-0.012-0.02-0.023-0.029-0.035    c-0.241-0.299-0.49-0.591-0.745-0.876c-0.067-0.075-0.136-0.147-0.204-0.22c-0.204-0.221-0.411-0.439-0.623-0.652    c-0.084-0.084-0.169-0.167-0.254-0.249c-0.207-0.201-0.418-0.397-0.633-0.589c-0.086-0.077-0.172-0.155-0.26-0.231    c-0.235-0.204-0.475-0.402-0.719-0.596c-0.068-0.054-0.135-0.111-0.204-0.165c-0.633-0.492-1.293-0.948-1.976-1.368    c-0.088-0.054-0.178-0.104-0.266-0.157c-0.251-0.149-0.504-0.295-0.761-0.435c-0.117-0.064-0.236-0.125-0.354-0.186    c-0.235-0.122-0.473-0.24-0.713-0.354c-0.127-0.06-0.255-0.12-0.383-0.178c-0.243-0.11-0.489-0.213-0.737-0.314    c-0.123-0.05-0.246-0.102-0.37-0.15c-0.297-0.115-0.598-0.221-0.901-0.323c-0.074-0.025-0.147-0.054-0.222-0.078    c-0.372-0.121-0.748-0.231-1.127-0.331c-0.129-0.034-0.261-0.063-0.391-0.095c-0.254-0.062-0.509-0.123-0.766-0.176    c-0.163-0.034-0.327-0.063-0.491-0.093c-0.228-0.042-0.457-0.081-0.687-0.115c-0.175-0.026-0.351-0.05-0.527-0.072    c-0.223-0.028-0.447-0.051-0.672-0.071c-0.18-0.017-0.359-0.034-0.54-0.046c-0.231-0.015-0.464-0.023-0.697-0.031    c-0.173-0.006-0.346-0.016-0.52-0.018c-0.381-0.004-0.762,0.002-1.146,0.019l6.311-18.595l16.648-49.053    c15.931,50.685,25.279,113.578,25.279,178.566C349.875,445.12,348.505,470.808,345.86,495.95z"/>
	</g>
</g>
<g>
</g>
<g>
</g>
<g>
</g>
<g>
</g>
<g>
</g>
<g>
</g>
<g>
</g>
<g>
</g>
<g>
</g>
<g>
</g>
<g>
</g>
<g>
</g>
<g>
</g>
<g>
</g>
<g>
</g>
</svg>
