<?xml version="1.0" encoding="iso-8859-1"?>
<!-- Generator: Adobe Illustrator 19.0.0, SVG Export Plug-In . SVG Version: 6.00 Build 0)  -->
<svg xmlns="http://www.w3.org/2000/svg" xmlns:xlink="http://www.w3.org/1999/xlink" version="1.1" id="Layer_1" x="0px" y="0px" viewBox="0 0 512 512" style="enable-background:new 0 0 512 512;" xml:space="preserve">
<g transform="translate(0 -1)">
	<g>
		<path d="M331.987,85.897c14.676-11.741,20.276-26.302,6.847-39.731c-7.1-7.1-17.5-11.929-30.364-15.145    c-7.787-1.947-16.039-3.185-24.278-3.871c-0.884-0.074-1.748-0.139-2.592-0.197V9.533c0-4.713-3.82-8.533-8.533-8.533h-34.133    c-4.713,0-8.533,3.82-8.533,8.533v17.42c-0.844,0.058-1.708,0.124-2.592,0.197c-8.238,0.687-16.49,1.924-24.278,3.871    c-12.864,3.216-23.265,8.045-30.364,15.145c-13.429,13.429-7.829,27.99,6.847,39.731c3.262,2.609,6.477,4.727,9.225,6.322    c8.813,26.562,15.562,53.919,15.562,70.914c0,6.467-0.817,9.294-3.182,13.056c-0.386,0.615-3.032,4.572-3.928,6.008    c-1.883,3.021-3.483,6.032-5.001,9.574c-8.822,20.586-13.49,57.407-13.49,124.961l17.105,180.009    c0.32,3.362,2.593,6.219,5.796,7.286c0.913,0.304,2.531,0.808,4.754,1.443c3.657,1.045,7.72,2.087,12.093,3.058    c12.56,2.791,25.151,4.47,37.051,4.47s24.491-1.679,37.051-4.47c4.373-0.972,8.436-2.014,12.093-3.058    c2.224-0.635,3.841-1.138,4.754-1.443c3.204-1.068,5.476-3.925,5.796-7.286l17.067-179.2    c0.038-68.363-4.629-105.185-13.451-125.771c-1.518-3.542-3.118-6.553-5.001-9.574c-0.896-1.436-3.541-5.394-3.928-6.008    c-2.365-3.762-3.182-6.59-3.182-13.056c0-16.995,6.749-44.352,15.562-70.914C325.51,90.624,328.725,88.506,331.987,85.897z     M185.234,58.234c4.5-4.5,12.3-8.121,22.436-10.655c6.796-1.699,14.169-2.805,21.556-3.421c2.594-0.216,5-0.355,7.148-0.432    c1.262-0.045,2.138-0.06,2.56-0.06c4.713,0,8.533-3.82,8.533-8.533V18.067h17.067v17.067c0,4.713,3.82,8.533,8.533,8.533    c0.422,0,1.298,0.015,2.56,0.06c2.148,0.077,4.554,0.215,7.148,0.432c7.387,0.616,14.76,1.721,21.556,3.421    c10.136,2.534,17.935,6.155,22.436,10.655l-2.499-6.034c6.478,10.013,4.91,14.089-2.941,20.37    c-2.065,1.652-4.316,3.183-6.569,4.534c-0.461,0.276-0.882,0.522-1.257,0.736c-0.07,0.003-0.141,0.011-0.211,0.014    c-1.157,0.046-2.322,0.12-3.495,0.229c-0.066,0.006-0.133,0.015-0.2,0.021c-1.213,0.117-2.433,0.264-3.658,0.448    c-0.014,0.002-0.029,0.005-0.043,0.007c-1.233,0.186-2.472,0.407-3.713,0.659c-0.046,0.009-0.092,0.017-0.138,0.027    c-1.209,0.248-2.421,0.531-3.633,0.841c-0.094,0.024-0.187,0.045-0.281,0.07c-1.179,0.306-2.359,0.645-3.537,1.009    c-0.124,0.038-0.248,0.074-0.372,0.113c-1.154,0.362-2.306,0.755-3.455,1.172c-0.146,0.053-0.293,0.104-0.439,0.158    c-1.132,0.417-2.259,0.863-3.381,1.332c-0.16,0.067-0.319,0.132-0.479,0.2c-1.11,0.472-2.214,0.97-3.312,1.491    c-0.167,0.079-0.333,0.158-0.499,0.238c-1.09,0.526-2.172,1.077-3.245,1.651c-0.166,0.089-0.332,0.178-0.497,0.268    c-1.071,0.582-2.131,1.186-3.181,1.815c-0.16,0.096-0.32,0.193-0.479,0.29c-1.05,0.638-2.089,1.298-3.115,1.983    c-0.15,0.1-0.298,0.201-0.447,0.302c-1.031,0.697-2.048,1.415-3.05,2.159c-0.132,0.098-0.261,0.198-0.393,0.296    c-1.011,0.76-2.008,1.54-2.986,2.346c-0.109,0.09-0.215,0.182-0.324,0.272c-0.992,0.827-1.968,1.675-2.92,2.549    c-0.08,0.073-0.157,0.149-0.237,0.222c-0.974,0.901-1.928,1.823-2.856,2.773c-0.044,0.046-0.087,0.093-0.132,0.138    c-0.957,0.985-1.891,1.992-2.794,3.027c-0.903-1.035-1.837-2.043-2.794-3.027c-0.044-0.046-0.087-0.093-0.132-0.138    c-0.927-0.949-1.882-1.872-2.856-2.773c-0.079-0.073-0.157-0.149-0.237-0.222c-0.952-0.874-1.928-1.722-2.92-2.549    c-0.108-0.09-0.215-0.182-0.324-0.272c-0.978-0.806-1.975-1.587-2.986-2.347c-0.13-0.098-0.26-0.198-0.391-0.295    c-1.002-0.744-2.02-1.462-3.051-2.159c-0.149-0.101-0.297-0.202-0.447-0.302c-1.026-0.685-2.065-1.344-3.115-1.983    c-0.16-0.097-0.319-0.194-0.479-0.29c-1.05-0.629-2.111-1.233-3.181-1.815c-0.166-0.09-0.331-0.179-0.497-0.268    c-1.073-0.574-2.155-1.125-3.245-1.651c-0.166-0.08-0.333-0.159-0.499-0.238c-1.097-0.521-2.201-1.019-3.312-1.491    c-0.159-0.068-0.319-0.133-0.479-0.2c-1.122-0.469-2.25-0.914-3.381-1.332c-0.146-0.054-0.292-0.105-0.439-0.158    c-1.149-0.417-2.301-0.809-3.455-1.172c-0.124-0.039-0.248-0.075-0.372-0.113c-1.178-0.364-2.357-0.703-3.537-1.009    c-0.094-0.024-0.187-0.046-0.281-0.07c-1.212-0.31-2.424-0.593-3.633-0.841c-0.046-0.009-0.092-0.017-0.138-0.027    c-1.241-0.252-2.48-0.474-3.713-0.659c-0.014-0.002-0.029-0.005-0.043-0.007c-1.226-0.184-2.445-0.331-3.658-0.448    c-0.066-0.006-0.133-0.015-0.2-0.021c-1.173-0.11-2.338-0.184-3.495-0.229c-0.07-0.003-0.142-0.011-0.211-0.014    c-0.375-0.214-0.796-0.46-1.257-0.736c-2.253-1.352-4.504-2.883-6.569-4.534C182.823,66.289,181.255,62.213,185.234,58.234z     M315.733,316.733l-16.482,172.668c-3.028,0.842-6.353,1.68-9.903,2.469c-11.44,2.542-22.85,4.063-33.349,4.063    s-21.909-1.521-33.349-4.063c-3.549-0.789-6.873-1.627-9.901-2.468l-16.522-173.477c0.038-64.615,4.459-99.487,12.148-117.43    c1.158-2.703,2.354-4.953,3.797-7.268c0.709-1.137,3.331-5.06,3.894-5.955c4.073-6.48,5.799-12.455,5.799-22.139    c0-17.243-5.541-41.686-13.347-66.722c0.034,0.008,0.067,0.015,0.101,0.023c0.841,0.205,1.685,0.432,2.529,0.675    c0.192,0.055,0.383,0.112,0.575,0.17c0.855,0.255,1.711,0.523,2.566,0.816c0.005,0.002,0.011,0.003,0.016,0.005    c0.859,0.295,1.717,0.617,2.572,0.95c0.191,0.074,0.382,0.149,0.572,0.225c0.84,0.336,1.679,0.687,2.513,1.059    c0.117,0.052,0.233,0.108,0.35,0.161c0.756,0.342,1.509,0.701,2.258,1.072c0.17,0.084,0.34,0.166,0.509,0.252    c0.816,0.413,1.626,0.843,2.43,1.29c0.165,0.092,0.328,0.187,0.493,0.28c0.732,0.415,1.459,0.842,2.178,1.284    c0.114,0.07,0.229,0.137,0.343,0.208c0.789,0.491,1.568,1.002,2.339,1.526c0.176,0.119,0.35,0.241,0.525,0.362    c0.779,0.54,1.552,1.091,2.309,1.664c0.002,0.002,0.005,0.003,0.007,0.005c0.757,0.573,1.498,1.168,2.23,1.773    c0.164,0.136,0.328,0.271,0.491,0.409c0.715,0.603,1.419,1.217,2.107,1.85c0.096,0.088,0.189,0.18,0.285,0.269    c0.621,0.579,1.228,1.17,1.824,1.773c0.134,0.136,0.27,0.27,0.403,0.407c0.644,0.664,1.272,1.343,1.883,2.035    c0.125,0.141,0.246,0.285,0.369,0.428c0.553,0.638,1.092,1.287,1.614,1.949c0.082,0.104,0.168,0.206,0.249,0.31    c0.568,0.73,1.114,1.476,1.643,2.233c0.121,0.173,0.239,0.347,0.358,0.521c0.53,0.778,1.047,1.565,1.532,2.37    c3.318,5.5,11.294,5.5,14.613,0c0.486-0.805,1.002-1.591,1.532-2.37c0.119-0.174,0.237-0.348,0.358-0.521    c0.529-0.757,1.074-1.503,1.643-2.233c0.081-0.105,0.167-0.206,0.249-0.31c0.522-0.661,1.061-1.31,1.614-1.949    c0.123-0.142,0.245-0.287,0.369-0.428c0.611-0.692,1.239-1.371,1.883-2.035c0.133-0.137,0.269-0.271,0.403-0.407    c0.596-0.603,1.203-1.194,1.824-1.773c0.096-0.089,0.189-0.181,0.285-0.269c0.687-0.633,1.392-1.247,2.107-1.85    c0.163-0.137,0.327-0.273,0.491-0.409c0.732-0.605,1.473-1.2,2.23-1.773c0.002-0.002,0.004-0.003,0.007-0.005    c0.757-0.573,1.53-1.123,2.309-1.664c0.175-0.121,0.349-0.242,0.525-0.362c0.771-0.524,1.55-1.035,2.339-1.526    c0.114-0.071,0.229-0.138,0.343-0.208c0.719-0.442,1.446-0.87,2.178-1.284c0.164-0.093,0.328-0.188,0.493-0.28    c0.804-0.447,1.614-0.877,2.43-1.29c0.169-0.086,0.339-0.168,0.509-0.252c0.749-0.371,1.501-0.73,2.258-1.072    c0.117-0.053,0.233-0.109,0.35-0.161c0.834-0.372,1.672-0.723,2.513-1.059c0.191-0.076,0.381-0.151,0.572-0.225    c0.856-0.333,1.713-0.655,2.572-0.95c0.005-0.002,0.011-0.003,0.016-0.005c0.855-0.294,1.711-0.561,2.566-0.816    c0.192-0.057,0.383-0.114,0.575-0.17c0.844-0.243,1.687-0.471,2.529-0.675c0.034-0.008,0.067-0.015,0.101-0.023    c-7.806,25.036-13.347,49.48-13.347,66.722c0,9.684,1.726,15.659,5.799,22.139c0.563,0.895,3.185,4.818,3.894,5.955    c1.443,2.315,2.638,4.565,3.797,7.268C311.313,216.437,315.733,251.31,315.733,316.733z"/>
	</g>
</g>
<g>
</g>
<g>
</g>
<g>
</g>
<g>
</g>
<g>
</g>
<g>
</g>
<g>
</g>
<g>
</g>
<g>
</g>
<g>
</g>
<g>
</g>
<g>
</g>
<g>
</g>
<g>
</g>
<g>
</g>
</svg>
