<?xml version="1.0" encoding="iso-8859-1"?>
<!-- Generator: Adobe Illustrator 19.0.0, SVG Export Plug-In . SVG Version: 6.00 Build 0)  -->
<svg xmlns="http://www.w3.org/2000/svg" xmlns:xlink="http://www.w3.org/1999/xlink" version="1.1" id="Layer_1" x="0px" y="0px" viewBox="0 0 511.991 511.991" style="enable-background:new 0 0 511.991 511.991;" xml:space="preserve">
<g transform="translate(0 -1)">
	<g>
		<path d="M323.759,484.503c-8.046-22.368-11.925-148.958-3.83-213.106c4.825-38.235,2.088-73.211-5.431-103.588    c-1.718-6.939-3.565-13.088-5.421-18.39c-0.732-2.091-1.37-3.784-1.88-5.064v-27.526c1.762-1.186,3.652-2.638,5.551-4.369    c9.125-8.317,13.605-19.091,9.815-31.546c-7.999-26.289-15.366-58.255-15.366-71.381c0-4.713-3.82-8.533-8.533-8.533h-17.067    c-3.232,0-6.187,1.826-7.632,4.716l-17.968,35.928L238.028,5.716C236.582,2.826,233.628,1,230.396,1h-17.067    c-4.713,0-8.533,3.82-8.533,8.533c0,13.125-7.367,45.092-15.366,71.381c-3.79,12.455,0.69,23.229,9.815,31.546    c1.899,1.731,3.789,3.183,5.551,4.369v27.526c-0.511,1.28-1.148,2.973-1.88,5.064c-1.857,5.302-3.703,11.451-5.421,18.39    c-7.519,30.377-10.256,65.353-5.431,103.588c8.094,64.148,4.216,190.738-3.83,213.106c-1.505,4.183,0.454,8.821,4.503,10.659    c1.259,0.572,3.49,1.543,6.488,2.783c4.974,2.056,10.301,4.111,15.781,6.033c5.804,2.035,11.45,3.803,16.831,5.227    c9.212,2.437,17.319,3.787,24.16,3.787c6.842,0,14.948-1.35,24.16-3.787c5.381-1.424,11.028-3.192,16.831-5.227    c5.48-1.922,10.807-3.977,15.781-6.033c2.998-1.239,5.229-2.211,6.488-2.783C323.304,493.324,325.263,488.686,323.759,484.503z     M221.862,120.464h68.267v17.067h-68.267V120.464z M205.757,85.882c7.162-23.539,13.681-50.636,15.562-67.815h3.803l17.14,34.272    c5.649,11.317,21.818,11.317,27.47-0.006l17.137-34.266h3.803c1.881,17.18,8.4,44.276,15.562,67.815    c1.586,5.212-0.265,9.663-4.984,13.965c-1.69,1.54-3.39,2.739-4.739,3.55H215.48c-1.349-0.812-3.049-2.01-4.738-3.55    C206.022,95.545,204.171,91.094,205.757,85.882z M291.339,487.872c-5.406,1.896-10.633,3.533-15.548,4.833    c-7.911,2.093-14.676,3.219-19.795,3.219c-5.119,0-11.884-1.126-19.795-3.219c-4.915-1.3-10.142-2.937-15.548-4.833    c-4.942-1.733-9.771-3.589-14.298-5.448c7.637-37.516,10.382-151.821,2.641-213.163c-4.546-36.028-1.973-68.916,5.066-97.351    c1.586-6.407,3.279-12.044,4.962-16.851c0.056-0.161,0.109-0.307,0.163-0.461h73.619c0.055,0.154,0.107,0.301,0.163,0.461    c1.683,4.807,3.376,10.444,4.962,16.851c7.039,28.435,9.612,61.322,5.066,97.351c-7.74,61.342-4.995,175.647,2.641,213.163    C301.11,484.284,296.281,486.139,291.339,487.872z"/>
	</g>
</g>
<g>
</g>
<g>
</g>
<g>
</g>
<g>
</g>
<g>
</g>
<g>
</g>
<g>
</g>
<g>
</g>
<g>
</g>
<g>
</g>
<g>
</g>
<g>
</g>
<g>
</g>
<g>
</g>
<g>
</g>
</svg>
