<?xml version="1.0" encoding="iso-8859-1"?>
<!-- Generator: Adobe Illustrator 19.0.0, SVG Export Plug-In . SVG Version: 6.00 Build 0)  -->
<svg xmlns="http://www.w3.org/2000/svg" xmlns:xlink="http://www.w3.org/1999/xlink" version="1.1" id="Layer_1" x="0px" y="0px" viewBox="0 0 503.888 503.888" style="enable-background:new 0 0 503.888 503.888;" xml:space="preserve">
<g>
	<g>
		<path d="M339.809,210.959c-0.168-0.101-17.358-10.425-20.312-26.8c-1.788-9.955,2.014-20.698,11.314-31.929l0.101-0.117    c4.037-4.789,24.627-33.147,5.414-93.343c6.482-19.421,13.04-32.288,23.004-45.268c2.829-3.676,2.132-8.939-1.544-11.768    c-3.668-2.829-8.931-2.115-11.768,1.544c-11.231,14.614-18.531,28.915-25.66,50.332c-1.489,1.087-3.304,2.362-5.401,3.841    c-14.905,10.475-41.386,29.106-63.03,56.165c-21.803-27.219-48.711-46.137-62.93-56.134c-2.113-1.487-3.945-2.773-5.447-3.867    c-7.129-21.419-14.43-35.722-25.662-50.337c-2.812-3.66-8.075-4.373-11.768-1.544c-3.676,2.829-4.373,8.091-1.544,11.768    c9.964,12.979,16.522,25.846,23.003,45.266c-19.21,60.193,1.374,88.553,5.411,93.342l0.101,0.126    c9.275,11.188,13.085,21.898,11.331,31.828c-2.913,16.518-20.186,26.8-20.421,26.943c-41.741,24.744-10.76,158.88-4.004,185.94    c10.156,33.171,16.426,82.046,16.476,82.533c0.243,1.847,1.074,3.567,2.401,4.877c17.416,17.416,50.738,19.532,65.88,19.532    c3.621,0,6.176-0.117,7.25-0.178c1.137,0.063,3.656,0.172,7.169,0.172c15.159,0,48.455-2.115,65.863-19.523    c1.318-1.309,2.157-3.038,2.392-4.877c0.059-0.495,6.329-49.362,16.602-82.969C350.662,369.881,381.642,235.753,339.809,210.959z     M176.162,392.465c-15.242-61.205-26.431-153.482-3.693-166.971c0.982-0.562,24.089-14.126,28.454-38.358    c2.694-14.957-2.241-30.216-14.672-45.333c-0.109-0.151-0.235-0.285-0.353-0.428c-0.193-0.218-17.542-20.883-4.835-68.944    c25.642,18.046,87.678,63.144,87.678,129.007c0,60.676-10.878,155.682-17.391,212.455c-2.04,17.87-3.659,31.979-4.264,39.34    c-1.074,13.043-1.872,19.699-2.434,24.341c-0.436,3.643-0.747,6.194-0.923,9.552c-14.453-0.076-38.425-2.484-51.007-12.842    C191.153,462.768,185.244,422.11,176.162,392.465z M327.865,392.031c-9.199,30.023-15.117,70.74-16.686,82.256    c-12.443,10.235-36.128,12.718-50.628,12.838c0.156-2.431,0.406-4.519,0.771-7.544c0.571-4.767,1.393-11.591,2.501-24.97    c0.579-7.084,2.174-21.084,4.214-38.811c6.538-57.117,17.492-152.727,17.492-214.36c0-28.355-9.737-52.985-23.318-73.692    c19.786-26.096,45.47-44.645,60.627-55.313c12.716,48.052-4.642,68.717-4.818,68.927c-0.168,0.185-0.327,0.378-0.478,0.579    c-12.347,15.075-17.249,30.275-14.554,45.199c4.356,24.223,27.463,37.796,28.361,38.308    C354.154,238.968,342.974,331.254,327.865,392.031z"/>
	</g>
</g>
<g>
</g>
<g>
</g>
<g>
</g>
<g>
</g>
<g>
</g>
<g>
</g>
<g>
</g>
<g>
</g>
<g>
</g>
<g>
</g>
<g>
</g>
<g>
</g>
<g>
</g>
<g>
</g>
<g>
</g>
</svg>
