<?xml version="1.0" encoding="iso-8859-1"?>
<!-- Generator: Adobe Illustrator 19.0.0, SVG Export Plug-In . SVG Version: 6.00 Build 0)  -->
<svg xmlns="http://www.w3.org/2000/svg" xmlns:xlink="http://www.w3.org/1999/xlink" version="1.1" id="Layer_1" x="0px" y="0px" viewBox="0 0 503.842 503.842" style="enable-background:new 0 0 503.842 503.842;" xml:space="preserve">
<g>
	<g>
		<path d="M340.579,194.534c-8.309-9.813-12.886-21.429-12.886-33.203c0-9.088,2.274-17.534,6.625-25.044    c15.293-26.385,25.787-63.064,26.649-112.618c0.01-0.574,0.025-1.144,0.033-1.721c0-0.025,0-0.051,0.001-0.076    c0.021-1.607,0.034-3.223,0.034-4.852c0-3.088-1.695-5.926-4.414-7.39c-0.513-0.276-1.035-0.524-1.552-0.788    c-0.596-0.305-1.189-0.62-1.79-0.909c-0.557-0.268-1.121-0.512-1.682-0.767c-0.593-0.269-1.185-0.545-1.782-0.799    c-0.566-0.241-1.137-0.461-1.706-0.689c-0.6-0.24-1.2-0.482-1.803-0.706c-0.573-0.213-1.15-0.41-1.726-0.609    c-0.606-0.21-1.213-0.418-1.822-0.613c-0.58-0.185-1.161-0.358-1.743-0.529c-0.613-0.18-1.226-0.356-1.842-0.521    c-0.584-0.156-1.168-0.305-1.754-0.448c-0.62-0.151-1.24-0.294-1.863-0.43c-0.586-0.128-1.172-0.252-1.76-0.366    c-0.628-0.122-1.258-0.232-1.888-0.339c-0.585-0.099-1.169-0.198-1.756-0.284c-0.638-0.093-1.278-0.171-1.917-0.248    c-0.581-0.07-1.162-0.145-1.744-0.202c-0.656-0.064-1.313-0.109-1.97-0.157c-0.567-0.041-1.133-0.091-1.7-0.12    c-0.706-0.036-1.413-0.047-2.12-0.064c-0.519-0.012-1.038-0.037-1.557-0.039c-1.193-0.004-2.387,0.018-3.58,0.069    c-0.485,0.021-0.969,0.065-1.454,0.095c-0.74,0.045-1.48,0.086-2.219,0.153c-0.562,0.051-1.123,0.123-1.685,0.186    c-0.661,0.074-1.322,0.144-1.982,0.235c-0.581,0.08-1.16,0.179-1.74,0.273c-0.638,0.103-1.277,0.205-1.914,0.323    c-0.587,0.11-1.172,0.234-1.758,0.357c-0.627,0.132-1.253,0.266-1.878,0.414c-0.588,0.139-1.173,0.289-1.759,0.441    c-0.62,0.162-1.239,0.329-1.857,0.506c-0.583,0.167-1.164,0.341-1.745,0.522c-0.618,0.193-1.234,0.395-1.849,0.603    c-0.574,0.195-1.148,0.392-1.719,0.6c-0.619,0.226-1.235,0.465-1.851,0.706c-0.56,0.22-1.12,0.438-1.678,0.671    c-0.628,0.263-1.251,0.543-1.875,0.823c-0.538,0.241-1.077,0.477-1.612,0.73c-0.654,0.31-1.301,0.643-1.949,0.972    c-0.497,0.252-0.996,0.494-1.49,0.757c-0.762,0.406-1.516,0.84-2.27,1.273c-0.372,0.213-0.748,0.412-1.118,0.632    c-1.104,0.656-2.197,1.342-3.282,2.055c-0.385,0.253-0.761,0.527-1.143,0.787c-0.714,0.486-1.428,0.971-2.132,1.483    c-0.443,0.322-0.879,0.663-1.318,0.995c-0.633,0.478-1.267,0.956-1.892,1.454c-0.454,0.362-0.901,0.741-1.35,1.114    c-0.601,0.499-1.2,1-1.793,1.518c-0.449,0.393-0.893,0.799-1.337,1.204c-0.581,0.529-1.16,1.064-1.733,1.613    c-0.437,0.419-0.87,0.846-1.302,1.277c-0.569,0.567-1.133,1.142-1.692,1.728c-0.42,0.44-0.838,0.885-1.253,1.336    c-0.561,0.61-1.115,1.234-1.665,1.865c-0.397,0.455-0.793,0.909-1.185,1.374c-0.56,0.666-1.111,1.349-1.659,2.037    c-0.366,0.458-0.734,0.912-1.094,1.38c-0.136,0.176-0.277,0.342-0.412,0.52c-0.11-0.144-0.225-0.279-0.335-0.422    c-0.438-0.571-0.886-1.125-1.333-1.682c-0.47-0.587-0.941-1.172-1.42-1.743c-0.452-0.539-0.911-1.065-1.37-1.59    c-0.49-0.559-0.982-1.113-1.479-1.657c-0.465-0.507-0.934-1.006-1.406-1.5c-0.508-0.531-1.02-1.054-1.536-1.569    c-0.476-0.475-0.953-0.946-1.435-1.407c-0.528-0.505-1.061-0.998-1.597-1.486c-0.484-0.442-0.968-0.884-1.458-1.313    c-0.551-0.481-1.108-0.946-1.666-1.411c-0.487-0.406-0.972-0.816-1.464-1.208c-0.583-0.465-1.175-0.91-1.766-1.357    c-0.479-0.362-0.954-0.734-1.437-1.084c-0.65-0.472-1.31-0.918-1.968-1.368c-0.434-0.297-0.864-0.608-1.301-0.896    c-1.076-0.708-2.162-1.388-3.257-2.04c-0.413-0.246-0.834-0.469-1.249-0.706c-0.711-0.406-1.421-0.816-2.139-1.199    c-0.51-0.272-1.027-0.522-1.541-0.783c-0.632-0.321-1.264-0.645-1.901-0.948c-0.543-0.258-1.09-0.497-1.636-0.741    c-0.617-0.276-1.232-0.554-1.853-0.813c-0.561-0.235-1.126-0.455-1.69-0.676c-0.612-0.24-1.224-0.478-1.839-0.702    c-0.575-0.209-1.152-0.408-1.729-0.604c-0.612-0.207-1.224-0.408-1.839-0.6c-0.583-0.182-1.167-0.357-1.753-0.524    c-0.616-0.177-1.233-0.344-1.852-0.505c-0.587-0.153-1.174-0.303-1.763-0.442c-0.624-0.147-1.249-0.281-1.875-0.413    c-0.587-0.124-1.173-0.248-1.762-0.358c-0.635-0.119-1.271-0.22-1.908-0.322c-0.582-0.094-1.163-0.193-1.746-0.274    c-0.657-0.091-1.315-0.16-1.972-0.234c-0.565-0.063-1.129-0.137-1.694-0.188c-0.732-0.066-1.465-0.106-2.198-0.151    c-0.492-0.03-0.983-0.075-1.475-0.096c-1.192-0.051-2.385-0.073-3.577-0.069c-0.523,0.002-1.045,0.027-1.568,0.039    c-0.704,0.017-1.407,0.028-2.11,0.063c-0.566,0.029-1.131,0.078-1.697,0.119c-0.659,0.048-1.318,0.093-1.976,0.157    c-0.578,0.057-1.154,0.131-1.731,0.2c-0.645,0.078-1.29,0.156-1.934,0.25c-0.579,0.085-1.156,0.182-1.733,0.28    c-0.641,0.108-1.28,0.22-1.919,0.345c-0.575,0.112-1.149,0.233-1.722,0.358c-0.639,0.139-1.276,0.286-1.913,0.441    c-0.567,0.139-1.134,0.282-1.699,0.434c-0.641,0.172-1.279,0.354-1.916,0.542c-0.556,0.164-1.111,0.328-1.664,0.505    c-0.648,0.207-1.294,0.428-1.939,0.652c-0.535,0.186-1.071,0.368-1.603,0.565c-0.669,0.248-1.333,0.515-1.998,0.782    c-0.502,0.202-1.006,0.395-1.506,0.607c-0.724,0.307-1.441,0.639-2.159,0.968c-0.432,0.199-0.868,0.385-1.298,0.592    c-1.037,0.498-2.066,1.023-3.089,1.568c-0.101,0.054-0.204,0.101-0.305,0.155c-0.341,0.183-0.665,0.388-0.972,0.613    c-2.147,1.566-3.446,4.078-3.446,6.78c0,52.941,10.746,91.701,26.723,119.266c4.346,7.501,6.616,15.945,6.616,24.614    c0,12.208-4.573,23.823-12.877,33.631c-60.796,71.81-66.771,165.21-37.005,286.134c0.74,3.006,3.074,5.36,6.073,6.126    c0.548,0.14,1.571,0.394,3.03,0.747c2.414,0.583,5.186,1.233,8.279,1.931c8.821,1.991,18.455,3.981,28.595,5.839    c14.084,2.581,27.928,4.674,41.21,6.151c0.404,0.045,0.806,0.089,1.208,0.133c1.099,0.119,2.199,0.239,3.29,0.35    c1.487,0.152,2.961,0.293,4.426,0.428c0.24,0.022,0.486,0.049,0.726,0.07c0.787,0.07,1.563,0.133,2.342,0.199    c0.245,0.021,0.492,0.042,0.737,0.063c0.964,0.079,1.919,0.152,2.871,0.223c0.352,0.026,0.706,0.054,1.057,0.079    c0.875,0.063,1.742,0.119,2.608,0.175c0.403,0.026,0.808,0.054,1.209,0.079c0.848,0.052,1.687,0.097,2.525,0.142    c0.398,0.021,0.799,0.045,1.195,0.065c0.917,0.046,1.823,0.085,2.728,0.122c0.299,0.012,0.601,0.027,0.898,0.039    c1.121,0.043,2.232,0.079,3.335,0.109c0.075,0.002,0.151,0.005,0.225,0.007c2.409,0.064,4.774,0.098,7.091,0.098    c2.312,0,4.673-0.034,7.077-0.097c0.149-0.004,0.301-0.01,0.45-0.014c1.029-0.029,2.063-0.062,3.108-0.102    c0.352-0.013,0.71-0.031,1.064-0.046c0.847-0.036,1.695-0.071,2.553-0.114c0.452-0.023,0.909-0.05,1.363-0.074    c0.78-0.042,1.559-0.084,2.347-0.132c0.461-0.028,0.927-0.06,1.39-0.09c0.803-0.052,1.605-0.104,2.416-0.162    c0.413-0.03,0.829-0.062,1.244-0.093c0.889-0.066,1.78-0.134,2.678-0.208c0.307-0.025,0.617-0.052,0.926-0.078    c0.726-0.061,1.449-0.119,2.182-0.185c0.229-0.021,0.464-0.046,0.694-0.067c1.495-0.137,2.999-0.281,4.516-0.436    c1.043-0.106,2.094-0.22,3.144-0.334c0.467-0.051,0.935-0.102,1.404-0.155c13.257-1.477,27.072-3.567,41.127-6.142    c10.139-1.858,19.773-3.848,28.593-5.839c3.092-0.698,5.865-1.347,8.278-1.931c1.459-0.353,2.482-0.607,3.03-0.747    c2.999-0.766,5.333-3.12,6.073-6.126C407.35,359.754,401.377,266.345,340.579,194.534z M336.878,83.374    c-4.289,2.333-9.44,4.735-15.194,7.094c-4.309,1.765-8.708,2.773-13.072,3.113c-0.371-0.03-0.75-0.038-1.138-0.018    c-24.04,1.238-45.496-17.303-47.038-41.234c0.104-0.168,0.206-0.341,0.311-0.508c0.347-0.551,0.701-1.091,1.055-1.63    c0.322-0.488,0.644-0.975,0.972-1.452c0.356-0.519,0.718-1.028,1.081-1.534c0.339-0.472,0.678-0.942,1.023-1.402    c0.365-0.488,0.734-0.966,1.105-1.441c0.356-0.456,0.714-0.909,1.076-1.354c0.371-0.456,0.746-0.904,1.123-1.347    c0.374-0.44,0.749-0.876,1.128-1.304c0.377-0.426,0.757-0.844,1.14-1.258c0.39-0.422,0.783-0.84,1.178-1.25    c0.382-0.396,0.767-0.785,1.154-1.17c0.408-0.405,0.818-0.805,1.23-1.197c0.385-0.366,0.772-0.726,1.162-1.081    c0.425-0.388,0.853-0.769,1.283-1.143c0.387-0.337,0.775-0.669,1.166-0.995c0.443-0.369,0.888-0.731,1.335-1.087    c0.388-0.308,0.776-0.613,1.168-0.911c0.459-0.35,0.922-0.692,1.386-1.029c0.389-0.282,0.778-0.56,1.17-0.833    c0.475-0.33,0.953-0.65,1.432-0.965c0.389-0.256,0.778-0.509,1.17-0.756c0.49-0.308,0.983-0.607,1.478-0.901    c0.388-0.231,0.776-0.46,1.167-0.682c0.505-0.287,1.014-0.563,1.523-0.834c0.386-0.206,0.772-0.412,1.16-0.609    c0.52-0.264,1.043-0.517,1.567-0.766c0.384-0.183,0.768-0.366,1.155-0.54c0.533-0.24,1.068-0.468,1.604-0.693    c0.383-0.16,0.765-0.322,1.149-0.474c0.545-0.216,1.092-0.418,1.639-0.618c0.381-0.139,0.761-0.28,1.143-0.411    c0.556-0.191,1.114-0.367,1.672-0.542c0.378-0.118,0.755-0.239,1.134-0.349c0.566-0.165,1.134-0.315,1.702-0.464    c0.375-0.098,0.75-0.2,1.127-0.29c0.576-0.139,1.154-0.262,1.732-0.384c0.371-0.078,0.741-0.161,1.112-0.232    c0.587-0.113,1.175-0.209,1.764-0.304c0.365-0.059,0.729-0.123,1.094-0.175c0.596-0.086,1.193-0.154,1.79-0.222    c0.359-0.041,0.719-0.087,1.078-0.122c0.605-0.058,1.21-0.098,1.816-0.137c0.353-0.023,0.705-0.052,1.058-0.069    c0.614-0.029,1.228-0.04,1.842-0.051c0.345-0.006,0.689-0.019,1.034-0.02c0.624-0.001,1.249,0.018,1.873,0.037    c0.334,0.01,0.668,0.012,1.001,0.028c0.639,0.03,1.277,0.079,1.914,0.129c0.317,0.025,0.635,0.041,0.952,0.071    c0.657,0.062,1.313,0.144,1.968,0.227c0.297,0.037,0.594,0.066,0.89,0.108c0.682,0.096,1.362,0.214,2.042,0.334    c0.267,0.047,0.536,0.085,0.803,0.135c0.725,0.137,1.447,0.297,2.168,0.46c0.219,0.05,0.439,0.09,0.658,0.142    c0.796,0.189,1.589,0.402,2.38,0.623c0.141,0.04,0.284,0.072,0.425,0.113c2.812,0.808,5.588,1.818,8.309,3.029    c-0.006,0.42-0.018,0.831-0.025,1.249C343.769,45.759,341.209,65.635,336.878,83.374z M285.948,203.526    c36.536,69.146,41.573,178.785,20.932,278.857c-6.243,0.924-12.325,1.72-18.226,2.382c-0.159,0.018-0.318,0.035-0.477,0.053    c-1.673,0.186-3.327,0.358-4.97,0.522c-0.533,0.053-1.063,0.103-1.594,0.154c-1.549,0.148-3.091,0.291-4.611,0.419    c-0.115,0.01-0.232,0.02-0.347,0.029c-1.789,0.149-3.557,0.282-5.305,0.402c-0.187,0.013-0.372,0.024-0.559,0.036    c-1.608,0.107-3.198,0.202-4.77,0.284c-0.166,0.009-0.334,0.019-0.499,0.027c-1.637,0.083-3.252,0.15-4.849,0.204    c-0.12,0.004-0.238,0.007-0.357,0.011V91.126c9.108,9.51,21.163,16.077,34.235,18.429c-3.67,7.015-8.188,15.556-8.113,15.411    c-6.305,12.177-9.537,25.831-9.537,39.855C276.901,178.799,279.87,192.029,285.948,203.526z M243.181,486.897    c-1.608-0.055-3.234-0.122-4.883-0.206c-0.142-0.007-0.286-0.016-0.428-0.023c-1.605-0.083-3.229-0.18-4.871-0.29    c-0.162-0.011-0.323-0.021-0.486-0.032c-1.769-0.121-3.559-0.256-5.369-0.407c-0.083-0.007-0.166-0.014-0.248-0.021    c-1.563-0.131-3.148-0.278-4.741-0.431c-0.494-0.047-0.988-0.094-1.484-0.143c-1.681-0.167-3.373-0.344-5.085-0.534    c-0.117-0.013-0.233-0.026-0.35-0.039c-5.918-0.663-12.017-1.462-18.277-2.388c-20.644-99.985-15.617-209.683,20.934-278.858    c6.078-11.495,9.047-24.726,9.047-38.704c0-14.024-3.232-27.677-9.543-39.867c0.08,0.154-4.437-8.384-8.107-15.399    c13.073-2.352,25.128-8.918,34.235-18.429v395.782C243.411,486.904,243.297,486.901,243.181,486.897z M182.155,90.468    c-5.753-2.359-10.904-4.761-15.192-7.094c-4.411-18.072-6.991-38.355-7.332-61.149c0.909-0.404,1.823-0.786,2.743-1.145    c0.007-0.003,0.015-0.005,0.022-0.008c0.907-0.354,1.82-0.686,2.737-0.997c0.158-0.053,0.318-0.098,0.476-0.15    c0.768-0.253,1.537-0.499,2.311-0.722c0.223-0.064,0.449-0.117,0.672-0.178c0.711-0.196,1.423-0.39,2.139-0.56    c0.261-0.062,0.524-0.111,0.786-0.17c0.68-0.153,1.361-0.304,2.045-0.434c0.288-0.054,0.577-0.096,0.865-0.146    c0.66-0.115,1.321-0.231,1.984-0.324c0.305-0.043,0.611-0.073,0.916-0.111c0.648-0.082,1.296-0.163,1.945-0.224    c0.319-0.03,0.638-0.046,0.958-0.071c0.637-0.05,1.274-0.099,1.912-0.129c0.331-0.015,0.663-0.018,0.995-0.028    c0.627-0.019,1.253-0.038,1.88-0.037c0.341,0,0.682,0.013,1.022,0.019c0.618,0.011,1.236,0.022,1.855,0.052    c0.348,0.017,0.697,0.046,1.045,0.069c0.61,0.04,1.22,0.08,1.829,0.138c0.355,0.034,0.71,0.08,1.065,0.12    c0.602,0.068,1.203,0.137,1.803,0.223c0.361,0.052,0.721,0.115,1.082,0.174c0.593,0.096,1.185,0.193,1.776,0.306    c0.367,0.07,0.733,0.152,1.1,0.229c0.583,0.123,1.165,0.247,1.746,0.387c0.371,0.09,0.741,0.19,1.112,0.287    c0.573,0.15,1.146,0.301,1.716,0.467c0.375,0.109,0.748,0.229,1.122,0.346c0.563,0.176,1.126,0.354,1.686,0.546    c0.377,0.129,0.751,0.268,1.127,0.405c0.554,0.202,1.107,0.407,1.658,0.625c0.377,0.15,0.752,0.308,1.128,0.465    c0.544,0.228,1.087,0.459,1.628,0.703c0.378,0.17,0.753,0.35,1.129,0.528c0.533,0.253,1.066,0.51,1.595,0.779    c0.377,0.192,0.752,0.392,1.128,0.592c0.522,0.278,1.044,0.561,1.562,0.856c0.375,0.213,0.748,0.433,1.121,0.655    c0.512,0.304,1.023,0.613,1.53,0.932c0.372,0.234,0.742,0.476,1.112,0.718c0.501,0.329,1.001,0.664,1.497,1.009    c0.368,0.255,0.733,0.517,1.098,0.781c0.491,0.356,0.98,0.717,1.466,1.089c0.361,0.276,0.721,0.558,1.079,0.842    c0.481,0.382,0.96,0.771,1.435,1.169c0.354,0.296,0.706,0.597,1.057,0.902c0.471,0.41,0.94,0.827,1.405,1.252    c0.345,0.315,0.689,0.635,1.03,0.959c0.462,0.438,0.921,0.885,1.377,1.34c0.335,0.333,0.667,0.67,0.998,1.012    c0.453,0.469,0.903,0.947,1.349,1.431c0.322,0.35,0.643,0.703,0.961,1.061c0.446,0.501,0.886,1.013,1.324,1.53    c0.308,0.364,0.615,0.731,0.92,1.103c0.438,0.536,0.87,1.083,1.299,1.635c0.293,0.377,0.585,0.755,0.874,1.139    c0.43,0.573,0.855,1.159,1.276,1.75c0.275,0.386,0.55,0.772,0.821,1.165c0.425,0.616,0.842,1.245,1.257,1.879    c0.255,0.391,0.511,0.781,0.763,1.178c0.144,0.228,0.284,0.466,0.427,0.697c-1.547,23.926-23.001,42.463-47.038,41.225    c-0.386-0.02-0.764-0.011-1.134,0.018C190.867,93.242,186.466,92.234,182.155,90.468z M147.338,473.097    c-2.162-0.488-4.159-0.95-5.978-1.381c-27.237-113.786-20.953-200.581,34.716-266.335c10.786-12.739,16.852-28.147,16.852-44.05    c0-12.052-3.05-23.4-8.878-33.459c-3.948-6.811-7.557-14.423-10.72-22.899c0.811,0.344,1.627,0.687,2.459,1.028    c4.89,2.003,9.857,3.307,14.809,3.976c0.11,0.215,0.241,0.471,0.423,0.826c3.298,6.427,11.62,22.162,11.463,21.857    c5.065,9.783,7.67,20.787,7.67,32.161c0,11.359-2.366,21.904-7.101,30.859c-37.897,71.721-43.666,182.016-23.787,283.833    c-1.334-0.236-2.665-0.469-4.004-0.714C165.359,476.985,155.946,475.04,147.338,473.097z M362.475,471.716    c-1.819,0.431-3.816,0.893-5.977,1.381c-8.608,1.943-18.02,3.888-27.922,5.702c-1.339,0.245-2.67,0.478-4.004,0.714    c19.878-101.898,14.099-212.138-23.783-283.831c-4.736-8.957-7.102-19.502-7.102-30.861c0-11.374,2.605-22.378,7.664-32.149    c-0.151,0.293,8.171-15.442,11.469-21.869c0.182-0.356,0.313-0.611,0.423-0.826c4.951-0.669,9.918-1.972,14.807-3.975    c0.833-0.341,1.649-0.685,2.461-1.029c-3.162,8.477-6.771,16.089-10.717,22.898c-5.832,10.066-8.887,21.414-8.887,33.032    c0,16.327,6.071,31.735,16.861,44.478C383.437,271.136,389.72,357.94,362.475,471.716z"/>
	</g>
</g>
<g>
</g>
<g>
</g>
<g>
</g>
<g>
</g>
<g>
</g>
<g>
</g>
<g>
</g>
<g>
</g>
<g>
</g>
<g>
</g>
<g>
</g>
<g>
</g>
<g>
</g>
<g>
</g>
<g>
</g>
</svg>
