<?xml version="1.0" encoding="iso-8859-1"?>
<!-- Generator: Adobe Illustrator 19.0.0, SVG Export Plug-In . SVG Version: 6.00 Build 0)  -->
<svg xmlns="http://www.w3.org/2000/svg" xmlns:xlink="http://www.w3.org/1999/xlink" version="1.1" id="Layer_1" x="0px" y="0px" viewBox="0 0 512.002 512.002" style="enable-background:new 0 0 512.002 512.002;" xml:space="preserve">
<g transform="translate(0 -1)">
	<g>
		<path d="M341.367,254.165v-30.702c2.359-20.895,7.094-44.275,13.411-68.548c7.618-29.271,3.395-60.273-11.801-86.336    L306.072,5.239c-2.475-4.247-8.017-5.531-12.107-2.804l-25.6,17.067c-3.251,2.167-4.615,6.266-3.31,9.949l10.752,30.362    c8.895,25.123,0.717,52.904-19.847,69.259c-20.584-15.677-28.684-43.888-19.675-69.334l10.726-30.284    c1.305-3.683-0.059-7.782-3.31-9.949l-25.6-17.067c-4.09-2.727-9.631-1.443-12.106,2.803l-34.15,58.598    c-16.862,28.939-22.067,63.135-14.479,95.608c8.523,36.438,13.577,69.383,13.369,94.588    c-28.369,36.497-35.959,104.137-8.383,235.125c0.582,2.765,2.495,5.062,5.109,6.136c1.435,0.589,4.02,1.577,7.604,2.829    c5.914,2.066,12.52,4.128,19.668,6.051c20.477,5.51,41.271,8.823,61.233,8.826c20.034-0.004,40.827-3.317,61.304-8.826    c7.148-1.923,13.754-3.985,19.668-6.051c3.584-1.252,6.169-2.24,7.604-2.829c2.614-1.073,4.527-3.371,5.109-6.136    C377.194,358.326,369.656,290.707,341.367,254.165z M291.895,54.115l-8.534-24.099l12.529-8.353l32.343,55.51    c12.922,22.163,16.513,48.529,10.029,73.444c-4.449,17.098-8.143,33.792-10.821,49.616c-1.235-1.75-2.351-3.315-3.219-4.504    c-8.097-11.096-16.284-21.149-25.306-30.702c-2.249-2.381-4.538-4.685-6.848-6.951c-0.034-0.033-0.068-0.066-0.102-0.1    c-4.589-4.497-9.3-8.763-14.146-12.785c-0.049-0.041-0.099-0.082-0.148-0.123c-2.412-1.999-4.852-3.95-7.333-5.827    C293.788,118.079,302.677,84.566,291.895,54.115z M186.59,72.432l29.586-50.766l12.529,8.353l-8.508,24.021    c-12.063,34.069,0.017,72.213,29.728,91.669c0.471,0.308,0.931,0.637,1.399,0.95c12.53,8.384,24.172,18.469,35.137,30.069    c8.494,8.986,16.25,18.501,23.958,29.056c3.329,4.558,10.648,15.139,13.881,19.836v24.213c-0.344,0.054-0.69,0.107-1.052,0.163    c-6.34,0.978-13.095,1.957-19.974,2.87c-6.201,0.823-12.206,1.552-17.904,2.162c-11.869,1.272-21.878,1.972-29.338,1.975    c-4.231-0.001-9.249-0.224-14.942-0.644c-4.416-0.327-9.243-0.773-14.426-1.328c-5.699-0.611-11.706-1.34-17.908-2.163    c-6.878-0.913-13.632-1.891-19.971-2.87c-0.334-0.052-0.661-0.102-0.98-0.152c-0.335-26.165-5.485-58.64-13.822-94.284    C167.391,127.348,171.917,97.614,186.59,72.432z M333.9,481.091c-0.78,0.283-1.645,0.591-2.591,0.922    c-5.535,1.934-11.746,3.872-18.473,5.682c-19.142,5.151-38.513,8.237-56.802,8.24c-18.354-0.004-37.724-3.09-56.867-8.24    c-6.727-1.81-12.938-3.748-18.473-5.682c-0.947-0.331-1.812-0.639-2.591-0.922c-25.055-121.252-18.631-182.756,4.716-214.749    c1.051,0.166,2.163,0.34,3.332,0.52c6.453,0.996,13.325,1.991,20.331,2.921c6.336,0.841,12.481,1.587,18.331,2.214    c6.224,0.667,11.978,1.185,17.201,1.536c0.767,0.052,1.499,0.092,2.242,0.137c0.512,0.031,1.043,0.067,1.544,0.094    c3.73,0.202,7.151,0.307,10.234,0.307c8.186,0,18.749-0.739,31.187-2.071c5.851-0.627,11.998-1.373,18.335-2.214    c7.006-0.93,13.877-1.925,20.329-2.921c1.159-0.179,2.259-0.351,3.301-0.516C352.533,298.357,358.953,359.847,333.9,481.091z"/>
	</g>
</g>
<g>
</g>
<g>
</g>
<g>
</g>
<g>
</g>
<g>
</g>
<g>
</g>
<g>
</g>
<g>
</g>
<g>
</g>
<g>
</g>
<g>
</g>
<g>
</g>
<g>
</g>
<g>
</g>
<g>
</g>
</svg>
