<?xml version="1.0" encoding="iso-8859-1"?>
<!-- Generator: Adobe Illustrator 19.0.0, SVG Export Plug-In . SVG Version: 6.00 Build 0)  -->
<svg xmlns="http://www.w3.org/2000/svg" xmlns:xlink="http://www.w3.org/1999/xlink" version="1.1" id="Layer_1" x="0px" y="0px" viewBox="0 0 511.996 511.996" style="enable-background:new 0 0 511.996 511.996;" xml:space="preserve">
<g transform="translate(-1 -1)">
	<g>
		<path d="M335.408,214.753c1.533-7.572,4.002-14.989,7.442-22.165c2.072-4.32,4.254-8.418,6.573-12.384    c5.853-10.007,24.204-34.718,25.584-36.889c6.515-10.25,9.753-19.65,9.989-31.213c0.749-36.597-29.877-54.563-66.177-59.692    C311.024,49.569,302.988,42,295.43,31.03c-3.718-5.397-7.06-11.227-9.955-17.06c-1.73-3.485-2.91-6.16-3.488-7.606    C280.691,3.124,277.553,1,274.064,1H239.93c-3.489,0-6.627,2.124-7.923,5.364c-0.578,1.446-1.759,4.121-3.488,7.606    c-2.895,5.833-6.237,11.663-9.955,17.06c-7.558,10.971-15.595,18.54-23.39,21.382c-36.299,5.13-66.923,23.095-66.174,59.692    c0.235,11.562,3.473,20.962,9.989,31.212c1.38,2.172,19.732,26.882,25.584,36.889c2.32,3.966,4.502,8.064,6.574,12.385    c3.441,7.179,5.911,14.6,7.444,22.175c0.02,0.381,0.058,0.765,0.131,1.152c1.955,10.355,2.199,20.874,0.736,31.372    c-0.036,0.255-0.051,0.507-0.063,0.759c-1.514,10.336-4.626,20.732-9.313,30.995c-9.893,21.684-15.483,56.249-15.483,97.42    c0.076,1.45,0.185,3.134,0.34,5.492c0.258,3.928,0.549,8.304,0.866,13.017c0.906,13.467,1.844,26.934,2.761,39.507    c0.333,4.556,0.657,8.92,0.973,13.066c1.534,20.163,2.78,34.33,3.668,40.981c0.385,2.883,2.212,5.37,4.846,6.601    c1.322,0.618,3.699,1.631,7.037,2.907c5.471,2.091,11.715,4.173,18.64,6.113c19.749,5.531,41.083,8.85,63.269,8.85    s43.52-3.318,63.269-8.85c6.925-1.94,13.168-4.022,18.64-6.113c3.338-1.275,5.714-2.289,7.037-2.907    c2.636-1.231,4.463-3.721,4.847-6.605c0.888-6.664,2.135-20.88,3.674-41.111c0.312-4.106,0.634-8.425,0.963-12.933    c0.918-12.573,1.856-26.04,2.764-39.507c0.318-4.713,0.609-9.089,0.867-13.017c0.155-2.358,0.265-4.041,0.323-4.943    c0.018-41.721-5.572-76.287-15.464-97.967c-4.682-10.25-7.792-20.633-9.308-30.956c-0.012-0.265-0.029-0.532-0.067-0.8    c-1.466-10.517-1.224-21.033,0.734-31.366C335.35,215.53,335.388,215.14,335.408,214.753z M232.618,40.712    c4.22-6.126,7.956-12.642,11.188-19.154c0.622-1.253,1.184-2.421,1.686-3.491h23.01c0.501,1.069,1.064,2.237,1.686,3.491    c3.232,6.513,6.968,13.029,11.188,19.154c6.779,9.841,14.093,17.703,22.082,22.929c-0.692,0.754-1.402,1.506-2.14,2.251    c-0.127,0.128-0.26,0.255-0.388,0.383c-0.702,0.7-1.424,1.394-2.166,2.082c-0.183,0.17-0.365,0.34-0.551,0.509    c-0.88,0.802-1.78,1.597-2.714,2.375c-11.373,9.483-24.266,15.087-38.501,15.087s-27.128-5.604-38.501-15.087    c-0.944-0.787-1.855-1.591-2.745-2.402c-0.161-0.147-0.319-0.295-0.478-0.442c-0.778-0.721-1.536-1.448-2.27-2.182    c-0.099-0.099-0.201-0.197-0.3-0.296c-0.748-0.755-1.466-1.517-2.167-2.28C218.526,58.414,225.84,50.552,232.618,40.712z     M153.391,134.16c-4.941-7.774-7.162-14.22-7.329-22.404c-0.48-23.456,20.678-37.03,47.353-41.79l0,0    c2.936,3.731,6.909,8.054,11.897,12.451c0.028,0.024,0.055,0.049,0.083,0.073c0.706,0.621,1.424,1.242,2.17,1.864    c14.211,11.85,30.768,19.046,49.431,19.046s35.22-7.196,49.431-19.046c0.726-0.605,1.425-1.21,2.113-1.814    c0.071-0.062,0.141-0.124,0.211-0.186c1.37-1.21,2.664-2.413,3.879-3.6c0.044-0.043,0.087-0.086,0.131-0.129    c0.587-0.575,1.157-1.147,1.707-1.713c0.021-0.022,0.043-0.044,0.065-0.066c0.581-0.599,1.142-1.192,1.682-1.777    c0.005-0.005,0.009-0.01,0.014-0.015c0.52-0.564,1.018-1.119,1.5-1.668c0.039-0.044,0.079-0.089,0.118-0.133    c0.968-1.108,1.858-2.18,2.67-3.208c0.02-0.026,0.043-0.053,0.063-0.078c26.675,4.76,47.833,18.334,47.353,41.789    c-0.167,8.185-2.387,14.632-7.329,22.405c-0.867,1.363-19.475,26.42-25.913,37.428c-2.552,4.364-4.954,8.874-7.231,13.622    c-3.215,6.706-5.708,13.588-7.507,20.59h-39.659c-2.953-5.096-8.452-8.533-14.764-8.533h-17.067    c-6.311,0-11.811,3.438-14.764,8.533h-39.657c-1.799-7.001-4.292-13.884-7.507-20.589c-2.277-4.749-4.679-9.259-7.231-13.623    C172.866,160.58,154.258,135.523,153.391,134.16z M316.648,239.933h-34.051v-17.067h34.372    C316.432,228.517,316.329,234.215,316.648,239.933z M265.529,248.467h-17.065v-34.133h17.065V248.467z M197.027,222.867h34.368    v17.067h-34.046C197.667,234.215,197.564,228.517,197.027,222.867z M342.027,380.835c-0.258,3.919-0.548,8.286-0.865,12.99    c-0.905,13.437-1.841,26.874-2.757,39.411c-0.328,4.491-0.648,8.793-0.959,12.882c-1.201,15.79-2.227,27.913-3.013,35.346    c-0.503,0.198-1.042,0.408-1.618,0.628c-4.997,1.909-10.747,3.827-17.151,5.621c-18.334,5.135-38.15,8.217-58.666,8.217    c-20.516,0-40.332-3.082-58.666-8.217c-6.404-1.794-12.154-3.711-17.151-5.621c-0.576-0.22-1.116-0.43-1.62-0.628    c-0.786-7.411-1.809-19.487-3.005-35.213c-0.314-4.128-0.637-8.474-0.969-13.014c-0.915-12.537-1.85-25.974-2.755-39.411    c-0.317-4.703-0.607-9.071-0.864-12.99c-0.154-2.351-0.264-4.03-0.321-4.922c0.018-38.388,5.238-70.669,13.959-89.784    c4.384-9.599,7.573-19.354,9.547-29.129H233.7c2.953,5.096,8.452,8.533,14.764,8.533h17.067c6.311,0,11.811-3.438,14.764-8.533    h38.549c1.974,9.776,5.163,19.532,9.548,29.132c8.72,19.112,13.94,51.393,13.94,90.33    C342.291,376.805,342.182,378.484,342.027,380.835z"/>
	</g>
</g>
<g>
</g>
<g>
</g>
<g>
</g>
<g>
</g>
<g>
</g>
<g>
</g>
<g>
</g>
<g>
</g>
<g>
</g>
<g>
</g>
<g>
</g>
<g>
</g>
<g>
</g>
<g>
</g>
<g>
</g>
</svg>
