<?xml version="1.0" encoding="iso-8859-1"?>
<!-- Generator: Adobe Illustrator 19.0.0, SVG Export Plug-In . SVG Version: 6.00 Build 0)  -->
<svg xmlns="http://www.w3.org/2000/svg" xmlns:xlink="http://www.w3.org/1999/xlink" version="1.1" id="Layer_1" x="0px" y="0px" viewBox="0 0 512 512" style="enable-background:new 0 0 512 512;" xml:space="preserve">
<g>
	<g>
		<path d="M360.738,349.867c-15.141-36.011-30.719-73.057-35.197-118.841c0.034-0.468,0.041-0.939-0.003-1.411    c-0.726-7.811-1.122-14.595-1.234-21.022c-0.018-1.261-0.038-2.519-0.038-3.793c0-2.91,0.043-5.675,0.085-8.405    c0.002-0.109-0.009-0.216-0.011-0.325c1.095-65.209,14.489-80.397,23.487-90.581c5.359-6.067,10.889-12.339,10.573-24.644    c-0.939-35.895-29.712-42.306-49.083-46.421c-20.583-7.171-28.089-28.409-28.157-28.587C280,2.347,276.74,0,273.071,0h-34.133    c-3.678,0-6.938,2.347-8.098,5.837c-0.076,0.212-7.339,21.351-28.154,28.586c-19.37,4.115-48.146,10.525-49.085,46.422    c-0.316,12.305,5.214,18.577,10.573,24.644c9.003,10.19,22.408,25.39,23.489,90.698c-0.001,0.078-0.009,0.155-0.007,0.233    c0.043,2.722,0.077,5.478,0.077,8.38c0,0.26-0.004,0.524-0.005,0.785c-0.003,0.921-0.015,1.835-0.027,2.749    c-0.106,6.503-0.503,13.365-1.239,21.28c-0.042,0.471-0.034,0.94,0,1.407c-4.478,45.786-20.057,82.833-35.198,118.845    c-16.35,38.869-31.795,75.58-31.795,119.467c0,3.004,1.579,5.777,4.139,7.313C167.091,502.741,193.621,512,256,512    s88.909-9.259,132.395-35.354c2.56-1.536,4.139-4.309,4.139-7.313C392.533,425.446,377.088,388.736,360.738,349.867z M281.6,204.8    h25.6c0,1.441,0.015,2.893,0.042,4.359c0.064,4.31,0.212,8.55,0.455,12.708H281.6V204.8z M244.561,17.067h22.878    c3.989,8.161,13.16,22.842,30.305,31.024c-5.017,18.284-34.475,26.599-41.752,28.385c-7.295-1.771-36.744-10.019-41.741-28.383    C231.399,39.912,240.572,25.228,244.561,17.067z M170.667,81.289c0.444-16.93,8.849-23.381,27.187-28.194    c8.636,30.899,54.391,40.098,56.533,40.508c1.067,0.213,2.159,0.213,3.226,0c2.142-0.41,47.898-9.609,56.533-40.508    c18.338,4.813,26.743,11.264,27.187,28.194c0.154,5.598-1.604,7.586-6.298,12.911c-10.239,11.595-25.312,28.663-27.552,93.534    h-28.192c-2.956-5.093-8.456-8.533-14.758-8.533h-17.067c-6.302,0-11.802,3.44-14.758,8.533h-28.192    c-2.24-64.871-17.313-81.939-27.552-93.534C172.271,88.875,170.513,86.886,170.667,81.289z M264.533,230.4h-17.067v-34.133h17.067    V230.4z M204.759,209.002c0.01-0.556,0.01-1.102,0.016-1.654c0.007-0.85,0.025-1.692,0.025-2.548h25.597v17.067h-26.095    C204.549,217.658,204.697,213.366,204.759,209.002z M256,494.933c-56.772,0-80.768-7.654-119.398-30.404    c1.118-38.443,15.352-72.294,30.387-108.058c14.992-35.648,30.393-72.285,35.791-117.538h29.928    c2.956,5.093,8.456,8.533,14.758,8.533h17.067c6.302,0,11.802-3.44,14.758-8.533h29.928c5.398,45.254,20.8,81.89,35.791,117.538    c15.036,35.763,29.269,69.615,30.387,108.058C336.768,487.279,312.772,494.933,256,494.933z"/>
	</g>
</g>
<g>
</g>
<g>
</g>
<g>
</g>
<g>
</g>
<g>
</g>
<g>
</g>
<g>
</g>
<g>
</g>
<g>
</g>
<g>
</g>
<g>
</g>
<g>
</g>
<g>
</g>
<g>
</g>
<g>
</g>
</svg>
