<?xml version="1.0" encoding="iso-8859-1"?>
<!-- Generator: Adobe Illustrator 19.0.0, SVG Export Plug-In . SVG Version: 6.00 Build 0)  -->
<svg xmlns="http://www.w3.org/2000/svg" xmlns:xlink="http://www.w3.org/1999/xlink" version="1.1" id="Layer_1" x="0px" y="0px" viewBox="0 0 511.996 511.996" style="enable-background:new 0 0 511.996 511.996;" xml:space="preserve">
<g transform="translate(0 -1)">
	<g>
		<path d="M379.717,389.321c-17.944-41.194-29.848-77.393-29.848-98.191c0-4.128,0.272-8.394,0.805-12.841    c1.565-13.056,4.587-24.649,11.613-47.092c9.975-31.861,12.866-43.452,13.18-59.365c0.256-13.106-2.266-27.746-7.17-44.225    c-3.461-11.63-7.936-23.691-13.862-37.934c-2.516-6.047-11.302-26.348-13.526-31.67c-0.3-1.175-1.357-5.294-1.597-6.236    c-0.612-2.396-1.086-4.288-1.53-6.107c-3.44-14.108-4.983-24.353-4.983-36.125c0-4.713-3.82-8.533-8.533-8.533    s-8.533,3.82-8.533,8.533c0,13.34,1.733,24.848,5.469,40.168c0.46,1.888,0.949,3.835,1.574,6.285    c0.186,0.729,0.845,3.297,1.278,4.99c-2.122,10.822-5.654,23.052-10.571,36.998c-3.027,8.585-6.496,17.616-10.726,28.065    c-1.755,4.335-3.55,8.693-5.927,14.413c-0.587,1.413-1.248,3-2.336,5.614H217.51c-1.088-2.614-1.749-4.201-2.336-5.614    c-2.377-5.72-4.172-10.077-5.927-14.413c-4.231-10.449-7.7-19.481-10.726-28.065c-4.919-13.951-8.451-26.185-10.573-37.01    c0.434-1.694,1.09-4.251,1.275-4.979c0.625-2.451,1.114-4.397,1.574-6.285c3.736-15.32,5.469-26.828,5.469-40.168    c0-4.713-3.82-8.533-8.533-8.533s-8.533,3.82-8.533,8.533c0,11.772-1.543,22.017-4.983,36.125    c-0.444,1.819-0.918,3.711-1.53,6.107c-0.242,0.949-1.315,5.13-1.605,6.267c-2.246,5.373-11.007,25.613-13.515,31.64    c-5.927,14.244-10.403,26.304-13.864,37.934c-4.905,16.48-7.425,31.121-7.166,44.225c0.311,15.915,3.202,27.51,13.181,59.376    c7.026,22.439,10.048,34.029,11.613,47.081c0.533,4.447,0.805,8.713,0.805,12.841c0,20.803-11.918,57.037-29.856,98.188    c-8.475,19.466-2.806,42.103,13.84,55.284c54.8,43.38,89.539,68.395,101.349,68.395h17.067c11.804,0,46.59-25.047,101.348-68.394    C382.523,431.417,388.19,408.781,379.717,389.321z M282.067,177.412c-0.012,0.034-0.023,0.072-0.035,0.106    c-1.648,4.792-3.024,10.817-4.448,19.748h-43.169c-1.435-8.999-2.819-15.052-4.482-19.86c-1.404-4.055-3.11-8.552-5.404-14.273    h62.945C285.131,168.969,283.479,173.33,282.067,177.412z M275.211,214.333c-1.03,8.224-2.154,18.079-3.465,30.069    c-0.245,2.243-0.245,2.243-0.49,4.488c-4.189,38.324-6.424,54.694-9.484,65.164c-1.462,5.003-3.276,12.17-5.379,21.106    c-0.129,0.55-0.26,1.105-0.391,1.667c-0.131-0.561-0.261-1.117-0.391-1.667c-2.103-8.936-3.917-16.103-5.379-21.106    c-3.06-10.471-5.298-26.856-9.487-65.164c-0.25-2.29-0.25-2.29-0.501-4.58c-1.307-11.947-2.428-21.773-3.456-29.977H275.211z     M355.287,431.223c-20.328,16.092-39.597,30.856-55.712,42.46c-18.733,13.489-33.095,22.247-35.039,22.247h-17.067    c-1.948,0-16.308-8.756-35.042-22.246c-16.109-11.6-35.362-26.353-55.712-42.462c-10.577-8.375-14.171-22.723-8.788-35.087    c18.918-43.401,31.276-80.971,31.276-105.004c0-4.831-0.315-9.772-0.926-14.872c-1.729-14.421-4.939-26.735-12.271-50.15    c-9.44-30.147-12.138-40.964-12.404-54.611c-0.219-11.101,2.017-24.092,6.46-39.022c3.264-10.967,7.546-22.507,13.263-36.245    c0.763-1.833,2.142-5.069,3.75-8.822c1.573,5.183,3.358,10.59,5.352,16.243c3.124,8.861,6.682,18.124,11.003,28.795    c1.778,4.392,3.591,8.794,5.987,14.558c0.681,1.638,1.457,3.503,2.877,6.913c0.62,1.49,1.146,2.754,1.625,3.909    c0.006,0.014,0.008,0.027,0.014,0.041c5.054,12.2,7.793,19.111,9.871,25.122c1.551,4.472,3.135,12.521,4.771,24.015    c0.026,0.184,0.065,0.363,0.103,0.543c1.323,9.529,2.788,22.021,4.604,38.621c0.25,2.287,0.25,2.287,0.501,4.579    c4.344,39.733,6.594,56.196,10.071,68.096c1.357,4.645,3.109,11.564,5.148,20.228c0.431,1.832,0.873,3.733,1.323,5.694    c1.68,7.31,3.414,15.151,5.105,22.994c0.592,2.746,1.136,5.295,1.619,7.582c0.29,1.37,0.495,2.35,0.602,2.864    c1.887,9.056,14.82,9.056,16.708,0c0.107-0.514,0.313-1.494,0.602-2.864c0.484-2.287,1.027-4.836,1.619-7.582    c1.69-7.842,3.425-15.684,5.105-22.994c0.451-1.962,0.892-3.862,1.323-5.694c2.039-8.664,3.79-15.583,5.148-20.228    c3.477-11.899,5.723-28.347,10.068-68.096c0.245-2.245,0.245-2.245,0.49-4.487c1.822-16.664,3.291-29.192,4.618-38.74    c0.035-0.171,0.073-0.341,0.098-0.516c1.598-11.228,3.147-19.159,4.661-23.682c0.037-0.11,0.074-0.225,0.111-0.332    c1.327-3.835,2.984-8.192,5.248-13.831c0.043-0.107,0.088-0.218,0.131-0.326c0.144-0.358,0.29-0.721,0.439-1.09    c0.684-1.69,1.425-3.506,2.236-5.479c0.234-0.568,0.472-1.145,0.716-1.737c0.787-1.906,1.61-3.888,2.743-6.61    c1.42-3.41,2.196-5.275,2.877-6.913c2.396-5.764,4.208-10.165,5.987-14.558c4.321-10.672,7.879-19.935,11.003-28.795    c1.993-5.653,3.778-11.06,5.351-16.242c1.606,3.75,2.984,6.984,3.748,8.819c5.715,13.738,9.997,25.278,13.262,36.246    c4.443,14.93,6.681,27.922,6.464,39.022c-0.27,13.643-2.966,24.457-12.404,54.6c-7.332,23.419-10.543,35.737-12.272,50.161    c-0.611,5.1-0.926,10.042-0.926,14.872c0,24.028,12.342,61.559,31.268,105.006C369.452,408.496,365.859,422.846,355.287,431.223z"/>
	</g>
</g>
<g>
</g>
<g>
</g>
<g>
</g>
<g>
</g>
<g>
</g>
<g>
</g>
<g>
</g>
<g>
</g>
<g>
</g>
<g>
</g>
<g>
</g>
<g>
</g>
<g>
</g>
<g>
</g>
<g>
</g>
</svg>
