<?xml version="1.0" encoding="iso-8859-1"?>
<!-- Generator: Adobe Illustrator 19.0.0, SVG Export Plug-In . SVG Version: 6.00 Build 0)  -->
<svg xmlns="http://www.w3.org/2000/svg" xmlns:xlink="http://www.w3.org/1999/xlink" version="1.1" id="Layer_1" x="0px" y="0px" viewBox="0 0 511.997 511.997" style="enable-background:new 0 0 511.997 511.997;" xml:space="preserve">
<g transform="translate(0 -1)">
	<g>
		<g>
			<path d="M223.399,316.424c4.541,1.26,9.244-1.401,10.504-5.942c8.938-32.225,13.563-57.495,13.563-79.081     c0-4.713-3.82-8.533-8.533-8.533s-8.533,3.82-8.533,8.533c0,19.715-4.381,43.655-12.942,74.519     C216.197,310.462,218.858,315.165,223.399,316.424z"/>
			<path d="M143.233,386.283c4.603,1.011,9.154-1.901,10.165-6.504c6.084-27.7,14.963-57.795,25.269-85.682     c1.634-4.421-0.625-9.329-5.046-10.962s-9.329,0.625-10.962,5.046c-10.575,28.613-19.676,59.461-25.93,87.937     C135.718,380.721,138.63,385.272,143.233,386.283z"/>
			<path d="M333.85,311.082c1.587,4.437,6.471,6.748,10.909,5.16c4.438-1.587,6.748-6.471,5.161-10.909     c-7.97-22.28-16.715-44.969-26.279-68.602c-1.768-4.369-6.743-6.477-11.111-4.709c-4.369,1.768-6.477,6.743-4.709,11.111     C317.302,266.567,325.967,289.046,333.85,311.082z"/>
			<path d="M435.188,452.929c-0.067-25.972-7.948-60.855-22.132-103.426c-5.124-15.379-10.991-31.509-17.57-48.486     c-8.324-21.482-15.234-38.13-27.807-67.644c-6.005-14.088-9.088-29.205-9.088-44.544v-2.953c0-13.728,3.67-27.888,10.688-42.955     c12.375-26.572,6.255-60.082-17.306-75.944c-5.081-3.42-11.92-5.144-19.679-5.589c2.385-8.06,5.077-14.454,8.706-21.106     c1.812-3.321,3.865-6.753,6.923-11.635c0.197-0.314,6.906-10.928,9.193-14.614c2.485-4.005,1.253-9.265-2.751-11.75     c-4.005-2.485-9.265-1.253-11.75,2.751c-2.242,3.613-8.923,14.183-9.154,14.551c-3.225,5.148-5.434,8.842-7.442,12.522     c-5.061,9.276-8.579,18.2-11.684,30.19c-21.345,3.01-44.763,12.15-58.144,21.69c-13.464-9.598-37.092-18.796-58.544-21.749     c-3.101-11.959-6.615-20.87-11.668-30.131c-2.008-3.68-4.217-7.374-7.442-12.522c-0.231-0.368-6.912-10.938-9.154-14.551     c-2.485-4.005-7.746-5.236-11.75-2.751c-4.004,2.485-5.236,7.746-2.751,11.75c2.287,3.686,8.996,14.3,9.193,14.614     c3.059,4.882,5.111,8.314,6.923,11.635c3.633,6.658,6.326,13.058,8.713,21.129c-7.607,0.478-14.31,2.199-19.31,5.565     c-23.561,15.862-29.681,49.373-17.306,75.945c7.024,15.08,10.697,29.235,10.697,42.955v2.953c0,15.328-3.087,30.446-9.096,44.543     c-13.671,32.088-19.737,46.651-28.064,68.037c-6.564,16.857-12.411,32.839-17.525,48.077     c-14.361,42.797-22.312,77.779-22.312,103.783c0,0.107,0.015,0.208,0.019,0.314c0.464,35.797,78.727,59.415,179.189,59.415     c100.756,0,179.2-23.758,179.2-59.733C435.202,453.151,435.193,453.041,435.188,452.929z M115.286,354.915     c5.021-14.962,10.777-30.694,17.248-47.314c8.241-21.165,14.26-35.614,27.861-67.539c6.91-16.212,10.462-33.606,10.462-51.234     v-2.953c0-16.448-4.289-32.978-12.292-50.161c-9.072-19.479-4.627-43.814,11.366-54.581c15.018-10.109,67.487,7.192,80.225,19.93     c3.332,3.332,8.735,3.332,12.068,0c12.739-12.739,65.199-30.039,80.217-19.93c15.993,10.767,20.438,35.102,11.366,54.581     c-7.998,17.171-12.284,33.706-12.284,50.161v2.953c0,17.638,3.547,35.031,10.454,51.235     c12.503,29.348,19.357,45.862,27.594,67.12c6.485,16.737,12.26,32.614,17.292,47.714c11.728,35.197,18.951,64.799,20.794,87.473     c-0.017-0.004-0.035-0.007-0.052-0.011c-2.876-0.62-5.877-1.232-9.008-1.817c-6.543-1.222-13.037-2.228-19.391-2.981     c-1.729-0.205-3.449-0.396-5.154-0.561c-1.479-24.049-9.352-57.002-22.402-97.313c-1.452-4.484-6.263-6.942-10.747-5.49     c-4.484,1.452-6.942,6.263-5.49,10.747c12.283,37.941,19.796,69.05,21.473,91.122c-8.729-0.049-16.572,0.661-23.392,2.265     c-3.699,0.871-7.447,1.856-11.573,3.038c-1.533-21.927-7.012-51.727-16.41-92.422c-1.06-4.592-5.643-7.455-10.235-6.394     c-4.592,1.06-7.455,5.643-6.394,10.235c9.826,42.548,15.25,72.841,16.249,93.752c-0.682,0.22-1.371,0.443-2.078,0.672     c-1.432,0.465-2.422,0.788-4.834,1.577c-30.636,10.026-41.732,13.008-52.219,13.008c-10.487,0-21.588-2.983-52.225-13.008     c-2.405-0.787-3.392-1.109-4.82-1.572c-0.705-0.229-1.391-0.451-2.071-0.67c1.038-17.413,6.607-37.155,24.792-95.226     c0.724-2.312,1.383-4.423,2.013-6.451c1.399-4.5-1.116-9.283-5.617-10.681c-4.5-1.399-9.283,1.116-10.681,5.616     c-0.626,2.015-1.282,4.115-2.002,6.416c-17.471,55.793-23.606,77.055-25.255,95.167c-4.15-1.19-7.915-2.18-11.632-3.055     c-6.848-1.61-14.728-2.319-23.499-2.264c0.384-7.323,1.211-15.44,2.483-24.248c0.674-4.664-2.562-8.992-7.226-9.665     c-4.664-0.674-8.992,2.562-9.665,7.226c-1.446,10.011-2.365,19.266-2.731,27.628c-5.082,0.494-10.276,1.169-15.529,1.997     c-2.962,0.467-5.941,0.978-8.931,1.537c-1.5,0.28-2.965,0.567-4.409,0.857c-0.286,0.057-0.564,0.116-0.847,0.174     c-1.153,0.235-2.287,0.471-3.4,0.71c-0.135,0.029-0.28,0.057-0.414,0.086C96.193,419.716,103.468,390.136,115.286,354.915z      M256.002,495.93c-81.875,0-147.866-17.539-160.098-36.431c1.083-0.242,2.192-0.483,3.322-0.722     c0.125-0.026,0.251-0.053,0.377-0.079c0.971-0.204,1.96-0.407,2.961-0.607c0.175-0.035,0.348-0.07,0.524-0.105     c1.133-0.225,2.282-0.448,3.45-0.666c2.456-0.459,4.901-0.883,7.331-1.276c8.078-1.306,15.981-2.233,23.436-2.656     c10.808-0.615,20.09-0.133,27.288,1.56c4.479,1.053,9.103,2.306,14.552,3.934c1.237,0.37,2.519,0.76,3.85,1.171     c1.435,1.094,3.22,1.751,5.163,1.751c0.119,0,0.234-0.013,0.352-0.018c1.643,0.524,3.353,1.074,5.158,1.66     c1.412,0.459,2.386,0.777,4.777,1.559c32.876,10.762,44.412,13.863,57.548,13.863c13.136,0,24.677-3.102,57.554-13.863     c2.384-0.78,3.356-1.097,4.763-1.554c1.813-0.589,3.531-1.142,5.18-1.667c0.116,0.005,0.23,0.018,0.347,0.018     c1.941,0,3.724-0.655,5.158-1.747c1.687-0.521,3.287-1.004,4.827-1.46c5.027-1.487,9.371-2.656,13.578-3.646     c7.198-1.693,16.48-2.174,27.285-1.56c3.927,0.223,7.982,0.591,12.118,1.074c6.077,0.711,12.331,1.678,18.649,2.859     c3.739,0.699,7.306,1.436,10.645,2.182C403.86,478.392,337.868,495.93,256.002,495.93z"/>
		</g>
	</g>
</g>
<g>
</g>
<g>
</g>
<g>
</g>
<g>
</g>
<g>
</g>
<g>
</g>
<g>
</g>
<g>
</g>
<g>
</g>
<g>
</g>
<g>
</g>
<g>
</g>
<g>
</g>
<g>
</g>
<g>
</g>
</svg>
