<?xml version="1.0" encoding="iso-8859-1"?>
<!-- Generator: Adobe Illustrator 19.0.0, SVG Export Plug-In . SVG Version: 6.00 Build 0)  -->
<svg xmlns="http://www.w3.org/2000/svg" xmlns:xlink="http://www.w3.org/1999/xlink" version="1.1" id="Layer_1" x="0px" y="0px" viewBox="0 0 503.917 503.917" style="enable-background:new 0 0 503.917 503.917;" xml:space="preserve">
<g transform="translate(-1 -1)">
	<g>
		<path d="M336.188,159.612c2.415-7.201,5.181-14.768,8.249-22.647c3.153-8.095,6.5-16.206,10.094-24.567    c1.353-3.146,2.678-6.184,4.136-9.493c0.681-1.544,2.71-6.128,3.046-6.89c1.89-4.304,7.094-8.633,14.804-12.43    c16.211-7.967,23.481-27.153,16.758-43.96c-5.278-13.191-18.049-21.836-32.252-21.836h-11.608c-1.842,0-3.636-0.285-5.438-0.865    c-26.083-8.396-52.054-13.906-76.935-15.459c-0.756-0.048-1.513-0.098-2.267-0.138c-0.719-0.038-1.435-0.069-2.152-0.1    c-1.042-0.046-2.081-0.085-3.118-0.116c-0.566-0.017-1.132-0.035-1.697-0.048C256.189,1.025,254.573,1,252.964,1    c-0.002,0-0.003,0-0.005,0c0,0,0,0-0.001,0c0,0-0.001,0-0.001,0c-1.612,0-3.231,0.025-4.855,0.061    c-0.559,0.012-1.12,0.031-1.68,0.047c-1.046,0.032-2.095,0.071-3.146,0.117c-0.707,0.031-1.415,0.061-2.124,0.099    c-0.78,0.042-1.563,0.093-2.346,0.143c-24.86,1.559-50.808,7.067-76.869,15.456c-1.8,0.579-3.594,0.864-5.444,0.864h-11.6    c-14.212,0-26.985,8.647-32.253,21.841c-6.72,16.8,0.547,35.986,16.756,43.958c7.711,3.794,12.917,8.123,14.804,12.42    c0.339,0.77,2.369,5.354,3.049,6.898c1.458,3.309,2.784,6.347,4.136,9.493c3.594,8.361,6.942,16.472,10.094,24.567    c3.069,7.879,5.834,15.447,8.249,22.647c3.34,9.957,5.933,19,7.688,26.97v31.377c-3.175,9.124-22.738,44.296-23.711,46.266    c-17.307,35.02-26.649,72.604-26.649,122.876c-0.01,3.898,0.069,9.674,0.316,16.757c0.395,11.333,1.122,22.616,2.264,33.194    c2.463,22.802,6.419,39.356,13.034,48.386c8.749,11.95,28.967,17.084,59.316,18.836c12.263,0.708,23.648,0.77,40.147,0.487    c3.259-0.057,4.842-0.085,6.106-0.105c0.991-0.015,1.849-0.027,2.614-0.035c0.079-0.001,0.15-0.001,0.227-0.002    c0.288-0.003,0.566-0.005,0.828-0.007c0.093-0.001,0.179-0.001,0.269-0.001c0.27-0.001,0.535-0.002,0.781-0.002    c1.217,0,2.7,0.015,4.718,0.047c1.264,0.02,2.846,0.047,6.106,0.105c16.5,0.283,27.884,0.221,40.147-0.487    c30.349-1.752,50.567-6.885,59.318-18.838c6.614-9.028,10.57-25.582,13.032-48.384c1.143-10.578,1.869-21.861,2.264-33.194    c0.247-7.082,0.326-12.858,0.316-16.657c0-50.368-9.341-87.943-26.645-122.953c-0.942-1.905-20.547-37.154-23.716-46.284v-31.373    C330.254,178.618,332.848,169.572,336.188,159.612z M295.371,270.212c10.617,32.977,16.342,68.432,16.342,116.644    c-0.006,0.665-0.025,2.078-0.061,4.064c-0.06,3.321-0.147,7.025-0.266,11.015c-0.339,11.39-0.865,22.777-1.617,33.38    c-1.444,20.366-3.593,35.45-6.177,41.72c-2.792,6.778-14.339,10.425-32.332,10.796c-1.945-0.026-4.128-0.057-6.841-0.101    c-3.252-0.054-4.89-0.082-6.151-0.101c-2.112-0.032-3.678-0.049-5.006-0.051c-1.012,0-1.701,0.088-2.36,0.254    c-0.865,0.008-1.838,0.021-2.976,0.038c-1.196,0.018-2.722,0.044-5.764,0.096c-2.996,0.05-5.348,0.083-7.759,0.107    c-17.747-0.37-29.283-4.012-32.074-10.792c-2.586-6.271-4.735-21.356-6.179-41.725c-0.752-10.602-1.278-21.988-1.617-33.378    c-0.119-3.989-0.206-7.693-0.265-11.014c-0.036-1.986-0.055-3.399-0.061-4.141c0-48.139,5.726-83.596,16.346-116.573    c0.046-0.144,10.17-28.057,14.493-42.824h4.983c0.19,0.328,0.391,0.647,0.602,0.961c0.029,0.043,0.061,0.084,0.091,0.127    c0.245,0.357,0.505,0.701,0.776,1.037c0.075,0.093,0.15,0.186,0.227,0.277c0.305,0.363,0.622,0.716,0.956,1.052    c0.03,0.03,0.063,0.058,0.093,0.088c0.312,0.308,0.639,0.602,0.974,0.885c0.091,0.077,0.183,0.154,0.276,0.229    c0.37,0.299,0.749,0.588,1.143,0.855c0.028,0.019,0.057,0.035,0.085,0.054c0.373,0.249,0.758,0.48,1.151,0.7    c0.105,0.059,0.211,0.117,0.318,0.174c0.424,0.225,0.856,0.438,1.301,0.627c0.023,0.01,0.046,0.017,0.068,0.026    c0.426,0.178,0.863,0.335,1.305,0.478c0.118,0.038,0.235,0.075,0.354,0.111c0.469,0.14,0.943,0.268,1.428,0.367    c0.013,0.003,0.027,0.004,0.041,0.007c0.473,0.096,0.955,0.165,1.441,0.22c0.127,0.014,0.253,0.027,0.381,0.039    c0.504,0.046,1.012,0.077,1.527,0.077h16.787c0.516,0,1.024-0.032,1.527-0.077c0.127-0.012,0.254-0.025,0.381-0.039    c0.486-0.055,0.968-0.124,1.441-0.22c0.013-0.003,0.027-0.004,0.041-0.007c0.485-0.1,0.959-0.227,1.428-0.367    c0.119-0.036,0.236-0.073,0.354-0.111c0.443-0.143,0.88-0.3,1.305-0.478c0.023-0.009,0.046-0.017,0.068-0.026    c0.445-0.189,0.876-0.402,1.301-0.627c0.107-0.057,0.212-0.115,0.318-0.174c0.393-0.219,0.779-0.45,1.151-0.7    c0.028-0.019,0.057-0.035,0.085-0.054c0.395-0.268,0.774-0.556,1.144-0.855c0.093-0.075,0.183-0.151,0.274-0.228    c0.336-0.284,0.664-0.578,0.977-0.888c0.03-0.029,0.062-0.057,0.091-0.086c0.335-0.336,0.651-0.69,0.957-1.053    c0.077-0.091,0.151-0.183,0.226-0.276c0.272-0.337,0.533-0.683,0.778-1.04c0.029-0.042,0.06-0.082,0.089-0.124    c0.211-0.313,0.413-0.633,0.602-0.961h5.047C285.237,242.226,295.215,269.728,295.371,270.212z M244.565,185.671    c0-0.005,0.001-0.009,0.001-0.014h16.786v0.002v33.572h-16.787V185.671z M194.204,194.053h33.574v16.785h-9.233h-24.341V194.053z     M287.422,210.838h-9.283v-16.785h33.574v16.785H287.422z M305.609,23.951c-9.618,11.077-29.607,19.017-52.651,19.017    c-23.042,0-43.028-7.939-52.649-19.017c13.507-2.947,26.643-4.892,39.32-5.714c0.418-0.027,0.836-0.053,1.253-0.077    c1.576-0.093,3.143-0.164,4.704-0.221c0.505-0.018,1.011-0.042,1.514-0.057c1.961-0.058,3.914-0.094,5.851-0.094    c0.003,0,0.005,0,0.008,0c1.942,0,3.899,0.036,5.866,0.094c0.494,0.014,0.992,0.038,1.487,0.056    c1.573,0.058,3.151,0.129,4.738,0.223c0.407,0.024,0.815,0.049,1.222,0.075C278.954,19.056,292.095,21.002,305.609,23.951z     M166.808,105.768c-1.375-3.198-2.72-6.281-4.198-9.634c-0.688-1.562-2.717-6.143-3.044-6.885    c-3.811-8.678-11.831-15.347-22.76-20.725c-8.309-4.086-12.054-13.976-8.578-22.665c2.723-6.818,9.319-11.284,16.665-11.284h11.6    c3.605,0,7.133-0.56,10.585-1.67c5.248-1.689,10.486-3.249,15.706-4.683c11.282,19.096,38.966,31.533,70.173,31.533    c31.209,0,58.898-12.438,70.175-31.534c5.22,1.434,10.458,2.993,15.705,4.682c3.454,1.11,6.981,1.671,10.579,1.671h11.608    c7.339,0,13.938,4.468,16.666,11.285c3.476,8.689-0.271,18.577-8.584,22.662c-10.931,5.384-18.946,12.052-22.759,20.735    c-0.323,0.735-2.352,5.315-3.04,6.877c-1.478,3.353-2.823,6.436-4.198,9.634c-3.666,8.528-7.085,16.813-10.315,25.105    c-3.161,8.115-6.016,15.93-8.522,23.401c-2.757,8.219-5.05,15.901-6.826,22.989h-37.555c-0.194-0.335-0.4-0.661-0.616-0.98    c-0.01-0.014-0.02-0.028-0.03-0.042c-0.266-0.392-0.552-0.768-0.849-1.135c-0.06-0.074-0.119-0.147-0.18-0.22    c-0.317-0.378-0.646-0.746-0.995-1.095c-0.003-0.003-0.006-0.005-0.009-0.008c-0.342-0.342-0.703-0.664-1.073-0.975    c-0.072-0.06-0.143-0.121-0.216-0.18c-0.762-0.619-1.579-1.171-2.443-1.651c-0.084-0.046-0.167-0.092-0.252-0.138    c-0.871-0.464-1.788-0.853-2.743-1.16c-0.094-0.03-0.189-0.06-0.284-0.089c-0.96-0.29-1.955-0.494-2.978-0.608    c-0.104-0.012-0.208-0.022-0.313-0.032c-0.515-0.048-1.033-0.081-1.56-0.081h-16.787c-0.526,0-1.045,0.033-1.559,0.08    c-0.107,0.01-0.213,0.021-0.319,0.033c-1.019,0.114-2.01,0.318-2.966,0.605c-0.102,0.031-0.202,0.062-0.303,0.095    c-0.946,0.305-1.854,0.69-2.719,1.149c-0.094,0.05-0.187,0.101-0.28,0.153c-0.414,0.231-0.821,0.473-1.213,0.737    c-0.011,0.007-0.023,0.014-0.034,0.021c-0.402,0.272-0.788,0.566-1.164,0.871c-0.085,0.069-0.169,0.139-0.252,0.21    c-0.348,0.293-0.686,0.597-1.009,0.917c-0.021,0.021-0.044,0.04-0.065,0.061c-0.338,0.339-0.658,0.696-0.967,1.063    c-0.073,0.087-0.145,0.176-0.217,0.265c-0.276,0.342-0.54,0.692-0.789,1.055c-0.026,0.039-0.055,0.075-0.081,0.114    c-0.211,0.314-0.414,0.635-0.604,0.964h-37.555c-1.776-7.087-4.069-14.769-6.826-22.989c-2.506-7.471-5.362-15.285-8.522-23.401    C173.894,122.581,170.474,114.295,166.808,105.768z M156.214,475.519c-4.25-5.802-7.744-20.42-9.888-40.271    c-1.094-10.129-1.795-21.021-2.177-31.977c-0.239-6.857-0.315-12.429-0.306-16.031c0-47.747,8.715-82.803,24.912-115.579    c0.034-0.069,16.294-29.296,22.781-44.035h15.99c-4.442,14.032-12.552,36.425-12.955,37.678    c-11.148,34.617-17.154,71.807-17.154,121.796c0.008,0.868,0.027,2.329,0.064,4.366c0.061,3.385,0.149,7.154,0.27,11.211    c0.345,11.602,0.882,23.208,1.651,34.065c1.579,22.283,3.872,38.37,7.403,46.934c0.36,0.873,0.758,1.71,1.184,2.519    C171.113,484.122,159.786,480.398,156.214,475.519z M362.073,387.1c0.009,3.743-0.067,9.314-0.306,16.172    c-0.382,10.956-1.083,21.848-2.177,31.977c-2.144,19.85-5.638,34.469-9.886,40.269c-3.583,4.893-14.96,8.624-31.91,10.695    c0.48-0.888,0.92-1.815,1.318-2.781c3.53-8.564,5.822-24.65,7.401-46.928c0.77-10.858,1.306-22.464,1.652-34.067    c0.121-4.058,0.209-7.827,0.27-11.212c0.037-2.037,0.056-3.499,0.064-4.289c0-50.061-6.004-87.25-17.149-121.866    c-0.489-1.519-8.469-23.55-12.885-37.441h15.913c6.493,14.767,22.788,44.057,22.788,44.058    C353.361,304.45,362.073,339.497,362.073,387.1z"/>
	</g>
</g>
<g>
</g>
<g>
</g>
<g>
</g>
<g>
</g>
<g>
</g>
<g>
</g>
<g>
</g>
<g>
</g>
<g>
</g>
<g>
</g>
<g>
</g>
<g>
</g>
<g>
</g>
<g>
</g>
<g>
</g>
</svg>
