<?xml version="1.0" encoding="iso-8859-1"?>
<!-- Generator: Adobe Illustrator 19.0.0, SVG Export Plug-In . SVG Version: 6.00 Build 0)  -->
<svg xmlns="http://www.w3.org/2000/svg" xmlns:xlink="http://www.w3.org/1999/xlink" version="1.1" id="Layer_1" x="0px" y="0px" viewBox="0 0 512.002 512.002" style="enable-background:new 0 0 512.002 512.002;" xml:space="preserve">
<g transform="translate(0 -1)">
	<g>
		<path d="M334.488,255.689c-2.509-2.95-4.585-6.112-6.198-9.411c-0.118-0.436-0.26-0.872-0.453-1.302    c-2.355-5.248-3.57-10.455-3.57-15.587c0-0.885,0.029-1.761,0.082-2.629c0.002-0.035,0.004-0.07,0.007-0.106    c0.047-0.724,0.121-1.439,0.205-2.151c0.319-2.483,0.894-4.989,1.72-7.504c0.113-0.345,0.204-0.691,0.272-1.036    c0.789-2.213,1.766-4.353,2.953-6.399c11.933-20.601,19.901-51.345,20.34-93.906c14.493-13.758,25.655-28.047,25.655-37.858    c0-22.073-15.879-35.387-49.677-40.389c-0.517-0.133-1.052-0.224-1.604-0.259c-0.048-0.003-0.095,0-0.142-0.002    c-9.832-1.347-21.13-2.016-33.944-2.016c-4.713,0-8.533-3.822-8.533-8.533V9.533c0-4.713-3.82-8.533-8.533-8.533h-34.133    c-4.713,0-8.533,3.82-8.533,8.533V26.6c0,4.712-3.82,8.533-8.533,8.533c-12.815,0-24.112,0.669-33.944,2.016    c-0.048,0.002-0.094-0.001-0.142,0.002c-0.552,0.035-1.087,0.126-1.604,0.259C152.38,42.413,136.5,55.727,136.5,77.8    c0,9.811,11.163,24.1,25.655,37.858c0.439,42.56,8.406,73.304,20.337,93.9c1.186,2.044,2.162,4.18,2.951,6.375    c0.069,0.354,0.159,0.709,0.275,1.063c1.111,3.383,1.764,6.748,1.952,10.066c0.03,0.605,0.057,1.21,0.06,1.818    c0,0.049,0.003,0.098,0.003,0.147v0.075c-0.001,0.459-0.015,0.917-0.032,1.374c-0.005,0.139-0.006,0.278-0.012,0.417    c-0.023,0.469-0.059,0.937-0.099,1.404c-0.016,0.18-0.029,0.361-0.048,0.541c-0.028,0.284-0.065,0.567-0.1,0.851    c-0.484,3.735-1.58,7.502-3.278,11.28c-0.19,0.422-0.331,0.849-0.448,1.277c-1.614,3.323-3.692,6.49-6.203,9.443    c-68.911,81.028-92.179,127.881-92.179,206.113c0,2.942,1.516,5.677,4.011,7.236c0.631,0.394,1.778,1.08,3.419,2.013    c2.677,1.523,5.807,3.212,9.37,5.023c10.117,5.144,21.717,10.277,34.637,15.062c36.894,13.664,77.075,21.865,119.23,21.865    s82.337-8.2,119.23-21.865c12.92-4.785,24.52-9.918,34.637-15.062c3.563-1.812,6.693-3.5,9.37-5.023    c1.641-0.934,2.787-1.619,3.419-2.013c2.495-1.559,4.011-4.294,4.011-7.236C426.668,383.57,403.4,336.717,334.488,255.689z     M307.201,229.029v0.358c0,1.526,0.084,3.048,0.222,4.566c0.009,0.101,0.015,0.203,0.024,0.304    c0.046,0.476,0.106,0.952,0.166,1.427c0.064,0.529,0.13,1.056,0.208,1.582c0.006,0.039,0.013,0.079,0.019,0.119    c0.13,0.855,0.279,1.705,0.448,2.55h-26.688v-17.067h25.946C307.321,224.907,307.201,226.962,307.201,229.029z M279.299,205.802    c-2.953-5.097-8.453-8.535-14.765-8.535h-17.067c-6.311,0-11.811,3.438-14.764,8.533h-32.965    c-0.748-1.635-1.574-3.237-2.482-4.801c-2.896-4.999-5.544-10.762-7.868-17.331c1.062,0.459,2.147,0.917,3.255,1.371    c24.013,9.84,50.213-0.096,63.357-19.805c13.144,19.709,39.343,29.645,63.353,19.807c1.109-0.455,2.196-0.913,3.258-1.373    c-2.324,6.57-4.974,12.335-7.87,17.336c-0.907,1.564-1.734,3.165-2.481,4.798H279.299z M264.534,214.335v34.132h-17.067v-34.133    h17.067V214.335z M204.801,229.388c0-0.036-0.002-0.072-0.002-0.108v-0.253c0-0.096-0.008-0.192-0.009-0.288    c-0.008-0.748-0.031-1.493-0.067-2.234c-0.013-0.269-0.021-0.537-0.039-0.806c-0.059-0.951-0.146-1.894-0.251-2.833h25.964v17.067    h-26.656C204.435,236.47,204.801,232.945,204.801,229.388z M179.234,116.622c0.065-0.036,0.129-0.076,0.194-0.112    c0.334-0.182,0.675-0.35,1.015-0.522c0.345-0.175,0.69-0.352,1.04-0.516c0.348-0.163,0.702-0.314,1.055-0.467    c0.352-0.152,0.703-0.305,1.059-0.447c0.007-0.003,0.014-0.005,0.021-0.008c0.353-0.14,0.711-0.271,1.069-0.401    c0.353-0.129,0.707-0.256,1.064-0.375c0.042-0.014,0.084-0.026,0.126-0.04c0.335-0.11,0.672-0.214,1.01-0.315    c0.356-0.107,0.714-0.211,1.073-0.308c0.05-0.013,0.1-0.026,0.151-0.039c0.339-0.09,0.679-0.176,1.021-0.258    c0.362-0.086,0.725-0.168,1.089-0.245c0.043-0.009,0.086-0.017,0.129-0.026c0.356-0.074,0.713-0.145,1.072-0.209    c0.007-0.001,0.013-0.002,0.02-0.003c0.36,0.023,0.723,0.032,1.093,0.008c0.811-0.051,1.585-0.221,2.315-0.48    c0.017-0.002,0.033-0.004,0.05-0.005c0.402-0.039,0.804-0.077,1.208-0.106c0.387-0.027,0.776-0.045,1.165-0.062    c0.406-0.018,0.812-0.037,1.22-0.044c0.392-0.007,0.785-0.003,1.178,0c0.409,0.003,0.818,0.004,1.23,0.018    c0.395,0.013,0.792,0.04,1.188,0.063c0.385,0.023,0.769,0.042,1.154,0.074c0.178,0.015,0.357,0.036,0.535,0.053    c0.247,0.023,0.494,0.051,0.741,0.078c0.355,0.039,0.709,0.074,1.065,0.12c0.253,0.033,0.506,0.074,0.759,0.111    c0.207,0.03,0.415,0.065,0.623,0.098c0.322,0.051,0.643,0.098,0.965,0.156c0.298,0.053,0.596,0.114,0.894,0.173    c0.207,0.041,0.414,0.086,0.622,0.13c0.279,0.059,0.557,0.113,0.836,0.176c0.325,0.074,0.65,0.155,0.975,0.236    c0.169,0.042,0.338,0.088,0.507,0.132c0.298,0.077,0.596,0.151,0.893,0.233c0.318,0.088,0.636,0.183,0.954,0.277    c0.22,0.065,0.44,0.136,0.659,0.205c0.271,0.084,0.542,0.166,0.812,0.255c0.292,0.096,0.583,0.196,0.874,0.297    c0.251,0.087,0.501,0.18,0.752,0.271c0.265,0.097,0.53,0.192,0.795,0.293c0.263,0.1,0.525,0.202,0.787,0.307    c0.281,0.112,0.561,0.23,0.841,0.348c0.263,0.11,0.525,0.22,0.787,0.334c0.23,0.1,0.46,0.201,0.689,0.304    c0.308,0.139,0.615,0.286,0.922,0.431c0.268,0.127,0.536,0.255,0.802,0.386c0.19,0.094,0.381,0.186,0.57,0.282    c0.337,0.171,0.672,0.349,1.007,0.527c0.289,0.154,0.578,0.309,0.866,0.469c0.131,0.073,0.263,0.143,0.394,0.217    c0.364,0.205,0.725,0.418,1.087,0.632c0.386,0.229,0.772,0.459,1.155,0.698c0.387,0.241,0.771,0.49,1.155,0.742    c0.382,0.25,0.763,0.504,1.141,0.765c0.379,0.261,0.756,0.529,1.132,0.8c0.376,0.272,0.75,0.548,1.122,0.83    c0.345,0.261,0.688,0.528,1.029,0.798c0.08,0.063,0.159,0.127,0.238,0.191c0.315,0.252,0.629,0.507,0.94,0.766    c0.307,0.256,0.613,0.515,0.918,0.778c0.124,0.107,0.247,0.215,0.37,0.323c0.292,0.256,0.582,0.516,0.87,0.779    c0.27,0.246,0.539,0.495,0.807,0.747c0.152,0.144,0.304,0.289,0.456,0.434c0.282,0.271,0.561,0.547,0.84,0.825    c0.233,0.233,0.466,0.467,0.697,0.705c0.174,0.179,0.348,0.359,0.521,0.54c0.277,0.292,0.551,0.589,0.824,0.888    c0.197,0.215,0.394,0.431,0.589,0.649c0.192,0.215,0.384,0.43,0.574,0.648c0.276,0.318,0.548,0.644,0.82,0.969    c0.159,0.191,0.319,0.381,0.477,0.574c0.206,0.252,0.413,0.502,0.616,0.758c0.28,0.353,0.555,0.716,0.83,1.078    c0.121,0.158,0.242,0.316,0.361,0.475c0.215,0.287,0.432,0.572,0.644,0.864c0.296,0.409,0.584,0.83,0.874,1.248    c0.073,0.106,0.147,0.21,0.22,0.317c0.222,0.324,0.446,0.644,0.664,0.973c0.074,0.112,0.144,0.23,0.218,0.343    c-1.875,22.873-26.526,38.313-48.237,29.417c-6.215-2.551-11.539-5.151-15.461-7.55    C181.015,148.372,179.475,133.439,179.234,116.622z M264.865,139.487c0.217-0.329,0.441-0.647,0.662-0.97    c0.072-0.105,0.145-0.208,0.217-0.313c0.291-0.421,0.581-0.844,0.879-1.255c0.211-0.291,0.426-0.573,0.64-0.859    c0.121-0.161,0.243-0.32,0.364-0.479c0.276-0.362,0.55-0.726,0.831-1.079c0.202-0.254,0.407-0.503,0.612-0.753    c0.159-0.194,0.32-0.386,0.48-0.578c0.272-0.326,0.544-0.652,0.821-0.97c0.189-0.217,0.379-0.43,0.57-0.644    c0.196-0.22,0.393-0.436,0.591-0.652c0.274-0.299,0.548-0.598,0.826-0.89c0.172-0.18,0.344-0.359,0.517-0.536    c0.232-0.239,0.466-0.474,0.7-0.708c0.278-0.278,0.558-0.554,0.84-0.825c0.151-0.145,0.302-0.289,0.454-0.432    c0.268-0.253,0.538-0.502,0.808-0.748c0.289-0.263,0.58-0.524,0.872-0.78c0.123-0.108,0.245-0.216,0.368-0.322    c0.304-0.263,0.609-0.522,0.916-0.777c0.313-0.26,0.627-0.516,0.943-0.768c0.079-0.063,0.158-0.127,0.237-0.19    c0.341-0.27,0.685-0.536,1.029-0.798c0.372-0.282,0.746-0.558,1.122-0.83c0.376-0.271,0.753-0.539,1.132-0.8    c0.379-0.261,0.759-0.514,1.141-0.765c0.384-0.251,0.768-0.501,1.155-0.742c0.384-0.239,0.77-0.469,1.156-0.698    c0.361-0.214,0.722-0.426,1.085-0.631c0.13-0.073,0.26-0.143,0.39-0.215c0.289-0.16,0.58-0.317,0.871-0.471    c0.335-0.178,0.67-0.356,1.006-0.527c0.189-0.096,0.379-0.188,0.568-0.281c0.267-0.132,0.535-0.26,0.803-0.387    c0.307-0.146,0.615-0.292,0.923-0.431c0.229-0.104,0.459-0.204,0.689-0.304c0.262-0.114,0.525-0.224,0.787-0.334    c0.28-0.117,0.56-0.235,0.841-0.348c0.262-0.105,0.524-0.207,0.786-0.307c0.265-0.101,0.531-0.197,0.797-0.294    c0.25-0.091,0.499-0.184,0.75-0.271c0.291-0.101,0.582-0.201,0.874-0.297c0.271-0.089,0.543-0.171,0.815-0.256    c0.219-0.068,0.438-0.139,0.657-0.204c0.318-0.095,0.636-0.189,0.954-0.277c0.301-0.084,0.602-0.158,0.903-0.236    c0.166-0.043,0.331-0.088,0.497-0.129c0.325-0.081,0.65-0.162,0.975-0.236c0.277-0.063,0.555-0.117,0.832-0.175    c0.208-0.044,0.417-0.089,0.625-0.131c0.298-0.059,0.596-0.12,0.894-0.173c0.321-0.058,0.642-0.105,0.964-0.156    c0.208-0.033,0.416-0.067,0.624-0.098c0.253-0.037,0.506-0.078,0.758-0.111c0.355-0.047,0.71-0.081,1.064-0.12    c0.247-0.027,0.494-0.055,0.741-0.078c0.178-0.017,0.357-0.038,0.535-0.053c0.386-0.032,0.77-0.051,1.154-0.074    c0.396-0.023,0.793-0.05,1.188-0.063c0.411-0.014,0.82-0.014,1.23-0.018c0.393-0.003,0.787-0.007,1.178,0    c0.408,0.007,0.814,0.026,1.22,0.044c0.389,0.017,0.778,0.035,1.164,0.062c0.404,0.029,0.806,0.067,1.208,0.106    c0.017,0.002,0.033,0.004,0.049,0.005c0.73,0.259,1.504,0.429,2.315,0.48c0.37,0.023,0.733,0.015,1.093-0.008    c0.007,0.001,0.013,0.002,0.02,0.003c0.359,0.065,0.716,0.136,1.072,0.21c0.043,0.009,0.086,0.017,0.129,0.026    c0.364,0.077,0.727,0.158,1.088,0.244c0.342,0.082,0.683,0.168,1.022,0.258c0.05,0.013,0.101,0.026,0.151,0.039    c0.36,0.097,0.717,0.201,1.073,0.307c0.338,0.101,0.675,0.205,1.01,0.315c0.042,0.014,0.084,0.026,0.126,0.04    c0.357,0.119,0.711,0.246,1.063,0.374c0.358,0.13,0.716,0.261,1.07,0.402c0.007,0.003,0.015,0.005,0.022,0.008    c0.356,0.142,0.707,0.294,1.058,0.446c0.353,0.153,0.707,0.304,1.055,0.467c0.35,0.164,0.694,0.341,1.039,0.516    c0.34,0.172,0.682,0.341,1.016,0.523c0.065,0.036,0.129,0.076,0.194,0.112c-0.241,16.817-1.781,31.75-4.424,45.077    c-3.922,2.399-9.247,4.999-15.465,7.551c-21.707,8.894-46.357-6.545-48.233-29.419C264.72,139.719,264.79,139.6,264.865,139.487z     M358.435,77.8c0,2.85-8.524,13.71-18.251,23.416c-0.313-0.166-0.634-0.314-0.95-0.473c-0.335-0.169-0.67-0.34-1.008-0.503    c-0.138-0.066-0.273-0.14-0.412-0.206c-0.026-0.012-0.052-0.027-0.078-0.039c-0.375-0.176-0.758-0.332-1.137-0.499    c-0.327-0.144-0.653-0.293-0.983-0.431c-0.223-0.093-0.445-0.187-0.669-0.277c-0.298-0.12-0.601-0.228-0.901-0.343    c-0.059-0.023-0.119-0.045-0.178-0.068c-0.306-0.116-0.609-0.238-0.916-0.349c-0.288-0.103-0.577-0.2-0.867-0.298    c-0.355-0.121-0.713-0.235-1.07-0.349c-0.014-0.005-0.029-0.009-0.043-0.014c-0.244-0.078-0.485-0.164-0.729-0.238    c-0.367-0.111-0.737-0.209-1.106-0.313c-0.045-0.013-0.09-0.028-0.136-0.041l2.609-41.259    C350.785,59.568,358.435,67.21,358.435,77.8z M247.468,26.6v-8.533h17.067V26.6c0,14.136,11.46,25.6,25.6,25.6    c9.237,0,17.377,0.318,24.525,0.933l-2.622,41.451c-0.132,0.001-0.265,0.012-0.397,0.014c-0.484,0.008-0.968,0.023-1.453,0.042    c-0.313,0.012-0.626,0.025-0.939,0.042c-0.248,0.013-0.495,0.025-0.742,0.042c-0.423,0.028-0.846,0.066-1.269,0.102    c-0.384,0.033-0.768,0.068-1.152,0.107c-0.089,0.009-0.177,0.015-0.266,0.025c-0.146,0.016-0.292,0.024-0.438,0.041    c-0.37,0.042-0.741,0.101-1.112,0.149c-0.379,0.05-0.758,0.099-1.138,0.155c-0.291,0.043-0.582,0.083-0.873,0.13    c-0.311,0.05-0.622,0.113-0.933,0.167c-0.015,0.003-0.03,0.005-0.045,0.008c-0.365,0.065-0.73,0.126-1.096,0.197    c-0.354,0.069-0.708,0.141-1.062,0.215c-0.348,0.073-0.695,0.152-1.043,0.231c-0.278,0.063-0.557,0.122-0.835,0.188    c-0.427,0.102-0.853,0.215-1.28,0.325c-0.364,0.094-0.727,0.188-1.09,0.289c-0.186,0.051-0.373,0.098-0.559,0.151    c-0.527,0.15-1.052,0.317-1.578,0.481c-0.35,0.109-0.7,0.212-1.049,0.326c-0.095,0.031-0.19,0.058-0.285,0.089    c-0.761,0.253-1.519,0.527-2.276,0.806c-0.176,0.065-0.353,0.122-0.529,0.189c-1.013,0.383-2.021,0.793-3.024,1.225    c-0.04,0.017-0.08,0.032-0.12,0.05c-0.257,0.111-0.511,0.236-0.767,0.351c-0.652,0.291-1.303,0.583-1.95,0.895    c-0.128,0.061-0.255,0.123-0.383,0.185c-0.306,0.149-0.609,0.31-0.914,0.464c-0.505,0.255-1.01,0.51-1.511,0.778    c-0.213,0.114-0.424,0.229-0.636,0.345c-0.296,0.162-0.59,0.329-0.885,0.495c-0.418,0.236-0.834,0.473-1.249,0.718    c-0.295,0.174-0.589,0.352-0.882,0.53c-0.271,0.164-0.542,0.326-0.811,0.495c-0.347,0.217-0.692,0.44-1.036,0.663    c-0.36,0.233-0.717,0.471-1.075,0.711c-0.058,0.039-0.117,0.077-0.176,0.116c-0.194,0.131-0.391,0.253-0.584,0.386    c-0.286,0.197-0.567,0.406-0.852,0.607c-0.357,0.252-0.711,0.508-1.065,0.767c-0.295,0.216-0.592,0.427-0.884,0.648    c-0.239,0.18-0.473,0.371-0.71,0.555c-0.341,0.264-0.682,0.528-1.02,0.798c-0.341,0.272-0.68,0.546-1.018,0.825    c-0.258,0.213-0.514,0.431-0.77,0.648c-0.255,0.216-0.509,0.433-0.762,0.653c-0.392,0.341-0.78,0.691-1.168,1.042    c-0.268,0.242-0.536,0.482-0.802,0.729c-0.172,0.16-0.344,0.32-0.515,0.482c-0.46,0.435-0.912,0.884-1.364,1.333    c-0.257,0.254-0.517,0.501-0.771,0.759c-0.093,0.094-0.185,0.189-0.277,0.284c-0.593,0.609-1.174,1.238-1.752,1.871    c-0.028,0.031-0.057,0.06-0.085,0.091c-0.169,0.185-0.342,0.362-0.509,0.549c-0.77,0.86-1.528,1.738-2.27,2.641    c-0.742-0.902-1.5-1.78-2.269-2.64c-0.171-0.191-0.348-0.372-0.52-0.561c-0.025-0.027-0.05-0.053-0.075-0.08    c-0.579-0.633-1.16-1.261-1.752-1.871c-0.092-0.095-0.184-0.19-0.277-0.284c-0.254-0.258-0.514-0.504-0.77-0.758    c-0.453-0.449-0.906-0.899-1.366-1.335c-0.171-0.162-0.342-0.322-0.514-0.481c-0.265-0.247-0.534-0.486-0.801-0.728    c-0.388-0.351-0.776-0.701-1.168-1.042c-0.253-0.22-0.508-0.436-0.762-0.653c-0.256-0.217-0.512-0.435-0.77-0.648    c-0.337-0.279-0.677-0.553-1.018-0.825c-0.338-0.27-0.679-0.535-1.02-0.798c-0.237-0.184-0.471-0.375-0.71-0.555    c-0.293-0.221-0.59-0.431-0.884-0.647c-0.354-0.259-0.709-0.515-1.065-0.767c-0.284-0.201-0.565-0.41-0.851-0.607    c-0.194-0.133-0.392-0.257-0.587-0.388c-0.058-0.039-0.116-0.076-0.174-0.115c-0.357-0.239-0.714-0.477-1.073-0.71    c-0.345-0.223-0.69-0.447-1.038-0.664c-0.269-0.168-0.54-0.33-0.81-0.494c-0.293-0.178-0.587-0.356-0.882-0.53    c-0.415-0.244-0.831-0.482-1.249-0.717c-0.295-0.167-0.59-0.334-0.887-0.496c-0.212-0.116-0.423-0.231-0.636-0.344    c-0.501-0.268-1.006-0.523-1.511-0.778c-0.305-0.154-0.607-0.314-0.913-0.464c-0.127-0.062-0.255-0.123-0.382-0.185    c-0.648-0.312-1.3-0.605-1.953-0.896c-0.256-0.114-0.508-0.239-0.765-0.349c-0.04-0.017-0.08-0.032-0.12-0.049    c-1.003-0.432-2.011-0.841-3.024-1.225c-0.176-0.067-0.353-0.124-0.529-0.189c-0.757-0.28-1.515-0.554-2.276-0.807    c-0.095-0.031-0.19-0.058-0.284-0.089c-0.349-0.114-0.7-0.218-1.05-0.326c-0.526-0.163-1.051-0.33-1.578-0.481    c-0.186-0.053-0.373-0.1-0.559-0.151c-0.363-0.1-0.727-0.194-1.09-0.289c-0.427-0.111-0.853-0.223-1.28-0.325    c-0.278-0.066-0.556-0.125-0.835-0.188c-0.348-0.079-0.695-0.157-1.043-0.231c-0.354-0.074-0.708-0.147-1.062-0.215    c-0.365-0.071-0.73-0.132-1.095-0.196c-0.015-0.003-0.031-0.006-0.046-0.008c-0.311-0.055-0.622-0.117-0.933-0.167    c-0.291-0.047-0.582-0.086-0.873-0.13c-0.379-0.056-0.758-0.105-1.138-0.155c-0.371-0.048-0.741-0.107-1.112-0.149    c-0.146-0.017-0.292-0.025-0.438-0.041c-0.089-0.01-0.178-0.016-0.266-0.025c-0.384-0.04-0.768-0.075-1.152-0.107    c-0.423-0.036-0.846-0.074-1.269-0.102c-0.248-0.016-0.495-0.028-0.743-0.042c-0.313-0.017-0.626-0.03-0.939-0.042    c-0.485-0.019-0.969-0.034-1.453-0.042c-0.132-0.002-0.265-0.013-0.397-0.014l-2.622-41.451    c7.149-0.615,15.288-0.933,24.526-0.933C236.007,52.2,247.468,40.736,247.468,26.6z M153.567,77.8    c0-10.59,7.65-18.232,26.825-22.283l2.609,41.259c-0.046,0.013-0.09,0.028-0.136,0.041c-0.369,0.104-0.74,0.201-1.106,0.313    c-0.245,0.074-0.486,0.16-0.729,0.238c-0.014,0.005-0.029,0.009-0.043,0.014c-0.358,0.114-0.715,0.228-1.07,0.349    c-0.289,0.099-0.579,0.195-0.867,0.298c-0.308,0.11-0.611,0.233-0.916,0.349c-0.059,0.023-0.119,0.045-0.178,0.068    c-0.3,0.115-0.603,0.223-0.901,0.343c-0.224,0.09-0.446,0.184-0.669,0.277c-0.33,0.138-0.656,0.286-0.983,0.431    c-0.379,0.167-0.762,0.323-1.137,0.499c-0.026,0.012-0.052,0.027-0.078,0.039c-0.139,0.065-0.274,0.139-0.412,0.206    c-0.338,0.162-0.673,0.333-1.008,0.503c-0.316,0.16-0.637,0.307-0.95,0.473C162.091,91.51,153.567,80.65,153.567,77.8z     M402.133,460.862c-9.549,4.856-20.55,9.723-32.829,14.271c-35.106,13.002-73.325,20.802-113.303,20.802    s-78.197-7.8-113.303-20.802c-12.28-4.548-23.28-9.415-32.829-14.271c-2.781-1.414-5.263-2.739-7.435-3.951    c0.957-70.446,23.038-113.687,88.08-190.165c2.611-3.07,4.884-6.337,6.816-9.746h35.374c2.953,5.096,8.452,8.533,14.764,8.533    h17.067c6.311,0,11.81-3.437,14.763-8.532h35.38c1.931,3.413,4.202,6.677,6.81,9.744c65.042,76.479,87.123,119.719,88.08,190.165    C407.397,458.123,404.914,459.448,402.133,460.862z"/>
	</g>
</g>
<g>
</g>
<g>
</g>
<g>
</g>
<g>
</g>
<g>
</g>
<g>
</g>
<g>
</g>
<g>
</g>
<g>
</g>
<g>
</g>
<g>
</g>
<g>
</g>
<g>
</g>
<g>
</g>
<g>
</g>
</svg>
