<?xml version="1.0" encoding="iso-8859-1"?>
<!-- Generator: Adobe Illustrator 19.0.0, SVG Export Plug-In . SVG Version: 6.00 Build 0)  -->
<svg xmlns="http://www.w3.org/2000/svg" xmlns:xlink="http://www.w3.org/1999/xlink" version="1.1" id="Layer_1" x="0px" y="0px" viewBox="0 0 512.009 512.009" style="enable-background:new 0 0 512.009 512.009;" xml:space="preserve">
<g transform="translate(0 -1)">
	<g>
		<path d="M361.527,80.443c-2.529-17.795-13.964-32.702-29.752-40.014c0.346-1.298,0.624-2.426,0.826-3.331    c0.634-2.849-0.232-5.824-2.296-7.888c-8.06-8.06-18.229-13.871-44.884-27.198c-4.944-2.472-10.898,0.337-12.134,5.725    c-0.19,0.829-0.549,2.388-1.055,4.573c-0.843,3.644-1.788,7.704-2.813,12.077c-2.927,12.493-5.903,24.985-8.749,36.638    c-0.46,1.884-0.914,3.733-1.36,5.545c-1.159,4.702-2.256,9.092-3.292,13.177c-1.044-4.115-2.15-8.541-3.319-13.283    c-0.447-1.812-0.9-3.661-1.36-5.545c-2.846-11.654-5.822-24.146-8.749-36.639c-1.025-4.373-1.97-8.434-2.813-12.077    c-0.506-2.185-0.865-3.744-1.055-4.573c-1.236-5.388-7.19-8.197-12.134-5.725c-26.655,13.328-36.825,19.139-44.884,27.198    c-2.064,2.064-2.93,5.039-2.296,7.887c0.207,0.928,0.493,2.087,0.851,3.428c-15.794,7.308-27.241,22.221-29.778,40.025    c-3.318,23.25-5.41,43.459-5.41,57.097c0,1.86,0.608,3.669,1.731,5.152c2.05,2.706,5.454,6.532,9.906,10.385    c8.394,7.267,17.157,11.62,26.308,11.146c1.796,3.805,3.59,7.996,5.269,12.456c2.833,7.524,5.009,14.972,6.375,22.125    c0.004,0.021,0.004,0.042,0.008,0.063c0.259,1.363,0.487,2.704,0.685,4.023c0.007,0.049,0.013,0.097,0.021,0.146    c0.177,1.195,0.324,2.369,0.449,3.528c0.033,0.315,0.06,0.627,0.09,0.94c0.096,1,0.181,1.992,0.237,2.965    c0.008,0.135,0.015,0.27,0.022,0.404c0.061,1.174,0.097,2.332,0.097,3.466c0,0.267-0.017,0.527-0.025,0.791    c-0.009,0.313-0.014,0.628-0.033,0.936c-0.029,0.431-0.074,0.857-0.124,1.281c-0.014,0.122-0.025,0.245-0.041,0.367    c-0.432,3.21-1.501,6.305-3.293,9.786c-0.104,0.201-0.178,0.406-0.265,0.61c-0.349,0.656-0.719,1.324-1.121,2.011    c-1.677,2.871-9.345,14.287-10.862,16.714c-12.213,19.526-18.365,39.554-18.365,69.546c0,56.777,13.731,141.909,25.977,181.71    c0.756,2.457,2.579,4.442,4.964,5.404c3.189,1.286,8.958,3.098,17.111,4.871c13.358,2.905,28.698,4.641,45.814,4.641    s32.456-1.736,45.814-4.641c8.153-1.773,13.923-3.584,17.111-4.871c2.384-0.962,4.208-2.947,4.964-5.404    c12.246-39.801,25.977-124.933,25.977-181.71c0-29.992-6.153-50.019-18.365-69.546c-1.518-2.426-9.186-13.842-10.862-16.714    c-0.407-0.697-0.783-1.374-1.137-2.039c-0.083-0.194-0.154-0.39-0.253-0.582c-1.498-2.909-2.491-5.55-3.03-8.213    c-0.007-0.035-0.014-0.07-0.02-0.106c-0.092-0.466-0.168-0.934-0.232-1.404c-0.029-0.22-0.051-0.443-0.074-0.665    c-0.036-0.329-0.073-0.658-0.096-0.991c-0.039-0.588-0.064-1.179-0.064-1.784c0-1.092,0.037-2.208,0.093-3.337    c0.011-0.221,0.023-0.442,0.036-0.665c0.051-0.86,0.127-1.736,0.209-2.617c0.039-0.42,0.075-0.839,0.12-1.262    c0.114-1.047,0.248-2.107,0.405-3.183c0.024-0.167,0.046-0.334,0.071-0.501c0.193-1.279,0.412-2.577,0.663-3.897    c1.366-7.175,3.547-14.648,6.389-22.198c1.679-4.46,3.473-8.65,5.269-12.456c9.151,0.474,17.914-3.88,26.308-11.146    c4.451-3.854,7.856-7.679,9.906-10.385c1.123-1.483,1.731-3.292,1.731-5.152C366.938,123.903,364.846,103.695,361.527,80.443z     M275.88,70.655c0.45-1.824,0.906-3.685,1.369-5.58c2.86-11.711,5.848-24.253,8.787-36.795c0.496-2.116,0.973-4.159,1.429-6.117    c14.069,7.195,21.942,11.732,27.231,15.962c-0.412,1.442-0.875,2.971-1.388,4.571c-0.042,0.114-0.091,0.224-0.129,0.341    c-0.597,1.852-1.22,3.671-1.86,5.465c-2.6,7.179-5.736,14.285-9.439,20.942c-9.324,16.761-20.595,28-33.942,32.164    C270.123,93.618,272.794,83.178,275.88,70.655z M224.544,22.057c0.456,1.958,0.933,4.001,1.429,6.117    c2.938,12.541,5.926,25.083,8.787,36.795c0.463,1.895,0.919,3.756,1.369,5.58c3.086,12.523,5.758,22.964,7.942,30.954    c-13.347-4.164-24.617-15.402-33.942-32.164c-3.674-6.605-6.789-13.651-9.377-20.772c-0.65-1.819-1.283-3.663-1.889-5.541    c-0.044-0.135-0.099-0.262-0.149-0.394c-0.518-1.615-0.986-3.158-1.401-4.612C202.602,33.79,210.475,29.252,224.544,22.057z     M213.009,219.538c0.054-0.444,0.105-0.89,0.146-1.338c0.034-0.392,0.066-0.786,0.089-1.182c0.047-0.775,0.077-1.557,0.083-2.349    c0.001-0.11,0.011-0.216,0.011-0.327c0-1.304-0.043-2.626-0.104-3.957c-0.01-0.214-0.023-0.429-0.035-0.644    c-0.029-0.532-0.048-1.061-0.086-1.597c-0.037-0.514-0.102-1.036-0.147-1.552c-0.023-0.263-0.032-0.52-0.058-0.784h17.494v17.067    h-17.925C212.7,221.777,212.875,220.664,213.009,219.538z M332.804,316.384c0,53.102-12.543,132.708-23.993,172.553    c-3.007,0.932-6.554,1.87-10.619,2.754c-12.196,2.652-26.324,4.251-42.188,4.251c-15.864,0-29.991-1.599-42.188-4.251    c-4.064-0.884-7.612-1.822-10.619-2.754c-11.451-39.845-23.993-119.451-23.993-172.553c0-26.675,5.198-43.596,15.768-60.496    c1.133-1.812,7.667-11.551,10.396-15.946h27.339c2.953,5.096,8.452,8.533,14.764,8.533h17.067c6.311,0,11.811-3.438,14.764-8.533    h27.339c2.729,4.395,9.263,14.134,10.396,15.946C327.606,272.787,332.804,289.709,332.804,316.384z M264.538,231.409h-17.067    v-34.133h17.067V231.409z M299.028,206.758c-0.039,0.461-0.098,0.927-0.131,1.386c-0.034,0.48-0.051,0.952-0.077,1.429    c-0.018,0.31-0.036,0.621-0.05,0.93c-0.058,1.29-0.098,2.573-0.098,3.839c0,0.934,0.039,1.851,0.097,2.76    c0.02,0.333,0.047,0.665,0.075,0.995c0.048,0.545,0.108,1.086,0.177,1.623c0.131,1.059,0.3,2.107,0.51,3.143    c0.001,0.004,0.001,0.008,0.002,0.012h-17.928v-17.067h17.494C299.067,206.128,299.055,206.439,299.028,206.758z M344.13,140.177    c-5.72,4.952-11.112,7.475-15.05,6.93c-0.579-0.08-1.142-0.226-1.7-0.445c-3.987-1.56-8.513,0.076-10.581,3.825    c-0.611,1.107-1.62,3.058-2.895,5.728c-2.1,4.397-4.195,9.256-6.153,14.454c-2.28,6.056-4.186,12.1-5.666,18.073h-22.784    c-2.953-5.096-8.452-8.533-14.764-8.533h-17.067c-6.311,0-11.811,3.438-14.764,8.533h-22.784    c-1.479-5.973-3.386-12.017-5.666-18.073c-1.957-5.199-4.053-10.057-6.153-14.454c-1.275-2.67-2.285-4.621-2.895-5.728    c-2.068-3.749-6.594-5.384-10.581-3.825c-0.558,0.218-1.121,0.364-1.7,0.445c-3.938,0.546-9.33-1.978-15.05-6.93    c-1.995-1.727-3.86-3.599-5.523-5.469c0.103-12.801,2.06-31.106,5.022-51.854c1.608-11.28,8.532-20.847,18.202-26.033    c13.335,35.999,34.77,61.875,67.259,63.457c0.373,0.019,0.746,0.039,1.121,0.051c0.206,0.006,0.407,0.024,0.614,0.028    c0.078,0.013,0.159,0.019,0.238,0.03c0.08,0.011,0.159,0.021,0.24,0.03c0.313,0.034,0.63,0.058,0.954,0.058    c0.923,0,1.837-0.026,2.745-0.066c0.512-0.021,1.018-0.057,1.524-0.091c0.285-0.02,0.57-0.039,0.853-0.063    c31.43-2.508,52.275-28.104,65.339-63.419c9.657,5.189,16.565,14.745,18.166,26.012c2.962,20.753,4.919,39.058,5.204,51.654    C347.99,136.577,346.125,138.45,344.13,140.177z"/>
	</g>
</g>
<g>
</g>
<g>
</g>
<g>
</g>
<g>
</g>
<g>
</g>
<g>
</g>
<g>
</g>
<g>
</g>
<g>
</g>
<g>
</g>
<g>
</g>
<g>
</g>
<g>
</g>
<g>
</g>
<g>
</g>
</svg>
