<?xml version="1.0" encoding="iso-8859-1"?>
<!-- Generator: Adobe Illustrator 19.0.0, SVG Export Plug-In . SVG Version: 6.00 Build 0)  -->
<svg xmlns="http://www.w3.org/2000/svg" xmlns:xlink="http://www.w3.org/1999/xlink" version="1.1" id="Layer_1" x="0px" y="0px" viewBox="0 0 511.1 511.1" style="enable-background:new 0 0 511.1 511.1;" xml:space="preserve">
<g>
	<g>
		<path d="M341.95,288.5c-8.9-18.2-18.1-37.1-18.6-41.6c0-8,0.8-16.1,2.5-23.9c0.1-0.3,0.1-0.7,0.1-1c1.8-8.1,4.4-15.9,7.9-23.2    c7.7-16.2,12.8-36.3,14.9-59.5c10-13.2,26-52.8,26-63c0-18.9-12.6-31.6-37.3-37.6c-0.3-0.1-0.7-0.1-1-0.2    c-9.1-2.1-20.2-3.5-33.1-4c-0.2,0-0.4,0-0.7,0l-12.6-0.3c-0.1,0-0.1,0-0.2,0c-5,0-9.1-4.1-9.1-9.1V8c0-4.4-3.6-8-8-8h-34.1    c-4.4,0-8,3.6-8,8v17.1c0,5-4.1,9.1-9.1,9.1c-0.1,0-0.1,0-0.2,0l-12.6,0.3h-0.1c-13.6,0.5-25.2,2-34.6,4.3    c-24.8,6-37.3,18.7-37.3,37.6c0,10.1,15.9,49.7,25.8,62.9c2.2,23.3,7.2,43.3,14.9,59.6c3.5,7.4,6.2,15.2,7.9,23.3    c0,0.3,0.1,0.6,0.1,0.9c1.6,7.8,2.5,15.9,2.5,23.9c0,0.3-0.3,1.8-1.9,5.7c-0.1,0.2-0.1,0.4-0.2,0.6c-3.3,8.1-10,21.9-16.6,35.3    c-25,51.1-66.8,136.6-66.8,197.4c0,3.9,2.8,7.2,6.7,7.9c4.2,0.7,103.5,17.1,146.4,17.2c42.9,0,142.2-16.5,146.4-17.2    c3.9-0.6,6.7-4,6.7-7.9C408.85,425.1,366.95,339.6,341.95,288.5z M341.25,56.4c15.4,5.5,17.6,13.4,17.6,19.8    c-0.3,6.1-12.7,37.9-20.5,50.3c-4.4-1.6-8.7-3.1-13.2-4.5L341.25,56.4z M308.35,50.8c6.3,0.4,12.1,1,17.3,1.9l-17.9,72.9    c-1,4.2,1.5,8.5,5.6,9.6c7,2,12.9,4,19.2,6.2c-2.7,24.5-8.5,40.9-13.1,50.5c-3.3,6.9-5.9,14-7.8,21.5h-47.9V127h17.6    c3.6,0,6.8-2.4,7.7-5.9L308.35,50.8z M204.05,242.6c0-0.1,0-0.2,0-0.2c-0.1-4.4-0.5-8.8-1-13h105.5c-0.8,5.7-1.2,11.6-1.2,17.6    v0.1c0,0.1,0,0.2,0,0.4h-103.2c0-0.1,0-0.2,0-0.4c0-0.1,0-0.1,0-0.2C204.15,245.4,204.15,244,204.05,242.6z M221.85,50.2    c13.8,0,25-11.3,25-25.1V16h18.1v9.1c0,13.8,11.2,25,25,25.1h2l-16.7,60.8h-39l-16.6-60.8H221.85z M173.25,126.5    c-7.7-12.4-20-44.1-20.3-50.2c0-6.5,2.1-14.3,17.4-19.8l16.1,65.5C181.85,123.4,177.65,124.9,173.25,126.5z M178.95,141.4    c6.3-2.2,12.2-4.2,19.2-6.2c4.2-1.2,6.7-5.4,5.6-9.6l-17.9-72.9c5.2-0.9,11-1.5,17.3-1.9l19.3,70.3c1,3.5,4.1,5.9,7.7,5.9h17.6    v86.4h-47.9c-1.9-7.4-4.6-14.6-7.8-21.5C187.45,182.3,181.65,165.9,178.95,141.4z M255.75,495c-35.3,0-113.3-12.1-136.9-15.8    c3-56.8,41.6-135.7,65-183.6c7-14.3,11.9-24.5,15.2-32h113.3c3.3,7.5,8.2,17.7,15.2,32c23.4,47.9,62.1,126.9,65,183.6    C369.05,482.9,291.05,494.9,255.75,495z"/>
	</g>
</g>
<g>
</g>
<g>
</g>
<g>
</g>
<g>
</g>
<g>
</g>
<g>
</g>
<g>
</g>
<g>
</g>
<g>
</g>
<g>
</g>
<g>
</g>
<g>
</g>
<g>
</g>
<g>
</g>
<g>
</g>
</svg>
