<?xml version="1.0" encoding="iso-8859-1"?>
<!-- Generator: Adobe Illustrator 19.0.0, SVG Export Plug-In . SVG Version: 6.00 Build 0)  -->
<svg xmlns="http://www.w3.org/2000/svg" xmlns:xlink="http://www.w3.org/1999/xlink" version="1.1" id="Layer_1" x="0px" y="0px" viewBox="0 0 511.993 511.993" style="enable-background:new 0 0 511.993 511.993;" xml:space="preserve">
<g transform="translate(0 -1)">
	<g>
		<path d="M452.155,451.904c-16.486-102.419-49.427-169.559-91.043-219.325c6.852-7.407,8.197-18.997,1.906-27.845    c-8.18-11.524-13.158-23.054-13.158-33.071c0-4.253,0.552-9.083,1.609-14.369c1.392-6.958,3.603-14.462,6.41-22.181    c1.795-4.936,3.721-9.655,5.645-13.984c1.145-2.576,2.023-4.427,2.501-5.383c1.938-3.876,0.663-8.589-2.965-10.96    c-0.577-0.377-1.177-0.737-1.781-1.094c8.867-10.054,14.213-18.777,14.213-25.893c0-28.759-26.92-42.667-85.367-42.667    c-4.708,0-8.533-3.825-8.533-8.533V9.533c0-4.713-3.82-8.533-8.533-8.533h-34.133c-4.713,0-8.533,3.82-8.533,8.533V26.6    c0,4.712-3.82,8.533-8.533,8.533c-58.445,0-85.359,13.907-85.359,42.667c0,7.115,5.346,15.839,14.213,25.892    c-0.604,0.357-1.204,0.717-1.782,1.094c-3.628,2.37-4.903,7.084-2.965,10.96c0.478,0.956,1.356,2.807,2.501,5.383    c1.924,4.329,3.85,9.048,5.645,13.984c2.807,7.72,5.019,15.223,6.41,22.181c1.057,5.286,1.609,10.116,1.609,14.369    c0,10.018-4.979,21.547-13.162,33.077c-6.287,8.843-4.942,20.431,1.911,27.839c-41.603,49.735-74.554,116.903-91.041,219.325    c-0.356,2.212,0.172,4.475,1.47,6.301c1.561,2.196,4.646,5.541,9.554,9.619c7.805,6.485,18.033,12.887,30.973,18.798    c36.199,16.538,86.788,26.372,154.161,26.372s117.963-9.834,154.162-26.372c12.939-5.911,23.167-12.313,30.973-18.798    c4.908-4.078,7.993-7.423,9.554-9.619C451.983,456.379,452.511,454.116,452.155,451.904z M346.802,222.244l-1.79,0.771    c-0.003,0.001-0.007,0.002-0.01,0.003l-29.534,12.723c-0.761,0.397-1.532,0.76-2.31,1.095c-0.038,0.016-0.076,0.034-0.114,0.05    c-0.745,0.318-1.498,0.605-2.256,0.867c-0.095,0.033-0.19,0.065-0.286,0.097c-0.73,0.245-1.464,0.467-2.202,0.662    c-0.124,0.032-0.248,0.06-0.372,0.091c-0.613,0.154-1.228,0.288-1.844,0.407c-0.251,0.048-0.502,0.096-0.754,0.138    c-0.511,0.087-1.023,0.158-1.535,0.222c-3.751,0.457-7.52,0.287-11.133-0.496c0.313-0.307,0.616-0.622,0.919-0.938    c0.076-0.079,0.154-0.155,0.229-0.234c0.443-0.468,0.874-0.947,1.296-1.432c0.119-0.137,0.233-0.278,0.351-0.417    c0.301-0.356,0.598-0.714,0.887-1.078c0.14-0.176,0.277-0.354,0.415-0.532c0.266-0.345,0.526-0.693,0.781-1.045    c0.128-0.176,0.257-0.352,0.382-0.53c0.291-0.414,0.574-0.833,0.85-1.255c0.074-0.113,0.152-0.224,0.225-0.338    c0.345-0.537,0.677-1.081,0.998-1.631c0.084-0.144,0.163-0.291,0.246-0.436c0.235-0.413,0.465-0.828,0.687-1.247    c0.103-0.195,0.204-0.393,0.304-0.589c0.197-0.386,0.388-0.774,0.574-1.165c0.094-0.198,0.189-0.396,0.28-0.595    c0.202-0.441,0.394-0.885,0.582-1.332c0.06-0.144,0.125-0.286,0.183-0.431c0.24-0.589,0.468-1.183,0.683-1.782    c0.051-0.142,0.097-0.287,0.147-0.43c0.161-0.463,0.317-0.927,0.463-1.395c0.065-0.209,0.127-0.419,0.19-0.629    c0.124-0.415,0.242-0.833,0.354-1.252c0.058-0.215,0.115-0.431,0.17-0.647c0.115-0.457,0.221-0.917,0.323-1.379    c0.037-0.168,0.077-0.335,0.112-0.504c0.13-0.626,0.248-1.256,0.352-1.889c0.021-0.128,0.037-0.257,0.057-0.385    c0.079-0.508,0.151-1.018,0.214-1.53c0.026-0.216,0.048-0.432,0.071-0.649c0.047-0.436,0.088-0.873,0.122-1.312    c0.018-0.226,0.035-0.452,0.049-0.678c0.03-0.465,0.05-0.931,0.066-1.398c0.006-0.186,0.016-0.372,0.02-0.558    c0.014-0.648,0.016-1.297,0.002-1.947c-0.002-0.103-0.009-0.206-0.012-0.309c-0.015-0.55-0.039-1.101-0.074-1.653    c-0.014-0.215-0.032-0.43-0.049-0.646c-0.035-0.448-0.075-0.896-0.123-1.345c-0.025-0.231-0.05-0.461-0.078-0.692    c-0.056-0.462-0.122-0.925-0.192-1.387c-0.03-0.198-0.057-0.396-0.09-0.594c-0.108-0.654-0.228-1.307-0.365-1.96    c-0.013-0.062-0.029-0.124-0.043-0.187c-0.127-0.591-0.266-1.181-0.417-1.771c-0.054-0.21-0.113-0.42-0.17-0.63    c-0.121-0.449-0.249-0.898-0.384-1.345c-0.069-0.229-0.14-0.458-0.213-0.686c-0.144-0.452-0.297-0.903-0.456-1.353    c-0.071-0.202-0.14-0.405-0.214-0.606c-0.237-0.644-0.485-1.287-0.752-1.926c-2.461-5.889-3.761-11.452-3.761-16.534    c0-12.624,4.681-29.169,11.748-46.084c0.308-0.736,0.642-1.456,0.994-2.162c0.116-0.233,0.245-0.457,0.366-0.687    c0.245-0.466,0.493-0.93,0.757-1.381c0.156-0.265,0.322-0.522,0.483-0.781c0.249-0.399,0.5-0.796,0.763-1.182    c0.184-0.27,0.376-0.533,0.567-0.796c0.26-0.358,0.525-0.712,0.797-1.058c0.208-0.264,0.421-0.523,0.636-0.779    c0.274-0.326,0.554-0.644,0.84-0.956c0.231-0.253,0.463-0.505,0.701-0.749c0.287-0.294,0.582-0.578,0.879-0.859    c0.253-0.24,0.504-0.482,0.764-0.712c0.298-0.264,0.606-0.513,0.913-0.763c0.275-0.224,0.546-0.455,0.828-0.669    c0.038-0.029,0.078-0.054,0.116-0.082c6.865-0.263,13.407,0.362,19.183,1.704c1.353,0.331,2.694,0.692,4.009,1.11    c0.157,0.05,0.317,0.075,0.476,0.116c0.873,0.284,1.729,0.581,2.551,0.901c-1.84,4.225-3.667,8.758-5.387,13.489    c-3.081,8.472-5.528,16.777-7.106,24.667c-1.264,6.319-1.941,12.241-1.941,17.716c0,14.29,6.267,28.805,16.312,42.955    C350.93,217.186,349.836,220.939,346.802,222.244z M266.64,224.85c-0.197-0.066-0.396-0.127-0.595-0.189    c-0.255-0.08-0.511-0.159-0.768-0.232c-0.222-0.064-0.445-0.123-0.668-0.182c-0.235-0.062-0.47-0.122-0.706-0.179    c-0.243-0.059-0.487-0.114-0.732-0.168c-0.215-0.047-0.431-0.091-0.647-0.133c-0.265-0.052-0.53-0.102-0.796-0.148    c-0.195-0.033-0.39-0.063-0.585-0.093c-0.287-0.044-0.574-0.087-0.863-0.124c-0.167-0.021-0.335-0.038-0.502-0.057    c-0.317-0.036-0.633-0.071-0.951-0.097c-0.116-0.01-0.234-0.015-0.35-0.024c-0.823-0.06-1.65-0.099-2.48-0.099    c-0.815,0-1.627,0.037-2.435,0.095c-0.137,0.01-0.274,0.016-0.41,0.028c-0.303,0.025-0.604,0.059-0.905,0.093    c-0.183,0.02-0.367,0.039-0.55,0.062c-0.276,0.035-0.55,0.077-0.824,0.119c-0.209,0.032-0.418,0.064-0.626,0.099    c-0.255,0.044-0.51,0.092-0.763,0.142c-0.227,0.044-0.453,0.091-0.678,0.14c-0.236,0.051-0.471,0.105-0.706,0.161    c-0.247,0.059-0.494,0.123-0.739,0.188c-0.211,0.056-0.422,0.112-0.633,0.172c-0.276,0.079-0.549,0.163-0.822,0.249    c-0.179,0.056-0.358,0.111-0.535,0.17c-0.322,0.107-0.641,0.222-0.96,0.339c-0.127,0.047-0.255,0.091-0.382,0.139    c-0.439,0.168-0.875,0.344-1.306,0.531c-0.005,0.002-0.009,0.004-0.014,0.006c-1.382,0.598-2.72,1.294-4.007,2.081    c-0.005,0.003-0.009,0.006-0.013,0.008c-0.419,0.256-0.831,0.523-1.238,0.799c-0.021,0.014-0.042,0.029-0.063,0.044    c-0.391,0.267-0.777,0.543-1.157,0.828c-0.026,0.02-0.052,0.039-0.078,0.059c-0.196,0.148-0.395,0.293-0.588,0.446    c-0.11-0.072-0.219-0.144-0.328-0.217c-0.192-0.13-0.385-0.26-0.573-0.394c-0.175-0.125-0.347-0.254-0.519-0.382    c-0.184-0.137-0.369-0.273-0.549-0.415c-0.17-0.134-0.335-0.273-0.502-0.41c-0.174-0.143-0.35-0.284-0.52-0.431    c-0.183-0.159-0.36-0.324-0.538-0.487c-0.28-0.255-0.554-0.516-0.822-0.781c-0.168-0.166-0.337-0.33-0.5-0.5    c-0.145-0.151-0.285-0.308-0.427-0.462c-0.154-0.168-0.309-0.335-0.458-0.506c-0.138-0.158-0.272-0.32-0.406-0.481    c-0.146-0.175-0.292-0.35-0.433-0.528c-0.128-0.161-0.253-0.325-0.377-0.489c-0.141-0.185-0.279-0.371-0.415-0.56    c-0.117-0.162-0.232-0.325-0.345-0.49c-0.137-0.199-0.271-0.401-0.403-0.603c-0.103-0.159-0.207-0.317-0.307-0.478    c-0.137-0.219-0.269-0.441-0.399-0.664c-0.087-0.149-0.176-0.297-0.26-0.447c-0.145-0.259-0.284-0.521-0.421-0.784    c-0.062-0.118-0.127-0.235-0.187-0.355c-0.395-0.786-0.756-1.589-1.077-2.409c-0.021-0.054-0.04-0.108-0.06-0.162    c-0.137-0.355-0.268-0.713-0.391-1.074c-0.034-0.099-0.064-0.198-0.096-0.298c-0.105-0.32-0.206-0.641-0.3-0.965    c-0.033-0.113-0.063-0.227-0.095-0.34c-0.087-0.316-0.171-0.633-0.247-0.952c-0.027-0.114-0.054-0.228-0.08-0.343    c-0.074-0.327-0.143-0.655-0.206-0.985c-0.02-0.105-0.04-0.21-0.059-0.315c-0.063-0.353-0.12-0.707-0.17-1.062    c-0.012-0.082-0.025-0.164-0.036-0.246c-0.054-0.407-0.1-0.816-0.137-1.227c-0.003-0.031-0.007-0.061-0.009-0.092    c-0.12-1.378-0.143-2.772-0.064-4.173c0,0,0,0,0-0.001c0.025-0.451,0.062-0.903,0.109-1.355c0.006-0.059,0.014-0.118,0.02-0.177    c0.043-0.395,0.094-0.79,0.153-1.185c0.013-0.084,0.026-0.168,0.04-0.252c0.059-0.373,0.126-0.745,0.2-1.118    c0.019-0.094,0.037-0.188,0.057-0.281c0.077-0.367,0.161-0.734,0.253-1.101c0.023-0.093,0.045-0.186,0.069-0.279    c0.098-0.377,0.205-0.754,0.318-1.13c0.023-0.078,0.045-0.156,0.069-0.234c0.13-0.419,0.27-0.838,0.42-1.255    c0.012-0.033,0.022-0.065,0.034-0.098c0.167-0.46,0.345-0.918,0.535-1.374c0.757-1.812,1.427-3.618,2.023-5.418    c0.047-0.141,0.102-0.283,0.148-0.424c1.892-5.837,2.909-11.604,2.909-17.27c0-9.898-2.136-20.985-5.733-32.624    c-2.021-6.546-4.499-13.262-7.33-20.039c-0.107-0.256-0.226-0.506-0.337-0.76c-0.158-0.361-0.314-0.723-0.479-1.08    c-0.034-0.074-0.065-0.151-0.1-0.225c13.127,5.005,24.909,13.538,32.642,25.289c3.371,5.123,10.884,5.123,14.256,0.001    c0.531-0.806,1.081-1.598,1.649-2.374c0.006-0.008,0.012-0.015,0.017-0.023c7.711-10.524,18.767-18.238,30.987-22.896    c-0.021,0.045-0.04,0.092-0.061,0.138c-0.296,0.635-0.583,1.276-0.854,1.926c-7.875,18.85-13.068,37.205-13.068,52.667    c0,7.549,1.806,15.278,5.08,23.113c0.183,0.439,0.354,0.879,0.515,1.321c0.053,0.146,0.1,0.292,0.15,0.438    c0.103,0.297,0.205,0.594,0.298,0.892c0.054,0.174,0.103,0.348,0.154,0.522c0.08,0.272,0.158,0.545,0.23,0.817    c0.048,0.184,0.093,0.369,0.137,0.553c0.064,0.264,0.125,0.527,0.182,0.791c0.04,0.189,0.078,0.378,0.115,0.567    c0.051,0.262,0.097,0.525,0.141,0.787c0.031,0.187,0.061,0.374,0.089,0.561c0.039,0.269,0.073,0.538,0.104,0.808    c0.021,0.179,0.044,0.359,0.061,0.538c0.028,0.285,0.049,0.57,0.069,0.855c0.011,0.162,0.026,0.325,0.034,0.487    c0.018,0.348,0.028,0.695,0.033,1.042c0.002,0.098,0.007,0.195,0.008,0.293c0.003,0.444-0.004,0.887-0.021,1.329    c-0.005,0.12-0.015,0.24-0.021,0.36c-0.016,0.321-0.034,0.641-0.061,0.96c-0.014,0.165-0.033,0.33-0.05,0.495    c-0.028,0.273-0.056,0.547-0.092,0.819c-0.023,0.177-0.05,0.354-0.077,0.531c-0.038,0.258-0.079,0.515-0.124,0.772    c-0.032,0.181-0.067,0.362-0.102,0.542c-0.049,0.252-0.102,0.502-0.158,0.752c-0.04,0.178-0.081,0.357-0.124,0.534    c-0.061,0.252-0.127,0.502-0.195,0.752c-0.047,0.172-0.093,0.344-0.143,0.514c-0.075,0.258-0.157,0.514-0.24,0.77    c-0.051,0.159-0.1,0.318-0.154,0.476c-0.097,0.284-0.202,0.565-0.308,0.845c-0.047,0.126-0.091,0.253-0.14,0.378    c-0.159,0.403-0.325,0.802-0.502,1.197c-0.027,0.06-0.057,0.118-0.084,0.178c-0.152,0.334-0.309,0.667-0.474,0.995    c-0.068,0.136-0.142,0.269-0.212,0.404c-0.13,0.249-0.262,0.499-0.4,0.744c-0.085,0.151-0.173,0.299-0.261,0.448    c-0.132,0.225-0.265,0.45-0.404,0.672c-0.096,0.154-0.195,0.306-0.294,0.458c-0.139,0.214-0.28,0.426-0.425,0.636    c-0.104,0.15-0.209,0.299-0.315,0.448c-0.15,0.208-0.303,0.414-0.459,0.619c-0.109,0.144-0.219,0.287-0.331,0.429    c-0.163,0.206-0.331,0.409-0.5,0.61c-0.112,0.133-0.222,0.268-0.337,0.399c-0.187,0.215-0.381,0.425-0.575,0.635    c-0.103,0.111-0.203,0.224-0.308,0.334c-0.259,0.27-0.525,0.535-0.796,0.795c-0.046,0.045-0.09,0.091-0.137,0.136    c-0.319,0.303-0.646,0.598-0.98,0.886c-0.101,0.087-0.206,0.17-0.308,0.255c-0.237,0.199-0.475,0.396-0.719,0.588    c-0.133,0.104-0.27,0.204-0.405,0.306c-0.221,0.167-0.443,0.333-0.67,0.494c-0.149,0.105-0.301,0.208-0.452,0.311    c-0.135,0.092-0.272,0.181-0.409,0.271c-0.129-0.103-0.263-0.198-0.394-0.299c-0.136-0.104-0.272-0.208-0.409-0.31    c-0.263-0.195-0.53-0.385-0.799-0.571c-0.129-0.09-0.257-0.18-0.388-0.268c-0.291-0.195-0.585-0.384-0.882-0.569    c-0.114-0.071-0.227-0.145-0.341-0.215c-0.341-0.208-0.687-0.407-1.035-0.601c-0.073-0.041-0.145-0.085-0.219-0.125    c-0.861-0.471-1.742-0.903-2.642-1.294c-0.09-0.039-0.181-0.074-0.271-0.112c-0.35-0.148-0.701-0.293-1.056-0.429    c-0.163-0.063-0.328-0.12-0.492-0.179C267.211,225.048,266.927,224.945,266.64,224.85z M167.807,97.057    c-8.268-8.809-14.241-17.061-14.241-19.257c0-16.279,18.039-25.6,68.292-25.6c14.14,0,25.6-11.464,25.6-25.6v-8.533h17.067V26.6    c0,14.134,11.466,25.6,25.6,25.6c50.255,0,68.301,9.323,68.301,25.6c0,2.196-5.973,10.448-14.241,19.257    c-0.375-0.091-0.755-0.168-1.132-0.254c-0.188-0.041-0.372-0.086-0.56-0.126c-17.523-3.873-36.999-2.096-54.449,4.925    c-0.729,0.288-1.448,0.596-2.168,0.902c-0.127,0.055-0.254,0.108-0.38,0.163c-11.251,4.832-21.357,11.834-29.503,20.922    c-8.139-9.081-18.234-16.079-29.474-20.911c-0.152-0.066-0.304-0.13-0.456-0.195c-0.699-0.296-1.396-0.596-2.103-0.875    c-17.449-7.024-36.926-8.803-54.45-4.932c-0.208,0.044-0.411,0.093-0.617,0.139C168.531,96.896,168.166,96.97,167.807,97.057z     M162.882,214.624c10.048-14.156,16.316-28.671,16.316-42.961c0-5.475-0.677-11.397-1.941-17.716    c-1.578-7.89-4.026-16.194-7.106-24.667c-1.72-4.73-3.547-9.264-5.387-13.489c0.821-0.32,1.675-0.617,2.547-0.9    c0.16-0.041,0.323-0.066,0.482-0.117c1.321-0.42,2.67-0.783,4.03-1.115c5.767-1.338,12.297-1.961,19.15-1.699    c0.04,0.03,0.082,0.056,0.121,0.086c0.254,0.193,0.496,0.401,0.743,0.602c0.332,0.27,0.666,0.538,0.987,0.822    c0.27,0.238,0.529,0.489,0.791,0.737c0.284,0.269,0.568,0.54,0.842,0.82c0.261,0.267,0.514,0.542,0.765,0.818    c0.259,0.285,0.515,0.573,0.764,0.868c0.243,0.288,0.482,0.58,0.716,0.877c0.241,0.306,0.475,0.618,0.705,0.934    c0.222,0.304,0.443,0.609,0.656,0.921c0.224,0.33,0.438,0.669,0.651,1.008c0.199,0.316,0.401,0.63,0.59,0.954    c0.211,0.362,0.408,0.735,0.607,1.106c0.171,0.318,0.348,0.631,0.51,0.956c0.224,0.451,0.429,0.917,0.635,1.381    c0.109,0.245,0.229,0.483,0.333,0.732c2.648,6.339,4.961,12.626,6.819,18.674c3.094,10.085,4.923,19.514,4.923,27.407    c0,5.094-1.299,10.661-3.758,16.536c-0.045,0.108-0.083,0.217-0.127,0.324c-0.21,0.513-0.413,1.028-0.603,1.545    c-0.099,0.268-0.19,0.538-0.284,0.807c-0.129,0.371-0.256,0.742-0.375,1.113c-0.094,0.294-0.185,0.588-0.274,0.882    c-0.107,0.355-0.207,0.711-0.305,1.066c-0.081,0.296-0.164,0.591-0.239,0.888c-0.1,0.393-0.189,0.787-0.278,1.181    c-0.09,0.398-0.176,0.795-0.255,1.194c-0.091,0.455-0.179,0.911-0.255,1.367c-0.052,0.309-0.095,0.617-0.14,0.926    c-0.05,0.339-0.099,0.678-0.141,1.017c-0.04,0.321-0.076,0.642-0.109,0.964c-0.034,0.331-0.064,0.662-0.091,0.994    c-0.026,0.318-0.052,0.636-0.072,0.954c-0.022,0.356-0.035,0.711-0.048,1.067c-0.013,0.34-0.027,0.679-0.033,1.018    c-0.009,0.545-0.009,1.089,0.001,1.632c0.006,0.299,0.021,0.596,0.032,0.894c0.013,0.345,0.027,0.691,0.048,1.035    c0.019,0.308,0.042,0.614,0.067,0.921c0.028,0.34,0.059,0.68,0.095,1.019c0.031,0.298,0.062,0.595,0.098,0.892    c0.046,0.372,0.1,0.743,0.155,1.114c0.038,0.259,0.072,0.519,0.115,0.777c0.098,0.593,0.208,1.184,0.329,1.772    c0.05,0.242,0.108,0.482,0.162,0.724c0.085,0.384,0.172,0.767,0.268,1.147c0.066,0.265,0.137,0.528,0.208,0.792    c0.097,0.363,0.199,0.724,0.305,1.084c0.075,0.254,0.15,0.509,0.23,0.762c0.125,0.399,0.258,0.794,0.394,1.189    c0.07,0.205,0.137,0.411,0.21,0.615c0.211,0.585,0.432,1.165,0.666,1.74c0.061,0.149,0.127,0.295,0.189,0.444    c0.185,0.442,0.376,0.883,0.575,1.319c0.094,0.205,0.191,0.409,0.288,0.612c0.182,0.385,0.37,0.767,0.563,1.146    c0.102,0.201,0.205,0.402,0.311,0.601c0.216,0.409,0.44,0.815,0.669,1.217c0.087,0.154,0.172,0.31,0.261,0.462    c0.325,0.557,0.66,1.108,1.008,1.652c0.029,0.044,0.059,0.087,0.088,0.132c0.321,0.496,0.652,0.985,0.992,1.469    c0.105,0.149,0.213,0.295,0.32,0.443c0.278,0.385,0.561,0.766,0.851,1.142c0.119,0.154,0.238,0.307,0.359,0.46    c0.309,0.39,0.625,0.774,0.947,1.154c0.099,0.117,0.197,0.237,0.297,0.353c0.797,0.921,1.63,1.814,2.505,2.672    c-3.657,0.808-7.454,0.993-11.19,0.542c-0.187-0.023-0.375-0.05-0.562-0.077c-0.56-0.077-1.117-0.17-1.673-0.277    c-0.463-0.09-0.926-0.186-1.386-0.296c-0.198-0.047-0.396-0.09-0.593-0.141c-0.685-0.178-1.365-0.378-2.04-0.601    c-0.108-0.035-0.215-0.071-0.322-0.108c-0.732-0.25-1.458-0.523-2.174-0.828c-0.017-0.007-0.035-0.015-0.052-0.023    c-0.759-0.325-1.509-0.678-2.246-1.065l-30.117-13.001c-0.014-0.006-0.029-0.009-0.043-0.014l-1.756-0.758    C162.154,220.939,161.06,217.186,162.882,214.624z M430.224,454.696c-6.638,5.515-15.582,11.113-27.158,16.402    c-33.844,15.462-82.029,24.828-147.069,24.828s-113.226-9.366-147.069-24.828c-11.576-5.289-20.52-10.887-27.158-16.402    c-1.891-1.571-3.357-2.923-4.438-4.006c16.434-98.601,48.493-162.42,88.636-209.527l23.797,10.255    c1.623,0.853,3.293,1.598,4.998,2.247c0.144,0.055,0.289,0.106,0.434,0.16c0.385,0.142,0.771,0.282,1.16,0.414    c0.265,0.09,0.53,0.176,0.796,0.261c0.253,0.081,0.506,0.161,0.761,0.238c0.386,0.117,0.773,0.228,1.162,0.335    c0.111,0.03,0.222,0.061,0.333,0.09c15.386,4.125,32.666,0.545,44.992-10.125c0.013-0.011,0.026-0.023,0.038-0.034    c0.319-0.276,0.639-0.551,0.951-0.836c1.746-1.601,3.884-2.754,6.221-3.393c1.403-0.382,2.878-0.581,4.383-0.581    c1.851,0,3.648,0.312,5.328,0.884c1.97,0.673,3.778,1.708,5.285,3.09c0.062,0.056,0.126,0.109,0.188,0.165    c0.304,0.275,0.609,0.545,0.918,0.807c11.873,10.209,28.307,13.865,43.498,10.3c0.097-0.023,0.194-0.045,0.291-0.068    c0.416-0.1,0.831-0.206,1.244-0.317c0.217-0.058,0.433-0.117,0.649-0.178c0.321-0.091,0.641-0.184,0.96-0.281    c0.315-0.096,0.629-0.196,0.943-0.299c0.235-0.077,0.47-0.153,0.705-0.234c0.411-0.141,0.819-0.289,1.227-0.441    c0.147-0.055,0.295-0.108,0.442-0.164c0.522-0.2,1.04-0.41,1.556-0.629c0.041-0.017,0.081-0.033,0.122-0.05    c1.17-0.499,2.326-1.042,3.461-1.637l23.212-9.983c40.159,47.14,72.208,110.933,88.642,209.532    C433.581,451.774,432.115,453.125,430.224,454.696z"/>
	</g>
</g>
<g>
</g>
<g>
</g>
<g>
</g>
<g>
</g>
<g>
</g>
<g>
</g>
<g>
</g>
<g>
</g>
<g>
</g>
<g>
</g>
<g>
</g>
<g>
</g>
<g>
</g>
<g>
</g>
<g>
</g>
</svg>
