<?xml version="1.0" encoding="iso-8859-1"?>
<!-- Generator: Adobe Illustrator 19.0.0, SVG Export Plug-In . SVG Version: 6.00 Build 0)  -->
<svg xmlns="http://www.w3.org/2000/svg" xmlns:xlink="http://www.w3.org/1999/xlink" version="1.1" id="Layer_1" x="0px" y="0px" viewBox="0 0 512 512" style="enable-background:new 0 0 512 512;" xml:space="preserve">
<g transform="translate(0 -1)">
	<g>
		<path d="M401.051,350.351c-0.297-4.896-6.835-61.071-8.545-77.122c-1.941-18.214-3.573-35.124-4.896-51.136    c-2.483-30.048-3.763-55.598-3.61-75.962c0.326-43.377-11.74-68.179-34.205-82.344c-3.441-2.169-6.965-4.012-11.172-5.941    c-1.62-0.743-7.712-3.403-9.044-4.025c-0.526-0.245-1.004-0.476-1.448-0.697c-0.369-0.185-0.756-0.35-1.165-0.486    c-7.984-2.661-16.244-10.351-23.999-21.608c-3.718-5.397-7.06-11.227-9.955-17.06c-1.73-3.485-2.91-6.16-3.488-7.606    C288.227,3.124,285.089,1,281.6,1h-51.2c-3.489,0-6.627,2.124-7.923,5.364c-0.578,1.446-1.759,4.121-3.488,7.606    c-2.895,5.833-6.237,11.663-9.955,17.06c-7.755,11.257-16.014,18.947-23.999,21.608c-0.409,0.136-0.796,0.301-1.165,0.486    c-0.444,0.221-0.922,0.452-1.448,0.697c-1.333,0.622-7.424,3.282-9.044,4.025c-4.207,1.929-7.731,3.771-11.172,5.941    C139.74,77.952,127.674,102.753,128,146.131c0.156,20.364-1.123,45.914-3.606,75.962c-1.324,16.02-2.957,32.938-4.9,51.162    c-1.71,16.044-8.249,72.2-8.545,77.096c-0.297,4.907,3.602,9.049,8.518,9.049H153.6c4.294,0,7.919-3.191,8.464-7.45    c0.2-1.565,0.576-4.508,1.101-8.645c0.875-6.893,1.851-14.61,2.901-22.966c3.001-23.876,6.003-48.094,8.804-71.179    c0.376-3.095,0.746-6.153,1.11-9.171c3.456-28.656,6.237-52.559,8.224-70.908c3.037,9.898,5.624,19.492,7.623,28.54    c2.885,13.057,4.439,24.496,4.439,33.779c0,11.659-1.957,24.672-8.38,58.124h0c0,0,0,0,0,0.001    c-0.012,0.061-0.023,0.124-0.035,0.185c-0.055,0.28-0.073,0.37-0.153,0.78c-0.099,0.504-0.099,0.504-0.194,0.989    c-4.242,22.463-7.89,47.544-10.727,73.639c-0.087,0.799-0.054,1.574,0.068,2.318c-3.883,37.715-6.178,77.387-6.178,111.431v17.067    c0,4.15,2.986,7.699,7.075,8.408c-2.073-0.36,22.812,4.08,29.065,5.055C222.783,511.887,236.863,513,256,513    s33.217-1.113,49.193-3.604c6.253-0.975,31.138-5.415,29.065-5.055c4.089-0.709,7.075-4.258,7.075-8.408v-17.067    c0-34.035-2.292-73.737-6.17-111.471c0.116-0.732,0.145-1.493,0.059-2.278c-2.384-21.926-5.342-43.13-8.734-62.633    c-0.771-4.515-1.561-8.917-2.375-13.156c-0.004-0.02-0.011-0.038-0.015-0.058c-6.465-33.735-8.366-46.319-8.366-57.87    c0-9.283,1.554-20.722,4.439-33.779c1.999-9.048,4.586-18.642,7.623-28.54c1.987,18.349,4.769,42.252,8.224,70.908    c0.364,3.018,0.734,6.076,1.11,9.171c2.802,23.084,5.803,47.303,8.804,71.179c1.05,8.356,2.026,16.073,2.901,22.966    c0.525,4.137,0.901,7.08,1.101,8.645c0.545,4.259,4.17,7.45,8.464,7.45h34.133C397.449,359.4,401.348,355.257,401.051,350.351z     M223.088,40.712c4.22-6.126,7.956-12.642,11.188-19.154c0.622-1.253,1.184-2.421,1.686-3.491h40.077    c0.501,1.069,1.064,2.237,1.686,3.491c3.232,6.513,6.968,13.029,11.188,19.154c6.297,9.141,13.056,16.576,20.389,21.776    l-25.068,21.929c-16.164,14.149-40.303,14.149-56.464,0.002l-25.07-21.931C210.032,57.288,216.791,49.853,223.088,40.712z     M202.963,301.899c0.255,0.064,0.517,0.122,0.773,0.185c0.426,0.104,0.854,0.206,1.284,0.307c0.725,0.171,1.455,0.339,2.191,0.503    c0.113,0.025,0.224,0.052,0.338,0.077c0.343,0.076,0.686,0.151,1.031,0.225c0.822,0.177,1.651,0.348,2.484,0.515    c0.369,0.074,0.735,0.152,1.107,0.224c1.203,0.235,2.414,0.463,3.636,0.68c0.107,0.019,0.215,0.036,0.322,0.055    c1.117,0.196,2.24,0.385,3.369,0.565c0.413,0.066,0.829,0.128,1.244,0.192c0.376,0.058,0.75,0.117,1.127,0.174v2.599    c0,18.957-10.416,35.804-26.247,44.629C197.739,334.781,200.214,317.491,202.963,301.899z M302.564,492.533    c-15.115,2.356-28.316,3.4-46.564,3.4s-31.449-1.044-46.564-3.4c-3.706-0.578-14.419-2.457-21.703-3.746v-9.921    c0-32.483,2.133-70.275,5.754-106.418c26.854-9.505,45.448-34.986,45.448-64.248v-0.679c0.296,0.023,0.591,0.045,0.886,0.067    c0.407,0.03,0.811,0.055,1.217,0.082c0.853,0.058,1.704,0.113,2.552,0.161c0.462,0.026,0.921,0.05,1.381,0.073    c0.804,0.041,1.604,0.078,2.402,0.11c0.454,0.018,0.908,0.037,1.36,0.052c0.843,0.029,1.68,0.051,2.514,0.07    c0.386,0.009,0.774,0.02,1.158,0.027c1.208,0.021,2.409,0.034,3.595,0.034c1.165,0,2.346-0.014,3.536-0.036    c0.382-0.007,0.769-0.019,1.153-0.029c0.819-0.02,1.641-0.043,2.469-0.073c0.451-0.016,0.904-0.036,1.358-0.055    c0.785-0.034,1.573-0.071,2.365-0.114c0.461-0.025,0.921-0.05,1.383-0.077c0.834-0.05,1.671-0.106,2.51-0.166    c0.411-0.029,0.82-0.056,1.232-0.087c0.353-0.027,0.706-0.056,1.059-0.084v0.721c0,29.267,18.599,54.751,45.459,64.252    c3.613,36.149,5.743,73.951,5.743,106.413v9.921C316.983,490.076,306.27,491.955,302.564,492.533z M290.132,305.575    c6.648-0.979,13.005-2.206,18.926-3.68c0.292,1.634,0.579,3.29,0.864,4.95c2.404,14.268,4.582,29.826,6.475,45.995    c-15.841-8.822-26.265-25.675-26.265-44.639V305.575z M365.915,342.333c-0.048-0.381-0.098-0.774-0.15-1.178    c-0.875-6.886-1.849-14.596-2.899-22.945c-2.999-23.854-5.997-48.049-8.796-71.106c-0.375-3.091-0.745-6.144-1.108-9.158    c-7.256-60.167-11.63-100.4-11.63-108.945c0-9.368-12.908-11.893-16.438-3.215c-0.216,0.53-0.607,1.511-1.148,2.901    c-0.894,2.295-1.887,4.914-2.956,7.816c-3.049,8.279-6.097,17.18-8.944,26.375c-3.323,10.73-6.154,21.165-8.341,31.063    c-3.13,14.166-4.841,26.761-4.841,37.461c0,12.07,1.689,24.169,7.227,53.496c-0.571,0.148-1.146,0.294-1.726,0.437    c-0.323,0.08-0.641,0.162-0.966,0.24c-1.065,0.256-2.143,0.505-3.235,0.745c-0.145,0.032-0.293,0.061-0.438,0.092    c-0.953,0.207-1.914,0.408-2.885,0.602c-0.383,0.077-0.771,0.149-1.157,0.224c-0.741,0.144-1.484,0.286-2.233,0.422    c-0.443,0.08-0.888,0.158-1.333,0.236c-0.708,0.124-1.418,0.245-2.132,0.362c-0.456,0.075-0.913,0.149-1.37,0.221    c-0.725,0.114-1.453,0.224-2.182,0.332c-0.44,0.065-0.88,0.131-1.322,0.193c-0.799,0.113-1.6,0.219-2.401,0.323    c-0.369,0.048-0.737,0.099-1.106,0.145c-1.169,0.146-2.34,0.284-3.509,0.412c-0.08,0.009-0.16,0.016-0.24,0.024    c-1.089,0.117-2.176,0.227-3.262,0.328c-0.391,0.036-0.78,0.068-1.17,0.102c-0.778,0.068-1.555,0.135-2.33,0.194    c-0.445,0.034-0.887,0.065-1.331,0.096c-0.722,0.051-1.442,0.099-2.159,0.143c-0.452,0.027-0.902,0.053-1.352,0.078    c-0.716,0.039-1.428,0.073-2.137,0.103c-0.432,0.019-0.865,0.038-1.294,0.054c-0.762,0.028-1.516,0.049-2.269,0.068    c-0.359,0.009-0.722,0.021-1.079,0.028c-1.103,0.021-2.197,0.034-3.275,0.034c-1.099,0-2.211-0.012-3.332-0.032    c-0.367-0.007-0.74-0.018-1.109-0.027c-0.761-0.018-1.524-0.038-2.294-0.065c-0.434-0.015-0.87-0.034-1.307-0.052    c-0.721-0.03-1.443-0.062-2.169-0.1c-0.449-0.023-0.9-0.048-1.351-0.074c-0.73-0.042-1.463-0.089-2.197-0.139    c-0.44-0.03-0.88-0.059-1.321-0.091c-0.791-0.058-1.583-0.123-2.376-0.19c-0.381-0.032-0.76-0.061-1.141-0.095    c-1.168-0.105-2.338-0.217-3.507-0.339c-0.001,0-0.002,0-0.003,0c-0.624-0.066-1.247-0.142-1.871-0.213    c-0.211-0.041-0.422-0.079-0.639-0.104c-7.383-0.855-14.422-2.022-20.881-3.472c-0.314-0.071-0.628-0.142-0.939-0.214    c-0.865-0.2-1.713-0.407-2.555-0.617c-0.301-0.075-0.603-0.15-0.902-0.227c5.49-29.051,7.226-41.536,7.226-53.682    c0-10.7-1.711-23.296-4.841-37.461c-2.187-9.898-5.018-20.333-8.341-31.063c-2.847-9.194-5.895-18.096-8.944-26.375    c-1.069-2.902-2.062-5.521-2.956-7.816c-0.541-1.389-0.932-2.37-1.148-2.901c-3.53-8.677-16.438-6.153-16.438,3.215    c0,8.546-4.374,48.778-11.63,108.945c-0.364,3.014-0.733,6.068-1.108,9.158c-2.798,23.058-5.797,47.253-8.796,71.106    c-1.05,8.349-2.024,16.059-2.899,22.945c-0.051,0.404-0.101,0.797-0.15,1.178h-17.174c1.904-17.406,6.168-54.265,7.554-67.27    c1.956-18.349,3.602-35.399,4.938-51.565c2.522-30.515,3.824-56.534,3.664-77.497c-0.284-37.749,9.053-56.94,26.241-67.778    c2.72-1.715,5.606-3.225,9.181-4.863c0.864-0.396,3.505-1.557,5.785-2.566l30.256,26.467    c22.595,19.779,56.346,19.779,78.943-0.002l30.254-26.466c2.28,1.009,4.921,2.17,5.785,2.566c3.574,1.638,6.46,3.148,9.181,4.863    c17.189,10.838,26.525,30.03,26.241,67.779c-0.158,20.963,1.146,46.981,3.668,77.496c1.335,16.158,2.98,33.199,4.934,51.539    c1.386,13.01,5.65,49.886,7.554,67.296H365.915z"/>
	</g>
</g>
<g>
</g>
<g>
</g>
<g>
</g>
<g>
</g>
<g>
</g>
<g>
</g>
<g>
</g>
<g>
</g>
<g>
</g>
<g>
</g>
<g>
</g>
<g>
</g>
<g>
</g>
<g>
</g>
<g>
</g>
</svg>
