<?xml version="1.0" encoding="iso-8859-1"?>
<!-- Generator: Adobe Illustrator 19.0.0, SVG Export Plug-In . SVG Version: 6.00 Build 0)  -->
<svg xmlns="http://www.w3.org/2000/svg" xmlns:xlink="http://www.w3.org/1999/xlink" version="1.1" id="Layer_1" x="0px" y="0px" viewBox="0 0 504.069 504.069" style="enable-background:new 0 0 504.069 504.069;" xml:space="preserve">
<g transform="translate(-1 -1)">
	<g>
		<path d="M384.558,466.622c-14.722-32.307-22.41-61.82-22.41-90.668v-56.001c0-21.551-16.606-53.657-36.032-73.083    c-4.87-5.506-5.969-9.458-5.969-20.748v-1.351c0-6.46,1.668-12.692,4.867-18.129c8.874-15.087,15.568-35.867,18.57-63.034    c1.064-9.313,1.674-19.237,1.788-29.83c14.255-13.533,25.235-27.588,25.235-37.237c0-28.288-26.479-41.967-83.968-41.967    c-4.636,0-8.393-3.759-8.393-8.393V9.393c0-4.636-3.758-8.393-8.393-8.393h-33.574c-4.636,0-8.393,3.758-8.393,8.393V26.18    c0,4.634-3.758,8.393-8.393,8.393c-57.489,0-83.968,13.68-83.968,41.967c0,9.65,10.979,23.705,25.235,37.237    c0.001,0.112,0.002,0.226,0.003,0.338c0.474,42.107,8.446,72.398,20.3,92.528c3.193,5.426,4.857,11.657,4.857,18.126v1.351    c0,11.29-1.099,15.242-6.309,21.109c-19.085,19.064-35.692,51.17-35.692,72.721v56.001c0,28.848-7.688,58.361-22.41,90.669    c-1.983,4.377-2.973,8.779-2.76,13.208c1.166,23.441,73.89,32.09,115.749,19.38c12.091-3.672,24.982-3.672,37.073,0    c41.87,12.711,114.597,4.061,115.749-19.37C387.543,475.407,386.55,470.991,384.558,466.622z M327.526,135.441    c-0.086,1.02-0.177,2.031-0.274,3.031c-0.731,7.269-1.747,14.125-3.03,20.593c-3.858,2.359-9.095,4.917-15.212,7.428    c-21.351,8.749-45.597-6.438-47.442-28.936c0.072-0.111,0.141-0.227,0.214-0.337c0.237-0.359,0.48-0.706,0.722-1.058    c0.333-0.485,0.666-0.968,1.008-1.439c0.255-0.352,0.515-0.695,0.774-1.039c0.341-0.452,0.684-0.901,1.032-1.34    c0.269-0.339,0.542-0.672,0.816-1.004c0.352-0.426,0.706-0.846,1.065-1.259c0.28-0.323,0.563-0.642,0.847-0.957    c0.365-0.404,0.734-0.8,1.106-1.191c0.288-0.303,0.577-0.605,0.869-0.901c0.381-0.386,0.768-0.762,1.156-1.135    c0.291-0.28,0.582-0.562,0.876-0.835c0.403-0.373,0.812-0.734,1.221-1.093c0.288-0.253,0.575-0.511,0.866-0.757    c0.438-0.37,0.882-0.725,1.326-1.08c0.27-0.216,0.537-0.439,0.81-0.649c0.524-0.405,1.056-0.791,1.588-1.175    c0.198-0.143,0.393-0.294,0.592-0.435c0.734-0.516,1.475-1.013,2.223-1.489c0.168-0.107,0.339-0.204,0.507-0.309    c0.582-0.363,1.166-0.721,1.754-1.06c0.279-0.161,0.562-0.309,0.843-0.464c0.483-0.267,0.965-0.534,1.452-0.786    c0.315-0.163,0.633-0.314,0.949-0.47c0.457-0.225,0.914-0.45,1.373-0.661c0.333-0.153,0.667-0.296,1.001-0.442    c0.448-0.195,0.896-0.388,1.346-0.571c0.342-0.139,0.686-0.27,1.029-0.401c0.445-0.17,0.891-0.336,1.338-0.493    c0.347-0.122,0.694-0.24,1.042-0.354c0.447-0.147,0.894-0.287,1.342-0.422c0.348-0.104,0.696-0.207,1.045-0.303    c0.451-0.125,0.902-0.241,1.353-0.353c0.345-0.086,0.69-0.172,1.035-0.25c0.46-0.104,0.921-0.197,1.381-0.289    c0.335-0.066,0.67-0.136,1.005-0.195c0.479-0.085,0.957-0.155,1.435-0.225c0.3-0.044,0.601-0.093,0.901-0.132    c0.086-0.011,0.173-0.019,0.259-0.029c0.453-0.055,0.905-0.1,1.357-0.143c0.198-0.019,0.397-0.043,0.595-0.059    c0.3-0.024,0.599-0.039,0.899-0.057c0.441-0.027,0.882-0.055,1.321-0.07c0.439-0.014,0.876-0.016,1.312-0.018    c0.324-0.002,0.648-0.005,0.971,0c0.518,0.009,1.034,0.03,1.548,0.056c0.234,0.012,0.467,0.022,0.7,0.037    c0.581,0.039,1.16,0.091,1.735,0.152c0.158,0.017,0.316,0.033,0.473,0.051c0.638,0.076,1.273,0.164,1.904,0.268    c0.083,0.014,0.166,0.027,0.249,0.041c0.695,0.119,1.385,0.252,2.069,0.405c0.008,0.002,0.015,0.003,0.022,0.005    c3.619,0.811,7.078,2.101,10.284,3.872c-0.098,7.269-0.43,14.129-0.972,20.594C327.534,135.353,327.53,135.397,327.526,135.441z     M177.558,114.726c0.059-0.033,0.117-0.069,0.176-0.102c0.353-0.192,0.713-0.37,1.072-0.551c0.313-0.158,0.625-0.319,0.943-0.468    c0.369-0.173,0.745-0.334,1.12-0.496c0.316-0.136,0.632-0.274,0.952-0.401c0.384-0.153,0.772-0.295,1.161-0.436    c0.321-0.116,0.641-0.232,0.965-0.34c0.397-0.132,0.797-0.255,1.198-0.374c0.324-0.096,0.648-0.191,0.974-0.279    c0.409-0.111,0.821-0.214,1.234-0.312c0.326-0.077,0.653-0.151,0.982-0.221c0.421-0.089,0.843-0.172,1.268-0.248    c0.327-0.058,0.655-0.112,0.984-0.163c0.433-0.067,0.866-0.13,1.303-0.183c0.326-0.04,0.653-0.074,0.98-0.106    c0.444-0.044,0.889-0.086,1.337-0.117c0.323-0.022,0.648-0.037,0.972-0.052c0.456-0.022,0.912-0.042,1.37-0.05    c0.319-0.005,0.639-0.001,0.959,0c0.468,0.002,0.936,0.003,1.406,0.02c0.31,0.011,0.62,0.032,0.931,0.049    c0.458,0.025,0.915,0.049,1.374,0.087c0.162,0.014,0.325,0.033,0.487,0.048c0.155,0.015,0.31,0.033,0.465,0.049    c0.45,0.047,0.9,0.093,1.35,0.152c0.233,0.031,0.467,0.068,0.701,0.102c0.069,0.01,0.137,0.022,0.206,0.032    c0.467,0.071,0.935,0.142,1.402,0.227c0.262,0.047,0.524,0.101,0.786,0.153c0.508,0.1,1.016,0.205,1.524,0.321    c0.27,0.062,0.539,0.129,0.809,0.196c0.5,0.123,0.999,0.25,1.498,0.389c0.278,0.077,0.555,0.16,0.832,0.242    c0.357,0.105,0.713,0.218,1.069,0.331c0.156,0.05,0.313,0.096,0.469,0.147c0.261,0.086,0.521,0.175,0.781,0.265    c0.33,0.114,0.659,0.236,0.989,0.357c0.203,0.075,0.407,0.147,0.61,0.225c0.236,0.09,0.471,0.182,0.706,0.276    c0.333,0.133,0.666,0.272,0.998,0.412c0.224,0.094,0.448,0.187,0.671,0.285c0.206,0.09,0.413,0.18,0.619,0.273    c0.344,0.155,0.687,0.318,1.03,0.481c0.243,0.115,0.485,0.231,0.727,0.35c0.171,0.084,0.342,0.167,0.512,0.254    c0.359,0.181,0.716,0.371,1.073,0.561c0.272,0.145,0.544,0.291,0.814,0.441c0.117,0.065,0.235,0.128,0.352,0.194    c0.378,0.212,0.753,0.433,1.128,0.655c0.362,0.215,0.724,0.431,1.084,0.655c0.395,0.246,0.787,0.5,1.179,0.756    c0.362,0.237,0.723,0.478,1.081,0.724c0.384,0.264,0.766,0.535,1.147,0.81c0.359,0.259,0.716,0.524,1.072,0.793    c0.349,0.264,0.696,0.533,1.041,0.806c0.078,0.062,0.156,0.125,0.233,0.187c0.3,0.24,0.599,0.483,0.896,0.73    c0.312,0.259,0.622,0.522,0.931,0.789c0.122,0.106,0.244,0.213,0.365,0.319c0.276,0.243,0.551,0.489,0.824,0.738    c0.276,0.251,0.55,0.504,0.823,0.761c0.151,0.142,0.301,0.285,0.45,0.429c0.265,0.255,0.528,0.515,0.791,0.777    c0.242,0.241,0.483,0.483,0.723,0.729c0.171,0.176,0.341,0.352,0.511,0.53c0.258,0.271,0.512,0.548,0.766,0.826    c0.212,0.231,0.423,0.462,0.632,0.696c0.185,0.208,0.371,0.415,0.555,0.626c0.251,0.289,0.497,0.585,0.745,0.88    c0.185,0.221,0.37,0.441,0.553,0.665c0.195,0.239,0.391,0.475,0.583,0.718c0.241,0.304,0.477,0.617,0.714,0.927    c0.166,0.216,0.332,0.432,0.496,0.651c0.199,0.266,0.4,0.529,0.596,0.8c0.217,0.3,0.428,0.611,0.641,0.916    c0.166,0.237,0.333,0.473,0.496,0.714c0.197,0.289,0.398,0.573,0.591,0.867c0.033,0.051,0.065,0.104,0.098,0.155    c0.039,0.06,0.076,0.122,0.115,0.182c-1.845,22.498-26.091,37.685-47.446,28.934c-6.113-2.509-11.35-5.067-15.208-7.426    C179.309,145.956,177.795,131.268,177.558,114.726z M152.311,76.541c0-16.01,17.75-25.18,67.181-25.18    c13.908,0,25.18-11.276,25.18-25.18v-8.393h16.787v8.393c0,13.904,11.272,25.18,25.18,25.18c49.431,0,67.181,9.17,67.181,25.18    c0,2.803-8.384,13.485-17.952,23.032c-0.768-0.407-1.546-0.793-2.331-1.162c-0.026-0.012-0.052-0.027-0.078-0.039    c-0.903-0.423-1.819-0.814-2.742-1.186c-0.294-0.118-0.591-0.224-0.887-0.338c-0.64-0.245-1.281-0.483-1.93-0.704    c-0.349-0.119-0.7-0.231-1.051-0.343c-0.613-0.195-1.228-0.381-1.847-0.555c-0.358-0.101-0.716-0.201-1.076-0.295    c-0.652-0.17-1.308-0.324-1.967-0.471c-0.322-0.072-0.641-0.15-0.964-0.216c-0.889-0.182-1.783-0.345-2.682-0.486    c-0.091-0.014-0.182-0.034-0.273-0.048c-0.99-0.151-1.987-0.272-2.987-0.373c-0.31-0.031-0.621-0.051-0.932-0.077    c-0.699-0.06-1.398-0.112-2.1-0.148c-0.373-0.019-0.746-0.03-1.12-0.042c-0.583-0.019-1.166-0.032-1.751-0.035    c-0.181-0.001-0.362-0.005-0.544-0.004c-0.271,0.001-0.543,0.008-0.815,0.013c-0.477,0.008-0.955,0.023-1.433,0.042    c-0.325,0.013-0.65,0.026-0.976,0.043c-0.224,0.012-0.447,0.024-0.672,0.039c-0.376,0.025-0.752,0.058-1.128,0.089    c-0.484,0.04-0.968,0.084-1.452,0.135c-0.02,0.002-0.04,0.003-0.06,0.006c-0.145,0.016-0.289,0.024-0.434,0.04    c-0.266,0.03-0.532,0.073-0.798,0.106c-0.562,0.07-1.123,0.145-1.685,0.23c-0.196,0.03-0.392,0.059-0.588,0.091    c-0.209,0.034-0.418,0.073-0.627,0.109c-0.581,0.099-1.161,0.201-1.741,0.316c-0.202,0.04-0.403,0.086-0.605,0.128    c-0.058,0.012-0.116,0.025-0.173,0.037c-0.202,0.043-0.405,0.084-0.607,0.128c-0.975,0.214-1.948,0.45-2.919,0.709    c-0.069,0.018-0.138,0.035-0.207,0.053c-14.177,3.815-27.895,12.331-38.651,25.384c-0.72-0.874-1.455-1.726-2.2-2.559    c-0.149-0.166-0.302-0.324-0.452-0.489c-0.051-0.056-0.103-0.109-0.154-0.164c-0.57-0.623-1.143-1.242-1.726-1.841    c-0.086-0.089-0.172-0.178-0.259-0.267c-0.247-0.251-0.5-0.49-0.749-0.737c-0.453-0.449-0.905-0.898-1.366-1.333    c-0.164-0.155-0.328-0.308-0.492-0.461c-0.258-0.24-0.519-0.472-0.779-0.707c-0.389-0.352-0.779-0.703-1.173-1.045    c-0.244-0.212-0.489-0.421-0.734-0.629c-0.25-0.212-0.499-0.423-0.75-0.631c-0.34-0.281-0.681-0.556-1.024-0.83    c-0.327-0.261-0.657-0.517-0.987-0.772c-0.231-0.178-0.458-0.364-0.69-0.539c-0.298-0.225-0.6-0.438-0.899-0.658    c-0.34-0.249-0.682-0.495-1.025-0.738c-0.278-0.197-0.553-0.401-0.833-0.594c-0.19-0.13-0.383-0.25-0.573-0.379    c-0.069-0.047-0.139-0.091-0.208-0.138c-0.341-0.228-0.682-0.456-1.025-0.678c-0.338-0.218-0.675-0.437-1.015-0.65    c-0.274-0.171-0.549-0.335-0.824-0.502c-0.281-0.171-0.562-0.341-0.844-0.508c-0.407-0.24-0.815-0.473-1.224-0.703    c-0.299-0.169-0.599-0.338-0.9-0.502c-0.199-0.108-0.397-0.217-0.596-0.324c-0.495-0.264-0.993-0.516-1.491-0.768    c-0.308-0.156-0.615-0.317-0.925-0.468c-0.113-0.055-0.227-0.11-0.34-0.165c-0.64-0.308-1.284-0.597-1.928-0.885    c-0.261-0.117-0.521-0.243-0.783-0.356c-0.026-0.011-0.052-0.021-0.078-0.032c-0.99-0.426-1.984-0.83-2.983-1.208    c-0.174-0.066-0.35-0.122-0.524-0.187c-0.757-0.28-1.515-0.553-2.276-0.805c-0.051-0.017-0.102-0.031-0.153-0.048    c-0.025-0.008-0.05-0.015-0.076-0.024c-0.347-0.114-0.695-0.217-1.043-0.325c-0.533-0.165-1.065-0.333-1.599-0.485    c-0.158-0.045-0.316-0.084-0.474-0.128c-0.367-0.102-0.734-0.197-1.101-0.292c-0.437-0.113-0.874-0.228-1.312-0.332    c-0.242-0.058-0.485-0.108-0.728-0.163c-0.355-0.081-0.71-0.162-1.066-0.236c-0.369-0.077-0.738-0.152-1.107-0.223    c-0.306-0.059-0.613-0.11-0.919-0.165c-0.048-0.008-0.095-0.017-0.143-0.026c-0.305-0.054-0.61-0.115-0.916-0.164    c-0.31-0.05-0.62-0.092-0.931-0.137c-0.321-0.047-0.643-0.089-0.964-0.131c-0.392-0.052-0.784-0.113-1.176-0.158    c-0.145-0.016-0.289-0.025-0.433-0.04c-0.114-0.012-0.228-0.02-0.342-0.032c-0.326-0.033-0.652-0.063-0.977-0.091    c-0.441-0.038-0.881-0.078-1.321-0.107c-0.264-0.017-0.526-0.029-0.79-0.043c-0.267-0.014-0.533-0.025-0.8-0.036    c-0.498-0.02-0.994-0.036-1.491-0.045c-0.283-0.005-0.567-0.011-0.85-0.012c-0.185-0.001-0.37,0.003-0.555,0.003    c-0.569,0.003-1.137,0.017-1.705,0.035c-0.287,0.009-0.576,0.011-0.862,0.024c-0.102,0.005-0.204,0.015-0.306,0.02    c-0.686,0.035-1.369,0.088-2.052,0.146c-0.31,0.026-0.622,0.046-0.932,0.077c-0.723,0.073-1.442,0.166-2.159,0.265    c-0.176,0.024-0.354,0.042-0.53,0.068c-0.099,0.015-0.199,0.025-0.298,0.04c-0.092,0.014-0.183,0.034-0.275,0.048    c-0.898,0.141-1.792,0.303-2.68,0.486c-0.323,0.066-0.643,0.144-0.965,0.216c-0.658,0.147-1.314,0.301-1.966,0.471    c-0.36,0.094-0.719,0.194-1.077,0.295c-0.374,0.105-0.75,0.206-1.122,0.319c-0.169,0.051-0.334,0.111-0.502,0.164    c-0.074,0.023-0.148,0.049-0.222,0.072c-0.352,0.112-0.703,0.224-1.053,0.343c-0.297,0.101-0.594,0.201-0.889,0.307    c-0.255,0.092-0.506,0.194-0.76,0.289c-0.093,0.035-0.187,0.071-0.28,0.107c-0.296,0.113-0.594,0.219-0.888,0.338    c-0.23,0.093-0.458,0.19-0.687,0.286c-0.294,0.123-0.584,0.255-0.875,0.383c-0.393,0.173-0.79,0.335-1.18,0.517    c-0.028,0.013-0.055,0.028-0.083,0.042c-0.144,0.068-0.285,0.144-0.428,0.213c-0.309,0.149-0.615,0.305-0.922,0.46    c-0.325,0.164-0.654,0.316-0.976,0.486C160.696,90.026,152.311,79.344,152.311,76.541z M364.53,481.259    c-6.081,2.371-14.9,4.33-25.074,5.54c-22.057,2.623-46.405,1.39-63.009-3.651c-15.271-4.637-31.556-4.637-46.828,0    c-16.6,5.04-40.945,6.274-63.002,3.651c-10.174-1.21-18.993-3.169-25.076-5.54c-2.743-1.069-4.756-2.159-5.898-3.104    c-0.203-0.691,0.206-2.508,1.148-4.588c15.636-34.313,23.914-66.091,23.914-97.613v-56.001c0-16.499,14.569-44.666,31.115-61.213    c8.717-9.793,10.885-17.594,10.885-32.618v-1.351c0-9.435-2.451-18.608-7.177-26.642c-2.944-5-5.634-10.807-7.987-17.457    c1.046,0.453,2.115,0.903,3.206,1.351c23.62,9.678,49.39-0.095,62.318-19.481c12.928,19.386,38.698,29.159,62.314,19.482    c1.067-0.438,2.112-0.879,3.136-1.321c-2.349,6.636-5.033,12.433-7.971,17.427c-4.729,8.038-7.185,17.212-7.185,26.641v1.351    c0,15.024,2.168,22.825,10.545,32.256c16.887,16.908,31.456,45.075,31.456,61.574v56.001c0,31.522,8.278,63.3,23.922,97.63    c0.942,2.068,1.348,3.871,1.27,5.42C369.284,479.1,367.272,480.19,364.53,481.259z"/>
	</g>
</g>
<g>
</g>
<g>
</g>
<g>
</g>
<g>
</g>
<g>
</g>
<g>
</g>
<g>
</g>
<g>
</g>
<g>
</g>
<g>
</g>
<g>
</g>
<g>
</g>
<g>
</g>
<g>
</g>
<g>
</g>
</svg>
