<?xml version="1.0" encoding="iso-8859-1"?>
<!-- Generator: Adobe Illustrator 19.0.0, SVG Export Plug-In . SVG Version: 6.00 Build 0)  -->
<svg xmlns="http://www.w3.org/2000/svg" xmlns:xlink="http://www.w3.org/1999/xlink" version="1.1" id="Layer_1" x="0px" y="0px" viewBox="0 0 512 512" style="enable-background:new 0 0 512 512;" xml:space="preserve">
<g transform="translate(0 -1)">
	<g>
		<path d="M334.488,255.687c-6.594-7.754-10.221-16.975-10.221-26.301c0-7.216,1.795-13.887,5.237-19.812    c11.938-20.622,19.903-51.359,20.342-93.916c14.493-13.758,25.655-28.047,25.655-37.858c0-22.07-15.875-35.383-49.665-40.387    c-0.52-0.135-1.06-0.227-1.616-0.262c-0.05-0.003-0.099,0-0.149-0.002c-9.831-1.346-21.126-2.015-33.938-2.015    c-4.713,0-8.533-3.822-8.533-8.533V9.533c0-4.713-3.821-8.533-8.533-8.533h-34.133c-4.713,0-8.533,3.82-8.533,8.533V26.6    c0,4.712-3.82,8.533-8.533,8.533c-12.812,0-24.107,0.669-33.938,2.015c-0.05,0.002-0.099-0.001-0.149,0.002    c-0.557,0.035-1.096,0.127-1.616,0.262c-33.789,5.004-49.665,18.317-49.665,40.387c0,9.811,11.163,24.1,25.655,37.858    c0.439,42.557,8.404,73.294,20.335,93.905c3.448,5.936,5.243,12.607,5.243,19.473c0,9.676-3.626,18.897-10.221,26.651    c-49.715,58.457-50.966,123.96-23.66,233.772c0.705,2.835,2.811,5.112,5.583,6.036c0.445,0.148,1.261,0.413,2.421,0.778    c1.907,0.6,4.099,1.267,6.547,1.983c6.973,2.041,14.619,4.08,22.709,5.983c11.031,2.596,21.929,4.704,32.481,6.212    c0.182,0.026,0.366,0.054,0.548,0.08c2.08,0.293,4.148,0.566,6.199,0.811c0.134,0.016,0.271,0.035,0.405,0.051    c1.951,0.23,3.891,0.44,5.812,0.623c0.128,0.012,0.252,0.02,0.38,0.032c0.474,0.044,0.939,0.078,1.411,0.119    c1.5,0.132,2.987,0.25,4.457,0.351c0.64,0.044,1.275,0.082,1.91,0.12c1.386,0.082,2.756,0.149,4.114,0.203    c0.538,0.021,1.08,0.046,1.614,0.063C252.32,512.961,254.179,513,256,513s3.68-0.039,5.558-0.097    c0.534-0.016,1.076-0.042,1.614-0.063c1.358-0.053,2.728-0.12,4.114-0.203c0.635-0.038,1.27-0.076,1.91-0.12    c1.47-0.1,2.957-0.219,4.457-0.351c0.471-0.041,0.936-0.075,1.411-0.119c0.128-0.012,0.252-0.02,0.38-0.032    c1.921-0.183,3.861-0.393,5.812-0.623c0.134-0.016,0.271-0.035,0.405-0.051c2.051-0.244,4.119-0.517,6.199-0.811    c0.182-0.026,0.366-0.054,0.548-0.08c10.552-1.508,21.45-3.616,32.481-6.212c8.09-1.904,15.736-3.943,22.709-5.983    c2.448-0.716,4.64-1.383,6.547-1.983c1.159-0.365,1.976-0.63,2.421-0.778c2.771-0.924,4.878-3.201,5.583-6.036    C385.453,379.647,384.203,314.144,334.488,255.687z M280.603,264.486c27.821,56.398,33.197,145.839,19.367,226.738    c-5.871,1.109-11.585,2.034-17.121,2.766c-0.386,0.051-0.769,0.097-1.154,0.146c-1.35,0.173-2.689,0.333-4.016,0.482    c-0.655,0.073-1.306,0.14-1.956,0.208c-1.111,0.115-2.215,0.223-3.308,0.321c-0.625,0.056-1.248,0.109-1.866,0.158    c-1.086,0.087-2.161,0.164-3.229,0.233c-0.594,0.038-1.189,0.079-1.776,0.111c-1.174,0.065-2.331,0.115-3.482,0.157    c-0.443,0.016-0.894,0.039-1.333,0.052c-1.598,0.047-3.177,0.074-4.728,0.074c-1.551,0-3.13-0.028-4.728-0.074    c-0.439-0.013-0.89-0.036-1.333-0.052c-1.151-0.042-2.308-0.092-3.482-0.157c-0.587-0.033-1.182-0.073-1.776-0.111    c-1.068-0.069-2.143-0.145-3.229-0.233c-0.619-0.05-1.242-0.103-1.867-0.158c-1.094-0.097-2.197-0.206-3.308-0.321    c-0.651-0.067-1.302-0.135-1.957-0.208c-1.327-0.148-2.665-0.309-4.015-0.482c-0.385-0.049-0.769-0.096-1.156-0.146    c-5.535-0.732-11.249-1.657-17.12-2.766c-13.83-80.899-8.454-170.34,19.367-226.738c4.97-10.075,7.536-21.151,7.536-32.439    c0-11.807-2.724-23.311-8.045-33.599c-1.787-3.45-3.58-7.248-5.352-11.389c12.374-3.345,23.338-11.14,30.464-21.825    c7.126,10.685,18.09,18.48,30.464,21.825c-1.772,4.14-3.564,7.936-5.349,11.383c-5.323,10.293-8.048,21.797-8.048,33.604    C273.067,243.334,275.633,254.41,280.603,264.486z M179.233,116.622c0.075-0.041,0.147-0.087,0.222-0.128    c0.294-0.16,0.595-0.307,0.893-0.459c0.381-0.194,0.762-0.389,1.149-0.57c0.119-0.056,0.241-0.106,0.361-0.161    c0.198-0.09,0.398-0.178,0.598-0.265c0.378-0.165,0.757-0.328,1.141-0.481c0.145-0.058,0.292-0.11,0.438-0.166    c0.192-0.074,0.385-0.146,0.579-0.217c0.377-0.138,0.755-0.273,1.137-0.4c0.146-0.049,0.294-0.093,0.44-0.14    c0.209-0.067,0.419-0.133,0.629-0.196c0.378-0.114,0.758-0.224,1.14-0.327c0.135-0.036,0.271-0.07,0.407-0.105    c0.234-0.061,0.468-0.121,0.704-0.178c0.382-0.092,0.765-0.177,1.151-0.258c0.115-0.024,0.231-0.047,0.347-0.07    c0.265-0.053,0.53-0.107,0.797-0.156c0.027-0.005,0.054-0.008,0.08-0.013c0.359,0.023,0.721,0.031,1.09,0.008    c0.81-0.051,1.582-0.221,2.311-0.479c0.023-0.002,0.045-0.005,0.068-0.007c0.047-0.005,0.094-0.009,0.142-0.014    c0.333-0.031,0.667-0.064,1.002-0.088c0.436-0.031,0.875-0.052,1.313-0.07c0.358-0.015,0.715-0.032,1.074-0.039    c0.448-0.008,0.898-0.004,1.348,0c0.354,0.004,0.708,0.003,1.063,0.015c0.462,0.015,0.926,0.045,1.39,0.074    c0.316,0.02,0.631,0.035,0.947,0.06c0.194,0.016,0.39,0.039,0.584,0.058c0.319,0.03,0.639,0.064,0.958,0.101    c0.265,0.03,0.53,0.055,0.796,0.09c0.27,0.035,0.54,0.079,0.81,0.118c0.324,0.047,0.647,0.098,0.971,0.152    c0.188,0.031,0.375,0.058,0.563,0.091c0.315,0.056,0.631,0.121,0.947,0.184c0.469,0.093,0.938,0.187,1.407,0.294    c0.35,0.079,0.699,0.167,1.049,0.254c0.459,0.114,0.919,0.232,1.378,0.36c0.347,0.096,0.693,0.198,1.04,0.302    c0.047,0.014,0.095,0.03,0.142,0.044c0.415,0.126,0.83,0.255,1.244,0.391c0.318,0.105,0.635,0.213,0.953,0.324    c0.144,0.05,0.288,0.104,0.432,0.156c0.346,0.124,0.692,0.25,1.037,0.382c0.286,0.109,0.572,0.22,0.857,0.334    c0.202,0.081,0.404,0.167,0.606,0.251c0.318,0.132,0.635,0.265,0.952,0.404c0.251,0.11,0.503,0.219,0.753,0.333    c0.246,0.112,0.491,0.228,0.736,0.344c0.309,0.145,0.617,0.294,0.925,0.445c0.21,0.104,0.42,0.205,0.63,0.312    c0.285,0.145,0.568,0.296,0.852,0.446c0.322,0.17,0.642,0.344,0.962,0.521c0.149,0.082,0.298,0.162,0.447,0.246    c0.32,0.181,0.638,0.368,0.956,0.556c0.415,0.245,0.829,0.493,1.241,0.749c0.013,0.008,0.026,0.016,0.039,0.024    c0.35,0.218,0.697,0.444,1.044,0.671c0.418,0.274,0.835,0.551,1.25,0.837c0.346,0.239,0.691,0.483,1.034,0.731    c0.41,0.295,0.817,0.597,1.222,0.904c0.307,0.233,0.612,0.47,0.917,0.71c0.101,0.08,0.201,0.162,0.302,0.242    c0.332,0.266,0.663,0.534,0.992,0.808c0.268,0.224,0.536,0.45,0.802,0.68c0.145,0.125,0.289,0.253,0.434,0.38    c0.31,0.272,0.619,0.548,0.925,0.828c0.23,0.21,0.459,0.422,0.687,0.636c0.174,0.164,0.347,0.329,0.52,0.495    c0.302,0.29,0.602,0.586,0.9,0.884c0.192,0.192,0.383,0.384,0.573,0.579c0.196,0.201,0.391,0.403,0.585,0.607    c0.3,0.315,0.596,0.637,0.891,0.96c0.153,0.168,0.306,0.336,0.458,0.506c0.213,0.238,0.426,0.476,0.636,0.718    c0.303,0.349,0.601,0.705,0.899,1.063c0.112,0.135,0.225,0.269,0.336,0.405c0.227,0.277,0.454,0.553,0.678,0.834    c0.314,0.395,0.622,0.801,0.929,1.206c0.066,0.087,0.132,0.173,0.198,0.26c0.237,0.316,0.476,0.629,0.709,0.951    c0.346,0.477,0.683,0.966,1.02,1.456c0.003,0.004,0.006,0.008,0.009,0.013c0.244,0.355,0.49,0.707,0.729,1.069    c0.07,0.107,0.137,0.219,0.207,0.326c-0.014,0.174-0.029,0.348-0.046,0.521c-0.032,0.333-0.071,0.663-0.112,0.992    c-0.046,0.352-0.092,0.705-0.148,1.054c-0.03,0.188-0.067,0.373-0.099,0.559c-2.857,15.924-17.014,28.143-33.624,28.763    c-0.272,0.01-0.536,0.045-0.799,0.079c-4.443,0.062-8.98-0.725-13.396-2.535c-6.215-2.551-11.539-5.151-15.461-7.55    C181.014,148.372,179.474,133.439,179.233,116.622z M299.496,171.785c-0.267-0.035-0.534-0.07-0.81-0.08    c-16.611-0.62-30.768-12.84-33.624-28.764c-0.033-0.186-0.069-0.371-0.099-0.558c-0.057-0.35-0.103-0.703-0.149-1.056    c-0.042-0.328-0.08-0.657-0.112-0.988c-0.017-0.174-0.032-0.349-0.047-0.524c0.07-0.108,0.137-0.22,0.208-0.328    c0.238-0.361,0.484-0.712,0.727-1.066c0.002-0.003,0.004-0.005,0.005-0.008c0.339-0.493,0.678-0.985,1.025-1.464    c0.232-0.32,0.469-0.632,0.705-0.946c0.067-0.089,0.134-0.176,0.201-0.265c0.308-0.406,0.616-0.811,0.93-1.207    c0.223-0.281,0.45-0.556,0.676-0.832c0.112-0.136,0.225-0.271,0.337-0.406c0.298-0.358,0.596-0.714,0.899-1.063    c0.21-0.242,0.422-0.479,0.634-0.716c0.153-0.171,0.306-0.339,0.46-0.507c0.296-0.324,0.593-0.646,0.893-0.962    c0.193-0.203,0.387-0.403,0.581-0.603c0.191-0.196,0.383-0.389,0.576-0.582c0.298-0.298,0.598-0.593,0.9-0.884    c0.172-0.166,0.345-0.33,0.518-0.493c0.229-0.215,0.458-0.427,0.689-0.638c0.307-0.281,0.616-0.557,0.927-0.83    c0.144-0.126,0.288-0.253,0.432-0.378c0.266-0.229,0.533-0.455,0.801-0.679c0.33-0.275,0.661-0.544,0.994-0.81    c0.1-0.08,0.2-0.162,0.301-0.241c0.304-0.24,0.61-0.477,0.917-0.71c0.405-0.307,0.812-0.609,1.222-0.904    c0.343-0.247,0.688-0.492,1.034-0.731c0.414-0.286,0.831-0.564,1.25-0.837c0.347-0.227,0.694-0.452,1.044-0.67    c0.013-0.008,0.027-0.016,0.04-0.024c0.412-0.257,0.826-0.505,1.242-0.75c0.317-0.187,0.635-0.374,0.954-0.555    c0.148-0.084,0.297-0.163,0.446-0.246c0.321-0.178,0.642-0.352,0.965-0.522c0.283-0.15,0.566-0.301,0.851-0.445    c0.209-0.106,0.419-0.208,0.629-0.311c0.307-0.152,0.616-0.3,0.924-0.445c0.245-0.115,0.49-0.232,0.735-0.344    c0.251-0.114,0.503-0.224,0.755-0.334c0.316-0.138,0.633-0.271,0.95-0.403c0.202-0.084,0.403-0.169,0.605-0.25    c0.286-0.115,0.573-0.226,0.859-0.335c0.345-0.132,0.692-0.258,1.038-0.382c0.143-0.051,0.286-0.105,0.43-0.155    c0.317-0.111,0.635-0.219,0.953-0.324c0.415-0.136,0.83-0.266,1.245-0.391c0.047-0.014,0.094-0.03,0.141-0.044    c0.347-0.104,0.693-0.206,1.04-0.302c0.459-0.127,0.918-0.245,1.378-0.36c0.349-0.087,0.699-0.174,1.048-0.254    c0.469-0.106,0.938-0.201,1.407-0.294c0.316-0.063,0.631-0.127,0.947-0.184c0.188-0.033,0.375-0.06,0.562-0.091    c0.324-0.054,0.648-0.105,0.972-0.153c0.27-0.04,0.54-0.083,0.81-0.118c0.266-0.035,0.53-0.06,0.795-0.09    c0.32-0.036,0.64-0.071,0.959-0.101c0.195-0.018,0.39-0.042,0.584-0.058c0.316-0.026,0.632-0.041,0.947-0.06    c0.464-0.029,0.928-0.059,1.39-0.074c0.355-0.012,0.709-0.012,1.063-0.015c0.45-0.005,0.9-0.009,1.348,0    c0.359,0.007,0.717,0.024,1.074,0.039c0.439,0.019,0.877,0.039,1.313,0.07c0.335,0.024,0.669,0.056,1.002,0.088    c0.047,0.005,0.095,0.009,0.142,0.014c0.023,0.002,0.045,0.005,0.067,0.007c0.729,0.258,1.501,0.427,2.311,0.479    c0.368,0.023,0.731,0.015,1.09-0.008c0.027,0.005,0.054,0.008,0.08,0.013c0.267,0.049,0.532,0.102,0.797,0.156    c0.116,0.023,0.232,0.046,0.347,0.071c0.385,0.081,0.768,0.167,1.149,0.258c0.236,0.057,0.47,0.117,0.704,0.178    c0.136,0.035,0.272,0.069,0.407,0.106c0.382,0.103,0.761,0.213,1.139,0.326c0.211,0.064,0.42,0.13,0.629,0.197    c0.147,0.047,0.294,0.091,0.441,0.14c0.382,0.127,0.76,0.262,1.136,0.4c0.194,0.071,0.387,0.144,0.579,0.218    c0.146,0.056,0.294,0.109,0.439,0.167c0.383,0.153,0.762,0.316,1.14,0.481c0.2,0.087,0.4,0.174,0.599,0.265    c0.12,0.055,0.242,0.105,0.361,0.161c0.387,0.181,0.767,0.376,1.148,0.57c0.299,0.152,0.6,0.3,0.895,0.46    c0.075,0.041,0.147,0.086,0.221,0.128c-0.241,16.817-1.781,31.75-4.424,45.077c-3.922,2.399-9.247,4.999-15.465,7.551    C308.466,171.058,303.935,171.845,299.496,171.785z M358.434,77.8c0,2.85-8.524,13.71-18.251,23.416    c-0.29-0.154-0.588-0.291-0.881-0.439c-0.372-0.188-0.742-0.377-1.118-0.557c-0.125-0.06-0.247-0.127-0.372-0.185    c-0.026-0.012-0.052-0.027-0.078-0.039c-0.345-0.161-0.697-0.304-1.045-0.458c-0.371-0.164-0.74-0.332-1.114-0.488    c-0.21-0.088-0.419-0.176-0.63-0.26c-0.298-0.12-0.601-0.228-0.901-0.343c-0.016-0.006-0.031-0.012-0.047-0.018    c-0.361-0.138-0.72-0.282-1.084-0.413c-0.275-0.099-0.553-0.19-0.83-0.284c-0.342-0.117-0.686-0.227-1.03-0.337    c-0.283-0.091-0.563-0.189-0.848-0.276c-0.355-0.107-0.714-0.201-1.071-0.301c-0.045-0.013-0.09-0.028-0.136-0.041l2.609-41.259    C350.784,59.568,358.434,67.21,358.434,77.8z M247.467,26.6v-8.533h17.067V26.6c0,14.136,11.46,25.6,25.6,25.6    c9.237,0,17.377,0.318,24.525,0.933l-2.622,41.451c-0.132,0.001-0.265,0.012-0.397,0.014c-0.461,0.008-0.923,0.021-1.385,0.039    c-0.351,0.014-0.702,0.028-1.054,0.047c-0.232,0.013-0.463,0.025-0.695,0.04c-0.396,0.026-0.793,0.062-1.19,0.095    c-0.433,0.036-0.866,0.076-1.299,0.121c-0.066,0.007-0.132,0.011-0.198,0.018c-0.146,0.016-0.292,0.024-0.438,0.041    c-0.339,0.039-0.678,0.092-1.017,0.136c-0.431,0.056-0.861,0.112-1.292,0.176c-0.271,0.04-0.542,0.078-0.813,0.121    c-0.298,0.048-0.595,0.108-0.893,0.16c-0.412,0.072-0.823,0.142-1.235,0.222c-0.336,0.065-0.673,0.135-1.009,0.206    c-0.33,0.069-0.659,0.143-0.988,0.217c-0.312,0.07-0.625,0.137-0.937,0.212c-0.411,0.099-0.822,0.208-1.233,0.315    c-0.348,0.09-0.696,0.179-1.044,0.275c-0.216,0.06-0.432,0.115-0.648,0.177c-0.513,0.147-1.024,0.31-1.536,0.469    c-0.336,0.104-0.673,0.203-1.009,0.312c-0.121,0.04-0.243,0.075-0.364,0.115c-0.748,0.249-1.493,0.52-2.237,0.795    c-0.176,0.065-0.353,0.122-0.529,0.189c-0.041,0.016-0.082,0.03-0.123,0.046c-0.184,0.07-0.366,0.15-0.55,0.222    c-0.773,0.302-1.545,0.61-2.313,0.94c-0.063,0.027-0.127,0.053-0.191,0.08c-0.194,0.084-0.386,0.18-0.58,0.266    c-0.084,0.037-0.167,0.078-0.252,0.115c-0.606,0.271-1.211,0.542-1.813,0.831c-0.153,0.073-0.305,0.147-0.458,0.221    c-0.294,0.144-0.586,0.3-0.879,0.448c-0.49,0.248-0.981,0.494-1.468,0.754c-0.24,0.128-0.478,0.258-0.717,0.388    c-0.284,0.155-0.565,0.316-0.847,0.475c-0.402,0.227-0.804,0.455-1.203,0.69c-0.324,0.191-0.647,0.386-0.969,0.582    c-0.257,0.156-0.514,0.311-0.769,0.47c-0.33,0.206-0.658,0.418-0.987,0.63c-0.397,0.257-0.792,0.52-1.187,0.785    c-0.038,0.025-0.076,0.05-0.113,0.075c-0.194,0.131-0.391,0.253-0.584,0.386c-0.268,0.184-0.531,0.38-0.798,0.568    c-0.392,0.277-0.781,0.557-1.17,0.842c-0.278,0.204-0.558,0.403-0.834,0.611c-0.225,0.17-0.446,0.35-0.67,0.523    c-0.368,0.284-0.736,0.57-1.101,0.862c-0.327,0.262-0.653,0.525-0.977,0.793c-0.247,0.205-0.493,0.412-0.739,0.62    c-0.277,0.235-0.553,0.47-0.828,0.709c-0.381,0.332-0.757,0.672-1.134,1.013c-0.259,0.234-0.519,0.466-0.776,0.704    c-0.19,0.177-0.38,0.354-0.569,0.533c-0.45,0.427-0.893,0.867-1.336,1.307c-0.249,0.247-0.504,0.486-0.751,0.737    c-0.108,0.109-0.214,0.22-0.321,0.33c-0.529,0.544-1.046,1.107-1.564,1.669c-0.188,0.205-0.382,0.4-0.569,0.607    c-0.037,0.041-0.075,0.078-0.112,0.119c-0.031,0.034-0.06,0.071-0.091,0.105c-0.765,0.855-1.519,1.729-2.257,2.627    c-0.738-0.897-1.492-1.771-2.257-2.627c-0.031-0.034-0.06-0.07-0.09-0.104c-0.041-0.045-0.083-0.087-0.124-0.133    c-0.183-0.203-0.373-0.394-0.557-0.595c-0.518-0.563-1.035-1.126-1.564-1.669c-0.107-0.11-0.213-0.22-0.32-0.329    c-0.248-0.252-0.502-0.491-0.752-0.739c-0.443-0.44-0.886-0.88-1.336-1.307c-0.188-0.178-0.378-0.355-0.567-0.531    c-0.257-0.239-0.519-0.471-0.778-0.706c-0.376-0.34-0.752-0.68-1.133-1.012c-0.274-0.239-0.55-0.474-0.827-0.709    c-0.246-0.209-0.493-0.417-0.741-0.622c-0.324-0.268-0.649-0.531-0.976-0.792c-0.365-0.292-0.732-0.577-1.1-0.862    c-0.225-0.174-0.446-0.354-0.672-0.525c-0.276-0.208-0.556-0.407-0.834-0.611c-0.388-0.285-0.778-0.565-1.17-0.842    c-0.266-0.188-0.529-0.384-0.797-0.568c-0.194-0.134-0.392-0.257-0.587-0.388c-0.037-0.025-0.074-0.049-0.111-0.073    c-0.394-0.265-0.788-0.527-1.185-0.784c-0.328-0.212-0.657-0.424-0.987-0.631c-0.256-0.16-0.513-0.315-0.77-0.471    c-0.322-0.196-0.644-0.391-0.968-0.581c-0.399-0.235-0.8-0.463-1.202-0.689c-0.283-0.159-0.565-0.321-0.849-0.476    c-0.238-0.13-0.477-0.26-0.716-0.388c-0.487-0.26-0.977-0.506-1.467-0.754c-0.294-0.148-0.585-0.304-0.88-0.449    c-0.152-0.074-0.304-0.147-0.457-0.221c-0.603-0.29-1.21-0.561-1.817-0.833c-0.081-0.036-0.161-0.075-0.241-0.111    c-0.196-0.087-0.39-0.184-0.587-0.269c-0.063-0.027-0.127-0.052-0.19-0.08c-0.768-0.33-1.541-0.639-2.315-0.941    c-0.183-0.071-0.365-0.151-0.548-0.221c-0.041-0.016-0.082-0.03-0.122-0.046c-0.177-0.067-0.355-0.124-0.532-0.19    c-0.744-0.275-1.488-0.545-2.235-0.794c-0.121-0.04-0.242-0.075-0.363-0.115c-0.336-0.11-0.673-0.208-1.01-0.313    c-0.511-0.159-1.022-0.322-1.535-0.469c-0.216-0.062-0.432-0.117-0.648-0.176c-0.348-0.096-0.696-0.185-1.045-0.275    c-0.411-0.106-0.821-0.216-1.232-0.315c-0.312-0.075-0.624-0.141-0.936-0.212c-0.33-0.074-0.659-0.148-0.989-0.217    c-0.336-0.071-0.672-0.14-1.009-0.206c-0.411-0.08-0.823-0.15-1.234-0.222c-0.298-0.052-0.595-0.112-0.893-0.16    c-0.271-0.044-0.542-0.081-0.813-0.121c-0.431-0.064-0.861-0.12-1.292-0.176c-0.339-0.044-0.678-0.098-1.017-0.136    c-0.146-0.017-0.292-0.025-0.438-0.041c-0.066-0.007-0.132-0.012-0.198-0.018c-0.433-0.045-0.866-0.085-1.299-0.121    c-0.397-0.033-0.794-0.069-1.19-0.095c-0.232-0.015-0.463-0.027-0.695-0.04c-0.352-0.019-0.703-0.034-1.054-0.047    c-0.462-0.018-0.924-0.031-1.385-0.039c-0.132-0.002-0.265-0.013-0.397-0.014l-2.622-41.451    c7.149-0.615,15.288-0.933,24.525-0.933C236.007,52.2,247.467,40.736,247.467,26.6z M153.566,77.8    c0-10.59,7.65-18.232,26.826-22.283l2.609,41.259c-0.046,0.013-0.09,0.028-0.136,0.041c-0.357,0.101-0.716,0.194-1.071,0.301    c-0.285,0.086-0.565,0.185-0.848,0.276c-0.344,0.11-0.688,0.22-1.03,0.337c-0.277,0.094-0.555,0.186-0.83,0.284    c-0.364,0.13-0.723,0.275-1.084,0.413c-0.016,0.006-0.031,0.012-0.047,0.018c-0.3,0.115-0.603,0.223-0.901,0.343    c-0.211,0.085-0.42,0.173-0.63,0.26c-0.374,0.156-0.743,0.324-1.114,0.488c-0.348,0.154-0.7,0.297-1.045,0.458    c-0.026,0.012-0.052,0.027-0.078,0.039c-0.125,0.059-0.247,0.125-0.372,0.185c-0.375,0.18-0.746,0.369-1.118,0.557    c-0.293,0.148-0.591,0.285-0.881,0.439C162.09,91.51,153.566,80.65,153.566,77.8z M173.197,481.877    c-1.463-0.428-2.775-0.821-3.924-1.171c-24.888-102.024-23.103-161.822,21.24-213.963C199.651,256,204.8,242.906,204.8,229.386    c0-10.226-2.591-19.854-7.546-28.384c-2.895-5.002-5.543-10.766-7.867-17.334c1.062,0.46,2.148,0.917,3.256,1.372    c4.986,2.043,10.065,3.215,15.104,3.643c2.605,6.526,5.289,12.407,7.985,17.611c4.048,7.826,6.135,16.64,6.135,25.754    c0,8.677-1.968,17.169-5.776,24.888c-28.892,58.568-34.944,148.155-21.966,230.478    C186.681,485.644,179.632,483.76,173.197,481.877z M342.727,480.706c-1.149,0.35-2.461,0.742-3.924,1.171    c-6.435,1.883-13.484,3.767-20.928,5.536c12.977-82.323,6.925-171.909-21.966-230.478c-3.808-7.719-5.776-16.211-5.776-24.888    c0-9.113,2.087-17.927,6.137-25.759c2.694-5.2,5.377-11.08,7.982-17.605c5.037-0.428,10.116-1.599,15.1-3.642    c1.109-0.455,2.196-0.913,3.259-1.373c-2.325,6.571-4.974,12.339-7.872,17.345c-4.948,8.519-7.54,18.147-7.54,28.023    c0,13.87,5.15,26.964,14.287,37.708C365.831,318.884,367.615,378.682,342.727,480.706z"/>
	</g>
</g>
<g>
</g>
<g>
</g>
<g>
</g>
<g>
</g>
<g>
</g>
<g>
</g>
<g>
</g>
<g>
</g>
<g>
</g>
<g>
</g>
<g>
</g>
<g>
</g>
<g>
</g>
<g>
</g>
<g>
</g>
</svg>
