<?xml version="1.0" encoding="iso-8859-1"?>
<!-- Generator: Adobe Illustrator 19.0.0, SVG Export Plug-In . SVG Version: 6.00 Build 0)  -->
<svg xmlns="http://www.w3.org/2000/svg" xmlns:xlink="http://www.w3.org/1999/xlink" version="1.1" id="Layer_1" x="0px" y="0px" viewBox="0 0 512.014 512.014" style="enable-background:new 0 0 512.014 512.014;" xml:space="preserve">
<g transform="translate(-1 -1)">
	<g>
		<path d="M359.321,480.255c12.564-50.624,17.876-82.072,17.224-114.69c-0.855-42.836-13.56-79.214-41.171-110.304    c-6.503-7.323-10.101-16.279-10.101-25.386v-1.374c0-6.577,1.692-12.912,4.94-18.431c12.055-20.473,20.164-51.301,20.637-94.145    c0.001-0.088,0.001-0.179,0.002-0.267c14.493-13.758,25.655-28.047,25.655-37.858c0-22.07-15.876-35.383-49.665-40.387    c-0.52-0.135-1.06-0.227-1.616-0.262c-0.05-0.003-0.099,0-0.148-0.002c-9.831-1.346-21.126-2.015-33.938-2.015    c-4.713,0-8.533-3.822-8.533-8.533V9.533c0-4.713-3.82-8.533-8.533-8.533H239.94c-4.713,0-8.533,3.82-8.533,8.533V26.6    c0,4.712-3.82,8.533-8.533,8.533c-12.812,0-24.107,0.669-33.938,2.015c-0.05,0.002-0.099-0.001-0.149,0.002    c-0.557,0.035-1.096,0.127-1.616,0.262c-33.789,5.004-49.665,18.317-49.665,40.387c0,9.811,11.162,24.1,25.655,37.858    c0.001,0.089,0.001,0.179,0.002,0.267c0.474,42.844,8.582,73.673,20.639,94.148c3.246,5.517,4.938,11.851,4.938,18.428v1.374    c0,9.107-3.597,18.064-10.101,25.386c-27.611,31.09-40.316,67.468-41.171,110.304c-0.651,32.625,4.662,64.079,17.232,114.722    c0.346,2.248,1.599,4.384,3.908,5.807c0.163,0.102,0.328,0.202,0.498,0.293c0.007,0.004,0.013,0.008,0.019,0.011    c66.786,35.634,134.61,35.388,196.024-0.142c0.084-0.049,0.159-0.103,0.24-0.153c0.082-0.051,0.165-0.102,0.246-0.156    C357.813,484.506,358.992,482.43,359.321,480.255z M180.24,116.622c0.061-0.034,0.12-0.071,0.181-0.105    c0.353-0.193,0.714-0.371,1.073-0.552c0.325-0.164,0.649-0.331,0.979-0.486c0.366-0.172,0.738-0.331,1.11-0.491    c0.333-0.144,0.666-0.289,1.003-0.423c0.377-0.15,0.759-0.29,1.142-0.429c0.34-0.123,0.681-0.247,1.025-0.361    c0.388-0.129,0.78-0.249,1.172-0.366c0.346-0.103,0.692-0.204,1.041-0.298c0.008-0.002,0.015-0.004,0.023-0.006    c0.391-0.105,0.785-0.204,1.181-0.298c0.351-0.083,0.703-0.163,1.058-0.238c0.005-0.001,0.01-0.002,0.015-0.003    c0.401-0.084,0.805-0.164,1.21-0.236c0.359,0.023,0.721,0.031,1.089,0.008c0.81-0.051,1.582-0.221,2.311-0.479    c0.004,0,0.009-0.001,0.013-0.001c0.423-0.042,0.847-0.082,1.273-0.112c0.362-0.025,0.726-0.042,1.09-0.058    c0.43-0.02,0.86-0.039,1.293-0.047c0.363-0.006,0.729-0.002,1.094,0c0.437,0.003,0.874,0.004,1.313,0.019    c0.361,0.012,0.724,0.037,1.087,0.058c0.419,0.024,0.838,0.045,1.258,0.08c0.17,0.014,0.34,0.034,0.51,0.05    c0.21,0.02,0.421,0.044,0.631,0.066c0.4,0.043,0.799,0.083,1.2,0.135c0.244,0.032,0.489,0.071,0.733,0.107    c0.149,0.022,0.298,0.047,0.448,0.07c0.389,0.061,0.777,0.119,1.166,0.189c0.289,0.052,0.578,0.111,0.867,0.168    c0.064,0.013,0.128,0.027,0.191,0.04c0.431,0.087,0.863,0.174,1.294,0.273c0.3,0.069,0.6,0.144,0.9,0.218    c0.484,0.12,0.967,0.243,1.45,0.378c0.303,0.084,0.605,0.174,0.908,0.264c0.307,0.091,0.614,0.189,0.921,0.286    c0.198,0.063,0.397,0.122,0.595,0.187c0.278,0.091,0.556,0.187,0.833,0.283c0.304,0.106,0.608,0.218,0.912,0.329    c0.225,0.083,0.45,0.163,0.675,0.249c0.25,0.096,0.5,0.193,0.75,0.293c0.321,0.128,0.64,0.263,0.96,0.397    c0.235,0.099,0.47,0.196,0.704,0.299c0.218,0.095,0.436,0.191,0.654,0.289c0.342,0.154,0.682,0.316,1.022,0.478    c0.247,0.117,0.493,0.235,0.739,0.356c0.179,0.088,0.358,0.175,0.536,0.265c0.364,0.184,0.725,0.376,1.087,0.569    c0.275,0.146,0.549,0.294,0.822,0.445c0.121,0.067,0.242,0.132,0.362,0.199c0.386,0.217,0.769,0.443,1.152,0.67    c0.366,0.217,0.731,0.435,1.094,0.661c0.406,0.253,0.809,0.514,1.211,0.778c0.362,0.238,0.724,0.479,1.083,0.726    c0.397,0.273,0.791,0.553,1.184,0.837c0.358,0.259,0.713,0.522,1.068,0.79c0.366,0.277,0.729,0.559,1.091,0.846    c0.067,0.053,0.134,0.108,0.201,0.161c0.306,0.245,0.611,0.493,0.914,0.745c0.328,0.273,0.655,0.55,0.98,0.831    c0.111,0.096,0.222,0.194,0.333,0.291c0.282,0.248,0.563,0.5,0.842,0.754c0.292,0.266,0.583,0.535,0.872,0.808    c0.14,0.132,0.28,0.266,0.419,0.4c0.271,0.261,0.54,0.527,0.808,0.794c0.256,0.255,0.511,0.512,0.765,0.773    c0.162,0.167,0.324,0.333,0.484,0.502c0.266,0.28,0.529,0.566,0.792,0.853c0.221,0.241,0.441,0.482,0.659,0.727    c0.179,0.201,0.359,0.401,0.536,0.606c0.263,0.302,0.52,0.612,0.779,0.921c0.186,0.222,0.372,0.444,0.556,0.67    c0.193,0.236,0.387,0.47,0.578,0.71c0.263,0.331,0.52,0.672,0.779,1.011c0.151,0.198,0.302,0.394,0.452,0.594    c0.202,0.27,0.406,0.537,0.605,0.812c0.271,0.374,0.534,0.761,0.8,1.143c0.11,0.159,0.221,0.316,0.33,0.476    c0.209,0.306,0.421,0.608,0.627,0.919c0.074,0.113,0.145,0.231,0.219,0.345c-1.875,22.873-26.526,38.313-48.237,29.417    c-6.215-2.551-11.539-5.151-15.461-7.55C182.021,148.372,180.481,133.439,180.24,116.622z M265.871,139.487    c0.206-0.312,0.418-0.613,0.627-0.919c0.109-0.16,0.22-0.317,0.33-0.476c0.266-0.383,0.529-0.769,0.8-1.143    c0.199-0.275,0.403-0.542,0.605-0.812c0.149-0.2,0.301-0.397,0.452-0.594c0.259-0.338,0.516-0.68,0.779-1.011    c0.191-0.24,0.385-0.474,0.578-0.71c0.184-0.226,0.37-0.448,0.556-0.67c0.259-0.309,0.517-0.619,0.779-0.921    c0.177-0.204,0.357-0.404,0.536-0.606c0.218-0.245,0.439-0.487,0.659-0.727c0.263-0.286,0.525-0.573,0.792-0.853    c0.161-0.169,0.323-0.336,0.484-0.502c0.253-0.261,0.508-0.518,0.765-0.773c0.268-0.267,0.537-0.533,0.808-0.794    c0.139-0.134,0.279-0.267,0.419-0.4c0.289-0.273,0.58-0.542,0.872-0.808c0.279-0.254,0.56-0.506,0.842-0.754    c0.111-0.098,0.222-0.195,0.334-0.292c0.324-0.281,0.65-0.557,0.978-0.83c0.304-0.252,0.609-0.501,0.915-0.746    c0.068-0.054,0.135-0.109,0.203-0.162c0.361-0.286,0.725-0.568,1.09-0.845c0.354-0.268,0.71-0.531,1.068-0.79    c0.393-0.284,0.787-0.564,1.184-0.837c0.359-0.247,0.721-0.488,1.084-0.726c0.402-0.264,0.805-0.525,1.21-0.777    c0.364-0.226,0.73-0.445,1.096-0.662c0.383-0.227,0.766-0.452,1.151-0.669c0.12-0.068,0.242-0.133,0.362-0.2    c0.273-0.151,0.548-0.299,0.822-0.445c0.362-0.193,0.723-0.385,1.087-0.569c0.178-0.09,0.357-0.177,0.536-0.265    c0.246-0.121,0.493-0.239,0.74-0.356c0.34-0.161,0.679-0.323,1.02-0.477c0.218-0.098,0.436-0.194,0.655-0.289    c0.235-0.102,0.47-0.2,0.706-0.299c0.319-0.134,0.638-0.269,0.958-0.396c0.25-0.1,0.5-0.197,0.75-0.293    c0.225-0.086,0.45-0.166,0.675-0.249c0.304-0.111,0.607-0.224,0.912-0.329c0.278-0.096,0.555-0.192,0.833-0.283    c0.198-0.065,0.397-0.124,0.595-0.187c0.307-0.097,0.614-0.195,0.921-0.286c0.302-0.09,0.605-0.18,0.908-0.264    c0.483-0.134,0.966-0.258,1.45-0.377c0.3-0.074,0.6-0.149,0.901-0.218c0.429-0.098,0.858-0.185,1.287-0.271    c0.066-0.013,0.132-0.028,0.198-0.041c0.289-0.057,0.578-0.116,0.867-0.168c0.389-0.07,0.777-0.128,1.165-0.189    c0.149-0.023,0.299-0.048,0.448-0.07c0.245-0.036,0.489-0.075,0.733-0.107c0.4-0.053,0.8-0.093,1.199-0.135    c0.211-0.023,0.421-0.047,0.632-0.066c0.17-0.016,0.341-0.036,0.511-0.05c0.42-0.035,0.839-0.056,1.258-0.08    c0.363-0.021,0.726-0.045,1.087-0.058c0.439-0.015,0.876-0.016,1.313-0.019c0.365-0.002,0.73-0.007,1.094,0    c0.432,0.008,0.863,0.027,1.293,0.047c0.364,0.017,0.728,0.033,1.09,0.058c0.426,0.03,0.85,0.07,1.274,0.112    c0.004,0,0.008,0.001,0.013,0.001c0.729,0.258,1.501,0.427,2.311,0.479c0.368,0.023,0.73,0.015,1.089-0.008    c0.405,0.073,0.808,0.152,1.21,0.236c0.005,0.001,0.01,0.002,0.015,0.003c0.354,0.075,0.706,0.154,1.058,0.238    c0.396,0.094,0.789,0.193,1.181,0.298c0.008,0.002,0.015,0.004,0.023,0.006c0.349,0.094,0.695,0.195,1.041,0.298    c0.393,0.117,0.784,0.237,1.172,0.366c0.344,0.114,0.685,0.237,1.025,0.361c0.382,0.139,0.764,0.278,1.142,0.429    c0.337,0.134,0.67,0.279,1.003,0.423c0.372,0.16,0.744,0.319,1.11,0.491c0.33,0.155,0.654,0.322,0.979,0.486    c0.359,0.181,0.72,0.36,1.073,0.552c0.061,0.033,0.12,0.071,0.181,0.105c-0.241,16.817-1.781,31.75-4.424,45.077    c-3.922,2.399-9.247,4.999-15.465,7.551c-21.707,8.894-46.357-6.545-48.233-29.419C265.726,139.719,265.796,139.6,265.871,139.487    z M359.441,77.8c0,2.85-8.524,13.71-18.251,23.416c-0.324-0.172-0.657-0.325-0.984-0.491c-0.317-0.16-0.634-0.322-0.953-0.475    c-0.145-0.07-0.287-0.147-0.433-0.216c-0.026-0.012-0.052-0.027-0.078-0.039c-0.39-0.183-0.789-0.345-1.183-0.519    c-0.306-0.134-0.61-0.273-0.918-0.402c-0.229-0.096-0.458-0.193-0.688-0.286c-0.298-0.12-0.601-0.228-0.901-0.343    c-0.081-0.031-0.162-0.062-0.244-0.093c-0.278-0.105-0.553-0.216-0.832-0.317c-0.294-0.106-0.589-0.205-0.885-0.305    c-0.355-0.121-0.713-0.235-1.07-0.349c-0.048-0.015-0.096-0.032-0.143-0.047c-0.205-0.065-0.407-0.137-0.613-0.2    c-0.372-0.113-0.748-0.213-1.122-0.318c-0.045-0.013-0.09-0.028-0.136-0.041l2.609-41.259    C351.791,59.568,359.441,67.21,359.441,77.8z M248.474,26.6v-8.533h17.067V26.6c0,14.136,11.46,25.6,25.6,25.6    c9.237,0,17.377,0.318,24.525,0.933l-2.622,41.451c-0.132,0.001-0.265,0.012-0.397,0.014c-0.494,0.009-0.989,0.024-1.484,0.044    c-0.295,0.012-0.59,0.024-0.885,0.04c-0.255,0.014-0.51,0.025-0.765,0.042c-0.436,0.029-0.872,0.068-1.308,0.106    c-0.36,0.031-0.719,0.064-1.079,0.101c-0.1,0.01-0.2,0.017-0.3,0.028c-0.146,0.016-0.292,0.024-0.438,0.041    c-0.386,0.044-0.773,0.105-1.159,0.155c-0.354,0.047-0.707,0.092-1.06,0.144c-0.301,0.044-0.602,0.085-0.903,0.134    c-0.311,0.05-0.622,0.113-0.933,0.167c-0.035,0.006-0.069,0.013-0.104,0.019c-0.337,0.06-0.674,0.116-1.011,0.181    c-0.363,0.07-0.726,0.144-1.088,0.22c-0.357,0.075-0.713,0.156-1.069,0.237c-0.262,0.059-0.525,0.114-0.787,0.177    c-0.435,0.104-0.868,0.218-1.302,0.33c-0.371,0.096-0.743,0.193-1.113,0.296c-0.172,0.047-0.343,0.09-0.515,0.139    c-0.534,0.152-1.066,0.321-1.599,0.486c-0.354,0.11-0.708,0.215-1.062,0.331c-0.024,0.008-0.049,0.015-0.074,0.023    c-0.061,0.02-0.122,0.037-0.182,0.057c-0.767,0.254-1.53,0.53-2.293,0.812c-0.176,0.065-0.354,0.122-0.53,0.189    c-1.019,0.386-2.033,0.799-3.043,1.233c-0.028,0.012-0.057,0.022-0.085,0.035c-0.262,0.113-0.522,0.24-0.783,0.357    c-0.659,0.294-1.317,0.59-1.97,0.905c-0.115,0.055-0.23,0.111-0.345,0.167c-0.312,0.152-0.621,0.315-0.931,0.472    c-0.512,0.258-1.023,0.517-1.531,0.789c-0.2,0.107-0.399,0.215-0.598,0.324c-0.302,0.165-0.603,0.335-0.904,0.505    c-0.425,0.239-0.848,0.482-1.27,0.73c-0.281,0.166-0.561,0.336-0.841,0.506c-0.277,0.168-0.555,0.334-0.83,0.506    c-0.355,0.222-0.707,0.45-1.059,0.678c-0.342,0.221-0.682,0.448-1.022,0.676c-0.067,0.045-0.135,0.088-0.202,0.133    c-0.195,0.132-0.393,0.255-0.588,0.389c-0.295,0.203-0.585,0.419-0.878,0.626c-0.339,0.24-0.677,0.483-1.013,0.73    c-0.303,0.222-0.609,0.438-0.909,0.666c-0.246,0.185-0.486,0.382-0.73,0.571c-0.327,0.253-0.655,0.507-0.979,0.766    c-0.348,0.278-0.694,0.557-1.038,0.841c-0.263,0.218-0.525,0.44-0.786,0.662c-0.244,0.207-0.487,0.414-0.729,0.624    c-0.398,0.346-0.792,0.7-1.185,1.056c-0.272,0.246-0.545,0.49-0.815,0.741c-0.163,0.152-0.326,0.303-0.488,0.457    c-0.465,0.439-0.921,0.893-1.379,1.346c-0.26,0.258-0.524,0.508-0.782,0.771c-0.085,0.087-0.17,0.174-0.255,0.261    c-0.605,0.622-1.199,1.263-1.79,1.91c-0.189,0.206-0.382,0.404-0.569,0.613c-0.769,0.86-1.527,1.738-2.269,2.64    c-0.742-0.902-1.5-1.78-2.269-2.64c-0.187-0.209-0.38-0.407-0.569-0.613c-0.591-0.647-1.184-1.288-1.79-1.91    c-0.085-0.087-0.169-0.175-0.255-0.261c-0.258-0.262-0.522-0.513-0.782-0.771c-0.457-0.453-0.914-0.907-1.379-1.346    c-0.162-0.153-0.325-0.305-0.488-0.457c-0.27-0.251-0.542-0.495-0.815-0.741c-0.393-0.356-0.787-0.71-1.185-1.056    c-0.242-0.211-0.486-0.417-0.729-0.624c-0.261-0.222-0.523-0.444-0.786-0.662c-0.344-0.285-0.691-0.564-1.038-0.841    c-0.325-0.259-0.652-0.513-0.979-0.766c-0.244-0.189-0.484-0.386-0.73-0.571c-0.301-0.227-0.606-0.443-0.909-0.666    c-0.336-0.247-0.674-0.489-1.013-0.73c-0.293-0.208-0.583-0.423-0.878-0.626c-0.194-0.134-0.393-0.257-0.588-0.389    c-0.067-0.045-0.135-0.088-0.202-0.133c-0.34-0.228-0.68-0.454-1.022-0.676c-0.352-0.228-0.704-0.457-1.059-0.678    c-0.276-0.172-0.553-0.338-0.83-0.506c-0.28-0.17-0.56-0.34-0.841-0.506c-0.422-0.249-0.845-0.491-1.27-0.73    c-0.301-0.17-0.602-0.34-0.904-0.505c-0.199-0.109-0.398-0.217-0.598-0.324c-0.508-0.271-1.019-0.53-1.531-0.789    c-0.311-0.157-0.619-0.32-0.931-0.472c-0.115-0.056-0.23-0.111-0.345-0.167c-0.654-0.315-1.311-0.611-1.97-0.905    c-0.262-0.117-0.521-0.244-0.783-0.357c-0.028-0.012-0.057-0.022-0.085-0.035c-1.009-0.435-2.024-0.848-3.043-1.233    c-0.176-0.067-0.353-0.124-0.529-0.189c-0.763-0.282-1.526-0.558-2.293-0.812c-0.061-0.02-0.122-0.037-0.182-0.057    c-0.025-0.008-0.049-0.015-0.074-0.023c-0.353-0.116-0.707-0.22-1.06-0.33c-0.533-0.165-1.065-0.334-1.599-0.486    c-0.171-0.049-0.343-0.092-0.515-0.139c-0.371-0.103-0.742-0.199-1.113-0.295c-0.434-0.112-0.867-0.227-1.302-0.33    c-0.262-0.063-0.524-0.117-0.787-0.177c-0.356-0.081-0.712-0.162-1.069-0.237c-0.363-0.076-0.725-0.15-1.088-0.22    c-0.337-0.065-0.674-0.122-1.011-0.181c-0.035-0.006-0.069-0.013-0.104-0.019c-0.311-0.055-0.622-0.117-0.933-0.167    c-0.301-0.049-0.602-0.089-0.903-0.134c-0.354-0.052-0.707-0.098-1.06-0.144c-0.386-0.051-0.773-0.111-1.159-0.155    c-0.146-0.017-0.292-0.025-0.438-0.041c-0.1-0.011-0.2-0.018-0.3-0.028c-0.36-0.037-0.719-0.07-1.079-0.101    c-0.436-0.037-0.872-0.077-1.308-0.106c-0.255-0.017-0.51-0.029-0.765-0.042c-0.295-0.016-0.59-0.028-0.885-0.04    c-0.495-0.02-0.99-0.035-1.485-0.044c-0.132-0.002-0.265-0.013-0.397-0.014l-2.622-41.451c7.149-0.615,15.288-0.933,24.525-0.933    C237.013,52.2,248.474,40.736,248.474,26.6z M154.573,77.8c0-10.59,7.65-18.232,26.825-22.283l2.609,41.259    c-0.046,0.013-0.09,0.028-0.136,0.041c-0.374,0.105-0.75,0.205-1.122,0.318c-0.206,0.062-0.408,0.135-0.613,0.2    c-0.048,0.015-0.096,0.031-0.143,0.047c-0.358,0.114-0.715,0.228-1.07,0.349c-0.295,0.101-0.591,0.2-0.885,0.305    c-0.279,0.1-0.555,0.212-0.832,0.317c-0.081,0.031-0.163,0.062-0.244,0.093c-0.3,0.115-0.603,0.223-0.901,0.343    c-0.23,0.093-0.459,0.19-0.688,0.286c-0.308,0.129-0.612,0.267-0.918,0.402c-0.394,0.173-0.793,0.336-1.183,0.519    c-0.026,0.012-0.052,0.027-0.078,0.039c-0.146,0.068-0.288,0.146-0.433,0.216c-0.32,0.154-0.636,0.315-0.953,0.475    c-0.327,0.165-0.66,0.319-0.984,0.491C163.097,91.51,154.573,80.65,154.573,77.8z M191.4,266.594    c9.205-10.365,14.407-23.315,14.407-36.719v-1.374c0-9.593-2.491-18.918-7.297-27.086c-2.993-5.083-5.727-10.988-8.12-17.75    c1.063,0.46,2.15,0.918,3.26,1.374c24.013,9.84,50.213-0.096,63.357-19.805c13.144,19.709,39.343,29.645,63.353,19.807    c1.111-0.456,2.2-0.915,3.264-1.375c-2.392,6.761-5.126,12.665-8.119,17.747c-4.807,8.17-7.299,17.496-7.299,27.088v1.374    c0,13.404,5.202,26.354,14.407,36.719c43.88,49.409,45.92,103.105,21.698,203.206c-0.171-0.028-0.342-0.053-0.512-0.082    c-0.23-0.04-0.459-0.081-0.687-0.125c-0.356-0.068-0.71-0.143-1.063-0.22c-0.217-0.048-0.435-0.095-0.651-0.146    c-0.371-0.088-0.739-0.184-1.106-0.282c-0.193-0.052-0.387-0.1-0.579-0.154c-0.426-0.12-0.847-0.25-1.268-0.384    c-0.129-0.041-0.259-0.078-0.388-0.12c-0.553-0.182-1.101-0.374-1.643-0.579c-0.068-0.026-0.135-0.055-0.203-0.081    c-0.466-0.179-0.93-0.364-1.388-0.56c-0.173-0.074-0.343-0.153-0.515-0.229c-0.351-0.155-0.702-0.312-1.048-0.477    c-0.196-0.093-0.39-0.191-0.584-0.288c-0.317-0.157-0.632-0.316-0.944-0.481c-0.203-0.108-0.405-0.218-0.607-0.329    c-0.299-0.164-0.595-0.332-0.889-0.503c-0.203-0.118-0.405-0.238-0.605-0.359c-0.289-0.175-0.575-0.355-0.859-0.537    c-0.196-0.126-0.393-0.251-0.587-0.38c-0.289-0.192-0.574-0.39-0.858-0.59c-0.181-0.127-0.363-0.252-0.542-0.382    c-0.308-0.224-0.61-0.455-0.912-0.687c-0.148-0.114-0.299-0.224-0.445-0.34c-0.439-0.347-0.871-0.702-1.295-1.067    c-0.098-0.084-0.192-0.173-0.29-0.259c-0.327-0.286-0.651-0.575-0.969-0.872c-0.164-0.154-0.324-0.313-0.485-0.469    c-0.244-0.236-0.488-0.471-0.726-0.713c-0.175-0.178-0.346-0.359-0.518-0.54c-0.218-0.229-0.434-0.459-0.647-0.693    c-0.174-0.191-0.345-0.386-0.515-0.581c-0.203-0.233-0.404-0.467-0.602-0.704c-0.167-0.201-0.333-0.402-0.497-0.606    c-0.193-0.24-0.382-0.484-0.57-0.729c-0.159-0.207-0.318-0.414-0.473-0.625c-0.186-0.253-0.367-0.509-0.547-0.766    c-0.147-0.209-0.295-0.416-0.437-0.628c-0.188-0.279-0.369-0.563-0.55-0.847c-0.125-0.196-0.254-0.389-0.376-0.588    c-0.26-0.422-0.511-0.851-0.755-1.283c-0.101-0.179-0.199-0.36-0.297-0.541c-0.206-0.376-0.409-0.754-0.603-1.137    c-0.103-0.203-0.199-0.411-0.298-0.616c-0.153-0.314-0.305-0.629-0.45-0.948c-0.1-0.22-0.194-0.443-0.29-0.665    c-0.135-0.312-0.269-0.626-0.397-0.942c-0.091-0.226-0.178-0.454-0.266-0.682c-0.123-0.322-0.243-0.645-0.358-0.971    c-0.079-0.225-0.157-0.45-0.233-0.677c-0.114-0.342-0.223-0.686-0.329-1.033c-0.065-0.214-0.131-0.428-0.193-0.643    c-0.109-0.38-0.21-0.763-0.309-1.147c-0.048-0.186-0.098-0.371-0.143-0.558c-0.113-0.47-0.216-0.944-0.314-1.421    c-0.021-0.104-0.046-0.207-0.066-0.312c-0.118-0.601-0.223-1.206-0.315-1.817l-19.268-128.47c-0.727-4.846-4.584-7.268-8.44-7.268    c-3.857-0.001-7.714,2.422-8.44,7.268l-5.788,38.591l-13.486,89.878c-1.17,7.804-4.497,14.812-9.311,20.472    c-7.573,8.901-18.834,14.458-31.242,14.458h-44.509C145.473,369.891,147.442,316.091,191.4,266.594z M205.018,487.403h9.323h0.003    c19.211,0,36.48-9.402,47.101-24.12c5.273-7.305,8.917-15.913,10.334-25.343l10.83-72.206l10.829,72.203    c0.167,1.115,0.377,2.214,0.605,3.305c0.058,0.278,0.121,0.553,0.183,0.829c0.194,0.864,0.407,1.72,0.638,2.568    c0.066,0.243,0.127,0.489,0.197,0.73c0.298,1.039,0.621,2.065,0.974,3.078c0.075,0.216,0.159,0.427,0.237,0.642    c0.292,0.809,0.601,1.608,0.928,2.399c0.125,0.303,0.251,0.604,0.381,0.904c0.357,0.825,0.731,1.639,1.124,2.443    c0.077,0.157,0.147,0.319,0.226,0.475c0.465,0.93,0.96,1.842,1.473,2.741c0.157,0.275,0.32,0.545,0.481,0.817    c0.396,0.67,0.805,1.331,1.227,1.982c0.171,0.264,0.339,0.53,0.514,0.791c0.572,0.854,1.162,1.694,1.777,2.514    c0.112,0.149,0.231,0.292,0.345,0.441c0.527,0.689,1.07,1.365,1.626,2.028c0.212,0.253,0.426,0.502,0.642,0.751    c0.538,0.619,1.088,1.226,1.651,1.821c0.163,0.172,0.32,0.349,0.485,0.519c0.714,0.737,1.448,1.453,2.199,2.15    c0.202,0.188,0.411,0.369,0.616,0.554c0.592,0.535,1.195,1.057,1.808,1.567c0.237,0.197,0.472,0.394,0.712,0.587    c0.809,0.651,1.63,1.288,2.473,1.895c0.025,0.018,0.051,0.034,0.075,0.052c0.826,0.593,1.673,1.158,2.53,1.707    c0.253,0.162,0.509,0.32,0.764,0.478c0.7,0.433,1.409,0.852,2.128,1.256c0.219,0.123,0.434,0.25,0.655,0.371    c0.918,0.5,1.849,0.978,2.795,1.429c0.049,0.023,0.096,0.051,0.146,0.075C287.308,498.518,246.429,500.456,205.018,487.403z"/>
	</g>
</g>
<g>
</g>
<g>
</g>
<g>
</g>
<g>
</g>
<g>
</g>
<g>
</g>
<g>
</g>
<g>
</g>
<g>
</g>
<g>
</g>
<g>
</g>
<g>
</g>
<g>
</g>
<g>
</g>
<g>
</g>
</svg>
