<?xml version="1.0" encoding="iso-8859-1"?>
<!-- Generator: Adobe Illustrator 19.0.0, SVG Export Plug-In . SVG Version: 6.00 Build 0)  -->
<svg xmlns="http://www.w3.org/2000/svg" xmlns:xlink="http://www.w3.org/1999/xlink" version="1.1" id="Layer_1" x="0px" y="0px" viewBox="0 0 511.997 511.997" style="enable-background:new 0 0 511.997 511.997;" xml:space="preserve">
<g transform="translate(-1 -1)">
	<g>
		<path d="M491.339,411.65l-25.126-60.391c4.572-13.289,5.42-27.961,2.115-42.345l-17.001-98.554    c2.525-10.291,2.619-21.265,0.039-32.055L427.468,67.468c-0.001-0.004-0.002-0.008-0.003-0.012l-8.506-42.53    c-0.798-3.989-4.3-6.86-8.368-6.86h-115.45C285.766,7.595,272.15,1,256.991,1s-28.774,6.595-38.15,17.067h-115.45    c-4.068,0-7.57,2.871-8.368,6.86L86.49,67.593c-0.001,0.004-0.001,0.007-0.002,0.011c-0.003,0.016-0.007,0.032-0.01,0.048    l-23.993,112.05c-2.403,10.466-2.345,21.123,0.113,31.111L45.49,310.603c-3.098,13.903-2.319,28.222,2.251,41.183l-26.58,66.356    l-0.315,0.941c-5.8,21.407-2.556,43.982,9.548,61.277c14.197,20.299,37.296,32.637,62.449,32.637    c21.773,0,39.906-7.026,53.33-20.934c13.949,13.641,34.419,20.934,56.836,20.934c21.902,0,40.524-7.089,54.05-20.934    c13.836,13.689,33.831,20.934,56.115,20.934c22.029,0,41.138-7.148,54.77-20.934c13.725,13.74,33.246,20.934,55.395,20.934    c2.31,0,4.616-0.103,6.92-0.306C477.953,508.357,507.92,457.574,491.339,411.65z M403.596,35.133l5.12,25.6H307.47    c0.103-0.614,0.193-1.233,0.274-1.854c0.024-0.18,0.047-0.36,0.069-0.54c0.06-0.5,0.115-1.002,0.161-1.507    c0.036-0.394,0.063-0.789,0.09-1.184c0.024-0.356,0.052-0.711,0.068-1.07c0.037-0.79,0.06-1.583,0.06-2.378    c0-0.8-0.023-1.596-0.06-2.39c-0.019-0.406-0.052-0.809-0.08-1.213c-0.025-0.344-0.047-0.689-0.078-1.031    c-0.054-0.601-0.122-1.196-0.197-1.791c-0.01-0.076-0.019-0.152-0.029-0.229c-0.468-3.602-1.305-7.087-2.481-10.413H403.596z     M256.991,18.067c10.615,0,20.1,4.849,26.361,12.452c0.219,0.417,0.467,0.828,0.767,1.224c3.926,5.198,6.302,11.182,6.87,17.501    c0.018,0.205,0.033,0.411,0.047,0.618c0.019,0.263,0.037,0.525,0.049,0.789c0.023,0.514,0.039,1.029,0.039,1.548    c0,4.71-0.991,9.313-2.887,13.648c-0.002,0.004-0.003,0.008-0.004,0.012c-4.384,9.989-13.188,17.215-23.627,19.609    c-0.07,0.016-0.139,0.033-0.209,0.048c-0.776,0.173-1.561,0.322-2.354,0.441c-0.01,0.001-0.019,0.002-0.029,0.004    c-0.725,0.108-1.459,0.184-2.196,0.245c-0.18,0.015-0.36,0.029-0.54,0.041c-0.756,0.051-1.516,0.085-2.282,0.085    c-0.001,0-0.003,0-0.004,0c-0.769,0-1.532-0.034-2.291-0.085c-0.177-0.012-0.352-0.026-0.528-0.04    c-1.56-0.129-3.097-0.358-4.598-0.693c-0.061-0.013-0.121-0.028-0.181-0.042c-10.455-2.392-19.273-9.629-23.648-19.628    c-0.002-0.005-0.005-0.009-0.007-0.013c-1.891-4.33-2.88-8.928-2.88-13.632c0-0.519,0.016-1.035,0.039-1.548    c0.012-0.264,0.031-0.526,0.049-0.789c0.014-0.206,0.029-0.413,0.047-0.618c0.567-6.319,2.943-12.303,6.87-17.501    c0.299-0.397,0.548-0.807,0.767-1.224C236.891,22.916,246.376,18.067,256.991,18.067z M110.387,35.133h98.33    c-1.176,3.327-2.013,6.812-2.481,10.413c-0.01,0.076-0.019,0.152-0.029,0.229c-0.075,0.594-0.143,1.19-0.197,1.791    c-0.032,0.343-0.054,0.687-0.078,1.031c-0.028,0.404-0.061,0.806-0.08,1.213c-0.038,0.794-0.06,1.59-0.06,2.39    c0,0.795,0.023,1.588,0.06,2.378c0.016,0.358,0.045,0.713,0.068,1.07c0.027,0.395,0.054,0.79,0.09,1.184    c0.045,0.505,0.101,1.006,0.161,1.507c0.022,0.18,0.045,0.361,0.069,0.541c0.081,0.621,0.17,1.24,0.274,1.854H105.267    L110.387,35.133z M79.147,183.398l20.772-97.003l14.505,14.505c3.332,3.332,8.735,3.332,12.068,0    c3.333-3.332,3.333-8.735,0-12.068L115.459,77.8h97.2c6.117,10.569,15.899,18.744,27.613,22.792    c0.039,0.014,0.079,0.027,0.119,0.04c0.936,0.321,1.884,0.615,2.844,0.883c0.114,0.032,0.227,0.066,0.341,0.097    c0.438,0.119,0.879,0.231,1.322,0.338c0.276,0.067,0.553,0.129,0.831,0.192c0.561,0.126,1.124,0.244,1.691,0.351    c0.439,0.084,0.879,0.164,1.322,0.236c0.312,0.051,0.625,0.098,0.938,0.143c0.556,0.08,1.114,0.151,1.675,0.213    c0.19,0.021,0.379,0.045,0.57,0.064c0.703,0.07,1.41,0.121,2.12,0.161c0.21,0.012,0.419,0.022,0.63,0.032    c0.768,0.035,1.538,0.058,2.313,0.059c0.001,0,0.002,0,0.003,0c0,0,0,0,0.001,0c0,0,0.001,0,0.001,0    c0.778,0,1.551-0.024,2.321-0.059c0.206-0.009,0.412-0.019,0.617-0.031c0.724-0.041,1.446-0.093,2.163-0.165    c0.164-0.016,0.326-0.038,0.49-0.056c0.581-0.064,1.159-0.137,1.735-0.221c0.302-0.043,0.604-0.089,0.904-0.137    c0.471-0.077,0.939-0.162,1.406-0.251c0.524-0.1,1.045-0.21,1.564-0.326c0.306-0.069,0.613-0.137,0.917-0.212    c0.426-0.104,0.85-0.211,1.272-0.325c0.154-0.042,0.306-0.087,0.46-0.131c0.907-0.255,1.804-0.533,2.69-0.836    c0.068-0.023,0.136-0.045,0.204-0.069c11.702-4.051,21.473-12.222,27.586-22.783h97.2l-11.033,11.033    c-3.332,3.333-3.332,8.736,0,12.068c3.333,3.332,8.736,3.332,12.068,0l14.527-14.527l20.618,95.625    c1.974,8.205,1.928,16.479,0.057,24.198c-0.171,0.399-0.325,0.816-0.446,1.263c-2.406,8.891-7.083,16.752-13.745,22.892    c-0.013,0.012-0.026,0.025-0.04,0.038c-0.463,0.426-0.936,0.843-1.419,1.252c-0.013,0.011-0.026,0.023-0.039,0.034    c-0.496,0.419-1.001,0.83-1.516,1.231c-10.276,8-23.298,12.477-37.118,12.477c-25.515,0-47.137-11.602-55.179-29.635v-32.381    c0-4.713-3.82-8.533-8.533-8.533s-8.533,3.82-8.533,8.533v32.412c-8.187,18.782-26.557,29.604-51.035,29.604    c-24.568,0-43.202-10.896-51.365-29.617v-32.399c0-4.713-3.82-8.533-8.533-8.533s-8.533,3.82-8.533,8.533v32.393    c-8.062,18.083-29.423,29.623-54.85,29.623c-10.677,0-20.839-2.684-29.577-7.502c-0.532-0.293-1.046-0.614-1.567-0.923    c-0.43-0.255-0.869-0.496-1.291-0.761c-0.404-0.254-0.789-0.53-1.186-0.794c-5.113-3.393-9.64-7.552-13.336-12.383    c-0.11-0.144-0.211-0.294-0.319-0.439c-0.34-0.456-0.674-0.916-0.994-1.384c-0.244-0.357-0.477-0.722-0.709-1.087    c-0.155-0.242-0.31-0.484-0.461-0.729c-0.302-0.496-0.597-0.997-0.879-1.506c-0.025-0.045-0.05-0.09-0.075-0.135    c-1.657-3.017-2.962-6.259-3.912-9.7c-0.085-0.308-0.185-0.601-0.294-0.885C77.353,199.64,77.286,191.504,79.147,183.398z     M62.231,313.897l13.341-77.766c0.063,0.074,0.129,0.146,0.192,0.22c0.26,0.304,0.524,0.605,0.789,0.904    c0.199,0.224,0.397,0.448,0.599,0.67c0.256,0.282,0.515,0.562,0.776,0.84c0.217,0.232,0.435,0.462,0.655,0.69    c0.254,0.264,0.51,0.525,0.768,0.785c0.235,0.237,0.472,0.472,0.71,0.706c0.252,0.246,0.504,0.491,0.759,0.734    c0.251,0.239,0.505,0.476,0.759,0.711c0.251,0.232,0.502,0.463,0.756,0.691c0.268,0.241,0.539,0.478,0.811,0.715    c0.247,0.215,0.494,0.431,0.744,0.643c0.285,0.242,0.574,0.48,0.862,0.717c0.245,0.202,0.49,0.404,0.739,0.603    c0.301,0.241,0.606,0.477,0.911,0.713c0.242,0.188,0.483,0.377,0.728,0.561c0.321,0.243,0.647,0.48,0.972,0.717    c0.234,0.171,0.467,0.344,0.704,0.513c0.347,0.247,0.7,0.488,1.052,0.73c0.221,0.152,0.44,0.306,0.663,0.456    c0.39,0.261,0.785,0.516,1.181,0.77c0.19,0.122,0.377,0.247,0.567,0.367c0.498,0.314,1.001,0.62,1.507,0.922    c0.093,0.056,0.184,0.114,0.277,0.169c0.606,0.359,1.217,0.709,1.833,1.051c0.101,0.056,0.203,0.108,0.305,0.164    c0.511,0.28,1.024,0.557,1.542,0.826c0.216,0.112,0.436,0.219,0.653,0.329c0.406,0.206,0.811,0.412,1.221,0.611    c0.259,0.125,0.521,0.245,0.781,0.367c0.374,0.176,0.747,0.353,1.124,0.523c0.282,0.127,0.567,0.249,0.851,0.373    c0.358,0.156,0.716,0.314,1.077,0.465c0.302,0.127,0.607,0.248,0.911,0.37c0.347,0.14,0.694,0.28,1.043,0.415    c0.318,0.123,0.639,0.241,0.96,0.361c0.338,0.126,0.677,0.251,1.017,0.372c0.333,0.119,0.668,0.233,1.004,0.347    c0.331,0.113,0.663,0.225,0.996,0.333c0.347,0.113,0.695,0.222,1.044,0.33c0.324,0.1,0.649,0.2,0.975,0.296    c0.361,0.107,0.723,0.21,1.085,0.312c0.317,0.089,0.635,0.176,0.954,0.261c0.373,0.099,0.747,0.196,1.123,0.29    c0.311,0.078,0.623,0.153,0.935,0.227c0.386,0.092,0.773,0.182,1.162,0.268c0.302,0.067,0.604,0.131,0.907,0.194    c0.403,0.084,0.806,0.167,1.211,0.245c0.287,0.055,0.574,0.107,0.862,0.159c0.424,0.077,0.848,0.153,1.273,0.223    c0.268,0.044,0.538,0.084,0.807,0.126c0.447,0.069,0.893,0.137,1.342,0.198c0.245,0.033,0.491,0.062,0.736,0.094    c0.475,0.06,0.95,0.12,1.427,0.172c0.209,0.023,0.419,0.041,0.629,0.062c0.516,0.052,1.032,0.103,1.55,0.145    c0.14,0.011,0.282,0.019,0.422,0.03c2.007,0.152,4.03,0.236,6.068,0.236c26.169,0,49.615-10.195,63.206-27.691    c12.897,17.715,34.392,27.691,60.066,27.691c25.628,0,46.933-9.951,59.77-27.691c13.654,17.479,37.285,27.691,63.511,27.691    c17.62,0,34.331-5.745,47.602-16.076c0.897-0.698,1.762-1.423,2.614-2.159c0.145-0.126,0.291-0.252,0.435-0.379    c2.691-2.369,5.158-4.921,7.379-7.637l13.085,75.853l0.099,0.487c2.725,11.688,1.952,23.569-1.928,34.186    c-0.262,0.429-0.5,0.883-0.696,1.38c-3.125,7.918-7.774,14.838-13.817,20.406c-0.011,0.01-0.023,0.02-0.034,0.03    c-0.857,0.788-1.741,1.551-2.654,2.284c-0.688,0.553-1.389,1.09-2.099,1.613c-10.978,8.077-24.487,12.557-38.762,12.557    c-26.748,0-48.671-13.808-57.867-35.818v-23.912c0-4.713-3.82-8.533-8.533-8.533s-8.533,3.82-8.533,8.533v23.912    c-6.237,14.81-19.088,26.11-35.273,31.777c-7.49,2.622-15.691,4.041-24.279,4.041c-27.239,0-50.806-14.223-59.915-35.826v-32.437    c0-4.713-3.82-8.533-8.533-8.533s-8.533,3.82-8.533,8.533v32.454c-6.568,15.738-19.444,27.237-35.955,32.541    c-6.653,2.137-13.894,3.269-21.549,3.269c-20.89,0-40.019-9.642-51.773-25.473c-0.146-0.197-0.276-0.403-0.419-0.602    c-0.452-0.63-0.903-1.261-1.326-1.916c-0.025-0.039-0.048-0.08-0.073-0.119c-1.649-2.572-3.08-5.333-4.295-8.288    c-0.017-0.041-0.041-0.075-0.058-0.115C60.464,337.961,59.562,325.9,62.231,313.897z M428.737,495.693    c-1.785,0.157-3.591,0.238-5.397,0.238c-19.971,0-36.552-6.994-46.882-19.948v-22.716c0-4.713-3.82-8.533-8.533-8.533    s-8.533,3.82-8.533,8.533v22.723c-10.351,13.049-26.423,19.941-46.217,19.941c-20.168,0-37.34-7.108-47.65-19.956v-22.708    c0-4.713-3.82-8.533-8.533-8.533s-8.533,3.82-8.533,8.533v22.731c-10.381,13.169-25.85,19.933-45.449,19.933    c-20.359,0-38.125-7.219-48.418-19.963v-22.701c0-4.713-3.82-8.533-8.533-8.533s-8.533,3.82-8.533,8.533v22.738    c-10.415,13.294-25.283,19.926-44.681,19.926c-19.515,0-37.423-9.566-48.465-25.354c-9.004-12.866-11.536-30.015-7.184-46.565    l21.156-52.815c0.07,0.09,0.144,0.177,0.214,0.266c0.124,0.157,0.251,0.311,0.376,0.468c0.358,0.447,0.718,0.892,1.085,1.331    c0.142,0.169,0.287,0.335,0.43,0.503c0.358,0.42,0.717,0.838,1.083,1.25c0.156,0.175,0.315,0.348,0.472,0.521    c0.36,0.398,0.722,0.794,1.09,1.184c0.169,0.18,0.342,0.356,0.513,0.534c0.362,0.377,0.726,0.753,1.096,1.122    c0.183,0.183,0.368,0.362,0.553,0.543c0.365,0.358,0.732,0.714,1.103,1.064c0.194,0.183,0.39,0.362,0.586,0.543    c0.37,0.342,0.742,0.682,1.118,1.016c0.203,0.18,0.408,0.358,0.613,0.537c0.376,0.327,0.753,0.652,1.134,0.972    c0.211,0.177,0.424,0.352,0.637,0.526c0.383,0.314,0.767,0.625,1.155,0.932c0.219,0.173,0.439,0.343,0.659,0.513    c0.388,0.3,0.778,0.598,1.172,0.891c0.227,0.169,0.455,0.336,0.684,0.502c0.393,0.286,0.789,0.569,1.187,0.849    c0.235,0.165,0.471,0.327,0.708,0.49c0.399,0.273,0.8,0.543,1.204,0.809c0.241,0.159,0.483,0.316,0.726,0.472    c0.406,0.261,0.815,0.519,1.226,0.773c0.246,0.152,0.493,0.303,0.741,0.453c0.413,0.249,0.828,0.494,1.246,0.736    c0.252,0.146,0.504,0.291,0.757,0.434c0.42,0.237,0.843,0.47,1.268,0.7c0.256,0.138,0.512,0.276,0.77,0.412    c0.427,0.225,0.857,0.446,1.288,0.663c0.261,0.132,0.522,0.263,0.784,0.392c0.434,0.213,0.871,0.421,1.309,0.627    c0.263,0.124,0.527,0.247,0.792,0.368c0.443,0.202,0.889,0.399,1.335,0.593c0.266,0.116,0.531,0.232,0.798,0.344    c0.45,0.19,0.903,0.374,1.357,0.557c0.268,0.108,0.536,0.216,0.806,0.321c0.458,0.178,0.92,0.35,1.382,0.521    c0.269,0.099,0.538,0.2,0.809,0.297c0.467,0.167,0.938,0.327,1.409,0.485c0.269,0.091,0.538,0.183,0.808,0.271    c0.477,0.155,0.956,0.303,1.436,0.449c0.269,0.082,0.538,0.166,0.808,0.246c0.486,0.143,0.974,0.278,1.463,0.412    c0.268,0.074,0.536,0.15,0.805,0.221c0.498,0.131,0.999,0.254,1.5,0.376c0.263,0.064,0.526,0.131,0.79,0.193    c0.509,0.119,1.022,0.229,1.534,0.338c0.261,0.056,0.52,0.114,0.781,0.168c0.523,0.106,1.049,0.203,1.575,0.299    c0.253,0.046,0.505,0.096,0.759,0.141c0.547,0.095,1.096,0.18,1.646,0.264c0.235,0.036,0.469,0.076,0.705,0.11    c0.572,0.083,1.146,0.154,1.721,0.225c0.218,0.027,0.435,0.058,0.654,0.083c0.61,0.07,1.222,0.129,1.835,0.187    c0.185,0.017,0.368,0.039,0.554,0.055c0.682,0.059,1.367,0.106,2.053,0.149c0.117,0.007,0.233,0.018,0.351,0.025    c1.617,0.093,3.244,0.142,4.88,0.142c9.598,0,18.745-1.464,27.191-4.228c16.122-5.276,29.689-15.291,38.956-28.906    c14.58,20.559,40.103,33.134,68.338,33.134c9.69,0,19.041-1.483,27.73-4.266c0.259-0.083,0.514-0.174,0.772-0.26    c0.528-0.174,1.057-0.347,1.579-0.531c15.573-5.486,28.863-15.212,37.932-28.078c14.189,20.717,38.507,33.134,66.472,33.134    c17.816,0,34.761-5.584,48.598-15.677c0.073-0.053,0.148-0.102,0.22-0.155c0.019-0.014,0.037-0.029,0.056-0.043    c0.906-0.666,1.799-1.351,2.677-2.056c0.167-0.134,0.327-0.275,0.493-0.411c0.454-0.372,0.907-0.744,1.35-1.126    c0.459-0.395,0.906-0.799,1.354-1.203c0.123-0.112,0.248-0.221,0.37-0.333c3.394-3.113,6.448-6.508,9.135-10.142l19.443,46.713    C488.084,453.25,464.92,492.404,428.737,495.693z"/>
	</g>
</g>
<g>
</g>
<g>
</g>
<g>
</g>
<g>
</g>
<g>
</g>
<g>
</g>
<g>
</g>
<g>
</g>
<g>
</g>
<g>
</g>
<g>
</g>
<g>
</g>
<g>
</g>
<g>
</g>
<g>
</g>
</svg>
