<?xml version="1.0" encoding="iso-8859-1"?>
<!-- Generator: Adobe Illustrator 19.0.0, SVG Export Plug-In . SVG Version: 6.00 Build 0)  -->
<svg xmlns="http://www.w3.org/2000/svg" xmlns:xlink="http://www.w3.org/1999/xlink" version="1.1" id="Layer_1" x="0px" y="0px" viewBox="0 0 512.014 512.014" style="enable-background:new 0 0 512.014 512.014;" xml:space="preserve">
<g transform="translate(0 -1)">
	<g>
		<path d="M395.335,375.716c-1.762-5.514-9.853-29.162-11.752-34.959c-7.725-23.576-12.675-42.777-15.059-60.974    c-0.011-0.138-0.004-0.274-0.022-0.413c-0.759-5.802-1.242-11.363-1.445-16.73c-0.006-0.169-0.012-0.337-0.018-0.506    c-0.06-1.727-0.094-3.437-0.094-5.124c0-0.581,0.014-1.176,0.026-1.769c0.005-0.265,0.005-0.524,0.013-0.792    c0.015-0.515,0.042-1.042,0.066-1.565c0.018-0.399,0.033-0.796,0.057-1.201c0.029-0.498,0.066-1.004,0.102-1.509    c0.032-0.444,0.064-0.888,0.102-1.338c0.042-0.502,0.09-1.009,0.14-1.517c0.045-0.46,0.092-0.921,0.142-1.387    c0.057-0.524,0.117-1.051,0.181-1.581c0.054-0.446,0.112-0.896,0.172-1.347c0.075-0.573,0.151-1.146,0.235-1.726    c0.053-0.367,0.111-0.74,0.167-1.11c0.104-0.685,0.207-1.37,0.323-2.065c0.012-0.075,0.026-0.151,0.039-0.226    c1.459-8.731,3.789-18.252,6.869-28.371c0.042-0.138,0.073-0.275,0.108-0.412c1.113-3.636,2.305-7.314,3.588-11.029    c2.736-7.922,5.67-15.515,8.602-22.499c1.024-2.439,1.973-4.623,2.821-6.52c0.502-1.122,0.855-1.889,1.032-2.266    c1.303-2.768,1.024-6.021-0.731-8.527c-7.254-10.362-13.244-41.167-15.547-72.531c-0.462-6.298-0.038-14.775,1.143-24.801    c0.729-6.191,1.723-12.784,2.916-19.577c0.938-5.344,1.944-10.503,2.949-15.279c0.601-2.854,1.065-4.934,1.324-6.043    c1.061-4.539-1.717-9.091-6.24-10.221L343.41,1.269c-0.026-0.007-0.052-0.008-0.078-0.015c-0.248-0.06-0.499-0.103-0.752-0.141    c-0.093-0.014-0.186-0.031-0.279-0.042c-0.249-0.029-0.499-0.042-0.751-0.049c-0.099-0.003-0.198-0.006-0.297-0.005    c-0.24,0.002-0.479,0.016-0.719,0.038c-0.112,0.011-0.223,0.024-0.334,0.039c-0.224,0.03-0.447,0.066-0.67,0.115    c-0.139,0.03-0.274,0.07-0.411,0.107c-0.193,0.053-0.385,0.102-0.576,0.169c-0.326,0.114-0.644,0.244-0.952,0.396    c-0.042,0.021-0.082,0.048-0.123,0.069c-0.301,0.154-0.59,0.327-0.869,0.514c-0.031,0.021-0.063,0.034-0.094,0.055    c-0.963,0.663-2.973,1.93-5.924,3.603c-5.011,2.839-10.756,5.688-17.128,8.352c-18.167,7.593-37.6,12.14-57.44,12.14    c-19.843,0-39.278-4.547-57.443-12.14c-6.371-2.663-12.116-5.513-17.126-8.351c-2.951-1.672-4.961-2.939-5.923-3.602    c-0.047-0.032-0.096-0.054-0.143-0.085c-0.212-0.141-0.433-0.267-0.657-0.389c-0.217-0.118-0.436-0.223-0.658-0.32    c-0.185-0.081-0.369-0.165-0.561-0.233c-0.222-0.079-0.446-0.138-0.67-0.197c-0.107-0.028-0.212-0.059-0.32-0.083    c-0.238-0.053-0.475-0.091-0.714-0.123c-0.1-0.013-0.2-0.026-0.301-0.035c-0.245-0.023-0.488-0.037-0.732-0.039    c-0.101-0.001-0.202,0.003-0.304,0.005c-0.245,0.007-0.488,0.02-0.731,0.048c-0.11,0.013-0.221,0.033-0.332,0.05    c-0.232,0.036-0.462,0.074-0.689,0.129c-0.035,0.008-0.07,0.011-0.105,0.02l-34.133,8.533c-4.523,1.131-7.301,5.682-6.24,10.221    c0.259,1.109,0.724,3.189,1.324,6.043c1.005,4.775,2.011,9.935,2.949,15.279c1.193,6.793,2.187,13.386,2.916,19.577    c1.181,10.026,1.605,18.502,1.143,24.801c-2.303,31.364-8.293,62.169-15.547,72.531c-1.754,2.506-2.033,5.759-0.731,8.527    c0.177,0.377,0.53,1.144,1.032,2.266c0.849,1.897,1.797,4.082,2.821,6.52c2.932,6.984,5.866,14.576,8.602,22.499    c4.047,11.719,7.294,23.116,9.452,33.756c1.886,9.304,2.881,17.774,2.881,25.192c0,4.809-0.237,9.759-0.702,14.855    c-0.724,7.937-1.948,15.979-3.679,24.406c-0.075,0.246-0.163,0.486-0.216,0.741c-1.526,7.33-3.234,14.32-5.334,21.813    c-0.143,0.51-0.286,1.02-0.433,1.534c-0.207,0.727-0.419,1.461-0.633,2.199c-0.245,0.842-0.494,1.69-0.747,2.543    c-1.758,5.911-3.773,12.243-6.134,19.358c-2.955,8.795-9.019,26.568-10.517,31.253c-3.885,12.153-5.738,20.079-5.738,26.365    c0,3.398,2.016,6.472,5.133,7.826c0.87,0.378,2.555,1.134,4.938,2.241c4.002,1.86,8.469,4.018,13.283,6.449    c13.749,6.943,27.495,14.658,40.283,22.917c32.934,21.27,53.49,42.356,55.644,59.976c0.124,1.011,0.185,2.007,0.185,2.99    c0,4.713,3.821,8.533,8.533,8.533h34.133c4.713,0,8.533-3.82,8.533-8.533c0-0.983,0.062-1.979,0.185-2.99    c2.154-17.62,22.71-38.706,55.644-59.976c12.789-8.259,26.534-15.974,40.283-22.917c4.814-2.431,9.281-4.59,13.283-6.449    c2.383-1.107,4.068-1.863,4.938-2.241c3.117-1.354,5.133-4.428,5.133-7.826C401.074,395.795,399.22,387.869,395.335,375.716z     M352.078,233.882c-0.164,0.945-0.323,1.886-0.469,2.817c-0.082,0.519-0.156,1.033-0.232,1.548    c-0.118,0.799-0.231,1.595-0.336,2.383c-0.071,0.534-0.137,1.065-0.201,1.594c-0.095,0.783-0.183,1.56-0.264,2.332    c-0.052,0.494-0.103,0.988-0.15,1.478c-0.079,0.837-0.146,1.665-0.208,2.489c-0.03,0.405-0.064,0.813-0.091,1.215    c-0.065,0.998-0.115,1.982-0.154,2.959c-0.009,0.221-0.023,0.446-0.031,0.665c-0.043,1.233-0.069,2.452-0.069,3.651    c0,1.504,0.026,3.021,0.067,4.545c0.001,0.02,0.002,0.04,0.002,0.06c0.106,3.868,0.338,7.799,0.703,11.8    c0.069,0.758,0.152,1.517,0.23,2.276c-55.981,29.346-152.343,63.372-206.992,72.683c0.308-0.921,0.569-1.708,0.766-2.308    c1.358-4.146,2.626-8.154,3.823-12.068c0.071-0.232,0.14-0.46,0.21-0.691c0.375-1.233,0.746-2.461,1.105-3.673    c0.253-0.853,0.501-1.699,0.745-2.537c0.266-0.915,0.525-1.823,0.782-2.727c0.122-0.431,0.244-0.862,0.364-1.29    c1.631-5.815,3.07-11.414,4.317-16.854c44.577-8.302,129.488-44.753,197.992-81.975c-0.313,1.401-0.611,2.795-0.892,4.178    c-0.295,1.456-0.566,2.892-0.822,4.316C352.205,233.129,352.144,233.504,352.078,233.882z M297.28,117.841    c-0.514-25.301,11.917-50.698,33.037-61.383c-1.594,9.587-3.963,18.626-7.32,27.169    C317.109,98.612,308.703,110.146,297.28,117.841z M191.986,30.22c20.112,8.407,41.711,13.46,64.025,13.46    c22.31,0,43.908-5.053,64.021-13.46c4.604-1.924,8.918-3.94,12.915-5.991c0,0.032,0,0.065-0.001,0.097    c-0.065,4.401-0.231,8.624-0.517,12.87c-35.93,11.274-55.637,51.044-51.767,88.432c-4.564,1.391-9.469,2.363-14.73,2.898    c-0.016,0.002-0.031,0.004-0.047,0.005c-0.966,0.098-1.948,0.177-2.938,0.245c-0.105,0.007-0.208,0.017-0.314,0.024    c-0.951,0.062-1.916,0.107-2.889,0.141c-0.132,0.005-0.26,0.014-0.392,0.018c-1.099,0.035-2.212,0.053-3.34,0.053    c-1.132,0-2.25-0.018-3.353-0.054c-0.093-0.003-0.184-0.009-0.277-0.013c-1.016-0.035-2.021-0.082-3.013-0.148    c-0.067-0.004-0.133-0.011-0.2-0.015c-6.439-0.437-12.369-1.498-17.808-3.155c3.869-37.385-15.844-77.158-51.775-88.433    c-0.291-4.315-0.457-8.606-0.518-12.97C183.065,26.278,187.381,28.295,191.986,30.22z M189.017,83.627    c-3.357-8.543-5.726-17.582-7.32-27.169c21.124,10.686,33.56,36.087,33.045,61.389C203.315,110.151,194.906,98.615,189.017,83.627    z M139.875,168.961c-0.797-1.899-1.553-3.656-2.258-5.259c8.234-15.605,13.662-45.334,15.967-76.73    c0.556-7.576,0.083-17.036-1.214-28.046c-0.77-6.537-1.811-13.441-3.056-20.532c-0.856-4.878-1.766-9.602-2.682-14.04    l15.334-3.833c-0.008,25.755,2.946,48.426,11.167,69.348c12.737,32.415,36.465,52.531,72.43,55.747    c0.239,0.022,0.481,0.038,0.721,0.058c1.282,0.106,2.58,0.191,3.893,0.254c0.366,0.018,0.73,0.038,1.097,0.052    c1.559,0.06,3.131,0.101,4.733,0.101c1.599,0,3.169-0.041,4.725-0.101c0.38-0.015,0.757-0.036,1.135-0.054    c1.291-0.063,2.566-0.146,3.827-0.25c0.261-0.022,0.524-0.04,0.784-0.064c35.95-3.223,59.669-23.337,72.403-55.745    c7.938-20.203,10.957-42.047,11.148-66.714c0.003-0.281,0.004-0.563,0.006-0.845c0.003-0.597,0.013-1.188,0.013-1.789    l15.334,3.833c-0.917,4.439-1.826,9.162-2.682,14.04c-1.245,7.091-2.286,13.995-3.056,20.532    c-1.297,11.01-1.77,20.47-1.214,28.046c2.305,31.396,7.733,61.125,15.967,76.73c-0.705,1.602-1.461,3.36-2.258,5.259    c-3.068,7.308-6.134,15.24-8.998,23.535c-1.018,2.947-1.985,5.876-2.904,8.786c-65.904,37.232-153.576,76.021-200.708,86.788    c0.778-4.932,1.397-9.799,1.839-14.65c0.511-5.599,0.772-11.065,0.772-16.405c0-8.668-1.124-18.238-3.221-28.582    c-2.322-11.452-5.77-23.553-10.046-35.936C146.009,184.201,142.943,176.269,139.875,168.961z M370.027,403.363    c-14.251,7.196-28.505,15.197-41.85,23.815c-35.258,22.77-58.096,45.563-62.764,68.769h-18.813    c-4.668-23.207-27.506-45.999-62.764-68.769c-13.344-8.618-27.599-16.619-41.85-23.815c-4.829-2.438-9.327-4.616-13.389-6.508    c0.733-3.906,2.16-9.127,4.338-15.943c0.738-2.31,2.681-8.075,4.802-14.342c53.41-7.079,154.362-41.879,215.679-72.987    c2.885,15.939,7.499,32.803,13.949,52.487c1.954,5.963,10.017,29.532,11.714,34.842c2.179,6.816,3.605,12.037,4.338,15.943    C379.355,398.748,374.857,400.925,370.027,403.363z"/>
	</g>
</g>
<g>
</g>
<g>
</g>
<g>
</g>
<g>
</g>
<g>
</g>
<g>
</g>
<g>
</g>
<g>
</g>
<g>
</g>
<g>
</g>
<g>
</g>
<g>
</g>
<g>
</g>
<g>
</g>
<g>
</g>
</svg>
