<?xml version="1.0" encoding="iso-8859-1"?>
<!-- Generator: Adobe Illustrator 19.0.0, SVG Export Plug-In . SVG Version: 6.00 Build 0)  -->
<svg xmlns="http://www.w3.org/2000/svg" xmlns:xlink="http://www.w3.org/1999/xlink" version="1.1" id="Layer_1" x="0px" y="0px" viewBox="0 0 512 512" style="enable-background:new 0 0 512 512;" xml:space="preserve">
<g>
	<g>
		<path d="M383.561,398.37l-34.133-102.4c-0.017-0.051-0.034-0.102-0.051-0.145c-11.853-33.527-7.996-59.162-2.671-74.76    c2.876-8.405,8.226-16.503,16.87-25.489c29.047-30.225,19.669-78.302,11.494-104.269c-0.034-0.111-0.111-0.188-0.145-0.29    c-0.034-0.085-0.009-0.171-0.043-0.247c-12.638-32.444-16.486-51.661-16.486-82.236c0-4.71-3.823-8.533-8.533-8.533    c-4.71,0-8.533,3.823-8.533,8.533c0,28.954,3.413,49.169,13.5,77.312c-45.935,2.483-79.189,19.072-98.833,49.809    c-19.644-30.737-52.89-47.326-98.833-49.809c10.095-28.143,13.5-48.358,13.5-77.312c0-4.71-3.823-8.533-8.533-8.533    c-4.71,0-8.533,3.823-8.533,8.533c0,30.575-3.849,49.792-16.478,82.236c-0.034,0.077-0.017,0.162-0.043,0.247    c-0.043,0.102-0.111,0.179-0.145,0.29c-8.183,25.967-17.562,74.044,11.494,104.269c8.636,8.986,13.995,17.084,16.862,25.489    c5.325,15.599,9.19,41.233-2.714,74.906l-34.133,102.4c-1.468,4.403,0.853,9.173,5.222,10.735    c0.802,0.282,80.299,29.32,105.813,97.357c1.246,3.328,4.429,5.538,7.987,5.538h17.067c3.558,0,6.741-2.21,7.996-5.538    c25.438-67.849,105.011-97.075,105.813-97.365C382.699,407.535,385.029,402.765,383.561,398.37z M258.752,494.933h-5.513    c-25.062-59.255-84.608-89.515-106.078-98.782l31.548-94.643c13.491-38.144,8.934-67.797,2.731-85.956    c-3.703-10.854-10.291-20.958-20.719-31.804c-21.001-21.845-15.753-58.121-9.318-81.254c48.589,1.451,81.143,19.806,96.819,54.613    c1.374,3.063,4.42,5.026,7.774,5.026c3.362,0,6.409-1.963,7.782-5.026c15.676-34.807,48.23-53.163,96.811-54.613    c6.434,23.134,11.691,59.409-9.318,81.254c-10.428,10.846-17.007,20.949-20.71,31.804c-6.204,18.15-10.761,47.77,2.697,85.888    l31.573,94.711C343.369,405.419,283.823,435.678,258.752,494.933z"/>
	</g>
</g>
<g>
</g>
<g>
</g>
<g>
</g>
<g>
</g>
<g>
</g>
<g>
</g>
<g>
</g>
<g>
</g>
<g>
</g>
<g>
</g>
<g>
</g>
<g>
</g>
<g>
</g>
<g>
</g>
<g>
</g>
</svg>
