<svg width="117" height="113" viewBox="0 0 117 113" fill="none" xmlns="http://www.w3.org/2000/svg">
<path d="M113.098 52.2777L106.339 58.8067C105.91 59.2208 105.669 59.7821 105.669 60.3674C105.669 65.0427 103.784 69.4382 100.361 72.744L64.255 107.618C62.915 108.911 60.735 108.912 59.3952 107.618C58.7462 106.991 58.3886 106.157 58.3886 105.271C58.3886 104.499 58.66 103.768 59.1582 103.178L80.0666 82.9834C80.9589 82.1215 80.9589 80.724 80.0666 79.8619C80.0645 79.8597 80.062 79.8581 80.0597 79.8559C80.0577 79.8537 80.0558 79.8515 80.0535 79.8493C79.161 78.9879 77.7142 78.9879 76.8217 79.8493L51.6102 104.225C50.9612 104.852 50.0981 105.198 49.1804 105.198C48.2627 105.198 47.3996 104.852 46.7506 104.225C45.4954 103.013 45.4163 101.089 46.5127 99.7863L71.9884 75.1806C72.8807 74.3187 72.8807 72.9212 71.9884 72.0591C71.096 71.1974 69.6491 71.1974 68.7565 72.0591L39.1002 100.703C38.4512 101.33 37.5881 101.675 36.6704 101.675C35.7524 101.675 34.8896 101.33 34.2404 100.703C33.5914 100.076 33.234 99.2425 33.234 98.3559C33.234 97.4693 33.5914 96.6357 34.2404 96.0089L63.9172 67.3708C64.8096 66.5089 64.8096 65.1113 63.9172 64.2492C63.0247 63.3878 61.578 63.3878 60.6856 64.2492L34.1949 89.8102C32.8464 90.8685 30.8545 90.7924 29.5995 89.5802C28.9502 88.9534 28.5929 88.1198 28.5929 87.2332C28.5929 86.3466 28.9505 85.5132 29.5995 84.8864L38.27 76.5117C39.1623 75.6498 39.1623 74.2523 38.2697 73.3902C37.3774 72.5285 35.9304 72.5285 35.0381 73.3902L30.6026 77.6744L21.7925 69.1649C16.246 63.8078 12.2669 57.102 10.2852 49.7722C10.1826 49.3925 9.97718 49.0465 9.69017 48.769L3.90099 43.1775C3.00842 42.3161 1.56169 42.3159 0.669346 43.1775C-0.223001 44.0394 -0.22323 45.4369 0.669346 46.299L6.02549 51.4723C8.2631 59.332 12.5886 66.5179 18.5606 72.2864L27.371 80.7959L26.3678 81.7649C24.8555 83.2253 24.0226 85.1673 24.0226 87.233C24.0226 89.2986 24.8555 91.2406 26.3678 92.7013C27.3198 93.6208 28.4544 94.2582 29.6596 94.6168C29.0103 95.7484 28.6635 97.0259 28.6635 98.3557C28.6635 100.421 29.4962 102.363 31.0085 103.824C32.5208 105.284 34.5315 106.089 36.6701 106.089C38.4903 106.089 40.2165 105.505 41.623 104.431C42.0069 105.496 42.6385 106.496 43.5185 107.347C45.0308 108.807 47.0415 109.612 49.1801 109.612C51.0604 109.612 52.8414 108.99 54.2719 107.847C54.6643 108.922 55.3036 109.909 56.1633 110.739C57.7243 112.246 59.7745 113 61.8247 113C63.8752 113 65.9254 112.246 67.4864 110.739L70.41 107.915L72.4545 109.89C74.0155 111.397 76.0657 112.151 78.116 112.151C80.1662 112.151 82.2167 111.397 83.7776 109.89C85.0509 108.66 85.84 107.089 86.0584 105.39C86.5075 105.464 86.9613 105.503 87.4158 105.503C89.4663 105.503 91.5165 104.749 93.0775 103.242C94.5898 101.781 95.4227 99.8391 95.4227 97.7735C95.4227 97.7441 95.4209 97.7152 95.4204 97.6858C95.4494 97.686 95.4782 97.6878 95.5073 97.6878C97.5577 97.6878 99.608 96.9341 101.169 95.4266C102.681 93.966 103.514 92.0239 103.514 89.9583C103.514 89.5838 103.486 89.2136 103.432 88.8492C105.249 88.6649 106.933 87.8933 108.242 86.6282C109.755 85.1678 110.588 83.2257 110.588 81.1601C110.588 79.0945 109.755 77.1524 108.242 75.6918L105.825 73.3571C108.5 69.8613 110.03 65.698 110.219 61.3012L116.33 55.3994C117.222 54.5375 117.222 53.14 116.329 52.2781C115.438 51.416 113.991 51.416 113.098 52.2777V52.2777ZM80.5464 106.768C79.2064 108.062 77.0264 108.062 75.6866 106.768L73.6638 104.815L78.5236 100.121L79.6811 101.238L80.5469 102.075C81.1957 102.701 81.5531 103.535 81.5531 104.421C81.5528 105.308 81.1952 106.142 80.5464 106.768V106.768ZM90.8527 97.7735C90.8527 98.66 90.4953 99.4937 89.8461 100.12C88.5063 101.414 86.3263 101.415 84.9862 100.12L83.7788 98.9543C83.7785 98.9538 83.7783 98.9536 83.7779 98.9534L81.7551 96.9996L86.6146 92.3058L89.8458 95.4266C90.4953 96.0535 90.8527 96.8869 90.8527 97.7735V97.7735ZM97.9375 92.3051C96.5975 93.5989 94.4172 93.5991 93.0777 92.3051L89.8465 89.1843L94.7063 84.4904L97.9375 87.6113C98.5865 88.2381 98.9439 89.0715 98.9439 89.9581C98.9441 90.8449 98.5865 91.6783 97.9375 92.3051ZM105.011 83.5067C104.362 84.1337 103.499 84.4789 102.581 84.4789C101.664 84.4789 100.801 84.1337 100.151 83.5067L97.9382 81.3691L102.798 76.6753L105.011 78.8128C105.66 79.4397 106.018 80.2731 106.018 81.1599C106.018 82.0465 105.66 82.8799 105.011 83.5067Z" fill="#1C262B"/>
<path d="M27.1152 29.3104C27.5437 29.7242 28.125 29.9569 28.731 29.9569H40.5251C49.0514 29.9569 57.3919 32.816 64.0102 38.0077L82.5788 52.5731C78.0384 55.6357 71.9414 56.0544 66.9667 53.452L54.3319 46.8439C53.796 46.5636 53.1658 46.5016 52.5819 46.6724C44.6018 49.0042 36.1586 49.0256 28.1654 46.7329L27.9413 46.6689C26.7311 46.3224 25.4596 46.9887 25.1008 48.1574C24.7421 49.326 25.4322 50.5543 26.6422 50.9008L26.8657 50.9648C35.4093 53.4149 44.4176 53.4785 52.9816 51.1575L56.2743 52.8797L49.5756 59.3496C48.6833 60.2115 48.6833 61.609 49.5758 62.4711C50.0221 62.9019 50.6069 63.1176 51.1917 63.1176C51.7764 63.1176 52.3614 62.9019 52.8075 62.4711L60.4673 55.0727L64.7908 57.3338C67.6582 58.8336 70.7989 59.601 74.0054 59.601C74.9462 59.601 75.8931 59.5348 76.8401 59.4019C81.0139 58.815 84.7963 56.9823 87.7788 54.1015C88.2363 53.6595 88.4783 53.051 88.4449 52.4268C88.4114 51.8028 88.1058 51.2215 87.6033 50.8275L69.1606 36.361C74.6596 33.0724 80.9417 31.3156 87.4441 31.273C88.0446 31.269 88.6198 31.0368 89.0443 30.6265L116.331 4.2723C117.223 3.41042 117.223 2.01288 116.331 1.15079C115.438 0.289352 113.991 0.289352 113.099 1.15079L86.4646 26.8757C78.9145 27.0969 71.6574 29.3658 65.392 33.46C58.2212 28.3428 49.4643 25.5426 40.5253 25.5426H29.6777L3.90113 0.646241C3.00879 -0.215414 1.56184 -0.215414 0.669261 0.646241C-0.223087 1.50812 -0.223087 2.90566 0.669261 3.76776L27.1152 29.3104Z" fill="#1C262B"/>
<path d="M42.303 66.3719C41.878 66.7825 41.6357 67.3519 41.6357 67.9324C41.6357 68.5151 41.878 69.0823 42.303 69.4926C42.7303 69.9031 43.3199 70.1395 43.9209 70.1395C44.5219 70.1395 45.1092 69.9033 45.5365 69.4926C45.9615 69.0823 46.2061 68.5148 46.2061 67.9324C46.2061 67.3519 45.9615 66.7825 45.5365 66.3719C45.1115 65.9614 44.5219 65.7253 43.9209 65.7253C43.3178 65.7253 42.7303 65.9614 42.303 66.3719Z" fill="#1C262B"/>
</svg>
