<?xml version="1.0"?>
<svg xmlns="http://www.w3.org/2000/svg" id="Layer_1" enable-background="new 0 0 512 512" height="512px" viewBox="0 0 512 512" width="512px" class=""><g transform="matrix(0.9801 0 0 0.9801 5.0944 5.0944)"><g><path d="m174 240h-108c-36.393 0-66-29.607-66-66v-108c0-36.393 29.607-66 66-66h108c36.393 0 66 29.607 66 66v108c0 36.393-29.607 66-66 66zm-108-208c-18.748 0-34 15.252-34 34v108c0 18.748 15.252 34 34 34h108c18.748 0 34-15.252 34-34v-108c0-18.748-15.252-34-34-34z" data-original="#000000" class="active-path" data-old_color="#000000" fill="#F4D242"/><path d="m446 240h-108c-36.393 0-66-29.607-66-66v-108c0-36.393 29.607-66 66-66h108c36.393 0 66 29.607 66 66v108c0 36.393-29.607 66-66 66zm-108-208c-18.748 0-34 15.252-34 34v108c0 18.748 15.252 34 34 34h108c18.748 0 34-15.252 34-34v-108c0-18.748-15.252-34-34-34z" data-original="#000000" class="active-path" data-old_color="#000000" fill="#F4D242"/><path d="m392 512c-66.168 0-120-53.832-120-120s53.832-120 120-120 120 53.832 120 120-53.832 120-120 120zm0-208c-48.523 0-88 39.477-88 88s39.477 88 88 88 88-39.477 88-88-39.477-88-88-88z" data-original="#000000" class="active-path" data-old_color="#000000" fill="#F4D242"/><path d="m174 512h-108c-36.393 0-66-29.607-66-66v-108c0-36.393 29.607-66 66-66h108c36.393 0 66 29.607 66 66v108c0 36.393-29.607 66-66 66zm-108-208c-18.748 0-34 15.252-34 34v108c0 18.748 15.252 34 34 34h108c18.748 0 34-15.252 34-34v-108c0-18.748-15.252-34-34-34z" data-original="#000000" class="active-path" data-old_color="#000000" fill="#F4D242"/></g></g> </svg>
