<svg width="115" height="115" viewBox="0 0 115 115" fill="none" xmlns="http://www.w3.org/2000/svg">
<path d="M65.6413 76.8068C63.9726 74.0448 62.2108 71.4451 59.7594 69.2964C57.4036 67.2311 51.7734 63.5715 49.5071 67.7733C47.4374 71.6092 53.7396 75.854 55.9094 78.1905C58.8908 81.4017 60.6955 85.1244 62.2117 89.1753C63.8638 93.5912 68.1928 95.002 72.1059 96.784C73.7589 97.5368 75.0785 98.9529 75.7163 100.652C76.9701 104.005 80.7043 105.705 84.0568 104.451L98.91 98.8915C102.846 97.4192 104.842 93.0349 103.37 89.099C102.385 86.3045 104.789 83.7355 103.791 81.0657L95.0539 56.9674C92.921 51.2688 85.1412 55.4294 87.1767 60.8683L88.4612 64.3015L84.4463 53.572C82.3318 47.9216 74.882 52.2831 76.8833 57.6307L79.74 65.2631L75.0776 52.806C73.207 47.8067 64.9236 50.28 66.8425 55.4074L71.2417 67.1644L61.909 42.2274C59.9655 37.0333 51.9041 40.1015 53.8414 45.278L65.6413 76.8068Z" fill="#FFD4BE"/>
<path d="M112.731 8.08575H27.7727C24.858 8.08575 24.8537 12.6262 27.7727 12.6262H110.46V41.5887H64.0947C63.291 39.4198 61.5494 37.7501 59.2278 37.3623C56.142 36.8464 52.7694 38.6178 51.6569 41.5887H4.54046V12.6262H9.48101C12.3957 12.6262 12.4001 8.08575 9.48101 8.08575H2.26979C1.01601 8.08575 0 9.10176 0 10.3555V43.8584C0 45.1122 1.01601 46.1291 2.26979 46.1291H51.7367L59.1664 65.9825C57.1817 64.6419 54.2741 63.1758 51.5428 63.6689C49.8029 63.983 48.4079 65.0288 47.5095 66.695C45.0159 71.317 49.7959 75.6443 52.6527 78.2291C56.2263 81.464 58.4118 85.4982 60.085 89.9711C61.881 94.7686 66.0925 96.6164 69.8082 98.2475C70.2627 98.4466 70.7171 98.6458 71.1655 98.8502C72.2771 99.3556 73.1607 100.303 73.5897 101.448C74.4092 103.637 76.0323 105.376 78.1591 106.345C80.2631 107.303 82.6873 107.387 84.8527 106.576L99.7059 101.018C102.177 100.093 104.14 98.2606 105.234 95.8601C106.324 93.4666 106.42 90.7932 105.505 88.3286C105.265 87.6294 105.455 86.838 105.782 85.6096C106.177 84.1295 106.667 82.2878 105.921 80.2813L97.1887 56.1936C97.1861 56.1866 97.1826 56.1795 97.1799 56.1716C95.6594 52.1076 92.0139 51.361 89.2712 52.3866C88.4271 52.7033 87.6375 53.185 86.954 53.7974C86.3126 52.0822 85.5792 50.4107 83.9393 49.4307C82.453 48.5428 80.6412 48.4445 79.0268 49.0271C78.081 49.3684 77.2186 49.9247 76.4991 50.6257C75.5313 49.1736 74.038 48.2076 72.2341 47.9058C70.346 47.5908 68.4 48.0444 66.8996 49.0859L65.7933 46.1291H112.73C113.984 46.1291 115 45.1122 115 43.8593V10.3555C115 9.10176 113.984 8.08575 112.731 8.08575V8.08575ZM86.3355 65.0973C87.3567 67.8277 91.6103 66.2396 90.5873 63.5057L89.2984 60.0611C88.4438 57.7518 91.8235 54.8354 92.9237 57.7527L101.656 81.8395C101.659 81.8465 101.662 81.8535 101.664 81.8614C101.897 82.4817 101.713 83.2451 101.395 84.4401C100.997 85.9334 100.502 87.7908 101.228 89.8535C101.233 89.8667 101.238 89.8807 101.243 89.8948C101.743 91.2301 101.693 92.6805 101.102 93.9781C100.511 95.2758 99.4497 96.2654 98.1143 96.7656L83.2611 102.325C81.1089 103.129 78.6452 102.004 77.8415 99.8557C77.3467 98.5344 76.5395 97.3359 75.5103 96.3716C74.3785 95.3117 73.0352 94.7055 71.6323 94.0895C68.321 92.6366 65.4607 91.3811 64.3377 88.3795C62.4118 83.2337 59.8051 78.5791 55.699 74.8634C53.8301 73.171 50.7014 70.3396 51.5051 68.8507C52.7545 66.5327 57.1616 70.0378 58.2627 71.0038C60.5412 72.9999 62.2214 75.5373 63.6972 77.9808C65.0826 80.2734 68.7053 78.5195 67.7665 76.011L55.9674 44.4823C55.0865 42.1291 58.9146 40.7016 59.7832 43.0232L69.115 67.9602C70.1372 70.6897 74.3908 69.1025 73.3677 66.3686L68.9676 54.6117C68.0938 52.2769 72.1666 51.504 72.951 53.6018L77.6134 66.0589C78.6347 68.7884 82.8882 67.2012 81.8652 64.4673L79.0093 56.8349C78.2135 54.7099 81.2501 51.511 82.3188 54.3677L86.3355 65.0973Z" fill="#1C262B"/>
<path d="M19.0133 25.3711C19.0133 26.7064 19.7529 27.9058 20.9243 28.5454C21.5358 28.8797 22.1798 29.1447 22.7966 29.4667C23.2441 29.701 24.1337 30.1256 23.8846 30.7801C23.6942 31.2794 22.9124 31.3083 22.4728 31.2443C21.7744 31.1425 21.3875 30.6617 20.8339 30.2949C19.9258 29.6966 18.9905 30.3897 18.7747 31.3539C18.565 32.2892 19.273 32.9797 20.0232 33.4C21.7288 34.3528 24.2829 34.3871 25.8271 33.092C27.5275 31.6672 27.3923 28.6112 25.6086 27.3022C24.9602 26.8266 24.2346 26.4125 23.4853 26.1186C23.0519 25.9484 22.2982 25.7791 22.1333 25.2702C21.8113 24.2743 23.5468 24.6428 24.0021 24.7429C25.0971 24.985 26.1649 25.5544 26.6466 24.055C27.2695 22.1125 24.6496 21.7413 23.3169 21.7413C22.157 21.7413 21.148 22.0379 20.3189 22.6222C19.452 23.2329 19.0133 24.1576 19.0133 25.3711Z" fill="#1C262B"/>
<path d="M30.8445 22.0107C29.9663 21.4483 28.2554 21.7607 28.2554 22.9083V29.9852C28.2554 31.3522 28.6528 32.3787 29.4381 33.0359C30.2883 33.7492 31.4087 34.0045 32.4975 34.0045C33.5846 34.0045 34.698 33.7448 35.5482 33.0368C36.3387 32.3796 36.7397 31.3531 36.7397 29.9852V22.9083C36.7397 21.443 33.6434 21.436 33.6434 22.9083V29.9852C33.6434 30.7424 33.2775 31.203 32.4975 31.203C31.7175 31.203 31.3517 30.7433 31.3517 29.9852C31.3517 29.9852 31.3517 22.9706 31.3517 22.9083C31.3517 22.5029 31.1481 22.2046 30.8445 22.0107Z" fill="#1C262B"/>
<path d="M46.4629 24.9499C46.4629 23.5286 45.8662 21.8344 43.0253 21.8344H39.8518C39.199 21.8344 38.4585 22.1827 38.4585 22.9232V32.8376C38.4585 33.5623 39.2245 33.9107 39.8518 33.9107H43.2885C44.3247 33.9107 45.167 33.6088 45.7917 33.0148C46.4216 32.4147 46.7419 31.4742 46.7419 30.2186C46.7419 29.4755 46.7305 28.6744 46.2734 28.0471C46.0795 27.7795 45.8259 27.5505 45.5171 27.3636C46.1453 26.853 46.4629 26.0449 46.4629 24.9499ZM43.1709 25.9186C43.0446 26.066 42.8779 26.1256 42.6524 26.1599C42.5611 26.1739 41.539 26.1467 41.539 26.1212V24.6358H42.8244C43.3833 24.6358 43.4771 25.3509 43.2797 25.7501C43.2464 25.8168 43.2104 25.8721 43.1709 25.9186ZM43.6447 29.7668C43.6447 30.4397 43.5543 31.11 42.7471 31.11H41.539V28.6727H42.7471C43.1911 28.6727 43.6447 28.8025 43.6447 29.7668Z" fill="#1C262B"/>
<path d="M52.4551 31.053C51.9278 31.3557 51.2206 31.3329 50.6898 31.0521C50.1888 30.788 49.8291 30.3002 49.2833 30.1124C48.1515 29.7238 47.2767 31.2583 47.64 32.2068C47.847 32.7481 48.3463 33.1263 48.835 33.4C50.5397 34.3528 53.0938 34.3871 54.6389 33.092C56.3392 31.6672 56.2041 28.6112 54.4204 27.3022C53.8115 26.8565 53.1447 26.4932 52.4577 26.1844C52.0322 25.9931 51.0425 25.7562 50.9293 25.2105C50.7257 24.227 52.4226 24.6279 52.8876 24.7394C53.9598 24.9947 54.9846 25.5299 55.4584 24.055C56.0813 22.1125 53.4614 21.7413 52.1287 21.7413C50.9688 21.7413 49.9598 22.037 49.1307 22.6222C48.2647 23.2329 47.8251 24.1576 47.8251 25.3711C47.8251 26.7064 48.5647 27.9058 49.736 28.5454C50.452 28.9368 51.2285 29.2237 51.9251 29.6448C52.3384 29.8949 53.214 30.6196 52.4551 31.053Z" fill="#1C262B"/>
<path d="M61.1399 24.6358C61.8427 24.6358 62.1524 24.957 62.1778 25.7194C62.2208 26.3871 62.8087 26.6977 63.4167 26.7574C63.8755 26.8021 64.4388 26.7828 64.8222 26.4915C65.1943 26.2081 65.2741 25.7177 65.2741 25.2772C65.2741 24.2024 64.8609 23.3452 64.0475 22.7293C63.2623 22.1353 62.2524 21.8344 61.0477 21.8344C59.8642 21.8344 58.8859 22.1607 58.1383 22.8056C57.3776 23.4628 56.9907 24.4884 56.9907 25.8536V29.9844C56.9907 31.3496 57.3776 32.3752 58.1383 33.0324C59.7062 34.3853 62.4577 34.3344 64.0545 33.0561C64.8635 32.4095 65.2741 31.5172 65.2741 30.4055C65.2741 29.9651 65.1943 29.4737 64.8222 29.1912C64.4476 28.9069 63.8992 28.8841 63.45 28.9219C62.8358 28.9745 62.2366 29.279 62.1796 29.9519C62.0488 31.5031 60.0879 31.6619 60.0879 29.9844V25.8536C60.087 24.7806 60.6196 24.6358 61.1399 24.6358V24.6358Z" fill="#1C262B"/>
<path d="M75.0272 25.5115C75.0272 22.4722 72.7714 21.8344 70.878 21.8344H67.6738C67.0824 21.8344 66.5894 22.3134 66.5894 22.9083V32.8227C66.5894 34.3055 69.6865 34.3064 69.6865 32.8227V29.4062H70.1586L72.1853 33.3676C72.545 34.0677 73.397 34.1344 74.0506 33.8203C74.6622 33.5264 75.4738 32.6692 74.9929 31.9427L73.2891 28.8341C74.4428 28.2393 75.0272 27.1232 75.0272 25.5115V25.5115ZM71.9309 25.7448C71.9309 26.4547 71.6115 26.8539 70.878 26.8539H69.6856V24.6358H70.878C71.6115 24.6358 71.9309 25.0342 71.9309 25.7448Z" fill="#1C262B"/>
<path d="M77.9539 33.9107C78.618 33.9107 79.5016 33.6159 79.5016 32.8218V22.9083C79.5016 21.4413 76.4053 21.4404 76.4053 22.9083V32.8218C76.4053 33.6159 77.2888 33.9107 77.9539 33.9107V33.9107Z" fill="#1C262B"/>
<path d="M89.271 24.9499C89.271 23.5286 88.6744 21.8344 85.8334 21.8344H82.6599C82.0071 21.8344 81.2666 22.1827 81.2666 22.9232V32.8376C81.2666 33.5623 82.0326 33.9107 82.6599 33.9107H86.0966C87.1328 33.9107 87.9751 33.6088 88.5998 33.0148C89.2297 32.4147 89.55 31.4742 89.55 30.2186C89.55 29.4755 89.5386 28.6744 89.0815 28.0471C88.8876 27.7795 88.634 27.5505 88.3252 27.3636C88.9534 26.853 89.271 26.0449 89.271 24.9499ZM86.0071 25.9423C85.9176 26.0668 85.8018 26.1212 85.6325 26.1212H84.3471V24.6358H85.6325C86.2466 24.6358 86.28 25.5667 86.0071 25.9423ZM86.4528 29.7668C86.4528 30.4397 86.3624 31.11 85.5553 31.11H84.3471V28.6727H85.5553C85.9992 28.6727 86.4528 28.8025 86.4528 29.7668Z" fill="#1C262B"/>
<path d="M97.8024 24.6358C99.2369 24.6358 99.2465 21.8344 97.8024 21.8344H92.2906C91.6379 21.8344 90.8965 22.1827 90.8965 22.9232V32.8218C90.8965 33.5632 91.6379 33.9107 92.2906 33.9107H97.8024C99.2474 33.9107 99.2369 31.11 97.8024 31.11H93.9936V29.1403H95.9748C97.3988 29.1403 97.3891 26.5889 95.9748 26.5889H93.9936V24.6358H97.8024Z" fill="#1C262B"/>
<path d="M73.1886 76.24C73.6588 77.385 75.0126 77.9413 76.1532 77.4684C77.2965 76.9955 77.8554 75.6461 77.3816 74.5037C76.9087 73.3605 75.5584 72.8042 74.4169 73.2754C73.2754 73.7465 72.7139 75.0994 73.1886 76.24V76.24Z" fill="#1C262B"/>
<path d="M16.6834 11.2241C17.159 12.3656 18.504 12.9245 19.6481 12.4516C20.7913 11.9796 21.3502 10.6293 20.8764 9.48692C20.4018 8.34457 19.055 7.7848 17.9118 8.25859C16.7712 8.7315 16.2079 10.0827 16.6834 11.2241Z" fill="#1C262B"/>
</svg>
