<svg height="480pt" viewBox="0 0 480.00374 480" width="480pt" xmlns="http://www.w3.org/2000/svg"><path d="m379.125 239.984375c0-76.816406-62.246094-139.089844-139.03125-139.089844-76.789062 0-139.035156 62.273438-139.035156 139.089844 0 76.820313 62.246094 139.09375 139.035156 139.09375 76.785156 0 139.03125-62.273437 139.03125-139.09375zm0 0" fill="#ffdf74"/><path d="m287.941406 359.390625c-2.335937 0-4.558594-1.375-5.53125-3.660156-1.289062-3.050781.132813-6.574219 3.183594-7.867188 43.453125-18.417969 71.53125-60.761719 71.53125-107.878906 0-3.3125 2.683594-6 6-6 3.3125 0 6 2.6875 6 6 0 51.945313-30.949219 98.628906-78.847656 118.929687-.761719.324219-1.558594.476563-2.335938.476563zm0 0" fill="#fce575"/><path d="m183.398438 239.984375c0-62.363281 41.238281-115.265625 97.867187-132.863281-13.019531-4.046875-26.84375-6.226563-41.171875-6.226563-76.664062 0-139.035156 62.394531-139.035156 139.089844 0 76.699219 62.371094 139.09375 139.035156 139.09375 14.328125 0 28.15625-2.183594 41.171875-6.226563-56.628906-17.597656-97.867187-70.503906-97.867187-132.867187zm0 0" fill="#ffd551"/><path d="m100.460938 365.09375-29.800782 29.8125c-4.164062 4.164062-4.382812 11.210938-.023437 15.164062 1.941406 1.757813 4.390625 2.640626 6.84375 2.640626 2.609375 0 5.21875-.996094 7.210937-2.988282l30.191406-30.203125c3.90625-3.910156 3.8125-10.210937-.097656-14.121093-.066406-.066407-.132812-.132813-.199218-.199219-3.90625-3.917969-10.210938-4.019531-14.125-.105469zm0 0" fill="#ffd551"/><path d="m159.0625 409.136719-16.070312 38.828125c-2.101563 5.085937-.144532 11.179687 4.816406 13.558594 1.433594.683593 2.933594 1.007812 4.410156 1.007812 4.003906 0 7.800781-2.375 9.425781-6.304688l16.257813-39.289062c2.121094-5.121094-.394532-10.914062-5.523438-13.019531-.085937-.035157-.167968-.070313-.253906-.105469-5.105469-2.105469-10.949219.21875-13.0625 5.324219zm0 0" fill="#ffd551"/><g fill="#ffdf74"><path d="m240.09375 417.328125c-.042969 0-.078125 0-.121094 0-5.539062-.003906-10.078125 4.375-10.078125 9.914063v42.121093c0 5.328125 3.894531 10.082031 9.195313 10.589844 6.082031.582031 11.199218-4.1875 11.199218-10.152344v-42.558593c0-5.539063-4.539062-9.917969-10.078124-9.914063-.039063 0-.078126 0-.117188 0zm0 0"/><path d="m308.078125 403.789062c-.085937.035157-.167969.070313-.253906.105469-5.125 2.101563-7.636719 7.898438-5.519531 13.015625l16.269531 39.320313c1.625 3.929687 5.421875 6.300781 9.421875 6.300781 1.484375 0 2.996094-.324219 4.4375-1.019531 4.949218-2.382813 6.890625-8.46875 4.792968-13.542969l-16.082031-38.859375c-2.109375-5.105469-7.957031-7.429687-13.066406-5.320313zm0 0"/><path d="m365.511719 365.273438c-.066407.066406-.132813.128906-.199219.195312-3.914062 3.910156-4.015625 10.214844-.101562 14.128906l30.097656 30.109375c1.992187 1.992188 4.601562 2.988281 7.210937 2.988281 2.453125 0 4.90625-.878906 6.84375-2.636718 4.359375-3.953125 4.136719-11.003906-.023437-15.167969l-29.710938-29.71875c-3.910156-3.914063-10.210937-3.816406-14.117187.101563zm0 0"/><path d="m455.800781 318.394531-38.863281-16.113281c-5.121094-2.121094-10.910156.394531-13.019531 5.519531-.035157.085938-.066407.167969-.105469.253907-2.105469 5.109374.210938 10.960937 5.316406 13.074218l39.285156 16.289063c1.277344.53125 2.597657.78125 3.898438.78125 4.273438 0 8.3125-2.707031 9.726562-7.121094 1.640626-5.125-1.273437-10.625-6.238281-12.683594zm0 0"/><path d="m469.367188 229.808594h-42.085938c-5.539062 0-9.914062 4.542968-9.910156 10.082031v.101563.136718c-.007813 5.542969 4.371094 10.082032 9.910156 10.082032h42.527344c5.960937 0 10.726562-5.117188 10.148437-11.203126-.507812-5.300781-5.265625-9.199218-10.589843-9.199218zm0 0"/><path d="m462.097656 149.148438c-1.792968-5.84375-8.148437-8.746094-13.660156-6.464844l-39.269531 16.261718c-5.101563 2.113282-7.421875 7.957032-5.316407 13.070313.035157.085937.066407.167969.105469.253906 2.101563 5.128907 7.894531 7.648438 13.011719 5.527344l38.863281-16.097656c4.917969-2.039063 7.824219-7.457031 6.265625-12.550781zm0 0"/><path d="m379.648438 114.820312 29.679687-29.691406c3.90625-3.90625 4.480469-10.328125.785156-14.433594-3.945312-4.375-10.6875-4.507812-14.800781-.398437l-30.082031 30.097656c-3.914063 3.910157-3.8125 10.214844.101562 14.125.066407.066407.132813.132813.199219.199219 3.90625 3.917969 10.207031 4.015625 14.117188.101562zm0 0"/><path d="m321.191406 70.886719 16.164063-39.015625c1.859375-4.492188.511719-9.839844-3.519531-12.5625-5.546876-3.746094-12.789063-1.355469-15.214844 4.496094l-16.269532 39.269531c-2.121093 5.121093.390626 10.914062 5.515626 13.023437.085937.035156.171874.070313.257812.105469 5.105469 2.109375 10.953125-.210937 13.066406-5.316406zm0 0"/><path d="m240.09375 62.644531h.117188c5.539062.003907 10.078124-4.375 10.078124-9.917969v-42.085937c0-5.328125-3.894531-10.085937-9.195312-10.5898438-6.082031-.5820312-11.199219 4.1874998-11.199219 10.1523438v42.523437c0 5.542969 4.539063 9.921876 10.078125 9.917969zm0 0"/></g><path d="m62.816406 239.992188c0-.03125 0-.066407 0-.101563.003906-5.539063-4.371094-10.082031-9.914062-10.082031h-42.265625c-5.328125 0-10.082031 3.898437-10.589844 9.203125-.578125 6.082031 4.1875 11.199219 10.148437 11.199219h42.707032c5.539062 0 9.914062-4.539063 9.910156-10.082032.003906-.042968.003906-.089844.003906-.136718zm0 0" fill="#ffd551"/><path d="m63.25 302.28125-38.824219 16.097656c-4.96875 2.058594-7.878906 7.558594-6.238281 12.683594 1.414062 4.414062 5.449219 7.117188 9.722656 7.117188 1.300782 0 2.625-.25 3.898438-.78125l39.25-16.269532c5.101562-2.117187 7.421875-7.96875 5.3125-13.074218-.035156-.085938-.070313-.171876-.105469-.257813-2.105469-5.121094-7.898437-7.636719-13.015625-5.515625zm0 0" fill="#ffd551"/><path d="m172.097656 76.1875c.085938-.035156.171875-.070312.257813-.105469 5.125-2.105469 7.636719-7.898437 5.515625-13.023437l-16.097656-38.863282c-2.039063-4.921874-7.457032-7.828124-12.550782-6.261718-5.839844 1.792968-8.742187 8.160156-6.457031 13.667968l16.265625 39.265626c2.117188 5.105468 7.960938 7.425781 13.066406 5.320312zm0 0" fill="#ffd551"/><path d="m114.570312 114.800781c.066407-.066406.132813-.128906.199219-.195312 3.910157-3.910157 4.003907-10.210938.09375-14.121094l-29.984375-29.996094c-3.441406-3.441406-8.898437-4.234375-12.953125-1.542969-5.578125 3.703126-6.128906 11.304688-1.65625 15.777344l30.175781 30.1875c3.914063 3.917969 10.21875 3.816406 14.125-.109375zm0 0" fill="#ffd551"/><path d="m76.347656 171.988281c2.105469-5.109375-.214844-10.957031-5.320312-13.070312l-39.238282-16.253907c-5.503906-2.285156-11.875.625-13.660156 6.46875-1.558594 5.097657 1.351563 10.515626 6.273438 12.554688l38.824218 16.078125c5.121094 2.121094 10.910157-.394531 13.015626-5.523437.035156-.085938.070312-.167969.105468-.253907zm0 0" fill="#ffd551"/><path d="m242.246094 469.363281v-42.121093c0-3.269532 1.589844-6.125 4.023437-7.925782-1.691406-1.25-3.789062-1.992187-6.058593-1.988281-.042969 0-.082032 0-.117188 0-.042969 0-.078125 0-.121094 0-5.539062-.003906-10.078125 4.375-10.078125 9.914063v42.121093c0 5.324219 3.894531 10.082031 9.195313 10.589844 2.730468.261719 5.261718-.566406 7.226562-2.085937-2.5-1.976563-4.070312-5.125-4.070312-8.503907zm0 0" fill="#ffd551"/><path d="m242.246094 52.726562v-42.523437c0-3.285156 1.558594-6.207031 3.972656-8.070313-1.4375-1.140624-3.183594-1.898437-5.121094-2.0820308-6.082031-.5820312-11.199218 4.1874998-11.199218 10.1523438v42.523437c0 5.542969 4.539062 9.921876 10.078124 9.917969h.117188.117188c2.269531 0 4.367187-.742187 6.058593-1.992187-2.4375-1.796875-4.023437-4.652344-4.023437-7.925782zm0 0" fill="#ffd551"/><path d="m299.265625 141.722656c0 9.941406-8.0625 18-18 18-9.941406 0-18-8.058594-18-18s8.058594-18 18-18c9.9375 0 18 8.058594 18 18zm0 0" fill="#ffd551"/></svg>