<svg height="48px" viewBox="0 0 512 512.001" width="48px" xmlns="http://www.w3.org/2000/svg"><path d="m512 256c0 141.386719-114.613281 256-256 256-141.382812 0-256-114.613281-256-256s114.617188-256 256-256c141.386719 0 256 114.613281 256 256zm0 0" fill="#e1e1e3"/><path d="m512 256c0-.886719-.023438-1.769531-.035156-2.65625l-163.332032-163.199219c-23.003906-24.988281-55.988281-40.644531-92.632812-40.644531-55.878906 0-103.25 36.40625-119.707031 86.792969-50.382813 16.457031-86.792969 63.824219-86.792969 119.707031 0 36.644531 15.65625 69.628906 40.644531 92.632812l163.203125 163.335938c.886719.007812 1.765625.03125 2.652344.03125 141.386719 0 256-114.613281 256-256zm0 0" fill="#c8c6cc"/><path d="m462.5 256c0 69.539062-56.371094 125.910156-125.910156 125.910156-69.539063 0-125.910156-56.371094-125.910156-125.910156s56.371093-125.910156 125.910156-125.910156c69.539062 0 125.910156 56.371094 125.910156 125.910156zm0 0" fill="#ffaa20"/><path d="m301.320312 256c0 69.539062-56.371093 125.910156-125.910156 125.910156-69.539062 0-125.910156-56.371094-125.910156-125.910156s56.371094-125.910156 125.910156-125.910156c69.539063 0 125.910156 56.371094 125.910156 125.910156zm0 0" fill="#9331b2"/><path d="m381.910156 175.410156c0 69.539063-56.371094 125.910156-125.910156 125.910156s-125.910156-56.371093-125.910156-125.910156c0-69.539062 56.371094-125.910156 125.910156-125.910156s125.910156 56.371094 125.910156 125.910156zm0 0" fill="#ff53a1"/><path d="m381.910156 175.410156c0 30.660156-10.949218 58.761719-29.167968 80.589844-23.089844 27.699219-57.863282 45.320312-96.742188 45.320312v-251.820312c69.539062 0 125.910156 56.371094 125.910156 125.910156zm0 0" fill="#ff127f"/><path d="m381.910156 336.589844c0 69.539062-56.371094 125.910156-125.910156 125.910156s-125.910156-56.371094-125.910156-125.910156c0-69.539063 56.371094-125.910156 125.910156-125.910156s125.910156 56.371093 125.910156 125.910156zm0 0" fill="#00efd1"/><path d="m381.910156 336.589844c0 69.539062-56.371094 125.910156-125.910156 125.910156v-251.820312c38.878906 0 73.652344 17.621093 96.742188 45.320312 18.21875 21.828125 29.167968 49.929688 29.167968 80.589844zm0 0" fill="#00ceb4"/><path d="m256 301.320312c38.882812 0 73.640625-17.625 96.738281-45.320312-23.097656-27.695312-57.855469-45.320312-96.738281-45.320312-38.878906 0-73.640625 17.625-96.738281 45.320312 23.097656 27.695312 57.859375 45.320312 96.738281 45.320312zm0 0" fill="#fff"/><path d="m352.742188 256c-23.101563 27.691406-57.863282 45.320312-96.742188 45.320312v-90.640624c38.878906 0 73.640625 17.628906 96.742188 45.320312zm0 0" fill="#fff5cb"/><path d="m290.871094 256c0 19.257812-15.613282 34.871094-34.871094 34.871094s-34.871094-15.613282-34.871094-34.871094 15.613282-34.871094 34.871094-34.871094 34.871094 15.613282 34.871094 34.871094zm0 0" fill="#ca80de"/><path d="m290.871094 256c0 19.261719-15.609375 34.871094-34.871094 34.871094v-69.742188c19.261719 0 34.871094 15.609375 34.871094 34.871094zm0 0" fill="#b857cf"/><path d="m275.371094 256c0 10.699219-8.671875 19.371094-19.371094 19.371094s-19.371094-8.671875-19.371094-19.371094 8.671875-19.371094 19.371094-19.371094 19.371094 8.671875 19.371094 19.371094zm0 0" fill="#9331b2"/><path d="m275.371094 256c0 10.699219-8.671875 19.371094-19.371094 19.371094v-38.742188c10.699219 0 19.371094 8.671875 19.371094 19.371094zm0 0" fill="#681f7b"/><path d="m256 159.261719c17.964844 14.984375 31.691406 34.878906 39.117188 57.621093 22.742187 7.425782 42.636718 21.148438 57.621093 39.117188 18.210938-21.835938 29.171875-49.933594 29.171875-80.589844 0-13.65625-2.183594-26.804687-6.203125-39.117187-12.316406-4.019531-25.460937-6.203125-39.117187-6.203125-30.65625 0-58.753906 10.960937-80.589844 29.171875zm0 0" fill="#c50a5b"/><path d="m159.261719 256c14.984375-17.964844 34.878906-31.6875 57.621093-39.117188 7.425782-22.742187 21.152344-42.636718 39.117188-57.621093-21.835938-18.210938-49.929688-29.171875-80.589844-29.171875-13.65625 0-26.800781 2.183594-39.117187 6.203125-4.019531 12.3125-6.203125 25.460937-6.203125 39.117187 0 30.65625 10.960937 58.753906 29.171875 80.589844zm0 0" fill="#681f7b"/><path d="m295.117188 216.882812c-7.425782-22.742187-21.148438-42.636718-39.117188-57.621093-17.964844 14.984375-31.6875 34.878906-39.117188 57.621093 12.316407-4.019531 25.460938-6.203124 39.117188-6.203124s26.800781 2.183593 39.117188 6.203124zm0 0" fill="#b10853"/><path d="m295.121094 216.878906c-12.320313-4.019531-25.460938-6.199218-39.121094-6.199218v-51.417969c17.96875 14.988281 31.691406 34.878906 39.121094 57.617187zm0 0" fill="#a00647"/><path d="m352.738281 256c-14.984375 17.964844-34.878906 31.6875-57.621093 39.117188-7.425782 22.742187-21.148438 42.636718-39.117188 57.621093 21.835938 18.210938 49.933594 29.171875 80.589844 29.171875 13.65625 0 26.800781-2.183594 39.117187-6.203125 4.019531-12.316406 6.203125-25.460937 6.203125-39.117187 0-30.65625-10.960937-58.753906-29.171875-80.589844zm0 0" fill="#e67500"/><path d="m256 352.738281c-17.964844-14.984375-31.6875-34.878906-39.117188-57.621093-22.742187-7.425782-42.636718-21.152344-57.621093-39.117188-18.210938 21.835938-29.171875 49.933594-29.171875 80.589844 0 13.65625 2.183594 26.800781 6.203125 39.117187 12.316406 4.019531 25.460937 6.203125 39.117187 6.203125 30.660156 0 58.753906-10.960937 80.589844-29.171875zm0 0" fill="#00ad95"/><path d="m216.882812 295.117188c7.425782 22.742187 21.152344 42.636718 39.117188 57.621093 17.964844-14.984375 31.691406-34.878906 39.117188-57.621093-12.3125 4.019531-25.460938 6.203124-39.117188 6.203124s-26.800781-2.183593-39.117188-6.203124zm0 0" fill="#008878"/><path d="m295.121094 295.121094c-7.429688 22.738281-21.152344 42.628906-39.121094 57.617187v-51.417969c13.660156 0 26.800781-2.179687 39.121094-6.199218zm0 0" fill="#005455"/></svg>