<?xml version="1.0" encoding="iso-8859-1"?>
<!-- Generator: Adobe Illustrator 19.0.0, SVG Export Plug-In . SVG Version: 6.00 Build 0)  -->
<svg xmlns="http://www.w3.org/2000/svg" xmlns:xlink="http://www.w3.org/1999/xlink" version="1.1" id="Layer_1" x="0px" y="0px" viewBox="0 0 512.003 512.003" style="enable-background:new 0 0 512.003 512.003;" xml:space="preserve">
<g transform="translate(-1 -1)">
	<g>
		<path d="M400.965,139.171c-0.003-0.034-0.005-0.068-0.008-0.102c-0.122-1.378-0.255-2.744-0.395-4.101    c-0.009-0.087-0.017-0.176-0.026-0.263c-0.136-1.308-0.282-2.605-0.435-3.895c-0.016-0.135-0.03-0.271-0.046-0.406    c-0.15-1.252-0.309-2.493-0.474-3.727c-0.022-0.168-0.043-0.337-0.066-0.504c-0.163-1.202-0.335-2.394-0.512-3.581    c-0.029-0.195-0.056-0.393-0.086-0.588c-0.175-1.156-0.359-2.302-0.547-3.443c-0.036-0.221-0.071-0.444-0.108-0.665    c-0.187-1.117-0.383-2.224-0.583-3.327c-0.043-0.238-0.085-0.479-0.128-0.717c-0.199-1.08-0.406-2.152-0.617-3.22    c-0.05-0.255-0.099-0.512-0.15-0.767c-0.209-1.043-0.427-2.079-0.647-3.11c-0.059-0.274-0.116-0.55-0.175-0.824    c-0.219-1.008-0.446-2.008-0.676-3.005c-0.067-0.29-0.132-0.582-0.2-0.871c-0.229-0.977-0.465-1.946-0.704-2.913    c-0.075-0.302-0.148-0.606-0.224-0.907c-0.238-0.947-0.483-1.887-0.731-2.824c-0.083-0.316-0.166-0.633-0.251-0.948    c-0.246-0.917-0.499-1.828-0.755-2.736c-0.092-0.328-0.184-0.656-0.277-0.983c-0.254-0.889-0.514-1.772-0.777-2.652    c-0.102-0.34-0.202-0.681-0.305-1.02c-0.262-0.862-0.529-1.719-0.799-2.574c-0.11-0.349-0.22-0.699-0.332-1.047    c-0.269-0.839-0.543-1.673-0.82-2.504c-0.119-0.358-0.238-0.716-0.359-1.073c-0.275-0.813-0.555-1.622-0.838-2.429    c-0.129-0.369-0.259-0.739-0.39-1.106c-0.281-0.789-0.566-1.575-0.854-2.358c-0.139-0.378-0.279-0.756-0.419-1.133    c-0.287-0.767-0.577-1.531-0.87-2.292c-0.149-0.386-0.298-0.771-0.448-1.155c-0.292-0.747-0.588-1.491-0.886-2.232    c-0.159-0.394-0.318-0.787-0.478-1.179c-0.297-0.728-0.598-1.453-0.902-2.176c-0.167-0.397-0.334-0.794-0.503-1.19    c-0.303-0.712-0.609-1.421-0.918-2.128c-0.176-0.403-0.354-0.806-0.532-1.208c-0.308-0.694-0.618-1.385-0.931-2.074    c-0.186-0.409-0.373-0.817-0.56-1.224c-0.312-0.678-0.627-1.354-0.944-2.028c-0.194-0.412-0.389-0.823-0.585-1.233    c-0.319-0.667-0.639-1.333-0.963-1.996c-0.086-0.177-0.17-0.356-0.257-0.533V9.533c0-4.713-3.82-8.533-8.533-8.533h-76.8h-68.267    h-76.8c-4.713,0-8.533,3.82-8.533,8.533v40.669c-0.087,0.177-0.171,0.356-0.257,0.534c-0.323,0.661-0.642,1.325-0.96,1.991    c-0.198,0.415-0.396,0.831-0.592,1.247c-0.312,0.663-0.621,1.328-0.929,1.994c-0.196,0.426-0.392,0.853-0.586,1.281    c-0.301,0.662-0.599,1.327-0.894,1.993c-0.194,0.438-0.388,0.877-0.58,1.316c-0.29,0.663-0.577,1.328-0.861,1.995    c-0.192,0.449-0.382,0.899-0.571,1.351c-0.277,0.661-0.553,1.325-0.825,1.991c-0.191,0.466-0.38,0.934-0.569,1.402    c-0.264,0.656-0.525,1.313-0.784,1.973c-0.191,0.486-0.379,0.974-0.567,1.462c-0.25,0.651-0.499,1.304-0.745,1.96    c-0.188,0.501-0.373,1.005-0.558,1.508c-0.238,0.65-0.475,1.301-0.709,1.955c-0.186,0.52-0.369,1.043-0.552,1.565    c-0.225,0.644-0.448,1.289-0.669,1.937c-0.184,0.541-0.365,1.086-0.546,1.63c-0.212,0.638-0.422,1.276-0.629,1.919    c-0.181,0.563-0.36,1.128-0.538,1.694c-0.199,0.633-0.397,1.266-0.591,1.903c-0.178,0.584-0.353,1.172-0.527,1.76    c-0.186,0.625-0.371,1.251-0.552,1.881c-0.175,0.61-0.347,1.223-0.518,1.837c-0.173,0.618-0.345,1.237-0.513,1.859    c-0.171,0.632-0.338,1.268-0.504,1.904c-0.161,0.614-0.322,1.228-0.478,1.846c-0.165,0.65-0.325,1.304-0.485,1.959    c-0.15,0.615-0.301,1.23-0.448,1.849c-0.158,0.669-0.311,1.343-0.464,2.016c-0.139,0.613-0.28,1.226-0.415,1.843    c-0.151,0.688-0.296,1.381-0.442,2.075c-0.129,0.614-0.26,1.226-0.385,1.844c-0.143,0.707-0.281,1.42-0.419,2.132    c-0.119,0.614-0.239,1.227-0.354,1.845c-0.134,0.722-0.263,1.451-0.391,2.179c-0.11,0.62-0.221,1.238-0.327,1.863    c-0.125,0.737-0.243,1.481-0.363,2.224c-0.1,0.624-0.202,1.246-0.299,1.874c-0.115,0.752-0.223,1.511-0.333,2.269    c-0.091,0.633-0.185,1.263-0.272,1.9c-0.104,0.755-0.2,1.518-0.298,2.28c-0.084,0.651-0.17,1.3-0.25,1.956    c-0.092,0.756-0.176,1.52-0.262,2.282c-0.076,0.672-0.155,1.341-0.226,2.017c-0.079,0.751-0.151,1.511-0.225,2.268    c-0.068,0.701-0.14,1.398-0.203,2.104c-0.065,0.727-0.123,1.462-0.183,2.194c-0.062,0.75-0.127,1.496-0.184,2.252    c-0.051,0.685-0.094,1.378-0.141,2.068c-0.055,0.815-0.114,1.627-0.163,2.45c-0.037,0.617-0.066,1.242-0.099,1.863    c-0.049,0.908-0.1,1.814-0.142,2.73c-0.023,0.509-0.039,1.026-0.059,1.537c-0.042,1.04-0.085,2.078-0.117,3.129    c-0.01,0.333-0.015,0.673-0.024,1.007c-0.162,5.895-0.177,11.961-0.023,18.227l17.077,311.724c0.08,1.466,0.531,2.841,1.266,4.027    c1.222,1.974,3.232,3.423,5.632,3.888c0.7,0.136,2.016,0.388,3.878,0.741c3.097,0.587,6.597,1.24,10.428,1.943    c10.947,2.01,22.367,4.019,33.693,5.896c5.632,0.933,11.111,1.811,16.396,2.625c25.84,3.978,45.323,6.176,56.53,6.017    c0.056,0.001,0.11,0.008,0.167,0.008c0.065,0,0.129-0.008,0.193-0.01c10.849,0.199,30.451-2.005,56.503-6.016    c5.285-0.814,10.764-1.692,16.396-2.625c11.327-1.877,22.747-3.886,33.693-5.896c3.832-0.703,7.332-1.357,10.428-1.943    c1.862-0.353,3.178-0.605,3.878-0.741c2.4-0.466,4.41-1.914,5.632-3.888c0.735-1.185,1.186-2.561,1.266-4.027l17.067-311.467    C402.389,163.161,401.994,150.804,400.965,139.171z M265.539,495.676V393.533c0-4.713-3.82-8.533-8.533-8.533    s-8.533,3.82-8.533,8.533v102.134c-8.306-0.518-19.414-1.78-32.781-3.67c-29.07-143.739-35.56-331.186-17.444-407.271    l21.159,9.404c5.643,2.508,11.999-1.623,11.999-7.798V18.067h51.2v68.267c0,6.175,6.356,10.306,11.999,7.798l21.159-9.404    c18.116,76.084,11.626,263.532-17.444,407.271C284.883,493.899,273.752,495.164,265.539,495.676z M128.896,165.594    c0.005-1.227,0.016-2.447,0.036-3.657c0.006-0.394,0.016-0.784,0.024-1.176c0.02-1.044,0.044-2.083,0.074-3.115    c0.014-0.473,0.031-0.942,0.047-1.413c0.032-0.941,0.067-1.879,0.108-2.81c0.023-0.516,0.047-1.03,0.073-1.544    c0.043-0.878,0.089-1.753,0.139-2.622c0.031-0.539,0.064-1.077,0.098-1.612c0.053-0.832,0.109-1.66,0.169-2.485    c0.04-0.554,0.081-1.107,0.124-1.657c0.063-0.801,0.13-1.597,0.199-2.391c0.048-0.555,0.096-1.111,0.148-1.663    c0.073-0.785,0.151-1.563,0.231-2.341c0.056-0.545,0.11-1.093,0.168-1.635c0.085-0.788,0.177-1.569,0.268-2.35    c0.061-0.519,0.119-1.041,0.183-1.557c0.101-0.817,0.209-1.627,0.317-2.436c0.063-0.47,0.122-0.943,0.187-1.411    c0.136-0.977,0.28-1.944,0.426-2.91c0.044-0.29,0.084-0.584,0.128-0.872c0.192-1.242,0.393-2.475,0.601-3.698    c0.07-0.408,0.145-0.809,0.216-1.215c0.144-0.82,0.288-1.64,0.439-2.452c0.092-0.493,0.189-0.98,0.284-1.47    c0.139-0.72,0.277-1.44,0.422-2.154c0.104-0.511,0.212-1.018,0.318-1.526c0.143-0.683,0.286-1.367,0.435-2.045    c0.113-0.515,0.229-1.026,0.345-1.537c0.151-0.667,0.303-1.333,0.458-1.995c0.119-0.507,0.242-1.011,0.364-1.515    c0.16-0.659,0.322-1.316,0.486-1.969c0.125-0.497,0.253-0.993,0.381-1.488c0.171-0.658,0.344-1.313,0.52-1.966    c0.129-0.478,0.258-0.956,0.39-1.432c0.184-0.667,0.372-1.331,0.562-1.993c0.13-0.454,0.26-0.909,0.393-1.361    c0.2-0.684,0.405-1.363,0.611-2.041c0.128-0.423,0.256-0.847,0.386-1.268c0.224-0.722,0.453-1.44,0.684-2.156    c0.118-0.368,0.234-0.737,0.354-1.103c0.265-0.809,0.535-1.612,0.807-2.413c0.092-0.27,0.181-0.543,0.274-0.812    c1.122-3.259,2.307-6.458,3.552-9.602c0.069-0.173,0.14-0.345,0.209-0.518c0.345-0.865,0.693-1.726,1.047-2.583    c0.103-0.25,0.209-0.497,0.313-0.746c0.324-0.776,0.65-1.551,0.982-2.321c0.122-0.284,0.246-0.566,0.37-0.849    c0.319-0.733,0.639-1.464,0.965-2.191c0.133-0.298,0.268-0.596,0.403-0.893c0.19-0.42,0.383-0.838,0.575-1.256l32.22,14.317    c-19.444,76.565-13.483,264.779,15.343,411.611c-3.621-0.572-7.326-1.173-11.102-1.798c-11.21-1.857-22.523-3.849-33.365-5.84    c-2.705-0.497-5.243-0.968-7.586-1.408l-16.701-304.793c-0.076-3.107-0.11-6.161-0.103-9.167    C128.891,166.058,128.894,165.827,128.896,165.594z M376.582,98.492c0.255,0.942,0.505,1.89,0.75,2.843    c0.055,0.214,0.11,0.428,0.164,0.642c0.247,0.974,0.489,1.953,0.725,2.939c0.046,0.194,0.093,0.387,0.139,0.581    c0.243,1.028,0.48,2.062,0.712,3.103c0.034,0.153,0.069,0.306,0.103,0.459c0.248,1.127,0.489,2.262,0.723,3.405    c0.013,0.065,0.027,0.129,0.04,0.194c1.262,6.195,2.31,12.622,3.125,19.314c0.001,0.005,0.001,0.01,0.002,0.015    c0.158,1.3,0.307,2.61,0.447,3.93c0.015,0.137,0.028,0.276,0.042,0.413c0.125,1.191,0.243,2.39,0.353,3.597    c0.02,0.215,0.038,0.431,0.057,0.646c0.102,1.141,0.197,2.288,0.285,3.444c0.019,0.255,0.038,0.51,0.057,0.766    c0.083,1.132,0.161,2.271,0.231,3.418c0.017,0.268,0.033,0.536,0.049,0.805c0.068,1.149,0.128,2.307,0.183,3.471    c0.012,0.265,0.025,0.53,0.037,0.796c0.053,1.187,0.098,2.383,0.137,3.586c0.008,0.246,0.017,0.491,0.024,0.738    c0.038,1.263,0.068,2.536,0.091,3.818c0.003,0.185,0.008,0.369,0.011,0.554c0.023,1.422,0.037,2.855,0.041,4.3    c0,0.044,0.001,0.086,0.001,0.13c0.008,3.053-0.026,6.157-0.104,9.314l-16.691,304.536c-2.344,0.44-4.881,0.911-7.586,1.408    c-10.843,1.991-22.155,3.982-33.365,5.84c-3.776,0.626-7.481,1.226-11.102,1.798c28.826-146.832,34.788-335.046,15.343-411.611    l32.22-14.316c0.198,0.43,0.396,0.86,0.591,1.292c0.125,0.276,0.25,0.551,0.373,0.827c0.343,0.767,0.681,1.538,1.017,2.311    c0.103,0.237,0.207,0.473,0.309,0.711c0.365,0.848,0.725,1.701,1.081,2.558c0.069,0.166,0.139,0.33,0.208,0.496    c0.419,1.014,0.832,2.033,1.239,3.058c0.004,0.009,0.007,0.018,0.011,0.027c1.687,4.255,3.263,8.612,4.721,13.085    c0.033,0.101,0.065,0.203,0.097,0.304c0.323,0.997,0.641,2,0.953,3.009c0.052,0.167,0.102,0.335,0.153,0.502    c0.291,0.95,0.577,1.904,0.857,2.865c0.059,0.201,0.116,0.404,0.174,0.606c0.269,0.934,0.534,1.872,0.793,2.817    C376.464,98.055,376.523,98.273,376.582,98.492z M359.406,18.067v28.588l-59.733,26.548V18.067H359.406z M154.606,18.067h59.733    v55.136l-59.733-26.548V18.067z"/>
	</g>
</g>
<g>
</g>
<g>
</g>
<g>
</g>
<g>
</g>
<g>
</g>
<g>
</g>
<g>
</g>
<g>
</g>
<g>
</g>
<g>
</g>
<g>
</g>
<g>
</g>
<g>
</g>
<g>
</g>
<g>
</g>
</svg>
