<?xml version="1.0" encoding="iso-8859-1"?>
<!-- Generator: Adobe Illustrator 19.0.0, SVG Export Plug-In . SVG Version: 6.00 Build 0)  -->
<svg xmlns="http://www.w3.org/2000/svg" xmlns:xlink="http://www.w3.org/1999/xlink" version="1.1" id="Layer_1" x="0px" y="0px" viewBox="0 0 512 512" style="enable-background:new 0 0 512 512;" xml:space="preserve">
<g transform="translate(0 -1)">
	<g>
		<path d="M386.58,115.571c-1.984-9.673-4.389-19.844-7.123-30.325c-2.832-10.854-5.863-21.464-8.895-31.403    c-1.062-3.481-2.049-6.632-2.936-9.398c-0.27-0.843-0.502-1.56-0.693-2.145V9.536V9.533c0-4.713-3.82-8.533-8.533-8.533h-35.532    H153.601H153.6c-4.713,0-8.533,3.82-8.533,8.533V42.3c-0.19,0.585-0.422,1.302-0.693,2.145c-0.887,2.767-1.874,5.917-2.936,9.398    c-3.032,9.939-6.064,20.549-8.895,31.403c-2.734,10.481-5.139,20.652-7.123,30.325c-3.834,18.693-5.954,34.763-5.954,47.562    c0,17.699,4.153,74.995,11.259,160.148c0.511,6.128,1.035,12.366,1.571,18.703c2.801,33.146,5.802,67.658,8.803,101.502    c1.05,11.845,2.026,22.761,2.901,32.494c0.306,3.407,0.488,5.417,0.813,9.015c0.238,2.625,0.238,2.625,0.288,3.177    c0.319,3.511,2.764,6.464,6.154,7.432c0.501,0.143,1.432,0.403,2.756,0.763c2.187,0.595,4.692,1.256,7.478,1.967    c7.945,2.028,16.561,4.056,25.553,5.949c13.034,2.744,25.75,4.97,37.753,6.495C236.189,512.225,246.651,513,256,513    c9.349,0,19.811-0.775,31.205-2.222c12.003-1.524,24.718-3.75,37.753-6.495c8.992-1.893,17.608-3.92,25.553-5.949    c2.785-0.711,5.29-1.372,7.478-1.967c1.324-0.36,2.255-0.62,2.756-0.763c3.39-0.968,5.835-3.922,6.154-7.432    c0.05-0.552,0.05-0.552,0.288-3.177c0.325-3.598,0.506-5.608,0.813-9.015c0.875-9.733,1.851-20.649,2.901-32.494    c3.001-33.844,6.002-68.356,8.803-101.502c0.536-6.338,1.06-12.575,1.571-18.703c7.107-85.154,11.259-142.45,11.259-160.148    C392.533,150.334,390.414,134.264,386.58,115.571z M324.055,22.689c0.418-0.564,0.833-1.13,1.244-1.697    c0.52-0.72,1.04-1.44,1.549-2.167c0.178-0.253,0.364-0.503,0.541-0.756h22.478v25.597v0.003c0,0.916,0.148,1.827,0.437,2.696    c0.19,0.57,0.554,1.685,1.068,3.29c0.862,2.692,1.824,5.766,2.861,9.168c2.965,9.728,5.93,20.119,8.696,30.732    c2.661,10.21,4.995,20.098,6.913,29.458c0.161,0.788,0.32,1.572,0.475,2.35c-36.058-13.068-69.324-28.406-98.836-47.052    C292.253,58.915,309.972,41.801,324.055,22.689z M306.066,18.067c-14.261,17.761-32.73,34.161-54.87,49.245    c-0.679,0.463-1.256,1.003-1.75,1.593c-30.395,20.421-66.936,37.706-107.763,52.465c0.156-0.781,0.314-1.567,0.476-2.358    c1.918-9.361,4.253-19.249,6.913-29.458c2.766-10.613,5.731-21.004,8.696-30.732c1.037-3.402,1.999-6.477,2.861-9.168    c0.514-1.606,0.879-2.72,1.068-3.29c0.289-0.869,0.437-1.78,0.437-2.696v-25.6H306.066z M364.266,321.862    c-0.511,6.122-1.034,12.354-1.57,18.686c-2.799,33.12-5.798,67.609-8.797,101.432c-1.05,11.838-2.024,22.747-2.899,32.473    c-0.22,2.441-0.375,4.165-0.565,6.27c-1.296,0.342-2.681,0.702-4.147,1.076c-7.722,1.972-16.106,3.944-24.847,5.784    c-12.612,2.655-24.884,4.804-36.387,6.264c-10.729,1.362-20.495,2.086-29.055,2.086c-8.56,0-18.326-0.723-29.055-2.086    c-11.503-1.461-23.775-3.609-36.387-6.264c-8.741-1.84-17.125-3.813-24.847-5.784c-1.466-0.374-2.851-0.734-4.147-1.076    c-0.19-2.105-0.345-3.829-0.565-6.27c-0.875-9.726-1.849-20.635-2.899-32.473c-2.999-33.823-5.998-68.311-8.797-101.432    c-0.535-6.332-1.059-12.564-1.57-18.686c-7.041-84.366-11.2-141.753-11.2-158.729c0-6.419,0.625-13.972,1.813-22.486    c44.608-15.496,84.638-33.758,118.046-55.773c34.639,22.781,74.154,40.774,117.26,55.771c1.189,8.515,1.814,16.069,1.814,22.489    C375.467,180.109,371.307,237.496,364.266,321.862z"/>
	</g>
</g>
<g>
</g>
<g>
</g>
<g>
</g>
<g>
</g>
<g>
</g>
<g>
</g>
<g>
</g>
<g>
</g>
<g>
</g>
<g>
</g>
<g>
</g>
<g>
</g>
<g>
</g>
<g>
</g>
<g>
</g>
</svg>
