<?xml version="1.0" encoding="iso-8859-1"?>
<!-- Generator: Adobe Illustrator 19.0.0, SVG Export Plug-In . SVG Version: 6.00 Build 0)  -->
<svg xmlns="http://www.w3.org/2000/svg" xmlns:xlink="http://www.w3.org/1999/xlink" version="1.1" id="Layer_1" x="0px" y="0px" viewBox="0 0 512.003 512.003" style="enable-background:new 0 0 512.003 512.003;" xml:space="preserve">
<g transform="translate(0 -1)">
	<g>
		<g>
			<path d="M442.195,238.617c-3.895-41.451-13.755-74.662-28.45-103.215c-3.687-7.165-7.565-13.827-11.9-20.617     c-1.674-2.622-3.356-5.174-5.337-8.115c-0.189-0.281-0.486-0.719-0.835-1.235c-0.573-0.847-1.2-1.772-2.268-3.347     c-0.074-0.11-0.146-0.216-0.218-0.322c-0.233-0.344-0.449-0.663-0.649-0.96V18.067c0-4.713-3.82-8.533-8.533-8.533H281.6     C274.469,4.176,265.606,1,256,1c-9.605,0-18.468,3.176-25.6,8.533H128c-4.713,0-8.533,3.82-8.533,8.533V100.8     c-0.234,0.347-0.482,0.712-0.76,1.123c-1.187,1.749-1.84,2.712-2.453,3.62c-0.091,0.135-0.171,0.255-0.261,0.388     c-0.201,0.297-0.374,0.553-0.498,0.738c-0.188,0.278-0.361,0.538-0.543,0.81c-0.109,0.162-0.221,0.329-0.328,0.489     c-1.609,2.403-3.047,4.592-4.466,6.816c-4.335,6.791-8.213,13.453-11.9,20.617c-14.694,28.553-24.555,61.764-28.45,103.215     c-3.218,34.234-1.222,69.623,5.607,105.658c-0.429-2.268,5.542,29.696,7.618,40.431c3.554,18.378,7.086,35.551,11.039,53.347     l8.096,48.67c0.827,4.829,4.523,8.63,9.405,9.433c17.549,2.868,39.583,6.223,62.565,9.297     c35.566,4.758,64.047,7.549,81.863,7.549c17.816,0,46.297-2.792,81.863-7.549c22.983-3.074,45.016-6.429,62.558-9.296     c4.89-0.804,8.586-4.605,9.407-9.396l8.19-49.156c3.866-17.348,7.398-34.522,10.952-52.899     c2.076-10.735,8.047-42.699,7.618-40.434C443.417,308.24,445.413,272.852,442.195,238.617z M379.463,111.936     c0.71,1.047,1.492,2.201,2.096,3.093c0.015,0.023,0.031,0.046,0.046,0.068c2.052,3.037,3.674,5.485,5.307,8.027     c4.292,6.683,8.069,13.146,11.655,20.124c7.245,14.1,13.234,29.446,17.854,46.789c-47.911-13.356-57.163-25.551-57.961-78.101     H379.463z M375.471,94.867h-25.604h-54.761c1.685-3.856,2.818-8.006,3.296-12.356c0.011-0.096,0.026-0.191,0.036-0.288     c0.032-0.315,0.05-0.635,0.076-0.953c0.095-1.148,0.157-2.304,0.157-3.47V43.667c0-1.167-0.062-2.322-0.157-3.47     c-0.026-0.318-0.043-0.637-0.076-0.953c-0.01-0.096-0.026-0.191-0.036-0.288c-0.478-4.35-1.611-8.5-3.296-12.356h80.365V94.867z      M271.807,23.538c0.282,0.332,0.593,0.652,0.94,0.955c4.843,4.231,7.917,9.924,8.671,16.163c0.013,0.108,0.03,0.215,0.041,0.324     c0.02,0.186,0.03,0.374,0.046,0.561c0.058,0.702,0.095,1.409,0.095,2.126V77.8c0,0.716-0.037,1.424-0.095,2.126     c-0.016,0.187-0.026,0.375-0.046,0.561c-0.011,0.109-0.029,0.216-0.041,0.324c-0.753,6.239-3.827,11.932-8.671,16.163     c-0.111,0.097-0.211,0.198-0.315,0.298c-0.097,0.076-0.199,0.145-0.294,0.223c-4.006,3.309-8.766,5.325-13.832,5.796     c-0.093,0.008-0.188,0.014-0.281,0.021c-0.625,0.051-1.254,0.08-1.888,0.084c-0.046,0-0.091,0.003-0.137,0.003     c-0.045,0-0.088-0.003-0.133-0.003c-0.635-0.003-1.267-0.033-1.894-0.084c-0.092-0.007-0.184-0.013-0.275-0.021     c-5.068-0.471-9.831-2.489-13.852-5.811c-0.087-0.072-0.18-0.135-0.269-0.204c-0.106-0.101-0.208-0.204-0.32-0.303     c-5.244-4.581-8.418-10.874-8.813-17.72c-0.002-0.027-0.005-0.054-0.006-0.081c-0.025-0.455-0.038-0.913-0.038-1.372V43.667     c0-0.46,0.013-0.917,0.038-1.372c0.001-0.027,0.005-0.054,0.006-0.081c0.395-6.846,3.57-13.139,8.813-17.72     c0.351-0.307,0.666-0.63,0.951-0.966c4.351-3.417,9.832-5.46,15.792-5.46C261.968,18.067,267.454,20.115,271.807,23.538z      M113.434,143.247c3.586-6.978,7.363-13.44,11.655-20.123c1.193-1.858,2.385-3.67,3.739-5.695     c0.097-0.145,0.194-0.29,0.293-0.437c0.323-0.482,0.659-0.981,1.004-1.492c0.625-0.924,1.572-2.321,2.415-3.564h21.001     c-0.798,52.551-10.051,64.746-57.961,78.095C100.2,172.69,106.189,157.345,113.434,143.247z M136.534,26.6h80.361     c-2.285,5.228-3.561,10.997-3.561,17.067V77.8c0,6.07,1.276,11.839,3.561,17.067h-54.761h-25.6V26.6z M412.214,381.466     c-3.525,18.233-7.027,35.256-10.943,52.886l-7.611,45.613c-16.683,2.692-36.98,5.753-58.059,8.572     c-34.836,4.66-62.776,7.399-79.6,7.399c-16.824,0-44.764-2.739-79.6-7.399c-21.076-2.819-41.37-5.88-58.058-8.572l-7.525-45.165     c-4.003-18.079-7.505-35.102-11.03-53.334c-2.064-10.672-8.025-42.585-7.605-40.366c-6.541-34.513-8.447-68.303-5.384-100.885     c1.041-11.081,2.539-21.492,4.44-31.357c62.661-16.409,78.182-32.532,79.351-96.921h59.814     c5.748,4.317,12.624,7.205,20.104,8.167c0.197,0.026,0.393,0.052,0.591,0.075c0.339,0.039,0.678,0.074,1.019,0.105     c0.418,0.039,0.837,0.069,1.258,0.096c0.2,0.012,0.399,0.028,0.599,0.037c0.673,0.032,1.349,0.054,2.027,0.054     c0.679,0,1.355-0.021,2.029-0.054c0.197-0.009,0.393-0.024,0.59-0.036c0.425-0.027,0.85-0.057,1.272-0.097     c0.336-0.03,0.67-0.065,1.003-0.103c0.207-0.024,0.413-0.051,0.619-0.079c7.472-0.965,14.34-3.851,20.083-8.164h59.814     c1.169,64.39,16.689,80.511,79.354,96.93c1.9,9.862,3.398,20.27,4.439,31.348c3.062,32.583,1.157,66.372-5.384,100.883     C420.239,338.881,414.278,370.793,412.214,381.466z"/>
			<path d="M256,86.333c4.713,0,8.533-3.82,8.533-8.533V43.667c0-4.713-3.82-8.533-8.533-8.533s-8.533,3.82-8.533,8.533V77.8     C247.467,82.513,251.288,86.333,256,86.333z"/>
		</g>
	</g>
</g>
<g>
</g>
<g>
</g>
<g>
</g>
<g>
</g>
<g>
</g>
<g>
</g>
<g>
</g>
<g>
</g>
<g>
</g>
<g>
</g>
<g>
</g>
<g>
</g>
<g>
</g>
<g>
</g>
<g>
</g>
</svg>
