<?xml version="1.0" encoding="iso-8859-1"?>
<!-- Generator: Adobe Illustrator 19.0.0, SVG Export Plug-In . SVG Version: 6.00 Build 0)  -->
<svg xmlns="http://www.w3.org/2000/svg" xmlns:xlink="http://www.w3.org/1999/xlink" version="1.1" id="Layer_1" x="0px" y="0px" viewBox="0 0 512 512" style="enable-background:new 0 0 512 512;" xml:space="preserve">
<g transform="translate(0 -1)">
	<g>
		<path d="M366.179,74.292c-0.022-0.049-0.053-0.091-0.075-0.139c-0.027-0.056-0.043-0.113-0.071-0.169l-15.655-31.31l7.768-31.071    C359.492,6.217,355.418,1,349.867,1H162.133c-5.552,0-9.625,5.217-8.279,10.603l7.768,31.071l-15.655,31.31    c-0.028,0.056-0.045,0.113-0.071,0.169c-0.023,0.048-0.053,0.091-0.075,0.139c-7.2,15.967-13.239,30.513-18.173,44.29    c-0.227,0.408-0.434,0.833-0.597,1.289c-4.77,13.384-8.346,25.79-10.908,38.189c-0.036,0.173-0.06,0.346-0.085,0.518    c-8.434,39.607-6.807,78.056,3.551,134.105c8.221,44.479,16.356,89.063,24.046,131.621c0.755,4.181,1.532,8.496,2.356,13.067    c0.003,0.018,0.009,0.035,0.013,0.054c1.814,10.059,3.498,19.425,5.03,27.97c0.755,4.209,1.419,7.918,1.987,11.093    c0.573,3.208,0.573,3.208,0.692,3.875c0.379,2.128,1.552,4.032,3.281,5.329c4.838,3.628,13.747,8.802,26.484,13.896    C204.471,507.979,228.739,513,256,513s51.529-5.021,72.503-13.41c12.737-5.095,21.647-10.268,26.484-13.896    c1.729-1.297,2.902-3.201,3.281-5.329c0.119-0.667,0.119-0.667,0.692-3.875c0.568-3.175,1.232-6.884,1.987-11.093    c2.157-12.027,4.608-25.649,7.309-40.596c6.749-37.35,13.842-76.27,21.036-115.315c0.005-0.028,0.014-0.054,0.019-0.082    c0.531-2.886,0.937-5.093,1.262-6.862c0.606-3.286,1.212-6.571,1.819-9.857C409.513,200.038,402.79,155.481,366.179,74.292z     M160.539,421.764c-0.034-0.188-0.069-0.379-0.103-0.567c-0.84-4.656-1.653-9.153-2.465-13.638    c60.985-22.529,153.685-78.262,219.799-130.319c-0.665,4.021-1.386,8.133-2.164,12.342c-0.616,3.334-0.884,4.786-1.815,9.846    c-0.22,1.191-0.44,2.382-0.659,3.573c-68.066,50.149-154.87,100.392-212.099,121.496    C160.868,423.587,160.706,422.686,160.539,421.764z M140.012,135.175c56.055,29.931,145.352,62.909,243.445,92.74    c-0.323,5.833-0.802,11.858-1.444,18.108c-100.017-29.249-191.576-61.745-247.709-90.721    C135.905,148.699,137.806,142.023,140.012,135.175z M384.286,210.324c-96.878-29.627-184.774-62.312-238.576-91.465    c3.832-10.236,8.297-20.979,13.421-32.526H352.87C374.271,134.56,384.209,168.815,384.286,210.324z M175.941,52.2h160.119    l8.533,17.067H167.407L175.941,52.2z M338.937,18.067l-4.267,17.067H177.329l-4.267-17.067H338.937z M130.764,172.65    c56.473,28.456,144.288,59.65,240.468,87.995c-64.025,51.123-155.995,106.891-216.36,129.836    c-6.005-33.067-12.218-67.011-18.481-100.898C127.394,240.899,125.172,206.556,130.764,172.65z M351.461,421.764    c-2.702,14.954-5.155,28.584-7.313,40.618c-0.755,4.212-1.42,7.925-1.988,11.103c-0.842,0.816-1.771,1.379-2.844,2.002    c-4.817,2.797-10.546,5.615-17.151,8.257c-19.026,7.611-41.159,12.19-66.164,12.19s-47.138-4.579-66.164-12.19    c-6.605-2.642-12.334-5.459-17.151-8.257c-1.073-0.623-2.002-1.186-2.786-1.677c-0.626-3.503-1.291-7.215-2.046-11.428    c-1.165-6.496-2.418-13.471-3.748-20.853c55.039-19.739,136.745-66.067,204.561-114.245    C362.789,359.302,357.008,391.066,351.461,421.764z"/>
	</g>
</g>
<g>
</g>
<g>
</g>
<g>
</g>
<g>
</g>
<g>
</g>
<g>
</g>
<g>
</g>
<g>
</g>
<g>
</g>
<g>
</g>
<g>
</g>
<g>
</g>
<g>
</g>
<g>
</g>
<g>
</g>
</svg>
