<?xml version="1.0" encoding="iso-8859-1"?>
<!-- Generator: Adobe Illustrator 19.0.0, SVG Export Plug-In . SVG Version: 6.00 Build 0)  -->
<svg xmlns="http://www.w3.org/2000/svg" xmlns:xlink="http://www.w3.org/1999/xlink" version="1.1" id="Layer_1" x="0px" y="0px" viewBox="0 0 512 512" style="enable-background:new 0 0 512 512;" xml:space="preserve">
<g transform="translate(0 -1)">
	<g>
		<path d="M366.179,48.692c-0.022-0.049-0.052-0.091-0.075-0.139c-0.027-0.056-0.043-0.114-0.071-0.169L348.966,14.25    c-1.445-2.891-4.4-4.717-7.632-4.717h-62.767C272.55,4.226,264.654,1,256,1c-8.654,0-16.55,3.226-22.566,8.533h-62.767    c-3.232,0-6.187,1.826-7.632,4.717l-17.067,34.133c-0.028,0.056-0.045,0.113-0.071,0.169c-0.023,0.048-0.053,0.09-0.075,0.139    c-36.611,81.189-43.334,125.746-26.212,218.392c1.405,7.602,2.815,15.392,4.23,23.357c7.363,41.463,14.537,85.904,21.234,130.348    c2.344,15.557,4.461,30.003,6.314,42.965c0.648,4.535,1.218,8.561,1.703,12.03c0.291,2.079,0.489,3.509,0.59,4.243    c0.31,2.258,1.51,4.299,3.334,5.667c4.838,3.628,13.747,8.802,26.484,13.896C204.471,507.979,228.739,513,256,513    s51.529-5.021,72.503-13.41c12.737-5.095,21.647-10.268,26.484-13.896c1.824-1.368,3.024-3.408,3.334-5.667    c0.101-0.735,0.299-2.164,0.59-4.243c0.485-3.469,1.055-7.495,1.703-12.03c1.853-12.962,3.97-27.408,6.314-42.965    c6.697-44.444,13.871-88.885,21.234-130.348c1.414-7.965,2.825-15.755,4.23-23.356C409.513,174.438,402.79,129.881,366.179,48.692    z M344.593,43.667h-55.535c0.343-1.333,0.597-2.701,0.778-4.092c0.011-0.081,0.021-0.162,0.031-0.243    c0.07-0.57,0.126-1.144,0.167-1.722c0.011-0.147,0.025-0.294,0.034-0.441c0.04-0.674,0.066-1.352,0.066-2.036    s-0.026-1.362-0.066-2.036c-0.009-0.148-0.023-0.294-0.034-0.441c-0.042-0.578-0.097-1.152-0.167-1.722    c-0.01-0.081-0.02-0.162-0.031-0.243c-0.181-1.391-0.435-2.759-0.778-4.092h47.001L344.593,43.667z M268.039,23.039    c0.181,0.249,0.357,0.5,0.571,0.738c2.146,2.383,3.573,5.202,4.157,8.231c0.015,0.08,0.023,0.163,0.037,0.244    c0.074,0.417,0.138,0.837,0.18,1.261c0.05,0.534,0.082,1.074,0.082,1.621s-0.031,1.087-0.082,1.621    c-0.042,0.424-0.106,0.844-0.18,1.261c-0.014,0.081-0.022,0.163-0.037,0.244c-0.584,3.028-2.011,5.846-4.155,8.229    C265.338,50.119,260.838,52.2,256,52.2c-4.838,0-9.338-2.081-12.613-5.712c-2.145-2.383-3.572-5.201-4.155-8.229    c-0.015-0.08-0.023-0.163-0.037-0.244c-0.074-0.417-0.138-0.837-0.18-1.261c-0.05-0.534-0.082-1.074-0.082-1.621    s0.031-1.087,0.082-1.621c0.042-0.424,0.106-0.844,0.18-1.261c0.014-0.081,0.022-0.163,0.037-0.244    c0.584-3.029,2.011-5.848,4.157-8.231c0.214-0.238,0.39-0.489,0.571-0.738c3.086-3.072,7.34-4.972,12.039-4.972    C260.699,18.067,264.953,19.967,268.039,23.039z M175.941,26.6h47.001c-0.343,1.333-0.597,2.702-0.778,4.093    c-0.011,0.08-0.02,0.16-0.03,0.24c-0.07,0.571-0.126,1.145-0.167,1.724c-0.011,0.147-0.025,0.294-0.034,0.441    c-0.04,0.674-0.066,1.352-0.066,2.036s0.026,1.362,0.066,2.036c0.009,0.147,0.023,0.294,0.034,0.441    c0.042,0.579,0.097,1.154,0.167,1.724c0.01,0.08,0.02,0.16,0.03,0.239c0.181,1.391,0.435,2.76,0.778,4.093h-55.535L175.941,26.6z     M284.481,493.784l15.374-119.447l18.923,110.688C308.404,488.902,296.949,491.918,284.481,493.784z M375.609,263.983    c-1.412,7.642-2.83,15.471-4.251,23.474c-7.392,41.626-14.589,86.209-21.306,130.789c-2.351,15.601-4.474,30.089-6.333,43.092    c-0.651,4.553-1.223,8.595-1.71,12.081c-0.818,0.96-1.693,1.488-2.693,2.069c-1.399,0.813-2.885,1.626-4.437,2.437L307.076,315.3    c-1.652-9.661-15.624-9.372-16.875,0.349l-23.164,179.97c-3.617,0.2-7.291,0.315-11.037,0.315    c-25.005,0-47.138-4.579-66.164-12.19c-6.605-2.642-12.334-5.459-17.151-8.257c-1-0.581-1.876-1.109-2.624-1.576    c-0.557-3.979-1.128-8.021-1.779-12.574c-1.859-13.003-3.982-27.491-6.333-43.092c-6.717-44.58-13.914-89.163-21.306-130.789    c-1.421-8.003-2.839-15.832-4.251-23.474c-16.099-87.113-10.516-128.311,22.739-203.249h74.303    c4.896,4.319,11.036,7.253,17.818,8.197c0.115,0.016,0.232,0.029,0.347,0.044c0.388,0.05,0.775,0.098,1.167,0.135    c0.253,0.024,0.507,0.039,0.76,0.058c0.275,0.02,0.548,0.044,0.824,0.057c0.547,0.027,1.097,0.042,1.649,0.042    c0.552,0,1.101-0.015,1.649-0.042c0.276-0.013,0.55-0.038,0.824-0.057c0.254-0.019,0.508-0.034,0.76-0.058    c0.392-0.037,0.779-0.085,1.167-0.135c0.116-0.015,0.232-0.028,0.347-0.044c6.782-0.944,12.923-3.879,17.818-8.197h74.303    C386.125,135.671,391.708,176.869,375.609,263.983z"/>
	</g>
</g>
<g>
</g>
<g>
</g>
<g>
</g>
<g>
</g>
<g>
</g>
<g>
</g>
<g>
</g>
<g>
</g>
<g>
</g>
<g>
</g>
<g>
</g>
<g>
</g>
<g>
</g>
<g>
</g>
<g>
</g>
</svg>
