<?xml version="1.0" encoding="iso-8859-1"?>
<!-- Generator: Adobe Illustrator 19.0.0, SVG Export Plug-In . SVG Version: 6.00 Build 0)  -->
<svg xmlns="http://www.w3.org/2000/svg" xmlns:xlink="http://www.w3.org/1999/xlink" version="1.1" id="Layer_1" x="0px" y="0px" viewBox="0 0 511.998 511.998" style="enable-background:new 0 0 511.998 511.998;" xml:space="preserve">
<g transform="translate(0 -1)">
	<g>
		<path d="M349.866,49.074V18.067c0-4.713-3.821-8.533-8.533-8.533h-42.667c0-4.713-3.82-8.533-8.533-8.533h-68.267    c-4.713,0-8.533,3.82-8.533,8.533h-42.667c-4.713,0-8.533,3.82-8.533,8.533v31.007c-14.466,18.975-34.133,80.325-34.133,122.591    c0,20.964,3.664,57.028,11.496,120.19c0.429,3.457,0.878,7.063,1.37,11.002c11.071,88.572,12.734,102.981,12.734,116.275v59.733    c0,2.686,1.265,5.215,3.413,6.827c4.838,3.628,13.748,8.802,26.484,13.896c20.974,8.39,45.241,13.41,72.503,13.41    s51.529-5.021,72.503-13.41c12.737-5.095,21.647-10.268,26.484-13.896c2.149-1.612,3.413-4.141,3.413-6.827v-59.733    c0-13.294,1.663-27.703,12.734-116.275c0.492-3.939,0.942-7.545,1.37-11.002c7.832-63.162,11.496-99.226,11.496-120.19    C383.999,129.399,364.331,68.049,349.866,49.074z M332.799,26.6v17.065h-34.133V26.6H332.799z M281.599,18.067v34.132h-51.2    V18.067H281.599z M213.332,26.6v17.065h-34.133V26.6H213.332z M206.285,489.254l7.047-73.987l7.366,77.346    C215.721,491.673,210.913,490.547,206.285,489.254z M291.299,492.616l7.366-77.346l7.047,73.987    C301.085,490.549,296.277,491.675,291.299,492.616z M355.566,289.755c-0.428,3.451-0.876,7.051-1.368,10.985    c-11.328,90.628-12.866,103.952-12.866,118.392v55.152c-0.604,0.369-1.277,0.771-2.018,1.202    c-4.777,2.774-10.454,5.568-16.99,8.19L307.16,324.458c-0.981-10.299-16.009-10.299-16.99,0l-16.253,170.663    c-5.797,0.531-11.77,0.811-17.918,0.811c-6.148,0-12.121-0.28-17.918-0.811l-16.254-170.666c-0.981-10.299-16.009-10.299-16.99,0    l-15.165,159.22c-6.535-2.623-12.211-5.416-16.989-8.19c-0.742-0.431-1.415-0.832-2.018-1.202v-55.152    c0-14.44-1.537-27.764-12.866-118.392c-0.492-3.934-0.94-7.534-1.368-10.985c-7.724-62.29-11.366-98.142-11.366-118.09    c0-38.155,18.225-95.105,29.565-110.932h38.702c0,4.713,3.821,8.533,8.533,8.533h68.267c4.713,0,8.533-3.82,8.533-8.533h38.702    c11.34,15.826,29.565,72.777,29.565,110.932C366.932,191.613,363.29,227.466,355.566,289.755z"/>
	</g>
</g>
<g>
</g>
<g>
</g>
<g>
</g>
<g>
</g>
<g>
</g>
<g>
</g>
<g>
</g>
<g>
</g>
<g>
</g>
<g>
</g>
<g>
</g>
<g>
</g>
<g>
</g>
<g>
</g>
<g>
</g>
</svg>
