<?xml version="1.0" encoding="iso-8859-1"?>
<!-- Generator: Adobe Illustrator 19.0.0, SVG Export Plug-In . SVG Version: 6.00 Build 0)  -->
<svg xmlns="http://www.w3.org/2000/svg" xmlns:xlink="http://www.w3.org/1999/xlink" version="1.1" id="Layer_1" x="0px" y="0px" viewBox="0 0 512 512" style="enable-background:new 0 0 512 512;" xml:space="preserve">
<g transform="translate(0 -1)">
	<g>
		<g>
			<path d="M238.933,43.667H256c4.713,0,8.533-3.82,8.533-8.533S260.713,26.6,256,26.6h-17.067c-4.713,0-8.533,3.82-8.533,8.533     S234.221,43.667,238.933,43.667z"/>
			<path d="M418.081,230.457c-6.999-62.991-28.635-142.219-42.614-171.683V18.067C375.467,8.643,367.823,1,358.4,1H254.552H153.603     H153.6c-1.108,0-2.188,0.114-3.237,0.316c-0.066,0.013-0.135,0.017-0.201,0.031c-0.089,0.018-0.173,0.048-0.262,0.067     c-4.013,0.888-7.483,3.19-9.884,6.354c-2.176,2.865-3.482,6.425-3.482,10.299v40.708     c-13.979,29.464-35.615,108.692-42.614,171.683c-3,26.99-0.414,68.746,6.515,123.406c2.09,16.49,4.538,33.84,7.373,52.546     c1.953,12.883,3.964,25.617,6.472,41.109c-0.279-1.724,4.316,26.527,5.294,32.687c0.413,2.603,2.006,4.869,4.316,6.139     c1.7,0.935,4.82,2.46,9.315,4.374c7.347,3.128,15.979,6.241,25.851,9.137C187.087,508.078,219.528,513,256,513     s68.913-4.922,96.946-13.145c9.872-2.896,18.504-6.009,25.851-9.137c4.495-1.914,7.615-3.439,9.315-4.374     c2.309-1.27,3.902-3.536,4.316-6.139c0.978-6.159,5.573-34.411,5.294-32.687c2.507-15.492,4.519-28.226,6.472-41.109     c2.835-18.706,5.282-36.056,7.373-52.546C418.495,299.204,421.081,257.448,418.081,230.457z M358.4,52.2h-72.845     c3.192-5.518,4.888-12.002,4.526-18.889c-0.288-5.566-1.984-10.738-4.721-15.245h73.04V52.2z M254.552,18.067     c9.76,0,18.026,7.252,18.486,16.134c0.517,9.822-7.267,17.999-17.035,17.999h-102.4V18.067H254.552z M308.974,492.03     l16.495-120.971l20.549,113.01C334.636,487.313,322.295,490.018,308.974,492.03z M394.635,351.717     c-2.071,16.341-4.5,33.557-7.315,52.135c-1.943,12.818-3.946,25.499-6.445,40.939c0.24-1.481-2.992,18.392-4.603,28.383     c-1.161,0.537-2.548,1.155-4.16,1.841c-2.984,1.27-6.229,2.543-9.702,3.802l-29.75-163.611     c-1.737-9.555-15.539-9.249-16.851,0.374l-24.36,178.652c-11.312,1.103-23.126,1.7-35.449,1.7     c-34.798,0-65.628-4.678-92.142-12.455c-9.219-2.704-17.224-5.591-23.969-8.463c-1.612-0.686-2.999-1.304-4.16-1.841     c-1.611-9.991-4.843-29.864-4.603-28.383c-2.499-15.44-4.503-28.121-6.445-40.939c-2.816-18.577-5.244-35.794-7.315-52.135     c-6.766-53.372-9.29-94.13-6.484-119.375c6.56-59.042,26.491-133.216,39.617-163.076h105.505h105.5     c13.125,29.86,33.056,104.034,39.617,163.076C403.925,257.588,401.401,298.345,394.635,351.717z"/>
		</g>
	</g>
</g>
<g>
</g>
<g>
</g>
<g>
</g>
<g>
</g>
<g>
</g>
<g>
</g>
<g>
</g>
<g>
</g>
<g>
</g>
<g>
</g>
<g>
</g>
<g>
</g>
<g>
</g>
<g>
</g>
<g>
</g>
</svg>
