<?xml version="1.0" encoding="iso-8859-1"?>
<!-- Generator: Adobe Illustrator 19.0.0, SVG Export Plug-In . SVG Version: 6.00 Build 0)  -->
<svg xmlns="http://www.w3.org/2000/svg" xmlns:xlink="http://www.w3.org/1999/xlink" version="1.1" id="Layer_1" x="0px" y="0px" viewBox="0 0 512 512" style="enable-background:new 0 0 512 512;" xml:space="preserve">
<g transform="translate(0 -1)">
	<g>
		<g>
			<circle cx="256" cy="43.667" r="8.533"/>
			<path d="M418.081,238.991c-6.999-62.991-28.635-142.219-42.614-171.683V26.6c0-9.423-7.643-17.067-17.067-17.067h-76.8     C274.468,4.176,265.605,1,256,1c-9.605,0-18.468,3.176-25.6,8.533h-76.8c-9.423,0-17.067,7.643-17.067,17.067v40.708     c-13.979,29.464-35.615,108.692-42.614,171.683c-2.976,26.779-0.471,64.78,6.383,114.271c2.097,15.139,4.553,31.037,7.523,48.992     c1.871,11.314,10.14,59.295,11.748,69.417c0.415,2.61,2.015,4.881,4.334,6.149c1.707,0.933,4.839,2.456,9.352,4.369     c7.378,3.126,16.04,6.238,25.942,9.132c9.73,2.844,20.175,5.324,31.296,7.353c3.434,1.676,7.642,3.487,12.597,5.282     C218.713,509.614,236.453,513,256,513s37.287-3.386,52.905-9.043c4.956-1.795,9.163-3.606,12.597-5.282     c11.121-2.029,21.566-4.509,31.296-7.353c9.901-2.894,18.564-6.006,25.942-9.132c4.513-1.912,7.646-3.436,9.352-4.369     c2.319-1.268,3.92-3.539,4.334-6.149c1.608-10.122,9.876-58.103,11.748-69.417c2.97-17.956,5.426-33.853,7.523-48.992     C418.552,303.771,421.057,265.77,418.081,238.991z M358.4,60.733h-51.2h-12.094c2.285-5.228,3.561-10.997,3.561-17.067     c0-6.07-1.276-11.839-3.561-17.067H358.4V60.733z M271.792,23.527c0.285,0.336,0.6,0.66,0.951,0.966     c5.244,4.581,8.418,10.874,8.813,17.72c0.002,0.027,0.005,0.054,0.006,0.081c0.025,0.455,0.038,0.913,0.038,1.372     s-0.013,0.917-0.038,1.372c-0.001,0.027-0.005,0.054-0.006,0.081c-0.395,6.846-3.57,13.139-8.813,17.72     c-0.001,0.001-0.002,0.002-0.003,0.002c-0.001,0-0.001,0.001-0.002,0.001c-4.128,3.611-9.1,5.813-14.413,6.313     c-0.027,0.002-0.054,0.004-0.081,0.006c-0.742,0.067-1.491,0.104-2.245,0.104c-0.754,0-1.503-0.037-2.245-0.104     c-0.027-0.002-0.054-0.004-0.081-0.006c-5.312-0.499-10.285-2.701-14.413-6.313c-0.001-0.001-0.001-0.001-0.002-0.002     c-0.001-0.001-0.001-0.001-0.002-0.002c-5.244-4.581-8.418-10.874-8.813-17.72c-0.002-0.027-0.005-0.054-0.006-0.081     c-0.025-0.455-0.038-0.913-0.038-1.372s0.013-0.917,0.038-1.372c0.001-0.027,0.005-0.054,0.006-0.081     c0.395-6.846,3.57-13.139,8.813-17.72c0.351-0.307,0.666-0.63,0.951-0.966c4.351-3.417,9.832-5.46,15.792-5.46     C261.961,18.067,267.441,20.11,271.792,23.527z M153.6,26.6h63.294c-2.285,5.228-3.561,10.997-3.561,17.067     c0,6.07,1.276,11.839,3.561,17.067H204.8h-51.2V26.6z M139.918,466.476c-1.63-0.691-3.033-1.313-4.205-1.852     c-2.576-15.531-9.391-55.114-11.051-65.154c-2.947-17.819-5.382-33.574-7.456-48.549c-6.671-48.172-9.103-85.058-6.326-110.045     c6.56-59.042,26.491-133.216,39.617-163.076h41.277c-0.02,0.052-0.041,0.108-0.062,0.161c-0.374,0.953-0.751,1.934-1.131,2.936     c-0.072,0.19-0.144,0.381-0.217,0.573c-0.38,1.01-0.763,2.041-1.148,3.099c-0.061,0.168-0.123,0.34-0.184,0.509     c-0.404,1.115-0.81,2.248-1.219,3.412c-0.009,0.027-0.019,0.055-0.029,0.082c-0.407,1.159-0.817,2.347-1.228,3.553     c-0.056,0.164-0.111,0.325-0.167,0.489c-0.399,1.174-0.799,2.373-1.201,3.59c-0.074,0.223-0.147,0.446-0.221,0.67     c-0.399,1.213-0.799,2.443-1.2,3.695c-0.068,0.211-0.135,0.425-0.203,0.637c-0.417,1.306-0.834,2.626-1.252,3.971     c-0.02,0.064-0.04,0.129-0.059,0.193c-0.416,1.34-0.833,2.7-1.249,4.077c-0.05,0.166-0.101,0.33-0.151,0.497     c-0.409,1.356-0.819,2.732-1.229,4.121c-0.074,0.253-0.149,0.505-0.223,0.759c-0.404,1.376-0.807,2.766-1.21,4.171     c-0.069,0.242-0.139,0.485-0.208,0.728c-0.416,1.457-0.832,2.925-1.246,4.411c-0.029,0.102-0.057,0.206-0.085,0.309     c-0.409,1.469-0.817,2.954-1.224,4.45c-0.047,0.173-0.094,0.343-0.141,0.516c-0.406,1.497-0.811,3.009-1.214,4.53     c-0.071,0.267-0.141,0.534-0.212,0.801c-0.397,1.504-0.792,3.019-1.185,4.545c-0.067,0.258-0.133,0.517-0.199,0.776     c-0.403,1.568-0.803,3.144-1.201,4.732c-0.036,0.145-0.073,0.292-0.109,0.438c-0.394,1.578-0.786,3.165-1.176,4.761     c-0.034,0.141-0.069,0.281-0.103,0.422c-0.39,1.604-0.777,3.219-1.162,4.839c-0.066,0.28-0.133,0.559-0.199,0.839     c-0.373,1.581-0.743,3.168-1.11,4.762c-0.066,0.285-0.131,0.57-0.196,0.855c-0.373,1.63-0.744,3.264-1.109,4.904     c-0.039,0.175-0.078,0.351-0.117,0.527c-0.365,1.641-0.726,3.287-1.082,4.937c-0.027,0.125-0.055,0.25-0.081,0.375     c-0.359,1.665-0.712,3.335-1.062,5.007c-0.058,0.279-0.117,0.557-0.175,0.836c-0.338,1.626-0.672,3.254-1,4.884     c-0.059,0.293-0.118,0.586-0.177,0.879c-0.332,1.656-0.66,3.313-0.981,4.971c-0.039,0.2-0.077,0.399-0.115,0.598     c-0.325,1.682-0.644,3.364-0.957,5.045c-0.016,0.083-0.031,0.166-0.047,0.25c-0.315,1.693-0.621,3.385-0.923,5.075     c-0.048,0.269-0.096,0.538-0.144,0.807c-0.289,1.627-0.571,3.252-0.847,4.875c-0.051,0.3-0.102,0.599-0.152,0.899     c-0.277,1.638-0.548,3.273-0.811,4.903c-0.035,0.217-0.069,0.433-0.104,0.649c-0.269,1.678-0.532,3.353-0.786,5.021     c-0.007,0.048-0.015,0.096-0.022,0.144c-0.254,1.672-0.498,3.336-0.736,4.995c-0.037,0.257-0.074,0.514-0.111,0.77     c-0.226,1.591-0.444,3.175-0.654,4.753c-0.039,0.29-0.077,0.579-0.115,0.869c-0.208,1.58-0.409,3.153-0.601,4.716     c-0.029,0.237-0.057,0.473-0.086,0.71c-0.199,1.638-0.391,3.269-0.57,4.887c-3,26.99-0.414,68.746,6.515,123.406     c2.09,16.49,4.538,33.84,7.373,52.546c1.953,12.883,3.964,25.617,6.472,41.109c-0.008-0.047-0.01-0.063-0.011-0.066     c0,0,0,0,0.001,0.004c0.001,0.006,0.005,0.027,0.008,0.05c0.002,0.014,0.004,0.022,0.007,0.042     c0.001,0.004,0.002,0.011,0.003,0.015c0.101,0.617,0.585,3.591,1.226,7.54c0.024,0.148,0.047,0.292,0.072,0.443     c0.506,3.116,1.102,6.784,1.682,10.365c0.023,0.14,0.045,0.28,0.068,0.42c0.036,0.221,0.072,0.443,0.107,0.663     c0.048,0.297,0.096,0.593,0.144,0.887c0.025,0.151,0.049,0.302,0.073,0.452c0.058,0.357,0.115,0.711,0.172,1.063     c0.016,0.096,0.031,0.192,0.047,0.288c0.019,0.115,0.037,0.227,0.055,0.341c-4.716-1.123-9.276-2.332-13.676-3.619     C154.736,472.236,146.697,469.348,139.918,466.476z M197.429,483.023c-0.071-0.038-0.135-0.08-0.208-0.116     c-0.622-0.312-1.191-0.606-1.707-0.879c-0.493-3.061-1.151-7.125-1.817-11.232c-0.006-0.035-0.011-0.069-0.017-0.103     c-0.33-2.033-0.661-4.074-0.975-6.007c-0.01-0.059-0.019-0.118-0.029-0.177c-0.22-1.357-0.431-2.654-0.627-3.86     c-0.097-0.6-0.191-1.176-0.28-1.723c-0.275-1.692-0.504-3.103-0.666-4.098c-0.034-0.211-0.066-0.403-0.093-0.574     c-0.107-0.658-0.167-1.026-0.164-1.004c0.001,0.005,0.005,0.031,0.013,0.077c-2.499-15.44-4.503-28.121-6.445-40.939     c-2.816-18.577-5.244-35.794-7.315-52.135c-6.766-53.372-9.29-94.13-6.484-119.375c0.106-0.951,0.215-1.906,0.328-2.865     c0.037-0.312,0.076-0.627,0.113-0.94c0.077-0.646,0.154-1.291,0.234-1.94c0.048-0.387,0.098-0.777,0.147-1.165     c0.073-0.58,0.146-1.16,0.221-1.743c0.053-0.409,0.108-0.82,0.162-1.23c0.074-0.565,0.148-1.129,0.225-1.696     c0.058-0.431,0.118-0.863,0.177-1.295c0.075-0.548,0.15-1.095,0.228-1.644c0.062-0.44,0.125-0.88,0.188-1.321     c0.078-0.548,0.157-1.097,0.237-1.646c0.065-0.443,0.13-0.887,0.196-1.331c0.081-0.546,0.162-1.092,0.245-1.639     c0.069-0.455,0.138-0.91,0.208-1.365c0.082-0.537,0.165-1.075,0.249-1.613c0.072-0.464,0.145-0.928,0.219-1.392     c0.085-0.536,0.171-1.073,0.257-1.61c0.075-0.464,0.15-0.928,0.226-1.392c0.089-0.546,0.179-1.092,0.27-1.638     c0.075-0.453,0.15-0.905,0.227-1.358c0.094-0.562,0.19-1.124,0.286-1.686c0.076-0.445,0.152-0.889,0.228-1.334     c0.098-0.566,0.197-1.133,0.296-1.699c0.078-0.445,0.156-0.89,0.234-1.335c0.101-0.569,0.203-1.139,0.305-1.708     c0.08-0.443,0.159-0.885,0.239-1.328c0.105-0.578,0.211-1.156,0.318-1.734c0.08-0.435,0.159-0.869,0.24-1.304     c0.109-0.587,0.22-1.174,0.331-1.761c0.081-0.427,0.16-0.854,0.242-1.281c0.122-0.642,0.246-1.284,0.37-1.926     c0.071-0.366,0.14-0.731,0.211-1.097c0.17-0.872,0.341-1.744,0.514-2.616c0.027-0.138,0.054-0.276,0.081-0.414     c0.201-1.014,0.405-2.027,0.61-3.04c0.058-0.289,0.118-0.577,0.177-0.865c0.148-0.724,0.295-1.447,0.445-2.17     c0.079-0.382,0.159-0.763,0.239-1.145c0.13-0.623,0.259-1.246,0.39-1.868c0.09-0.429,0.182-0.858,0.273-1.287     c0.123-0.578,0.245-1.157,0.369-1.734c0.094-0.437,0.188-0.873,0.283-1.309c0.123-0.57,0.247-1.141,0.371-1.71     c0.096-0.438,0.192-0.876,0.289-1.314c0.123-0.561,0.247-1.121,0.371-1.681c0.1-0.448,0.2-0.896,0.3-1.343     c0.123-0.548,0.246-1.096,0.369-1.643c0.103-0.454,0.206-0.908,0.309-1.362c0.123-0.54,0.246-1.079,0.37-1.617     c0.104-0.45,0.207-0.9,0.311-1.349c0.126-0.542,0.252-1.084,0.378-1.625c0.104-0.446,0.209-0.891,0.313-1.336     c0.126-0.536,0.253-1.072,0.38-1.607c0.106-0.447,0.213-0.894,0.319-1.341c0.127-0.532,0.255-1.063,0.383-1.594     c0.107-0.443,0.214-0.885,0.321-1.327c0.129-0.53,0.258-1.058,0.387-1.586c0.108-0.441,0.216-0.882,0.324-1.321     c0.129-0.525,0.259-1.047,0.389-1.569c0.109-0.438,0.218-0.877,0.327-1.314c0.134-0.536,0.269-1.07,0.404-1.604     c0.104-0.412,0.208-0.825,0.312-1.236c0.142-0.558,0.284-1.113,0.427-1.668c0.1-0.389,0.199-0.779,0.299-1.166     c0.152-0.589,0.305-1.175,0.457-1.761c0.091-0.349,0.181-0.699,0.272-1.047c0.166-0.635,0.333-1.264,0.5-1.895     c0.079-0.298,0.157-0.597,0.236-0.894c0.243-0.915,0.487-1.825,0.731-2.73c0.065-0.243,0.131-0.482,0.197-0.724     c0.182-0.671,0.363-1.341,0.545-2.007c0.088-0.321,0.176-0.639,0.264-0.959c0.159-0.58,0.319-1.159,0.478-1.734     c0.1-0.359,0.2-0.714,0.299-1.072c0.147-0.527,0.294-1.054,0.441-1.577c0.108-0.382,0.215-0.761,0.323-1.141     c0.14-0.495,0.28-0.99,0.421-1.48c0.11-0.385,0.22-0.767,0.33-1.15c0.139-0.484,0.279-0.968,0.418-1.448     c0.109-0.374,0.217-0.746,0.326-1.118c0.14-0.48,0.28-0.959,0.42-1.435c0.112-0.38,0.223-0.756,0.335-1.133     c0.134-0.453,0.268-0.905,0.403-1.354c0.116-0.388,0.232-0.773,0.347-1.158c0.134-0.444,0.267-0.887,0.401-1.327     c0.114-0.375,0.227-0.748,0.341-1.119c0.134-0.439,0.268-0.875,0.402-1.309c0.114-0.371,0.228-0.74,0.342-1.107     c0.133-0.429,0.266-0.855,0.399-1.28c0.114-0.364,0.227-0.727,0.341-1.087c0.133-0.423,0.266-0.842,0.399-1.26     c0.113-0.354,0.225-0.709,0.338-1.06c0.133-0.415,0.266-0.826,0.398-1.237c0.112-0.347,0.224-0.695,0.336-1.039     c0.137-0.42,0.273-0.835,0.41-1.25c0.105-0.32,0.21-0.641,0.315-0.958c0.14-0.424,0.28-0.843,0.42-1.261     c0.103-0.309,0.207-0.621,0.31-0.926c0.141-0.419,0.282-0.831,0.422-1.244c0.099-0.292,0.199-0.587,0.298-0.877     c0.154-0.449,0.307-0.889,0.46-1.331c0.085-0.246,0.171-0.496,0.256-0.739c0.237-0.679,0.473-1.35,0.709-2.011     c0.002-0.006,0.005-0.013,0.007-0.019c0.233-0.656,0.466-1.302,0.697-1.939c0.076-0.21,0.152-0.414,0.228-0.622     c0.156-0.428,0.313-0.857,0.468-1.276c0.091-0.245,0.181-0.483,0.271-0.725c0.14-0.376,0.281-0.752,0.42-1.12     c0.096-0.253,0.191-0.499,0.286-0.748c0.132-0.345,0.263-0.69,0.394-1.028c0.102-0.264,0.203-0.521,0.305-0.78     c0.122-0.312,0.245-0.625,0.366-0.931c0.103-0.26,0.206-0.515,0.308-0.771c0.12-0.3,0.24-0.599,0.359-0.892     c0.101-0.249,0.202-0.494,0.303-0.739c0.118-0.287,0.236-0.573,0.354-0.854c0.1-0.239,0.199-0.474,0.298-0.708     c0.117-0.276,0.233-0.55,0.349-0.82c0.099-0.23,0.198-0.458,0.296-0.683c0.059-0.136,0.118-0.268,0.177-0.402H230.4     c4.961,3.727,10.761,6.398,17.066,7.678v410.204c-14.109-0.809-27.021-3.593-38.559-7.772     C204.578,486.342,200.746,484.681,197.429,483.023z M303.093,487.91c-11.538,4.18-24.45,6.963-38.559,7.772V85.478     c6.305-1.28,12.105-3.951,17.066-7.678h20.167c0.059,0.134,0.117,0.266,0.177,0.402c0.098,0.226,0.197,0.453,0.296,0.683     c0.116,0.27,0.232,0.544,0.349,0.82c0.099,0.234,0.198,0.469,0.298,0.708c0.117,0.281,0.235,0.567,0.354,0.854     c0.101,0.245,0.201,0.489,0.303,0.739c0.119,0.293,0.239,0.592,0.359,0.892c0.103,0.256,0.205,0.511,0.308,0.771     c0.121,0.306,0.244,0.619,0.366,0.931c0.102,0.259,0.203,0.517,0.305,0.78c0.131,0.338,0.263,0.683,0.394,1.028     c0.095,0.249,0.19,0.495,0.286,0.748c0.139,0.368,0.28,0.745,0.42,1.12c0.09,0.242,0.18,0.48,0.271,0.725     c0.155,0.419,0.312,0.848,0.468,1.276c0.076,0.208,0.151,0.412,0.228,0.622c0.231,0.637,0.464,1.284,0.697,1.939     c0.002,0.006,0.005,0.013,0.007,0.019c0.235,0.661,0.471,1.332,0.709,2.011c0.085,0.243,0.171,0.493,0.256,0.739     c0.153,0.441,0.306,0.882,0.46,1.331c0.099,0.289,0.199,0.584,0.298,0.877c0.141,0.413,0.281,0.825,0.422,1.244     c0.103,0.306,0.207,0.617,0.31,0.926c0.14,0.419,0.28,0.837,0.42,1.261c0.105,0.317,0.21,0.638,0.315,0.958     c0.136,0.415,0.273,0.83,0.41,1.25c0.112,0.344,0.224,0.692,0.336,1.039c0.133,0.411,0.265,0.821,0.398,1.237     c0.112,0.351,0.225,0.706,0.338,1.06c0.133,0.418,0.266,0.838,0.399,1.26c0.114,0.36,0.227,0.723,0.341,1.087     c0.133,0.425,0.266,0.851,0.399,1.28c0.114,0.367,0.228,0.737,0.342,1.107c0.134,0.434,0.268,0.871,0.402,1.309     c0.114,0.372,0.227,0.745,0.341,1.119c0.133,0.44,0.267,0.883,0.401,1.327c0.116,0.385,0.232,0.771,0.348,1.16     c0.134,0.447,0.267,0.897,0.401,1.348c0.112,0.378,0.224,0.757,0.336,1.138c0.14,0.477,0.281,0.957,0.421,1.439     c0.108,0.37,0.216,0.74,0.324,1.113c0.139,0.481,0.279,0.965,0.418,1.449c0.11,0.383,0.22,0.765,0.33,1.15     c0.14,0.491,0.28,0.986,0.421,1.48c0.108,0.38,0.216,0.759,0.323,1.141c0.148,0.527,0.297,1.059,0.445,1.591     c0.098,0.351,0.196,0.7,0.294,1.053c0.164,0.59,0.327,1.184,0.49,1.779c0.084,0.305,0.168,0.608,0.252,0.914     c0.19,0.693,0.379,1.392,0.568,2.092c0.058,0.214,0.116,0.425,0.174,0.64c0.244,0.905,0.488,1.815,0.731,2.73     c0.085,0.319,0.169,0.641,0.253,0.96c0.161,0.608,0.322,1.216,0.482,1.828c0.094,0.36,0.188,0.724,0.283,1.086     c0.149,0.573,0.299,1.146,0.447,1.722c0.102,0.397,0.204,0.796,0.306,1.194c0.14,0.546,0.28,1.091,0.419,1.64     c0.106,0.418,0.212,0.839,0.318,1.259c0.133,0.526,0.266,1.052,0.398,1.581c0.11,0.44,0.22,0.882,0.33,1.324     c0.129,0.52,0.259,1.041,0.388,1.563c0.109,0.442,0.218,0.886,0.326,1.33c0.128,0.523,0.256,1.047,0.384,1.573     c0.108,0.446,0.216,0.893,0.324,1.34c0.127,0.528,0.255,1.057,0.381,1.587c0.106,0.445,0.212,0.891,0.318,1.337     c0.127,0.537,0.255,1.074,0.381,1.612c0.105,0.444,0.209,0.889,0.313,1.334c0.126,0.541,0.252,1.082,0.378,1.625     c0.104,0.449,0.208,0.898,0.311,1.349c0.124,0.538,0.247,1.078,0.37,1.617c0.103,0.453,0.207,0.907,0.309,1.362     c0.124,0.547,0.247,1.095,0.369,1.643c0.1,0.447,0.201,0.895,0.3,1.343c0.124,0.56,0.248,1.12,0.371,1.681     c0.096,0.438,0.193,0.875,0.289,1.314c0.124,0.569,0.248,1.14,0.371,1.71c0.094,0.436,0.189,0.872,0.283,1.309     c0.124,0.577,0.247,1.156,0.369,1.734c0.091,0.429,0.183,0.858,0.273,1.287c0.131,0.621,0.26,1.243,0.39,1.865     c0.08,0.383,0.16,0.765,0.239,1.148c0.15,0.724,0.297,1.448,0.445,2.173c0.059,0.288,0.118,0.575,0.176,0.863     c0.205,1.014,0.409,2.028,0.611,3.043c0.023,0.115,0.045,0.231,0.068,0.346c0.177,0.894,0.353,1.789,0.527,2.684     c0.07,0.358,0.138,0.716,0.207,1.074c0.125,0.649,0.251,1.297,0.374,1.946c0.081,0.427,0.161,0.854,0.241,1.281     c0.111,0.587,0.221,1.174,0.331,1.761c0.081,0.435,0.16,0.87,0.24,1.304c0.106,0.578,0.213,1.156,0.318,1.734     c0.08,0.443,0.16,0.885,0.239,1.328c0.102,0.57,0.205,1.139,0.305,1.708c0.079,0.445,0.157,0.89,0.234,1.335     c0.099,0.567,0.198,1.133,0.296,1.699c0.077,0.445,0.153,0.89,0.228,1.334c0.096,0.563,0.192,1.125,0.286,1.687     c0.076,0.452,0.151,0.903,0.226,1.354c0.091,0.549,0.181,1.098,0.271,1.646c0.075,0.462,0.15,0.924,0.224,1.385     c0.087,0.539,0.173,1.077,0.258,1.615c0.073,0.464,0.147,0.928,0.219,1.391c0.084,0.538,0.167,1.076,0.249,1.613     c0.07,0.455,0.139,0.911,0.208,1.365c0.083,0.547,0.164,1.093,0.245,1.639c0.066,0.444,0.132,0.888,0.196,1.331     c0.08,0.55,0.159,1.098,0.237,1.646c0.063,0.441,0.126,0.882,0.188,1.321c0.077,0.55,0.153,1.099,0.228,1.647     c0.059,0.43,0.119,0.862,0.177,1.291c0.077,0.567,0.151,1.132,0.225,1.696c0.054,0.411,0.109,0.823,0.162,1.232     c0.075,0.579,0.147,1.155,0.22,1.732c0.049,0.392,0.1,0.785,0.148,1.176c0.08,0.65,0.157,1.297,0.235,1.944     c0.037,0.311,0.076,0.624,0.112,0.934c0.113,0.959,0.222,1.915,0.328,2.866c2.806,25.245,0.282,66.003-6.484,119.375     c-2.072,16.341-4.5,33.557-7.316,52.135c-1.943,12.818-3.946,25.499-6.445,40.939c0.008-0.047,0.012-0.072,0.013-0.077     c0.003-0.022-0.057,0.346-0.164,1.004c-0.057,0.348-0.127,0.779-0.209,1.283c-0.026,0.159-0.053,0.324-0.081,0.497     c-0.102,0.625-0.217,1.333-0.344,2.118c-0.01,0.061-0.02,0.124-0.03,0.185c-0.226,1.392-0.487,2.998-0.768,4.725     c-0.068,0.416-0.136,0.838-0.206,1.267c-0.089,0.548-0.179,1.104-0.271,1.668c-0.134,0.823-0.269,1.659-0.406,2.502     c-0.118,0.728-0.237,1.46-0.355,2.191c0,0.001,0,0.003-0.001,0.004c-0.006,0.035-0.011,0.069-0.017,0.103     c-0.145,0.892-0.288,1.78-0.431,2.657c-0.083,0.513-0.165,1.021-0.247,1.524c-0.121,0.745-0.239,1.477-0.354,2.189     c-0.075,0.465-0.149,0.92-0.221,1.366c-0.203,1.257-0.394,2.439-0.564,3.496c-0.516,0.273-1.086,0.567-1.707,0.879     c-0.073,0.037-0.137,0.079-0.208,0.116C311.254,484.681,307.422,486.342,303.093,487.91z M394.793,350.921     c-2.074,14.974-4.508,30.73-7.456,48.549c-1.661,10.04-8.475,49.623-11.051,65.154c-1.172,0.539-2.574,1.161-4.205,1.852     c-6.779,2.873-14.818,5.76-24.071,8.465c-4.4,1.286-8.96,2.496-13.676,3.619c0.018-0.114,0.037-0.226,0.055-0.341     c0.015-0.096,0.031-0.192,0.047-0.288c0.057-0.351,0.114-0.706,0.172-1.063c0.024-0.15,0.049-0.301,0.073-0.452     c0.048-0.294,0.096-0.59,0.144-0.887c0.036-0.22,0.072-0.442,0.107-0.663c0.023-0.14,0.045-0.28,0.068-0.42     c0.135-0.834,0.271-1.672,0.406-2.507c0.033-0.206,0.067-0.412,0.1-0.618c0.055-0.336,0.109-0.671,0.163-1.005     c0.262-1.613,0.518-3.19,0.759-4.678c0.087-0.533,0.171-1.051,0.253-1.557c0.102-0.628,0.199-1.226,0.293-1.804     c0.01-0.064,0.021-0.128,0.031-0.191c0.115-0.705,0.222-1.364,0.321-1.973c0.039-0.242,0.078-0.477,0.114-0.701     c0.013-0.082,0.026-0.157,0.039-0.237c0.105-0.649,0.197-1.214,0.274-1.683c0.035-0.217,0.067-0.412,0.095-0.585     c0.047-0.29,0.085-0.52,0.11-0.676c0.022-0.138,0.037-0.225,0.039-0.241c0-0.002,0.001-0.003,0.001-0.003     c0,0.003-0.003,0.019-0.011,0.066c2.507-15.492,4.519-28.226,6.472-41.109c2.835-18.706,5.282-36.056,7.373-52.546     c6.929-54.66,9.515-96.416,6.515-123.406c-0.18-1.617-0.372-3.248-0.57-4.886c-0.029-0.238-0.057-0.474-0.086-0.712     c-0.191-1.56-0.392-3.129-0.6-4.705c-0.039-0.296-0.078-0.593-0.118-0.889c-0.211-1.577-0.428-3.161-0.654-4.752     c-0.035-0.248-0.072-0.497-0.107-0.745c-0.239-1.664-0.483-3.333-0.738-5.009c-0.008-0.05-0.016-0.101-0.023-0.151     c-0.253-1.659-0.514-3.324-0.782-4.993c-0.036-0.228-0.072-0.455-0.109-0.683c-0.262-1.626-0.533-3.256-0.808-4.889     c-0.051-0.301-0.102-0.602-0.153-0.904c-0.276-1.621-0.558-3.244-0.846-4.87c-0.048-0.272-0.097-0.545-0.146-0.818     c-0.301-1.684-0.606-3.369-0.92-5.055c-0.018-0.097-0.037-0.194-0.055-0.292c-0.309-1.661-0.625-3.323-0.946-4.985     c-0.041-0.214-0.082-0.427-0.123-0.64c-0.32-1.65-0.646-3.299-0.977-4.947c-0.06-0.298-0.119-0.596-0.18-0.894     c-0.328-1.628-0.661-3.255-0.999-4.879c-0.058-0.279-0.117-0.557-0.175-0.836c-0.349-1.671-0.702-3.339-1.061-5.003     c-0.028-0.13-0.057-0.26-0.085-0.391c-0.355-1.643-0.714-3.282-1.078-4.917c-0.04-0.179-0.079-0.357-0.119-0.536     c-0.365-1.636-0.734-3.266-1.107-4.892c-0.066-0.29-0.133-0.58-0.199-0.869c-0.367-1.596-0.738-3.186-1.112-4.769     c-0.065-0.274-0.13-0.547-0.194-0.82c-0.384-1.619-0.771-3.232-1.161-4.836c-0.037-0.153-0.075-0.304-0.112-0.456     c-0.388-1.59-0.778-3.172-1.172-4.745c-0.036-0.142-0.071-0.285-0.106-0.427c-0.397-1.585-0.797-3.157-1.199-4.722     c-0.068-0.265-0.136-0.531-0.204-0.796c-0.391-1.518-0.785-3.026-1.18-4.523c-0.073-0.277-0.146-0.554-0.22-0.83     c-0.402-1.516-0.805-3.022-1.209-4.513c-0.048-0.176-0.096-0.351-0.144-0.527c-0.404-1.485-0.809-2.958-1.215-4.416     c-0.032-0.115-0.064-0.231-0.096-0.346c-0.414-1.484-0.829-2.95-1.244-4.404c-0.069-0.241-0.138-0.482-0.206-0.722     c-0.403-1.405-0.806-2.795-1.21-4.17c-0.075-0.256-0.151-0.512-0.226-0.767c-0.409-1.387-0.818-2.761-1.227-4.115     c-0.051-0.169-0.102-0.336-0.154-0.505c-0.417-1.375-0.833-2.736-1.249-4.074c-0.019-0.061-0.038-0.124-0.057-0.185     c-0.418-1.346-0.836-2.667-1.253-3.974c-0.068-0.212-0.135-0.426-0.203-0.637c-0.401-1.252-0.801-2.483-1.2-3.696     c-0.073-0.223-0.146-0.445-0.22-0.666c-0.402-1.217-0.803-2.417-1.202-3.592c-0.056-0.165-0.111-0.326-0.167-0.489     c-0.411-1.206-0.821-2.394-1.228-3.553c-0.009-0.027-0.019-0.055-0.029-0.082c-0.409-1.164-0.815-2.297-1.219-3.412     c-0.061-0.169-0.123-0.341-0.184-0.509c-0.385-1.057-0.768-2.089-1.148-3.099c-0.072-0.192-0.144-0.383-0.217-0.573     c-0.38-1.003-0.757-1.984-1.131-2.936c-0.02-0.052-0.041-0.109-0.062-0.161h41.277c13.125,29.86,33.056,104.034,39.617,163.076     C403.896,265.863,401.464,302.749,394.793,350.921z"/>
		</g>
	</g>
</g>
<g>
</g>
<g>
</g>
<g>
</g>
<g>
</g>
<g>
</g>
<g>
</g>
<g>
</g>
<g>
</g>
<g>
</g>
<g>
</g>
<g>
</g>
<g>
</g>
<g>
</g>
<g>
</g>
<g>
</g>
</svg>
