<?xml version="1.0" encoding="iso-8859-1"?>
<!-- Generator: Adobe Illustrator 19.0.0, SVG Export Plug-In . SVG Version: 6.00 Build 0)  -->
<svg xmlns="http://www.w3.org/2000/svg" xmlns:xlink="http://www.w3.org/1999/xlink" version="1.1" id="Layer_1" x="0px" y="0px" viewBox="0 0 512.001 512.001" style="enable-background:new 0 0 512.001 512.001;" xml:space="preserve">
<g transform="translate(-1 -1)">
	<g>
		<path d="M477.999,427.541c-8.734-38.576-29.193-96.788-58.595-169.6c-5.13-12.703-10.493-25.75-16.064-39.095    c-17.255-41.33-35.738-83.7-54.22-124.804c-6.469-14.386-12.476-27.587-17.867-39.314c-1.888-4.106-3.564-7.735-5.01-10.851    c-0.378-0.814-0.701-1.511-0.976-2.101V9.533c0-4.713-3.82-8.533-8.533-8.533H282.6h-51.2h-34.133    c-4.713,0-8.533,3.82-8.533,8.533v32.243c-0.274,0.59-0.598,1.286-0.976,2.101c-1.446,3.116-3.122,6.745-5.01,10.851    c-5.392,11.727-11.399,24.928-17.867,39.314c-18.482,41.103-36.965,83.474-54.22,124.804    c-5.571,13.345-10.934,26.392-16.064,39.095c-29.402,72.812-49.861,131.024-58.595,169.6    c-4.903,21.659,10.378,41.239,32.68,42.773c2.095,0.144,5.118,1.201,9.562,3.413c1.89,0.941,7.995,4.251,12.127,6.482    c0.159,0.093,0.322,0.18,0.487,0.263c1.425,0.769,2.567,1.383,3.128,1.676c17.468,9.117,32.164,13.786,49.539,13.786    c14.111,0,28.653,2.418,44.328,7.101c22.193,6.636,45.489,9.966,69.148,9.966s46.954-3.329,69.15-9.966    c15.674-4.683,30.215-7.1,44.327-7.1c17.375,0,32.072-4.669,49.539-13.786c0.567-0.296,1.728-0.92,3.175-1.701    c0.179-0.091,0.358-0.182,0.529-0.285c4.13-2.23,10.161-5.5,12.038-6.434c4.443-2.212,7.466-3.27,9.56-3.413    C467.621,468.78,482.903,449.201,477.999,427.541z M308.2,35.133h-17.067V18.067H308.2V35.133z M274.067,18.067v17.067h-34.133    V18.067H274.067z M205.8,18.067h17.067v17.067H205.8V18.067z M444.148,453.288c-4.855,0.333-9.708,2.031-15.997,5.162    c-0.581,0.289-1.473,0.754-2.539,1.318c-11.129-52.728-54.247-188.143-67.728-207.625c-2.682-3.875-7.997-4.843-11.873-2.162    c-3.875,2.682-4.843,7.997-2.162,11.873c12.289,17.759,57.51,160.801,66.048,206.3c-14.229,7.188-25.969,10.714-39.421,10.714    c-15.892,0-32.044,2.685-49.214,7.815c-6.95,2.078-14.023,3.799-21.188,5.178c0.026-0.809,0.055-1.66,0.086-2.569    c0.039-1.125,0.54-15.144,0.703-20.028c1.208-36.207,1.459-65.745,0.261-95.23c-1.377-33.898-4.635-62.531-10.246-84.975    c-1.143-4.572-5.776-7.352-10.348-6.209c-4.572,1.143-7.352,5.776-6.209,10.348c5.279,21.114,8.416,48.692,9.75,81.528    c1.177,28.979,0.929,58.146-0.266,93.968c-0.162,4.858-0.663,18.867-0.703,20.012c-0.075,2.199-0.136,4.099-0.185,5.768    c-8.554,0.967-17.206,1.459-25.919,1.459c-11.364,0-22.627-0.831-33.698-2.474c0.291-3.632,0.731-8.354,1.352-14.603    c0.317-3.189,1.559-15.466,1.711-16.983c0.753-7.494,1.359-13.696,1.946-19.967c2.866-30.641,4.666-57.075,5.297-82.468    c0.647-25.999-0.027-49.152-2.26-69.251c-0.52-4.684-4.739-8.059-9.423-7.539s-8.059,4.74-7.539,9.424    c2.138,19.241,2.79,41.656,2.161,66.942c-0.62,24.942-2.396,51.017-5.229,81.303c-0.582,6.226-1.185,12.393-1.934,19.851    c-0.151,1.504-1.394,13.794-1.713,17.001c-0.532,5.356-0.937,9.631-1.232,13.114c-4.611-1.055-9.182-2.25-13.699-3.6    c-17.172-5.13-33.324-7.816-49.216-7.816c-13.699,0-25.625-3.66-40.21-11.117c1.397-46.486,17.427-117.344,50.521-190.152    c1.95-4.29,0.053-9.349-4.237-11.3c-4.29-1.95-9.349-0.053-11.3,4.237C106.173,341.213,89.63,410.3,86.642,458.853    c-0.299-0.154-0.573-0.294-0.792-0.403c-6.289-3.131-11.142-4.829-15.998-5.162c-12.037-0.828-19.754-10.715-17.204-21.978    c8.474-37.429,28.698-94.971,57.774-166.978c5.104-12.639,10.442-25.625,15.988-38.91c17.19-41.174,35.613-83.408,54.037-124.38    c6.448-14.341,12.436-27.498,17.808-39.184c1.653-3.596,3.143-6.823,4.456-9.657h108.58c1.313,2.834,2.803,6.061,4.456,9.657    c5.372,11.685,11.36,24.843,17.808,39.184c18.423,40.973,36.847,83.206,54.037,124.38c5.546,13.285,10.884,26.271,15.988,38.91    c29.077,72.007,49.3,129.549,57.774,166.978C463.904,442.573,456.187,452.46,444.148,453.288z"/>
	</g>
</g>
<g>
</g>
<g>
</g>
<g>
</g>
<g>
</g>
<g>
</g>
<g>
</g>
<g>
</g>
<g>
</g>
<g>
</g>
<g>
</g>
<g>
</g>
<g>
</g>
<g>
</g>
<g>
</g>
<g>
</g>
</svg>
