<?xml version="1.0" encoding="iso-8859-1"?>
<!-- Generator: Adobe Illustrator 19.0.0, SVG Export Plug-In . SVG Version: 6.00 Build 0)  -->
<svg xmlns="http://www.w3.org/2000/svg" xmlns:xlink="http://www.w3.org/1999/xlink" version="1.1" id="Layer_1" x="0px" y="0px" viewBox="0 0 512 512" style="enable-background:new 0 0 512 512;" xml:space="preserve">
<g transform="translate(-1 -1)">
	<g>
		<g>
			<circle cx="205.8" cy="299.667" r="8.533"/>
			<circle cx="222.867" cy="325.267" r="8.533"/>
			<circle cx="188.733" cy="325.267" r="8.533"/>
			<circle cx="205.8" cy="350.867" r="8.533"/>
			<circle cx="171.667" cy="350.867" r="8.533"/>
			<circle cx="239.933" cy="402.067" r="8.533"/>
			<circle cx="257" cy="427.667" r="8.533"/>
			<circle cx="239.933" cy="453.267" r="8.533"/>
			<circle cx="222.867" cy="376.467" r="8.533"/>
			<circle cx="188.733" cy="376.467" r="8.533"/>
			<circle cx="205.8" cy="402.067" r="8.533"/>
			<circle cx="171.667" cy="402.067" r="8.533"/>
			<circle cx="222.867" cy="427.667" r="8.533"/>
			<circle cx="188.733" cy="427.667" r="8.533"/>
			<circle cx="205.8" cy="453.267" r="8.533"/>
			<circle cx="222.867" cy="478.867" r="8.533"/>
			<circle cx="257" cy="478.867" r="8.533"/>
			<circle cx="257" cy="325.267" r="8.533"/>
			<circle cx="239.933" cy="299.667" r="8.533"/>
			<circle cx="239.933" cy="350.867" r="8.533"/>
			<circle cx="257" cy="376.467" r="8.533"/>
			<circle cx="222.867" cy="274.067" r="8.533"/>
			<circle cx="308.2" cy="299.667" r="8.533"/>
			<circle cx="291.133" cy="325.267" r="8.533"/>
			<circle cx="325.267" cy="325.267" r="8.533"/>
			<circle cx="308.2" cy="350.867" r="8.533"/>
			<circle cx="342.333" cy="350.867" r="8.533"/>
			<circle cx="274.067" cy="402.067" r="8.533"/>
			<circle cx="274.067" cy="453.267" r="8.533"/>
			<circle cx="291.133" cy="376.467" r="8.533"/>
			<circle cx="325.267" cy="376.467" r="8.533"/>
			<circle cx="308.2" cy="402.067" r="8.533"/>
			<circle cx="342.333" cy="402.067" r="8.533"/>
			<circle cx="291.133" cy="427.667" r="8.533"/>
			<circle cx="325.267" cy="427.667" r="8.533"/>
			<circle cx="308.2" cy="453.267" r="8.533"/>
			<circle cx="291.133" cy="478.867" r="8.533"/>
			<circle cx="274.067" cy="299.667" r="8.533"/>
			<circle cx="274.067" cy="350.867" r="8.533"/>
			<circle cx="291.133" cy="274.067" r="8.533"/>
			<path d="M376.255,362.13c-2.436-46.838-18.362-85.973-50.988-117.349v-27.243c3.627-4.556,7.977-11.904,12.19-22.436     c8.109-20.271,13.028-46.54,13.376-79.433c14.499-13.762,25.668-28.056,25.668-37.87c0-22.07-15.876-35.383-49.665-40.387     c-0.52-0.135-1.06-0.227-1.616-0.262c-0.05-0.003-0.099,0-0.148-0.002c-9.831-1.346-21.126-2.015-33.938-2.015     c-4.708,0-8.533-3.825-8.533-8.533V9.533c0-4.713-3.82-8.533-8.533-8.533h-34.133c-4.713,0-8.533,3.82-8.533,8.533V26.6     c0,4.712-3.82,8.533-8.533,8.533c-12.812,0-24.107,0.669-33.938,2.015c-0.05,0.002-0.099-0.001-0.149,0.002     c-0.557,0.035-1.096,0.127-1.616,0.262c-33.789,5.004-49.665,18.317-49.665,40.387c0,9.812,11.151,24.081,25.668,37.868     c0.348,32.893,5.268,59.163,13.376,79.434c4.213,10.532,8.563,17.88,12.19,22.436v27.243     c-32.626,31.376-48.552,70.51-50.988,117.349c-1.914,36.809,3.818,73.888,17.107,127.329c0.705,2.835,2.811,5.112,5.583,6.036     c0.445,0.148,1.261,0.413,2.421,0.778c1.907,0.6,4.099,1.267,6.547,1.983c6.973,2.041,14.619,4.08,22.709,5.983     c15.616,3.674,30.977,6.398,45.445,7.776C244.345,512.663,250.839,513,257,513c6.161,0,12.655-0.337,19.443-0.984     c14.467-1.378,29.829-4.102,45.445-7.776c8.09-1.904,15.736-3.943,22.709-5.983c2.448-0.716,4.64-1.383,6.547-1.983     c1.159-0.365,1.976-0.63,2.421-0.778c2.771-0.924,4.878-3.201,5.583-6.036C372.436,436.018,378.169,398.939,376.255,362.13z      M359.434,77.8c0,2.85-8.524,13.71-18.251,23.416c-0.29-0.154-0.588-0.291-0.881-0.439c-0.372-0.188-0.742-0.377-1.118-0.557     c-0.495-0.237-0.994-0.461-1.495-0.682c-0.371-0.164-0.74-0.332-1.114-0.488c-0.522-0.218-1.05-0.419-1.578-0.621     c-0.361-0.138-0.72-0.282-1.084-0.413c-0.572-0.205-1.151-0.391-1.729-0.578c-0.326-0.105-0.65-0.22-0.978-0.319     c-0.4-0.121-0.804-0.226-1.207-0.338l2.61-41.262C351.784,59.568,359.434,67.21,359.434,77.8z M248.467,26.6v-8.533h17.067V26.6     c0,14.134,11.466,25.6,25.6,25.6c9.237,0,17.377,0.318,24.525,0.933l-2.622,41.461c-0.044,0-0.089,0.003-0.133,0.003     c-0.549,0.007-1.099,0.019-1.649,0.04c-0.43,0.017-0.861,0.039-1.292,0.064c-0.549,0.032-1.097,0.071-1.647,0.118     c-0.433,0.036-0.866,0.076-1.299,0.121c-0.551,0.057-1.102,0.124-1.653,0.195c-0.431,0.056-0.861,0.112-1.292,0.176     c-0.559,0.083-1.117,0.178-1.675,0.276c-0.422,0.074-0.844,0.145-1.265,0.227c-0.575,0.112-1.148,0.238-1.722,0.365     c-0.404,0.089-0.808,0.173-1.211,0.27c-0.606,0.145-1.211,0.308-1.815,0.47c-0.37,0.099-0.74,0.19-1.109,0.296     c-0.697,0.199-1.391,0.419-2.085,0.64c-0.274,0.088-0.55,0.165-0.824,0.257c-0.967,0.322-1.93,0.664-2.89,1.029     c-0.184,0.07-0.366,0.15-0.55,0.222c-0.773,0.302-1.545,0.61-2.313,0.94c-0.342,0.147-0.681,0.309-1.023,0.461     c-0.606,0.271-1.211,0.542-1.813,0.831c-0.382,0.184-0.761,0.38-1.141,0.571c-0.556,0.279-1.112,0.558-1.664,0.852     c-0.395,0.21-0.786,0.432-1.178,0.65c-0.532,0.296-1.062,0.593-1.589,0.903c-0.399,0.234-0.794,0.478-1.19,0.72     c-0.514,0.315-1.026,0.634-1.536,0.962c-0.397,0.257-0.792,0.52-1.187,0.785c-0.501,0.337-0.999,0.679-1.495,1.029     c-0.392,0.277-0.781,0.557-1.17,0.842c-0.491,0.361-0.979,0.73-1.465,1.104c-0.382,0.294-0.763,0.59-1.141,0.893     c-0.485,0.389-0.966,0.788-1.444,1.19c-0.367,0.309-0.735,0.616-1.099,0.933c-0.484,0.421-0.96,0.856-1.437,1.292     c-0.348,0.318-0.698,0.632-1.042,0.958c-0.492,0.466-0.974,0.947-1.458,1.428c-0.317,0.315-0.637,0.624-0.95,0.946     c-0.529,0.544-1.046,1.107-1.564,1.669c-0.256,0.279-0.518,0.548-0.772,0.832c-0.765,0.855-1.519,1.729-2.257,2.627     c-0.738-0.897-1.492-1.771-2.257-2.627c-0.253-0.283-0.515-0.552-0.771-0.831c-0.518-0.563-1.036-1.126-1.564-1.67     c-0.313-0.322-0.634-0.631-0.95-0.946c-0.483-0.481-0.966-0.962-1.457-1.428c-0.344-0.326-0.695-0.641-1.043-0.959     c-0.476-0.435-0.952-0.869-1.435-1.29c-0.364-0.317-0.732-0.624-1.1-0.933c-0.479-0.402-0.959-0.801-1.444-1.19     c-0.378-0.303-0.759-0.599-1.141-0.893c-0.485-0.374-0.972-0.743-1.463-1.103c-0.389-0.285-0.779-0.566-1.171-0.843     c-0.495-0.35-0.993-0.692-1.494-1.029c-0.395-0.265-0.79-0.528-1.187-0.785c-0.509-0.328-1.021-0.647-1.534-0.962     c-0.396-0.243-0.792-0.486-1.191-0.721c-0.527-0.31-1.057-0.607-1.589-0.902c-0.393-0.218-0.784-0.44-1.179-0.651     c-0.552-0.294-1.108-0.573-1.664-0.852c-0.38-0.191-0.758-0.387-1.14-0.571c-0.602-0.289-1.208-0.56-1.814-0.831     c-0.341-0.153-0.679-0.314-1.021-0.461c-0.762-0.328-1.529-0.634-2.297-0.934c-0.189-0.074-0.377-0.156-0.567-0.229     c-0.959-0.365-1.921-0.707-2.887-1.028c-0.277-0.092-0.556-0.171-0.834-0.26c-0.691-0.22-1.382-0.439-2.075-0.637     c-0.37-0.106-0.741-0.197-1.112-0.297c-0.604-0.162-1.207-0.324-1.812-0.469c-0.405-0.097-0.811-0.182-1.216-0.271     c-0.572-0.126-1.144-0.252-1.717-0.363c-0.423-0.082-0.847-0.154-1.271-0.228c-0.557-0.097-1.113-0.192-1.67-0.275     c-0.432-0.064-0.863-0.121-1.295-0.177c-0.55-0.071-1.1-0.138-1.65-0.195c-0.434-0.045-0.867-0.085-1.301-0.121     c-0.549-0.046-1.097-0.085-1.645-0.118c-0.432-0.025-0.863-0.048-1.294-0.065c-0.55-0.021-1.099-0.033-1.648-0.04     c-0.045-0.001-0.09-0.003-0.135-0.003l-2.622-41.461c7.149-0.615,15.288-0.933,24.525-0.933     C237.007,52.2,248.467,40.736,248.467,26.6z M154.566,77.8c0-10.59,7.65-18.232,26.825-22.283l2.61,41.262     c-0.402,0.112-0.807,0.217-1.206,0.338c-0.329,0.1-0.653,0.214-0.979,0.319c-0.578,0.186-1.156,0.373-1.728,0.578     c-0.364,0.13-0.723,0.275-1.084,0.412c-0.528,0.202-1.056,0.404-1.579,0.621c-0.374,0.156-0.743,0.323-1.113,0.487     c-0.501,0.222-1.001,0.446-1.495,0.683c-0.375,0.18-0.746,0.369-1.118,0.557c-0.292,0.148-0.59,0.285-0.88,0.439     C163.084,91.497,154.566,80.647,154.566,77.8z M180.232,116.623c0.075-0.042,0.148-0.088,0.223-0.129     c0.294-0.16,0.594-0.307,0.891-0.459c0.387-0.198,0.774-0.396,1.168-0.58c0.311-0.145,0.626-0.279,0.941-0.416     c0.391-0.17,0.783-0.34,1.181-0.498c0.323-0.128,0.65-0.247,0.976-0.367c0.398-0.146,0.797-0.289,1.2-0.423     c0.334-0.11,0.671-0.213,1.008-0.315c0.404-0.122,0.81-0.24,1.219-0.349c0.342-0.092,0.687-0.178,1.033-0.261     c0.412-0.099,0.826-0.192,1.242-0.279c0.349-0.073,0.698-0.141,1.049-0.205c0.027-0.005,0.054-0.009,0.081-0.013     c0.359,0.023,0.721,0.031,1.089,0.008c0.81-0.051,1.582-0.221,2.311-0.479c0.046-0.005,0.092-0.011,0.138-0.015     c0.357-0.034,0.714-0.068,1.073-0.094c0.437-0.031,0.876-0.052,1.315-0.07c0.357-0.015,0.715-0.032,1.074-0.039     c0.447-0.008,0.897-0.004,1.346,0c0.355,0.004,0.709,0.004,1.065,0.015c0.461,0.015,0.924,0.045,1.386,0.073     c0.347,0.021,0.694,0.037,1.042,0.066c0.483,0.04,0.967,0.097,1.451,0.152c0.33,0.038,0.66,0.068,0.991,0.112     c0.528,0.071,1.056,0.161,1.584,0.249c0.288,0.048,0.576,0.087,0.865,0.14c0.706,0.13,1.412,0.281,2.117,0.442     c0.111,0.025,0.222,0.044,0.333,0.07c0.817,0.192,1.633,0.406,2.449,0.639c0.255,0.073,0.508,0.16,0.763,0.237     c0.56,0.17,1.121,0.339,1.68,0.528c0.317,0.107,0.633,0.229,0.949,0.343c0.494,0.177,0.988,0.353,1.48,0.545     c0.341,0.134,0.68,0.281,1.02,0.422c0.466,0.193,0.931,0.384,1.394,0.591c0.35,0.156,0.697,0.325,1.046,0.489     c0.45,0.212,0.9,0.423,1.347,0.648c0.354,0.178,0.705,0.367,1.056,0.553c0.437,0.231,0.874,0.464,1.308,0.708     c0.354,0.199,0.705,0.407,1.057,0.615c0.427,0.252,0.853,0.507,1.277,0.771c0.351,0.219,0.7,0.446,1.049,0.674     c0.418,0.273,0.835,0.551,1.249,0.837c0.346,0.239,0.691,0.483,1.034,0.731c0.409,0.295,0.817,0.596,1.221,0.904     c0.34,0.258,0.679,0.52,1.016,0.787c0.401,0.318,0.799,0.644,1.195,0.974c0.332,0.276,0.663,0.555,0.991,0.84     c0.393,0.342,0.783,0.693,1.171,1.048c0.321,0.294,0.643,0.587,0.96,0.889c0.386,0.368,0.767,0.747,1.147,1.127     c0.309,0.309,0.619,0.616,0.924,0.933c0.38,0.396,0.753,0.804,1.126,1.213c0.294,0.322,0.59,0.64,0.88,0.971     c0.377,0.429,0.745,0.874,1.114,1.316c0.274,0.329,0.552,0.653,0.822,0.99c0.38,0.475,0.75,0.966,1.122,1.456     c0.246,0.325,0.498,0.642,0.74,0.973c0.405,0.555,0.798,1.128,1.191,1.701c0.196,0.285,0.398,0.561,0.591,0.851     c0.58,0.872,1.147,1.763,1.698,2.676c3.319,5.499,11.294,5.499,14.612,0c0.551-0.913,1.118-1.804,1.698-2.676     c0.193-0.29,0.395-0.566,0.591-0.851c0.393-0.573,0.786-1.147,1.191-1.701c0.242-0.331,0.494-0.649,0.74-0.973     c0.371-0.489,0.741-0.981,1.122-1.456c0.27-0.337,0.548-0.66,0.822-0.99c0.369-0.443,0.737-0.887,1.114-1.316     c0.29-0.33,0.586-0.648,0.88-0.971c0.373-0.409,0.746-0.817,1.126-1.213c0.305-0.317,0.615-0.624,0.924-0.933     c0.38-0.38,0.761-0.759,1.147-1.127c0.317-0.302,0.639-0.596,0.96-0.889c0.388-0.354,0.777-0.706,1.171-1.048     c0.328-0.285,0.659-0.563,0.991-0.84c0.396-0.33,0.794-0.656,1.195-0.974c0.337-0.267,0.676-0.529,1.016-0.787     c0.405-0.307,0.812-0.609,1.221-0.904c0.343-0.248,0.688-0.492,1.034-0.731c0.414-0.286,0.831-0.563,1.249-0.837     c0.349-0.228,0.698-0.454,1.049-0.674c0.424-0.264,0.85-0.519,1.277-0.771c0.352-0.207,0.703-0.415,1.057-0.615     c0.434-0.244,0.871-0.477,1.308-0.708c0.352-0.186,0.703-0.375,1.056-0.553c0.447-0.225,0.897-0.437,1.347-0.648     c0.348-0.164,0.696-0.332,1.046-0.489c0.463-0.207,0.929-0.398,1.394-0.591c0.34-0.141,0.679-0.288,1.02-0.422     c0.492-0.193,0.986-0.368,1.48-0.545c0.317-0.114,0.632-0.236,0.949-0.343c0.559-0.189,1.119-0.358,1.68-0.528     c0.255-0.077,0.508-0.164,0.763-0.237c0.815-0.233,1.632-0.447,2.449-0.639c0.111-0.026,0.222-0.045,0.333-0.07     c0.706-0.161,1.412-0.312,2.117-0.442c0.288-0.053,0.576-0.092,0.865-0.14c0.528-0.088,1.057-0.178,1.584-0.249     c0.331-0.044,0.66-0.074,0.991-0.112c0.484-0.055,0.968-0.112,1.451-0.152c0.348-0.029,0.695-0.045,1.042-0.066     c0.463-0.029,0.926-0.058,1.386-0.073c0.356-0.012,0.71-0.012,1.065-0.015c0.45-0.004,0.899-0.009,1.346,0     c0.359,0.007,0.716,0.024,1.074,0.039c0.439,0.019,0.878,0.039,1.315,0.07c0.359,0.026,0.716,0.06,1.073,0.094     c0.046,0.004,0.092,0.01,0.138,0.015c0.729,0.258,1.501,0.427,2.311,0.479c0.368,0.023,0.731,0.015,1.09-0.008     c0.027,0.005,0.054,0.008,0.081,0.013c0.351,0.064,0.701,0.133,1.049,0.205c0.416,0.087,0.83,0.18,1.242,0.279     c0.346,0.083,0.69,0.169,1.033,0.261c0.409,0.109,0.815,0.227,1.219,0.349c0.337,0.102,0.674,0.204,1.008,0.315     c0.403,0.133,0.802,0.277,1.2,0.423c0.327,0.12,0.653,0.238,0.976,0.367c0.397,0.158,0.789,0.327,1.181,0.498     c0.314,0.137,0.63,0.271,0.941,0.416c0.394,0.184,0.781,0.382,1.168,0.58c0.298,0.152,0.598,0.299,0.891,0.459     c0.075,0.041,0.148,0.087,0.223,0.129c-0.422,30.298-4.94,54.1-12.157,72.142c-2.58,6.451-5.305,11.627-7.977,15.636     c-0.347,0.521-0.668,0.985-0.965,1.402h-30.07c-0.064-9.437-7.728-17.068-17.18-17.068h-16.836     c-9.453,0-17.108,7.633-17.172,17.068h-30.079c-0.297-0.417-0.617-0.881-0.965-1.402c-2.673-4.009-5.397-9.185-7.977-15.636     C185.173,170.722,180.654,146.92,180.232,116.623z M282.604,222.868H308.2v17.067h-25.596V222.868z M265.538,214.25     c0,0.029-0.004,0.056-0.004,0.085v34.133c0,0.029,0.004,0.056,0.004,0.085v8.328c0,0.066-0.054,0.12-0.119,0.12h-16.836     c-0.062,0-0.111-0.049-0.111-0.12v-50.961c0-0.07,0.049-0.119,0.111-0.119h16.836c0.066,0,0.119,0.054,0.119,0.119V214.25z      M205.8,222.868h25.6v17.067h-25.6V222.868z M350.479,450.718c-1.085-3.467-4.322-5.985-8.145-5.985     c-4.71,0-8.533,3.823-8.533,8.533s3.823,8.533,8.533,8.533c2.566,0,4.862-1.14,6.427-2.934c-1.532,7.08-3.209,14.351-5.034,21.84     c-1.149,0.35-2.461,0.742-3.924,1.17c-2.507,0.734-5.107,1.468-7.787,2.195c1.114-1.442,1.784-3.244,1.784-5.205     c0-4.71-3.823-8.533-8.533-8.533s-8.533,3.823-8.533,8.533c0,3.501,2.114,6.509,5.133,7.824     c-1.285,0.315-2.578,0.628-3.887,0.936c-14.915,3.509-29.54,6.103-43.154,7.4c-6.273,0.597-12.231,0.907-17.825,0.907     c-5.594,0-11.552-0.31-17.825-0.907c-13.614-1.297-28.239-3.89-43.154-7.4c-1.31-0.308-2.603-0.621-3.887-0.936     c3.019-1.315,5.133-4.323,5.133-7.824c0-4.71-3.823-8.533-8.533-8.533s-8.533,3.823-8.533,8.533c0,1.961,0.67,3.764,1.784,5.205     c-2.68-0.727-5.28-1.461-7.787-2.195c-1.463-0.428-2.775-0.82-3.924-1.17c-1.825-7.489-3.502-14.761-5.034-21.84     c1.565,1.794,3.861,2.934,6.427,2.934c4.71,0,8.533-3.823,8.533-8.533s-3.823-8.533-8.533-8.533c-3.823,0-7.06,2.518-8.145,5.985     c-1.168-5.716-2.228-11.294-3.185-16.749c1.714-1.561,2.796-3.803,2.796-6.302c0-3.477-2.086-6.464-5.071-7.794     c-1.795-12.276-2.982-23.877-3.515-34.875c0.018,0,0.035,0.003,0.052,0.003c4.71,0,8.533-3.823,8.533-8.533     s-3.823-8.533-8.533-8.533c-0.115,0-0.226,0.013-0.34,0.017c0.393-23.148,4.17-43.489,11.844-61.823     c1.495,1.288,3.436,2.072,5.562,2.072c4.71,0,8.533-3.823,8.533-8.533c0-4.115-2.918-7.552-6.797-8.355     c2.466-4.314,5.187-8.517,8.165-12.622c1.52,2.35,4.159,3.911,7.165,3.911c4.71,0,8.533-3.823,8.533-8.533     c0-3.633-2.278-6.729-5.479-7.96c2.786-3.086,5.733-6.12,8.857-9.105h30.766c0.066,9.434,7.72,17.065,17.172,17.065h16.836     c9.451,0,17.114-7.63,17.18-17.065h30.757c3.124,2.985,6.071,6.02,8.857,9.105c-3.201,1.231-5.479,4.327-5.479,7.96     c0,4.71,3.823,8.533,8.533,8.533c3.006,0,5.645-1.56,7.165-3.911c2.978,4.105,5.699,8.307,8.165,12.622     c-3.879,0.803-6.797,4.24-6.797,8.355c0,4.71,3.823,8.533,8.533,8.533c2.126,0,4.067-0.784,5.562-2.072     c7.675,18.334,11.451,38.674,11.844,61.823c-0.114-0.005-0.225-0.017-0.34-0.017c-4.71,0-8.533,3.823-8.533,8.533     S354.69,385,359.4,385c0.018,0,0.035-0.003,0.052-0.003c-0.533,10.998-1.72,22.599-3.515,34.875     c-2.985,1.329-5.071,4.317-5.071,7.794c0,2.499,1.083,4.741,2.796,6.302C352.706,439.424,351.647,445.002,350.479,450.718z"/>
		</g>
	</g>
</g>
<g>
</g>
<g>
</g>
<g>
</g>
<g>
</g>
<g>
</g>
<g>
</g>
<g>
</g>
<g>
</g>
<g>
</g>
<g>
</g>
<g>
</g>
<g>
</g>
<g>
</g>
<g>
</g>
<g>
</g>
</svg>
