<?xml version="1.0" encoding="iso-8859-1"?>
<!-- Generator: Adobe Illustrator 19.0.0, SVG Export Plug-In . SVG Version: 6.00 Build 0)  -->
<svg xmlns="http://www.w3.org/2000/svg" xmlns:xlink="http://www.w3.org/1999/xlink" version="1.1" id="Layer_1" x="0px" y="0px" viewBox="0 0 512 512" style="enable-background:new 0 0 512 512;" xml:space="preserve">
<g transform="translate(0 -1)">
	<g>
		<path d="M374.359,327.926c-0.843-1.488-16.423-27.091-19.423-33.485c-3.436-7.325-5.069-13.662-5.069-20.374    c0-13.786,5.583-36.165,16.604-70.339c19.142-21.391,23.611-59.854,8.689-111.131c-0.076-0.277-0.168-0.547-0.27-0.811    c-0.002-0.005-0.003-0.011-0.005-0.016C362.191,59.186,358.4,40.134,358.4,9.533c0-4.713-3.821-8.533-8.533-8.533    c-4.713,0-8.533,3.82-8.533,8.533c0,29.755,3.466,49.921,14.155,79.188C324.997,97.48,282.611,124.7,256,150.884    c-26.637-26.209-69.073-53.458-99.484-62.176c10.686-29.26,14.151-49.424,14.151-79.175c0-4.713-3.82-8.533-8.533-8.533    s-8.533,3.82-8.533,8.533c0,30.582-3.787,49.63-16.462,82.176c-0.001,0.002-0.002,0.004-0.003,0.006    c-0.007,0.018-0.013,0.035-0.02,0.053c-0.002,0.005-0.003,0.011-0.005,0.016c-0.059,0.152-0.108,0.31-0.158,0.467    c-0.025,0.076-0.055,0.149-0.078,0.227c-0.009,0.032-0.018,0.064-0.027,0.097c-0.002,0.007-0.005,0.013-0.007,0.02    c-0.001,0.002-0.001,0.005-0.001,0.007c0,0.002-0.001,0.004-0.001,0.006c-14.916,51.35-10.437,89.836,8.739,111.202    c10.928,33.906,16.557,56.413,16.557,70.256c0,6.712-1.632,13.05-5.069,20.374c-3,6.395-18.58,31.997-19.423,33.485    c-17.686,31.228-26.708,62.79-26.708,108.274c0,4.23,3.099,7.822,7.284,8.441c0.966,0.143,2.877,0.466,5.597,0.989    c4.588,0.883,9.715,2.011,15.243,3.403c15.782,3.974,31.554,9.256,46.204,15.986c25.204,11.579,44.275,26.179,54.892,43.843    c1.543,2.567,4.319,4.137,7.314,4.137h17.067c2.995,0,5.771-1.57,7.314-4.137c10.617-17.665,29.688-32.264,54.892-43.843    c14.65-6.73,30.422-12.012,46.204-15.986c5.528-1.392,10.654-2.519,15.243-3.403c2.72-0.524,4.631-0.846,5.597-0.989    c4.185-0.619,7.284-4.211,7.284-8.441C401.067,390.716,392.045,359.155,374.359,327.926z M360.851,104.9    c10.877,41.813,7.226,70.907-6.55,86.739c-0.48,0.34-0.944,0.732-1.381,1.197c-15.465,16.434-41.738,15.884-61.849,4.093    c-11.966-7.123-21.601-18.156-25.639-31.341C290.134,140.283,332.963,112.555,360.851,104.9z M246.568,165.588    c-4.039,13.185-13.673,24.218-25.64,31.341c-20.111,11.791-46.383,12.34-61.848-4.094c-0.437-0.464-0.901-0.857-1.381-1.197    c-13.776-15.832-17.427-44.926-6.55-86.739C179.037,112.555,221.866,140.283,246.568,165.588z M368.776,432.483    c-16.729,4.213-33.467,9.818-49.161,17.028c-26.185,12.03-46.821,27.296-59.755,46.423h-7.72    c-12.934-19.127-33.57-34.393-59.755-46.423c-15.694-7.21-32.432-12.815-49.161-17.028c-5.44-1.37-10.524-2.5-15.144-3.409    c0.882-38.554,9.052-65.617,24.412-92.737c0.429-0.757,16.561-27.266,20.024-34.647c4.433-9.45,6.684-18.19,6.684-27.623    c0-12.962-3.695-30.415-11.088-55.229c2.679,0.963,5.474,1.762,8.39,2.384c19.196,4.09,39.658-0.694,56.143-11.5    c0.551-0.358,1.1-0.717,1.642-1.088c0.162-0.112,0.321-0.226,0.482-0.339c8.459-5.884,15.815-13.414,21.23-22.32    c5.415,8.906,12.77,16.435,21.228,22.318c0.163,0.114,0.324,0.23,0.488,0.343c0.541,0.37,1.089,0.729,1.638,1.085    c16.485,10.807,36.948,15.591,56.144,11.501c2.926-0.624,5.724-1.436,8.412-2.403c-7.438,24.943-11.11,42.328-11.11,55.249    c0,9.433,2.251,18.173,6.684,27.623c3.463,7.381,19.595,33.891,20.024,34.647c15.359,27.12,23.53,54.183,24.412,92.737    C379.299,429.983,374.216,431.113,368.776,432.483z"/>
	</g>
</g>
<g>
</g>
<g>
</g>
<g>
</g>
<g>
</g>
<g>
</g>
<g>
</g>
<g>
</g>
<g>
</g>
<g>
</g>
<g>
</g>
<g>
</g>
<g>
</g>
<g>
</g>
<g>
</g>
<g>
</g>
</svg>
