<?xml version="1.0" encoding="iso-8859-1"?>
<!-- Generator: Adobe Illustrator 19.0.0, SVG Export Plug-In . SVG Version: 6.00 Build 0)  -->
<svg xmlns="http://www.w3.org/2000/svg" xmlns:xlink="http://www.w3.org/1999/xlink" version="1.1" id="Layer_1" x="0px" y="0px" viewBox="0 0 512.18 512.18" style="enable-background:new 0 0 512.18 512.18;" xml:space="preserve">
<g transform="translate(0 -1)">
	<g>
		<path d="M383.946,485.837c-0.149-0.801-0.428-2.293-0.821-4.383c-0.654-3.48-1.388-7.358-2.185-11.534    c-2.276-11.932-4.596-23.866-6.826-35.009c-0.429-2.142-0.851-4.237-1.265-6.283c-2.311-11.401-4.347-21.028-6.039-28.458    c-13.939-61.238-24.118-183.348-8.83-225.603c18.198-50.298,10.481-96.222-8.792-134.449c-0.218-0.521-0.552-1.297-1.016-2.346    c-0.913-2.064-2.007-4.446-3.282-7.118c-3.624-7.591-7.99-16.016-13.108-25.06c-1.509-2.666-4.33-4.319-7.394-4.331L256.123,1    L187.79,1.265c-3.063,0.012-5.885,1.665-7.394,4.331c-5.118,9.044-9.484,17.47-13.108,25.06c-1.276,2.672-2.369,5.053-3.282,7.118    c-0.464,1.049-0.797,1.825-1.016,2.346c-19.272,38.226-26.99,84.15-8.792,134.449c15.289,42.255,5.109,164.365-8.83,225.603    c-1.691,7.43-3.728,17.057-6.039,28.458c-0.415,2.046-0.836,4.141-1.265,6.283c-2.23,11.143-4.551,23.077-6.826,35.009    c-0.796,4.176-1.53,8.053-2.185,11.534c-0.393,2.09-0.672,3.582-0.821,4.383c-0.583,3.132,0.628,6.328,3.14,8.288    c30.914,24.12,83.452,26.807,113.39-0.414c1.926-1.751,2.947-4.285,2.774-6.881c-0.066-0.995-0.191-2.885-0.366-5.556    c-0.291-4.454-0.616-9.474-0.966-14.953c-0.999-15.653-1.998-31.84-2.931-47.691c-0.34-5.787-0.666-11.436-0.976-16.92    c-2.076-36.793-3.276-63.756-3.276-76.446c0-12.954,3.579-35.555,11.529-76.832c0.557-2.888,0.557-2.888,1.115-5.774    c1.673-8.643,3.139-16.244,4.422-22.961c1.283,6.717,2.749,14.319,4.422,22.961c0.558,2.886,0.558,2.886,1.115,5.774    c7.95,41.277,11.529,63.878,11.529,76.832c0,12.69-1.201,39.653-3.276,76.446c-0.309,5.484-0.635,11.133-0.976,16.92    c-0.932,15.851-1.932,32.037-2.931,47.691c-0.35,5.479-0.674,10.499-0.966,14.953c-0.175,2.671-0.3,4.561-0.366,5.556    c-0.173,2.597,0.849,5.131,2.775,6.882c29.946,27.219,82.475,24.533,113.389,0.413    C383.318,492.165,384.529,488.969,383.946,485.837z M182.69,38.009c2.88-6.031,6.262-12.639,10.152-19.697l63.281-0.245    l63.215,0.245c3.89,7.058,7.273,13.666,10.152,19.697c0.513,1.074,0.981,2.068,1.405,2.981c-0.388,0.228-0.776,0.456-1.19,0.677    c-0.021,0.011-0.041,0.023-0.062,0.034c-0.566,0.301-1.159,0.595-1.774,0.884c-0.087,0.041-0.18,0.081-0.268,0.121    c-0.513,0.237-1.043,0.469-1.589,0.697c-0.16,0.067-0.324,0.133-0.487,0.2c-0.513,0.208-1.039,0.413-1.579,0.614    c-0.157,0.058-0.311,0.118-0.471,0.176c-1.405,0.51-2.896,0.997-4.474,1.458c-0.15,0.044-0.307,0.086-0.458,0.13    c-0.633,0.181-1.279,0.359-1.939,0.532c-0.23,0.06-0.462,0.12-0.695,0.179c-0.625,0.159-1.262,0.315-1.91,0.467    c-0.226,0.053-0.449,0.107-0.677,0.159c-0.841,0.192-1.696,0.38-2.573,0.561c-0.026,0.005-0.05,0.011-0.076,0.016    c-0.901,0.185-1.826,0.362-2.764,0.535c-0.28,0.051-0.567,0.1-0.85,0.151c-0.658,0.117-1.324,0.232-1.999,0.342    c-0.359,0.059-0.72,0.117-1.083,0.174c-0.636,0.1-1.281,0.197-1.932,0.291c-0.37,0.054-0.737,0.109-1.111,0.161    c-0.788,0.109-1.589,0.214-2.397,0.315c-0.21,0.026-0.414,0.055-0.626,0.081c-12.966,1.587-24.415,1.985-41.024,1.981    c-0.406,0-0.406,0-0.796,0c-0.391,0-0.391,0-0.796,0c-16.609,0.004-28.059-0.394-41.024-1.981    c-0.275-0.034-0.542-0.071-0.815-0.106c-0.731-0.093-1.459-0.187-2.174-0.286c-0.408-0.057-0.808-0.116-1.211-0.175    c-0.613-0.089-1.222-0.18-1.822-0.275c-0.39-0.061-0.778-0.123-1.163-0.187c-0.637-0.105-1.264-0.213-1.886-0.323    c-0.318-0.056-0.64-0.111-0.955-0.169c-0.921-0.17-1.829-0.344-2.714-0.525c-0.076-0.016-0.149-0.033-0.225-0.048    c-0.823-0.17-1.629-0.346-2.42-0.527c-0.253-0.058-0.499-0.117-0.748-0.176c-0.62-0.146-1.231-0.295-1.83-0.448    c-0.253-0.064-0.505-0.129-0.755-0.195c-0.634-0.167-1.256-0.338-1.866-0.512c-0.173-0.049-0.35-0.097-0.52-0.147    c-0.793-0.232-1.569-0.469-2.319-0.714c-0.012-0.004-0.023-0.008-0.036-0.012c-0.719-0.235-1.414-0.477-2.092-0.723    c-0.17-0.062-0.335-0.125-0.503-0.187c-0.528-0.197-1.044-0.397-1.546-0.601c-0.171-0.069-0.342-0.139-0.509-0.209    c-0.535-0.224-1.053-0.451-1.556-0.683c-0.098-0.045-0.201-0.089-0.298-0.135c-0.612-0.287-1.201-0.58-1.764-0.879    c-0.028-0.015-0.054-0.03-0.082-0.045c-0.409-0.219-0.792-0.444-1.175-0.669C181.709,40.077,182.177,39.082,182.69,38.009z     M281.956,483.644c0.374-5.719,0.7-10.748,1.05-16.236c1.001-15.68,2.002-31.894,2.936-47.776    c0.341-5.801,0.668-11.463,0.978-16.961c2.096-37.148,3.303-64.269,3.303-77.407c0-14.53-3.625-37.424-11.837-80.06    c-0.559-2.898-0.559-2.898-1.119-5.791c-8.078-41.721-11.261-58.966-12.26-69.13c1.346-0.361,2.744-0.781,4.21-1.27    c1.947-0.649,3.968-1.398,6.041-2.227c2.481-0.993,4.914-2.05,7.207-3.108c1.386-0.639,2.431-1.144,3.04-1.449    c4.215-2.108,5.924-7.233,3.816-11.449c-2.108-4.215-7.233-5.924-11.449-3.816c-0.458,0.229-1.345,0.657-2.56,1.218    c-2.041,0.942-4.208,1.884-6.393,2.758c-1.779,0.712-3.491,1.346-5.1,1.882c-3.467,1.156-6.251,1.774-7.731,1.774    c-1.48,0-4.264-0.619-7.731-1.774c-1.609-0.536-3.321-1.17-5.1-1.882c-2.185-0.874-4.353-1.816-6.393-2.758    c-1.214-0.56-2.102-0.989-2.56-1.218c-4.215-2.108-9.341-0.399-11.449,3.816c-2.108,4.215-0.399,9.341,3.816,11.449    c0.609,0.305,1.655,0.809,3.04,1.449c2.293,1.058,4.725,2.116,7.207,3.108c2.073,0.829,4.094,1.578,6.041,2.227    c1.466,0.489,2.864,0.909,4.21,1.27c-0.998,10.163-4.182,27.409-12.26,69.13c-0.56,2.893-0.56,2.893-1.119,5.791    c-8.212,42.636-11.837,65.53-11.837,80.06c0,13.137,1.208,40.259,3.303,77.407c0.31,5.498,0.637,11.16,0.978,16.961    c0.934,15.882,1.935,32.096,2.936,47.776c0.35,5.488,0.676,10.517,0.968,14.98c-22.428,18.606-60.009,17.065-84.13,1.243    c0.604-3.21,1.273-6.739,1.992-10.513c2.267-11.885,4.578-23.77,6.797-34.857c0.426-2.129,0.845-4.211,1.257-6.242    c2.286-11.279,4.297-20.785,5.953-28.06c14.661-64.41,25.029-188.787,8.237-235.197c-14.967-41.368-10.375-79.596,3.859-112.196    c0.286,0.156,0.585,0.305,0.878,0.458c0.237,0.124,0.47,0.249,0.711,0.371c0.724,0.365,1.465,0.721,2.226,1.065    c0.216,0.098,0.441,0.191,0.661,0.288c0.594,0.261,1.198,0.517,1.813,0.766c0.29,0.118,0.583,0.234,0.878,0.349    c0.659,0.257,1.33,0.507,2.012,0.751c0.198,0.071,0.39,0.145,0.59,0.215c0.859,0.3,1.739,0.588,2.634,0.869    c0.291,0.091,0.588,0.179,0.882,0.269c0.68,0.206,1.369,0.407,2.069,0.603c0.298,0.083,0.595,0.168,0.897,0.25    c0.957,0.259,1.927,0.51,2.92,0.751c0.159,0.039,0.325,0.074,0.485,0.113c0.875,0.208,1.764,0.409,2.666,0.604    c0.311,0.067,0.624,0.133,0.939,0.199c0.875,0.182,1.762,0.359,2.661,0.53c0.208,0.039,0.411,0.081,0.621,0.12    c1.115,0.207,2.25,0.404,3.402,0.593c0.227,0.037,0.458,0.072,0.686,0.109c0.98,0.157,1.973,0.308,2.978,0.453    c0.257,0.037,0.512,0.074,0.77,0.11c1.22,0.171,2.451,0.336,3.708,0.49c13.859,1.698,25.86,2.116,43.128,2.112    c0.392,0,0.392,0,0.768,0c0.375,0,0.375,0,0.767,0c17.267,0.004,29.271-0.414,43.131-2.113c1.244-0.153,2.464-0.316,3.671-0.485    c0.286-0.04,0.568-0.081,0.852-0.122c0.969-0.14,1.926-0.285,2.872-0.436c0.257-0.041,0.516-0.081,0.771-0.122    c1.135-0.186,2.253-0.381,3.352-0.584c0.241-0.045,0.475-0.092,0.714-0.138c0.863-0.164,1.715-0.333,2.555-0.509    c0.337-0.07,0.673-0.141,1.006-0.213c0.865-0.187,1.717-0.38,2.557-0.579c0.192-0.046,0.39-0.089,0.581-0.135    c0.98-0.238,1.938-0.486,2.882-0.741c0.32-0.086,0.633-0.176,0.949-0.264c0.677-0.19,1.345-0.385,2.004-0.584    c0.312-0.094,0.626-0.188,0.933-0.284c0.885-0.278,1.756-0.563,2.605-0.86c0.217-0.076,0.426-0.156,0.641-0.233    c0.664-0.238,1.317-0.481,1.958-0.731c0.305-0.119,0.606-0.239,0.906-0.361c0.603-0.244,1.193-0.495,1.775-0.75    c0.23-0.101,0.465-0.198,0.691-0.301c0.756-0.343,1.492-0.696,2.212-1.059c0.248-0.125,0.488-0.254,0.731-0.381    c0.288-0.15,0.583-0.297,0.865-0.451c14.234,32.601,18.826,70.829,3.859,112.197c-16.792,46.41-6.424,170.787,8.237,235.197    c1.656,7.275,3.667,16.781,5.953,28.06c0.412,2.032,0.831,4.114,1.257,6.242c2.219,11.087,4.53,22.971,6.797,34.857    c0.72,3.774,1.388,7.303,1.992,10.513C342.048,499.453,304.473,500.993,281.956,483.644z"/>
	</g>
</g>
<g>
</g>
<g>
</g>
<g>
</g>
<g>
</g>
<g>
</g>
<g>
</g>
<g>
</g>
<g>
</g>
<g>
</g>
<g>
</g>
<g>
</g>
<g>
</g>
<g>
</g>
<g>
</g>
<g>
</g>
</svg>
