<?xml version="1.0" encoding="iso-8859-1"?>
<!-- Generator: Adobe Illustrator 19.0.0, SVG Export Plug-In . SVG Version: 6.00 Build 0)  -->
<svg xmlns="http://www.w3.org/2000/svg" xmlns:xlink="http://www.w3.org/1999/xlink" version="1.1" id="Layer_1" x="0px" y="0px" viewBox="0 0 512 512" style="enable-background:new 0 0 512 512;" xml:space="preserve">
<g transform="translate(0 -1)">
	<g>
		<path d="M344.91,63.772c-4.329-10.101-8.695-17.804-12.11-22.824V9.533c0-4.713-3.82-8.533-8.533-8.533H187.733    c-4.713,0-8.533,3.82-8.533,8.533v31.414c-3.415,5.02-7.781,12.723-12.11,22.824C158.659,83.445,153.6,105.366,153.6,129    c0,20.667,3.451,45.898,11.194,88.959c0.52,2.893,1.063,5.893,1.744,9.634c10,55.002,12.662,72.305,12.662,89.14v14.251    c0,7.835,0.501,15.623,1.504,23.405c8.746,67.444,15.563,128.348,15.563,150.077c0,4.713,3.82,8.533,8.533,8.533h34.133    c4.713,0,8.533-3.82,8.533-8.533c0-25.965-0.768-57.052-2.219-95.14c-0.568-14.9-1.22-30.408-2.057-49.239    c-0.237-5.325-0.479-10.725-0.796-17.726c-0.392-8.647-0.604-13.323-0.771-17.03c-0.605-13.401-1.011-22.668-1.365-31.218    c-0.89-21.51-1.326-35.99-1.326-45.647c0-16.458,3.005-27.82,12.257-52.514c1.851-4.94,3.427-9.271,4.809-13.277    c1.382,4.006,2.958,8.336,4.746,13.109c9.316,24.862,12.32,36.224,12.32,52.682c0,9.657-0.436,24.138-1.326,45.647    c-0.354,8.55-0.761,17.817-1.365,31.218c-0.167,3.707-0.379,8.383-0.771,17.03c-0.317,7-0.56,12.401-0.796,17.726    c-0.837,18.831-1.489,34.339-2.057,49.239c-1.451,38.087-2.219,69.175-2.219,95.14c0,4.713,3.82,8.533,8.533,8.533H307.2    c4.713,0,8.533-3.82,8.533-8.533c0-21.73,6.817-82.633,15.562-150.071c1.004-7.789,1.504-15.577,1.504-23.412v-14.251    c0-16.835,2.662-34.138,12.662-89.14c0.68-3.74,1.223-6.74,1.744-9.634C354.949,174.898,358.4,149.667,358.4,129    C358.4,105.366,353.341,83.445,344.91,63.772z M315.733,35.133h-25.6V18.067h25.6V35.133z M238.933,35.133V18.068h34.133v17.065    H238.933z M196.267,18.067h25.6v17.067h-25.6V18.067z M330.409,214.939c-0.518,2.881-1.059,5.871-1.738,9.601    c-10.266,56.465-12.938,73.828-12.938,92.193v14.251c0,7.105-0.454,14.165-1.364,21.224    c-7.951,61.314-14.233,116.402-15.478,143.725h-17.265c0.146-23.946,0.892-52.169,2.179-85.957    c0.566-14.859,1.217-30.333,2.052-49.131c0.236-5.319,0.479-10.716,0.796-17.712c0.392-8.645,0.604-13.323,0.771-17.032    c0.605-13.421,1.013-22.705,1.368-31.282c0.899-21.736,1.341-36.39,1.341-46.353c0-19.102-3.408-31.988-13.343-58.502    c-7.772-20.744-11.134-32.082-12.012-44.875c7.444-1.538,15.293-4.791,21.573-9.002c3.914-2.625,4.96-7.926,2.335-11.84    c-2.625-3.914-7.926-4.96-11.84-2.335C270.679,126.049,261.962,129,256,129c-6.934,0-14.439-2.482-20.616-6.927    c-3.826-2.753-9.158-1.883-11.911,1.943c-2.753,3.826-1.883,9.158,1.943,11.911c6.548,4.711,14.112,7.906,21.794,9.316    c-0.893,12.726-4.249,24.034-11.938,44.554c-9.998,26.682-13.406,39.569-13.406,58.671c0,9.962,0.441,24.617,1.341,46.353    c0.355,8.576,0.763,17.861,1.368,31.282c0.167,3.709,0.379,8.387,0.771,17.032c0.317,6.996,0.559,12.392,0.796,17.712    c0.836,18.798,1.486,34.273,2.052,49.131c1.287,33.788,2.033,62.011,2.179,85.957h-17.265    c-1.245-27.324-7.527-82.412-15.479-143.732c-0.909-7.053-1.363-14.112-1.363-21.217v-14.251c0-18.365-2.671-35.728-12.938-92.193    c-0.678-3.731-1.22-6.72-1.738-9.601c-7.559-42.035-10.925-66.646-10.925-85.939c0-21.166,4.541-40.845,12.11-58.505    c2.643-6.166,5.466-11.625,8.274-16.304c0.437-0.729,0.846-1.393,1.221-1.99h38.094c0.011,0,0.022,0.002,0.034,0.002h51.2    c0.011,0,0.022-0.002,0.034-0.002h38.094c0.376,0.598,0.784,1.262,1.221,1.99c2.808,4.68,5.631,10.139,8.274,16.304    c7.569,17.661,12.11,37.339,12.11,58.505C341.333,148.293,337.967,172.904,330.409,214.939z"/>
	</g>
</g>
<g>
</g>
<g>
</g>
<g>
</g>
<g>
</g>
<g>
</g>
<g>
</g>
<g>
</g>
<g>
</g>
<g>
</g>
<g>
</g>
<g>
</g>
<g>
</g>
<g>
</g>
<g>
</g>
<g>
</g>
</svg>
