<?xml version="1.0" encoding="iso-8859-1"?>
<!-- Generator: Adobe Illustrator 19.0.0, SVG Export Plug-In . SVG Version: 6.00 Build 0)  -->
<svg xmlns="http://www.w3.org/2000/svg" xmlns:xlink="http://www.w3.org/1999/xlink" version="1.1" id="Layer_1" x="0px" y="0px" viewBox="0 0 511.083 511.083" style="enable-background:new 0 0 511.083 511.083;" xml:space="preserve">
<g transform="translate(0 -1)">
	<g>
		<path d="M370.412,87.193c-2.86-10.011-5.926-19.309-8.995-27.665c-1.078-2.936-2.082-5.549-2.987-7.81    c-0.551-1.378-0.953-2.346-1.18-2.876c-0.043-0.099-0.094-0.193-0.14-0.29c-0.026-0.055-0.044-0.111-0.071-0.165    c-0.233-0.466-0.7-1.43-1.366-2.859c-1.129-2.42-2.392-5.238-3.756-8.419c-3.911-9.125-7.826-19.306-11.481-30.27    c-2.006-6.018-9.644-7.821-14.129-3.336c-6.82,6.82-25.717,11.451-49.466,13.504c-5.839-4.671-13.241-7.47-21.3-7.47    c-8.06,0-15.461,2.799-21.3,7.47c-23.749-2.053-42.645-6.684-49.466-13.504c-4.486-4.486-12.123-2.682-14.129,3.336    c-3.655,10.964-7.571,21.145-11.481,30.27c-1.364,3.182-2.627,6-3.756,8.419c-0.667,1.429-1.133,2.393-1.366,2.859    c-0.044,0.088-0.074,0.179-0.115,0.268c-0.03,0.065-0.064,0.126-0.092,0.191c-0.227,0.529-0.628,1.497-1.18,2.876    c-0.905,2.261-1.909,4.874-2.987,7.81c-3.069,8.356-6.135,17.653-8.995,27.665c-8.2,28.701-13.128,57.448-13.128,84.478    c0,17.234,3.914,38.308,11.029,62.495c4.13,14.042,9.253,28.826,15.147,44.052c5.664,14.633,11.728,28.882,17.793,42.191    c2.124,4.661,4.098,8.875,5.872,12.571c0.264,0.55,0.51,1.06,0.737,1.529c-9.397,31.411-10.013,68.789-4.248,107.937    c2.157,14.648,5.121,28.672,8.334,40.43c1.306,4.781,2.591,8.935,3.694,11.997c0.554,1.537,1.06,2.797,1.531,3.78    c2.368,4.948,3.287,6.61,6.744,6.295c4.975,2.83,10.338,4.777,16.005,5.911c12.507,2.501,25.533,0.989,38.136-2.991    c2.811-0.888,5.232-1.78,7.231-2.595c1.997,0.815,4.415,1.705,7.221,2.591c12.604,3.98,25.629,5.493,38.136,2.991    c6.863-1.373,13.28-3.939,19.103-7.821l-0.434-0.651c16.276-15.553,29.146-114.366,13.391-167.878    c0.227-0.469,0.472-0.978,0.736-1.528c1.774-3.696,3.748-7.909,5.872-12.571c6.065-13.309,12.129-27.559,17.793-42.191    c5.894-15.225,11.017-30.01,15.147-44.052c7.114-24.188,11.029-45.261,11.029-62.495    C383.54,144.64,378.612,115.894,370.412,87.193z M327.95,22.874c2.701,7.432,5.489,14.446,8.28,20.957    c0.348,0.811,0.689,1.6,1.025,2.367c-0.283,0.058-0.567,0.115-0.851,0.172c-1.297,0.259-2.599,0.507-3.906,0.746    c-0.433,0.079-0.864,0.162-1.298,0.238c-1.702,0.301-3.413,0.588-5.138,0.857c-0.341,0.053-0.685,0.101-1.027,0.153    c-1.416,0.215-2.841,0.42-4.275,0.614c-0.538,0.073-1.078,0.144-1.618,0.214c-1.392,0.18-2.794,0.351-4.207,0.512    c-0.411,0.047-0.817,0.098-1.23,0.143c-1.796,0.198-3.61,0.382-5.444,0.552c-0.423,0.039-0.852,0.074-1.277,0.111    c-1.457,0.129-2.926,0.251-4.409,0.363c-0.574,0.044-1.149,0.086-1.727,0.127c-1.546,0.11-3.107,0.211-4.685,0.304    c-0.379,0.022-0.753,0.048-1.134,0.07c-1.937,0.109-3.902,0.205-5.891,0.29c-0.139,0.006-0.281,0.01-0.42,0.016    c0.299-1.242,0.528-2.51,0.687-3.801c0.01-0.083,0.022-0.166,0.032-0.249c0.062-0.534,0.11-1.072,0.147-1.614    c0.009-0.134,0.023-0.268,0.031-0.403c0.036-0.644,0.059-1.292,0.059-1.945c0-0.831-0.04-1.653-0.099-2.469    c-0.012-0.159-0.023-0.319-0.036-0.478c-0.071-0.831-0.167-1.654-0.297-2.467c-0.001-0.009-0.003-0.017-0.005-0.026    c-0.141-0.883-0.32-1.753-0.528-2.612c-0.001-0.003-0.001-0.005-0.002-0.008c-0.211-0.87-0.455-1.727-0.731-2.57    C304.341,31.108,317.999,27.918,327.95,22.874z M267.55,31.549c0.064,0.07,0.114,0.146,0.181,0.215    c1.945,1.997,3.362,4.389,4.152,7c0.008,0.028,0.014,0.058,0.022,0.086c0.145,0.488,0.27,0.983,0.371,1.484    c0.039,0.199,0.06,0.405,0.093,0.607c0.056,0.342,0.118,0.683,0.152,1.03c0.055,0.559,0.086,1.125,0.086,1.698    c0,0.546-0.031,1.084-0.082,1.617c-0.038,0.39-0.098,0.776-0.164,1.16c-0.018,0.112-0.031,0.226-0.052,0.338    c-0.576,2.998-1.977,5.788-4.087,8.157c0,0,0,0.001-0.001,0.001c0,0-0.001,0.001-0.001,0.001    c-2.865,3.219-6.686,5.236-10.859,5.693c-0.004,0-0.008,0.001-0.012,0.002c-0.596,0.065-1.2,0.098-1.809,0.098    c-0.38,0-0.751-0.032-1.125-0.057c-0.214-0.014-0.431-0.012-0.643-0.035c-0.129-0.013-0.253-0.042-0.382-0.058    c-4.044-0.526-7.742-2.508-10.527-5.638c-0.001-0.001-0.002-0.002-0.002-0.002c-0.001-0.001-0.002-0.003-0.003-0.005    c-2.11-2.37-3.512-5.159-4.087-8.157c-0.021-0.111-0.033-0.225-0.052-0.338c-0.065-0.384-0.126-0.77-0.164-1.16    c-0.05-0.533-0.082-1.071-0.082-1.617c0-0.573,0.031-1.139,0.086-1.698c0.035-0.35,0.097-0.694,0.154-1.039    c0.032-0.199,0.052-0.401,0.091-0.598c0.101-0.502,0.226-0.997,0.371-1.485c0.008-0.028,0.014-0.058,0.022-0.086    c0.79-2.611,2.207-5.003,4.152-7c0.067-0.069,0.117-0.145,0.181-0.215c3.084-3.056,7.325-4.945,12.01-4.945    C260.225,26.604,264.466,28.493,267.55,31.549z M183.13,22.874c9.95,5.044,23.609,8.234,39.973,10.167    c-0.276,0.842-0.52,1.699-0.73,2.568c-0.001,0.004-0.002,0.007-0.003,0.011c-0.208,0.858-0.386,1.728-0.527,2.61    c-0.001,0.009-0.003,0.017-0.005,0.026c-0.13,0.813-0.226,1.636-0.297,2.467c-0.014,0.159-0.025,0.318-0.036,0.478    c-0.058,0.816-0.099,1.638-0.099,2.469c0,0.653,0.023,1.301,0.059,1.945c0.008,0.135,0.021,0.269,0.031,0.403    c0.037,0.541,0.085,1.078,0.146,1.611c0.01,0.084,0.021,0.169,0.032,0.253c0.159,1.291,0.388,2.559,0.687,3.802    c-0.029-0.001-0.059-0.002-0.088-0.003c-2.176-0.091-4.32-0.196-6.434-0.316c-0.083-0.005-0.163-0.01-0.246-0.015    c-1.882-0.108-3.736-0.23-5.573-0.362c-0.438-0.031-0.875-0.064-1.311-0.097c-1.64-0.124-3.263-0.257-4.87-0.401    c-0.312-0.028-0.628-0.053-0.939-0.082c-1.871-0.173-3.721-0.361-5.553-0.563c-0.378-0.042-0.751-0.088-1.127-0.131    c-1.444-0.165-2.878-0.339-4.301-0.524c-0.527-0.068-1.054-0.138-1.578-0.208c-1.46-0.198-2.91-0.406-4.351-0.625    c-0.317-0.048-0.637-0.092-0.953-0.142c-1.742-0.271-3.47-0.56-5.188-0.865c-0.392-0.069-0.781-0.144-1.172-0.215    c-1.376-0.251-2.746-0.512-4.11-0.785c-0.248-0.049-0.495-0.1-0.743-0.15c0.336-0.768,0.677-1.557,1.025-2.368    C177.641,37.32,180.429,30.307,183.13,22.874z M213.526,494.127c-4.059-0.812-7.819-2.199-11.267-4.214    c-0.095-0.25-0.196-0.524-0.303-0.82c-0.937-2.6-2.092-6.335-3.287-10.71c-3.034-11.107-5.857-24.46-7.912-38.418    c-5.621-38.174-4.804-74.35,4.639-103.529c0.689-2.129,0.514-4.443-0.486-6.444c-0.38-0.76-1.11-2.248-2.139-4.393    c-1.726-3.596-3.652-7.707-5.728-12.263c-5.935-13.024-11.871-26.975-17.407-41.275c-5.733-14.809-10.704-29.155-14.689-42.706    c-6.694-22.76-10.335-42.361-10.335-57.68c0-25.237,4.672-52.49,12.472-79.789c2.74-9.589,5.674-18.491,8.605-26.469    c0.415-1.129,0.817-2.205,1.205-3.226c0.342,0.075,0.687,0.143,1.029,0.216c0.418,0.089,0.836,0.176,1.254,0.264    c0.975,0.203,1.952,0.402,2.931,0.594c0.466,0.092,0.933,0.183,1.401,0.272c0.962,0.184,1.927,0.361,2.894,0.534    c0.458,0.082,0.915,0.166,1.374,0.246c1.084,0.188,2.174,0.368,3.265,0.544c0.331,0.053,0.66,0.11,0.991,0.162    c1.424,0.224,2.856,0.438,4.295,0.642c0.285,0.04,0.574,0.076,0.86,0.116c1.152,0.159,2.308,0.315,3.472,0.461    c0.487,0.061,0.978,0.119,1.466,0.178c0.983,0.119,1.969,0.236,2.961,0.347c0.523,0.058,1.05,0.115,1.576,0.171    c0.993,0.106,1.991,0.208,2.994,0.305c0.496,0.048,0.993,0.096,1.492,0.143c1.11,0.103,2.228,0.201,3.351,0.294    c0.388,0.032,0.774,0.066,1.164,0.097c1.509,0.121,3.029,0.235,4.564,0.339c0.001,0,0.003,0,0.004,0    c3.289,0.224,6.643,0.409,10.063,0.562c0.062,0.003,0.125,0.005,0.188,0.008c1.624,0.072,3.266,0.136,4.924,0.193    c0.127,0.004,0.254,0.008,0.381,0.013c1.649,0.055,3.315,0.104,4.998,0.146c0.066,0.002,0.133,0.003,0.199,0.005    c0.594,0.014,1.18,0.032,1.778,0.044c4.008,3.594,8.868,6.258,14.244,7.641v413.56c-1.137,0.42-2.42,0.862-3.83,1.308    C233.081,494.785,222.789,495.98,213.526,494.127z M356.138,229.35c-3.986,13.551-8.957,27.897-14.689,42.706    c-5.536,14.301-11.472,28.251-17.407,41.275c-2.076,4.555-4.002,8.667-5.728,12.263c-1.03,2.145-1.759,3.633-2.139,4.393    c-1.008,2.016-1.177,4.349-0.471,6.49c9.42,28.551,10.237,64.488,4.623,102.778c-2.053,14.004-4.872,27.453-7.914,38.742    c-1.196,4.439-2.355,8.255-3.303,10.953c-0.129,0.366-0.25,0.703-0.363,1.005c-3.427,1.99-7.161,3.363-11.188,4.168    c-9.263,1.853-19.555,0.657-29.65-2.531c-1.411-0.445-2.693-0.888-3.83-1.308V76.728c5.377-1.384,10.237-4.049,14.246-7.644    c0.326-0.007,0.644-0.017,0.968-0.024c0.663-0.015,1.321-0.032,1.978-0.049c1.042-0.027,2.076-0.058,3.104-0.09    c0.643-0.021,1.286-0.041,1.924-0.064c1.063-0.038,2.117-0.08,3.166-0.124c0.577-0.024,1.158-0.047,1.732-0.073    c1.239-0.056,2.466-0.119,3.687-0.184c0.365-0.02,0.737-0.036,1.101-0.057c1.573-0.088,3.132-0.185,4.677-0.289    c0.401-0.027,0.795-0.058,1.195-0.086c1.142-0.081,2.281-0.164,3.409-0.253c0.553-0.044,1.101-0.092,1.651-0.138    c0.971-0.082,1.939-0.166,2.9-0.255c0.583-0.054,1.163-0.11,1.742-0.167c0.93-0.091,1.856-0.185,2.777-0.283    c0.574-0.061,1.148-0.122,1.718-0.186c0.952-0.106,1.898-0.219,2.842-0.333c0.516-0.063,1.035-0.123,1.549-0.188    c1.129-0.143,2.251-0.293,3.37-0.448c0.318-0.044,0.639-0.084,0.956-0.129c1.431-0.203,2.855-0.415,4.271-0.638    c0.364-0.057,0.724-0.12,1.087-0.178c1.051-0.17,2.1-0.343,3.144-0.524c0.508-0.088,1.014-0.181,1.52-0.272    c0.901-0.162,1.8-0.326,2.697-0.497c0.542-0.103,1.084-0.21,1.625-0.316c0.866-0.171,1.73-0.346,2.593-0.526    c0.54-0.112,1.08-0.225,1.619-0.341c0.289-0.062,0.58-0.12,0.868-0.183c0.388,1.021,0.79,2.097,1.204,3.225    c2.931,7.978,5.865,16.88,8.605,26.469c7.8,27.299,12.472,54.552,12.472,79.789C366.473,186.99,362.832,206.59,356.138,229.35z"/>
	</g>
</g>
<g>
</g>
<g>
</g>
<g>
</g>
<g>
</g>
<g>
</g>
<g>
</g>
<g>
</g>
<g>
</g>
<g>
</g>
<g>
</g>
<g>
</g>
<g>
</g>
<g>
</g>
<g>
</g>
<g>
</g>
</svg>
