<?xml version="1.0" encoding="iso-8859-1"?>
<!-- Generator: Adobe Illustrator 19.0.0, SVG Export Plug-In . SVG Version: 6.00 Build 0)  -->
<svg xmlns="http://www.w3.org/2000/svg" xmlns:xlink="http://www.w3.org/1999/xlink" version="1.1" id="Layer_1" x="0px" y="0px" viewBox="0 0 503.872 503.872" style="enable-background:new 0 0 503.872 503.872;" xml:space="preserve">
<g transform="translate(0 -1)">
	<g>
		<path d="M369.051,31.462l-8.995-24.916c-1.607-4.453-6.577-6.696-10.98-4.956c-8.428,3.331-72.062,7.806-96.94,7.806    c-24.87,0-88.504-4.475-96.931-7.806c-4.402-1.74-9.371,0.502-10.979,4.954l-9.029,24.987    c-12.003,27.473-21.635,103.871-16.107,145.783c2.459,18.678,6.794,41.605,18.549,100.419    c14.444,72.269,19.494,100.194,19.494,112.163c0,9.421-1.746,22.599-5.217,41.659c-0.537,2.948-1.113,6.035-1.804,9.674    c-6.793,35.795-7.315,38.835-7.315,46.594c0,3.302,1.936,6.297,4.947,7.653c27.693,12.472,55.103,12.493,90.145,0.272    c3.584-1.25,5.884-4.75,5.607-8.536c-0.062-0.855-0.18-2.484-0.344-4.799c-0.274-3.86-0.58-8.232-0.909-13.028    c-0.941-13.704-1.882-28.057-2.76-42.36c-0.494-8.054-0.955-15.875-1.376-23.392c-1.677-29.95-2.628-53.36-2.628-67.588    c0-16.237,3.491-43.84,11.508-96.355c0.46-3.014,0.46-3.014,0.922-6.026c1.561-10.188,2.94-19.225,4.155-27.276    c1.192,8.045,2.545,17.074,4.076,27.253c0.453,3.012,0.453,3.012,0.905,6.026c7.874,52.525,11.302,80.13,11.302,96.378    c0,14.229-0.951,37.639-2.628,67.588c-0.421,7.517-0.882,15.338-1.376,23.392c-0.878,14.303-1.819,28.656-2.76,42.36    c-0.329,4.796-0.635,9.168-0.909,13.028c-0.164,2.315-0.282,3.943-0.344,4.799c-0.276,3.786,2.023,7.286,5.607,8.536    c35.042,12.221,62.452,12.2,90.145-0.272c3.011-1.356,4.947-4.351,4.947-7.653c0-7.759-0.522-10.798-7.315-46.594    c-0.691-3.639-1.267-6.726-1.804-9.674c-3.471-19.06-5.217-32.238-5.217-41.659c0-11.97,5.056-39.939,19.456-111.993    c11.798-59.032,16.125-81.918,18.587-100.591C390.292,135.177,380.953,58.627,369.051,31.462z M157.498,19.213    c21.465,3.707,71.378,6.969,94.639,6.969c23.266,0,73.178-3.262,94.645-6.969l4.199,11.633    c-9.224,4.445-23.155,7.742-40.404,9.798c-14.803,1.765-30.262,2.479-44.404,2.515c-3.599,0.007-7.119-0.026-10.516-0.098    c-1.561-0.033-2.647-0.066-3.198-0.086c-1.188,0.021-2.274,0.054-3.835,0.086c-3.405,0.072-6.934,0.105-10.542,0.098    c-14.138-0.037-29.591-0.751-44.388-2.516c-17.246-2.057-31.174-5.353-40.399-9.797L157.498,19.213z M368.091,175.118    c-2.39,18.129-6.71,40.975-18.366,99.298c-14.95,74.805-19.821,101.751-19.821,115.48c0,10.737,1.843,24.647,5.488,44.666    c0.545,2.994,1.129,6.12,1.827,9.796c4.514,23.788,6.161,32.657,6.734,37.995c-20.194,7.754-40.49,7.674-66.416-0.444    c0.243-3.443,0.509-7.254,0.792-11.375c0.944-13.742,1.887-28.134,2.768-42.481c0.496-8.083,0.959-15.934,1.382-23.482    c1.694-30.25,2.655-53.892,2.655-68.527c0-17.467-3.452-45.262-11.487-98.867c-0.453-3.019-0.453-3.019-0.907-6.035    c-8.16-54.232-11.194-75.684-11.981-88.769c1.371-0.364,2.795-0.79,4.293-1.289c1.915-0.638,3.903-1.375,5.942-2.19    c2.441-0.976,4.833-2.017,7.089-3.057c1.363-0.629,2.391-1.126,2.99-1.425c4.146-2.073,5.827-7.115,3.754-11.261    c-2.073-4.146-7.115-5.827-11.261-3.754c-0.45,0.225-1.323,0.647-2.518,1.198c-2.007,0.926-4.139,1.853-6.288,2.713    c-1.75,0.7-3.434,1.324-5.016,1.851c-3.41,1.137-6.148,1.745-7.604,1.745c0,0-0.001,0-0.001,0c-1.456,0-4.194-0.609-7.604-1.745    c-1.582-0.527-3.266-1.151-5.016-1.851c-2.15-0.86-4.281-1.787-6.288-2.713c-1.195-0.551-2.068-0.973-2.518-1.198    c-4.146-2.073-9.188-0.393-11.261,3.754c-2.073,4.146-0.393,9.188,3.754,11.261c0.599,0.299,1.628,0.796,2.99,1.425    c2.255,1.041,4.648,2.081,7.089,3.057c2.039,0.816,4.027,1.552,5.942,2.19c1.496,0.499,2.92,0.924,4.289,1.288    c-0.802,13.079-3.892,34.534-12.2,88.747c-0.462,3.016-0.462,3.016-0.923,6.035c-8.185,53.615-11.701,81.411-11.701,98.889    c0,14.635,0.961,38.277,2.655,68.527c0.423,7.549,0.885,15.4,1.382,23.482c0.881,14.347,1.824,28.74,2.768,42.481    c0.283,4.122,0.549,7.932,0.792,11.375c-25.926,8.119-46.222,8.198-66.416,0.444c0.573-5.338,2.219-14.207,6.734-37.995    c0.698-3.676,1.282-6.803,1.827-9.796c3.646-20.019,5.488-33.929,5.488-44.666c0-13.728-4.864-40.628-19.785-115.283    c-11.687-58.473-16.014-81.359-18.401-99.493c-4.634-35.131,2.429-98.202,11.72-128.257c11.174,5.183,26.5,8.574,45.264,10.675    c15.144,1.696,30.814,2.378,45.22,2.408c3.807,0.01,7.529-0.024,11.124-0.102c1.547-0.033,2.654-0.067,3.299-0.091    c0.029-0.001,0.07-0.002,0.097-0.003c0,0.002,0.021,0.004,0.036,0.006c0.155,0.024,1.235,0.056,2.718,0.089    c3.594,0.078,7.316,0.112,11.122,0.102c14.408-0.03,30.081-0.711,45.227-2.408c18.754-2.101,34.074-5.489,45.246-10.667    C365.945,76.771,372.746,139.831,368.091,175.118z"/>
	</g>
</g>
<g>
</g>
<g>
</g>
<g>
</g>
<g>
</g>
<g>
</g>
<g>
</g>
<g>
</g>
<g>
</g>
<g>
</g>
<g>
</g>
<g>
</g>
<g>
</g>
<g>
</g>
<g>
</g>
<g>
</g>
</svg>
