<?xml version="1.0" encoding="iso-8859-1"?>
<!-- Generator: Adobe Illustrator 19.0.0, SVG Export Plug-In . SVG Version: 6.00 Build 0)  -->
<svg xmlns="http://www.w3.org/2000/svg" xmlns:xlink="http://www.w3.org/1999/xlink" version="1.1" id="Layer_1" x="0px" y="0px" viewBox="0 0 512 512" style="enable-background:new 0 0 512 512;" xml:space="preserve">
<g transform="translate(0 -1)">
	<g>
		<path d="M511.815,336.301l-34.007-160.449c-0.014-0.124-0.023-0.247-0.042-0.371l-8.303-52.087    c-0.92-5.772-7.239-8.931-12.408-6.204c-28.919,15.254-88.838,23.81-171.433,25.533c-8.363-5.944-18.579-9.452-29.619-9.452    c-11.037,0-21.25,3.505-29.612,9.447c-82.478-1.733-142.315-10.288-171.207-25.528c-5.169-2.727-11.488,0.433-12.408,6.204    l-7.931,49.755c-0.113,0.33-0.212,0.668-0.287,1.019L0.186,336.3c-0.328,1.548-0.219,3.157,0.314,4.647    c2.828,7.896,10.375,18.892,24.707,29.566c23.025,17.149,56.608,27.29,102.477,27.29c45.156,0,76.55-4.971,96.742-13.468    c13.401-5.639,20.206-12.037,22.41-17.446c0.416-1.022,0.63-2.115,0.63-3.219v-42.667h17.067v42.667    c0,1.105,0.214,2.199,0.631,3.221c2.205,5.408,9.012,11.806,22.412,17.444c20.193,8.496,51.587,13.468,96.739,13.468    c45.873,0,79.457-10.141,102.481-27.29c14.331-10.675,21.877-21.671,24.704-29.567    C512.034,339.457,512.143,337.848,511.815,336.301z M454.376,137.17l5.264,33.021c-29.116,9.741-68.051,17.63-110.995,22.493    c-0.848,0.095-1.698,0.187-2.549,0.28c-0.631,0.069-1.262,0.139-1.894,0.207c-12.582,1.339-25.404,2.432-38.241,3.236    c0.971-3.882,1.474-7.875,1.474-11.936c0-8.977-2.369-17.554-6.667-25.066C369.987,157.213,422.467,149.994,454.376,137.17z     M276.89,157.485c0.178,0.168,0.365,0.331,0.562,0.49c1.424,1.142,2.739,2.384,3.951,3.702c5.428,6.044,8.733,14.032,8.733,22.793    c0,5.682-1.397,11.035-3.854,15.749c-0.308,0.37-0.597,0.758-0.843,1.183c-5.331,9.237-14.436,15.446-24.813,16.882    c-0.081,0.011-0.163,0.021-0.244,0.031c-0.596,0.078-1.196,0.136-1.8,0.182c-0.159,0.012-0.317,0.027-0.476,0.036    c-0.698,0.043-1.399,0.071-2.105,0.071c-0.003,0-0.006,0-0.009,0c-0.702,0-1.398-0.027-2.092-0.07    c-0.164-0.01-0.327-0.025-0.49-0.037c-0.597-0.046-1.191-0.103-1.78-0.18c-0.087-0.011-0.174-0.021-0.261-0.033    c-10.369-1.437-19.471-7.646-24.801-16.88c-0.002-0.003-0.004-0.006-0.006-0.009c-2.671-4.637-4.246-9.57-4.61-14.648    c-0.003-0.042-0.007-0.085-0.01-0.127c-0.048-0.713-0.074-1.428-0.074-2.146c0-0.631,0.019-1.26,0.054-1.885    c0.005-0.097,0.016-0.193,0.022-0.29c0.036-0.554,0.08-1.107,0.143-1.655c0.003-0.025,0.007-0.05,0.01-0.075    c1.039-8.861,5.588-16.896,12.688-22.59c0.433-0.347,0.814-0.721,1.156-1.112c5.633-4.1,12.562-6.526,20.061-6.526    C263.872,150.337,271.115,153.009,276.89,157.485z M57.862,137.17c31.893,12.818,84.337,20.036,153.504,22.23    c-3.113,5.529-5.224,11.691-6.098,18.249c-0.019,0.138-0.035,0.277-0.053,0.415c-0.107,0.86-0.193,1.725-0.257,2.598    c-0.018,0.236-0.039,0.472-0.054,0.709c-0.061,1.026-0.102,2.058-0.102,3.1c0,0.995,0.036,1.982,0.092,2.963    c0.005,0.084,0.014,0.168,0.019,0.253c0.185,2.982,0.628,5.893,1.302,8.716c-18.36-1.151-36.693-2.892-54.329-5.102    c-0.04-0.005-0.081-0.01-0.121-0.015c-0.15-0.019-0.298-0.039-0.448-0.058c-38.056-4.897-72.39-12.173-98.731-20.963    L57.862,137.17z M491.991,341.242c-3.597,5.242-8.64,10.557-15.389,15.585c-19.939,14.851-49.94,23.91-92.286,23.91    c-43.059,0-72.286-4.628-90.12-12.132c-5.754-2.421-9.661-4.879-12.079-7.153c-0.158-0.148-0.387-30.397-0.478-43.278    c7.997-3.698,15.313-8.985,23.064-16.737c3.332-3.332,3.332-8.735,0-12.068c-3.333-3.333-8.735-3.333-12.068,0    c-7.374,7.374-13.809,11.725-21.113,14.567h-31.04c-7.304-2.843-13.739-7.193-21.113-14.567c-3.332-3.333-8.735-3.333-12.068,0    c-3.332,3.332-3.332,8.735,0,12.068c7.762,7.762,15.088,13.053,23.098,16.752v42.766c-2.934,2.77-6.839,5.228-12.593,7.649    c-17.832,7.504-47.06,12.132-90.123,12.132c-42.342,0-72.343-9.059-92.283-23.91c-6.75-5.027-11.794-10.343-15.392-15.585    c-1.138-1.658-1.974-3.059-2.549-4.135l31.626-149.178c25.982,8.276,61.761,15.43,100.727,20.311    c20.646,2.64,42.305,4.59,64.353,5.725c7.557,10.698,19.106,18.365,32.483,20.837c0.065,0.012,0.13,0.023,0.196,0.035    c0.851,0.154,1.709,0.286,2.575,0.397c0.208,0.027,0.417,0.055,0.626,0.08c0.754,0.088,1.514,0.156,2.278,0.21    c0.245,0.018,0.489,0.042,0.734,0.056c0.97,0.055,1.946,0.09,2.93,0.09c0.004,0,0.008,0,0.012,0c0,0,0.001,0,0.001,0    c0,0,0.001,0,0.001,0c0.99,0,1.971-0.035,2.946-0.09c0.239-0.014,0.476-0.037,0.715-0.054c0.772-0.055,1.54-0.124,2.302-0.212    c0.202-0.024,0.404-0.051,0.605-0.077c0.874-0.112,1.74-0.246,2.599-0.401c0.058-0.011,0.117-0.02,0.176-0.031    c13.381-2.47,24.933-10.138,32.492-20.839c0.337-0.017,0.673-0.037,1.01-0.055c0.754-0.04,1.507-0.081,2.261-0.124    c1.675-0.093,3.347-0.19,5.017-0.292c0.125-0.008,0.249-0.015,0.373-0.023c14.784-0.908,29.357-2.173,43.523-3.768    c43.617-4.84,84.208-12.59,112.913-21.708l31.604,149.11C493.965,338.183,493.129,339.584,491.991,341.242z"/>
	</g>
</g>
<g>
</g>
<g>
</g>
<g>
</g>
<g>
</g>
<g>
</g>
<g>
</g>
<g>
</g>
<g>
</g>
<g>
</g>
<g>
</g>
<g>
</g>
<g>
</g>
<g>
</g>
<g>
</g>
<g>
</g>
</svg>
