<?xml version="1.0" encoding="iso-8859-1"?>
<!-- Generator: Adobe Illustrator 19.0.0, SVG Export Plug-In . SVG Version: 6.00 Build 0)  -->
<svg xmlns="http://www.w3.org/2000/svg" xmlns:xlink="http://www.w3.org/1999/xlink" version="1.1" id="Layer_1" x="0px" y="0px" viewBox="0 0 511.998 511.998" style="enable-background:new 0 0 511.998 511.998;" xml:space="preserve">
<g transform="translate(0 -1)">
	<g>
		<path d="M366.806,128.603c-0.356-2.048-4.834-26.75-5.848-33.086c-1.732-10.826-2.559-18.952-2.559-26.252V52.2v-0.002V18.067    c0-4.713-3.821-8.533-8.533-8.533h-25.6c0-4.713-3.82-8.533-8.533-8.533h-34.133c-4.713,0-8.533,3.82-8.533,8.533h-34.133    c0-4.713-3.821-8.533-8.533-8.533h-34.133c-4.713,0-8.533,3.82-8.533,8.533h-25.6c-4.713,0-8.533,3.82-8.533,8.533v34.132V52.2    v17.065c0,7.3-0.827,15.426-2.559,26.252c-1.014,6.336-5.491,31.038-5.848,33.086c-5.782,33.246-8.66,60.823-8.66,94.262    c0,26.817,1.021,70.624,2.82,126.759c0.445,13.869,0.931,28.292,1.452,43.141c0.934,26.613,1.934,53.324,2.935,78.835    c0.35,8.929,0.675,17.07,0.967,24.262c0.175,4.316,0.3,7.356,0.367,8.959c0.19,4.571,3.951,8.178,8.526,8.178h59.733    c4.713,0,8.533-3.82,8.533-8.533c0-6.392,1.78-22.71,12.746-119.573c0.223-1.973,0.223-1.973,0.447-3.946    c8.624-76.257,12.408-112.785,12.408-123.947c0-8.82,2.264-26.688,6.185-50.492c0.698-4.237,1.441-8.616,2.223-13.112    c1.034,4.496,1.777,8.875,2.475,13.112c3.921,23.804,6.185,41.672,6.185,50.492c0,11.162,3.783,47.69,12.408,123.947    c0.223,1.973,0.223,1.973,0.447,3.946c10.966,96.864,12.746,113.182,12.746,119.573c0,4.713,3.82,8.533,8.533,8.533h59.733    c4.575,0,8.335-3.607,8.526-8.178c0.067-1.603,0.192-4.644,0.367-8.959c0.292-7.191,0.617-15.333,0.967-24.262    c1-25.511,2.001-52.222,2.935-78.835c0.521-14.849,1.007-29.271,1.452-43.141c1.799-56.135,2.82-99.942,2.82-126.759    C375.466,189.426,372.588,161.849,366.806,128.603z M341.332,26.6v17.065h-17.067V26.6H341.332z M307.199,18.067v34.132h-17.067    V18.067H307.199z M273.066,26.6v17.065h-34.133V26.6H273.066z M221.866,18.067v34.132h-17.067V18.067H221.866z M187.732,26.6    v17.065h-17.067V26.6H187.732z M355.588,349.077c-0.444,13.851-0.929,28.257-1.45,43.089c-0.933,26.587-1.932,53.276-2.932,78.765    c-0.35,8.921-0.675,17.055-0.966,24.238c-0.003,0.076-3.719,0.172-8.973,0.271c-0.201-10.434-1.005-27.02-4.21-92.724    c-0.375-7.692-0.699-14.43-1.001-20.86c-2.158-45.9-3.255-77.334-3.255-99.257c0-25.795-1.371-45.225-4.325-70.33    c-0.267-2.27-1.535-12.786-1.861-15.589c-0.66-5.674-1.127-10.16-1.49-14.466c-0.57-6.768-0.857-12.916-0.857-19.081    c0-4.713-3.82-8.533-8.533-8.533s-8.533,3.82-8.533,8.533c0,6.673,0.31,13.293,0.918,20.513c0.38,4.512,0.865,9.167,1.544,15.006    c0.331,2.847,1.601,13.378,1.864,15.611c2.882,24.494,4.208,43.287,4.208,68.336c0,22.277,1.103,53.895,3.274,100.059    c0.303,6.442,0.627,13.189,1.003,20.89c3.182,65.225,3.987,81.848,4.189,92.161c-9.266,0.129-17.449,0.223-17.449,0.223    c-0.987-11.853-3.974-38.492-12.404-112.96c-0.223-1.972-0.223-1.972-0.446-3.944c-8.433-74.567-12.3-111.897-12.3-122.029    c0-10.092-2.332-28.498-6.411-53.266c-0.706-4.289-1.458-8.718-2.248-13.263c-1.875-10.782-3.883-21.726-5.891-32.268    c-0.352-1.846-0.691-3.614-1.015-5.294c1.002-0.289,2.028-0.604,3.094-0.959c1.947-0.649,3.968-1.398,6.041-2.227    c2.481-0.992,4.914-2.05,7.207-3.108c1.386-0.64,2.431-1.144,3.04-1.449c4.215-2.108,5.924-7.233,3.816-11.449    c-2.108-4.215-7.233-5.924-11.449-3.816c-0.458,0.229-1.345,0.657-2.56,1.218c-2.041,0.942-4.208,1.884-6.393,2.758    c-1.779,0.712-3.491,1.346-5.1,1.882c-3.467,1.156-6.251,1.774-7.731,1.774c-1.48,0-4.264-0.619-7.731-1.774    c-1.609-0.536-3.321-1.17-5.1-1.882c-2.185-0.874-4.353-1.816-6.393-2.758c-1.214-0.56-2.102-0.989-2.56-1.218    c-4.215-2.108-9.341-0.399-11.449,3.816c-2.108,4.215-0.399,9.341,3.816,11.449c0.609,0.304,1.655,0.809,3.04,1.449    c2.293,1.058,4.725,2.116,7.207,3.108c2.073,0.829,4.094,1.578,6.041,2.227c1.066,0.355,2.092,0.671,3.094,0.959    c-0.324,1.681-0.664,3.448-1.015,5.294c-2.008,10.542-4.016,21.486-5.891,32.268c-0.79,4.545-1.542,8.974-2.248,13.263    c-4.079,24.768-6.411,43.174-6.411,53.266c0,10.132-3.866,47.462-12.3,122.029c-0.223,1.972-0.223,1.972-0.446,3.944    c-8.43,74.468-11.417,101.107-12.404,112.96h-17.453c0.195-10.298,0.989-26.685,4.193-92.384c0.376-7.702,0.7-14.449,1.003-20.89    c2.171-46.163,3.274-77.782,3.274-100.059c0-25.049,1.327-43.842,4.208-68.336c0.263-2.233,1.533-12.764,1.864-15.611    c0.679-5.838,1.164-10.493,1.544-15.006c0.608-7.221,0.918-13.841,0.918-20.513c0-4.713-3.82-8.533-8.533-8.533    s-8.533,3.82-8.533,8.533c0,6.165-0.287,12.314-0.857,19.081c-0.363,4.306-0.83,8.793-1.49,14.466    c-0.326,2.802-1.594,13.318-1.861,15.589c-2.954,25.106-4.325,44.535-4.325,70.33c0,21.923-1.097,53.357-3.255,99.257    c-0.302,6.43-0.626,13.168-1.001,20.86c-3.256,66.747-4.034,82.803-4.219,93.216h-8.933c-0.322-7.946-0.647-16.08-0.997-25.001    c-1-25.489-1.999-52.178-2.932-78.765c-0.52-14.832-1.006-29.238-1.45-43.089c-1.794-55.96-2.812-99.632-2.812-126.212    c0-32.339,2.78-58.984,8.407-91.338c0.329-1.894,4.839-26.771,5.886-33.314c1.863-11.641,2.774-20.591,2.774-28.948v-8.532h17.067    c0,4.713,3.82,8.533,8.533,8.533h34.133c4.713,0,8.533-3.82,8.533-8.533h34.133c0,4.713,3.82,8.533,8.533,8.533h34.133    c4.713,0,8.533-3.82,8.533-8.533h17.067v8.532c0,8.357,0.911,17.307,2.774,28.948c1.047,6.543,5.556,31.419,5.886,33.314    c5.627,32.354,8.407,58.999,8.407,91.338C358.399,249.445,357.381,293.117,355.588,349.077z"/>
	</g>
</g>
<g>
</g>
<g>
</g>
<g>
</g>
<g>
</g>
<g>
</g>
<g>
</g>
<g>
</g>
<g>
</g>
<g>
</g>
<g>
</g>
<g>
</g>
<g>
</g>
<g>
</g>
<g>
</g>
<g>
</g>
</svg>
