<?xml version="1.0" encoding="iso-8859-1"?>
<!-- Generator: Adobe Illustrator 19.0.0, SVG Export Plug-In . SVG Version: 6.00 Build 0)  -->
<svg xmlns="http://www.w3.org/2000/svg" xmlns:xlink="http://www.w3.org/1999/xlink" version="1.1" id="Layer_1" x="0px" y="0px" viewBox="0 0 512.029 512.029" style="enable-background:new 0 0 512.029 512.029;" xml:space="preserve">
<g transform="translate(0 -1)">
	<g>
		<path d="M358.323,368.771c-7.354-90.486-8.505-105.22-8.505-111.765c0-2.317-0.033-4.159-0.123-7.737    c-0.055-2.176-0.072-2.914-0.091-3.99c-0.24-13.879,1.413-24.406,8.318-45.333c11.779-35.709,12.374-131.845,0.228-158.641    L349.69,7.47c-1.465-5.859-8.385-8.384-13.279-4.845c-9.912,7.167-32.605,12.415-58.861,14.52    c-5.865-4.753-13.334-7.605-21.472-7.605s-15.607,2.852-21.472,7.605c-26.257-2.106-48.949-7.353-58.861-14.52    c-4.894-3.539-11.814-1.013-13.279,4.845l-8.308,33.231c-12.434,25.931-11.918,123.266-0.05,159.245    c6.905,20.927,8.558,31.455,8.318,45.333c-0.019,1.076-0.036,1.814-0.091,3.99c-0.09,3.577-0.123,5.419-0.123,7.737    c0,6.545-1.151,21.279-8.505,111.765c-0.163,2.009-0.163,2.009-0.326,4.018c-5.707,70.303-8.235,104.534-8.235,115.53    c0,18.94,22.266,25.991,51.626,24.523c27.91-1.396,50.774-9.398,50.774-24.523v-291.84c0-5.184,0.988-7.918,7.774-23.275    c0.236-0.535,0.468-1.063,0.695-1.586c0.226,0.52,0.456,1.046,0.692,1.579c6.79,15.364,7.778,18.097,7.778,23.282v291.84    c0,15.125,22.864,23.127,50.774,24.523c29.36,1.468,51.626-5.583,51.626-24.523c0-10.995-2.528-45.227-8.235-115.53    C358.486,370.78,358.486,370.78,358.323,368.771z M339.948,38.871c-14.092,6.06-31.514,9.868-50.464,11.828    c0.475-2.268,0.727-4.618,0.727-7.027c0-0.815-0.039-1.621-0.095-2.422c-0.011-0.161-0.023-0.321-0.037-0.482    c-0.219-2.602-0.726-5.121-1.497-7.524c18.692-2.067,35.193-5.689,47.228-10.921L339.948,38.871z M268.056,31.522    c0.097,0.11,0.175,0.227,0.279,0.335c2.299,2.383,3.848,5.319,4.484,8.511c0.034,0.173,0.052,0.351,0.08,0.525    c0.06,0.363,0.124,0.725,0.161,1.093c0.055,0.555,0.085,1.117,0.085,1.687c0,0.537-0.032,1.067-0.08,1.591    c-0.04,0.406-0.099,0.809-0.169,1.209c-0.013,0.081-0.023,0.163-0.037,0.244c-0.557,2.943-1.914,5.698-3.96,8.057    c-0.001,0.001-0.001,0.002-0.002,0.003c-2.856,3.289-6.696,5.362-10.901,5.848c-0.031,0.003-0.061,0.011-0.092,0.014    c-0.599,0.066-1.205,0.1-1.816,0.1c-0.003,0-0.007,0.001-0.01,0.001c-0.615,0-1.225-0.034-1.828-0.101    c-0.024-0.003-0.047-0.008-0.071-0.011c-4.214-0.483-8.063-2.559-10.923-5.856c-0.001-0.002-0.003-0.003-0.005-0.005    c-2.042-2.358-3.398-5.111-3.954-8.051c-0.015-0.081-0.024-0.163-0.037-0.244c-0.069-0.4-0.129-0.803-0.169-1.209    c-0.049-0.524-0.08-1.054-0.08-1.591c0-0.57,0.031-1.132,0.085-1.687c0.037-0.368,0.1-0.73,0.161-1.093    c0.029-0.175,0.046-0.353,0.08-0.525c0.636-3.191,2.185-6.127,4.484-8.511c0.104-0.107,0.182-0.224,0.279-0.335    c3.081-3.038,7.308-4.916,11.978-4.916S264.974,28.484,268.056,31.522z M176.344,22.323c12.035,5.232,28.536,8.855,47.228,10.921    c-0.77,2.403-1.277,4.922-1.497,7.524c-0.014,0.16-0.025,0.321-0.037,0.482c-0.056,0.801-0.095,1.607-0.095,2.422    c0,2.413,0.254,4.766,0.73,7.038c-0.024-0.003-0.049-0.005-0.073-0.007c-0.651-0.067-1.296-0.141-1.943-0.213    c-0.78-0.086-1.559-0.174-2.334-0.267c-0.703-0.084-1.404-0.17-2.102-0.259c-0.798-0.102-1.59-0.21-2.381-0.319    c-0.974-0.134-1.943-0.273-2.907-0.418c-0.861-0.13-1.721-0.261-2.573-0.399c-0.66-0.107-1.315-0.219-1.969-0.331    c-0.751-0.129-1.498-0.262-2.242-0.397c-0.611-0.111-1.224-0.221-1.829-0.337c-1.214-0.233-2.418-0.474-3.611-0.726    c-0.513-0.108-1.019-0.224-1.528-0.336c-0.834-0.184-1.665-0.371-2.488-0.564c-0.521-0.122-1.041-0.245-1.557-0.372    c-1.01-0.247-2.01-0.502-3.001-0.764c-0.331-0.087-0.664-0.173-0.993-0.262c-1.153-0.313-2.29-0.638-3.416-0.972    c-0.4-0.119-0.796-0.241-1.193-0.362c-0.929-0.284-1.848-0.576-2.757-0.875c-0.313-0.103-0.628-0.203-0.939-0.308    c-1.186-0.4-2.354-0.813-3.504-1.239c-0.234-0.087-0.463-0.178-0.696-0.266c-0.955-0.361-1.897-0.732-2.825-1.112    c-0.295-0.12-0.589-0.241-0.881-0.363c-0.25-0.105-0.49-0.217-0.738-0.323L176.344,22.323z M316.11,495.796    c-9.966-0.498-19.819-2.239-26.94-4.732c-3.294-1.153-5.791-2.398-7.243-3.529c-0.241-0.187-0.376-291.057-0.376-291.057    c0-8.693-1.177-11.95-9.235-30.181c-3.9-8.823-6.163-15.294-7.162-21.663c1.278-0.348,2.603-0.75,3.989-1.212    c1.947-0.649,3.968-1.398,6.041-2.227c2.481-0.992,4.914-2.05,7.207-3.108c1.386-0.64,2.431-1.144,3.04-1.449    c4.215-2.108,5.924-7.233,3.816-11.449c-2.108-4.215-7.233-5.924-11.449-3.816c-0.458,0.229-1.345,0.657-2.56,1.218    c-2.041,0.942-4.208,1.884-6.393,2.758c-1.779,0.712-3.491,1.346-5.1,1.882c-3.467,1.156-6.251,1.774-7.731,1.774    c-1.48,0-4.264-0.619-7.731-1.774c-1.609-0.536-3.321-1.17-5.1-1.882c-2.185-0.874-4.353-1.816-6.393-2.758    c-1.214-0.56-2.102-0.989-2.56-1.218c-4.215-2.108-9.341-0.399-11.449,3.816c-2.108,4.215-0.399,9.341,3.816,11.449    c0.609,0.304,1.655,0.809,3.04,1.449c2.293,1.058,4.725,2.116,7.207,3.108c2.073,0.829,4.094,1.578,6.041,2.227    c1.383,0.461,2.707,0.862,3.983,1.21c-0.996,6.372-3.26,12.845-7.161,21.673c-8.053,18.224-9.23,21.482-9.23,30.173V487.39    c-1.828,1.277-4.325,2.522-7.619,3.675c-7.122,2.493-16.974,4.233-26.94,4.732c-20.095,1.005-33.707-3.306-33.707-7.477    c0-10.26,2.563-44.973,8.179-114.149c0.163-2.009,0.163-2.009,0.326-4.017c7.579-93.246,8.561-105.826,8.561-113.148    c0-2.133,0.031-3.866,0.118-7.307c0.056-2.224,0.074-2.987,0.093-4.125c0.273-15.824-1.679-28.256-9.174-50.975    c-9.673-29.323-10.882-109.73-3.294-139.319c1.197,0.494,2.411,0.973,3.64,1.438c0.207,0.078,0.42,0.151,0.628,0.228    c1.149,0.428,2.31,0.846,3.486,1.249c0.442,0.151,0.89,0.296,1.336,0.444c0.973,0.323,1.951,0.641,2.941,0.948    c0.476,0.148,0.955,0.293,1.435,0.437c1.019,0.306,2.047,0.602,3.083,0.891c0.428,0.119,0.854,0.24,1.285,0.357    c1.262,0.342,2.537,0.671,3.822,0.989c0.203,0.05,0.402,0.104,0.606,0.153c3.105,0.757,6.278,1.443,9.509,2.066    c0.28,0.054,0.563,0.105,0.844,0.158c1.333,0.252,2.675,0.493,4.028,0.724c0.335,0.057,0.671,0.113,1.007,0.169    c1.373,0.228,2.755,0.444,4.147,0.65c0.262,0.039,0.523,0.079,0.785,0.117c5.023,0.727,10.158,1.318,15.381,1.779    c0.368,0.033,0.738,0.062,1.107,0.093c1.32,0.112,2.645,0.217,3.976,0.313c0.507,0.037,1.015,0.072,1.524,0.107    c0.422,0.028,0.841,0.062,1.264,0.089c4.978,4.625,11.337,7.78,18.393,8.78c0.01,0.001,0.02,0.002,0.031,0.004    c0.503,0.071,1.008,0.133,1.517,0.182c0.189,0.018,0.38,0.028,0.57,0.043c0.346,0.027,0.692,0.058,1.041,0.075    c0.55,0.027,1.102,0.042,1.656,0.042c0.005,0,0.01,0,0.015,0c0,0,0,0,0,0s0,0,0,0c0.56,0,1.118-0.015,1.673-0.042    c0.339-0.016,0.674-0.046,1.011-0.073c0.201-0.016,0.403-0.026,0.603-0.046c0.499-0.048,0.994-0.11,1.487-0.179    c0.021-0.003,0.042-0.005,0.064-0.008c7.054-1.001,13.411-4.157,18.388-8.782c0.292-0.019,0.582-0.042,0.874-0.062    c0.839-0.056,1.674-0.116,2.509-0.178c0.747-0.056,1.492-0.115,2.236-0.176c0.993-0.081,1.985-0.163,2.972-0.253    c0.441-0.04,0.879-0.085,1.319-0.127c20.568-1.962,39.699-5.93,55.802-12.564c7.578,29.617,6.366,109.97-3.303,139.282    c-7.496,22.719-9.448,35.15-9.174,50.974c0.02,1.138,0.038,1.901,0.094,4.125c0.087,3.441,0.118,5.174,0.118,7.307    c0,7.322,0.983,19.901,8.561,113.148c0.163,2.008,0.163,2.008,0.326,4.017c5.616,69.176,8.179,103.888,8.179,114.149    C349.817,492.491,336.205,496.801,316.11,495.796z"/>
	</g>
</g>
<g>
</g>
<g>
</g>
<g>
</g>
<g>
</g>
<g>
</g>
<g>
</g>
<g>
</g>
<g>
</g>
<g>
</g>
<g>
</g>
<g>
</g>
<g>
</g>
<g>
</g>
<g>
</g>
<g>
</g>
</svg>
