<?xml version="1.0" encoding="iso-8859-1"?>
<!-- Generator: Adobe Illustrator 19.0.0, SVG Export Plug-In . SVG Version: 6.00 Build 0)  -->
<svg xmlns="http://www.w3.org/2000/svg" xmlns:xlink="http://www.w3.org/1999/xlink" version="1.1" id="Layer_1" x="0px" y="0px" viewBox="0 0 512.002 512.002" style="enable-background:new 0 0 512.002 512.002;" xml:space="preserve">
<g transform="translate(-1 -1)">
	<g>
		<path d="M341.739,31.965l-8.376-25.128c-1.49-4.471-6.323-6.887-10.794-5.397C302.89,8,285.999,9.536,257.001,9.536    S211.113,8,191.433,1.44c-4.471-1.49-9.304,0.926-10.794,5.397l-8.376,25.128c-13.632,28.721-13.472,126.825,8.481,185.367    c11.091,29.573,12.422,49.828,9.444,88.596c-1.13,14.709-1.454,20.181-1.454,27.874c0,28.964,12.123,104.127,25.766,172.34    c0.798,3.989,4.3,6.86,8.368,6.86h34.133h34.133c4.068,0,7.57-2.871,8.368-6.86c13.643-68.213,25.766-143.376,25.766-172.34    c0-7.694-0.324-13.166-1.454-27.874c-2.978-38.768-1.647-59.023,9.444-88.596C355.211,158.79,355.371,60.686,341.739,31.965z     M194.196,20.136c18.58,5.195,35.949,6.466,62.805,6.466s44.225-1.271,62.805-6.466l4.152,12.456    c-0.289,0.247-0.574,0.498-0.868,0.74c-0.291,0.24-0.58,0.481-0.875,0.716c-0.623,0.498-1.259,0.982-1.9,1.458    c-0.225,0.167-0.445,0.34-0.672,0.505c-0.87,0.63-1.756,1.242-2.659,1.835c-0.198,0.13-0.403,0.252-0.603,0.381    c-0.714,0.459-1.436,0.909-2.17,1.346c-0.324,0.192-0.653,0.378-0.98,0.566c-0.634,0.364-1.274,0.721-1.922,1.069    c-0.349,0.187-0.7,0.374-1.053,0.556c-0.678,0.35-1.364,0.69-2.056,1.023c-0.315,0.152-0.628,0.308-0.946,0.456    c-1.008,0.469-2.027,0.926-3.065,1.359c-8.773,3.669-18.23,5.938-27.878,7.047c-6.668,0.766-12.581,0.897-17.24,0.668    c-0.683-0.034-1.123-0.065-1.297-0.081c-0.089-0.008-0.176-0.005-0.264-0.01c-0.169-0.01-0.337-0.019-0.508-0.019    c-0.171,0-0.34,0.009-0.508,0.019c-0.088,0.005-0.175,0.002-0.264,0.01c-0.174,0.016-0.614,0.047-1.297,0.081    c-4.659,0.229-10.572,0.098-17.24-0.668c-9.648-1.109-19.105-3.378-27.878-7.047c-1.037-0.434-2.057-0.89-3.065-1.359    c-0.318-0.148-0.631-0.304-0.946-0.456c-0.692-0.333-1.379-0.673-2.056-1.023c-0.353-0.183-0.704-0.369-1.053-0.556    c-0.648-0.348-1.289-0.705-1.923-1.069c-0.327-0.188-0.655-0.373-0.978-0.565c-0.735-0.437-1.459-0.888-2.175-1.348    c-0.198-0.127-0.402-0.249-0.599-0.378c-0.903-0.593-1.789-1.205-2.66-1.835c-0.227-0.164-0.447-0.338-0.672-0.505    c-0.642-0.477-1.278-0.961-1.902-1.459c-0.294-0.235-0.583-0.475-0.873-0.715c-0.294-0.242-0.579-0.494-0.869-0.741    L194.196,20.136z M205.801,333.802c0-7.097,0.309-12.315,1.404-26.567c3.152-41.037,1.678-63.477-10.481-95.896    c-18.163-48.434-20.272-127.705-12.467-161.565c1.002,0.727,2.026,1.426,3.059,2.111c0.231,0.153,0.463,0.306,0.695,0.458    c1.065,0.692,2.142,1.365,3.239,2.014c0.155,0.092,0.313,0.179,0.469,0.27c1.022,0.596,2.058,1.172,3.106,1.732    c0.197,0.105,0.391,0.213,0.588,0.316c1.13,0.593,2.277,1.162,3.437,1.713c0.248,0.118,0.498,0.233,0.747,0.349    c1.197,0.556,2.404,1.099,3.632,1.612c1.063,0.445,2.128,0.867,3.194,1.275c0.344,0.132,0.689,0.255,1.034,0.383    c0.725,0.269,1.45,0.535,2.176,0.788c0.402,0.14,0.804,0.275,1.207,0.41c0.677,0.228,1.354,0.45,2.031,0.664    c0.41,0.129,0.819,0.257,1.229,0.382c0.689,0.209,1.378,0.41,2.066,0.605c0.383,0.109,0.765,0.22,1.148,0.324    c0.79,0.216,1.579,0.419,2.367,0.617c0.273,0.069,0.547,0.143,0.82,0.21c1.058,0.258,2.114,0.5,3.167,0.727    c0.241,0.052,0.48,0.097,0.72,0.147c0.815,0.17,1.628,0.335,2.438,0.487c0.373,0.07,0.745,0.134,1.117,0.2    c0.681,0.121,1.36,0.239,2.037,0.348c0.398,0.064,0.795,0.125,1.191,0.185c0.658,0.099,1.314,0.193,1.968,0.281    c0.389,0.052,0.778,0.105,1.166,0.154c0.687,0.086,1.369,0.163,2.051,0.237c0.341,0.037,0.682,0.077,1.021,0.111    c0.897,0.09,1.789,0.169,2.677,0.239c0.114,0.009,0.23,0.021,0.344,0.03c1.001,0.076,1.994,0.138,2.98,0.189    c0.304,0.016,0.603,0.025,0.905,0.039c0.683,0.03,1.364,0.058,2.039,0.077c0.363,0.01,0.722,0.016,1.083,0.023    c0.353,0.007,0.71,0.019,1.061,0.023v426.434h-18.594C217.049,430.862,205.801,360.227,205.801,333.802z M317.278,211.339    c-12.158,32.419-13.633,54.859-10.48,95.896c1.095,14.252,1.404,19.47,1.404,26.567c0,26.424-11.248,97.06-24.072,162.133h-18.594    V69.502c0.351-0.004,0.708-0.016,1.061-0.023c0.361-0.007,0.72-0.013,1.083-0.023c0.675-0.019,1.356-0.047,2.039-0.077    c0.302-0.013,0.601-0.023,0.905-0.039c0.986-0.051,1.979-0.113,2.98-0.189c0.114-0.009,0.23-0.021,0.344-0.03    c0.887-0.07,1.779-0.149,2.677-0.239c0.339-0.034,0.681-0.074,1.021-0.111c0.681-0.074,1.364-0.151,2.051-0.237    c0.388-0.049,0.777-0.101,1.166-0.154c0.654-0.088,1.309-0.182,1.967-0.281c0.397-0.06,0.794-0.121,1.192-0.185    c0.677-0.109,1.356-0.227,2.037-0.348c0.372-0.066,0.743-0.13,1.117-0.2c0.811-0.152,1.625-0.317,2.44-0.487    c0.24-0.05,0.479-0.095,0.719-0.147c1.053-0.227,2.109-0.469,3.167-0.727c0.273-0.067,0.547-0.141,0.82-0.21    c0.788-0.198,1.577-0.401,2.367-0.617c0.382-0.104,0.765-0.216,1.148-0.324c0.688-0.195,1.377-0.396,2.066-0.605    c0.41-0.124,0.819-0.252,1.229-0.382c0.677-0.214,1.354-0.436,2.031-0.664c0.402-0.135,0.804-0.27,1.207-0.41    c0.726-0.253,1.451-0.518,2.176-0.788c0.345-0.128,0.689-0.251,1.034-0.383c1.066-0.408,2.131-0.83,3.194-1.275    c1.227-0.513,2.434-1.056,3.632-1.612c0.249-0.116,0.499-0.231,0.747-0.349c1.16-0.551,2.307-1.121,3.438-1.714    c0.197-0.103,0.39-0.21,0.586-0.315c1.05-0.56,2.087-1.137,3.11-1.734c0.155-0.09,0.312-0.177,0.466-0.268    c1.097-0.649,2.175-1.323,3.241-2.015c0.232-0.151,0.463-0.303,0.693-0.456c1.034-0.686,2.058-1.384,3.06-2.112    C337.55,83.634,335.44,162.906,317.278,211.339z"/>
	</g>
</g>
<g>
</g>
<g>
</g>
<g>
</g>
<g>
</g>
<g>
</g>
<g>
</g>
<g>
</g>
<g>
</g>
<g>
</g>
<g>
</g>
<g>
</g>
<g>
</g>
<g>
</g>
<g>
</g>
<g>
</g>
</svg>
