<?xml version="1.0" encoding="iso-8859-1"?>
<!-- Generator: Adobe Illustrator 19.0.0, SVG Export Plug-In . SVG Version: 6.00 Build 0)  -->
<svg xmlns="http://www.w3.org/2000/svg" xmlns:xlink="http://www.w3.org/1999/xlink" version="1.1" id="Layer_1" x="0px" y="0px" viewBox="0 0 503.663 503.663" style="enable-background:new 0 0 503.663 503.663;" xml:space="preserve">
<g>
	<g>
		<path d="M352.507,73.723c-0.058-0.546-0.134-1.098-0.228-1.657c-0.651-3.899-2.158-8.136-4.365-12.771    c0-0.001-0.001-0.001-0.001-0.002c0-0.001-0.001-0.001-0.001-0.002c-1.391-2.92-3.042-5.951-4.901-9.056    c-1.955-3.266-4.038-6.446-6.121-9.429c-1.122-1.606-2.013-2.828-2.618-3.632L318.006,4.641c-1.868-3.736-6.199-5.53-10.162-4.209    c-17.967,5.989-29.006,7.153-51.442,7.039c-2.338-0.012-3.359-0.016-4.657-0.016c-1.298,0-2.32,0.004-4.657,0.016    c-22.437,0.115-33.476-1.05-51.442-7.039c-3.963-1.321-8.294,0.473-10.162,4.209l-16.632,33.264    c-0.559,0.759-1.253,1.724-2.078,2.904c-2.083,2.982-4.166,6.161-6.121,9.426c-1.86,3.106-3.513,6.139-4.904,9.06    c-2.522,5.297-4.13,10.074-4.591,14.421c-0.014,0.127-0.023,0.284-0.034,0.437c-0.52,6.76,1.561,32.216,5.479,70.68    c3.682,36.991,8.377,78.714,11.374,100.256c0.613,4.409,1.255,13.391,1.953,27.041c0.818,15.98,4.017,95.198,3.879,91.944    c3.695,86.744,6.363,121.155,13.106,128.446c12.032,13.014,48.355,14.342,64.917,5.483c16.562,8.858,52.885,7.53,64.917-5.484    c6.742-7.291,9.41-41.702,13.105-128.446c-0.139,3.254,3.061-75.963,3.879-91.944c0.699-13.65,1.34-22.632,1.953-27.042    c2.928-21.04,7.474-61.332,11.115-97.664C350.962,106.761,353.162,79.922,352.507,73.723z M167.793,76.78    c0.001-0.062,0.001-0.124,0.003-0.183c0.002-0.137,0.006-0.259,0.01-0.38c0.004-0.098,0.007-0.2,0.012-0.287    c0.003-0.05,0.007-0.089,0.01-0.135c0.007-0.105,0.014-0.211,0.024-0.298c0.226-2.125,1.278-5.252,3.055-8.984    c1.144-2.401,2.546-4.976,4.15-7.653c1.381-2.306,2.848-4.585,4.332-6.769c3.798,1.101,8.307,2.011,13.496,2.761    c-1.088,29.148-8.252,55.198-20.81,75.853C169.539,104.652,167.732,83.117,167.793,76.78z M324.264,52.072    c1.488,2.19,2.96,4.476,4.344,6.788c1.603,2.676,3.005,5.25,4.149,7.651c1.252,2.63,2.136,4.95,2.633,6.838    c0.208,0.792,0.356,1.515,0.422,2.141c0.015,0.144,0.027,0.315,0.036,0.508c0.001,0.019,0.002,0.041,0.002,0.061    c0.231,5.26-1.63,27.607-4.283,54.854c-12.657-20.669-19.824-46.744-20.853-76.063C315.926,54.094,320.458,53.18,324.264,52.072z     M197.298,18.548c16.318,4.797,28.668,5.817,49.875,5.709c2.309-0.012,3.312-0.016,4.572-0.016s2.263,0.004,4.572,0.016    c21.207,0.108,33.557-0.912,49.875-5.709l9.209,18.419c-6.038,1.282-14.363,2.31-24.257,3.002    c-11.396,0.798-23.263,1.097-33.562,1.094c-1.46-0.001-2.888-0.007-4.279-0.019c-1.12-0.011-1.12-0.011-1.337-0.015    c-0.022,0-0.039,0-0.059,0c-0.009,0-0.017,0-0.027,0c-0.037,0-0.067,0-0.099,0.001c-0.012,0-0.024-0.002-0.036-0.002    c-0.016,0-0.032,0.002-0.048,0.002c-0.325,0.002-0.464,0.004-1.424,0.014c-1.391,0.012-2.819,0.019-4.279,0.019    c-10.3,0.002-22.166-0.297-33.562-1.094c-3.789-0.265-7.342-0.581-10.631-0.94c-0.279-0.031-0.556-0.062-0.831-0.093    c-0.449-0.051-0.891-0.103-1.33-0.155c-0.36-0.043-0.723-0.086-1.076-0.131c-0.21-0.026-0.413-0.054-0.62-0.081    c-3.738-0.484-7.043-1.033-9.842-1.631L197.298,18.548z M226.832,486.799c-12.766,0.672-23.932-1.717-27.592-5.676    c-2.12-2.293-5.716-48.676-8.66-117.764c0.143,3.349-3.062-76.001-3.885-92.087c-0.725-14.158-1.387-23.429-2.092-28.497    c-2.561-18.402-6.553-53.543-10.005-86.941c21.327-25.086,33.338-59.801,35.01-99.236c0.522,0.039,1.034,0.079,1.565,0.117    c10.914,0.764,22.149,1.086,32.178,1.13V483.79c-0.436,0.178-0.943,0.365-1.512,0.553    C238.057,485.584,232.621,486.494,226.832,486.799z M260.138,486.821v-1.089c0.051,0.335,0.086,0.691,0.086,1.089H260.138z     M316.967,271.272c-0.823,16.086-4.028,95.437-3.885,92.087c-2.943,69.088-6.539,115.471-8.659,117.764    c-3.661,3.959-14.826,6.348-27.592,5.677c-5.789-0.305-11.225-1.215-15.007-2.457c-0.649-0.213-1.211-0.426-1.685-0.626V57.845    c10.051-0.043,21.319-0.364,32.265-1.13c0.535-0.037,1.059-0.077,1.586-0.116c1.598,39.584,13.602,74.249,35.063,99.355    c-3.449,33.362-7.435,68.441-9.993,86.821C318.354,247.842,317.692,257.114,316.967,271.272z"/>
	</g>
</g>
<g>
</g>
<g>
</g>
<g>
</g>
<g>
</g>
<g>
</g>
<g>
</g>
<g>
</g>
<g>
</g>
<g>
</g>
<g>
</g>
<g>
</g>
<g>
</g>
<g>
</g>
<g>
</g>
<g>
</g>
</svg>
