<?xml version="1.0" encoding="iso-8859-1"?>
<!-- Generator: Adobe Illustrator 19.0.0, SVG Export Plug-In . SVG Version: 6.00 Build 0)  -->
<svg xmlns="http://www.w3.org/2000/svg" xmlns:xlink="http://www.w3.org/1999/xlink" version="1.1" id="Layer_1" x="0px" y="0px" viewBox="0 0 512 512" style="enable-background:new 0 0 512 512;" xml:space="preserve">
<g transform="translate(-1 -1)">
	<g>
		<path d="M346.101,54.005c-1.186-5.307-2.605-9.733-4.251-13.26l-8.32-33.282C332.58,3.665,329.167,1,325.251,1H188.718    c-3.916,0-7.329,2.665-8.279,6.464l-7.994,31.975c-0.08,0.14-0.172,0.269-0.245,0.414c-0.458,0.917-0.898,1.908-1.323,2.958    c-10.124,24.919-10.797,86.399,0.487,181.065c-0.038-0.24-0.038-0.24,0.041,1.987c0.108,3.053,0.108,3.053,0.271,7.654    c0.292,8.269,0.617,17.555,0.966,27.645c1,28.828,2,58.323,2.933,86.784c0.214,6.534,0.423,12.95,0.625,19.235    c2.293,71.175,3.637,120.35,3.637,137.286c0,4.713,3.821,8.533,8.533,8.533h42.667c4.713,0,8.533-3.82,8.533-8.533    c0-0.541,0-0.541,0.003-3.131c0.003-2.557,0.01-5.525,0.019-8.868c0.028-9.554,0.078-20.2,0.156-31.665    c0.223-32.756,0.624-65.51,1.248-96.072c1.386-67.91,3.687-115.383,6.942-131.658c3.509-17.546,6.379-32.201,8.699-44.684    c2.32,12.484,5.19,27.138,8.699,44.684c3.255,16.274,5.556,63.748,6.942,131.658c0.624,30.562,1.025,63.316,1.248,96.072    c0.078,11.465,0.128,22.112,0.156,31.665c0.01,3.343,0.016,6.31,0.019,8.868c0.003,2.59,0.003,2.59,0.003,3.131    c0,4.713,3.82,8.533,8.533,8.533h42.667c4.713,0,8.533-3.82,8.533-8.533c0-16.936,1.344-66.111,3.637-137.286    c0.202-6.285,0.411-12.701,0.625-19.235c0.933-28.461,1.933-57.956,2.933-86.784c0.35-10.09,0.675-19.376,0.966-27.645    c0.162-4.601,0.162-4.601,0.271-7.654c0.079-2.226,0.079-2.226,0.096-2.692C352.606,141.126,353.445,84.081,346.101,54.005z     M333.217,94.619c-25.39-1.606-32.768-11.463-33.784-42.419h28.439c0.415,1.152,0.805,2.415,1.179,3.742    C331.22,64.725,332.711,77.752,333.217,94.619z M185.612,52.2h28.577c-1.015,30.955-8.393,40.813-33.784,42.419    C180.989,75.17,182.881,60.816,185.612,52.2z M248.451,35.133V18.068h17.067v17.065H248.451z M322.855,35.133h-32.083h-8.188    V18.067h36.004L322.855,35.133z M195.38,18.067h36.004v17.067h-8.533h-31.737L195.38,18.067z M324.975,221.772    c-0.082,1.257-0.082,1.257-0.161,3.485c-0.108,3.055-0.108,3.055-0.271,7.658c-0.292,8.272-0.617,17.562-0.967,27.655    c-1,28.838-2,58.344-2.934,86.816c-0.214,6.537-0.423,12.956-0.626,19.245c-1.995,61.946-3.271,107.159-3.575,129.302h-25.683    c-0.003-1.121-0.006-2.293-0.009-3.515c-0.028-9.575-0.078-20.243-0.156-31.731c-0.223-32.827-0.625-65.656-1.251-96.304    c-1.415-69.313-3.722-116.918-7.27-134.656c-12.71-63.552-16.901-88.676-16.901-109.26h-17.067    c0,20.584-4.191,45.708-16.901,109.26c-3.548,17.738-5.855,65.344-7.27,134.656c-0.625,30.648-1.027,63.477-1.251,96.304    c-0.078,11.488-0.128,22.157-0.156,31.731c-0.004,1.222-0.007,2.394-0.009,3.515h-25.683c-0.304-22.143-1.58-67.356-3.575-129.302    c-0.203-6.289-0.411-12.708-0.626-19.245c-0.934-28.473-1.934-57.978-2.934-86.816c-0.35-10.093-0.675-19.383-0.967-27.655    c-0.163-4.603-0.163-4.603-0.271-7.658c-0.079-2.228-0.079-2.228-0.096-2.696c-5.349-44.988-7.928-82.145-8.202-110.867    c36.36-2.125,49.542-18.93,51.064-59.495h8.656c0.011,0,0.022,0.002,0.034,0.002h34.133c0.011,0,0.022-0.002,0.034-0.002h8.31    c1.527,40.707,14.791,57.49,51.44,59.52C333.543,140.267,330.747,177.134,324.975,221.772z"/>
	</g>
</g>
<g>
</g>
<g>
</g>
<g>
</g>
<g>
</g>
<g>
</g>
<g>
</g>
<g>
</g>
<g>
</g>
<g>
</g>
<g>
</g>
<g>
</g>
<g>
</g>
<g>
</g>
<g>
</g>
<g>
</g>
</svg>
