<?xml version="1.0" encoding="iso-8859-1"?>
<!-- Generator: Adobe Illustrator 19.0.0, SVG Export Plug-In . SVG Version: 6.00 Build 0)  -->
<svg xmlns="http://www.w3.org/2000/svg" xmlns:xlink="http://www.w3.org/1999/xlink" version="1.1" id="Layer_1" x="0px" y="0px" viewBox="0 0 503.637 503.637" style="enable-background:new 0 0 503.637 503.637;" xml:space="preserve">
<g>
	<g>
		<path d="M484.886,430.688c-0.827-0.991-2.398-2.9-4.608-5.626c-3.695-4.558-7.815-9.731-12.254-15.416    c-12.682-16.244-25.363-33.325-37.186-50.421c-7.49-10.831-14.395-21.33-20.594-31.377    c-20.732-33.603-32.423-60.391-32.423-76.438c0-45.407,48.767-164.661,82.355-213.471c2.72-3.953,1.578-9.379-2.505-11.9    C430.128,9.033,408.188,0.928,385.165,0.075c-35.634-1.323-68.495,14.99-90.443,41.5h-85.868    c-21.943-26.444-54.762-42.709-90.355-41.399C95.47,1.028,73.533,9.13,45.968,26.139c-4.085,2.521-5.228,7.948-2.506,11.902    c33.59,48.798,82.362,168.059,82.362,213.47c0,16.048-11.69,42.833-32.42,76.432c-6.201,10.05-13.109,20.552-20.601,31.385    c-11.824,17.096-24.506,34.176-37.189,50.419c-4.439,5.685-8.56,10.857-12.255,15.415c-2.21,2.726-3.782,4.635-4.608,5.625    c-2.783,3.335-2.563,8.242,0.509,11.313c25.102,25.102,59.129,41.632,100.13,51.239c38.073,8.921,72.656,10.924,119.876,10.14    c10.712-0.178,9.955-0.167,12.552-0.167c2.768-0.097,4.036-0.076,12.551,0.066c47.22,0.784,81.803-1.219,119.876-10.14    c41.001-9.607,75.028-26.137,100.13-51.239C487.448,438.93,487.669,434.023,484.886,430.688z M268.812,98.385l-1.722,10.337    h-30.543l-1.705-10.234c-0.368-2.207-0.802-4.39-1.286-6.553h36.521C269.601,94.064,269.174,96.213,268.812,98.385z     M264.294,125.509l-1.206,7.241c-0.919,5.51-5.684,9.546-11.269,9.546c-5.585,0-10.35-4.036-11.269-9.548l-1.206-7.239H264.294z     M283.089,58.361c-3.06,5.337-5.729,10.946-7.965,16.787h-46.631c-2.241-5.842-4.918-11.45-7.985-16.787H283.089z     M380.417,476.896c-8.586,2.012-17.008,3.653-25.47,4.982c-39.105-58.456-61.063-108.704-61.063-146.426    c0-6.649,0.504-13.937,1.496-21.845c0.577-4.6-2.684-8.796-7.284-9.372c-4.6-0.577-8.796,2.684-9.372,7.284    c-1.074,8.567-1.626,16.545-1.626,23.933c0,40.319,21.356,90.752,59.319,148.841c-21.675,2.258-44.526,2.756-71.767,2.303    c-10.903-0.181-10.088-0.169-12.83-0.169c-0.444,0-0.88,0.034-1.305,0.101c-1.561,0.002-2.736,0.023-11.525,0.169    c-27.237,0.452-50.085-0.045-71.758-2.302c37.963-58.098,59.315-108.525,59.315-148.841c0-7.447-0.557-15.473-1.645-24.046    c-0.583-4.599-4.784-7.854-9.383-7.271c-4.599,0.583-7.854,4.784-7.271,9.383c1.002,7.904,1.511,15.231,1.511,21.934    c0,37.719-21.954,87.961-61.058,146.427c-8.465-1.329-16.891-2.971-25.479-4.983c-35.186-8.245-64.495-21.785-86.583-41.556    c3.696-4.563,7.799-9.715,12.208-15.362c12.869-16.482,25.739-33.815,37.764-51.202c7.651-11.062,14.717-21.805,21.081-32.119    c22.329-36.19,34.92-65.042,34.92-85.247c0-47.174-45.521-160.639-80.396-215.527c21.743-12.537,39.155-18.377,56.902-19.034    c31.367-1.154,60.335,13.921,79.053,38.158c0.071,0.092,0.141,0.184,0.216,0.273c9.989,13.026,17.031,28.67,19.896,45.865    l5.707,34.261c2.27,13.607,14.038,23.574,27.828,23.574c13.79,0,25.558-9.967,27.827-23.573l5.725-34.365    c2.859-17.137,9.863-32.737,19.8-45.737c0.102-0.119,0.197-0.244,0.292-0.369c18.722-24.262,47.706-39.354,79.081-38.19    c17.742,0.657,35.154,6.499,56.88,19.033c-34.872,54.896-80.389,168.357-80.389,215.528c0,20.204,12.593,49.057,34.923,85.252    c6.362,10.311,13.426,21.051,21.074,32.111c12.024,17.387,24.893,34.721,37.761,51.204c4.409,5.648,8.512,10.8,12.207,15.363    C444.912,455.111,415.603,468.652,380.417,476.896z"/>
	</g>
</g>
<g>
</g>
<g>
</g>
<g>
</g>
<g>
</g>
<g>
</g>
<g>
</g>
<g>
</g>
<g>
</g>
<g>
</g>
<g>
</g>
<g>
</g>
<g>
</g>
<g>
</g>
<g>
</g>
<g>
</g>
</svg>
