<?xml version="1.0" encoding="iso-8859-1"?>
<!-- Generator: Adobe Illustrator 19.0.0, SVG Export Plug-In . SVG Version: 6.00 Build 0)  -->
<svg xmlns="http://www.w3.org/2000/svg" xmlns:xlink="http://www.w3.org/1999/xlink" version="1.1" id="Layer_1" x="0px" y="0px" viewBox="0 0 503.775 503.775" style="enable-background:new 0 0 503.775 503.775;" xml:space="preserve">
<g>
	<g>
		<path d="M484.954,430.927c-0.827-0.991-2.398-2.9-4.608-5.626c-3.695-4.558-7.815-9.731-12.254-15.416    c-12.682-16.244-25.363-33.325-37.186-50.421c-7.49-10.831-14.395-21.329-20.594-31.377    c-20.585-33.365-32.251-60.006-32.415-76.09c0.258-45.692,48.853-164.449,82.348-213.098c1.083-1.573,1.545-3.377,1.463-5.141    c0.115-2.92-1.288-5.826-3.969-7.481c-64.756-39.97-102.063-35.453-205.754,22.542C149.893-8.302,112.106-13.656,49.285,24.196    c-0.028,0.017-0.055,0.033-0.083,0.05c-0.802,0.483-1.61,0.978-2.42,1.476c-0.249,0.153-0.494,0.299-0.745,0.454    c-0.511,0.315-0.976,0.676-1.393,1.074c-2.918,2.782-3.494,7.369-1.113,10.829c33.583,48.779,82.354,168.048,82.354,213.47    c0,16.047-11.691,42.834-32.423,76.438c-6.199,10.047-13.104,20.546-20.594,31.377c-11.823,17.097-24.504,34.177-37.186,50.421    c-4.439,5.685-8.559,10.858-12.254,15.416c-2.21,2.726-3.781,4.635-4.608,5.626c-2.783,3.335-2.562,8.242,0.509,11.313    c25.102,25.102,59.129,41.632,100.13,51.239c38.073,8.921,72.656,10.924,119.876,10.14c8.515-0.141,9.783-0.163,11.249-0.166    c3.899,0.1,3.142,0.089,13.854,0.267c19.222,0.319,36.349,0.176,52.47-0.707c1.007,0.338,2.091,0.492,3.211,0.419    c18.094-1.179,35.586-3.324,52.437-6.627c1.16-0.227,2.207-0.688,3.117-1.311c2.866-0.601,5.743-1.235,8.642-1.915    c41.001-9.607,75.028-26.137,100.13-51.239C487.517,439.169,487.737,434.262,484.954,430.927z M326.61,485.432    c-24.826-166.265-5.038-280.213,48.327-388.539c7.261-14.738,29.45-55.766,38.629-73.312c8.558,3.032,17.589,7.322,27.593,13.07    c-34.494,54.562-79.182,165.804-80.036,213.614c-23.429,46.273-21.221,160.786-1.158,231.039    C348.994,483.192,338.022,484.53,326.61,485.432z M177.082,485.195c-11.431-0.936-22.583-2.291-33.437-4.114    c20.223-70.21,22.505-185.269-1.001-231.658c-0.022-0.809-0.058-1.639-0.104-2.483c-0.001-0.023-0.003-0.046-0.004-0.069    c-0.043-0.775-0.095-1.563-0.157-2.366c-0.004-0.057-0.011-0.117-0.015-0.175c-0.061-0.771-0.13-1.553-0.209-2.35    c-0.008-0.079-0.018-0.161-0.026-0.241c-0.079-0.779-0.164-1.566-0.259-2.368c-0.012-0.101-0.026-0.205-0.039-0.307    c-0.095-0.786-0.196-1.579-0.307-2.386c-0.016-0.114-0.034-0.232-0.05-0.346c-0.111-0.799-0.228-1.605-0.354-2.424    c-0.02-0.13-0.043-0.263-0.063-0.394c-0.126-0.809-0.257-1.624-0.398-2.451c-0.025-0.147-0.052-0.297-0.078-0.444    c-0.141-0.819-0.286-1.643-0.44-2.479c-0.028-0.153-0.059-0.31-0.088-0.463c-0.156-0.837-0.316-1.679-0.485-2.532    c-0.031-0.159-0.065-0.321-0.097-0.481c-0.171-0.853-0.345-1.712-0.528-2.581c-0.035-0.166-0.072-0.335-0.108-0.502    c-0.185-0.87-0.374-1.744-0.571-2.629c-0.038-0.169-0.077-0.34-0.115-0.509c-0.199-0.887-0.403-1.78-0.614-2.681    c-0.041-0.174-0.084-0.351-0.125-0.526c-0.213-0.903-0.43-1.812-0.655-2.729c-0.043-0.175-0.088-0.352-0.131-0.528    c-0.227-0.922-0.459-1.848-0.697-2.783c-0.045-0.176-0.091-0.354-0.137-0.531c-0.241-0.938-0.486-1.882-0.738-2.832    c-0.047-0.179-0.096-0.359-0.144-0.539c-0.254-0.955-0.513-1.914-0.778-2.881c-0.048-0.176-0.098-0.354-0.147-0.531    c-0.268-0.973-0.541-1.949-0.819-2.933c-0.05-0.178-0.102-0.357-0.153-0.536c-0.281-0.988-0.567-1.981-0.858-2.98    c-0.051-0.174-0.103-0.349-0.154-0.524c-0.295-1.005-0.593-2.014-0.898-3.029c-0.053-0.176-0.106-0.352-0.159-0.528    c-0.307-1.019-0.618-2.042-0.935-3.07c-0.053-0.172-0.107-0.344-0.16-0.516c-0.32-1.035-0.644-2.073-0.973-3.117    c-0.054-0.171-0.109-0.343-0.163-0.515c-0.331-1.046-0.667-2.095-1.007-3.149c-0.055-0.171-0.111-0.343-0.167-0.514    c-0.344-1.063-0.693-2.128-1.046-3.198c-0.053-0.159-0.106-0.319-0.158-0.478c-0.357-1.079-0.719-2.161-1.085-3.247    c-0.054-0.16-0.108-0.32-0.162-0.48c-0.368-1.089-0.741-2.18-1.117-3.275c-0.054-0.157-0.108-0.314-0.162-0.471    c-0.38-1.102-0.764-2.206-1.153-3.314c-0.052-0.149-0.105-0.298-0.157-0.448c-0.393-1.119-0.791-2.24-1.192-3.363    c-0.049-0.138-0.099-0.275-0.148-0.413c-0.407-1.137-0.818-2.275-1.233-3.416c-0.046-0.126-0.092-0.253-0.138-0.379    c-0.419-1.149-0.841-2.299-1.268-3.452c-0.046-0.124-0.092-0.248-0.138-0.372c-0.429-1.158-0.862-2.317-1.299-3.478    c-0.044-0.116-0.087-0.232-0.131-0.348c-0.441-1.169-0.885-2.339-1.333-3.51c-0.042-0.109-0.083-0.217-0.125-0.326    c-0.452-1.18-0.907-2.36-1.366-3.54c-0.039-0.101-0.079-0.202-0.118-0.303c-0.462-1.188-0.928-2.376-1.396-3.565    c-0.037-0.093-0.074-0.187-0.11-0.28c-0.473-1.197-0.949-2.395-1.428-3.592c-0.034-0.085-0.068-0.17-0.102-0.254    c-0.484-1.208-0.971-2.415-1.462-3.621c-0.029-0.072-0.059-0.144-0.088-0.217c-0.496-1.221-0.996-2.44-1.498-3.658    c-0.024-0.058-0.047-0.115-0.071-0.173c-0.509-1.234-1.021-2.466-1.535-3.696c-0.018-0.042-0.035-0.084-0.053-0.127    c-0.519-1.241-1.041-2.48-1.566-3.717c-0.015-0.035-0.03-0.07-0.044-0.105c-0.529-1.246-1.06-2.49-1.594-3.731    c-0.011-0.025-0.021-0.049-0.032-0.074c-0.537-1.249-1.077-2.495-1.619-3.739c-0.008-0.018-0.015-0.036-0.023-0.053    c-12.672-29.05-26.572-56.329-39.099-76.043c10.138-5.846,19.271-10.192,27.926-13.258c9.179,17.546,31.368,58.574,38.629,73.312    C182.269,204.525,202.043,318.611,177.082,485.195z M36.706,435.478c3.696-4.563,7.798-9.716,12.207-15.363    c12.868-16.482,25.737-33.816,37.761-51.204c7.648-11.059,14.712-21.799,21.074-32.111c12.853-20.832,22.471-39.226,28.328-54.945    c11.781,51.685,7.447,140.221-8.994,196.045c-1.261-0.281-2.525-0.568-3.793-0.866C88.103,468.789,58.794,455.249,36.706,435.478z     M239.057,486.734c-16.421,0.273-31.241,0.197-45.175-0.398c25.17-169.341,4.772-286.537-49.983-397.682    c-7.032-14.274-27.283-51.791-37.11-70.432c34.255-5.97,70.197,7.868,136.707,45.084V486.66    C242.279,486.68,240.824,486.704,239.057,486.734z M264.718,486.834c-1.769-0.029-3.218-0.053-4.435-0.074V63.412    c66.736-37.343,102.69-51.143,137.051-45.021c-9.691,18.403-30.339,56.641-37.454,71.084    c-54.677,110.988-75.093,228.012-50.087,396.966C295.887,487.032,281.098,487.106,264.718,486.834z M380.485,477.135    c-1.333,0.312-2.661,0.613-3.987,0.908c-16.324-56.02-20.555-144.395-8.697-195.808c5.866,15.657,15.448,33.958,28.224,54.667    c6.362,10.311,13.426,21.051,21.074,32.111c12.024,17.387,24.893,34.721,37.761,51.204c4.409,5.648,8.511,10.8,12.207,15.363    C444.981,455.349,415.671,468.89,380.485,477.135z"/>
	</g>
</g>
<g>
</g>
<g>
</g>
<g>
</g>
<g>
</g>
<g>
</g>
<g>
</g>
<g>
</g>
<g>
</g>
<g>
</g>
<g>
</g>
<g>
</g>
<g>
</g>
<g>
</g>
<g>
</g>
<g>
</g>
</svg>
