<?xml version="1.0" encoding="iso-8859-1"?>
<!-- Generator: Adobe Illustrator 19.0.0, SVG Export Plug-In . SVG Version: 6.00 Build 0)  -->
<svg xmlns="http://www.w3.org/2000/svg" xmlns:xlink="http://www.w3.org/1999/xlink" version="1.1" id="Layer_1" x="0px" y="0px" viewBox="0 0 495.77 495.77" style="enable-background:new 0 0 495.77 495.77;" xml:space="preserve">
<g>
	<g>
		<path d="M449.979,446.343c-1.688-1.903-3.586-4.192-5.643-6.86c-5.935-7.699-11.891-16.844-17.462-27.382    c-34.494-65.26-38.039-146.607,9.823-242.643c3.424-4.95,8.149-13.674,12.807-25.999c14.257-37.726,17.91-83.817,4.587-137.111    c-0.919-3.676-4.222-6.255-8.011-6.255c-1.043,0-0.899,0.002-4.984-0.05c-37.621-0.478-68.046,3.077-101.456,17.044    c-40.843,17.075-72.53,46.765-91.754,91.357c-19.224-44.592-50.91-74.283-91.754-91.357C122.722,3.119,92.296-0.437,54.676,0.041    c-4.085,0.052-3.941,0.05-4.984,0.05c-3.789,0-7.092,2.579-8.011,6.255c-13.324,53.295-9.67,99.386,4.587,137.111    c4.658,12.325,9.383,21.049,12.807,25.999c47.861,96.036,44.317,177.383,9.823,242.643c-5.571,10.539-11.527,19.683-17.462,27.382    c-2.056,2.668-3.954,4.956-5.643,6.86c-0.976,1.1-1.64,1.803-1.939,2.103c-3.225,3.225-3.225,8.454,0,11.679    c0.673,0.673,1.378,1.332,2.098,1.983c0.23,0.208,0.469,0.413,0.704,0.62c0.509,0.446,1.028,0.887,1.559,1.322    c0.277,0.227,0.554,0.455,0.837,0.68c0.561,0.445,1.138,0.882,1.723,1.316c0.271,0.201,0.537,0.406,0.813,0.604    c0.73,0.525,1.48,1.041,2.246,1.55c0.436,0.29,0.886,0.574,1.333,0.858c0.406,0.258,0.813,0.515,1.229,0.769    c0.525,0.322,1.056,0.64,1.596,0.955c0.299,0.174,0.605,0.345,0.909,0.517c11.093,6.293,25.172,11.194,42.009,14.939    c0.38,0.085,0.763,0.141,1.144,0.172c13.248,2.854,28.149,4.995,44.58,6.521c27.67,2.569,52.901,3.091,88.568,2.745    c10.906-0.106,10.066-0.099,12.686-0.099s1.78-0.007,12.686,0.099c35.667,0.346,60.897-0.176,88.568-2.745    c16.431-1.526,31.331-3.667,44.58-6.521c0.382-0.03,0.764-0.087,1.144-0.172c16.837-3.745,30.915-8.646,42.008-14.938    c0.304-0.172,0.61-0.343,0.909-0.517c0.54-0.315,1.071-0.633,1.596-0.955c0.415-0.254,0.823-0.511,1.229-0.769    c0.447-0.284,0.896-0.568,1.331-0.857c0.769-0.511,1.523-1.03,2.257-1.558c0.272-0.196,0.533-0.397,0.799-0.595    c0.586-0.435,1.164-0.873,1.727-1.319c0.282-0.224,0.558-0.451,0.835-0.678c0.532-0.436,1.053-0.878,1.563-1.325    c0.234-0.205,0.471-0.409,0.7-0.616c0.721-0.652,1.426-1.311,2.099-1.984c3.225-3.225,3.225-8.454,0-11.679    C451.618,448.146,450.955,447.443,449.979,446.343z M431.255,449.566c1.079,1.4,2.097,2.681,3.046,3.843    c-8.922,6.33-21.761,11.45-37.943,15.41c-0.499-0.698-1.039-1.465-1.62-2.305c-3.718-5.383-7.61-11.656-11.478-18.745    c-11.047-20.249-19.653-42.919-24.269-67.426c-10.68-56.701,1.218-114.073,42.614-170.241c-0.013,0.037-0.024,0.074-0.037,0.111    c-0.794,2.299-1.555,4.589-2.292,6.872c-0.093,0.287-0.188,0.574-0.28,0.861c-0.705,2.202-1.379,4.395-2.031,6.582    c-0.104,0.35-0.209,0.7-0.312,1.05c-0.634,2.154-1.243,4.301-1.826,6.44c-0.098,0.361-0.195,0.721-0.292,1.081    c-0.577,2.145-1.131,4.283-1.658,6.413c-0.079,0.32-0.156,0.64-0.234,0.96c-0.531,2.179-1.041,4.352-1.52,6.515    c-0.047,0.214-0.091,0.426-0.138,0.64c-0.497,2.269-0.971,4.531-1.411,6.782c-0.001,0.005-0.002,0.01-0.003,0.014    c-0.44,2.252-0.846,4.493-1.229,6.727c-0.037,0.214-0.076,0.429-0.112,0.643c-0.359,2.124-0.689,4.237-0.997,6.344    c-0.046,0.312-0.093,0.624-0.137,0.935c-0.294,2.055-0.562,4.101-0.807,6.14c-0.041,0.344-0.083,0.687-0.123,1.03    c-0.237,2.027-0.451,4.047-0.641,6.059c-0.031,0.329-0.06,0.658-0.09,0.987c-0.185,2.037-0.349,4.067-0.486,6.088    c-0.018,0.262-0.032,0.523-0.049,0.785c-0.136,2.093-0.251,4.178-0.336,6.253c-0.005,0.12-0.008,0.24-0.013,0.36    c-0.083,2.098-0.141,4.187-0.173,6.268c-0.002,0.12-0.006,0.242-0.007,0.362c-0.029,2.055-0.028,4.1-0.008,6.137    c0.003,0.255,0.003,0.511,0.006,0.766c0.026,1.965,0.077,3.92,0.148,5.868c0.011,0.312,0.022,0.623,0.035,0.934    c0.077,1.919,0.177,3.829,0.298,5.731c0.02,0.321,0.042,0.641,0.063,0.961c0.129,1.908,0.278,3.808,0.45,5.699    c0.026,0.283,0.054,0.566,0.081,0.849c0.183,1.935,0.385,3.862,0.613,5.779c0.023,0.19,0.048,0.38,0.071,0.57    c0.244,2.011,0.508,4.014,0.801,6.006c0,0.003,0.001,0.005,0.001,0.008c0.293,1.994,0.615,3.977,0.957,5.951    c0.032,0.186,0.062,0.373,0.095,0.559c0.329,1.876,0.684,3.741,1.056,5.6c0.055,0.274,0.108,0.549,0.164,0.822    c0.369,1.811,0.761,3.612,1.171,5.406c0.069,0.303,0.139,0.606,0.209,0.908c0.415,1.784,0.849,3.559,1.304,5.326    c0.074,0.287,0.15,0.574,0.225,0.861c0.467,1.789,0.952,3.57,1.46,5.341c0.066,0.23,0.135,0.46,0.201,0.69    c0.531,1.832,1.079,3.657,1.653,5.471c0.034,0.106,0.069,0.211,0.103,0.317c0.583,1.834,1.187,3.659,1.813,5.474    c0.036,0.104,0.07,0.209,0.106,0.314c0.621,1.794,1.267,3.576,1.929,5.351c0.083,0.221,0.163,0.443,0.246,0.664    c0.644,1.711,1.31,3.412,1.993,5.106c0.109,0.27,0.217,0.54,0.327,0.81c0.679,1.667,1.376,3.324,2.09,4.973    c0.121,0.279,0.243,0.557,0.365,0.836c0.723,1.652,1.463,3.296,2.223,4.931c0.114,0.246,0.231,0.491,0.346,0.736    c0.783,1.671,1.582,3.335,2.402,4.988c0.083,0.167,0.168,0.332,0.251,0.498c0.866,1.735,1.748,3.462,2.654,5.176    C418.298,431.218,424.765,441.147,431.255,449.566z M323.366,171.131c-0.47-0.195-0.94-0.391-1.41-0.591    c-1.138-0.488-2.28-0.986-3.427-1.504c-0.022-0.01-0.045-0.02-0.067-0.03c26.655-50.91,71.36-76.105,126.716-83.802    c-1.371,19.515-5.345,37.015-11.143,52.391c-2.528,6.704-5.223,12.506-7.899,17.376c-1.262,2.297-2.263,3.938-2.908,4.913    c-0.437,0.431-0.88,0.844-1.321,1.261c-0.483,0.456-0.963,0.922-1.45,1.362c-0.525,0.474-1.058,0.921-1.589,1.377    c-0.452,0.388-0.901,0.783-1.357,1.158c-0.195,0.16-0.393,0.312-0.589,0.47c-0.383,0.309-0.77,0.606-1.157,0.906    c-0.407,0.316-0.813,0.638-1.223,0.943c-0.254,0.189-0.509,0.372-0.764,0.557c-0.392,0.285-0.788,0.558-1.184,0.833    c-0.389,0.271-0.775,0.547-1.167,0.809c-0.227,0.152-0.454,0.303-0.682,0.453c-0.46,0.3-0.924,0.584-1.388,0.872    c-0.452,0.281-0.901,0.57-1.357,0.84c-0.096,0.057-0.19,0.116-0.286,0.172c-0.549,0.321-1.105,0.618-1.659,0.923    c-0.526,0.29-1.049,0.591-1.58,0.866c-0.591,0.306-1.192,0.585-1.789,0.873c-0.533,0.257-1.062,0.526-1.599,0.769    c-0.605,0.273-1.22,0.518-1.831,0.773c-0.541,0.226-1.077,0.464-1.622,0.676c-0.62,0.241-1.25,0.453-1.876,0.675    c-0.546,0.194-1.088,0.401-1.639,0.582c-0.64,0.21-1.29,0.39-1.936,0.581c-0.547,0.162-1.09,0.337-1.642,0.486    c-0.661,0.178-1.332,0.327-2,0.486c-0.548,0.131-1.09,0.276-1.642,0.394c-0.686,0.147-1.382,0.264-2.074,0.391    c-0.544,0.1-1.083,0.215-1.631,0.303c-0.716,0.115-1.442,0.2-2.165,0.295c-0.535,0.07-1.064,0.156-1.603,0.216    c-0.77,0.085-1.55,0.139-2.328,0.201c-0.501,0.04-0.997,0.097-1.501,0.128c-0.854,0.053-1.719,0.073-2.581,0.1    c-0.439,0.013-0.872,0.043-1.313,0.05c-1.307,0.02-2.625,0.011-3.953-0.028c-13.379-0.392-27.463-3.733-41.904-9.485    C325.023,171.824,324.195,171.478,323.366,171.131z M346.009,32.324c30.441-12.726,58.61-16.134,93.532-15.783    c4.151,18.325,6.138,35.642,6.292,51.922c-61.634,7.876-112.235,35.789-142.128,93.164c-4.295-2.354-8.603-4.872-12.92-7.581    c-9.422-5.911-18.237-12.243-26.292-18.651c-0.683-0.543-1.347-1.077-1.998-1.604c-0.217-0.176-0.424-0.346-0.637-0.52    c-0.426-0.347-0.851-0.694-1.263-1.034c-0.249-0.206-0.49-0.407-0.734-0.61c-0.363-0.302-0.726-0.604-1.079-0.9    c-0.252-0.211-0.497-0.42-0.743-0.628c-0.205-0.174-0.407-0.346-0.608-0.517C274.056,80.715,304.755,49.57,346.009,32.324z     M239.627,236.92c0,0.029-0.003,0.057-0.003,0.085c0,0.027,0.003,0.053,0.003,0.08c-0.035,6.475-4.326,12.163-10.557,13.972    l-16.705,4.847c-2.885,0.837-5.767-1.327-5.767-4.332V220.96c0-3.15,3.152-5.332,6.097-4.222l17.46,6.574    C235.829,225.451,239.592,230.864,239.627,236.92L239.627,236.92z M239.627,321.139c0,0.029-0.003,0.057-0.003,0.085    c0,0.027,0.003,0.053,0.003,0.08c-0.035,6.475-4.326,12.163-10.557,13.972l-16.705,4.847c-2.885,0.837-5.767-1.327-5.767-4.332    v-30.613c0-3.155,3.148-5.333,6.097-4.222l17.46,6.574C235.829,309.67,239.592,315.083,239.627,321.139L239.627,321.139z     M239.627,410.34c0,0.029-0.003,0.057-0.003,0.085c0,0.027,0.003,0.053,0.003,0.08c-0.035,6.475-4.326,12.163-10.557,13.972    l-16.705,4.847c-2.885,0.837-5.767-1.327-5.767-4.332v-30.613c0-3.15,3.152-5.332,6.097-4.222l17.46,6.574    C235.829,398.87,239.592,404.283,239.627,410.34L239.627,410.34z M256.143,410.34L256.143,410.34    c0.035-6.056,3.798-11.469,9.474-13.608l17.455-6.573c2.948-1.111,6.099,1.071,6.099,4.221v30.613    c0,3.005-2.882,5.169-5.767,4.332l-16.706-4.848c-6.23-1.809-10.521-7.497-10.556-13.972c0-0.027,0.003-0.053,0.003-0.08    C256.146,410.396,256.143,410.368,256.143,410.34z M256.143,321.139L256.143,321.139c0.035-6.056,3.798-11.469,9.474-13.608    l17.455-6.573c2.951-1.112,6.099,1.066,6.099,4.221v30.613c0,3.005-2.882,5.169-5.767,4.332l-16.706-4.848    c-6.23-1.809-10.521-7.497-10.556-13.972c0-0.027,0.003-0.053,0.003-0.08C256.146,321.196,256.143,321.168,256.143,321.139z     M256.143,236.92L256.143,236.92c0.035-6.056,3.798-11.469,9.474-13.608l17.455-6.573c2.948-1.111,6.099,1.071,6.099,4.221v30.613    c0,3.005-2.882,5.169-5.767,4.332l-16.706-4.848c-6.23-1.809-10.521-7.497-10.556-13.972c0-0.027,0.003-0.053,0.003-0.08    C256.146,236.977,256.143,236.949,256.143,236.92z M56.228,16.541c34.922-0.351,63.091,3.057,93.532,15.783    c41.254,17.246,71.953,48.391,88.578,97.258c-0.202,0.172-0.403,0.344-0.608,0.517c-0.246,0.209-0.492,0.417-0.743,0.628    c-0.353,0.297-0.715,0.598-1.079,0.9c-0.244,0.203-0.485,0.404-0.734,0.61c-0.412,0.34-0.837,0.687-1.263,1.034    c-0.213,0.174-0.42,0.345-0.637,0.52c-0.651,0.527-1.315,1.061-1.998,1.604c-8.055,6.408-16.87,12.74-26.292,18.651    c-4.317,2.708-8.626,5.227-12.92,7.581C162.17,104.252,111.57,76.339,49.936,68.463C50.09,52.183,52.077,34.866,56.228,16.541z     M173.814,170.54c-0.471,0.201-0.94,0.396-1.41,0.591c-0.828,0.347-1.656,0.693-2.48,1.023    c-14.441,5.752-28.525,9.093-41.904,9.485c-1.328,0.039-2.646,0.048-3.953,0.028c-0.441-0.007-0.874-0.036-1.313-0.05    c-0.863-0.026-1.728-0.047-2.581-0.1c-0.504-0.031-1-0.087-1.501-0.128c-0.777-0.063-1.558-0.116-2.328-0.201    c-0.538-0.059-1.067-0.145-1.601-0.215c-0.723-0.095-1.45-0.18-2.167-0.296c-0.547-0.088-1.085-0.203-1.628-0.303    c-0.693-0.128-1.39-0.245-2.076-0.392c-0.552-0.118-1.095-0.263-1.642-0.394c-0.668-0.159-1.339-0.308-2-0.486    c-0.552-0.149-1.095-0.324-1.642-0.486c-0.646-0.191-1.296-0.372-1.936-0.581c-0.551-0.18-1.093-0.388-1.639-0.582    c-0.626-0.223-1.256-0.435-1.876-0.675c-0.545-0.212-1.082-0.45-1.622-0.676c-0.611-0.255-1.226-0.5-1.831-0.773    c-0.538-0.243-1.067-0.512-1.599-0.769c-0.597-0.288-1.198-0.566-1.789-0.873c-0.531-0.275-1.054-0.577-1.58-0.866    c-0.554-0.305-1.111-0.602-1.659-0.923c-0.096-0.056-0.191-0.115-0.286-0.172c-0.456-0.27-0.905-0.559-1.357-0.84    c-0.463-0.288-0.928-0.572-1.388-0.872c-0.228-0.149-0.455-0.3-0.682-0.453c-0.391-0.262-0.778-0.538-1.167-0.809    c-0.395-0.276-0.791-0.549-1.184-0.833c-0.255-0.185-0.511-0.368-0.764-0.557c-0.41-0.306-0.816-0.627-1.223-0.943    c-0.386-0.3-0.773-0.597-1.157-0.906c-0.196-0.158-0.394-0.31-0.589-0.47c-0.456-0.375-0.906-0.77-1.357-1.158    c-0.531-0.455-1.064-0.903-1.589-1.377c-0.488-0.44-0.968-0.906-1.45-1.362c-0.441-0.417-0.884-0.83-1.321-1.261    c-0.644-0.975-1.646-2.616-2.908-4.913c-2.676-4.87-5.371-10.673-7.899-17.376c-5.798-15.376-9.771-32.877-11.143-52.391    c55.357,7.697,100.061,32.892,126.716,83.802c-0.022,0.01-0.045,0.02-0.067,0.03C176.094,169.554,174.952,170.052,173.814,170.54z     M83.498,419.819c0.906-1.714,1.788-3.441,2.654-5.176c0.083-0.166,0.168-0.332,0.251-0.498c0.82-1.653,1.619-3.316,2.402-4.988    c0.115-0.245,0.231-0.49,0.346-0.736c0.759-1.635,1.499-3.279,2.223-4.931c0.122-0.278,0.244-0.557,0.365-0.836    c0.715-1.649,1.412-3.307,2.09-4.973c0.11-0.269,0.218-0.54,0.327-0.81c0.682-1.693,1.348-3.395,1.993-5.106    c0.083-0.221,0.164-0.443,0.246-0.664c0.662-1.775,1.308-3.557,1.929-5.351c0.036-0.104,0.07-0.209,0.106-0.314    c0.626-1.815,1.23-3.64,1.813-5.474c0.034-0.106,0.069-0.211,0.103-0.317c0.573-1.814,1.122-3.638,1.653-5.471    c0.067-0.23,0.135-0.459,0.201-0.69c0.508-1.771,0.992-3.552,1.46-5.341c0.075-0.287,0.151-0.573,0.225-0.861    c0.455-1.767,0.889-3.542,1.304-5.326c0.07-0.302,0.14-0.605,0.209-0.908c0.41-1.794,0.801-3.595,1.171-5.406    c0.056-0.274,0.109-0.548,0.164-0.822c0.372-1.858,0.727-3.724,1.056-5.6c0.033-0.186,0.063-0.373,0.095-0.559    c0.342-1.975,0.664-3.957,0.957-5.951c0-0.003,0.001-0.005,0.001-0.008c0.293-1.992,0.557-3.995,0.801-6.006    c0.023-0.19,0.049-0.38,0.071-0.57c0.228-1.917,0.43-3.844,0.613-5.779c0.027-0.283,0.055-0.565,0.081-0.849    c0.172-1.891,0.321-3.791,0.45-5.699c0.022-0.32,0.043-0.641,0.063-0.961c0.121-1.902,0.221-3.812,0.298-5.731    c0.013-0.311,0.023-0.623,0.035-0.934c0.071-1.948,0.123-3.903,0.148-5.868c0.003-0.255,0.004-0.511,0.006-0.766    c0.021-2.037,0.021-4.082-0.008-6.137c-0.002-0.12-0.005-0.241-0.007-0.362c-0.032-2.08-0.09-4.169-0.173-6.268    c-0.005-0.12-0.008-0.24-0.013-0.36c-0.085-2.075-0.201-4.161-0.336-6.253c-0.017-0.262-0.032-0.523-0.049-0.785    c-0.137-2.021-0.301-4.051-0.486-6.088c-0.03-0.329-0.059-0.658-0.09-0.987c-0.19-2.012-0.404-4.031-0.641-6.059    c-0.04-0.343-0.081-0.687-0.123-1.03c-0.246-2.039-0.514-4.085-0.807-6.14c-0.044-0.311-0.092-0.623-0.137-0.935    c-0.308-2.107-0.638-4.221-0.997-6.344c-0.036-0.214-0.076-0.429-0.112-0.643c-0.383-2.234-0.789-4.475-1.229-6.727    c-0.001-0.005-0.002-0.01-0.003-0.014c-0.44-2.251-0.914-4.513-1.411-6.782c-0.047-0.213-0.091-0.426-0.138-0.64    c-0.479-2.163-0.988-4.335-1.52-6.515c-0.078-0.32-0.154-0.64-0.234-0.96c-0.526-2.13-1.081-4.268-1.658-6.413    c-0.097-0.36-0.194-0.72-0.292-1.081c-0.583-2.139-1.192-4.286-1.826-6.44c-0.103-0.35-0.208-0.7-0.312-1.05    c-0.652-2.187-1.326-4.38-2.031-6.582c-0.092-0.287-0.187-0.574-0.28-0.861c-0.737-2.283-1.497-4.572-2.292-6.872    c-0.013-0.037-0.024-0.074-0.037-0.111c41.395,56.168,53.294,113.54,42.614,170.241c-4.616,24.508-13.223,47.177-24.27,67.426    c-3.867,7.089-7.759,13.362-11.478,18.745c-0.58,0.84-1.12,1.607-1.62,2.305c-16.182-3.96-29.021-9.081-37.943-15.41    c0.949-1.161,1.967-2.443,3.046-3.843C71.004,441.147,77.472,431.218,83.498,419.819z M235.038,479.159    c-35.14,0.341-59.918-0.171-86.88-2.675c-11.187-1.039-21.598-2.381-31.157-4.033c3.046-4.637,6.45-10.253,10.006-16.771    c11.828-21.682,21.042-45.951,26.001-72.279c11.792-62.604-2.037-126.07-48.722-187.304c19.167,4.409,40.058,2.362,62.044-5.032    c0.679-0.225,1.357-0.453,2.037-0.688c0.296-0.104,0.592-0.208,0.888-0.313c14.715-5.186,29.614-12.684,44.506-22.026    c9.232-5.792,17.881-11.95,25.866-18.201v59.693c-1.173-0.624-2.383-1.195-3.65-1.672l-17.46-6.574    c-13.747-5.181-28.436,4.987-28.436,19.678v30.613c0,14.006,13.435,24.097,26.886,20.194l16.706-4.847    c2.099-0.609,4.081-1.447,5.953-2.444v29.273c-1.173-0.624-2.383-1.195-3.65-1.672l-17.46-6.574    c-13.749-5.181-28.436,4.981-28.436,19.678v30.613c0,14.006,13.435,24.097,26.886,20.194l16.706-4.847    c2.099-0.609,4.081-1.447,5.953-2.444v34.254c-1.173-0.624-2.383-1.195-3.65-1.672l-17.46-6.574    c-13.747-5.181-28.436,4.987-28.436,19.678v30.613c0,14.006,13.435,24.097,26.886,20.194l16.706-4.847    c2.099-0.609,4.081-1.447,5.953-2.444v41.22C238.379,479.126,236.877,479.141,235.038,479.159z M347.612,476.484    c-26.963,2.503-51.741,3.016-86.88,2.675c-1.839-0.018-3.34-0.032-4.589-0.044v-41.219c1.873,0.997,3.854,1.835,5.953,2.444    l16.707,4.848c13.45,3.903,26.886-6.188,26.886-20.194v-30.613c0-14.691-14.689-24.858-28.438-19.677l-17.455,6.573    c-1.267,0.478-2.478,1.049-3.652,1.673v-34.254c1.873,0.997,3.854,1.835,5.953,2.444l16.707,4.848    c13.45,3.903,26.886-6.188,26.886-20.194v-30.613c0-14.697-14.687-24.859-28.438-19.677l-17.455,6.573    c-1.267,0.478-2.478,1.049-3.652,1.673v-29.273c1.873,0.997,3.854,1.835,5.953,2.444l16.707,4.848    c13.45,3.903,26.886-6.188,26.886-20.194V220.96c0-14.691-14.689-24.858-28.438-19.677l-17.455,6.573    c-1.267,0.478-2.478,1.049-3.652,1.673v-59.693c7.984,6.251,16.633,12.409,25.866,18.201c14.891,9.342,29.791,16.84,44.506,22.026    c0.296,0.106,0.592,0.21,0.888,0.313c0.679,0.235,1.358,0.463,2.037,0.688c21.985,7.394,42.877,9.441,62.044,5.032    c-46.685,61.234-60.514,124.701-48.722,187.304c4.959,26.328,14.173,50.596,26.001,72.279c3.556,6.519,6.96,12.135,10.006,16.771    C369.21,474.103,358.799,475.445,347.612,476.484z"/>
	</g>
</g>
<g>
</g>
<g>
</g>
<g>
</g>
<g>
</g>
<g>
</g>
<g>
</g>
<g>
</g>
<g>
</g>
<g>
</g>
<g>
</g>
<g>
</g>
<g>
</g>
<g>
</g>
<g>
</g>
<g>
</g>
</svg>
