<?xml version="1.0" encoding="iso-8859-1"?>
<!-- Generator: Adobe Illustrator 19.0.0, SVG Export Plug-In . SVG Version: 6.00 Build 0)  -->
<svg xmlns="http://www.w3.org/2000/svg" xmlns:xlink="http://www.w3.org/1999/xlink" version="1.1" id="Layer_1" x="0px" y="0px" viewBox="0 0 512.203 512.203" style="enable-background:new 0 0 512.203 512.203;" xml:space="preserve">
<g transform="translate(-1 -1)">
	<g>
		<path d="M496.035,342.562c0.875-22.217-2.297-44.244-9.04-62.861c-5.833-16.109-13.205-43.635-21.7-80.21    c-3.052-13.141-6.217-27.317-9.473-42.376c-6.647-30.748-13.359-63.704-19.796-96.663c-2.253-11.537-4.311-22.249-6.131-31.862    c-0.637-3.363-1.198-6.348-1.679-8.921c-0.486-2.604-0.486-2.604-0.586-3.147c-0.608-3.287-3.079-5.917-6.322-6.727l-33.949-8.487    c-0.391-0.103-0.788-0.181-1.189-0.23c-0.095-0.012-0.189-0.019-0.284-0.029c-0.229-0.021-0.458-0.033-0.687-0.036    c-0.131-0.002-0.261-0.003-0.39,0.001c-0.266,0.008-0.531,0.029-0.795,0.06c-0.057,0.007-0.114,0.014-0.171,0.022    c-2.857,0.393-5.527,2.174-6.723,5.428c-0.043,0.113-0.079,0.228-0.117,0.343c-0.029,0.091-0.064,0.176-0.092,0.269    L283.69,324.562c-10.919,7.728-18.055,20.448-18.055,34.841c0,6.144,0.78,11.901,2.414,17.067h-21.894    c1.633-5.166,2.414-10.923,2.414-17.067c0-14.394-7.136-27.114-18.055-34.841L137.291,7.135c-0.027-0.093-0.062-0.178-0.092-0.269    c-0.038-0.115-0.074-0.231-0.117-0.343c-1.195-3.253-3.865-5.034-6.722-5.428c-0.057-0.008-0.114-0.015-0.171-0.022    c-0.264-0.031-0.529-0.052-0.795-0.06c-0.129-0.004-0.259-0.003-0.39-0.001c-0.229,0.003-0.458,0.015-0.687,0.036    c-0.095,0.009-0.189,0.016-0.284,0.029c-0.401,0.049-0.798,0.128-1.19,0.23L92.895,9.794c-3.243,0.811-5.714,3.44-6.321,6.727    c-0.1,0.542-0.1,0.542-0.586,3.147c-0.481,2.573-1.042,5.558-1.679,8.921c-1.82,9.612-3.878,20.325-6.131,31.862    c-6.437,32.959-13.149,65.915-19.796,96.663c-3.256,15.06-6.421,29.235-9.473,42.376c-8.495,36.576-15.867,64.102-21.7,80.211    c-6.742,18.616-9.914,40.644-9.04,62.861v8.3c0,0.267,0.012,0.537,0.038,0.808c0.006,0.065,0.014,0.128,0.02,0.193    c0.001,0.007,0.001,0.014,0.002,0.022c1.355,14.231,4.181,27.687,8.369,40.074c2.557,14.234,4.874,26.918,9.495,52.068    c3.078,16.779,12.644,32.896,26.016,44.636c28.517,25.035,74.226,31.015,113.811,17.483c9.803-3.353,17.363-7.05,32.293-15.206    c0.519-0.283,0.519-0.283,1.036-0.566c8.746-4.78,12.854-6.941,17.893-9.308c1.709-0.803,1.815-0.854,6.368-3.094    c11.446-5.629,17.149-7.634,23.592-7.634s12.146,2.004,23.592,7.634c4.553,2.239,4.659,2.291,6.367,3.093    c5.04,2.367,9.147,4.529,17.894,9.308c0.518,0.283,0.518,0.283,1.036,0.566c14.93,8.157,22.49,11.853,32.292,15.206    c39.587,13.533,85.296,7.553,113.812-17.482c13.372-11.74,22.938-27.857,26.017-44.638c4.62-25.142,6.937-37.826,9.493-52.057    c4.188-12.39,7.016-25.848,8.371-40.083c0.001-0.007,0.001-0.014,0.002-0.022c0.006-0.065,0.014-0.128,0.02-0.193    c0.025-0.271,0.038-0.54,0.038-0.807V342.562z M471.51,385.546c-6.168,18.363-15.207,33.556-26.805,44.877    c-12.834,12.351-28.86,20.237-47.536,22.314c13.928-18.524,20.029-43.939,21.566-77.949c0.331-7.334,0.451-13.508,0.486-23.802    c0.538,0.008,1.074,0.013,1.614,0.025c1.041,0.022,2.084,0.049,3.131,0.083c1.138,0.037,2.28,0.084,3.424,0.135    c1.049,0.047,2.099,0.095,3.152,0.154c1.156,0.064,2.317,0.141,3.478,0.219c1.051,0.071,2.102,0.141,3.158,0.223    c1.182,0.092,2.369,0.199,3.557,0.305c1.045,0.094,2.089,0.184,3.139,0.289c1.216,0.121,2.438,0.259,3.66,0.395    c1.033,0.115,2.064,0.225,3.101,0.35c1.265,0.153,2.537,0.325,3.808,0.494c1.005,0.133,2.006,0.259,3.014,0.402    c1.36,0.193,2.73,0.408,4.097,0.618c0.928,0.143,1.852,0.275,2.783,0.426c1.67,0.271,3.349,0.566,5.03,0.863    c0.637,0.113,1.27,0.213,1.909,0.33c2.277,0.415,4.564,0.854,6.859,1.316c-1.256,9.171-3.195,17.889-5.77,26.063    C472.033,384.239,471.742,384.857,471.51,385.546z M334.556,442.848c-0.242-0.103-0.48-0.215-0.72-0.32    c-0.491-0.216-0.983-0.43-1.467-0.657c-0.287-0.134-0.569-0.277-0.854-0.415c-0.432-0.21-0.865-0.417-1.292-0.636    c-0.302-0.154-0.598-0.316-0.897-0.475c-0.403-0.214-0.807-0.426-1.205-0.648c-0.305-0.169-0.604-0.346-0.906-0.52    c-0.386-0.222-0.772-0.444-1.152-0.673c-0.304-0.183-0.604-0.373-0.905-0.561c-0.37-0.231-0.74-0.462-1.105-0.7    c-0.302-0.196-0.599-0.398-0.898-0.599c-0.358-0.241-0.715-0.482-1.068-0.729c-0.297-0.208-0.59-0.42-0.883-0.632    c-0.347-0.251-0.692-0.503-1.034-0.76c-0.291-0.219-0.578-0.44-0.866-0.663c-0.336-0.261-0.671-0.524-1.003-0.791    c-0.283-0.228-0.564-0.459-0.844-0.691c-0.328-0.273-0.653-0.548-0.976-0.826c-0.275-0.237-0.548-0.476-0.819-0.717    c-0.318-0.283-0.633-0.569-0.946-0.857c-0.268-0.247-0.534-0.494-0.798-0.745c-0.309-0.293-0.614-0.59-0.917-0.888    c-0.258-0.254-0.517-0.509-0.771-0.767c-0.301-0.305-0.596-0.613-0.892-0.923c-0.248-0.261-0.497-0.521-0.742-0.785    c-0.294-0.318-0.582-0.64-0.871-0.963c-0.236-0.265-0.474-0.528-0.707-0.797c-0.288-0.332-0.57-0.669-0.852-1.006    c-0.224-0.268-0.45-0.533-0.67-0.804c-0.283-0.348-0.559-0.702-0.835-1.055c-0.21-0.268-0.422-0.533-0.629-0.804    c-0.282-0.371-0.556-0.747-0.831-1.123c-0.191-0.26-0.385-0.518-0.572-0.781c-0.294-0.413-0.579-0.833-0.865-1.252    c-0.159-0.233-0.322-0.462-0.479-0.697c-0.356-0.535-0.702-1.076-1.045-1.62c-0.078-0.125-0.161-0.246-0.239-0.372    c-0.417-0.671-0.824-1.349-1.22-2.032c-0.116-0.2-0.225-0.405-0.339-0.607c-0.276-0.487-0.552-0.973-0.817-1.466    c-0.144-0.268-0.28-0.54-0.421-0.809c-0.226-0.432-0.453-0.863-0.671-1.299c-0.149-0.299-0.29-0.602-0.435-0.903    c-0.199-0.412-0.399-0.824-0.59-1.24c-0.146-0.317-0.285-0.638-0.426-0.958c-0.18-0.406-0.361-0.811-0.534-1.22    c-0.139-0.329-0.271-0.66-0.405-0.991c-0.164-0.405-0.329-0.81-0.487-1.218c-0.131-0.339-0.256-0.68-0.382-1.021    c-0.149-0.404-0.298-0.809-0.441-1.216c-0.122-0.347-0.238-0.696-0.355-1.045c-0.135-0.406-0.27-0.812-0.398-1.22    c-0.111-0.353-0.218-0.707-0.324-1.062c-0.123-0.41-0.243-0.82-0.359-1.232c-0.1-0.356-0.196-0.714-0.291-1.071    c-0.11-0.414-0.216-0.829-0.319-1.246c-0.089-0.36-0.175-0.721-0.258-1.083c-0.096-0.417-0.189-0.836-0.278-1.255    c-0.077-0.364-0.153-0.728-0.225-1.093c-0.035-0.175-0.065-0.352-0.099-0.527c0.126-0.093,0.251-0.19,0.377-0.283    c0.883-0.645,1.777-1.269,2.668-1.897c0.745-0.525,1.488-1.054,2.239-1.567c0.872-0.596,1.753-1.174,2.633-1.753    c0.783-0.516,1.566-1.034,2.355-1.537c0.868-0.554,1.744-1.093,2.619-1.631c0.815-0.501,1.63-1,2.451-1.488    c0.869-0.516,1.744-1.02,2.62-1.522c0.841-0.481,1.683-0.958,2.53-1.426c0.871-0.481,1.746-0.952,2.624-1.419    c0.866-0.46,1.735-0.914,2.608-1.36c0.875-0.447,1.752-0.888,2.633-1.321c0.889-0.437,1.783-0.865,2.679-1.288    c0.878-0.414,1.757-0.825,2.642-1.226c0.914-0.414,1.833-0.817,2.753-1.216c0.881-0.382,1.762-0.764,2.648-1.133    c0.938-0.39,1.882-0.767,2.827-1.142c0.883-0.351,1.765-0.704,2.654-1.042c0.966-0.367,1.939-0.718,2.911-1.07    c0.88-0.319,1.759-0.642,2.645-0.948c0.999-0.345,2.007-0.672,3.014-1.001c0.873-0.286,1.742-0.579,2.62-0.853    c1.049-0.327,2.108-0.633,3.165-0.944c0.846-0.249,1.689-0.508,2.54-0.746c1.151-0.322,2.314-0.619,3.474-0.921    c0.77-0.201,1.534-0.414,2.308-0.606c1.653-0.41,3.317-0.792,4.987-1.163c0.694-0.154,1.391-0.301,2.087-0.448    c1.542-0.326,3.087-0.646,4.643-0.939c0.802-0.151,1.614-0.281,2.42-0.423c1.191-0.21,2.38-0.425,3.58-0.616    c0.889-0.142,1.786-0.263,2.679-0.394c1.129-0.166,2.256-0.336,3.393-0.485c0.934-0.123,1.876-0.227,2.816-0.339    c1.106-0.131,2.21-0.265,3.323-0.381c0.965-0.1,1.937-0.185,2.907-0.274c1.099-0.101,2.198-0.202,3.304-0.288    c0.987-0.077,1.979-0.14,2.971-0.205c1.1-0.072,2.201-0.143,3.307-0.2c0.19-0.01,0.381-0.016,0.571-0.025    c-0.036,9.851-0.153,15.794-0.468,22.756c-1.731,38.309-9.521,63.26-27.722,78.491c-1.162-0.127-2.345-0.265-3.57-0.426    c-11.323-1.494-22.783-4.181-33.608-8.333C336.036,443.462,335.293,443.161,334.556,442.848z M295.377,337.462    c4.039-2.392,8.412-3.656,12.923-3.656c4.614,0,9.075,1.308,13.151,3.776c4.241,2.567,9.22,0.947,11.582-2.635    c1.074-1.628,1.607-3.662,1.284-5.892c-0.033-0.227-0.033-0.227-0.065-0.447c-0.06-0.412-0.11-0.762-0.152-1.076    c-0.021-0.155-0.04-0.302-0.057-0.437c-0.002-0.017-0.005-0.035-0.007-0.052c-0.017-0.138-0.032-0.262-0.045-0.382    c-0.003-0.029-0.007-0.061-0.01-0.089c-0.007-0.069-0.013-0.128-0.019-0.192c-0.042-0.432-0.059-0.772-0.059-1.11    c0-0.433,0.011-0.863,0.033-1.29c0.004-0.084,0.013-0.168,0.018-0.252c0.019-0.324,0.042-0.647,0.074-0.968    c0.02-0.199,0.046-0.397,0.07-0.594c0.024-0.195,0.046-0.39,0.074-0.584c0.041-0.28,0.088-0.557,0.138-0.834    c0.018-0.098,0.034-0.197,0.053-0.295c0.068-0.352,0.142-0.702,0.224-1.048c0.002-0.008,0.004-0.016,0.006-0.024    c2.435-10.205,11.065-18.082,21.911-19.366c0.477-0.056,0.94-0.157,1.39-0.289c0.533-0.033,1.069-0.056,1.611-0.056    c11.838,0,22.96,8.394,25.894,19.286c1.966,7.298,11.749,8.626,15.589,2.116c7.955-13.484,20.596-21.403,35.317-21.403    c0.089,0,0.178,0.006,0.267,0.007c0.252,0.029,0.506,0.047,0.763,0.053c17.297,0.41,32.007,11.083,38.328,26.125    c0.023,0.055,0.048,0.109,0.071,0.164c0.217,0.523,0.419,1.055,0.616,1.588c0.044,0.119,0.092,0.236,0.135,0.356    c0.169,0.47,0.322,0.948,0.475,1.426c0.059,0.186,0.124,0.371,0.181,0.558c0.125,0.413,0.236,0.832,0.35,1.25    c0.069,0.257,0.145,0.511,0.209,0.77c0.088,0.351,0.162,0.708,0.242,1.062c0.073,0.33,0.152,0.658,0.218,0.991    c0.057,0.287,0.101,0.578,0.152,0.867c0.071,0.405,0.146,0.808,0.206,1.216c0.033,0.222,0.055,0.448,0.084,0.671    c0.062,0.478,0.126,0.955,0.172,1.438c0.015,0.159,0.022,0.321,0.036,0.48c0.046,0.549,0.09,1.099,0.116,1.653    c0,0.008,0,0.016,0.001,0.025c-0.947-0.184-1.886-0.347-2.83-0.524c-1.008-0.188-2.018-0.38-3.023-0.559    c-1.496-0.267-2.986-0.517-4.476-0.765c-0.932-0.155-1.866-0.317-2.795-0.464c-1.645-0.261-3.282-0.5-4.918-0.737    c-0.764-0.111-1.532-0.232-2.295-0.337c-2.267-0.314-4.525-0.603-6.775-0.87c-0.126-0.015-0.254-0.033-0.38-0.048    c-2.397-0.282-4.783-0.534-7.16-0.762c-0.618-0.059-1.231-0.104-1.847-0.16c-1.736-0.157-3.469-0.308-5.194-0.436    c-0.832-0.062-1.657-0.108-2.486-0.163c-1.504-0.1-3.006-0.197-4.502-0.274c-0.904-0.047-1.803-0.081-2.704-0.119    c-1.412-0.061-2.823-0.118-4.228-0.158c-0.934-0.027-1.863-0.044-2.794-0.062c-1.365-0.026-2.728-0.047-4.086-0.054    c-0.941-0.005-1.88-0.003-2.818,0.001c-0.613,0.003-1.23-0.006-1.842,0c-0.351-0.044-0.707-0.074-1.07-0.074    c-0.476,0-0.939,0.049-1.394,0.124c-0.837,0.017-1.672,0.038-2.506,0.062c-1.335,0.039-2.665,0.09-3.993,0.148    c-0.913,0.04-1.825,0.079-2.734,0.128c-1.353,0.073-2.699,0.162-4.043,0.255c-0.87,0.06-1.741,0.116-2.608,0.185    c-1.407,0.112-2.805,0.244-4.203,0.378c-0.793,0.076-1.589,0.144-2.379,0.228c-1.575,0.166-3.139,0.358-4.702,0.553    c-0.6,0.075-1.204,0.139-1.802,0.218c-4.332,0.575-8.619,1.262-12.859,2.064c-0.63,0.119-1.252,0.254-1.88,0.378    c-1.476,0.292-2.951,0.587-4.416,0.907c-0.771,0.168-1.535,0.352-2.303,0.528c-1.313,0.301-2.625,0.604-3.929,0.928    c-0.82,0.204-1.635,0.421-2.452,0.634c-1.243,0.324-2.483,0.652-3.717,0.997c-0.835,0.234-1.667,0.477-2.498,0.72    c-1.207,0.353-2.41,0.713-3.608,1.087c-0.834,0.26-1.666,0.526-2.496,0.796c-1.19,0.387-2.375,0.785-3.556,1.192    c-0.818,0.282-1.635,0.566-2.449,0.858c-1.192,0.428-2.378,0.87-3.561,1.319c-0.786,0.298-1.574,0.595-2.356,0.903    c-1.219,0.48-2.431,0.978-3.64,1.481c-0.731,0.304-1.465,0.601-2.192,0.914c-1.297,0.556-2.584,1.136-3.869,1.719    c-0.627,0.284-1.258,0.559-1.883,0.85c-1.551,0.722-3.089,1.472-4.623,2.234c-0.347,0.173-0.699,0.335-1.045,0.509    c-1.917,0.966-3.822,1.962-5.712,2.991c-0.048,0.026-0.095,0.054-0.143,0.08c-1.807,0.985-3.6,2.001-5.382,3.043    c-0.473,0.277-0.939,0.568-1.409,0.848c-1.353,0.807-2.703,1.62-4.041,2.461c-0.579,0.364-1.152,0.741-1.729,1.111    c-1.222,0.784-2.442,1.575-3.652,2.388c-0.613,0.412-1.221,0.835-1.831,1.255c-0.75,0.516-1.507,1.016-2.251,1.543    c-1.413-3.643-2.156-8.211-2.156-13.418c0-8.935,4.582-16.798,11.521-21.377C294.613,337.867,295,337.686,295.377,337.462z     M398.207,139.762c6.152,35.557,10.569,59.381,12.753,68.114l16.166,75.472c-12.375,2.02-23.385,8.102-32.039,17.285    c-6.851-9.195-17.371-15.668-28.965-17.49L398.207,139.762z M411.855,25.023c0.383,2.039,0.807,4.29,1.271,6.741    c1.826,9.643,3.89,20.388,6.15,31.958c6.457,33.062,13.191,66.126,19.865,96.998c3.273,15.14,6.457,29.4,9.53,42.631    c8.641,37.204,16.147,65.231,22.277,82.161c1.243,3.433,2.35,7.011,3.319,10.707c-8.318-6.855-18.527-11.489-29.724-13.035    l-16.961-79.165c-2.512-10.067-8.301-41.993-16.308-89.024c-0.601-3.53-0.601-3.53-1.2-7.066    c-0.763-4.501-1.536-9.082-2.314-13.702c-0.002-0.009-0.002-0.018-0.003-0.028c-2.339-13.902-4.714-28.151-7.061-42.336    c-0.193-1.17-0.387-2.337-0.58-3.508c-0.036-0.215-0.071-0.429-0.106-0.644c-0.46-2.787-0.92-5.576-1.379-8.365    c-1.076-6.533-2.086-12.694-3.017-18.383L411.855,25.023z M382.737,47.868c0.1,0.604,0.2,1.211,0.3,1.815    c2.552,15.46,5.112,30.84,7.611,45.704l-42.222,188.674c-14.846,3.98-26.491,15.767-30.276,30.692    c-0.005,0.02-0.01,0.04-0.015,0.06c-0.246,0.974-0.467,1.958-0.644,2.957c-2.993-0.681-6.068-1.034-9.19-1.034    c-1.555,0-3.088,0.088-4.599,0.25L382.737,47.868z M221.952,390.403c-0.089,0.418-0.181,0.836-0.277,1.253    c-0.084,0.362-0.17,0.724-0.259,1.085c-0.103,0.417-0.209,0.833-0.319,1.247c-0.095,0.357-0.191,0.713-0.29,1.069    c-0.116,0.413-0.236,0.824-0.359,1.234c-0.106,0.354-0.212,0.707-0.323,1.058c-0.129,0.411-0.264,0.819-0.401,1.227    c-0.116,0.346-0.231,0.693-0.352,1.038c-0.143,0.41-0.293,0.817-0.444,1.224c-0.125,0.338-0.249,0.677-0.379,1.014    c-0.158,0.409-0.323,0.815-0.488,1.222c-0.134,0.33-0.266,0.661-0.404,0.989c-0.173,0.409-0.354,0.814-0.534,1.22    c-0.142,0.319-0.28,0.64-0.426,0.958c-0.191,0.415-0.391,0.826-0.589,1.237c-0.146,0.302-0.287,0.606-0.437,0.906    c-0.217,0.436-0.445,0.867-0.67,1.299c-0.141,0.269-0.277,0.541-0.421,0.808c-0.266,0.495-0.543,0.983-0.82,1.471    c-0.113,0.2-0.222,0.403-0.337,0.602c-0.396,0.683-0.802,1.361-1.219,2.031c-0.086,0.138-0.177,0.272-0.264,0.41    c-0.335,0.53-0.672,1.059-1.019,1.581c-0.161,0.242-0.33,0.479-0.494,0.719c-0.281,0.412-0.561,0.825-0.851,1.231    c-0.189,0.266-0.386,0.526-0.579,0.789c-0.273,0.373-0.545,0.747-0.825,1.115c-0.207,0.272-0.421,0.539-0.632,0.808    c-0.276,0.352-0.551,0.705-0.833,1.052c-0.22,0.271-0.446,0.537-0.67,0.804c-0.282,0.337-0.563,0.673-0.85,1.005    c-0.234,0.269-0.472,0.534-0.71,0.8c-0.288,0.322-0.575,0.644-0.869,0.961c-0.244,0.264-0.493,0.524-0.741,0.784    c-0.296,0.31-0.592,0.62-0.893,0.925c-0.254,0.257-0.511,0.511-0.769,0.765c-0.305,0.299-0.611,0.598-0.92,0.892    c-0.263,0.25-0.529,0.497-0.796,0.742c-0.313,0.288-0.627,0.574-0.945,0.856c-0.273,0.242-0.547,0.482-0.824,0.721    c-0.322,0.277-0.646,0.552-0.973,0.823c-0.28,0.233-0.561,0.464-0.844,0.692c-0.331,0.267-0.666,0.53-1.002,0.791    c-0.288,0.223-0.576,0.446-0.867,0.664c-0.341,0.257-0.687,0.509-1.033,0.759c-0.293,0.212-0.586,0.424-0.883,0.632    c-0.354,0.248-0.711,0.489-1.069,0.73c-0.298,0.2-0.595,0.401-0.896,0.597c-0.365,0.238-0.736,0.469-1.106,0.7    c-0.301,0.188-0.602,0.378-0.906,0.561c-0.38,0.229-0.765,0.45-1.149,0.672c-0.302,0.174-0.603,0.352-0.908,0.521    c-0.398,0.221-0.801,0.433-1.203,0.647c-0.3,0.159-0.597,0.322-0.9,0.476c-0.425,0.217-0.857,0.425-1.287,0.633    c-0.286,0.139-0.569,0.282-0.858,0.417c-0.481,0.225-0.968,0.437-1.455,0.651c-0.245,0.108-0.487,0.221-0.734,0.326    c-0.736,0.313-1.479,0.614-2.229,0.901c-10.828,4.153-22.288,6.84-33.611,8.334c-1.224,0.161-2.407,0.299-3.57,0.426    c-18.201-15.231-25.991-40.182-27.722-78.491c-0.315-6.961-0.432-12.905-0.468-22.756c0.19,0.009,0.381,0.015,0.571,0.025    c1.106,0.057,2.207,0.128,3.307,0.2c0.992,0.065,1.985,0.128,2.971,0.205c1.106,0.086,2.205,0.187,3.304,0.288    c0.97,0.089,1.942,0.174,2.907,0.274c1.113,0.116,2.217,0.25,3.323,0.381c0.939,0.112,1.881,0.216,2.816,0.339    c1.136,0.149,2.263,0.319,3.392,0.485c0.893,0.131,1.791,0.253,2.679,0.395c1.2,0.191,2.389,0.406,3.581,0.617    c0.806,0.142,1.618,0.272,2.42,0.423c1.557,0.293,3.101,0.613,4.643,0.939c0.697,0.147,1.394,0.294,2.087,0.448    c1.67,0.371,3.335,0.753,4.987,1.163c0.774,0.192,1.539,0.406,2.31,0.606c1.159,0.302,2.321,0.599,3.471,0.92    c0.852,0.238,1.695,0.497,2.543,0.746c1.056,0.31,2.114,0.616,3.163,0.943c0.878,0.274,1.748,0.567,2.62,0.853    c1.006,0.33,2.014,0.656,3.014,1.001c0.886,0.306,1.764,0.629,2.645,0.948c0.973,0.352,1.946,0.703,2.911,1.07    c0.889,0.338,1.771,0.691,2.654,1.042c0.945,0.375,1.889,0.752,2.827,1.142c0.887,0.369,1.768,0.751,2.649,1.133    c0.92,0.399,1.839,0.802,2.752,1.216c0.885,0.401,1.765,0.812,2.644,1.227c0.896,0.423,1.789,0.851,2.678,1.288    c0.881,0.433,1.759,0.874,2.633,1.321c0.873,0.446,1.742,0.9,2.608,1.36c0.878,0.466,1.753,0.938,2.625,1.419    c0.846,0.467,1.689,0.944,2.529,1.425c0.877,0.502,1.752,1.006,2.622,1.523c0.82,0.487,1.633,0.986,2.447,1.486    c0.877,0.539,1.753,1.079,2.623,1.633c0.788,0.502,1.569,1.019,2.351,1.534c0.881,0.581,1.763,1.159,2.637,1.756    c0.749,0.512,1.49,1.04,2.234,1.563c0.893,0.629,1.788,1.254,2.673,1.901c0.126,0.092,0.25,0.189,0.376,0.282    c-0.033,0.176-0.064,0.352-0.099,0.527C222.105,389.674,222.029,390.039,221.952,390.403z M42.693,385.546    c-0.231-0.688-0.521-1.305-0.853-1.864c-2.577-8.175-4.517-16.894-5.773-26.067c2.296-0.462,4.583-0.902,6.859-1.316    c0.639-0.116,1.271-0.217,1.909-0.33c1.68-0.297,3.36-0.592,5.03-0.863c0.931-0.151,1.855-0.283,2.783-0.426    c1.368-0.211,2.737-0.425,4.097-0.618c1.009-0.143,2.01-0.268,3.014-0.402c1.271-0.169,2.543-0.341,3.808-0.494    c1.037-0.126,2.068-0.235,3.101-0.35c1.222-0.136,2.444-0.274,3.66-0.395c1.05-0.105,2.094-0.195,3.139-0.289    c1.188-0.107,2.375-0.213,3.557-0.305c1.056-0.082,2.107-0.152,3.158-0.223c1.162-0.078,2.323-0.155,3.478-0.219    c1.054-0.059,2.103-0.107,3.152-0.154c1.144-0.051,2.286-0.098,3.424-0.135c1.046-0.034,2.089-0.061,3.13-0.083    c0.539-0.012,1.076-0.017,1.614-0.025c0.035,10.294,0.155,16.468,0.486,23.802c1.536,33.998,7.634,59.408,21.552,77.93    c-19.67-2.214-36.387-10.843-49.533-24.324C56.844,417.312,48.498,402.831,42.693,385.546z M35.397,338.693    c0.014-0.16,0.021-0.321,0.036-0.48c0.046-0.482,0.11-0.96,0.172-1.438c0.029-0.223,0.051-0.449,0.084-0.671    c0.06-0.408,0.135-0.812,0.206-1.216c0.051-0.289,0.096-0.58,0.152-0.867c0.066-0.333,0.145-0.661,0.218-0.991    c0.079-0.355,0.154-0.711,0.242-1.062c0.065-0.259,0.14-0.513,0.209-0.77c0.113-0.418,0.224-0.837,0.35-1.25    c0.057-0.188,0.122-0.372,0.181-0.558c0.152-0.478,0.306-0.955,0.475-1.426c0.043-0.12,0.091-0.237,0.135-0.356    c0.197-0.534,0.399-1.065,0.616-1.588c0.023-0.055,0.048-0.109,0.071-0.164c6.321-15.042,21.031-25.715,38.328-26.125    c0.257-0.006,0.511-0.025,0.763-0.053c0.089-0.001,0.177-0.007,0.267-0.007c14.721,0,27.362,7.918,35.317,21.403    c3.84,6.51,13.623,5.182,15.589-2.116c2.934-10.892,14.056-19.286,25.894-19.286c0.542,0,1.078,0.023,1.611,0.056    c0.45,0.132,0.913,0.232,1.39,0.289c10.846,1.284,19.476,9.161,21.911,19.366c0.002,0.008,0.004,0.016,0.006,0.024    c0.082,0.347,0.156,0.696,0.224,1.048c0.019,0.098,0.035,0.197,0.053,0.295c0.05,0.277,0.097,0.554,0.138,0.834    c0.028,0.194,0.051,0.389,0.074,0.584c0.024,0.198,0.05,0.395,0.07,0.594c0.031,0.321,0.054,0.644,0.074,0.968    c0.005,0.084,0.013,0.168,0.018,0.252c0.021,0.427,0.033,0.857,0.033,1.29c0,0.756-0.08,1.495-0.35,3.337    c-0.032,0.22-0.032,0.22-0.065,0.447c-0.841,5.798,4.106,10.268,9.3,9.736c1.198-0.119,2.409-0.508,3.566-1.208    c4.076-2.468,8.537-3.776,13.151-3.776c4.511,0,8.884,1.264,12.923,3.656c0.377,0.223,0.763,0.404,1.153,0.563    c6.94,4.579,11.523,12.443,11.523,21.378c0,5.206-0.743,9.775-2.156,13.418c-0.745-0.527-1.502-1.027-2.251-1.543    c-0.61-0.419-1.218-0.843-1.831-1.255c-1.21-0.813-2.429-1.604-3.652-2.388c-0.576-0.37-1.149-0.748-1.729-1.111    c-1.34-0.841-2.691-1.656-4.046-2.463c-0.469-0.28-0.933-0.57-1.404-0.845c-1.782-1.043-3.576-2.058-5.383-3.044    c-0.048-0.026-0.095-0.054-0.142-0.08c-1.89-1.029-3.794-2.025-5.712-2.991c-0.346-0.175-0.698-0.337-1.045-0.509    c-1.533-0.762-3.072-1.512-4.623-2.234c-0.624-0.291-1.256-0.565-1.883-0.85c-1.285-0.583-2.572-1.163-3.869-1.719    c-0.727-0.312-1.461-0.61-2.192-0.914c-1.21-0.503-2.421-1.001-3.64-1.481c-0.782-0.308-1.569-0.604-2.355-0.903    c-1.183-0.449-2.37-0.892-3.562-1.32c-0.813-0.292-1.629-0.576-2.446-0.858c-1.182-0.408-2.368-0.806-3.559-1.193    c-0.83-0.27-1.661-0.536-2.494-0.796c-1.198-0.373-2.402-0.734-3.609-1.087c-0.831-0.243-1.662-0.486-2.498-0.72    c-1.234-0.345-2.475-0.673-3.717-0.997c-0.817-0.213-1.631-0.43-2.452-0.634c-1.303-0.324-2.616-0.627-3.929-0.928    c-0.768-0.176-1.532-0.36-2.303-0.528c-1.465-0.32-2.939-0.615-4.416-0.907c-0.627-0.124-1.25-0.259-1.88-0.378    c-4.24-0.801-8.526-1.489-12.859-2.064c-0.597-0.079-1.201-0.143-1.8-0.218c-1.563-0.196-3.128-0.387-4.703-0.553    c-0.79-0.084-1.586-0.151-2.379-0.228c-1.398-0.134-2.797-0.267-4.203-0.378c-0.866-0.069-1.738-0.125-2.607-0.185    c-1.345-0.093-2.691-0.183-4.044-0.255c-0.909-0.049-1.822-0.088-2.734-0.128c-1.328-0.058-2.658-0.109-3.993-0.148    c-0.834-0.024-1.669-0.045-2.506-0.062c-0.455-0.075-0.918-0.124-1.394-0.124c-0.363,0-0.719,0.03-1.07,0.074    c-0.611-0.007-1.229,0.002-1.842,0c-0.938-0.004-1.877-0.006-2.818-0.001c-1.358,0.007-2.721,0.028-4.086,0.054    c-0.93,0.018-1.86,0.035-2.794,0.062c-1.405,0.041-2.816,0.098-4.228,0.158c-0.901,0.039-1.8,0.073-2.704,0.119    c-1.495,0.077-2.998,0.175-4.502,0.274c-0.829,0.055-1.655,0.101-2.486,0.163c-1.725,0.128-3.458,0.28-5.194,0.436    c-0.617,0.056-1.229,0.101-1.847,0.16c-2.377,0.228-4.763,0.481-7.16,0.762c-0.126,0.015-0.254,0.033-0.38,0.048    c-2.25,0.267-4.508,0.557-6.775,0.87c-0.762,0.105-1.53,0.226-2.295,0.337c-1.636,0.237-3.273,0.476-4.918,0.737    c-0.929,0.147-1.863,0.309-2.795,0.464c-1.489,0.248-2.979,0.497-4.476,0.765c-1.005,0.18-2.015,0.371-3.023,0.559    c-0.944,0.176-1.883,0.34-2.83,0.524c0-0.008,0-0.016,0.001-0.025C35.307,339.792,35.35,339.242,35.397,338.693z M115.996,139.763    l32.086,143.38c-11.594,1.822-22.114,8.296-28.965,17.49c-8.654-9.182-19.664-15.264-32.038-17.284l16.23-75.755    C105.437,199.097,109.845,175.312,115.996,139.763z M205.902,316.737c-3.123,0-6.197,0.352-9.19,1.034    c-0.177-0.999-0.399-1.983-0.644-2.957c-0.005-0.02-0.01-0.04-0.015-0.06c-3.785-14.925-15.43-26.712-30.276-30.692    L123.554,95.387c2.5-14.864,5.059-30.244,7.611-45.704c0.1-0.604,0.201-1.211,0.3-1.815l79.035,269.12    C208.99,316.825,207.456,316.737,205.902,316.737z M43.255,285.512c6.13-16.93,13.637-44.957,22.277-82.161    c3.073-13.231,6.257-27.49,9.53-42.631c6.674-30.872,13.408-63.936,19.865-96.998c2.26-11.57,4.324-22.315,6.15-31.958    c0.464-2.451,0.888-4.702,1.271-6.741l16.242-4.06c-0.93,5.689-1.941,11.85-3.017,18.383c-0.46,2.794-0.921,5.588-1.382,8.379    c-0.035,0.21-0.069,0.42-0.104,0.63c-0.184,1.117-0.369,2.23-0.553,3.345c-2.356,14.239-4.74,28.544-7.088,42.499    c-0.002,0.009-0.002,0.018-0.003,0.028c-0.778,4.62-1.551,9.201-2.314,13.702c-0.6,3.536-0.6,3.536-1.2,7.066    c-8.007,47.03-13.796,78.957-16.243,88.742L69.66,283.183c-11.197,1.546-21.407,6.18-29.725,13.036l0.47-1.747    C41.258,291.394,42.208,288.401,43.255,285.512z M461.325,440.942c-2.363,12.883-9.921,25.616-20.49,34.895    c-23.568,20.691-62.879,25.834-97.031,14.159c-8.597-2.941-15.529-6.33-29.631-14.034c-0.517-0.282-0.517-0.282-1.035-0.565    c-9.047-4.944-13.368-7.217-18.822-9.779c-1.57-0.737-1.673-0.788-6.091-2.961c-13.726-6.751-21.224-9.386-31.124-9.386    s-17.398,2.635-31.124,9.386c-4.418,2.173-4.521,2.223-6.091,2.961c-5.453,2.561-9.775,4.835-18.821,9.779    c-0.518,0.283-0.518,0.283-1.035,0.565c-14.102,7.705-21.034,11.094-29.633,14.035c-34.15,11.674-73.461,6.532-97.029-14.159    c-10.569-9.279-18.127-22.012-20.49-34.892c-0.238-1.293-0.468-2.548-0.694-3.777c5.719,6.404,12.09,12.005,19.066,16.699    c16.259,11.011,35.76,16.898,58.015,16.47c1.661,0.001,3.964-0.083,6.797-0.292c2.833-0.209,6.196-0.542,9.978-1.041    c12.565-1.658,25.3-4.644,37.487-9.318c0.932-0.357,1.854-0.732,2.769-1.12c0.305-0.129,0.604-0.269,0.907-0.401    c0.607-0.266,1.213-0.532,1.812-0.811c0.355-0.166,0.704-0.34,1.056-0.511c0.538-0.26,1.077-0.521,1.609-0.792    c0.37-0.189,0.735-0.385,1.102-0.579c0.505-0.267,1.01-0.535,1.509-0.812c0.374-0.207,0.743-0.42,1.113-0.633    c0.483-0.277,0.964-0.556,1.441-0.843c0.371-0.223,0.739-0.45,1.106-0.678c0.469-0.291,0.934-0.585,1.397-0.885    c0.362-0.235,0.723-0.472,1.081-0.712c0.458-0.307,0.912-0.618,1.364-0.933c0.352-0.245,0.703-0.492,1.051-0.742    c0.451-0.325,0.897-0.655,1.341-0.988c0.337-0.253,0.675-0.505,1.008-0.762c0.449-0.347,0.892-0.701,1.334-1.057    c0.318-0.255,0.637-0.508,0.951-0.768c0.455-0.376,0.902-0.761,1.349-1.146c0.291-0.251,0.586-0.498,0.874-0.752    c0.487-0.431,0.965-0.872,1.443-1.313c0.236-0.218,0.477-0.431,0.711-0.652c0.706-0.667,1.403-1.343,2.087-2.032    c0.014-0.014,0.028-0.029,0.042-0.043c0.669-0.675,1.327-1.362,1.975-2.057c0.221-0.238,0.435-0.483,0.654-0.723    c0.435-0.477,0.87-0.955,1.294-1.442c0.254-0.291,0.501-0.589,0.751-0.883c0.379-0.446,0.758-0.891,1.128-1.344    c0.259-0.317,0.512-0.639,0.766-0.959c0.35-0.441,0.7-0.882,1.042-1.329c0.256-0.334,0.507-0.673,0.758-1.011    c0.329-0.443,0.657-0.887,0.978-1.335c0.249-0.347,0.494-0.698,0.738-1.048c0.312-0.448,0.62-0.899,0.924-1.353    c0.24-0.358,0.477-0.717,0.711-1.078c0.298-0.458,0.59-0.919,0.88-1.383c0.227-0.363,0.452-0.726,0.674-1.092    c0.286-0.473,0.566-0.95,0.844-1.428c0.212-0.364,0.424-0.727,0.631-1.094c0.277-0.492,0.546-0.988,0.814-1.485    c0.194-0.36,0.391-0.719,0.581-1.082c0.273-0.523,0.536-1.051,0.8-1.579c0.171-0.343,0.347-0.684,0.514-1.03    c0.286-0.592,0.56-1.19,0.834-1.789c0.131-0.287,0.269-0.572,0.397-0.861c0.396-0.89,0.78-1.786,1.148-2.689    c0.019-0.047,0.037-0.096,0.056-0.143c0.348-0.856,0.683-1.717,1.005-2.584c0.115-0.309,0.22-0.622,0.332-0.932    c0.219-0.609,0.438-1.218,0.644-1.832c0.124-0.368,0.238-0.739,0.358-1.109c0.181-0.561,0.362-1.122,0.532-1.687    c0.119-0.396,0.231-0.794,0.345-1.192c0.156-0.545,0.311-1.09,0.458-1.638c0.11-0.411,0.213-0.824,0.317-1.237    c0.136-0.539,0.269-1.079,0.396-1.622c0.098-0.421,0.191-0.844,0.284-1.267c0.063-0.29,0.134-0.577,0.194-0.868h36.722    c0.06,0.29,0.131,0.578,0.194,0.868c0.092,0.423,0.185,0.845,0.284,1.267c0.126,0.542,0.26,1.082,0.396,1.622    c0.104,0.413,0.207,0.826,0.317,1.237c0.146,0.548,0.301,1.093,0.458,1.638c0.114,0.398,0.225,0.796,0.345,1.192    c0.17,0.565,0.351,1.126,0.532,1.687c0.119,0.37,0.234,0.741,0.358,1.109c0.206,0.614,0.425,1.223,0.644,1.832    c0.112,0.31,0.217,0.623,0.332,0.932c0.322,0.867,0.658,1.728,1.005,2.584c0.019,0.047,0.037,0.096,0.056,0.143    c0.368,0.903,0.752,1.799,1.148,2.689c0.129,0.29,0.267,0.575,0.399,0.864c0.273,0.597,0.547,1.194,0.832,1.785    c0.168,0.347,0.344,0.69,0.516,1.035c0.263,0.527,0.525,1.054,0.798,1.576c0.19,0.363,0.386,0.721,0.581,1.082    c0.268,0.497,0.537,0.994,0.814,1.486c0.207,0.367,0.42,0.731,0.632,1.096c0.278,0.477,0.557,0.954,0.843,1.426    c0.221,0.366,0.447,0.729,0.674,1.091c0.29,0.464,0.583,0.926,0.882,1.385c0.234,0.36,0.47,0.718,0.708,1.074    c0.305,0.455,0.614,0.907,0.926,1.356c0.244,0.35,0.488,0.7,0.737,1.047c0.322,0.449,0.649,0.894,0.979,1.337    c0.251,0.337,0.501,0.675,0.757,1.009c0.342,0.447,0.692,0.888,1.043,1.329c0.255,0.32,0.507,0.642,0.766,0.959    c0.373,0.456,0.754,0.904,1.135,1.353c0.247,0.291,0.491,0.585,0.742,0.873c0.427,0.489,0.864,0.969,1.301,1.449    c0.217,0.239,0.43,0.482,0.65,0.718c0.648,0.696,1.306,1.382,1.975,2.058c0.014,0.014,0.028,0.029,0.042,0.043    c0.684,0.689,1.381,1.366,2.088,2.033c0.232,0.219,0.471,0.431,0.706,0.647c0.479,0.442,0.958,0.885,1.447,1.317    c0.288,0.255,0.583,0.502,0.875,0.753c0.447,0.384,0.893,0.769,1.348,1.145c0.315,0.26,0.636,0.514,0.955,0.771    c0.441,0.354,0.882,0.707,1.33,1.053c0.335,0.258,0.673,0.511,1.012,0.765c0.444,0.332,0.889,0.663,1.339,0.987    c0.348,0.25,0.699,0.497,1.051,0.742c0.452,0.315,0.906,0.627,1.364,0.934c0.358,0.24,0.718,0.477,1.079,0.711    c0.464,0.301,0.931,0.596,1.401,0.888c0.365,0.227,0.731,0.453,1.1,0.674c0.479,0.287,0.962,0.568,1.447,0.846    c0.369,0.212,0.737,0.424,1.109,0.631c0.499,0.277,1.003,0.544,1.509,0.811c0.367,0.194,0.733,0.391,1.103,0.58    c0.531,0.271,1.068,0.53,1.606,0.79c0.353,0.171,0.703,0.346,1.059,0.512c0.6,0.28,1.209,0.547,1.817,0.814    c0.3,0.132,0.597,0.27,0.9,0.398c0.915,0.388,1.838,0.763,2.77,1.12c12.184,4.673,24.92,7.659,37.485,9.317    c0.942,0.124,1.858,0.238,2.746,0.343c0.269,0.032,0.519,0.057,0.783,0.086c0.608,0.069,1.22,0.139,1.801,0.198    c0.313,0.032,0.601,0.057,0.906,0.087c0.505,0.049,1.018,0.101,1.5,0.144c0.356,0.031,0.684,0.055,1.028,0.083    c0.401,0.033,0.815,0.069,1.198,0.097c0.324,0.024,0.619,0.041,0.93,0.061c0.374,0.025,0.76,0.052,1.114,0.073    c0.284,0.016,0.539,0.027,0.81,0.041c0.346,0.018,0.704,0.037,1.028,0.051c0.264,0.011,0.497,0.016,0.746,0.024    c0.299,0.01,0.61,0.022,0.888,0.028c0.236,0.005,0.44,0.006,0.661,0.008c0.239,0.003,0.495,0.009,0.716,0.009    c0.333,0.006,0.661,0.003,0.992,0.006c9.936,0.113,19.316-1.057,28.094-3.38c5.447-1.439,10.664-3.322,15.64-5.626    c12.302-5.685,23.117-13.887,32.27-24.139C461.789,438.416,461.561,439.66,461.325,440.942z"/>
	</g>
</g>
<g>
</g>
<g>
</g>
<g>
</g>
<g>
</g>
<g>
</g>
<g>
</g>
<g>
</g>
<g>
</g>
<g>
</g>
<g>
</g>
<g>
</g>
<g>
</g>
<g>
</g>
<g>
</g>
<g>
</g>
</svg>
