<?xml version="1.0" encoding="iso-8859-1"?>
<!-- Generator: Adobe Illustrator 19.0.0, SVG Export Plug-In . SVG Version: 6.00 Build 0)  -->
<svg xmlns="http://www.w3.org/2000/svg" xmlns:xlink="http://www.w3.org/1999/xlink" version="1.1" id="Layer_1" x="0px" y="0px" viewBox="0 0 512.206 512.206" style="enable-background:new 0 0 512.206 512.206;" xml:space="preserve">
<g transform="translate(-1 -1)">
	<g>
		<path d="M495.212,352.589c2.372-25.401-0.385-51.253-8.219-72.888c-5.833-16.109-13.205-43.635-21.7-80.211    c-3.052-13.141-6.217-27.317-9.473-42.376c-6.647-30.747-13.359-63.704-19.796-96.663c-2.253-11.537-4.311-22.249-6.131-31.862    c-0.637-3.363-1.198-6.348-1.679-8.921c-0.486-2.604-0.486-2.604-0.586-3.147c-0.608-3.287-3.079-5.917-6.322-6.727l-33.723-8.431    c-0.133-0.038-0.267-0.068-0.402-0.1l-0.008-0.002c0,0-0.001,0-0.001,0c-0.335-0.08-0.674-0.145-1.016-0.186    c-0.13-0.017-0.259-0.022-0.389-0.032c-0.154-0.012-0.308-0.021-0.462-0.024c-0.203-0.005-0.405-0.006-0.606,0.003    c-0.214,0.009-0.428,0.024-0.641,0.048c-0.113,0.014-0.224,0.031-0.336,0.05c-2.788,0.425-5.376,2.171-6.557,5.294    c-0.171,0.431-0.311,0.877-0.41,1.339l-79.075,308.381c-0.551,0.61-1.099,1.228-1.64,1.86    c-10.671,12.472-17.282,26.752-20.165,41.413h-37.548c-2.883-14.661-9.493-28.941-20.165-41.413    c-0.541-0.632-1.088-1.249-1.639-1.86L137.45,7.753c-0.098-0.463-0.239-0.908-0.41-1.339c-1.18-3.124-3.768-4.869-6.557-5.294    c-0.112-0.018-0.223-0.036-0.336-0.05c-0.213-0.024-0.427-0.039-0.641-0.048c-0.201-0.009-0.402-0.009-0.606-0.003    c-0.154,0.004-0.308,0.013-0.462,0.024c-0.13,0.011-0.258,0.016-0.389,0.032c-0.342,0.041-0.68,0.106-1.016,0.186    c0,0-0.001,0-0.001,0l-0.008,0.002c-0.134,0.032-0.269,0.062-0.402,0.1L92.9,9.794c-3.243,0.811-5.714,3.44-6.321,6.727    c-0.1,0.542-0.1,0.542-0.586,3.147c-0.481,2.573-1.042,5.558-1.679,8.921c-1.82,9.612-3.878,20.325-6.131,31.862    c-6.437,32.958-13.149,65.915-19.796,96.663c-3.256,15.06-6.421,29.235-9.473,42.376c-8.495,36.576-15.867,64.102-21.7,80.211    c-8.732,24.114-11.157,53.466-7.199,81.594c0.071,0.513,0.141,1.026,0.215,1.536c0.033,0.222,0.067,0.443,0.101,0.665    c1.333,8.918,3.252,17.467,5.74,25.567c2.469,13.775,4.67,25.828,9.158,50.251c0.433,2.357,0.433,2.357,0.866,4.715    c3.078,16.78,12.644,32.896,26.016,44.636c28.517,25.035,74.226,31.015,113.811,17.483c9.803-3.353,17.363-7.05,32.293-15.206    c0.519-0.283,0.519-0.283,1.036-0.566c8.746-4.78,12.854-6.941,17.893-9.308c1.709-0.803,1.815-0.854,6.368-3.094    c11.446-5.629,17.149-7.634,23.592-7.634s12.146,2.004,23.592,7.634c4.553,2.239,4.659,2.291,6.367,3.093    c5.04,2.367,9.147,4.529,17.894,9.308c0.518,0.283,0.518,0.283,1.036,0.566c14.93,8.157,22.49,11.853,32.292,15.206    c39.587,13.533,85.296,7.553,113.812-17.482c13.372-11.74,22.938-27.857,26.017-44.638c0.433-2.355,0.433-2.355,0.866-4.713    c4.445-24.19,6.646-36.246,9.087-49.859c3.514-11.37,5.914-23.623,7.131-36.55C495.207,352.799,495.206,352.695,495.212,352.589z     M472.044,382.919c-0.055,0.152-0.115,0.298-0.164,0.457c-1.696,5.514-3.648,10.751-5.847,15.694    c-0.022,0.049-0.044,0.097-0.066,0.145c-0.48,1.076-0.976,2.135-1.479,3.183c-0.143,0.297-0.288,0.592-0.433,0.887    c-0.396,0.806-0.799,1.601-1.209,2.39c-0.217,0.417-0.435,0.833-0.656,1.246c-0.357,0.668-0.722,1.327-1.09,1.983    c-0.262,0.466-0.523,0.932-0.789,1.391c-0.354,0.61-0.715,1.209-1.078,1.807c-0.281,0.462-0.559,0.927-0.845,1.382    c-0.389,0.619-0.787,1.226-1.186,1.832c-0.265,0.404-0.527,0.812-0.796,1.21c-0.514,0.758-1.04,1.501-1.57,2.238    c-0.161,0.224-0.316,0.454-0.478,0.675c-5.805,7.929-12.543,14.594-20.158,19.859c-0.181,0.125-0.362,0.249-0.544,0.372    c-0.797,0.541-1.602,1.068-2.418,1.578c-0.263,0.164-0.53,0.322-0.795,0.483c-0.624,0.38-1.253,0.75-1.887,1.112    c-0.273,0.156-0.544,0.316-0.82,0.469c-0.808,0.448-1.627,0.878-2.453,1.297c-0.262,0.133-0.524,0.265-0.787,0.395    c-0.912,0.45-1.831,0.887-2.763,1.301c-0.067,0.03-0.135,0.058-0.202,0.088c-4.261,1.879-8.735,3.39-13.416,4.512    c-0.05,0.012-0.101,0.024-0.152,0.036c-1.08,0.257-2.173,0.49-3.275,0.705c-0.16,0.031-0.319,0.062-0.479,0.092    c-0.996,0.189-2.003,0.357-3.016,0.512c-0.242,0.037-0.482,0.075-0.725,0.11c-0.846,0.122-1.702,0.223-2.56,0.321    c13.724-18.438,19.578-43.711,20.942-77.803c0.289-7.224,0.381-13.239,0.4-23.944c18.396,0.478,37.706,3.067,58.082,7.71    C476.18,366.93,474.418,375.091,472.044,382.919z M401.797,374.197c-1.541,38.509-9.074,63.241-27.162,78.385    c-1.373-0.144-2.777-0.303-4.239-0.496c-11.323-1.494-22.783-4.181-33.608-8.333c-0.877-0.336-1.74-0.692-2.595-1.058    c-0.219-0.094-0.436-0.191-0.654-0.287c-0.693-0.305-1.379-0.618-2.058-0.943c-0.163-0.078-0.328-0.155-0.49-0.234    c-1.746-0.851-3.446-1.764-5.093-2.74c-0.033-0.02-0.066-0.04-0.099-0.059c-5.073-3.017-9.662-6.609-13.719-10.663    c-0.083-0.083-0.166-0.167-0.249-0.251c-0.569-0.574-1.125-1.159-1.673-1.751c-0.091-0.098-0.184-0.194-0.274-0.293    c-0.565-0.618-1.116-1.248-1.657-1.884c-0.239-0.282-0.471-0.568-0.705-0.854c-0.27-0.328-0.537-0.657-0.8-0.99    c-0.316-0.399-0.629-0.8-0.936-1.206c-0.105-0.139-0.207-0.28-0.312-0.419c-6.198-8.33-10.462-17.913-12.609-27.992    c-0.026-0.124-0.051-0.247-0.076-0.371c-0.075-0.362-0.144-0.726-0.214-1.089c33.183-24.682,69.157-37.599,109.607-39.544    C402.164,361.472,402.073,367.294,401.797,374.197z M383.266,51.078c2.477,14.999,4.959,29.908,7.385,44.332L349.02,285.72    c-11.651,4.138-21.135,8.196-29.203,12.797L383.266,51.078z M398.299,140.308c6.103,35.253,10.486,58.88,12.658,67.568    c7.345,29.381-7.037,55.386-42.948,70.9L398.299,140.308z M309.01,329.088c0.49-0.572,0.988-1.131,1.492-1.683    c0.345-0.269,0.682-0.564,1.004-0.9c10.691-11.154,24.514-18.356,47.574-26.199c0.083-0.028,0.158-0.069,0.24-0.099    c0.946-0.322,1.903-0.646,2.881-0.972c52.105-17.368,75.679-54.04,65.314-95.499c-2.446-9.785-8.236-41.711-16.243-88.742    c-0.601-3.53-0.601-3.53-1.2-7.066c-0.764-4.504-1.537-9.089-2.315-13.713c-0.001-0.004-0.001-0.009-0.002-0.013    c-3.306-19.644-6.682-39.985-9.947-59.854c-0.779-4.738-1.512-9.211-2.194-13.387l16.239,4.06c0.383,2.039,0.807,4.29,1.271,6.741    c1.826,9.643,3.89,20.388,6.15,31.958c6.457,33.062,13.191,66.126,19.865,96.998c3.273,15.14,6.457,29.4,9.53,42.631    c8.641,37.204,16.147,65.231,22.277,82.161c6.008,16.591,8.652,36.216,7.897,55.998c-23.813-5.272-46.381-7.866-67.863-7.69    c-0.087-0.003-0.172-0.013-0.26-0.013c-0.11,0-0.216,0.012-0.325,0.016c-43.659,0.459-82.829,12.405-118.835,36.679    c0.048-0.545,0.086-1.089,0.145-1.635c0.009-0.086,0.007-0.171,0.014-0.257C293.294,354.677,298.91,340.893,309.01,329.088z     M94.982,350.938c0.035,10.325,0.155,16.507,0.487,23.853c1.537,34.009,7.638,59.425,21.566,77.949    c-20.641-2.261-37.895-11.461-51.16-25.928c-0.438-0.484-0.879-0.963-1.308-1.458c-0.083-0.094-0.166-0.189-0.248-0.284    c-1.557-1.814-3.058-3.706-4.501-5.678c-0.063-0.086-0.123-0.176-0.186-0.263c-0.632-0.87-1.253-1.753-1.862-2.653    c-0.218-0.322-0.43-0.654-0.645-0.98c-0.449-0.68-0.896-1.363-1.333-2.059c-0.255-0.407-0.504-0.823-0.755-1.235    c-0.392-0.645-0.783-1.293-1.164-1.951c-0.246-0.424-0.488-0.855-0.73-1.285c-0.387-0.688-0.77-1.381-1.146-2.084    c-0.208-0.388-0.413-0.779-0.617-1.172c-0.421-0.81-0.837-1.628-1.243-2.457c-0.136-0.277-0.272-0.554-0.407-0.833    c-0.511-1.063-1.014-2.137-1.501-3.229c-0.016-0.036-0.033-0.073-0.049-0.109c-2.201-4.947-4.155-10.188-5.852-15.706    c-0.049-0.159-0.109-0.305-0.164-0.457c-2.189-7.217-3.865-14.714-5.015-22.333c-0.022-0.153-0.044-0.307-0.066-0.46    c-0.077-0.52-0.146-1.041-0.218-1.561C57.249,353.96,76.573,351.398,94.982,350.938z M143.81,452.084    c-1.225,0.161-2.409,0.299-3.572,0.426c-18.2-15.231-25.989-40.182-27.72-78.49c-0.316-6.991-0.433-12.954-0.468-22.88    c40.442,1.97,76.418,14.848,109.597,39.438c-0.04,0.208-0.081,0.416-0.123,0.624c-0.075,0.38-0.152,0.759-0.233,1.137    c-0.105,0.486-0.215,0.971-0.33,1.455c-0.034,0.142-0.067,0.285-0.101,0.427c-2.268,9.303-6.356,18.131-12.114,25.877    c-0.112,0.15-0.222,0.302-0.335,0.451c-0.302,0.399-0.61,0.794-0.921,1.187c-0.271,0.342-0.545,0.681-0.823,1.018    c-0.227,0.277-0.453,0.555-0.684,0.829c-0.545,0.641-1.099,1.274-1.667,1.896c-0.084,0.092-0.17,0.181-0.255,0.273    c-0.554,0.6-1.118,1.192-1.694,1.773c-0.078,0.079-0.156,0.158-0.234,0.236c-4.06,4.059-8.654,7.655-13.733,10.675    c-0.029,0.017-0.057,0.035-0.086,0.052c-1.649,0.978-3.352,1.892-5.101,2.745c-0.16,0.078-0.322,0.153-0.482,0.23    c-0.681,0.326-1.37,0.64-2.065,0.946c-0.216,0.095-0.432,0.192-0.65,0.285c-0.856,0.367-1.72,0.723-2.597,1.059    c-1.353,0.519-2.717,1.015-4.088,1.489c-0.142,0.049-0.287,0.092-0.429,0.141c-5.351,1.828-10.825,3.323-16.337,4.506    c-0.51,0.109-1.022,0.202-1.532,0.307C151.295,450.955,147.545,451.591,143.81,452.084z M115.906,140.308l30.29,138.468    c-35.911-15.513-50.293-41.519-42.948-70.9C105.42,199.188,109.803,175.561,115.906,140.308z M165.185,285.72l-41.63-190.309    c2.426-14.424,4.908-29.334,7.385-44.332l63.448,247.438C186.321,293.916,176.836,289.858,165.185,285.72z M43.26,285.512    c6.13-16.93,13.636-44.956,22.277-82.161c3.073-13.231,6.257-27.49,9.53-42.631c6.674-30.872,13.408-63.936,19.865-96.998    c2.26-11.57,4.324-22.315,6.15-31.958c0.464-2.451,0.888-4.702,1.271-6.741l16.239-4.06c-0.683,4.176-1.416,8.648-2.195,13.387    c-3.265,19.869-6.641,40.209-9.947,59.854c-0.001,0.004-0.001,0.009-0.002,0.013c-0.778,4.624-1.552,9.208-2.315,13.713    c-0.6,3.536-0.6,3.536-1.2,7.066c-8.007,47.03-13.796,78.957-16.243,88.742c-10.365,41.459,13.21,78.13,65.313,95.498    c0.978,0.326,1.936,0.649,2.882,0.972c0.081,0.031,0.157,0.071,0.24,0.099c23.06,7.843,36.883,15.045,47.574,26.199    c0.322,0.336,0.659,0.631,1.004,0.9c0.503,0.552,1.002,1.11,1.491,1.682c10.101,11.805,15.717,25.59,17.29,39.524    c0.007,0.085,0.005,0.169,0.014,0.255c0.057,0.518,0.092,1.034,0.138,1.551c-35.935-24.14-75.022-36.051-118.568-36.583    c-0.188-0.012-0.375-0.029-0.566-0.029c-0.149,0-0.294,0.015-0.441,0.022c-21.436-0.176-43.951,2.39-67.702,7.604    C34.615,321.676,37.26,302.081,43.26,285.512z M461.327,440.945c-2.363,12.882-9.921,25.615-20.49,34.895    c-23.568,20.691-62.879,25.834-97.031,14.159c-8.597-2.941-15.529-6.33-29.631-14.034c-0.517-0.282-0.517-0.282-1.035-0.565    c-9.047-4.944-13.368-7.217-18.822-9.779c-1.57-0.737-1.673-0.788-6.091-2.961c-13.726-6.751-21.224-9.386-31.124-9.386    s-17.398,2.635-31.124,9.386c-4.418,2.173-4.521,2.223-6.091,2.961c-5.453,2.561-9.775,4.835-18.821,9.779    c-0.518,0.283-0.518,0.283-1.035,0.565c-14.102,7.705-21.034,11.094-29.633,14.035c-34.15,11.674-73.461,6.532-97.029-14.159    c-10.569-9.279-18.127-22.012-20.49-34.892c-0.356-1.935-0.421-2.293-0.672-3.656c4.971,5.614,10.447,10.609,16.408,14.909    c0.237,0.172,0.477,0.339,0.715,0.508c0.248,0.176,0.495,0.354,0.744,0.528c0.233,0.161,0.468,0.319,0.702,0.478    c0.252,0.172,0.503,0.345,0.756,0.515c0.344,0.23,0.689,0.457,1.036,0.683c0.713,0.464,1.432,0.918,2.158,1.362    c0.381,0.233,0.764,0.463,1.148,0.69c0.661,0.391,1.327,0.773,1.998,1.148c0.414,0.232,0.828,0.463,1.246,0.688    c0.781,0.421,1.568,0.831,2.362,1.23c0.419,0.211,0.841,0.417,1.264,0.621c0.64,0.31,1.286,0.611,1.935,0.907    c0.376,0.171,0.748,0.348,1.127,0.515c0.924,0.406,1.858,0.795,2.799,1.172c0.431,0.173,0.865,0.339,1.299,0.506    c0.667,0.256,1.338,0.505,2.013,0.747c0.404,0.145,0.805,0.294,1.211,0.433c0.977,0.335,1.962,0.654,2.956,0.959    c0.418,0.128,0.839,0.249,1.26,0.372c0.726,0.212,1.456,0.416,2.19,0.612c0.406,0.108,0.81,0.219,1.218,0.323    c1.044,0.264,2.096,0.513,3.156,0.745c0.372,0.081,0.748,0.154,1.122,0.232c0.819,0.169,1.643,0.329,2.473,0.479    c0.389,0.07,0.778,0.142,1.169,0.208c1.12,0.189,2.248,0.363,3.386,0.517c0.294,0.04,0.592,0.072,0.887,0.109    c0.941,0.119,1.888,0.226,2.84,0.32c0.368,0.036,0.735,0.073,1.105,0.106c1.201,0.107,2.408,0.2,3.627,0.268    c0.175,0.01,0.353,0.014,0.528,0.023c1.099,0.056,2.206,0.095,3.319,0.119c0.346,0.008,0.693,0.015,1.041,0.019    c1.279,0.017,2.563,0.021,3.862-0.004c0.799,0,1.75-0.019,2.833-0.063c0.092-0.004,0.186-0.008,0.28-0.012    c0.492-0.021,1.01-0.047,1.554-0.078c1.309-0.075,2.763-0.179,4.353-0.32c2.318-0.205,4.919-0.486,7.756-0.861    c4.014-0.53,8.045-1.212,12.071-2.024c8.574-1.729,17.121-4.109,25.413-7.287c1.091-0.418,2.165-0.86,3.23-1.317    c0.058-0.025,0.115-0.052,0.172-0.077c0.321-0.138,0.638-0.283,0.956-0.424c0.355-0.158,0.713-0.311,1.065-0.472    c0.286-0.132,0.569-0.268,0.853-0.402c0.168-0.079,0.333-0.162,0.5-0.242c0.462-0.222,0.924-0.442,1.38-0.671    c0.344-0.173,0.684-0.351,1.025-0.528c0.064-0.033,0.128-0.065,0.191-0.099c0.076-0.04,0.154-0.079,0.23-0.119    c0.419-0.22,0.836-0.441,1.25-0.667c0.27-0.147,0.538-0.298,0.806-0.448c0.623-0.348,1.24-0.702,1.851-1.063    c0.205-0.121,0.408-0.243,0.612-0.366c0.676-0.407,1.345-0.823,2.007-1.246c0.142-0.091,0.285-0.182,0.427-0.274    c0.733-0.475,1.455-0.959,2.169-1.453c0.073-0.051,0.148-0.101,0.221-0.152c4.058-2.825,7.812-5.949,11.245-9.331    c0.158-0.155,0.312-0.315,0.468-0.471c0.486-0.486,0.968-0.975,1.441-1.471c0.267-0.28,0.529-0.564,0.792-0.847    c0.343-0.37,0.685-0.741,1.021-1.116c0.339-0.377,0.672-0.758,1.004-1.141c0.235-0.272,0.468-0.544,0.7-0.819    c0.401-0.474,0.796-0.952,1.186-1.434c0.128-0.158,0.254-0.318,0.38-0.477c2.882-3.615,5.473-7.452,7.749-11.482    c0.036-0.064,0.071-0.129,0.107-0.194c0.458-0.816,0.904-1.639,1.337-2.471c0.142-0.272,0.279-0.547,0.418-0.82    c0.31-0.612,0.616-1.227,0.912-1.847c0.204-0.425,0.403-0.853,0.6-1.282c0.207-0.453,0.411-0.907,0.611-1.363    c0.249-0.567,0.494-1.137,0.731-1.709c0.118-0.286,0.233-0.575,0.349-0.862c0.293-0.728,0.58-1.459,0.854-2.195    c0.022-0.059,0.042-0.118,0.064-0.177c2.36-6.385,3.996-13.07,4.855-19.935c0.016-0.123,0.031-0.247,0.046-0.37    c0.085-0.701,0.164-1.404,0.233-2.109c0.044-0.448,0.08-0.896,0.118-1.345c0.038-0.466,0.083-0.93,0.114-1.398    c0.071-1.04,0.122-2.082,0.158-3.126c0.001-0.02,0.001-0.04,0.001-0.06c0.037-1.116,0.05-2.234,0.046-3.353h34.185    c-0.004,1.117,0.009,2.233,0.046,3.348c0.001,0.023,0.001,0.045,0.002,0.068c0.036,1.042,0.086,2.082,0.157,3.12    c0.032,0.475,0.077,0.946,0.116,1.419c0.037,0.441,0.072,0.881,0.116,1.321c0.069,0.71,0.149,1.417,0.234,2.123    c0.014,0.117,0.029,0.234,0.044,0.351c0.676,5.409,1.835,10.705,3.451,15.833c0.194,0.622,0.388,1.243,0.596,1.859    c0.056,0.166,0.117,0.33,0.174,0.496c8.278,24.112,26.554,43.792,51.565,53.375c12.184,4.673,24.92,7.659,37.485,9.317    c7.564,0.998,13.453,1.334,16.939,1.334c31.971,0.615,58.029-11.738,76.846-32.971    C461.741,438.687,461.666,439.098,461.327,440.945z"/>
	</g>
</g>
<g>
</g>
<g>
</g>
<g>
</g>
<g>
</g>
<g>
</g>
<g>
</g>
<g>
</g>
<g>
</g>
<g>
</g>
<g>
</g>
<g>
</g>
<g>
</g>
<g>
</g>
<g>
</g>
<g>
</g>
</svg>
