<?xml version="1.0" encoding="iso-8859-1"?>
<!-- Generator: Adobe Illustrator 19.0.0, SVG Export Plug-In . SVG Version: 6.00 Build 0)  -->
<svg xmlns="http://www.w3.org/2000/svg" xmlns:xlink="http://www.w3.org/1999/xlink" version="1.1" id="Layer_1" x="0px" y="0px" viewBox="0 0 512.152 512.152" style="enable-background:new 0 0 512.152 512.152;" xml:space="preserve">
<g>
	<g>
		<path d="M485.967,278.704c-21.641-59.75-58.991-261.154-59.366-263.185c-0.606-3.285-3.081-5.914-6.323-6.724L386.25,0.288    c-0.018-0.005-0.034-0.012-0.052-0.016c-0.359-0.092-0.719-0.151-1.078-0.196c-0.024-0.003-0.048-0.004-0.072-0.007    c-0.326-0.038-0.651-0.055-0.973-0.055c-0.02,0-0.04,0-0.06,0c-1.032,0.008-2.038,0.2-2.977,0.559    c-0.058,0.022-0.114,0.047-0.171,0.07c-0.239,0.098-0.474,0.205-0.703,0.324c-0.08,0.041-0.159,0.082-0.237,0.125    c-0.234,0.13-0.461,0.272-0.682,0.424c-0.046,0.032-0.094,0.06-0.14,0.092c-0.27,0.193-0.528,0.403-0.774,0.627    c-0.009,0.008-0.02,0.015-0.029,0.023c-0.027,0.025-0.049,0.054-0.076,0.079c-0.204,0.192-0.398,0.393-0.583,0.605    c-0.054,0.062-0.106,0.124-0.158,0.187c-0.169,0.205-0.328,0.419-0.479,0.641c-0.034,0.05-0.07,0.099-0.103,0.149    c-0.359,0.555-0.656,1.158-0.882,1.803c-0.01,0.029-0.018,0.059-0.028,0.088c-0.067,0.199-0.136,0.397-0.189,0.604    l-79.153,308.728c-0.551,0.606-1.097,1.221-1.634,1.849c-10.282,12.019-17.092,26.332-20.083,41.413h-37.717    c-2.991-15.079-9.801-29.39-20.082-41.408c-0.538-0.629-1.083-1.245-1.635-1.851L136.346,6.415    c-0.055-0.213-0.124-0.418-0.193-0.622c-0.006-0.019-0.011-0.039-0.018-0.058c-0.232-0.668-0.54-1.29-0.913-1.862    c0-0.001-0.001-0.002-0.002-0.002c-0.187-0.286-0.39-0.557-0.607-0.815c-0.015-0.018-0.03-0.036-0.046-0.055    c-1.59-1.863-3.933-2.98-6.44-2.991c-0.013,0-0.026,0-0.039,0c-0.314,0-0.629,0.017-0.947,0.053    c-0.044,0.005-0.087,0.008-0.131,0.013c-0.299,0.038-0.598,0.091-0.898,0.162c-0.035,0.008-0.07,0.01-0.105,0.019l-0.051,0.013    c-0.001,0-0.003,0-0.004,0.001c-0.001,0-0.002,0.001-0.003,0.001L91.874,8.791c-3.243,0.819-5.717,3.448-6.323,6.733    C85.176,17.546,47.817,218.959,26.185,278.7c-10.706,29.57-12.838,71.492-1.196,109.028c3.167,17.677,6.41,35.347,9.656,53.016    l0.418,2.287c3.029,16.503,12.518,32.777,26.027,44.629c27.64,24.277,73.37,31.3,113.801,17.485    c11.947-4.079,22.69-9.958,33.084-15.642c5.914-3.226,12.023-6.562,18.142-9.438c1.826-0.853,3.652-1.758,5.504-2.671    c8.422-4.139,16.375-8.055,24.457-8.055s16.034,3.917,24.457,8.055c1.843,0.913,3.678,1.818,5.504,2.671    c6.118,2.876,12.228,6.212,18.142,9.438c10.385,5.683,21.137,11.563,33.084,15.642c13.807,4.719,28.228,7.006,42.334,7.006    c27.213,0,53.265-8.508,71.467-24.491c13.508-11.853,22.989-28.126,26.018-44.629l0.427-2.287    c3.246-17.67,6.49-35.341,9.657-53.019C498.805,350.191,496.673,308.268,485.967,278.704z M471.151,381.546    c-0.2,0.477-0.356,0.979-0.47,1.502c-3.849,12.373-9.336,24.141-16.731,34.468c-16.913,23.62-40.312,35.285-69.871,34.756    c-0.234,0-22.877-0.113-46.896-8.983c-8.919-24.774-3.915-52.285,13.422-72.55c13.389-15.65,33.621-23.33,53.197-29.858    c32.522-10.841,56.074-31.03,66.636-54.851C479.292,311.713,480.994,348.646,471.151,381.546z M382.234,50.078    c2.172,13.156,4.718,28.481,7.385,44.341l-41.625,190.284c-9.98,3.523-19.952,7.557-29.235,12.931L382.234,50.078z     M397.271,139.319c5.395,31.145,10.31,58.168,12.656,67.56c7.61,30.423-7.971,55.812-42.944,70.9L397.271,139.319z     M307.988,328.086c0.535-0.625,1.098-1.217,1.654-1.818c0.597-0.475,1.13-1.032,1.584-1.659    c12.418-12.471,29.491-19.413,46.422-25.184c0.245-0.07,0.484-0.152,0.721-0.243c0.936-0.318,1.873-0.635,2.807-0.946    c60.698-20.233,73.54-62.601,65.314-95.505c-5.342-21.359-25.353-142.737-31.906-182.767l16.239,4.062    c5.12,27.321,27.875,147.09,47.123,220.351c0.007,0.028,0.01,0.056,0.017,0.084c8.201,32.811-16.29,65.801-59.563,80.23    c-21.845,7.279-44.527,15.974-60.757,34.944c-17.423,20.367-24.74,46.693-20.87,72.29c-11.856-9.458-20.371-22.586-24.273-37.971    C286.646,370.889,292.431,346.262,307.988,328.086z M114.879,139.316l30.289,138.465c-34.973-15.095-50.553-40.484-42.952-70.906    C104.566,197.484,109.483,170.461,114.879,139.316z M164.156,284.705L122.531,94.42c2.667-15.859,5.213-31.184,7.386-44.339    l63.473,247.55C184.107,292.257,174.135,288.225,164.156,284.705z M101.329,24.023l16.239-4.062    c-2.552,15.591-7.145,43.522-12.118,73.078c-0.003,0.016-0.005,0.033-0.008,0.049c-7.792,46.316-16.515,96.607-19.78,109.648    c-8.226,32.896,4.617,75.264,65.314,95.497c0.906,0.302,1.814,0.61,2.722,0.917c0.316,0.126,0.637,0.239,0.967,0.326    c16.876,5.76,33.871,12.703,46.255,25.127c0.458,0.633,0.997,1.196,1.6,1.675c0.552,0.596,1.112,1.183,1.644,1.804    c15.556,18.176,21.342,42.803,15.488,65.877c-3.903,15.386-12.424,28.516-24.287,37.975c3.874-25.599-3.438-51.929-20.87-72.298    c-16.23-18.97-38.912-27.665-60.757-34.944c-43.189-14.402-67.663-47.292-59.604-80.04    C73.398,171.412,96.203,51.378,101.329,24.023z M41.709,286.048c10.567,23.813,34.114,43.995,66.628,54.832    c19.576,6.528,39.808,14.208,53.197,29.858c17.337,20.258,22.341,47.771,13.42,72.553c-23.887,8.824-46.659,8.986-47.043,8.986    c-29.329,0.751-52.796-11.127-69.709-34.765c-7.395-10.328-12.883-22.098-16.733-34.472c-0.112-0.505-0.262-0.991-0.455-1.453    C31.156,348.682,32.85,311.737,41.709,286.048z M460.304,439.952c-2.355,12.8-9.822,25.515-20.497,34.884    c-23.219,20.378-62.208,26.061-97.024,14.165c-10.564-3.618-20.215-8.883-30.421-14.473c-6.135-3.345-12.476-6.818-19.072-9.916    c-1.732-0.811-3.473-1.664-5.222-2.526c-9.344-4.599-19.934-9.813-31.991-9.813s-22.647,5.214-32,9.813    c-1.749,0.862-3.482,1.715-5.214,2.526c-6.596,3.098-12.937,6.571-19.072,9.916c-10.214,5.589-19.857,10.854-30.421,14.473    c-34.842,11.904-73.822,6.204-97.024-14.165c-10.675-9.37-18.142-22.084-20.497-34.884l-0.418-2.287    c-0.099-0.542-0.198-1.083-0.298-1.625c19.126,21.865,44.729,33.321,74.662,33.321c0.751,0,1.519,0,2.278-0.017    c1.092,0,26.965-0.128,54.434-10.65c26.982-10.351,46.549-32.41,53.692-60.536c1.899-7.491,2.794-15.112,2.746-22.686h34.262    c-0.047,7.572,0.848,15.192,2.747,22.681c7.142,28.126,26.709,50.193,53.692,60.535c27.324,10.479,53.077,10.65,54.255,10.65    h0.017c0.768,0.017,1.527,0.026,2.295,0.026c30.063,0,55.681-11.464,74.809-33.331c-0.1,0.544-0.199,1.088-0.299,1.632    L460.304,439.952z"/>
	</g>
</g>
<g>
</g>
<g>
</g>
<g>
</g>
<g>
</g>
<g>
</g>
<g>
</g>
<g>
</g>
<g>
</g>
<g>
</g>
<g>
</g>
<g>
</g>
<g>
</g>
<g>
</g>
<g>
</g>
<g>
</g>
</svg>
