<?xml version="1.0" encoding="iso-8859-1"?>
<!-- Generator: Adobe Illustrator 19.0.0, SVG Export Plug-In . SVG Version: 6.00 Build 0)  -->
<svg xmlns="http://www.w3.org/2000/svg" xmlns:xlink="http://www.w3.org/1999/xlink" version="1.1" id="Layer_1" x="0px" y="0px" viewBox="0 0 512.206 512.206" style="enable-background:new 0 0 512.206 512.206;" xml:space="preserve">
<g transform="translate(-1 -1)">
	<g>
		<path d="M486.993,279.701c-5.833-16.109-13.205-43.635-21.7-80.211c-3.052-13.141-6.217-27.317-9.473-42.376    c-6.647-30.747-13.359-63.704-19.796-96.663c-2.253-11.537-4.311-22.249-6.131-31.862c-0.637-3.363-1.198-6.348-1.679-8.921    c-0.486-2.604-0.486-2.604-0.586-3.147c-0.608-3.287-3.079-5.917-6.322-6.727l-33.723-8.431c-0.135-0.039-0.273-0.07-0.41-0.102    l-0.001,0c0,0,0,0,0,0c-0.336-0.08-0.675-0.146-1.017-0.186c-0.13-0.017-0.258-0.022-0.387-0.032    c-0.154-0.012-0.308-0.021-0.463-0.024c-0.203-0.005-0.405-0.006-0.606,0.003c-0.214,0.009-0.428,0.024-0.641,0.048    c-0.113,0.014-0.224,0.031-0.336,0.05c-2.788,0.425-5.376,2.17-6.556,5.293c-0.171,0.432-0.312,0.877-0.41,1.34L297.684,316.13    c-0.552,0.611-1.101,1.23-1.643,1.863c-10.671,12.472-17.282,26.752-20.165,41.413h-37.548    c-2.883-14.661-9.493-28.941-20.165-41.413c-0.541-0.632-1.088-1.249-1.639-1.86L137.45,7.753    c-0.098-0.463-0.239-0.908-0.41-1.339c-1.18-3.124-3.768-4.869-6.557-5.294c-0.112-0.018-0.223-0.036-0.336-0.05    c-0.213-0.024-0.427-0.039-0.641-0.048c-0.201-0.009-0.402-0.009-0.606-0.003c-0.154,0.004-0.308,0.013-0.462,0.024    c-0.13,0.011-0.258,0.016-0.389,0.032c-0.342,0.041-0.68,0.106-1.016,0.186c0,0-0.001,0-0.001,0l-0.008,0.002    c-0.134,0.032-0.269,0.062-0.402,0.1L92.9,9.794c-3.243,0.811-5.714,3.44-6.321,6.727c-0.1,0.542-0.1,0.542-0.586,3.147    c-0.481,2.573-1.042,5.558-1.679,8.921c-1.82,9.612-3.878,20.325-6.131,31.862c-6.437,32.958-13.149,65.915-19.796,96.663    c-3.256,15.06-6.421,29.235-9.473,42.376c-8.495,36.576-15.867,64.102-21.7,80.211c-11.566,31.942-12.075,73.073-1.32,108.374    c2.543,14.195,4.74,26.235,9.335,51.239c0.433,2.357,0.433,2.357,0.866,4.715c3.078,16.78,12.644,32.896,26.016,44.636    c28.517,25.035,74.226,31.015,113.811,17.483c9.803-3.353,17.363-7.05,32.293-15.206c0.519-0.283,0.519-0.283,1.036-0.566    c8.746-4.78,12.854-6.941,17.893-9.308c1.709-0.803,1.815-0.854,6.368-3.094c11.446-5.629,17.149-7.634,23.592-7.634    s12.146,2.004,23.592,7.634c4.553,2.239,4.659,2.291,6.367,3.093c5.04,2.367,9.147,4.529,17.894,9.308    c0.518,0.283,0.518,0.283,1.036,0.566c14.93,8.157,22.49,11.853,32.292,15.206c39.587,13.533,85.296,7.553,113.812-17.482    c13.372-11.74,22.938-27.857,26.017-44.638c0.433-2.355,0.433-2.355,0.866-4.713c4.594-25.005,6.792-37.044,9.335-51.239    C499.068,352.774,498.559,311.643,486.993,279.701z M383.266,51.079c2.477,14.998,4.959,29.908,7.385,44.332L349.02,285.72    c-11.65,4.138-21.133,8.195-29.201,12.795L383.266,51.079z M398.299,140.308c6.103,35.253,10.486,58.88,12.658,67.568    c7.345,29.381-7.037,55.386-42.948,70.9L398.299,140.308z M309.01,329.088c0.48-0.561,0.968-1.108,1.461-1.649    c0.356-0.276,0.704-0.58,1.037-0.927c10.69-11.16,24.511-18.362,47.572-26.206c0.083-0.028,0.158-0.069,0.24-0.099    c0.946-0.322,1.903-0.646,2.881-0.972c52.105-17.368,75.679-54.04,65.314-95.499c-2.446-9.785-8.236-41.711-16.243-88.742    c-0.601-3.53-0.601-3.53-1.2-7.066c-0.764-4.504-1.537-9.089-2.315-13.713c-0.001-0.004-0.001-0.009-0.002-0.013    c-3.306-19.644-6.682-39.985-9.947-59.854c-0.779-4.738-1.512-9.211-2.194-13.387l16.239,4.06c0.383,2.039,0.807,4.29,1.271,6.741    c1.826,9.643,3.89,20.388,6.15,31.958c6.457,33.062,13.191,66.126,19.865,96.998c3.273,15.14,6.457,29.4,9.53,42.631    c8.641,37.204,16.147,65.231,22.277,82.161c10.28,28.391,10.727,65.66,1.098,97.408c-0.055,0.152-0.115,0.298-0.164,0.457    c-1.696,5.514-3.648,10.751-5.847,15.694c-0.022,0.049-0.044,0.097-0.066,0.145c-0.48,1.076-0.976,2.135-1.479,3.183    c-0.143,0.297-0.288,0.592-0.433,0.887c-0.396,0.806-0.799,1.601-1.209,2.39c-0.217,0.417-0.435,0.833-0.656,1.246    c-0.357,0.668-0.722,1.327-1.09,1.983c-0.262,0.466-0.523,0.932-0.789,1.391c-0.354,0.61-0.715,1.209-1.078,1.807    c-0.281,0.462-0.559,0.927-0.845,1.382c-0.389,0.619-0.787,1.226-1.186,1.832c-0.265,0.404-0.527,0.812-0.796,1.21    c-0.514,0.758-1.04,1.501-1.57,2.238c-0.161,0.224-0.316,0.454-0.478,0.675c-11.746,16.045-27.303,26.927-46.243,31.467    c-0.05,0.012-0.101,0.024-0.152,0.036c-1.08,0.257-2.173,0.49-3.275,0.705c-0.16,0.031-0.319,0.062-0.479,0.092    c-0.996,0.189-2.003,0.357-3.016,0.512c-0.242,0.037-0.482,0.075-0.725,0.11c-0.94,0.135-1.89,0.251-2.845,0.357    c-0.304,0.033-0.605,0.071-0.911,0.102c-0.91,0.092-1.831,0.163-2.754,0.227c-0.343,0.024-0.683,0.055-1.028,0.075    c-0.933,0.055-1.877,0.088-2.823,0.116c-0.331,0.01-0.658,0.029-0.991,0.035c-1.272,0.024-2.554,0.027-3.849,0.002    c-0.593-0.001-1.479-0.021-2.689-0.077c-0.403-0.019-0.842-0.041-1.318-0.068c-3.248-0.185-6.901-0.521-10.865-1.044    c-11.323-1.494-22.783-4.181-33.608-8.333c-0.877-0.336-1.74-0.692-2.595-1.058c-0.219-0.094-0.436-0.191-0.654-0.287    c-0.693-0.305-1.379-0.618-2.058-0.943c-0.163-0.078-0.328-0.155-0.49-0.234c-1.746-0.851-3.446-1.764-5.093-2.74    c-0.033-0.02-0.066-0.04-0.099-0.059c-5.073-3.017-9.662-6.609-13.719-10.663c-0.083-0.083-0.166-0.167-0.249-0.251    c-0.569-0.574-1.125-1.159-1.673-1.751c-0.091-0.098-0.184-0.194-0.274-0.293c-0.565-0.618-1.116-1.248-1.657-1.884    c-0.239-0.282-0.471-0.568-0.705-0.854c-0.27-0.328-0.537-0.657-0.8-0.99c-0.316-0.399-0.629-0.8-0.936-1.206    c-0.105-0.139-0.207-0.28-0.312-0.419c-7.471-10.042-12.133-21.904-13.664-34.261c-0.007-0.055-0.012-0.11-0.019-0.165    c-0.109-0.899-0.197-1.801-0.273-2.704c-0.049-0.596-0.096-1.191-0.131-1.79c-0.014-0.23-0.024-0.46-0.036-0.69    c-0.183-3.838-0.075-7.728,0.353-11.642c0.009-0.086,0.007-0.171,0.014-0.257C293.294,354.677,298.91,340.893,309.01,329.088z     M115.906,140.308l30.29,138.468c-35.911-15.513-50.293-41.519-42.948-70.9C105.42,199.188,109.803,175.561,115.906,140.308z     M165.185,285.72l-41.63-190.309c2.426-14.424,4.908-29.334,7.385-44.332l63.448,247.438    C186.321,293.916,176.836,289.858,165.185,285.72z M43.26,285.512c6.13-16.93,13.636-44.956,22.277-82.161    c3.073-13.231,6.257-27.49,9.53-42.631c6.674-30.872,13.408-63.936,19.865-96.998c2.26-11.57,4.324-22.315,6.15-31.958    c0.464-2.451,0.888-4.702,1.271-6.741l16.239-4.06c-0.683,4.176-1.416,8.648-2.195,13.387    c-3.265,19.869-6.641,40.209-9.947,59.854c-0.001,0.004-0.001,0.009-0.002,0.013c-0.778,4.624-1.552,9.208-2.315,13.713    c-0.6,3.536-0.6,3.536-1.2,7.066c-8.007,47.03-13.796,78.957-16.243,88.742c-10.365,41.459,13.21,78.13,65.313,95.498    c0.978,0.326,1.936,0.649,2.882,0.972c0.081,0.031,0.157,0.071,0.24,0.099c23.06,7.843,36.883,15.045,47.574,26.199    c0.322,0.336,0.659,0.631,1.004,0.9c0.503,0.552,1.002,1.11,1.491,1.682c10.101,11.805,15.717,25.59,17.29,39.524    c0.007,0.085,0.005,0.169,0.014,0.255c0.428,3.914,0.536,7.804,0.353,11.642c-0.012,0.23-0.022,0.461-0.036,0.691    c-0.034,0.598-0.082,1.193-0.13,1.788c-0.076,0.901-0.163,1.8-0.272,2.696c-0.007,0.059-0.013,0.118-0.02,0.177    c-1.53,12.347-6.186,24.2-13.647,34.237c-0.112,0.15-0.222,0.302-0.335,0.451c-0.302,0.399-0.61,0.794-0.921,1.187    c-0.271,0.342-0.545,0.681-0.823,1.018c-0.227,0.277-0.453,0.555-0.684,0.829c-0.545,0.641-1.099,1.274-1.667,1.896    c-0.084,0.092-0.17,0.181-0.255,0.273c-0.554,0.6-1.118,1.192-1.694,1.773c-0.078,0.079-0.156,0.158-0.234,0.236    c-4.06,4.059-8.654,7.655-13.733,10.675c-0.029,0.017-0.057,0.035-0.086,0.052c-1.649,0.978-3.352,1.892-5.101,2.745    c-0.16,0.078-0.322,0.153-0.482,0.23c-0.681,0.326-1.37,0.64-2.065,0.946c-0.216,0.095-0.432,0.192-0.65,0.285    c-0.856,0.367-1.72,0.723-2.597,1.059c-1.353,0.519-2.717,1.015-4.088,1.489c-0.142,0.049-0.287,0.092-0.429,0.141    c-5.351,1.828-10.825,3.323-16.337,4.506c-4.244,0.91-8.509,1.638-12.756,2.199c-3.964,0.523-7.617,0.858-10.865,1.044    c-1.904,0.109-3.216,0.144-3.842,0.144c-1.301,0.025-2.588,0.022-3.865-0.002c-0.33-0.006-0.654-0.025-0.983-0.034    c-0.955-0.028-1.908-0.061-2.849-0.116c-0.338-0.02-0.67-0.05-1.006-0.073c-0.938-0.065-1.872-0.137-2.796-0.23    c-0.293-0.029-0.582-0.065-0.874-0.097c-0.976-0.107-1.946-0.225-2.906-0.363c-0.223-0.032-0.444-0.067-0.666-0.1    c-1.044-0.158-2.08-0.331-3.105-0.525c-0.132-0.025-0.263-0.05-0.394-0.076c-1.143-0.222-2.276-0.463-3.395-0.729    c-0.013-0.003-0.026-0.006-0.038-0.009c-19.034-4.537-34.64-15.441-46.408-31.526c-0.063-0.086-0.123-0.176-0.186-0.263    c-0.632-0.87-1.253-1.753-1.862-2.653c-0.218-0.322-0.43-0.654-0.645-0.98c-0.449-0.68-0.896-1.363-1.333-2.059    c-0.255-0.407-0.504-0.823-0.755-1.235c-0.392-0.645-0.783-1.293-1.164-1.951c-0.246-0.424-0.488-0.855-0.73-1.285    c-0.387-0.688-0.77-1.381-1.146-2.084c-0.208-0.388-0.413-0.779-0.617-1.172c-0.421-0.81-0.837-1.628-1.243-2.457    c-0.136-0.277-0.272-0.554-0.407-0.833c-0.511-1.063-1.014-2.137-1.501-3.229c-0.016-0.036-0.033-0.073-0.049-0.109    c-2.201-4.947-4.155-10.188-5.852-15.706c-0.049-0.159-0.109-0.305-0.164-0.457C32.533,351.172,32.979,313.903,43.26,285.512z     M461.327,440.945c-2.363,12.882-9.921,25.615-20.49,34.895c-23.568,20.691-62.879,25.834-97.031,14.159    c-8.597-2.941-15.529-6.33-29.631-14.034c-0.517-0.282-0.517-0.282-1.035-0.565c-9.047-4.944-13.368-7.217-18.822-9.779    c-1.57-0.737-1.673-0.788-6.091-2.961c-13.726-6.751-21.224-9.386-31.124-9.386s-17.398,2.635-31.124,9.386    c-4.418,2.173-4.521,2.223-6.091,2.961c-5.453,2.561-9.775,4.835-18.821,9.779c-0.518,0.283-0.518,0.283-1.035,0.565    c-14.102,7.705-21.034,11.094-29.633,14.035c-34.15,11.674-73.461,6.532-97.029-14.159c-10.569-9.279-18.127-22.012-20.49-34.892    c-0.368-2.004-0.424-2.306-0.697-3.796c0.665,0.759,1.342,1.504,2.025,2.24c0.124,0.133,0.25,0.263,0.374,0.395    c0.696,0.742,1.401,1.47,2.115,2.188c0.195,0.196,0.389,0.393,0.585,0.587c0.814,0.804,1.636,1.596,2.473,2.369    c0.155,0.143,0.313,0.281,0.469,0.423c0.697,0.636,1.403,1.26,2.116,1.874c0.261,0.225,0.522,0.45,0.786,0.672    c0.835,0.703,1.676,1.396,2.532,2.069c0.191,0.15,0.386,0.293,0.578,0.442c0.697,0.54,1.402,1.069,2.113,1.589    c0.327,0.239,0.655,0.476,0.984,0.711c0.728,0.517,1.462,1.025,2.203,1.521c0.344,0.23,0.689,0.457,1.036,0.683    c0.713,0.464,1.432,0.918,2.158,1.362c0.381,0.233,0.764,0.463,1.148,0.69c0.661,0.391,1.327,0.773,1.998,1.148    c0.414,0.232,0.828,0.463,1.246,0.688c0.781,0.421,1.568,0.831,2.362,1.23c0.419,0.211,0.841,0.417,1.264,0.621    c0.64,0.31,1.286,0.611,1.935,0.907c0.376,0.171,0.748,0.348,1.127,0.515c0.924,0.406,1.858,0.795,2.799,1.172    c0.431,0.173,0.865,0.339,1.299,0.506c0.667,0.256,1.338,0.505,2.013,0.747c0.404,0.145,0.805,0.294,1.211,0.433    c0.977,0.335,1.962,0.654,2.956,0.959c0.418,0.128,0.839,0.249,1.26,0.372c0.726,0.212,1.456,0.416,2.19,0.612    c0.406,0.108,0.81,0.219,1.218,0.323c1.044,0.264,2.096,0.513,3.156,0.745c0.372,0.081,0.748,0.154,1.122,0.232    c0.819,0.169,1.643,0.329,2.473,0.479c0.389,0.07,0.778,0.142,1.169,0.208c1.12,0.189,2.248,0.363,3.386,0.517    c0.294,0.04,0.592,0.072,0.887,0.109c0.941,0.119,1.888,0.226,2.84,0.32c0.368,0.036,0.735,0.073,1.105,0.106    c1.201,0.107,2.408,0.2,3.627,0.268c0.175,0.01,0.353,0.014,0.528,0.023c1.099,0.056,2.206,0.095,3.319,0.119    c0.346,0.008,0.693,0.015,1.041,0.019c1.279,0.017,2.563,0.021,3.862-0.004c0.799,0,1.75-0.019,2.833-0.063    c0.092-0.004,0.186-0.008,0.28-0.012c0.492-0.021,1.01-0.047,1.554-0.078c1.309-0.075,2.763-0.179,4.353-0.32    c2.318-0.205,4.919-0.486,7.756-0.861c12.565-1.658,25.3-4.644,37.487-9.318c1.025-0.393,2.033-0.806,3.033-1.231    c0.253-0.108,0.503-0.221,0.755-0.331c0.78-0.34,1.552-0.688,2.316-1.047c0.224-0.105,0.447-0.212,0.67-0.319    c0.876-0.42,1.741-0.853,2.596-1.298c0.076-0.04,0.154-0.079,0.23-0.119c11.274-5.913,20.67-13.94,28.019-23.339    c0.023-0.029,0.046-0.059,0.068-0.088c0.595-0.762,1.176-1.534,1.743-2.313c0.106-0.146,0.214-0.29,0.319-0.436    c0.497-0.691,0.982-1.39,1.458-2.094c0.143-0.211,0.289-0.421,0.43-0.633c0.471-0.711,0.931-1.427,1.38-2.15    c0.372-0.597,0.731-1.202,1.089-1.808c0.097-0.166,0.197-0.33,0.293-0.496c5.972-10.264,9.862-21.733,11.366-33.752    c0.016-0.123,0.031-0.247,0.046-0.37c0.085-0.701,0.164-1.404,0.233-2.109c0.044-0.448,0.08-0.896,0.118-1.345    c0.038-0.466,0.083-0.93,0.114-1.398c0.071-1.04,0.122-2.082,0.158-3.126c0.001-0.02,0.001-0.04,0.001-0.06    c0.037-1.116,0.05-2.234,0.046-3.353h34.185c-0.004,1.117,0.009,2.233,0.046,3.348c0.001,0.023,0.001,0.045,0.002,0.068    c0.036,1.042,0.086,2.082,0.157,3.12c0.032,0.475,0.077,0.946,0.116,1.419c0.037,0.441,0.072,0.881,0.116,1.321    c0.069,0.71,0.149,1.417,0.234,2.123c0.014,0.117,0.029,0.234,0.044,0.351c1.504,12.026,5.397,23.503,11.374,33.773    c0.089,0.153,0.181,0.305,0.27,0.458c0.365,0.618,0.731,1.235,1.111,1.845c0.393,0.633,0.799,1.259,1.209,1.883    c0.204,0.309,0.41,0.616,0.617,0.923c0.466,0.691,0.943,1.375,1.429,2.053c0.111,0.154,0.224,0.306,0.336,0.459    c0.561,0.77,1.134,1.532,1.721,2.285c0.029,0.038,0.058,0.075,0.088,0.113c7.347,9.393,16.74,17.417,28.009,23.327    c0.079,0.042,0.159,0.082,0.239,0.123c0.851,0.443,1.713,0.874,2.586,1.293c0.226,0.109,0.452,0.216,0.679,0.323    c0.761,0.357,1.531,0.705,2.307,1.043c0.254,0.111,0.505,0.225,0.761,0.333c0.996,0.423,2.001,0.835,3.023,1.227    c0.003,0.001,0.005,0.002,0.008,0.003c1.523,0.584,3.055,1.142,4.594,1.674c6.156,2.129,12.426,3.846,18.722,5.199    c4.722,1.014,9.458,1.823,14.169,2.445c0.942,0.124,1.858,0.238,2.746,0.343c0.273,0.032,0.527,0.057,0.795,0.088    c0.604,0.068,1.212,0.138,1.789,0.197c0.32,0.033,0.616,0.059,0.928,0.089c0.497,0.048,1.003,0.099,1.478,0.141    c0.361,0.032,0.693,0.056,1.041,0.085c0.397,0.032,0.807,0.068,1.186,0.096c0.326,0.024,0.624,0.041,0.937,0.062    c0.371,0.025,0.755,0.052,1.107,0.073c0.286,0.017,0.542,0.027,0.815,0.041c0.344,0.017,0.701,0.037,1.024,0.05    c0.265,0.011,0.498,0.016,0.748,0.024c0.298,0.01,0.609,0.022,0.886,0.028c0.237,0.005,0.441,0.006,0.662,0.008    c0.239,0.003,0.495,0.009,0.715,0.009c1.255,0.023,2.499,0.02,3.736,0.004c0.501-0.006,1-0.016,1.498-0.028    c0.704-0.018,1.404-0.045,2.103-0.076c1.16-0.05,2.311-0.12,3.455-0.204c0.357-0.027,0.715-0.049,1.07-0.079    c0.824-0.069,1.643-0.151,2.458-0.238c0.198-0.021,0.394-0.044,0.591-0.067c16.718-1.885,31.588-7.573,44.367-16.528    c0.036-0.025,0.072-0.05,0.108-0.075c0.657-0.462,1.309-0.933,1.955-1.412c0.168-0.124,0.333-0.251,0.5-0.376    c1.066-0.802,2.117-1.626,3.152-2.474c0.253-0.207,0.508-0.411,0.759-0.621c0.498-0.416,0.99-0.839,1.48-1.266    c0.371-0.323,0.739-0.651,1.106-0.98c0.56-0.502,1.116-1.009,1.666-1.525c0.575-0.54,1.146-1.085,1.711-1.64    c0.353-0.347,0.701-0.7,1.05-1.053c0.507-0.513,1.009-1.034,1.507-1.56c0.278-0.293,0.558-0.583,0.833-0.88    c0.641-0.693,1.275-1.394,1.9-2.107C461.75,438.641,461.694,438.943,461.327,440.945z"/>
	</g>
</g>
<g>
</g>
<g>
</g>
<g>
</g>
<g>
</g>
<g>
</g>
<g>
</g>
<g>
</g>
<g>
</g>
<g>
</g>
<g>
</g>
<g>
</g>
<g>
</g>
<g>
</g>
<g>
</g>
<g>
</g>
</svg>
