<?xml version="1.0" encoding="iso-8859-1"?>
<!-- Generator: Adobe Illustrator 19.0.0, SVG Export Plug-In . SVG Version: 6.00 Build 0)  -->
<svg xmlns="http://www.w3.org/2000/svg" xmlns:xlink="http://www.w3.org/1999/xlink" version="1.1" id="Layer_1" x="0px" y="0px" viewBox="0 0 512 512" style="enable-background:new 0 0 512 512;" xml:space="preserve">
<g transform="translate(0 -1)">
	<g>
		<path d="M512,197.265c0-0.978-0.168-1.949-0.497-2.87l-29.246-81.896c-0.005-0.013-0.007-0.026-0.011-0.039l-13.406-37.53    c-1.476-4.133-5.848-6.473-10.106-5.408c-28.411,7.103-157.867,16.812-202.73,16.812c-44.864,0-174.32-9.709-202.73-16.812    c-4.258-1.065-8.629,1.275-10.106,5.408l-13.406,37.53c-0.008,0.022-0.012,0.044-0.019,0.066L0.497,194.394    C0.168,195.316,0,196.287,0,197.265c0,3.303,0.824,7.127,2.354,11.753c0.008,0.026,0.012,0.053,0.021,0.079    c8.627,26.026,43.997,82.785,84.385,136.7c45.446,60.667,82.111,98.934,100.978,98.934h5.042c0.02,0,0.04,0.003,0.06,0.003    h126.328c0.02,0,0.04-0.003,0.06-0.003h5.042c18.867,0,55.532-38.267,100.978-98.934c40.388-53.915,75.758-110.674,84.385-136.7    c0.005-0.015,0.007-0.03,0.012-0.044C511.174,204.431,512,200.58,512,197.265z M369.21,256.963    c-0.666,0.713-1.328,1.431-1.987,2.155c-0.092,0.101-0.185,0.202-0.277,0.304c-0.6,0.661-1.196,1.328-1.79,1.999    c-0.149,0.168-0.298,0.336-0.447,0.505c-0.545,0.619-1.087,1.242-1.626,1.869c-0.194,0.225-0.388,0.451-0.581,0.677    c-0.498,0.583-0.994,1.169-1.487,1.759c-0.231,0.275-0.46,0.552-0.69,0.829c-0.46,0.555-0.918,1.112-1.374,1.672    c-0.258,0.317-0.514,0.636-0.771,0.954c-0.426,0.53-0.851,1.061-1.273,1.596c-0.283,0.358-0.564,0.719-0.846,1.08    c-0.393,0.504-0.786,1.009-1.176,1.518c-0.308,0.401-0.613,0.805-0.919,1.209c-0.362,0.478-0.723,0.956-1.082,1.438    c-0.33,0.443-0.657,0.89-0.984,1.336c-0.331,0.451-0.662,0.901-0.99,1.355c-0.355,0.491-0.706,0.986-1.057,1.48    c-0.297,0.419-0.596,0.836-0.891,1.257c-0.384,0.548-0.764,1.101-1.144,1.653c-0.258,0.374-0.517,0.747-0.772,1.123    c-0.429,0.632-0.853,1.269-1.278,1.906c-0.202,0.304-0.406,0.605-0.607,0.911c-0.505,0.767-1.005,1.539-1.502,2.314    c-0.117,0.182-0.236,0.362-0.352,0.545c-1.246,1.952-2.469,3.928-3.666,5.931c-0.837,1.4-1.655,2.806-2.459,4.216    c-0.113,0.199-0.222,0.399-0.335,0.598c-0.674,1.189-1.339,2.381-1.989,3.577c-0.202,0.371-0.396,0.744-0.596,1.115    c-0.552,1.027-1.1,2.056-1.634,3.088c-0.231,0.446-0.456,0.894-0.683,1.341c-0.492,0.964-0.98,1.929-1.456,2.896    c-0.237,0.48-0.468,0.962-0.701,1.443c-0.456,0.942-0.908,1.885-1.35,2.831c-0.231,0.495-0.459,0.99-0.686,1.485    c-0.431,0.938-0.856,1.878-1.273,2.819c-0.221,0.499-0.44,0.998-0.657,1.498c-0.411,0.946-0.815,1.893-1.212,2.841    c-0.207,0.493-0.413,0.986-0.616,1.48c-0.398,0.968-0.786,1.938-1.17,2.909c-0.186,0.472-0.374,0.943-0.557,1.416    c-0.392,1.013-0.773,2.027-1.15,3.042c-0.159,0.43-0.322,0.86-0.479,1.291c-0.398,1.095-0.783,2.191-1.163,3.287    c-0.122,0.352-0.248,0.703-0.368,1.055c-0.434,1.273-0.853,2.547-1.262,3.822c-0.056,0.175-0.116,0.35-0.172,0.526    c-1.413,4.444-2.675,8.9-3.786,13.359c-0.058,0.235-0.112,0.469-0.169,0.704c-0.3,1.224-0.593,2.448-0.87,3.672    c-0.083,0.365-0.159,0.729-0.24,1.093c-0.068,0.309-0.136,0.617-0.203,0.926l-14.819-26.498c-2.3-4.113-7.5-5.583-11.613-3.283    c-4.113,2.3-5.583,7.5-3.283,11.613l11.329,20.257c-11.921-4.791-24.77-7.356-38.014-7.356c-13.244,0-26.094,2.565-38.016,7.357    l11.33-20.259c2.3-4.113,0.831-9.313-3.282-11.613c-4.113-2.3-9.313-0.831-11.613,3.283l-14.82,26.499    c-0.061-0.281-0.123-0.562-0.185-0.843c-0.088-0.4-0.173-0.801-0.263-1.201c-0.265-1.169-0.545-2.339-0.831-3.508    c-0.071-0.29-0.137-0.581-0.21-0.871c-0.363-1.455-0.74-2.91-1.135-4.365c-0.001-0.005-0.002-0.01-0.004-0.014    c-0.807-2.97-1.682-5.938-2.624-8.9c-0.098-0.308-0.203-0.616-0.302-0.924c-0.367-1.136-0.738-2.272-1.125-3.406    c-0.16-0.469-0.327-0.936-0.49-1.405c-0.338-0.972-0.679-1.944-1.031-2.914c-0.199-0.547-0.405-1.092-0.608-1.638    c-0.331-0.888-0.663-1.776-1.006-2.662c-0.23-0.595-0.466-1.19-0.702-1.784c-0.33-0.833-0.663-1.665-1.004-2.496    c-0.259-0.631-0.522-1.262-0.787-1.892c-0.332-0.789-0.668-1.577-1.009-2.364c-0.286-0.659-0.575-1.317-0.867-1.975    c-0.335-0.754-0.676-1.506-1.02-2.258c-0.312-0.682-0.626-1.364-0.945-2.044c-0.337-0.717-0.68-1.433-1.025-2.149    c-0.342-0.71-0.683-1.419-1.033-2.126c-0.332-0.672-0.672-1.341-1.011-2.011c-0.376-0.744-0.751-1.488-1.137-2.229    c-0.318-0.612-0.645-1.221-0.969-1.832c-0.421-0.793-0.839-1.586-1.27-2.376c-0.27-0.495-0.55-0.988-0.824-1.482    c-0.499-0.9-0.996-1.8-1.508-2.696c-0.015-0.027-0.032-0.054-0.047-0.081c-0.743-1.299-1.496-2.595-2.267-3.884    c-2.862-4.789-5.871-9.432-9.008-13.931c-0.037-0.052-0.073-0.105-0.109-0.158c-0.569-0.814-1.143-1.622-1.72-2.427    c-0.078-0.109-0.155-0.218-0.233-0.327c-0.55-0.764-1.105-1.521-1.662-2.276c-0.108-0.146-0.215-0.293-0.323-0.439    c-0.541-0.729-1.087-1.453-1.635-2.174c-0.125-0.164-0.25-0.33-0.375-0.494c-0.539-0.705-1.082-1.404-1.627-2.101    c-0.138-0.176-0.276-0.353-0.414-0.529c-0.537-0.682-1.078-1.359-1.621-2.033c-0.151-0.187-0.301-0.374-0.452-0.56    c-0.538-0.662-1.078-1.32-1.622-1.975c-0.159-0.191-0.317-0.382-0.476-0.572c-0.543-0.649-1.088-1.295-1.637-1.937    c-0.161-0.188-0.323-0.376-0.484-0.564c-0.549-0.638-1.101-1.273-1.656-1.904c-0.163-0.186-0.327-0.37-0.491-0.555    c-0.559-0.631-1.121-1.259-1.685-1.882c-0.159-0.175-0.319-0.35-0.478-0.525c-0.572-0.627-1.145-1.251-1.723-1.869    c-0.155-0.166-0.31-0.33-0.466-0.496c-0.586-0.624-1.174-1.246-1.765-1.861c-0.144-0.15-0.288-0.297-0.432-0.447    c-0.607-0.628-1.215-1.253-1.827-1.872c-0.124-0.125-0.248-0.248-0.372-0.373c-0.636-0.64-1.274-1.277-1.917-1.908    c-0.086-0.085-0.173-0.168-0.259-0.252c-0.681-0.667-1.365-1.329-2.053-1.985c-0.027-0.025-0.053-0.05-0.08-0.075    c-5.301-5.047-10.786-9.76-16.422-14.117c-0.011-0.008-0.022-0.017-0.032-0.025c-0.713-0.551-1.429-1.094-2.147-1.633    c-0.116-0.087-0.23-0.175-0.346-0.262c-0.659-0.493-1.321-0.979-1.985-1.463c-0.176-0.128-0.35-0.258-0.526-0.385    c-0.625-0.453-1.253-0.899-1.882-1.344c-0.216-0.153-0.431-0.307-0.647-0.458c-0.605-0.424-1.212-0.842-1.82-1.258    c-0.241-0.165-0.481-0.331-0.722-0.494c-0.59-0.4-1.183-0.795-1.776-1.187c-0.262-0.174-0.524-0.348-0.787-0.52    c-0.577-0.378-1.155-0.75-1.734-1.121c-0.282-0.181-0.565-0.362-0.848-0.541c-0.568-0.359-1.138-0.715-1.709-1.067    c-0.293-0.181-0.585-0.361-0.878-0.54c-0.564-0.344-1.129-0.684-1.695-1.022c-0.305-0.182-0.609-0.362-0.914-0.542    c-0.56-0.329-1.12-0.655-1.681-0.977c-0.31-0.178-0.62-0.354-0.93-0.53c-0.56-0.317-1.121-0.632-1.682-0.942    c-0.316-0.174-0.632-0.347-0.948-0.519c-0.558-0.304-1.117-0.606-1.677-0.904c-0.321-0.171-0.643-0.339-0.965-0.508    c-0.558-0.292-1.116-0.582-1.675-0.868c-0.325-0.166-0.651-0.329-0.977-0.493c-0.558-0.28-1.116-0.56-1.675-0.833    c-0.327-0.16-0.655-0.316-0.982-0.474c-0.562-0.271-1.124-0.541-1.687-0.805c-0.322-0.151-0.644-0.297-0.966-0.446    c-0.57-0.263-1.139-0.525-1.71-0.781c-0.318-0.142-0.636-0.28-0.955-0.42c-0.577-0.254-1.155-0.509-1.733-0.756    c-0.305-0.13-0.611-0.256-0.916-0.384c-0.593-0.249-1.187-0.499-1.781-0.741c-0.276-0.112-0.553-0.219-0.83-0.33    c-0.625-0.25-1.25-0.501-1.877-0.743c-0.192-0.074-0.385-0.144-0.577-0.217c-2.355-0.899-4.719-1.74-7.088-2.519    c-0.128-0.042-0.256-0.087-0.384-0.129c-0.593-0.193-1.187-0.377-1.781-0.563c-0.32-0.1-0.64-0.204-0.961-0.302    c-0.54-0.165-1.081-0.321-1.622-0.48c-0.375-0.11-0.75-0.223-1.126-0.33c-0.514-0.147-1.029-0.286-1.544-0.426    c-0.403-0.11-0.805-0.223-1.208-0.329c-0.5-0.132-1-0.258-1.5-0.384c-0.418-0.106-0.836-0.214-1.254-0.316    c-0.49-0.12-0.98-0.233-1.47-0.347c-0.43-0.1-0.86-0.202-1.29-0.298c-0.482-0.108-0.964-0.21-1.446-0.313    c-0.437-0.093-0.875-0.187-1.312-0.275c-0.48-0.098-0.96-0.19-1.441-0.282c-0.438-0.084-0.876-0.168-1.315-0.248    c-0.48-0.088-0.959-0.171-1.439-0.253c-0.44-0.075-0.879-0.15-1.319-0.221c-0.478-0.077-0.956-0.151-1.433-0.223    c-0.442-0.067-0.883-0.132-1.325-0.194c-0.477-0.067-0.954-0.131-1.431-0.193c-0.442-0.057-0.883-0.113-1.324-0.166    c-0.476-0.057-0.952-0.112-1.428-0.164c-0.443-0.048-0.886-0.094-1.329-0.138c-0.473-0.047-0.946-0.092-1.419-0.134    c-0.445-0.039-0.89-0.075-1.335-0.109c-0.472-0.037-0.945-0.072-1.417-0.104c-0.443-0.03-0.886-0.055-1.328-0.08    c-0.474-0.027-0.947-0.053-1.42-0.074c-0.441-0.02-0.882-0.035-1.323-0.05c-0.474-0.017-0.948-0.033-1.422-0.044    c-0.436-0.01-0.871-0.015-1.307-0.021c-0.479-0.006-0.958-0.013-1.436-0.014c-0.429-0.001-0.857,0.005-1.285,0.008    c-0.484,0.004-0.968,0.007-1.451,0.017c-0.079,0.002-0.159,0.001-0.238,0.003l0,0l26.037-72.888    c52.033,5.851,157.243,12.099,203.918,12.858v25.677c0,4.713,3.82,8.533,8.533,8.533s8.533-3.82,8.533-8.533v-25.677    c46.675-0.759,151.886-7.007,203.919-12.858l26.031,72.892c-43.573-0.976-89.49,21.213-125.213,59.405    C369.252,256.918,369.231,256.94,369.21,256.963z M308.209,394.687c-0.072,1.169-0.129,2.335-0.179,3.501    c-0.012,0.271-0.028,0.543-0.039,0.814c-0.169,4.366-0.183,8.704-0.041,13.005c0.008,0.232,0.021,0.462,0.03,0.694    c0.044,1.177,0.095,2.352,0.162,3.523c0.021,0.376,0.05,0.75,0.074,1.125c0.065,1.024,0.135,2.048,0.219,3.067    c0.036,0.44,0.079,0.879,0.118,1.318c0.085,0.953,0.175,1.905,0.277,2.853c0.05,0.469,0.106,0.937,0.16,1.406    c0.064,0.557,0.12,1.117,0.19,1.672H202.822c0.049-0.388,0.087-0.78,0.133-1.169c0.086-0.725,0.171-1.451,0.248-2.179    c0.071-0.672,0.133-1.347,0.196-2.022c0.065-0.696,0.131-1.392,0.187-2.09c0.059-0.729,0.107-1.462,0.156-2.194    c0.044-0.652,0.092-1.302,0.129-1.955c0.046-0.823,0.079-1.65,0.114-2.476c0.024-0.569,0.055-1.136,0.073-1.706    c0.036-1.119,0.056-2.242,0.071-3.366c0.004-0.281,0.014-0.561,0.017-0.843c0.013-1.425,0.007-2.853-0.014-4.285    c-0.004-0.284-0.016-0.569-0.021-0.853c-0.022-1.148-0.05-2.296-0.094-3.448c-0.016-0.426-0.041-0.854-0.061-1.28    c-0.046-1.012-0.094-2.024-0.156-3.038c-0.007-0.12-0.011-0.24-0.019-0.361c14.84-11.537,33.032-17.934,52.221-17.934    s37.381,6.397,52.221,17.934C308.218,394.497,308.215,394.592,308.209,394.687z M56.741,87.666    c40.12,7.245,156.289,15.735,199.262,15.735s159.142-8.49,199.263-15.735l7.291,20.41C406.345,114.112,295.34,120.465,256,120.465    c-39.339,0-150.338-6.353-206.55-12.389L56.741,87.666z M22.884,214.559c0.079,0.002,0.158,0.002,0.237,0.004    c1.32,0.035,2.643,0.096,3.969,0.178c0.243,0.015,0.486,0.03,0.73,0.047c1.314,0.09,2.63,0.204,3.948,0.341    c0.247,0.026,0.494,0.053,0.741,0.08c1.327,0.146,2.655,0.313,3.985,0.506c0.222,0.032,0.444,0.068,0.666,0.101    c1.363,0.205,2.726,0.43,4.091,0.683c0.162,0.03,0.324,0.064,0.486,0.094c1.403,0.266,2.806,0.554,4.21,0.87    c0.065,0.015,0.13,0.029,0.195,0.044c1.402,0.318,2.805,0.667,4.207,1.034c0.175,0.046,0.35,0.089,0.525,0.136    c1.35,0.36,2.7,0.748,4.049,1.154c0.241,0.072,0.481,0.143,0.722,0.217c1.312,0.403,2.623,0.829,3.933,1.274    c0.27,0.092,0.54,0.183,0.809,0.277c1.296,0.449,2.591,0.919,3.884,1.409c0.272,0.103,0.544,0.208,0.816,0.313    c1.3,0.502,2.597,1.021,3.892,1.563c0.247,0.103,0.493,0.211,0.74,0.315c1.325,0.563,2.648,1.143,3.967,1.748    c0.185,0.085,0.37,0.174,0.556,0.26c1.289,0.598,2.574,1.214,3.856,1.852c0.151,0.075,0.302,0.147,0.453,0.223    c1.311,0.657,2.616,1.34,3.919,2.038c0.242,0.129,0.484,0.256,0.725,0.387c1.256,0.681,2.507,1.386,3.754,2.105    c0.289,0.166,0.578,0.332,0.866,0.5c1.217,0.711,2.43,1.442,3.638,2.19c0.309,0.191,0.618,0.383,0.926,0.577    c1.197,0.751,2.39,1.518,3.577,2.303c0.305,0.201,0.608,0.406,0.912,0.61c1.195,0.801,2.386,1.616,3.57,2.451    c0.274,0.193,0.546,0.391,0.819,0.586c1.213,0.867,2.423,1.746,3.623,2.648c0.21,0.158,0.418,0.32,0.627,0.479    c1.119,0.848,2.231,1.712,3.338,2.592c0.218,0.174,0.438,0.343,0.656,0.518c1.166,0.935,2.323,1.892,3.475,2.861    c0.281,0.236,0.563,0.47,0.843,0.708c1.114,0.948,2.219,1.915,3.318,2.894c0.31,0.276,0.62,0.551,0.929,0.83    c1.077,0.972,2.146,1.959,3.209,2.961c0.317,0.299,0.634,0.6,0.95,0.902c1.056,1.009,2.105,2.031,3.145,3.069    c0.303,0.302,0.603,0.608,0.905,0.912c1.05,1.061,2.093,2.133,3.126,3.224c0.267,0.282,0.53,0.568,0.796,0.852    c1,1.069,1.994,2.148,2.977,3.245c0.257,0.287,0.513,0.576,0.769,0.865c0.947,1.068,1.886,2.149,2.816,3.243    c0.233,0.274,0.469,0.545,0.701,0.821c0.991,1.177,1.969,2.373,2.941,3.579c0.273,0.339,0.547,0.676,0.818,1.017    c0.942,1.184,1.872,2.384,2.794,3.595c0.285,0.374,0.57,0.749,0.853,1.126c0.907,1.207,1.803,2.428,2.689,3.661    c0.28,0.39,0.559,0.782,0.837,1.175c0.883,1.246,1.757,2.503,2.619,3.775c0.258,0.381,0.513,0.766,0.77,1.15    c0.872,1.305,1.735,2.618,2.584,3.949c0.218,0.342,0.431,0.688,0.647,1.031c0.795,1.263,1.581,2.536,2.355,3.822    c0.113,0.188,0.228,0.372,0.341,0.56c1.553,2.598,3.045,5.216,4.478,7.851c0.11,0.202,0.215,0.406,0.324,0.608    c0.586,1.086,1.165,2.174,1.73,3.266c0.189,0.365,0.372,0.732,0.559,1.098c0.475,0.93,0.947,1.862,1.408,2.796    c0.226,0.46,0.446,0.92,0.669,1.381c0.407,0.841,0.812,1.683,1.207,2.527c0.245,0.524,0.485,1.049,0.725,1.574    c0.36,0.784,0.717,1.569,1.066,2.355c0.252,0.568,0.499,1.136,0.745,1.704c0.323,0.744,0.642,1.488,0.956,2.234    c0.254,0.604,0.504,1.21,0.752,1.815c0.291,0.711,0.579,1.423,0.861,2.135c0.252,0.635,0.5,1.27,0.745,1.905    c0.263,0.683,0.522,1.366,0.777,2.049c0.247,0.662,0.492,1.324,0.732,1.986c0.239,0.66,0.472,1.32,0.704,1.98    c0.24,0.684,0.479,1.369,0.711,2.054c0.216,0.637,0.425,1.273,0.634,1.911c0.232,0.707,0.464,1.413,0.687,2.121    c0.194,0.613,0.379,1.226,0.567,1.839c0.224,0.732,0.449,1.464,0.664,2.196c0.17,0.578,0.33,1.157,0.494,1.735    c0.217,0.765,0.436,1.53,0.644,2.296c0.144,0.53,0.278,1.06,0.416,1.59c0.213,0.813,0.429,1.625,0.63,2.438    c0.106,0.425,0.202,0.851,0.305,1.276c0.798,3.309,1.508,6.616,2.123,9.917c0.039,0.21,0.083,0.419,0.121,0.629    c0.159,0.87,0.303,1.739,0.449,2.608c0.078,0.467,0.163,0.934,0.238,1.401c0.128,0.798,0.243,1.595,0.36,2.392    c0.079,0.537,0.162,1.074,0.236,1.611c0.105,0.758,0.198,1.515,0.292,2.272c0.072,0.575,0.147,1.151,0.213,1.726    c0.084,0.728,0.158,1.456,0.233,2.183c0.05,0.488,0.1,0.976,0.147,1.463c-0.007,0.087-0.011,0.173-0.016,0.26    c-0.004,0.072-0.011,0.143-0.013,0.214c-0.008,0.321-0.003,0.641,0.025,0.96c0,0.001,0,0.001,0,0.002    c1.077,12.529,0.834,24.567-0.691,35.866C158.681,419.349,50.521,275.977,22.884,214.559z M326.389,427.315    c-1.525-11.3-1.768-23.337-0.691-35.866c0.028-0.319,0.033-0.639,0.025-0.961c-0.002-0.073-0.01-0.146-0.013-0.219    c-0.005-0.087-0.009-0.174-0.016-0.262c0.042-0.441,0.088-0.882,0.133-1.323c0.08-0.787,0.161-1.574,0.252-2.363    c0.06-0.515,0.127-1.031,0.191-1.546c0.101-0.814,0.202-1.627,0.314-2.442c0.065-0.471,0.139-0.942,0.207-1.414    c0.126-0.86,0.25-1.721,0.388-2.582c0.062-0.384,0.132-0.769,0.196-1.153c0.159-0.949,0.316-1.898,0.49-2.849    c0.009-0.051,0.02-0.103,0.03-0.154c0.654-3.558,1.42-7.123,2.287-10.69c0.075-0.309,0.144-0.617,0.221-0.926    c0.222-0.895,0.459-1.79,0.695-2.686c0.117-0.444,0.229-0.888,0.349-1.333c0.227-0.84,0.467-1.68,0.706-2.519    c0.142-0.499,0.28-0.999,0.427-1.498c0.238-0.812,0.487-1.623,0.736-2.434c0.161-0.526,0.32-1.052,0.486-1.578    c0.25-0.792,0.51-1.584,0.77-2.375c0.179-0.545,0.358-1.091,0.542-1.635c0.263-0.778,0.534-1.555,0.807-2.332    c0.196-0.556,0.392-1.112,0.593-1.668c0.278-0.768,0.561-1.535,0.849-2.302c0.211-0.563,0.424-1.126,0.64-1.688    c0.292-0.76,0.589-1.518,0.891-2.277c0.227-0.57,0.456-1.139,0.688-1.707c0.306-0.75,0.615-1.499,0.93-2.247    c0.242-0.575,0.489-1.148,0.736-1.722c0.321-0.743,0.644-1.486,0.974-2.227c0.256-0.574,0.517-1.147,0.778-1.72    c0.337-0.739,0.675-1.479,1.021-2.216c0.268-0.571,0.544-1.141,0.818-1.711c0.353-0.736,0.706-1.472,1.069-2.206    c0.281-0.569,0.571-1.137,0.858-1.705c0.37-0.732,0.737-1.464,1.116-2.193c0.291-0.561,0.592-1.119,0.889-1.678    c0.39-0.735,0.777-1.472,1.176-2.204c0.291-0.534,0.593-1.065,0.889-1.597c0.419-0.753,0.833-1.507,1.261-2.257    c0.236-0.413,0.482-0.824,0.721-1.236c0.488-0.842,0.974-1.684,1.474-2.522c0.992-1.66,2.004-3.299,3.032-4.921    c0.053-0.084,0.106-0.17,0.159-0.254c0.979-1.539,1.975-3.058,2.985-4.563c0.121-0.18,0.241-0.362,0.363-0.542    c0.976-1.444,1.966-2.87,2.97-4.281c0.159-0.223,0.317-0.446,0.476-0.668c0.991-1.383,1.995-2.749,3.011-4.099    c0.171-0.227,0.343-0.453,0.515-0.679c1.023-1.347,2.056-2.679,3.103-3.993c0.16-0.201,0.322-0.4,0.483-0.6    c1.073-1.336,2.156-2.659,3.254-3.96c0.116-0.138,0.234-0.272,0.35-0.41c1.101-1.299,2.214-2.581,3.339-3.844    c0.074-0.083,0.146-0.167,0.22-0.25c1.137-1.273,2.288-2.522,3.448-3.758c0.169-0.18,0.337-0.362,0.506-0.542    c1.112-1.177,2.237-2.333,3.369-3.475c0.219-0.22,0.436-0.442,0.656-0.661c1.113-1.112,2.235-2.206,3.366-3.284    c0.239-0.228,0.479-0.456,0.719-0.683c1.13-1.067,2.268-2.118,3.415-3.151c0.236-0.213,0.473-0.423,0.71-0.635    c1.166-1.041,2.34-2.066,3.522-3.072c0.205-0.174,0.411-0.345,0.617-0.518c1.226-1.033,2.458-2.052,3.7-3.046    c0.131-0.105,0.263-0.207,0.395-0.311c1.225-0.975,2.457-1.932,3.696-2.869c0.13-0.099,0.26-0.2,0.39-0.298    c1.263-0.95,2.536-1.876,3.813-2.787c0.209-0.149,0.417-0.3,0.626-0.448c1.239-0.875,2.484-1.728,3.735-2.565    c0.247-0.165,0.494-0.331,0.741-0.495c1.237-0.819,2.48-1.619,3.728-2.4c0.256-0.16,0.513-0.32,0.769-0.479    c1.255-0.777,2.515-1.536,3.78-2.275c0.239-0.139,0.478-0.276,0.717-0.414c1.293-0.747,2.591-1.477,3.893-2.182    c0.191-0.103,0.382-0.203,0.573-0.306c1.36-0.73,2.724-1.443,4.092-2.129c0.084-0.042,0.168-0.082,0.252-0.123    c1.358-0.677,2.72-1.33,4.085-1.962c0.139-0.064,0.278-0.131,0.417-0.195c1.355-0.622,2.714-1.218,4.075-1.796    c0.211-0.089,0.421-0.181,0.632-0.269c1.324-0.555,2.651-1.086,3.98-1.598c0.243-0.094,0.486-0.188,0.729-0.28    c1.317-0.5,2.636-0.978,3.956-1.435c0.246-0.085,0.492-0.169,0.739-0.253c1.33-0.452,2.662-0.885,3.994-1.293    c0.221-0.068,0.441-0.132,0.662-0.199c1.366-0.411,2.733-0.804,4.101-1.168c0.159-0.042,0.317-0.081,0.476-0.123    c1.424-0.374,2.849-0.728,4.273-1.051c0.044-0.01,0.088-0.019,0.132-0.029c1.42-0.32,2.839-0.611,4.257-0.88    c0.154-0.029,0.308-0.061,0.462-0.09c1.369-0.254,2.737-0.48,4.105-0.686c0.218-0.033,0.437-0.068,0.655-0.099    c1.332-0.193,2.664-0.361,3.993-0.507c0.245-0.027,0.49-0.054,0.735-0.079c1.319-0.137,2.636-0.251,3.95-0.341    c0.243-0.017,0.487-0.031,0.73-0.047c1.325-0.082,2.648-0.144,3.968-0.178c0.079-0.002,0.158-0.003,0.238-0.004    C461.486,275.977,353.326,419.349,326.389,427.315z"/>
	</g>
</g>
<g>
</g>
<g>
</g>
<g>
</g>
<g>
</g>
<g>
</g>
<g>
</g>
<g>
</g>
<g>
</g>
<g>
</g>
<g>
</g>
<g>
</g>
<g>
</g>
<g>
</g>
<g>
</g>
<g>
</g>
</svg>
