<?xml version="1.0" encoding="iso-8859-1"?>
<!-- Generator: Adobe Illustrator 19.0.0, SVG Export Plug-In . SVG Version: 6.00 Build 0)  -->
<svg xmlns="http://www.w3.org/2000/svg" xmlns:xlink="http://www.w3.org/1999/xlink" version="1.1" id="Layer_1" x="0px" y="0px" viewBox="0 0 512 512" style="enable-background:new 0 0 512 512;" xml:space="preserve">
<g transform="translate(0 -1)">
	<g>
		<path d="M349.429,296.968c-10.191-28.821-9.928-53.801-2.717-74.9c2.618-7.666,7.37-14.99,14.454-22.807    c27.455-23.964,28.488-62.963,13.868-107.078c-0.015-0.044-0.038-0.083-0.054-0.127c-0.033-0.095-0.058-0.191-0.095-0.286    C362.191,59.186,358.4,40.134,358.4,9.533c0-4.713-3.821-8.533-8.533-8.533c-4.713,0-8.533,3.82-8.533,8.533    c0,29.051,3.309,48.967,13.413,77.131c-43.711,2.333-78.109,17.641-98.747,50.015c-20.638-32.375-55.036-47.682-98.747-50.015    c10.105-28.164,13.413-48.08,13.413-77.131c0-4.713-3.821-8.533-8.533-8.533s-8.533,3.82-8.533,8.533    c0,30.601-3.791,49.653-16.485,82.236c-0.037,0.095-0.062,0.191-0.095,0.286c-0.015,0.044-0.039,0.083-0.054,0.127    c-14.62,44.116-13.587,83.114,13.868,107.078c7.084,7.818,11.836,15.142,14.453,22.806c7.212,21.101,7.475,46.081-2.666,74.755    l-34.184,102.547c-1.468,4.405,0.855,9.176,5.229,10.736c0.787,0.281,2.389,0.9,4.687,1.867c3.901,1.641,8.266,3.649,12.977,6.034    c13.487,6.825,26.977,15.263,39.533,25.366c22.435,18.053,39.343,39.377,48.613,64.093c1.249,3.33,4.433,5.537,7.99,5.537h17.067    c3.557,0,6.741-2.206,7.99-5.537c9.27-24.716,26.178-46.039,48.613-64.093c12.556-10.104,26.047-18.542,39.533-25.366    c4.712-2.384,9.077-4.393,12.977-6.034c2.298-0.967,3.899-1.586,4.687-1.867c4.373-1.56,6.697-6.331,5.228-10.736L349.429,296.968    z M360.705,103.487c10.558,35.309,8.883,65.05-10.464,82.602c-0.131,0.106-0.264,0.203-0.393,0.318    c-0.99,0.879-1.932,1.663-2.862,2.387c-0.438,0.334-0.871,0.671-1.323,0.995c-0.025,0.018-0.05,0.038-0.075,0.056    c-0.074,0.034-0.147,0.062-0.221,0.096c-1.133,0.516-2.26,1.008-3.381,1.467c-0.474,0.194-0.942,0.362-1.414,0.546    c-0.717,0.28-1.437,0.569-2.148,0.826c-0.534,0.193-1.062,0.358-1.593,0.537c-0.643,0.218-1.289,0.446-1.928,0.644    c-0.546,0.17-1.085,0.313-1.627,0.469c-0.616,0.177-1.235,0.365-1.847,0.524c-0.546,0.142-1.084,0.259-1.626,0.388    c-0.6,0.142-1.203,0.293-1.798,0.418c-0.541,0.114-1.075,0.203-1.612,0.303c-0.587,0.109-1.177,0.226-1.759,0.318    c-0.531,0.084-1.055,0.146-1.582,0.216c-0.58,0.077-1.162,0.161-1.736,0.222c-0.518,0.055-1.029,0.088-1.542,0.129    c-0.574,0.046-1.149,0.097-1.717,0.126c-0.505,0.026-1.003,0.032-1.504,0.045c-0.566,0.015-1.134,0.033-1.694,0.031    c-0.492-0.002-0.977-0.022-1.464-0.037c-0.558-0.017-1.118-0.031-1.67-0.065c-0.478-0.029-0.95-0.075-1.424-0.117    c-0.55-0.049-1.1-0.095-1.643-0.161c-0.464-0.056-0.922-0.127-1.381-0.195c-0.542-0.08-1.083-0.16-1.618-0.257    c-0.45-0.082-0.893-0.177-1.337-0.271c-0.531-0.112-1.062-0.224-1.586-0.353c-0.436-0.107-0.867-0.227-1.298-0.346    c-0.521-0.143-1.04-0.289-1.553-0.449c-0.422-0.132-0.838-0.275-1.254-0.418c-0.509-0.175-1.016-0.353-1.517-0.545    c-0.409-0.156-0.812-0.323-1.215-0.49c-0.495-0.206-0.987-0.415-1.474-0.638c-0.396-0.181-0.788-0.371-1.178-0.563    c-0.479-0.236-0.956-0.477-1.427-0.729c-0.383-0.205-0.762-0.419-1.139-0.635c-0.464-0.266-0.925-0.538-1.38-0.82    c-0.369-0.229-0.734-0.464-1.097-0.704c-0.449-0.296-0.894-0.599-1.334-0.911c-0.355-0.252-0.707-0.51-1.055-0.773    c-0.432-0.325-0.859-0.658-1.281-0.999c-0.342-0.276-0.681-0.557-1.017-0.844c-0.413-0.353-0.821-0.714-1.224-1.082    c-0.329-0.3-0.655-0.605-0.978-0.915c-0.394-0.38-0.782-0.769-1.166-1.164c-0.316-0.325-0.629-0.652-0.938-0.987    c-0.375-0.406-0.742-0.823-1.107-1.244c-0.301-0.349-0.602-0.699-0.896-1.058c-0.354-0.432-0.701-0.875-1.045-1.322    c-0.287-0.373-0.574-0.747-0.854-1.131c-0.334-0.457-0.659-0.925-0.982-1.396c-0.273-0.398-0.545-0.796-0.81-1.204    c-0.313-0.481-0.615-0.974-0.917-1.469c-0.257-0.422-0.515-0.843-0.765-1.276c-0.291-0.505-0.572-1.022-0.852-1.54    c-0.241-0.446-0.484-0.891-0.717-1.348c-0.27-0.528-0.528-1.069-0.786-1.61c-0.225-0.471-0.452-0.939-0.668-1.42    c-0.248-0.55-0.484-1.115-0.72-1.679c-0.207-0.494-0.418-0.985-0.616-1.489c-0.226-0.574-0.439-1.162-0.654-1.749    c-0.189-0.517-0.382-1.029-0.562-1.556c-0.205-0.598-0.395-1.211-0.588-1.821c-0.17-0.538-0.344-1.07-0.505-1.618    c-0.037-0.125-0.069-0.256-0.105-0.382C282.081,120.426,315.313,104.775,360.705,103.487z M151.295,103.487    c45.392,1.288,78.625,16.939,95.645,51.886c-0.036,0.126-0.068,0.257-0.105,0.382c-0.161,0.547-0.335,1.08-0.505,1.618    c-0.193,0.61-0.383,1.223-0.588,1.821c-0.18,0.526-0.373,1.039-0.562,1.556c-0.215,0.586-0.428,1.175-0.654,1.749    c-0.199,0.504-0.409,0.995-0.616,1.489c-0.237,0.564-0.472,1.128-0.72,1.679c-0.216,0.481-0.443,0.949-0.668,1.42    c-0.258,0.541-0.517,1.082-0.786,1.61c-0.233,0.457-0.476,0.901-0.717,1.348c-0.28,0.518-0.561,1.036-0.852,1.54    c-0.249,0.432-0.507,0.854-0.765,1.276c-0.302,0.495-0.605,0.988-0.917,1.469c-0.265,0.408-0.538,0.806-0.81,1.204    c-0.323,0.471-0.648,0.94-0.982,1.396c-0.28,0.383-0.567,0.758-0.854,1.131c-0.344,0.447-0.691,0.89-1.045,1.322    c-0.294,0.359-0.594,0.71-0.896,1.058c-0.364,0.421-0.732,0.838-1.107,1.244c-0.309,0.335-0.622,0.663-0.938,0.987    c-0.384,0.395-0.772,0.785-1.166,1.164c-0.322,0.311-0.649,0.615-0.978,0.915c-0.404,0.369-0.812,0.73-1.225,1.083    c-0.335,0.286-0.674,0.567-1.015,0.842c-0.423,0.341-0.851,0.675-1.283,1c-0.348,0.262-0.699,0.52-1.054,0.771    c-0.44,0.312-0.885,0.616-1.335,0.912c-0.363,0.239-0.728,0.475-1.097,0.703c-0.456,0.282-0.917,0.554-1.381,0.82    c-0.377,0.216-0.755,0.429-1.138,0.634c-0.471,0.253-0.949,0.494-1.429,0.73c-0.39,0.192-0.78,0.381-1.176,0.562    c-0.487,0.223-0.981,0.433-1.476,0.639c-0.402,0.167-0.805,0.334-1.213,0.49c-0.501,0.192-1.009,0.37-1.518,0.545    c-0.416,0.143-0.832,0.286-1.254,0.418c-0.513,0.16-1.033,0.306-1.554,0.449c-0.431,0.119-0.861,0.238-1.297,0.345    c-0.524,0.129-1.056,0.242-1.587,0.353c-0.444,0.093-0.887,0.189-1.337,0.271c-0.535,0.097-1.077,0.177-1.618,0.257    c-0.459,0.068-0.917,0.139-1.381,0.195c-0.543,0.065-1.094,0.112-1.643,0.161c-0.474,0.042-0.945,0.088-1.424,0.117    c-0.552,0.034-1.111,0.048-1.67,0.065c-0.487,0.015-0.972,0.035-1.464,0.037c-0.56,0.002-1.128-0.016-1.694-0.031    c-0.5-0.013-0.999-0.019-1.504-0.045c-0.568-0.029-1.143-0.08-1.716-0.126c-0.514-0.041-1.025-0.075-1.543-0.129    c-0.574-0.061-1.156-0.144-1.735-0.222c-0.527-0.07-1.052-0.132-1.583-0.216c-0.582-0.092-1.171-0.209-1.757-0.318    c-0.537-0.1-1.072-0.189-1.614-0.303c-0.594-0.125-1.196-0.276-1.795-0.418c-0.543-0.129-1.082-0.246-1.629-0.388    c-0.61-0.159-1.228-0.346-1.842-0.523c-0.544-0.156-1.084-0.3-1.631-0.47c-0.636-0.198-1.28-0.425-1.921-0.642    c-0.533-0.18-1.063-0.346-1.6-0.54c-0.708-0.255-1.422-0.542-2.135-0.821c-0.476-0.186-0.949-0.355-1.427-0.551    c-1.105-0.453-2.218-0.939-3.335-1.447c-0.089-0.041-0.177-0.075-0.266-0.116c-0.024-0.017-0.048-0.036-0.072-0.053    c-0.454-0.324-0.888-0.662-1.327-0.997c-0.931-0.724-1.873-1.508-2.862-2.387c-0.13-0.115-0.262-0.212-0.393-0.318    C142.411,168.537,140.736,138.796,151.295,103.487z M352.964,402.776c-14.488,7.332-28.973,16.391-42.527,27.298    c-23.004,18.511-40.904,40.383-51.685,65.859h-5.505c-10.781-25.476-28.681-47.349-51.685-65.859    c-13.554-10.907-28.038-19.966-42.527-27.298c-4.226-2.138-8.207-4.003-11.878-5.6l31.604-94.811    c11.405-32.244,11.101-61.166,2.676-85.817c-0.488-1.429-1.026-2.84-1.614-4.235c0.162,0.035,0.323,0.062,0.485,0.096    c0.69,0.146,1.379,0.283,2.065,0.411c0.238,0.044,0.476,0.092,0.713,0.134c0.886,0.158,1.768,0.301,2.647,0.428    c0.216,0.031,0.43,0.057,0.645,0.087c0.696,0.096,1.39,0.182,2.082,0.259c0.271,0.03,0.542,0.06,0.812,0.087    c0.783,0.079,1.563,0.147,2.339,0.202c0.105,0.007,0.21,0.018,0.315,0.025c0.871,0.058,1.737,0.097,2.599,0.125    c0.244,0.008,0.487,0.012,0.73,0.018c0.672,0.015,1.341,0.021,2.007,0.019c0.223-0.001,0.447,0,0.67-0.003    c0.855-0.011,1.705-0.036,2.55-0.077c0.135-0.007,0.268-0.017,0.403-0.025c0.726-0.039,1.447-0.091,2.165-0.152    c0.232-0.02,0.465-0.041,0.696-0.063c0.726-0.069,1.448-0.149,2.165-0.24c0.118-0.015,0.237-0.027,0.355-0.043    c0.833-0.111,1.659-0.238,2.481-0.378c0.187-0.032,0.373-0.068,0.56-0.101c0.662-0.119,1.32-0.247,1.974-0.385    c0.196-0.041,0.392-0.081,0.587-0.124c0.814-0.18,1.624-0.37,2.426-0.58c0.025-0.007,0.05-0.014,0.075-0.021    c0.771-0.202,1.535-0.422,2.294-0.651c0.192-0.058,0.383-0.118,0.574-0.177c0.669-0.209,1.334-0.428,1.994-0.658    c0.12-0.042,0.242-0.081,0.362-0.124c0.778-0.277,1.549-0.569,2.313-0.874c0.13-0.052,0.259-0.108,0.389-0.161    c0.641-0.261,1.276-0.533,1.906-0.815c0.17-0.076,0.341-0.152,0.51-0.229c1.491-0.682,2.953-1.422,4.385-2.218    c0.154-0.086,0.308-0.174,0.461-0.261c0.602-0.341,1.198-0.692,1.789-1.054c0.122-0.075,0.246-0.148,0.368-0.223    c0.703-0.437,1.399-0.886,2.087-1.351c0.079-0.053,0.156-0.109,0.234-0.163c0.602-0.411,1.197-0.835,1.786-1.267    c0.15-0.11,0.299-0.22,0.448-0.332c0.629-0.47,1.252-0.95,1.865-1.445c0.027-0.022,0.055-0.043,0.082-0.065    c0.651-0.527,1.292-1.07,1.925-1.624c0.127-0.111,0.252-0.224,0.378-0.336c0.519-0.461,1.032-0.932,1.539-1.412    c0.124-0.117,0.248-0.233,0.371-0.351c0.609-0.586,1.211-1.182,1.802-1.794c0.035-0.036,0.069-0.074,0.104-0.111    c0.545-0.567,1.08-1.147,1.608-1.737c0.135-0.151,0.269-0.302,0.403-0.454c0.491-0.557,0.975-1.122,1.451-1.698    c0.071-0.086,0.143-0.169,0.214-0.255c0.543-0.664,1.076-1.341,1.6-2.03c0.105-0.138,0.207-0.279,0.311-0.417    c0.424-0.566,0.842-1.141,1.253-1.723c0.12-0.171,0.242-0.341,0.361-0.513c0.99-1.429,1.939-2.906,2.848-4.431    c0.116-0.195,0.231-0.391,0.345-0.588c0.366-0.627,0.726-1.261,1.078-1.903c0.062-0.114,0.129-0.223,0.191-0.337    c0.062,0.114,0.128,0.223,0.191,0.337c0.352,0.642,0.712,1.277,1.078,1.903c0.115,0.196,0.229,0.393,0.345,0.588    c0.909,1.525,1.859,3.002,2.848,4.431c0.119,0.172,0.24,0.342,0.361,0.513c0.411,0.583,0.828,1.157,1.253,1.723    c0.104,0.139,0.206,0.28,0.311,0.417c0.524,0.689,1.057,1.367,1.6,2.03c0.07,0.086,0.143,0.17,0.214,0.255    c0.476,0.576,0.96,1.142,1.451,1.698c0.134,0.152,0.268,0.303,0.403,0.454c0.53,0.591,1.066,1.173,1.612,1.741    c0.034,0.035,0.066,0.071,0.1,0.106c0.591,0.613,1.193,1.209,1.803,1.795c0.123,0.118,0.247,0.234,0.371,0.351    c0.507,0.48,1.02,0.95,1.539,1.412c0.126,0.112,0.251,0.225,0.378,0.336c0.633,0.554,1.274,1.098,1.925,1.624    c0.027,0.022,0.055,0.043,0.082,0.065c0.614,0.495,1.237,0.975,1.866,1.446c0.148,0.111,0.297,0.22,0.446,0.33    c0.591,0.434,1.187,0.858,1.791,1.27c0.077,0.053,0.153,0.108,0.231,0.16c0.688,0.465,1.384,0.915,2.088,1.352    c0.121,0.075,0.243,0.147,0.365,0.221c0.592,0.362,1.19,0.714,1.793,1.056c0.153,0.087,0.305,0.174,0.459,0.259    c1.433,0.797,2.896,1.536,4.388,2.219c0.167,0.076,0.335,0.151,0.503,0.226c0.634,0.283,1.272,0.557,1.916,0.819    c0.127,0.052,0.253,0.106,0.38,0.157c0.765,0.306,1.537,0.599,2.316,0.876c0.119,0.042,0.24,0.081,0.359,0.123    c0.662,0.231,1.329,0.451,2,0.66c0.189,0.059,0.378,0.118,0.567,0.175c0.763,0.231,1.531,0.452,2.307,0.655    c0.021,0.006,0.042,0.012,0.063,0.018c0.803,0.21,1.614,0.401,2.429,0.58c0.195,0.043,0.391,0.083,0.586,0.124    c0.655,0.138,1.313,0.267,1.976,0.386c0.186,0.034,0.372,0.069,0.559,0.101c0.822,0.14,1.649,0.268,2.482,0.379    c0.117,0.016,0.236,0.027,0.353,0.042c0.718,0.092,1.441,0.171,2.167,0.24c0.231,0.022,0.463,0.043,0.695,0.063    c0.721,0.062,1.445,0.113,2.173,0.152c0.131,0.007,0.262,0.018,0.394,0.024c0.846,0.041,1.697,0.065,2.552,0.077    c0.222,0.003,0.446,0.002,0.669,0.003c0.668,0.003,1.338-0.003,2.011-0.019c0.241-0.005,0.482-0.01,0.724-0.018    c0.864-0.028,1.731-0.067,2.603-0.125c0.101-0.007,0.203-0.017,0.304-0.024c0.78-0.055,1.563-0.124,2.35-0.203    c0.268-0.027,0.538-0.056,0.807-0.086c0.694-0.077,1.39-0.164,2.089-0.26c0.213-0.029,0.425-0.055,0.639-0.086    c0.88-0.128,1.763-0.271,2.65-0.429c0.235-0.042,0.472-0.089,0.708-0.133c0.688-0.128,1.378-0.266,2.071-0.412    c0.161-0.034,0.321-0.061,0.483-0.096c-0.588,1.396-1.126,2.807-1.615,4.237c-8.418,24.63-8.728,53.526,2.701,85.888    l31.579,94.738C361.171,398.774,357.189,400.638,352.964,402.776z"/>
	</g>
</g>
<g>
</g>
<g>
</g>
<g>
</g>
<g>
</g>
<g>
</g>
<g>
</g>
<g>
</g>
<g>
</g>
<g>
</g>
<g>
</g>
<g>
</g>
<g>
</g>
<g>
</g>
<g>
</g>
<g>
</g>
</svg>
