<?xml version="1.0" encoding="iso-8859-1"?>
<!-- Generator: Adobe Illustrator 19.0.0, SVG Export Plug-In . SVG Version: 6.00 Build 0)  -->
<svg xmlns="http://www.w3.org/2000/svg" xmlns:xlink="http://www.w3.org/1999/xlink" version="1.1" id="Layer_1" x="0px" y="0px" viewBox="0 0 512.013 512.013" style="enable-background:new 0 0 512.013 512.013;" xml:space="preserve">
<g transform="translate(-1 -1)">
	<g>
		<g>
			<path d="M461.981,255.869c-0.268-0.721-0.506-1.336-0.791-2.044c-0.2-0.495-0.404-1.012-0.612-1.549     c-0.025-0.065-0.051-0.134-0.077-0.2c-0.179-0.464-0.361-0.941-0.546-1.435c-0.046-0.121-0.092-0.247-0.138-0.37     c-0.167-0.449-0.337-0.909-0.509-1.382c-0.056-0.153-0.112-0.308-0.168-0.463c-0.167-0.463-0.337-0.938-0.509-1.423     c-0.058-0.165-0.116-0.328-0.175-0.496c-0.178-0.505-0.358-1.025-0.541-1.554c-0.054-0.156-0.107-0.307-0.161-0.465     c-0.215-0.626-0.433-1.268-0.654-1.925c-0.022-0.066-0.044-0.128-0.066-0.194c-0.24-0.715-0.484-1.45-0.732-2.201     c-0.085-0.258-0.172-0.527-0.258-0.789c-0.159-0.485-0.318-0.972-0.48-1.472c-0.12-0.371-0.242-0.751-0.363-1.129     c-0.129-0.402-0.258-0.805-0.389-1.216c-0.141-0.443-0.284-0.893-0.427-1.347c-0.111-0.35-0.222-0.704-0.334-1.06     c-0.158-0.504-0.317-1.012-0.478-1.529c-0.095-0.306-0.192-0.618-0.288-0.929c-0.178-0.576-0.357-1.153-0.538-1.743     c-0.059-0.194-0.12-0.393-0.18-0.589c-0.962-3.144-1.962-6.486-3.002-10.026c-0.03-0.104-0.06-0.205-0.091-0.309     c-0.243-0.828-0.489-1.669-0.736-2.519c-0.05-0.172-0.1-0.343-0.15-0.516c-0.243-0.836-0.488-1.682-0.735-2.537     c-0.05-0.173-0.1-0.347-0.15-0.521c-0.253-0.877-0.507-1.762-0.764-2.66c-0.033-0.115-0.066-0.232-0.099-0.347     c-1.084-3.796-2.205-7.778-3.36-11.931c-0.101-0.362-0.2-0.719-0.301-1.084c-0.2-0.721-0.402-1.453-0.604-2.184     c-0.151-0.545-0.301-1.091-0.453-1.642c-0.178-0.646-0.357-1.298-0.536-1.951c-0.183-0.668-0.367-1.339-0.552-2.015     c-0.16-0.585-0.32-1.171-0.481-1.762c-0.227-0.835-0.456-1.677-0.686-2.523c-0.118-0.434-0.235-0.865-0.353-1.301     c-0.352-1.298-0.705-2.605-1.062-3.93c-0.001-0.005-0.003-0.011-0.004-0.016c-2.655-9.859-5.453-20.466-8.375-31.736     c-6.42-24.758-13.049-51.204-19.525-77.663c-2.315-9.458-4.444-18.24-6.339-26.121c-0.663-2.757-1.25-5.205-1.753-7.314     c-0.509-2.136-0.509-2.136-0.615-2.581c-0.531-2.237-1.941-4.165-3.912-5.347L356.408,2.916c-1.222-0.98-2.71-1.588-4.257-1.809     c-0.223-0.034-0.445-0.052-0.668-0.068c-0.08-0.006-0.16-0.011-0.24-0.015c-0.207-0.009-0.414-0.016-0.619-0.009     c-3.733,0.079-7.394,2.389-8.151,7.074c-0.021,0.127-0.044,0.252-0.06,0.381c-0.006,0.046-0.016,0.087-0.021,0.133     c-0.043,0.387-0.177,1.294-0.435,2.646c-0.448,2.354-1.083,5.004-1.932,7.872c-2.438,8.227-6.094,16.455-11.185,24.091     c-14.453,21.68-37.423,34.6-71.833,34.6s-57.38-12.92-71.833-34.6c-5.091-7.636-8.747-15.864-11.185-24.091     c-0.85-2.868-1.484-5.518-1.932-7.872c-0.257-1.351-0.392-2.259-0.435-2.646c-0.005-0.046-0.015-0.088-0.021-0.133     c-0.016-0.129-0.039-0.254-0.06-0.381c-0.757-4.685-4.418-6.995-8.151-7.074c-0.206-0.007-0.412,0-0.619,0.009     c-0.08,0.004-0.16,0.009-0.24,0.015c-0.223,0.016-0.445,0.034-0.668,0.068c-1.547,0.22-3.035,0.828-4.257,1.809l-41.522,24.913     c-1.971,1.183-3.382,3.111-3.912,5.347c-0.106,0.445-0.106,0.445-0.615,2.581c-0.504,2.109-1.09,4.557-1.753,7.314     c-1.895,7.881-4.024,16.663-6.339,26.121c-5.826,23.802-11.776,47.599-17.586,70.163c-0.003,0.011-0.007,0.02-0.01,0.031     c-0.383,1.486-0.762,2.955-1.14,4.419c-0.113,0.438-0.227,0.877-0.34,1.314c-1.736,6.706-3.428,13.183-5.074,19.41     c-0.031,0.119-0.063,0.238-0.094,0.356c-0.33,1.249-0.657,2.481-0.983,3.71c-0.122,0.46-0.245,0.923-0.367,1.38     c-0.178,0.667-0.353,1.324-0.529,1.985c-9.133,34.228-16.673,60.158-22.036,75.264c-0.097,0.272-0.194,0.546-0.289,0.811     c-0.112,0.312-0.222,0.614-0.332,0.916c-0.12,0.329-0.239,0.654-0.357,0.971c-0.092,0.249-0.184,0.496-0.275,0.738     c-0.139,0.369-0.275,0.727-0.41,1.08c-0.071,0.184-0.142,0.373-0.212,0.553c-0.205,0.527-0.406,1.039-0.603,1.526     c-0.461,1.14-0.902,2.282-1.327,3.425c-13.771,36.954-8.92,73.534,10.413,106.487c8.793,14.992,15.928,30.787,21.285,48.587     c0.053,0.492,0.136,0.987,0.28,1.482c7.388,25.49,11.396,55.182,11.396,90.68c0,4.713,3.82,8.533,8.533,8.533h93.867h133.862     h79.471c4.713,0,8.533-3.82,8.533-8.533c0-63.21,11.602-104.333,32.961-140.75c0.223-0.378,0.422-0.728,0.683-1.197     C471.772,329.482,476.218,292.844,461.981,255.869z M443.894,256.418c-2.542,0.395-5.107,0.596-7.686,0.596     c-28.277,0-51.2-22.923-51.2-51.2c0-20.645,12.351-38.806,30.592-46.816c0.735,2.814,1.464,5.591,2.186,8.326     c0.094,0.355,0.186,0.704,0.28,1.058c0.213,0.808,0.428,1.62,0.64,2.421c0.032,0.119,0.063,0.235,0.094,0.354     c0.312,1.178,0.622,2.344,0.93,3.503c0.019,0.07,0.038,0.142,0.056,0.212c4.948,18.588,9.448,34.822,13.433,48.376     c0.019,0.065,0.039,0.131,0.058,0.197c0.244,0.829,0.486,1.647,0.726,2.456c0.051,0.173,0.103,0.348,0.154,0.52     c0.207,0.697,0.413,1.384,0.617,2.065c0.083,0.276,0.166,0.553,0.248,0.827c0.178,0.593,0.355,1.178,0.531,1.759     c0.102,0.337,0.204,0.674,0.305,1.007c0.152,0.5,0.303,0.993,0.453,1.483c0.126,0.413,0.253,0.825,0.378,1.231     c0.124,0.404,0.248,0.802,0.371,1.199c0.143,0.463,0.287,0.924,0.429,1.378c0.108,0.344,0.214,0.684,0.321,1.024     c0.157,0.5,0.313,0.996,0.468,1.485c0.087,0.274,0.173,0.544,0.259,0.815c0.168,0.529,0.336,1.053,0.502,1.569     c0.077,0.24,0.154,0.477,0.23,0.714c0.172,0.533,0.343,1.059,0.513,1.577c0.066,0.202,0.131,0.401,0.197,0.6     c0.177,0.54,0.354,1.073,0.528,1.597c0.058,0.174,0.115,0.346,0.173,0.517c0.179,0.536,0.357,1.063,0.532,1.581     c0.051,0.15,0.101,0.298,0.152,0.447c0.177,0.52,0.353,1.031,0.526,1.532c0.052,0.15,0.103,0.298,0.155,0.446     c0.169,0.484,0.335,0.961,0.501,1.427c0.055,0.155,0.11,0.309,0.164,0.463c0.16,0.449,0.318,0.89,0.474,1.321     c0.057,0.157,0.114,0.313,0.17,0.468c0.151,0.415,0.301,0.823,0.45,1.221C443.834,256.255,443.864,256.34,443.894,256.418z      M257.007,94.88c39.725,0,67.74-15.463,85.333-41.163v40.654c-45.278,42.317-62.54,90.529-62.281,142.319     c-4.644,1.535-9.407,2.602-14.218,3.192c-0.083,0.01-0.167,0.019-0.25,0.029c-0.843,0.1-1.687,0.185-2.533,0.256     c-0.354,0.029-0.708,0.049-1.062,0.073c-0.639,0.044-1.277,0.089-1.917,0.116c-0.77,0.032-1.54,0.045-2.311,0.053     c-0.254,0.003-0.508,0.015-0.762,0.015c-0.255,0-0.511-0.013-0.766-0.016c-0.769-0.008-1.537-0.021-2.305-0.053     c-0.642-0.027-1.283-0.072-1.924-0.117c-0.352-0.024-0.703-0.044-1.055-0.073c-0.848-0.071-1.694-0.156-2.539-0.257     c-0.081-0.009-0.161-0.018-0.242-0.028c-4.812-0.59-9.576-1.658-14.221-3.192c0.259-51.79-17.003-100.002-62.281-142.319V53.716     C189.267,79.417,217.281,94.88,257.007,94.88z M342.34,118.614v10.399c0,40.54-12.853,70.323-34.98,91.43     c-3.167,3.021-6.56,5.682-10.112,8.018C298.62,188.924,311.682,152.073,342.34,118.614z M171.673,118.614     c30.658,33.459,43.72,70.31,45.092,109.847c-3.552-2.336-6.945-4.996-10.112-8.017c-22.127-21.107-34.981-50.891-34.981-91.43     V118.614z M68.635,260.254c0.006-0.016,0.012-0.031,0.018-0.047c0.2-0.494,0.403-1.009,0.609-1.539     c0.064-0.164,0.129-0.337,0.194-0.504c0.144-0.373,0.288-0.748,0.435-1.137c0.082-0.218,0.166-0.444,0.249-0.667     c0.131-0.352,0.263-0.706,0.397-1.072c0.095-0.258,0.19-0.523,0.286-0.787c0.125-0.344,0.25-0.69,0.376-1.044     c0.105-0.295,0.212-0.595,0.319-0.897c0.117-0.332,0.235-0.669,0.354-1.01c0.12-0.343,0.24-0.69,0.362-1.043     c0.103-0.299,0.208-0.605,0.312-0.911c0.139-0.406,0.278-0.814,0.419-1.231c0.081-0.24,0.163-0.486,0.245-0.729     c0.169-0.502,0.337-1.006,0.509-1.524c0.021-0.064,0.042-0.13,0.064-0.193c5.857-17.712,13.467-44.551,22.441-78.584     c0.118-0.447,0.235-0.891,0.353-1.34c0.106-0.404,0.214-0.812,0.32-1.218c0.735-2.794,1.477-5.627,2.226-8.5     c13.427,12.691,21.35,30.432,21.35,49.535c0,33.49-24.157,61.383-56.091,67.128C65.522,268.692,66.935,264.467,68.635,260.254z      M61.139,290.606c42.984-4.478,76.401-40.752,76.401-84.792c0-27.034-12.709-51.895-33.684-67.861     c5.366-20.941,10.827-42.814,16.184-64.702c2.321-9.481,4.455-18.286,6.355-26.188c0.573-2.385,1.09-4.539,1.546-6.445     l26.665-15.999v73.496v30.899c0,45.224,14.777,79.464,40.267,103.779c16.089,15.351,36.678,23.539,57.57,24.58     c0.034,0.002,0.068,0.005,0.102,0.007c2.972,0.145,5.949,0.145,8.921,0c0.037-0.002,0.074-0.006,0.111-0.008     c20.89-1.043,41.475-9.231,57.563-24.58c25.489-24.314,40.266-58.555,40.266-103.778V98.114V24.618l26.665,15.999     c0.456,1.906,0.972,4.06,1.546,6.445c1.9,7.902,4.035,16.706,6.355,26.188c5.73,23.411,11.58,46.817,17.304,69.068     c-25.713,10.072-43.335,35.005-43.335,63.496c0,37.703,30.564,68.267,68.267,68.267c4.517,0,8.992-0.464,13.391-1.357     c6.695,24.401,4.108,48.333-6.239,70.91c-16.962-11.825-37.152-18.354-58.353-18.354c-56.553,0-102.4,45.847-102.4,102.4     c0,25.714,9.588,49.812,26.153,68.267H205.45c-4.337-52.56-48.365-93.867-102.043-93.867c-1.8,0-3.618,0.069-5.48,0.185     c-5.548-17.055-12.676-32.478-21.292-47.169C64.642,334.656,59.078,312.924,61.139,290.606z M111.869,495.947     c-0.496-29.577-3.603-54.617-9.114-76.796c0.218-0.002,0.435-0.004,0.651-0.004c44.247,0,80.63,33.679,84.912,76.8H111.869z      M333.905,495.947c-21.358-16.005-34.231-41.047-34.231-68.267c0-47.127,38.206-85.333,85.333-85.333     c18.35,0,35.777,5.843,50.247,16.443c-0.31,0.549-0.611,1.103-0.917,1.654c-1.447,2.607-2.85,5.24-4.205,7.904     c-0.142,0.28-0.289,0.557-0.43,0.838c-0.396,0.786-0.782,1.579-1.17,2.37c-0.198,0.403-0.399,0.803-0.595,1.208     c-0.365,0.756-0.721,1.519-1.079,2.281c-0.21,0.446-0.423,0.889-0.63,1.336c-0.343,0.741-0.677,1.489-1.012,2.235     c-0.214,0.476-0.432,0.95-0.643,1.428c-0.323,0.732-0.639,1.471-0.956,2.209c-0.214,0.499-0.432,0.996-0.643,1.498     c-0.306,0.727-0.604,1.46-0.904,2.192c-0.214,0.523-0.43,1.043-0.641,1.568c-0.289,0.721-0.571,1.449-0.854,2.176     c-0.212,0.544-0.425,1.086-0.633,1.633c-0.275,0.722-0.543,1.45-0.812,2.177c-0.207,0.56-0.415,1.119-0.618,1.683     c-0.261,0.724-0.516,1.455-0.772,2.185c-0.202,0.577-0.404,1.153-0.602,1.733c-0.247,0.724-0.488,1.455-0.729,2.185     c-0.198,0.598-0.395,1.196-0.589,1.799c-0.232,0.723-0.46,1.452-0.687,2.182c-0.192,0.617-0.383,1.234-0.571,1.856     c-0.221,0.73-0.437,1.465-0.652,2.201c-0.184,0.632-0.368,1.265-0.548,1.901c-0.208,0.734-0.412,1.473-0.614,2.213     c-0.178,0.651-0.354,1.303-0.528,1.959c-0.195,0.737-0.387,1.479-0.576,2.222c-0.171,0.672-0.341,1.346-0.508,2.023     c-0.182,0.74-0.362,1.484-0.539,2.23c-0.164,0.691-0.326,1.386-0.485,2.083c-0.17,0.745-0.338,1.493-0.503,2.244     c-0.157,0.714-0.31,1.431-0.462,2.151c-0.158,0.747-0.314,1.496-0.466,2.25c-0.149,0.735-0.294,1.475-0.438,2.216     c-0.146,0.754-0.291,1.509-0.433,2.27c-0.14,0.755-0.276,1.516-0.411,2.278c-0.135,0.76-0.269,1.52-0.399,2.286     c-0.131,0.777-0.258,1.56-0.385,2.343c-0.124,0.766-0.247,1.533-0.366,2.307c-0.122,0.798-0.239,1.603-0.356,2.409     c-0.112,0.774-0.225,1.547-0.333,2.328c-0.113,0.821-0.22,1.651-0.328,2.48c-0.101,0.779-0.204,1.557-0.3,2.343     c-0.104,0.845-0.201,1.701-0.299,2.554c-0.09,0.786-0.182,1.569-0.268,2.362c-0.094,0.872-0.181,1.755-0.27,2.636     c-0.079,0.79-0.161,1.576-0.235,2.372c-0.085,0.903-0.162,1.818-0.24,2.731c-0.068,0.791-0.139,1.577-0.203,2.375     c-0.075,0.94-0.142,1.893-0.211,2.843c-0.057,0.786-0.117,1.567-0.17,2.36c-0.065,0.984-0.122,1.983-0.18,2.978     c-0.046,0.776-0.096,1.546-0.138,2.329c-0.056,1.048-0.102,2.112-0.151,3.172c-0.034,0.747-0.073,1.486-0.104,2.239     c-0.049,1.209-0.088,2.436-0.128,3.661c-0.02,0.618-0.046,1.226-0.063,1.848c-0.053,1.858-0.096,3.733-0.128,5.627H333.905z"/>
			<path d="M205.807,393.547c32.992,0,59.733-26.741,59.733-59.733s-26.741-59.733-59.733-59.733s-59.733,26.741-59.733,59.733     S172.814,393.547,205.807,393.547z M205.807,291.147c23.567,0,42.667,19.1,42.667,42.667s-19.1,42.667-42.667,42.667     s-42.667-19.1-42.667-42.667S182.24,291.147,205.807,291.147z"/>
		</g>
	</g>
</g>
<g>
</g>
<g>
</g>
<g>
</g>
<g>
</g>
<g>
</g>
<g>
</g>
<g>
</g>
<g>
</g>
<g>
</g>
<g>
</g>
<g>
</g>
<g>
</g>
<g>
</g>
<g>
</g>
<g>
</g>
</svg>
