<?xml version="1.0" encoding="iso-8859-1"?>
<!-- Generator: Adobe Illustrator 19.0.0, SVG Export Plug-In . SVG Version: 6.00 Build 0)  -->
<svg xmlns="http://www.w3.org/2000/svg" xmlns:xlink="http://www.w3.org/1999/xlink" version="1.1" id="Layer_1" x="0px" y="0px" viewBox="0 0 512.001 512.001" style="enable-background:new 0 0 512.001 512.001;" xml:space="preserve">
<g transform="translate(0 -1)">
	<g>
		<path d="M352.663,273.039c2.027-10.347,4.996-20.02,8.323-28.125c1.217-2.965,2.395-5.489,3.319-7.196    c0.56-0.706,0.927-1.166,1.26-1.679c27.029-41.743,23.054-83.002,0.211-121.26c-3.963-6.638-8.029-12.409-12.688-18.374    c-0.938-1.201-3.48-4.391-3.816-4.825c0.516,1.273,0.783,1.952,0.594,3.02c-0.039-1.779-0.608-3.36-1.531-4.652L297.451,5.144    c-2.425-4.041-7.666-5.352-11.708-2.927c-4.041,2.425-5.352,7.666-2.927,11.708L298.51,40.08l-42.506,39.235l-42.508-39.241    l15.69-26.149c2.425-4.041,1.114-9.283-2.927-11.708c-4.041-2.425-9.283-1.114-11.708,2.927L195.3,37.227    c-0.001,0.002-0.003,0.004-0.004,0.006l-31.629,52.714c-0.332,0.465-0.616,0.968-0.849,1.504c-1.071,1.375-3.09,3.911-3.904,4.953    c-4.659,5.965-8.725,11.736-12.688,18.374c-22.843,38.258-26.818,79.517,0.211,121.26c0.332,0.513,0.7,0.973,1.096,1.381    c1.087,2.004,2.265,4.528,3.482,7.494c3.327,8.105,6.295,17.778,8.323,28.125c5.696,29.071,3.16,57.765-10.526,83.392    c-6.717,12.579-2.602,27.969,9.85,34.798c32.562,17.873,54.672,53.194,54.672,113.239c0,4.713,3.821,8.533,8.533,8.533h68.267    c4.713,0,8.533-3.821,8.533-8.533c0-60.045,22.11-95.366,54.675-113.241c12.449-6.827,16.563-22.217,9.847-34.796    C349.503,330.804,346.966,302.11,352.663,273.039z M351.121,123.528c19.582,32.796,23.056,66.89,0.903,102.005    c-0.368,0.382-0.681,0.778-1.006,1.229c-0.539,0.748-1.105,1.688-1.724,2.833c-0.325,0.6-0.664,1.258-1.013,1.962    c-0.472,0.09-0.944,0.212-1.41,0.387c-54.229,20.336-79.878,5.603-82.152-36.816c2.311-0.75,4.94-1.681,7.865-2.835    c10.742-4.236,21.479-9.948,31.536-17.376c20.138-14.873,34.831-34.524,41.872-59.38l2.537,3.81    C349.405,120.708,350.266,122.097,351.121,123.528z M257.278,179.556c-0.472,0.14-0.898,0.262-1.278,0.368    c-0.379-0.106-0.806-0.229-1.278-0.368c-2.71-0.802-5.754-1.841-9.045-3.139c-9.438-3.722-18.881-8.746-27.658-15.228    c-4.763-3.518-9.157-7.33-13.15-11.45l51.133-47.198l51.128,47.198c-3.993,4.12-8.387,7.932-13.149,11.45    c-8.777,6.482-18.22,11.506-27.658,15.228C263.032,177.715,259.989,178.754,257.278,179.556z M307.478,55.027l25.026,41.709    c-2.08,15.204-7.115,28.366-14.63,39.693l-49.289-45.501L307.478,55.027z M243.422,90.928l-49.294,45.501    c-7.515-11.326-12.55-24.489-14.63-39.693l25.029-41.715L243.422,90.928z M162.392,92.704c-0.164,0.647-0.252,1.33-0.256,2.045    C161.955,93.917,162.082,93.403,162.392,92.704z M160.88,123.528c1.667-2.792,3.361-5.422,5.128-7.99    c7.041,24.856,21.734,44.507,41.872,59.38c10.058,7.428,20.795,13.141,31.536,17.376c2.925,1.153,5.554,2.085,7.865,2.835    c-2.274,42.418-27.923,57.152-82.152,36.816c-0.466-0.175-0.937-0.297-1.41-0.387c-0.349-0.704-0.688-1.362-1.013-1.962    c-0.62-1.145-1.185-2.085-1.724-2.833c-0.325-0.451-0.638-0.848-1.006-1.229C137.824,190.418,141.298,156.324,160.88,123.528z     M345.133,376.265c-36.242,19.893-61.276,58.231-63.387,119.67h-51.489c-2.111-61.439-27.145-99.776-63.384-119.668    c-4.062-2.228-5.414-7.284-3.004-11.796c15.733-29.461,18.616-62.07,12.219-94.713c-1.201-6.127-2.706-12.031-4.41-17.601    c42.196,12.589,70.965,3.584,84.324-22.197c13.359,25.781,42.128,34.786,84.324,22.197c-1.705,5.569-3.21,11.474-4.41,17.601    c-6.396,32.643-3.513,65.252,12.22,94.714C350.543,368.983,349.192,374.039,345.133,376.265z"/>
	</g>
</g>
<g>
</g>
<g>
</g>
<g>
</g>
<g>
</g>
<g>
</g>
<g>
</g>
<g>
</g>
<g>
</g>
<g>
</g>
<g>
</g>
<g>
</g>
<g>
</g>
<g>
</g>
<g>
</g>
<g>
</g>
</svg>
