<?xml version="1.0" encoding="iso-8859-1"?>
<!-- Generator: Adobe Illustrator 19.0.0, SVG Export Plug-In . SVG Version: 6.00 Build 0)  -->
<svg xmlns="http://www.w3.org/2000/svg" xmlns:xlink="http://www.w3.org/1999/xlink" version="1.1" id="Layer_1" x="0px" y="0px" viewBox="0 0 512.002 512.002" style="enable-background:new 0 0 512.002 512.002;" xml:space="preserve">
<g transform="translate(0 -1)">
	<g>
		<path d="M452.238,8.825c-0.392-4.697-4.516-8.186-9.213-7.795c-6.13,0.511-14.436,3.679-22.471,11.531    c-19.291,18.853-25.725,54.911-13.956,112.442c-44.668-11.705-86.621-1.703-123.873,22.322    c-9.124,5.884-17.229,12.188-24.238,18.505c-0.885,0.798-1.716,1.561-2.49,2.286c-0.775-0.725-1.605-1.488-2.49-2.286    c-7.009-6.318-15.115-12.621-24.238-18.505c-37.249-24.024-79.199-34.026-123.864-22.324    c11.768-57.53,5.334-93.586-13.957-112.439C83.413,4.709,75.107,1.541,68.977,1.03c-4.697-0.392-8.821,3.098-9.213,7.795    c-0.392,4.697,3.098,8.821,7.795,9.213c2.477,0.207,7.084,1.963,11.96,6.729c15.727,15.37,20.721,49.626,6.258,109.896    c-1.377,2.924-3.17,7.462-4.941,13.364c-7.854,26.179-7.85,54.225,5.409,80.727c4.074,8.142,9.338,15.893,15.854,23.189    c6.755,7.562,11.163,17.288,12.784,27.971c12.477,82.246,7.438,169.019-28.011,219.661c-3.959,5.656,0.087,13.427,6.991,13.427    H418.13c6.903,0,10.949-7.77,6.991-13.426c-35.442-50.642-40.48-137.418-28.003-219.662c1.621-10.683,6.029-20.409,12.784-27.97    c6.517-7.297,11.781-15.048,15.854-23.19c13.258-26.501,13.259-54.546,5.403-80.724c-1.764-5.879-3.551-10.406-4.926-13.332    c-14.473-60.291-9.48-94.557,6.25-109.93c4.877-4.766,9.483-6.523,11.96-6.729C449.14,17.646,452.63,13.521,452.238,8.825z     M410.493,221.118c-3.397,6.791-7.809,13.287-13.319,19.457c-0.174,0.194-0.338,0.396-0.509,0.593    c-0.58,0.35-1.13,0.766-1.631,1.266c-1.244,1.244-5.244,3.77-12.882,6.548c-13.686,4.977-32.704,8.02-57.884,8.02    c-4.713,0-8.533,3.82-8.533,8.533s3.82,8.533,8.533,8.533c24.114,0,43.378-2.666,58.358-7.264    c-1.035,3.426-1.835,6.951-2.381,10.552c-12.085,79.664-8.553,162.725,22.514,218.581H109.236    c31.073-55.856,34.607-138.916,22.521-218.581c-0.546-3.6-1.346-7.125-2.381-10.552c14.981,4.599,34.244,7.264,58.358,7.264    c4.713,0,8.533-3.82,8.533-8.533s-3.82-8.533-8.533-8.533c-25.18,0-44.198-3.043-57.884-8.02    c-7.638-2.778-11.638-5.304-12.882-6.548c-0.5-0.5-1.051-0.916-1.631-1.266c-0.171-0.197-0.336-0.399-0.51-0.593    c-5.51-6.169-9.922-12.666-13.319-19.456c-11.035-22.057-11.038-45.809-4.325-68.187c0.959-3.198,1.981-6.07,2.996-8.566    c43.195-14.545,83.669-6.025,119.839,17.303c8.314,5.362,15.703,11.108,22.062,16.84c1.927,1.737,3.616,3.349,5.089,4.822    c-1.469,7.936-8.403,13.938-16.768,13.938c-4.713,0-8.533,3.82-8.533,8.533s3.821,8.533,8.533,8.533    c10.202,0,19.347-4.473,25.6-11.56c6.253,7.087,15.398,11.56,25.6,11.56c4.713,0,8.533-3.82,8.533-8.533s-3.821-8.533-8.533-8.533    c-8.368,0-15.304-6.006-16.769-13.945c1.471-1.471,3.158-3.081,5.082-4.814c6.359-5.732,13.748-11.478,22.062-16.84    c36.17-23.328,76.644-31.848,119.84-17.303c1.016,2.497,2.038,5.371,2.998,8.57C421.528,175.312,421.527,199.062,410.493,221.118z    "/>
	</g>
</g>
<g>
</g>
<g>
</g>
<g>
</g>
<g>
</g>
<g>
</g>
<g>
</g>
<g>
</g>
<g>
</g>
<g>
</g>
<g>
</g>
<g>
</g>
<g>
</g>
<g>
</g>
<g>
</g>
<g>
</g>
</svg>
