<?xml version="1.0" encoding="iso-8859-1"?>
<!-- Generator: Adobe Illustrator 19.0.0, SVG Export Plug-In . SVG Version: 6.00 Build 0)  -->
<svg xmlns="http://www.w3.org/2000/svg" xmlns:xlink="http://www.w3.org/1999/xlink" version="1.1" id="Layer_1" x="0px" y="0px" viewBox="0 0 512 512" style="enable-background:new 0 0 512 512;" xml:space="preserve">
<g transform="translate(0 -1)">
	<g>
		<g>
			<path d="M511.608,340.547c0.052-0.17,0.12-0.336,0.161-0.509c0.057-0.242,0.082-0.488,0.118-0.733     c0.025-0.171,0.067-0.339,0.082-0.511c0.023-0.264,0.012-0.53,0.009-0.795c-0.001-0.155,0.015-0.309,0.005-0.464     c-0.023-0.368-0.08-0.735-0.151-1.1c-0.01-0.051-0.01-0.103-0.021-0.155c0-0.001,0-0.002-0.001-0.003     c-0.46-2.145-0.956-4.297-1.47-6.453c-0.129-0.542-0.262-1.085-0.395-1.628c-0.481-1.967-0.981-3.937-1.505-5.912     c-0.05-0.19-0.097-0.378-0.148-0.568c-0.632-2.359-1.298-4.725-1.992-7.096c-0.012-0.041-0.025-0.082-0.037-0.123     c-13.898-47.409-40.111-97.026-74.73-146.646c-2.162-3.099-4.341-6.159-6.527-9.199c-0.02-0.028-0.036-0.058-0.056-0.086     c-0.425-0.591-0.854-1.17-1.28-1.758c-7.542-10.423-15.198-20.476-22.854-30.076c-0.352-0.442-0.704-0.888-1.056-1.328     c-1.232-1.538-2.463-3.057-3.693-4.571c-0.526-0.648-1.053-1.297-1.578-1.94c-1.144-1.398-2.286-2.781-3.427-4.157     c-0.597-0.719-1.192-1.437-1.788-2.149c-0.558-0.668-1.118-1.351-1.675-2.013c-8.179-9.724-15.923-18.408-20.66-23.419V56.467     c0-4.713-3.82-8.533-8.533-8.533h-62.771c-6.016-5.307-13.912-8.533-22.566-8.533h-34.133c-8.654,0-16.55,3.226-22.566,8.533     H153.6c-4.713,0-8.533,3.82-8.533,8.533v30.685c-4.737,5.01-12.483,13.696-20.664,23.422c-1.052,1.251-2.108,2.532-3.163,3.802     c-0.605,0.727-1.211,1.45-1.815,2.181c-0.787,0.955-1.575,1.925-2.363,2.89c-17.727,21.669-34.945,44.989-50.667,69.299     c-0.304,0.468-0.605,0.935-0.907,1.403c-0.779,1.211-1.561,2.421-2.333,3.637C32.215,242.348,9.991,290.539,0.189,336.279     c0,0,0,0,0,0.001s0,0,0,0c-0.01,0.047-0.01,0.095-0.02,0.143c-0.072,0.368-0.13,0.739-0.153,1.111     c-0.008,0.133,0.006,0.266,0.004,0.399c-0.004,0.287-0.014,0.574,0.01,0.859c0.014,0.164,0.054,0.324,0.078,0.487     c0.036,0.253,0.062,0.507,0.121,0.756c0.042,0.179,0.113,0.352,0.167,0.528c0.069,0.225,0.125,0.453,0.213,0.673     c0.001,0.003,0.003,0.006,0.004,0.009c0,0,0,0.001,0,0.002c0.012,0.03,0.026,0.063,0.039,0.093     c1.819,4.517,5.629,11.976,11.81,21.405c10.258,15.648,23.681,31.256,40.65,45.801c44.757,38.363,105.518,62.409,184.322,65.661     c0.26,0.011,0.517,0.025,0.778,0.035c2.619,0.103,5.257,0.183,7.916,0.24c0.323,0.007,0.643,0.019,0.967,0.026     c2.945,0.057,5.91,0.092,8.905,0.092c0.409,0,0.809-0.01,1.217-0.011c1.968-0.005,3.927-0.022,5.875-0.052     c1.017-0.016,2.027-0.039,3.039-0.062c1.357-0.03,2.71-0.066,4.058-0.109c1.149-0.036,2.298-0.073,3.44-0.118     c1.079-0.043,2.15-0.095,3.223-0.145c5.12-0.239,10.163-0.565,15.13-0.979c0.064-0.005,0.127-0.01,0.191-0.016     c70.312-5.887,125.351-29.109,166.715-64.564c16.969-14.545,30.392-30.153,40.65-45.801c6.21-9.473,10.028-16.96,11.837-21.47     c0.002-0.006,0.006-0.014,0.008-0.02c0-0.001,0-0.001,0.001-0.002c0.002-0.006,0.005-0.012,0.007-0.017     C511.48,341.011,511.537,340.777,511.608,340.547z M491.305,324.307c0.106,0.385,0.209,0.769,0.313,1.153     c0.416,1.535,0.815,3.066,1.202,4.593c0.122,0.482,0.247,0.965,0.366,1.447c0.463,1.869,0.909,3.733,1.328,5.589     c0.004,0.019,0.009,0.037,0.013,0.056c-0.093,0.196-0.193,0.403-0.298,0.62c-1.239,2.553-2.8,5.479-4.703,8.717     c-4.605,7.836-10.343,16.054-17.31,24.379c-27.66-14.594-45.549-43.384-45.549-75.461c0-23.587,9.676-45.549,26.255-61.443     C470.263,265.076,483.341,295.379,491.305,324.307z M388.445,138.596c0.385,0.485,0.77,0.964,1.155,1.451     c1.114,1.41,2.229,2.836,3.345,4.268c0.462,0.593,0.924,1.185,1.385,1.781c1.117,1.442,2.234,2.892,3.351,4.354     c0.424,0.555,0.848,1.116,1.272,1.674c1.163,1.532,2.327,3.066,3.489,4.619c0.029,0.038,0.057,0.077,0.086,0.116     c1.421,1.9,2.841,3.814,4.257,5.744c-15.511,13.95-35.571,21.864-56.917,21.864c-44.247,0-80.63-33.679-84.912-76.8h8.112     c0.552,0,1.102-0.015,1.65-0.042c0.268-0.013,0.533-0.036,0.8-0.055c0.264-0.019,0.529-0.035,0.791-0.06     c0.375-0.035,0.747-0.082,1.119-0.129c0.135-0.017,0.27-0.032,0.404-0.051c0.47-0.066,0.936-0.143,1.399-0.227     c0.013-0.002,0.026-0.005,0.039-0.007c6.205-1.14,11.82-3.953,16.363-7.961h59.142c3.978,4.228,10.465,11.477,17.381,19.618     c1.216,1.432,2.438,2.887,3.662,4.349c0.638,0.763,1.277,1.534,1.916,2.304c0.977,1.178,1.955,2.353,2.936,3.549     c0.292,0.355,0.584,0.719,0.875,1.076C383.838,132.835,386.139,135.692,388.445,138.596z M349.87,82.067h-43.745     c0.335-1.302,0.585-2.638,0.766-3.995c0.021-0.151,0.039-0.302,0.058-0.453c0.057-0.479,0.103-0.961,0.14-1.445     c0.018-0.227,0.039-0.454,0.052-0.682c0.027-0.486,0.04-0.975,0.047-1.466c0.002-0.164,0.016-0.327,0.016-0.492     s-0.013-0.327-0.016-0.492c-0.007-0.491-0.02-0.98-0.047-1.466c-0.013-0.228-0.034-0.455-0.052-0.682     c-0.037-0.485-0.083-0.966-0.14-1.445c-0.018-0.151-0.037-0.303-0.058-0.453c-0.18-1.357-0.431-2.693-0.766-3.995h43.745V82.067z      M273.067,56.467c4.705,0,8.964,1.904,12.051,4.982c0.179,0.245,0.352,0.493,0.564,0.728c2.137,2.373,3.559,5.178,4.148,8.193     c0.038,0.204,0.063,0.412,0.094,0.618c0.046,0.295,0.097,0.589,0.127,0.888c0.053,0.546,0.084,1.098,0.084,1.658     s-0.031,1.112-0.084,1.658c-0.03,0.299-0.081,0.593-0.127,0.888c-0.031,0.206-0.056,0.414-0.094,0.618     c-0.587,3.007-2.005,5.805-4.133,8.174c-0.006,0.007-0.013,0.013-0.02,0.02c-3.267,3.63-7.764,5.708-12.61,5.708H256h-17.067     c-4.845,0-9.342-2.078-12.61-5.708c0,0-0.001,0-0.001-0.001c0,0,0,0,0-0.001c-2.146-2.383-3.573-5.202-4.157-8.231     c-0.015-0.08-0.023-0.163-0.037-0.244c-0.074-0.417-0.138-0.837-0.18-1.261c-0.05-0.534-0.082-1.074-0.082-1.621     s0.031-1.087,0.082-1.621c0.042-0.424,0.106-0.844,0.18-1.261c0.014-0.081,0.022-0.163,0.037-0.244     c0.584-3.029,2.011-5.848,4.157-8.231c0.214-0.238,0.39-0.489,0.572-0.738c3.086-3.072,7.34-4.972,12.039-4.972H273.067z      M162.133,65h43.742c-0.343,1.333-0.597,2.701-0.778,4.092c-0.011,0.081-0.021,0.162-0.031,0.243     c-0.07,0.57-0.126,1.143-0.167,1.722c-0.011,0.147-0.025,0.294-0.034,0.442c-0.04,0.674-0.066,1.352-0.066,2.035     c0,0.684,0.026,1.362,0.066,2.036c0.009,0.148,0.023,0.294,0.034,0.441c0.042,0.578,0.097,1.152,0.167,1.722     c0.01,0.081,0.02,0.162,0.031,0.243c0.181,1.391,0.435,2.759,0.778,4.092h-43.742V65z M75.504,206.197     c0.312-0.496,0.624-0.992,0.938-1.488c0.632-1.003,1.272-2.002,1.91-3.002c5.132-8.019,10.505-16.053,16.113-24.091     c12.089-17.327,24.624-33.751,37.035-48.872c0.23-0.279,0.458-0.564,0.688-0.843c0.041-0.05,0.082-0.098,0.123-0.147     c8.213,11.435,12.756,25.178,12.756,39.646c0,37.701-30.563,68.267-68.267,68.267c-5.954,0-11.795-0.762-17.424-2.246     C64.489,224.252,69.885,215.167,75.504,206.197z M26.418,305.906c38.853,8.27,67.448,42.732,67.448,83.361     c0,8.675-1.319,17.174-3.87,25.321c-9.237-5.878-17.792-12.233-25.692-18.999c-15.715-13.458-28.112-27.852-37.543-42.207     c-3.275-4.985-5.94-9.593-8.038-13.699c-0.495-0.969-0.912-1.816-1.253-2.53c0.023-0.103,0.049-0.206,0.072-0.309     c0.283-1.25,0.579-2.504,0.882-3.759c0.25-1.031,0.508-2.065,0.772-3.101c0.055-0.218,0.11-0.436,0.165-0.654     C21.331,321.683,23.686,313.878,26.418,305.906z M283.795,456.626c-0.451,0.03-0.903,0.057-1.355,0.085     c-2.027,0.128-4.069,0.238-6.121,0.336c-1.302,0.061-2.603,0.125-3.916,0.174c-1.002,0.038-2.014,0.066-3.023,0.097     c-1.319,0.04-2.641,0.077-3.97,0.105c-0.919,0.02-1.839,0.039-2.763,0.053c-1.853,0.028-3.716,0.044-5.589,0.049     c-0.354,0.001-0.703,0.007-1.057,0.007c-20.305,0-39.499-1.398-57.636-4.108c9.94-51.513,55.241-89.759,108.836-89.759     c42.154,0,79.937,23.749,98.698,60.298C371.925,442.062,331.464,453.46,283.795,456.626z M447.78,395.588     c-8.392,7.193-17.399,13.851-27.037,19.928c-21.758-41.796-65.153-68.918-113.541-68.918     c-61.984,0-114.344,44.317-125.665,103.964c-28.739-5.757-54.18-14.943-76.544-27.032c3.905-10.937,5.94-22.468,5.94-34.262     c0-47.952-33.182-88.718-78.625-99.508c5.33-13.505,11.607-27.192,18.75-40.999c8.251,2.612,16.904,3.974,25.742,3.974     c47.129,0,85.333-38.207,85.333-85.333c0-19.563-6.662-38.087-18.554-53.014c5.485-6.349,10.372-11.781,13.642-15.252h59.145     c4.543,4.007,10.158,6.821,16.363,7.961c0.013,0.002,0.026,0.005,0.039,0.007c0.463,0.085,0.929,0.162,1.399,0.227     c0.134,0.019,0.27,0.034,0.404,0.051c0.372,0.047,0.743,0.094,1.119,0.129c0.263,0.025,0.527,0.041,0.791,0.06     c0.266,0.019,0.532,0.043,0.8,0.055c0.548,0.027,1.098,0.042,1.65,0.042h8.89c4.337,52.56,48.365,93.867,102.043,93.867     c24.978,0,48.512-9.041,66.91-24.99c0.252,0.36,0.507,0.712,0.758,1.073c9.597,13.755,18.521,27.499,26.687,41.172     c-21.771,19.234-34.622,46.85-34.622,76.612c0,37,19.838,70.348,50.838,88.429C456.482,387.809,452.272,391.738,447.78,395.588z"/>
			<path d="M221.867,201.533c-37.703,0-68.267,30.564-68.267,68.267s30.564,68.267,68.267,68.267s68.267-30.564,68.267-68.267     S259.569,201.533,221.867,201.533z M221.867,321c-28.277,0-51.2-22.923-51.2-51.2s22.923-51.2,51.2-51.2s51.2,22.923,51.2,51.2     S250.144,321,221.867,321z"/>
		</g>
	</g>
</g>
<g>
</g>
<g>
</g>
<g>
</g>
<g>
</g>
<g>
</g>
<g>
</g>
<g>
</g>
<g>
</g>
<g>
</g>
<g>
</g>
<g>
</g>
<g>
</g>
<g>
</g>
<g>
</g>
<g>
</g>
</svg>
