<?xml version="1.0" encoding="iso-8859-1"?>
<!-- Generator: Adobe Illustrator 19.0.0, SVG Export Plug-In . SVG Version: 6.00 Build 0)  -->
<svg xmlns="http://www.w3.org/2000/svg" xmlns:xlink="http://www.w3.org/1999/xlink" version="1.1" id="Layer_1" x="0px" y="0px" viewBox="0 0 512 512" style="enable-background:new 0 0 512 512;" xml:space="preserve">
<g transform="translate(0 -1)">
	<g>
		<g>
			<path d="M256,214.333c-25.454,0-42.667,38.73-42.667,85.333C213.333,346.27,230.546,385,256,385s42.667-38.73,42.667-85.333     C298.667,253.063,281.454,214.333,256,214.333z M256,367.933c-12.246,0-25.6-30.048-25.6-68.267     c0-38.219,13.354-68.267,25.6-68.267s25.6,30.048,25.6,68.267C281.6,337.886,268.246,367.933,256,367.933z"/>
			<path d="M383.562,399.368l-34.133-102.4c-10.191-28.821-9.928-53.801-2.717-74.9c2.941-8.616,8.495-16.791,16.865-25.49     c23.954-24.917,24.524-62.909,11.496-104.275c-0.015-0.049-0.041-0.092-0.057-0.14c-0.044-0.131-0.08-0.264-0.131-0.394     C362.191,59.186,358.4,40.134,358.4,9.533c0-4.713-3.82-8.533-8.533-8.533s-8.533,3.82-8.533,8.533     c0,29.05,3.308,48.966,13.412,77.128C311.044,88.993,276.64,104.28,256,136.639c-20.64-32.36-55.044-47.646-98.745-49.978     c10.104-28.162,13.412-48.078,13.412-77.128c0-4.713-3.82-8.533-8.533-8.533s-8.533,3.82-8.533,8.533     c0,30.601-3.791,49.653-16.485,82.236c-0.051,0.131-0.087,0.263-0.131,0.394c-0.016,0.048-0.042,0.091-0.057,0.14     c-13.028,41.366-12.458,79.358,11.494,104.273c8.372,8.702,13.926,16.877,16.866,25.489c7.212,21.102,7.475,46.082-2.666,74.756     l-34.184,102.547c-1.468,4.405,0.855,9.176,5.228,10.736c0.787,0.281,2.389,0.9,4.687,1.867     c3.901,1.641,8.266,3.649,12.977,6.034c13.487,6.825,26.977,15.263,39.533,25.366c22.435,18.053,39.343,39.377,48.613,64.093     c1.249,3.33,4.433,5.537,7.99,5.537h17.067c3.557,0,6.741-2.206,7.99-5.537c9.27-24.716,26.178-46.039,48.613-64.093     c12.556-10.104,26.047-18.542,39.533-25.366c4.712-2.384,9.077-4.393,12.977-6.034c2.298-0.967,3.899-1.586,4.687-1.867     C382.707,408.544,385.03,403.773,383.562,399.368z M352.964,402.776c-14.488,7.332-28.973,16.391-42.527,27.298     c-23.004,18.511-40.904,40.383-51.685,65.859h-5.505c-10.781-25.476-28.681-47.349-51.685-65.859     c-13.554-10.907-28.038-19.966-42.527-27.298c-4.226-2.138-8.207-4.003-11.878-5.6l31.604-94.811     c11.405-32.244,11.101-61.166,2.676-85.817c-3.856-11.294-10.757-21.453-20.716-31.803     c-17.328-18.025-18.737-47.734-9.322-81.255c46.504,1.343,80.231,17.777,96.82,54.614c3.02,6.706,12.542,6.706,15.562,0     c16.588-36.837,50.316-53.271,96.82-54.614c9.414,33.522,8.005,63.231-9.325,81.258c-9.956,10.348-16.858,20.507-20.714,31.803     c-8.417,24.629-8.728,53.525,2.701,85.887l31.579,94.738C361.171,398.774,357.189,400.638,352.964,402.776z"/>
		</g>
	</g>
</g>
<g>
</g>
<g>
</g>
<g>
</g>
<g>
</g>
<g>
</g>
<g>
</g>
<g>
</g>
<g>
</g>
<g>
</g>
<g>
</g>
<g>
</g>
<g>
</g>
<g>
</g>
<g>
</g>
<g>
</g>
</svg>
