<?xml version="1.0" encoding="iso-8859-1"?>
<!-- Generator: Adobe Illustrator 19.0.0, SVG Export Plug-In . SVG Version: 6.00 Build 0)  -->
<svg xmlns="http://www.w3.org/2000/svg" xmlns:xlink="http://www.w3.org/1999/xlink" version="1.1" id="Layer_1" x="0px" y="0px" viewBox="0 0 512.005 512.005" style="enable-background:new 0 0 512.005 512.005;" xml:space="preserve">
<g transform="translate(0 -1)">
	<g>
		<path d="M406.178,393.222L381.4,341.899c14.172-0.44,23.244-7.188,26.885-18.905c2.373-7.621,1.461-16.261-2.103-23.642    c-0.293-0.607-0.657-1.176-1.083-1.697l-39.552-48.273c-22.314-27.253-34.076-60.96-32.542-94.581    c1.044-22.934,6.085-41.437,13.731-50.378l1.071-1.492c6.937-10.589,9.286-23.44,6.559-35.704l-10.982-49.441    C341.199,7.977,332.498,1,322.456,1c-6.997,0-13.549,3.413-17.562,9.141l-48.895,69.845l-48.886-69.842    C203.099,4.413,196.547,1,189.55,1c-10.042,0-18.742,6.977-20.925,16.783l-10.983,49.445c-2.726,12.263-0.378,25.113,6.508,35.625    l1.116,1.572c7.65,8.939,12.693,27.438,13.737,50.374c1.526,33.63-10.235,67.337-32.552,94.582l-39.543,48.273    c-0.427,0.521-0.79,1.09-1.083,1.697c-3.562,7.375-4.476,16.012-2.114,23.636c3.653,11.723,12.724,18.471,26.895,18.91    l-24.785,51.323c-3.564,7.381-4.476,16.021-2.102,23.647c3.309,10.653,11.112,17.198,23.163,18.626l-10.446,32.211l-0.306,1.267    c-0.064,0.397-0.141,0.986-0.211,1.742c-0.43,4.613-0.176,9.675,1.327,14.694c5.298,17.692,22.549,23.971,49.901,13.706    c10.465-3.932,20.813-3.612,29.436,1.159c4.137,2.282,7.922,5.428,11.285,9.574c3.432,4.231,9.897,4.206,13.296-0.053    c1.068-1.338,3.906-3.848,8.699-6.518c6.934-3.862,15.578-6.507,26.137-7.316c10.56,0.809,19.204,3.454,26.137,7.316    c4.794,2.67,7.632,5.18,8.699,6.518c3.399,4.258,9.864,4.284,13.296,0.053c3.364-4.147,7.148-7.292,11.277-9.569    c8.632-4.775,18.979-5.095,29.442-1.165c27.354,10.266,44.605,3.987,49.903-13.704c1.503-5.019,1.757-10.081,1.327-14.694    c-0.07-0.756-0.147-1.345-0.211-1.742l-0.306-1.267l-10.446-32.211c12.048-1.427,19.848-7.971,23.168-18.624    C410.662,409.245,409.744,400.607,406.178,393.222z M120.009,317.924c-0.943-3.045-0.633-6.879,0.809-10.317l38.836-47.409    c24.927-30.433,38.119-68.239,36.398-106.172c-1.187-26.084-7.021-47.736-17.454-60.264c-4.535-6.921-6.023-15.063-4.296-22.831    l10.983-49.444c0.444-1.997,2.22-3.421,4.265-3.421c1.428,0,2.763,0.696,3.584,1.867l55.874,79.827    c3.397,4.853,10.584,4.853,13.982,0l55.885-79.829c0.819-1.169,2.154-1.864,3.582-1.864c2.045,0,3.821,1.424,4.266,3.424    l10.982,49.439c1.727,7.769,0.239,15.911-4.124,22.572c-10.596,12.753-16.438,34.422-17.625,60.523    c-1.73,37.922,11.462,75.729,36.388,106.172l38.846,47.411c1.441,3.437,1.75,7.268,0.8,10.319    c-1.944,6.257-7.689,9.214-21.708,5.962c-0.43-0.177-0.87-0.332-1.33-0.438c-2.692-0.621-5.343-1.366-8.102-2.28    c-0.262-0.087-0.516-0.169-0.781-0.26c-3.901-1.326-7.835-2.296-11.759-2.913c-0.116-0.018-0.233-0.044-0.349-0.061    c-0.132-0.02-0.264-0.032-0.395-0.051c-3.9-0.569-7.789-0.788-11.623-0.633c-7.948,0.322-15.665,2.22-22.779,5.789    c-4.19,2.102-8.139,4.693-11.799,7.804c-2.256-1.564-4.951-3.186-8.104-4.778c-10.01-5.055-22.221-8.401-36.721-9.316l-1.076,0    c-14.496,0.915-26.706,4.261-36.717,9.316c-3.153,1.592-5.848,3.214-8.105,4.778c-1.263-1.074-2.573-2.064-3.902-3.014    c-2.523-1.805-5.149-3.413-7.892-4.789c-7.109-3.567-14.82-5.465-22.763-5.789c-4.467-0.183-9.007,0.151-13.552,0.949    c-3.535,0.62-7.074,1.513-10.586,2.707c-0.301,0.103-0.59,0.196-0.886,0.295c-2.711,0.894-5.333,1.629-8.005,2.247    c-0.456,0.106-0.893,0.259-1.319,0.435C127.704,327.142,121.96,324.186,120.009,317.924z M378.407,480.513    c-2.185,7.297-8.743,9.683-27.555,2.623c-14.917-5.604-30.45-5.124-43.695,2.203c-3.574,1.972-6.959,4.378-10.114,7.234    c-1.891-1.386-4.087-2.807-6.6-4.207c-9.229-5.141-20.493-8.545-33.849-9.475h-1.186c-13.357,0.93-24.62,4.334-33.849,9.475    c-2.513,1.4-4.709,2.821-6.6,4.207c-3.157-2.857-6.544-5.264-10.123-7.239c-13.236-7.323-28.769-7.803-43.689-2.198    c-18.809,7.059-25.367,4.672-27.552-2.624c-0.777-2.594-0.927-5.595-0.683-8.215c0.003-0.035,12.287-37.957,12.287-37.957    c0.452-0.094,0.917-0.208,1.375-0.312c0.142-0.032,0.285-0.064,0.428-0.097c0.675-0.156,1.357-0.32,2.046-0.496    c0.284-0.072,0.572-0.149,0.858-0.224c0.597-0.158,1.196-0.317,1.804-0.49c0.433-0.123,0.874-0.256,1.313-0.386    c0.499-0.148,0.994-0.292,1.5-0.45c0.794-0.248,1.599-0.512,2.41-0.784c0.171-0.057,0.336-0.107,0.509-0.165    c10.942-3.727,21.855-3.747,31.224,0.094c0.853,0.35,1.697,0.72,2.523,1.134c0.772,0.386,1.529,0.805,2.278,1.239    c3.781,2.193,7.266,4.994,10.392,8.489c2.771,3.099,7.237,3.663,10.627,1.705c0.152-0.088,0.298-0.192,0.445-0.29    c0.104-0.069,0.212-0.13,0.314-0.204c0.495-0.361,0.959-0.782,1.383-1.264c0.162-0.184,0.365-0.392,0.597-0.615    c1.516-1.454,4.534-3.69,9.214-6.053c7.843-3.96,17.627-6.668,29.562-7.483c11.938,0.815,21.723,3.522,29.565,7.483    c5.402,2.728,8.596,5.29,9.81,6.67c2.958,3.361,7.903,3.799,11.378,1.301c0.497-0.357,0.964-0.774,1.391-1.251    c1.439-1.609,2.954-3.069,4.537-4.394c2.537-2.122,5.25-3.89,8.122-5.326c9.903-4.968,21.814-5.302,33.752-1.236    c0.411,0.14,0.808,0.261,1.214,0.395c0.563,0.185,1.129,0.374,1.684,0.547c0.54,0.169,1.068,0.322,1.599,0.479    c0.41,0.121,0.822,0.246,1.226,0.36c0.623,0.177,1.236,0.341,1.848,0.502c0.271,0.071,0.542,0.144,0.811,0.212    c0.706,0.18,1.403,0.348,2.094,0.507c0.121,0.028,0.242,0.055,0.362,0.082c0.469,0.106,0.946,0.223,1.408,0.319l12.278,37.857    C379.334,474.918,379.184,477.919,378.407,480.513z M391.993,411.796c-1.642,5.27-5.975,8.198-15.683,7.047    c-0.584-0.218-1.189-0.393-1.824-0.479c-4.021-0.548-8.532-1.632-13.614-3.315c-0.272-0.091-0.536-0.176-0.812-0.27    c-16.055-5.469-32.682-5.002-46.903,2.132c-3.975,1.991-7.734,4.45-11.245,7.365c-0.181,0.15-0.369,0.286-0.548,0.438    c-2.257-1.564-4.952-3.186-8.105-4.778c-10.011-5.055-22.221-8.401-36.717-9.316l-1.076,0    c-14.499,0.915-26.711,4.261-36.721,9.316c-3.152,1.592-5.846,3.213-8.102,4.777c-3.009-2.559-6.22-4.745-9.585-6.612    c-0.734-0.407-1.466-0.817-2.214-1.192c-0.89-0.446-1.79-0.867-2.698-1.261c-13.597-5.908-29.154-5.998-44.202-0.869    c-0.106,0.036-0.206,0.068-0.311,0.103c-5.274,1.777-9.954,2.913-14.116,3.48c-0.635,0.086-1.241,0.262-1.826,0.48    c-9.705,1.149-14.039-1.778-15.674-7.042c-1.029-3.305-0.584-7.517,1.173-11.157l29.737-61.578c0.001,0,0.001,0,0.002-0.001    c0.876-0.241,1.764-0.497,2.663-0.769c0.282-0.084,0.564-0.167,0.846-0.254c0.556-0.173,1.122-0.36,1.686-0.545    c0.442-0.144,0.878-0.276,1.323-0.428c3.579-1.22,7.156-2.036,10.679-2.457c0.147-0.018,0.296-0.043,0.443-0.059    c0.46-0.051,0.917-0.082,1.375-0.119c0.271-0.022,0.544-0.054,0.815-0.071c7.273-0.458,14.247,0.835,20.43,3.937    c2.21,1.105,4.32,2.41,6.332,3.913c2.244,1.678,4.361,3.603,6.336,5.81c0.427,0.478,0.895,0.895,1.393,1.253    c3.475,2.498,8.421,2.06,11.378-1.3c1.214-1.38,4.409-3.942,9.81-6.67c7.842-3.96,17.627-6.668,29.565-7.482    c11.935,0.815,21.719,3.522,29.562,7.483c4.05,2.045,6.859,3.997,8.525,5.428c0.553,0.476,0.98,0.894,1.283,1.239    c0.424,0.482,0.889,0.903,1.385,1.265c0.195,0.142,0.397,0.268,0.601,0.392c0.053,0.032,0.102,0.07,0.156,0.101    c3.39,1.96,7.858,1.396,10.63-1.703c3.743-4.185,7.995-7.388,12.659-9.724c9.898-4.966,21.817-5.3,33.756-1.233    c0.395,0.135,0.78,0.25,1.171,0.379c0.624,0.206,1.248,0.411,1.862,0.602c0.264,0.082,0.528,0.158,0.791,0.237    c0.91,0.276,1.809,0.536,2.697,0.78l29.728,61.576C392.571,404.291,393.018,408.503,391.993,411.796z"/>
	</g>
</g>
<g>
</g>
<g>
</g>
<g>
</g>
<g>
</g>
<g>
</g>
<g>
</g>
<g>
</g>
<g>
</g>
<g>
</g>
<g>
</g>
<g>
</g>
<g>
</g>
<g>
</g>
<g>
</g>
<g>
</g>
</svg>
