<?xml version="1.0" encoding="iso-8859-1"?>
<!-- Generator: Adobe Illustrator 19.0.0, SVG Export Plug-In . SVG Version: 6.00 Build 0)  -->
<svg xmlns="http://www.w3.org/2000/svg" xmlns:xlink="http://www.w3.org/1999/xlink" version="1.1" id="Layer_1" x="0px" y="0px" viewBox="0 0 512.015 512.015" style="enable-background:new 0 0 512.015 512.015;" xml:space="preserve">
<g>
	<g>
		<g>
			<path d="M247.474,290.148c0,4.719,3.823,8.533,8.533,8.533c4.71,0,8.533-3.814,8.533-8.533c0-4.719-3.823-8.533-8.533-8.533     C251.297,281.615,247.474,285.429,247.474,290.148z"/>
			<path d="M226.858,402.686c-2.227-1.604-5.094-2.057-7.68-1.161l-22.904,7.629l-22.903-7.629c-2.603-0.896-5.453-0.444-7.68,1.161     c-2.236,1.613-3.55,4.19-3.55,6.929v51.2c0,4.719,3.823,8.533,8.533,8.533h51.2c4.71,0,8.533-3.814,8.533-8.533v-51.2     C230.408,406.876,229.094,404.298,226.858,402.686z M213.341,452.281h-34.133v-30.822l14.37,4.779     c1.758,0.589,3.635,0.589,5.393,0l14.37-4.779V452.281z"/>
			<path d="M292.838,401.525c-2.603-0.896-5.453-0.444-7.68,1.161c-2.236,1.613-3.55,4.19-3.55,6.929v51.2     c0,4.719,3.823,8.533,8.533,8.533h51.2c4.71,0,8.533-3.814,8.533-8.533v-51.2c0-2.739-1.314-5.316-3.55-6.929     c-2.227-1.604-5.086-2.057-7.68-1.161l-22.903,7.629L292.838,401.525z M332.808,421.459v30.822h-34.133v-30.822l14.37,4.779     c1.758,0.589,3.635,0.589,5.393,0L332.808,421.459z"/>
			<path d="M502.717,337.653l-0.383-0.847l-15.464-34.425c-0.161-0.36-0.352-0.697-0.555-1.022L383.984,74.929     c-0.41-19.456-7.245-32.623-20.335-39.168L294.203,1.034c-1.206-0.665-2.566-1.028-3.992-1.014c-0.025,0-0.049-0.005-0.075-0.005     H221.87c-0.022,0-0.043,0.004-0.065,0.004c-1.47-0.013-2.858,0.366-4.081,1.059l-69.359,34.683     c-13.09,6.545-19.925,19.712-20.335,39.168L26.27,300.099c-0.211,0.335-0.409,0.683-0.575,1.055l-15.436,34.374l-0.961,2.126     c-0.353,0.784-0.583,1.607-0.689,2.443c-0.013,0.104-0.015,0.21-0.025,0.315c-0.016,0.173-0.035,0.347-0.04,0.521     c-0.001,0.049,0.003,0.098,0.003,0.147c-0.012,1.065,0.168,2.133,0.555,3.146c0.811,2.125,2.44,3.831,4.523,4.762l39.023,17.237     c1.126,0.495,2.295,0.725,3.447,0.725c1.146,0,2.273-0.233,3.317-0.672c1.71-0.718,3.195-1.994,4.154-3.733l19.063-34.497     l69.824-126.303c7.06,21.266,15.893,43.33,25.062,62.478c-4.241,4.57-6.841,10.683-6.841,17.394v17.067     c0,6.559,2.483,12.548,6.555,17.083l-13.356,21.659c-23.467,36.958-35.866,79.625-35.866,123.392v42.667     c0,4.719,3.823,8.533,8.533,8.533h119.467h119.467c4.71,0,8.533-3.814,8.533-8.533v-42.667     c0-43.767-12.399-86.434-35.866-123.392c-0.008-0.008-0.017-0.026-0.017-0.034l-13.661-21.275     c4.262-4.574,6.877-10.702,6.877-17.432v-17.067c0-6.896-2.747-13.16-7.198-17.768c9.808-19.769,18.332-40.561,25.435-62.07     l69.703,126.081c0.017,0.032,0.03,0.066,0.048,0.098l19.123,34.586c0.509,0.922,1.175,1.7,1.934,2.348     c1.545,1.323,3.507,2.059,5.534,2.059c1.152,0,2.321-0.23,3.447-0.725l39.023-17.237c2.082-0.93,3.712-2.637,4.523-4.762     S503.655,339.735,502.717,337.653z M448.846,327.99l25.815-10.963l8.957,19.82l-24.012,10.607l-6.199-11.213L448.846,327.99z      M284.108,74.314l12.117,12.117l-31.683,47.528V87.152l27.1-60.975l18.816,28.228l-22.391,5.598     c-2.978,0.742-5.333,3.038-6.153,5.999C281.096,68.963,281.932,72.138,284.108,74.314z M315.749,273.082     c1.261,0.001,2.556,0.333,3.834,0.998c0.219,0.113,0.443,0.211,0.669,0.304c2.41,1.509,4.023,4.18,4.023,7.231v17.067     c0,3.235-1.808,6.051-4.463,7.498c-0.159,0.062-0.323,0.109-0.478,0.182c-1.195,0.572-2.406,0.853-3.593,0.853h-59.733h-59.733     c-1.263,0-2.56-0.341-3.866-1.007c-0.158-0.081-0.33-0.133-0.494-0.204c-2.494-1.49-4.174-4.208-4.174-7.323v-17.067     c0-3.076,1.639-5.765,4.082-7.267c0.06-0.029,0.122-0.05,0.182-0.08c0.233-0.117,0.456-0.246,0.674-0.381     c1.095-0.511,2.31-0.805,3.595-0.805h59.735h59.732C315.744,273.081,315.746,273.082,315.749,273.082z M230.1,66.008     c-0.819-2.97-3.174-5.257-6.152-5.999l-22.391-5.606l18.816-28.22l27.102,60.971v9.984l-28.262-14.131l8.695-8.695     C230.083,72.144,230.919,68.961,230.1,66.008z M263.354,47.806l-7.347,16.525l-21-47.25h42.002L263.354,47.806z M60.561,332.709     l-8.157,14.747L28.396,336.85l9.507-21.039l25.917,11.001L60.561,332.709z M155.653,171.586c-3.371-0.41-6.767,1.323-8.439,4.352     L72.121,311.794l-27.187-11.542l99.268-219.674c0.418-0.836,0.691-1.766,0.811-2.748c0-0.017,0.008-0.043,0.008-0.06v-0.026     c0-0.017,0.009-0.034,0.009-0.034v-0.026c0-0.017,0.009-0.034,0.009-0.051c0-0.034,0.009-0.06,0.009-0.094v-0.009     c0.043-0.444,0.051-0.887,0.034-1.314c0.128-17.732,6.281-22.869,10.923-25.182l40.94-20.473l-16.303,24.454     c-1.536,2.304-1.86,5.222-0.862,7.808c1.007,2.586,3.2,4.531,5.888,5.197l19.516,4.881l-6.409,6.409     c-1.946,1.946-2.833,4.693-2.389,7.407c0.435,2.705,2.15,5.035,4.608,6.263l46.482,23.241v45.924     c0,0.014,0.002,0.028,0.002,0.042v93.826h-51.202c-1.233,0-2.445,0.093-3.632,0.262c-11.487-24.058-22.429-52.885-29.753-78.556     C161.942,174.402,159.084,171.978,155.653,171.586z M145.074,460.815c0-40.525,11.486-80.026,33.263-114.338l13.887-22.519     c0.634,0.101,1.276,0.175,1.924,0.228c0.076,0.007,0.153,0.012,0.229,0.017c0.627,0.046,1.258,0.078,1.897,0.078h51.2v170.667     h-102.4V460.815z M366.941,460.815v34.133h-102.4V324.281h51.2c0.553,0,1.1-0.024,1.645-0.059c0.1-0.007,0.2-0.015,0.299-0.023     c0.516-0.039,1.027-0.092,1.534-0.161c0.015-0.002,0.031-0.003,0.046-0.005l14.481,22.562     C355.464,380.806,366.941,420.298,366.941,460.815z M356.362,171.586c-3.43,0.393-6.289,2.816-7.236,6.135     c-7.791,27.298-17.92,53.615-30.234,78.49c-0.045-0.005-0.09-0.007-0.135-0.013c-0.403-0.048-0.808-0.085-1.216-0.113     c-0.1-0.007-0.199-0.017-0.299-0.023c-0.494-0.029-0.991-0.047-1.492-0.047c-0.002,0-0.005,0-0.007,0h-0.002h-51.198V164.73     l49.765-74.647c2.261-3.388,1.809-7.893-1.067-10.769l-6.409-6.409l19.516-4.881c2.688-0.666,4.881-2.611,5.888-5.205     c0.998-2.577,0.674-5.495-0.862-7.808l-16.299-24.448l40.945,20.472c4.676,2.33,10.889,7.535,10.923,25.643     c-0.009,0.375,0.009,0.768,0.06,1.152c0,0.017,0.009,0.043,0.009,0.06s0,0.034,0.008,0.051v0.009v0.026     c0.145,1.152,0.503,2.219,1.041,3.166l99.569,220.328l-27.086,11.501l-75.743-137.033     C363.128,172.917,359.818,171.168,356.362,171.586z"/>
		</g>
	</g>
</g>
<g>
</g>
<g>
</g>
<g>
</g>
<g>
</g>
<g>
</g>
<g>
</g>
<g>
</g>
<g>
</g>
<g>
</g>
<g>
</g>
<g>
</g>
<g>
</g>
<g>
</g>
<g>
</g>
<g>
</g>
</svg>
