<?xml version="1.0" encoding="iso-8859-1"?>
<!-- Generator: Adobe Illustrator 19.0.0, SVG Export Plug-In . SVG Version: 6.00 Build 0)  -->
<svg xmlns="http://www.w3.org/2000/svg" xmlns:xlink="http://www.w3.org/1999/xlink" version="1.1" id="Layer_1" x="0px" y="0px" viewBox="0 0 511.763 511.763" style="enable-background:new 0 0 511.763 511.763;" xml:space="preserve">
<g>
	<g>
		<path d="M494.64,459.083c-5.147-25.058-30.646-159.118-33.592-174.268c-2.974-15.292-5.772-29.485-8.462-42.899    c-21.287-106.143-34.984-161.126-45.778-171.32c-7.13-6.732-26.448-15.37-50.038-23.343c-2.028-6.532-5.713-12.762-11.238-18.098    c-11.633-11.368-17.891-16.429-26.715-20c-0.02-0.008-0.041-0.013-0.062-0.021c-0.027-0.011-0.053-0.025-0.081-0.035    C304.87,3.8,280.242,0,255.883,0c-24.359,0-48.986,3.8-62.792,9.1c-0.028,0.011-0.053,0.024-0.081,0.035    c-0.02,0.008-0.041,0.013-0.062,0.021c-8.824,3.57-15.082,8.632-26.493,19.777c-0.2,0.199-0.2,0.199-0.328,0.327    c-5.491,5.303-9.156,11.502-11.173,18.006c-23.573,7.97-42.874,16.602-49.999,23.329c-10.795,10.195-24.492,65.178-45.78,171.321    c-2.69,13.414-5.488,27.608-8.462,42.899c-2.946,15.15-28.445,149.209-33.592,174.268c-0.989,4.816,2.285,9.469,7.152,10.164    l59.733,8.533c4.545,0.649,8.789-2.414,9.604-6.932c0.081-0.451,0.081-0.451,0.469-2.597c0.532-2.938,0.532-2.938,1.331-7.345    c1.435-7.911,3.039-16.727,4.773-26.221c4.954-27.124,9.957-54.248,14.692-79.562c0.617-3.296,0.617-3.296,1.234-6.589    c11.359-60.553,19.283-100.348,21.469-106.902c1.886-5.664,5.249-14.463,9.683-25.472c0.562-1.393,0.562-1.393,1.125-2.783    c1.164-2.871,2.363-5.802,3.583-8.761c5.387,21.233,9.01,45.256,9.796,67.817l-9.166,50.179c-1.026,4.828-1.882,8.863-2.627,12.38    c-2.109,9.951-3.296,15.655-4.859,23.332c-3.312,16.269-6.074,30.771-8.438,44.58c-5.69,33.233-8.772,60.779-8.794,83.016    c-0.113,2.92,1.214,5.9,4.288,7.636c0.101,0.058,0.203,0.116,0.306,0.17c0.042,0.022,0.08,0.047,0.122,0.068    c16.656,8.328,37.552,13.277,62.7,15.792c17.894,1.789,32.573,2.176,60.582,2.176s42.688-0.386,60.582-2.176    c25.148-2.515,46.045-7.464,62.701-15.792c0.05-0.025,0.095-0.054,0.145-0.08c0.083-0.044,0.164-0.09,0.245-0.136    c3.137-1.752,4.471-4.793,4.323-7.757c-0.024-16.973-1.848-37.132-5.25-60.549c-0.003-0.024-0.003-0.048-0.006-0.072    c-0.06-0.414-0.125-0.838-0.186-1.255c-0.128-0.871-0.257-1.744-0.39-2.624c-0.162-1.078-0.329-2.165-0.497-3.256    c-0.104-0.671-0.206-1.339-0.312-2.015c-0.234-1.494-0.476-3.003-0.722-4.521c-0.051-0.314-0.099-0.623-0.151-0.938    c-0.317-1.947-0.642-3.908-0.978-5.895c-2.349-13.88-5.106-28.465-8.396-44.697c-2.202-10.862-3.699-17.98-7.782-37.168    c-0.016-0.075-0.031-0.145-0.047-0.22l-9.166-50.178c0.785-22.562,4.409-46.585,9.796-67.819c1.222,2.964,2.424,5.9,3.591,8.776    c0.561,1.384,0.561,1.384,1.12,2.77c4.436,11.01,7.801,19.81,9.689,25.471c2.182,6.554,10.106,46.356,21.466,106.924    c0.615,3.282,0.615,3.282,1.23,6.568c4.734,25.313,9.736,52.437,14.691,79.562c1.734,9.494,3.338,18.31,4.773,26.221    c0.799,4.407,0.799,4.407,1.331,7.345c0.388,2.146,0.388,2.146,0.469,2.597c0.815,4.518,5.059,7.581,9.604,6.932l59.733-8.533    C492.355,468.552,495.629,463.899,494.64,459.083z M281.121,200.008c-0.614,0.494-1.222,0.977-1.823,1.445    c-0.282,0.22-0.563,0.437-0.842,0.651c-0.582,0.446-1.156,0.877-1.725,1.297c-0.248,0.183-0.498,0.371-0.743,0.549    c-0.778,0.565-1.546,1.111-2.298,1.627c-0.019,0.013-0.038,0.027-0.057,0.04c-0.764,0.524-1.511,1.014-2.246,1.486    c-0.24,0.154-0.474,0.297-0.711,0.445c-0.5,0.313-0.994,0.616-1.48,0.904c-0.258,0.153-0.513,0.302-0.766,0.448    c-0.474,0.273-0.94,0.53-1.399,0.778c-0.225,0.121-0.452,0.247-0.673,0.363c-0.624,0.325-1.236,0.63-1.831,0.907    c-0.036,0.017-0.074,0.037-0.11,0.054v-27.387c0.144-0.115,0.286-0.241,0.429-0.359c0.432-0.355,0.863-0.722,1.291-1.102    c0.275-0.243,0.549-0.491,0.822-0.743c0.263-0.245,0.525-0.498,0.787-0.752c13.587-13.111,25.233-38.471,35.551-72.694    l20.457,15.07c9.91,7.059,11.762,20.942,4.081,29.674c-0.445,0.494-2.934,3.265-5.564,6.188c-2.257,2.508-4.671,5.186-5.934,6.574    c-4.856,5.339-9.179,9.961-13.46,14.353c-6.552,6.72-12.653,12.522-18.398,17.41c-0.888,0.756-1.762,1.48-2.626,2.184    C281.608,199.619,281.365,199.811,281.121,200.008z M245.413,210.042c-0.229-0.119-0.465-0.25-0.698-0.376    c-0.447-0.241-0.9-0.492-1.361-0.757c-0.268-0.154-0.539-0.312-0.812-0.475c-0.457-0.272-0.923-0.557-1.393-0.851    c-0.267-0.167-0.531-0.329-0.802-0.503c-0.627-0.403-1.266-0.826-1.913-1.266c-0.204-0.139-0.409-0.279-0.616-0.422    c-0.654-0.451-1.316-0.92-1.99-1.409c-0.307-0.223-0.62-0.458-0.93-0.688c-0.495-0.367-0.994-0.741-1.5-1.127    c-0.342-0.262-0.686-0.528-1.033-0.798c-0.506-0.395-1.019-0.803-1.534-1.216c-0.336-0.27-0.67-0.536-1.01-0.813    c-0.675-0.551-1.359-1.122-2.048-1.704c-0.167-0.141-0.33-0.274-0.499-0.417c-5.741-4.885-11.838-10.683-18.385-17.397    c-1.199-1.229-2.402-2.48-3.618-3.756c-3.127-3.283-6.346-6.752-9.842-10.596c-2.686-2.953-10.588-11.751-11.057-12.27    c-0.01-0.011-0.015-0.017-0.024-0.026c-5.774-6.579-6.479-15.518-2.856-22.635c0.065-0.127,0.131-0.253,0.199-0.379    c0.215-0.4,0.445-0.794,0.687-1.181c0.197-0.312,0.399-0.622,0.614-0.925c0.152-0.216,0.308-0.43,0.469-0.641    c0.309-0.403,0.632-0.799,0.974-1.182c0.108-0.121,0.217-0.241,0.328-0.36c0.4-0.428,0.819-0.842,1.26-1.24    c0.088-0.079,0.176-0.158,0.265-0.235c0.474-0.413,0.97-0.808,1.489-1.184c0.044-0.032,0.085-0.066,0.129-0.097l20.563-15.152    c10.318,34.224,21.965,59.584,35.551,72.695c0.262,0.254,0.524,0.508,0.787,0.752c0.273,0.253,0.547,0.5,0.822,0.743    c0.428,0.38,0.859,0.746,1.291,1.102c0.143,0.118,0.286,0.244,0.429,0.359v27.387c-0.03-0.014-0.062-0.031-0.092-0.045    C246.658,210.678,246.041,210.37,245.413,210.042z M295.289,72.294c-0.136,0.548-0.273,1.096-0.411,1.643    c-0.302,1.205-0.604,2.408-0.909,3.598c-0.493,1.919-0.99,3.83-1.496,5.729c-0.059,0.222-0.118,0.444-0.177,0.666    c-1.202,4.494-2.44,8.931-3.714,13.286c-10.281,35.133-21.701,60.565-32.699,71.197c-10.998-10.632-22.418-36.063-32.699-71.197    c-1.275-4.356-2.512-8.792-3.715-13.287c-0.059-0.222-0.118-0.443-0.177-0.665c-0.506-1.899-1.003-3.811-1.496-5.729    c-0.304-1.186-0.605-2.385-0.906-3.587c-0.139-0.554-0.278-1.107-0.415-1.662c-0.33-1.332-0.66-2.669-0.986-4.019h80.79    C295.95,69.619,295.62,70.959,295.289,72.294z M340.811,54.009c0.013,0.421,0.052,0.847,0.129,1.28    c0.608,3.377,0.604,6.671,0.058,9.768c-0.041,0.203-0.071,0.409-0.117,0.611c-0.001,0.003-0.001,0.006-0.002,0.008    c-2.278,9.993-10.485,18.479-22.893,19.541c-0.11,0.009-0.22,0.019-0.331,0.027c-0.685,0.051-1.381,0.084-2.091,0.089    c-0.003,0-0.005,0-0.008,0c-0.139,0.001-0.269,0.002-0.406,0.003c-1.924,0.013-3.639,0.017-5.541,0.016    c0.847-3.267,1.683-6.605,2.512-9.992c0.01-0.042,0.021-0.085,0.031-0.127c0.663-2.71,1.321-5.45,1.973-8.234    c0.354-1.504,0.701-3.009,1.046-4.518c0.013-0.055,0.025-0.108,0.038-0.163c0.094-0.297,0.179-0.6,0.241-0.912l0.281-1.406    c1.157-5.124,2.284-10.264,3.348-15.41c1.016-4.914,1.938-9.576,2.761-13.928c3.18,2.511,6.819,5.866,11.544,10.48    C337.297,44.922,339.709,49.391,340.811,54.009z M255.883,17.067c18.62,0,37.371,2.408,49.873,5.791L300.087,51.2h-88.409    l-5.668-28.342C218.512,19.474,237.263,17.067,255.883,17.067z M178.453,41.072c4.685-4.575,8.304-7.91,11.472-10.411    c0.824,4.353,1.745,9.016,2.762,13.93c1.065,5.146,2.191,10.286,3.348,15.41l0.281,1.406c0.062,0.312,0.147,0.614,0.241,0.912    c0.013,0.055,0.025,0.108,0.038,0.163c0.346,1.509,0.693,3.015,1.047,4.52c0.651,2.78,1.309,5.517,1.971,8.223    c0.012,0.048,0.023,0.096,0.035,0.143c0.828,3.384,1.664,6.719,2.51,9.984c-2.043,0.001-3.855-0.004-5.947-0.018    c-0.715-0.005-1.416-0.038-2.106-0.09c-0.104-0.007-0.208-0.017-0.312-0.026c-11.661-0.994-19.615-8.543-22.466-17.702    c-1.062-3.785-1.275-7.939-0.504-12.228c0.1-0.556,0.127-1.099,0.121-1.634c1.113-4.405,3.44-8.642,7.147-12.222    C178.325,41.2,178.325,41.2,178.453,41.072z M132.572,206.965c-0.57,1.408-0.57,1.408-1.139,2.819    c-4.557,11.315-8.018,20.371-10.043,26.453c-2.581,7.738-10.304,46.521-22.052,109.152c-0.618,3.297-0.618,3.297-1.236,6.598    c-4.74,25.34-9.746,52.487-14.705,79.633c-1.735,9.501-3.341,18.323-4.777,26.241c-0.133,0.731-0.243,1.34-0.338,1.862    l-42.66-6.094c7.66-38.735,29.175-151.824,31.845-165.555c2.968-15.261,5.76-29.422,8.443-42.801    c19.284-96.157,34.213-156.082,40.763-162.268c4.184-3.95,18.783-10.67,36.843-17.157c0.344,2.424,0.889,4.812,1.633,7.14    c4.402,14.505,16.381,25.883,33.027,28.727l-10.29,7.581c-12.645,9.004-18.023,24.491-14.921,38.599    c1.268,5.773,3.948,11.316,8.145,16.088c1.012,1.125,8.955,9.968,11.69,12.975c3.724,4.093,7.153,7.788,10.502,11.295    c1.128,1.181,2.247,2.341,3.365,3.488c6.895,7.072,13.366,13.226,19.559,18.495c11.238,9.561,21.217,15.981,30.299,18.695    c0.148,0.044,0.299,0.1,0.447,0.142c0.126,0.036,0.25,0.061,0.376,0.096v154.595h-0.002c0,1.502-0.037,2.988-0.1,4.462    c-0.008,0.199-0.013,0.399-0.022,0.597c-0.028,0.575-0.066,1.145-0.104,1.716c-0.018,0.268-0.031,0.538-0.051,0.805    c-0.04,0.538-0.089,1.071-0.137,1.605c-0.027,0.296-0.05,0.594-0.079,0.888c-0.051,0.516-0.111,1.028-0.17,1.541    c-0.035,0.307-0.068,0.616-0.107,0.922c-0.063,0.501-0.133,0.998-0.203,1.496c-0.044,0.313-0.087,0.627-0.134,0.939    c-0.074,0.487-0.154,0.971-0.235,1.455c-0.053,0.318-0.105,0.637-0.162,0.953c-0.085,0.476-0.176,0.949-0.268,1.422    c-0.062,0.317-0.123,0.635-0.188,0.951c-0.096,0.47-0.198,0.936-0.302,1.402c-0.07,0.315-0.14,0.629-0.213,0.942    c-0.108,0.463-0.22,0.923-0.335,1.382c-0.077,0.31-0.156,0.619-0.236,0.928c-0.12,0.457-0.243,0.912-0.369,1.366    c-0.085,0.306-0.172,0.612-0.261,0.917c-0.131,0.451-0.265,0.9-0.403,1.348c-0.092,0.3-0.187,0.599-0.282,0.898    c-0.143,0.447-0.288,0.893-0.438,1.337c-0.099,0.293-0.201,0.585-0.303,0.877c-0.155,0.444-0.312,0.887-0.474,1.327    c-0.105,0.285-0.213,0.568-0.32,0.851c-0.168,0.442-0.338,0.884-0.513,1.322c-0.109,0.273-0.222,0.544-0.334,0.816    c-0.183,0.444-0.366,0.887-0.556,1.326c-0.112,0.259-0.227,0.515-0.342,0.773c-0.198,0.446-0.396,0.891-0.601,1.333    c-0.113,0.244-0.231,0.485-0.346,0.728c-0.214,0.45-0.429,0.901-0.651,1.346c-0.11,0.221-0.225,0.439-0.337,0.659    c-0.236,0.463-0.472,0.926-0.716,1.384c-0.097,0.182-0.199,0.362-0.297,0.543c-0.266,0.49-0.533,0.98-0.808,1.464    c-0.063,0.111-0.13,0.22-0.193,0.331c-1.738,3.021-3.66,5.922-5.757,8.697c-0.087,0.115-0.171,0.231-0.258,0.346    c-0.337,0.441-0.682,0.877-1.028,1.311c-0.128,0.161-0.253,0.323-0.382,0.483c-0.33,0.409-0.668,0.812-1.006,1.215    c-0.152,0.181-0.301,0.363-0.454,0.543c-0.329,0.386-0.665,0.767-1.002,1.147c-0.169,0.191-0.336,0.384-0.507,0.573    c-0.332,0.369-0.67,0.733-1.009,1.096c-0.182,0.196-0.364,0.392-0.548,0.587c-0.337,0.355-0.679,0.705-1.023,1.055    c-0.194,0.197-0.386,0.394-0.582,0.59c-0.343,0.343-0.691,0.682-1.041,1.019c-0.203,0.196-0.406,0.393-0.611,0.587    c-0.35,0.332-0.704,0.66-1.061,0.987c-0.211,0.194-0.423,0.387-0.636,0.579c-0.359,0.323-0.721,0.642-1.086,0.96    c-0.218,0.19-0.437,0.379-0.657,0.567c-0.367,0.314-0.737,0.625-1.111,0.933c-0.225,0.186-0.45,0.37-0.677,0.554    c-0.378,0.306-0.758,0.61-1.141,0.911c-0.227,0.178-0.456,0.355-0.685,0.532c-0.39,0.3-0.783,0.599-1.179,0.894    c-0.23,0.171-0.461,0.34-0.693,0.509c-0.402,0.294-0.805,0.586-1.213,0.874c-0.232,0.164-0.467,0.326-0.701,0.489    c-0.415,0.288-0.831,0.575-1.253,0.857c-0.23,0.154-0.463,0.306-0.694,0.458c-0.431,0.284-0.864,0.567-1.301,0.845    c-0.226,0.144-0.456,0.285-0.683,0.427c-0.45,0.281-0.901,0.562-1.357,0.836c-0.215,0.129-0.433,0.255-0.649,0.383    c-0.476,0.282-0.953,0.564-1.436,0.839c-0.189,0.108-0.382,0.213-0.572,0.32c-0.516,0.29-1.032,0.579-1.555,0.861    c-0.134,0.072-0.271,0.142-0.405,0.214c-3.328,1.776-6.803,3.4-10.418,4.865c-0.082,0.033-0.162,0.068-0.245,0.101    c-0.598,0.241-1.203,0.474-1.809,0.706c-0.187,0.071-0.371,0.145-0.558,0.216c-0.562,0.212-1.13,0.417-1.698,0.621    c-0.236,0.085-0.469,0.172-0.706,0.255c-0.545,0.192-1.095,0.377-1.645,0.563c-0.266,0.089-0.53,0.181-0.797,0.268    c-0.537,0.176-1.078,0.347-1.62,0.516c-0.286,0.09-0.571,0.181-0.858,0.268c-0.533,0.163-1.07,0.32-1.608,0.476    c-0.303,0.088-0.606,0.177-0.911,0.263c-0.53,0.15-1.063,0.295-1.598,0.438c-0.318,0.086-0.636,0.172-0.956,0.255    c-0.531,0.138-1.066,0.273-1.602,0.405c-0.327,0.081-0.654,0.161-0.983,0.24c-0.536,0.128-1.076,0.253-1.616,0.375    c-0.334,0.075-0.668,0.15-1.003,0.223c-0.541,0.118-1.084,0.233-1.63,0.345c-0.342,0.07-0.684,0.139-1.028,0.207    c-0.546,0.108-1.095,0.213-1.645,0.315c-0.345,0.064-0.691,0.126-1.038,0.187c-0.554,0.098-1.11,0.194-1.669,0.286    c-0.349,0.058-0.7,0.113-1.051,0.168c-0.562,0.088-1.125,0.175-1.691,0.257c-0.35,0.051-0.702,0.099-1.053,0.147    c-0.574,0.079-1.148,0.157-1.726,0.23c-0.346,0.044-0.695,0.084-1.043,0.126c-0.587,0.07-1.175,0.139-1.767,0.203    c-0.343,0.037-0.688,0.07-1.032,0.104c-0.602,0.06-1.205,0.121-1.812,0.174c-0.329,0.029-0.66,0.054-0.991,0.081    c-0.628,0.052-1.255,0.103-1.887,0.148c-0.306,0.022-0.615,0.039-0.922,0.059c-0.659,0.043-1.318,0.085-1.982,0.12    c-0.033,0.002-0.067,0.003-0.1,0.005c0.434-12.435,1.757-26.583,3.894-42.443h7.164c31.465,0,56.977-25.512,56.977-56.977v-53.956    c0-4.713-3.82-8.533-8.533-8.533h-33.36l7.473-40.894l0.135-1.802c-1.039-32.969-7.826-68.822-17.484-96.193    c-0.008-0.022-0.012-0.045-0.02-0.067c-1.206-3.417-2.496-6.745-3.859-9.981c-5.226-12.407-10.502-21.44-14.164-26.496    c-2.764-3.817-8.099-4.671-11.916-1.907c-3.817,2.764-4.671,8.099-1.907,11.916c0.667,0.921,1.96,2.889,3.672,5.82    c2.916,4.992,5.846,10.784,8.587,17.291c0.821,1.949,1.601,3.949,2.36,5.971c-0.824,1.941-1.726,4.078-2.696,6.386    C138.41,192.722,135.392,200.01,132.572,206.965z M167.938,332.561h28.137v45.423c0,22.039-17.871,39.91-39.91,39.91h-4.651    c0.623-3.953,1.289-7.995,1.997-12.131c2.334-13.641,5.069-28.004,8.354-44.138C163.69,352.656,165.032,346.242,167.938,332.561z     M324.999,491.402c-3.313,0.452-6.724,0.852-10.232,1.203c-17.154,1.715-31.427,2.091-58.884,2.091s-41.731-0.376-58.884-2.091    c-7.015-0.701-13.644-1.601-19.878-2.714c1.319-0.329,2.624-0.679,3.92-1.041c0.227-0.063,0.451-0.131,0.677-0.196    c1.18-0.336,2.351-0.685,3.512-1.048c0.335-0.105,0.67-0.21,1.003-0.317c1.212-0.388,2.415-0.79,3.605-1.208    c0.151-0.053,0.304-0.103,0.455-0.156c1.362-0.483,2.708-0.987,4.041-1.508c0.225-0.088,0.446-0.18,0.67-0.269    c1.094-0.435,2.177-0.883,3.251-1.343c0.309-0.133,0.618-0.265,0.925-0.4c1.156-0.506,2.301-1.025,3.433-1.561    c0.111-0.053,0.224-0.103,0.335-0.155c1.266-0.604,2.514-1.228,3.748-1.869c0.219-0.113,0.433-0.231,0.651-0.345    c1.004-0.529,1.997-1.07,2.979-1.622c0.281-0.158,0.563-0.317,0.843-0.477c1.091-0.626,2.169-1.263,3.232-1.918    c0.075-0.046,0.151-0.09,0.225-0.136c1.161-0.72,2.303-1.459,3.43-2.214c0.21-0.14,0.415-0.284,0.624-0.426    c0.908-0.617,1.804-1.245,2.689-1.884c0.255-0.184,0.509-0.368,0.762-0.554c1.016-0.747,2.019-1.506,3.003-2.283    c0.04-0.031,0.081-0.062,0.12-0.093c1.048-0.83,2.075-1.68,3.087-2.543c0.198-0.169,0.392-0.341,0.588-0.512    c0.808-0.7,1.603-1.41,2.387-2.131c0.225-0.207,0.451-0.414,0.674-0.623c0.934-0.875,1.856-1.761,2.754-2.666    c0.006-0.006,0.011-0.011,0.017-0.016c0.928-0.935,1.832-1.89,2.721-2.857c0.182-0.198,0.36-0.4,0.54-0.599    c0.704-0.779,1.396-1.567,2.075-2.366c0.194-0.229,0.39-0.457,0.582-0.687c1.657-1.984,3.236-4.028,4.733-6.131    c0.162-0.227,0.319-0.457,0.479-0.686c0.596-0.853,1.179-1.715,1.749-2.587c0.163-0.249,0.327-0.497,0.488-0.748    c1.394-2.174,2.705-4.405,3.931-6.692c0.137-0.256,0.27-0.515,0.406-0.773c0.484-0.922,0.954-1.854,1.41-2.794    c0.131-0.269,0.263-0.537,0.391-0.807c0.558-1.177,1.103-2.363,1.617-3.567c0.021,0.049,0.044,0.095,0.065,0.144    c0.48,1.118,0.984,2.222,1.501,3.317c0.172,0.363,0.349,0.723,0.525,1.084c0.402,0.824,0.814,1.64,1.237,2.45    c0.182,0.349,0.362,0.699,0.548,1.045c0.592,1.102,1.198,2.196,1.83,3.272c0.049,0.084,0.103,0.166,0.152,0.25    c0.594,1.005,1.207,1.995,1.835,2.977c0.211,0.331,0.428,0.658,0.643,0.986c0.505,0.77,1.021,1.532,1.547,2.288    c0.215,0.309,0.427,0.619,0.646,0.925c0.725,1.017,1.465,2.024,2.228,3.013c0.077,0.1,0.158,0.196,0.235,0.295    c0.698,0.898,1.414,1.783,2.143,2.658c0.248,0.297,0.499,0.591,0.751,0.886c0.607,0.712,1.225,1.417,1.853,2.113    c0.242,0.268,0.48,0.538,0.725,0.804c0.853,0.926,1.719,1.841,2.608,2.738c0.104,0.105,0.213,0.207,0.318,0.312    c0.796,0.797,1.607,1.58,2.431,2.353c0.28,0.263,0.564,0.523,0.848,0.783c0.709,0.651,1.429,1.293,2.157,1.926    c0.26,0.226,0.517,0.454,0.779,0.678c0.975,0.831,1.964,1.649,2.973,2.449c0.133,0.105,0.271,0.207,0.404,0.312    c0.886,0.696,1.785,1.378,2.697,2.05c0.309,0.228,0.621,0.453,0.933,0.678c0.81,0.584,1.629,1.158,2.458,1.722    c0.273,0.186,0.543,0.375,0.819,0.559c1.091,0.73,2.195,1.445,3.319,2.142c0.159,0.099,0.322,0.193,0.482,0.291    c0.973,0.597,1.958,1.181,2.954,1.753c0.333,0.191,0.668,0.38,1.003,0.568c0.91,0.511,1.83,1.012,2.759,1.503    c0.28,0.148,0.556,0.299,0.837,0.445c1.201,0.623,2.415,1.23,3.646,1.818c0.184,0.088,0.372,0.171,0.556,0.258    c1.053,0.497,2.117,0.98,3.192,1.451c0.355,0.155,0.711,0.309,1.068,0.461c1.009,0.432,2.026,0.852,3.053,1.261    c0.28,0.112,0.557,0.227,0.839,0.337c1.304,0.509,2.621,1.002,3.953,1.475c0.21,0.074,0.423,0.144,0.633,0.218    c1.127,0.394,2.265,0.775,3.412,1.143c0.372,0.119,0.745,0.237,1.119,0.353c1.107,0.345,2.223,0.678,3.348,0.999    c0.273,0.078,0.544,0.16,0.818,0.236c1.285,0.358,2.578,0.705,3.885,1.031C331.528,490.448,328.313,490.951,324.999,491.402z     M343.829,332.561c0.481,2.263,0.916,4.316,1.323,6.236c2.27,10.726,3.487,16.59,5.127,24.679    c3.253,16.05,5.972,30.441,8.284,44.1c0.594,3.507,1.156,6.945,1.688,10.318h-4.649c-22.039,0-39.91-17.871-39.91-39.91v-45.423    H343.829z M433.481,459.723c-0.095-0.522-0.205-1.132-0.338-1.862c-1.436-7.918-3.042-16.74-4.777-26.241    c-4.958-27.146-9.964-54.293-14.704-79.633c-0.616-3.289-0.616-3.289-1.232-6.576c-11.748-62.64-19.471-101.433-22.049-109.173    c-2.029-6.084-5.492-15.14-10.05-26.454c-0.567-1.405-0.567-1.405-1.134-2.806c-2.821-6.957-5.841-14.248-8.861-21.434    c-0.97-2.308-1.873-4.445-2.696-6.387c0.76-2.024,1.54-4.025,2.362-5.975c2.741-6.507,5.671-12.299,8.587-17.291    c1.712-2.931,3.004-4.899,3.672-5.82c2.764-3.817,1.911-9.152-1.907-11.916c-3.817-2.764-9.152-1.911-11.916,1.907    c-3.661,5.056-8.938,14.089-14.164,26.496c-1.362,3.233-2.651,6.559-3.856,9.973c-0.001,0.003-0.002,0.005-0.003,0.007    c-9.67,27.38-16.467,63.265-17.507,96.261l0.135,1.802l7.47,40.894h-33.354c-4.713,0-8.533,3.82-8.533,8.533v53.956    c0,31.465,25.512,56.977,56.977,56.977h7.151c2.137,15.868,3.466,30.028,3.902,42.443c-0.038-0.002-0.076-0.003-0.114-0.005    c-0.628-0.033-1.251-0.073-1.875-0.113c-0.345-0.022-0.692-0.041-1.035-0.066c-0.594-0.042-1.184-0.091-1.774-0.139    c-0.37-0.03-0.742-0.058-1.11-0.091c-0.57-0.051-1.136-0.107-1.703-0.164c-0.381-0.038-0.764-0.075-1.143-0.116    c-0.555-0.06-1.107-0.125-1.658-0.19c-0.387-0.046-0.775-0.091-1.161-0.14c-0.538-0.068-1.073-0.141-1.607-0.214    c-0.394-0.054-0.787-0.108-1.179-0.165c-0.526-0.077-1.05-0.157-1.572-0.239c-0.393-0.062-0.785-0.124-1.176-0.188    c-0.517-0.085-1.032-0.174-1.545-0.265c-0.392-0.069-0.783-0.139-1.172-0.211c-0.507-0.094-1.012-0.191-1.515-0.29    c-0.39-0.077-0.779-0.155-1.167-0.235c-0.498-0.102-0.994-0.207-1.488-0.314c-0.389-0.085-0.776-0.171-1.163-0.259    c-0.487-0.11-0.973-0.222-1.457-0.338c-0.388-0.092-0.773-0.187-1.158-0.283c-0.478-0.119-0.955-0.238-1.429-0.361    c-0.383-0.1-0.764-0.202-1.145-0.305c-0.471-0.127-0.942-0.255-1.41-0.387c-0.377-0.106-0.75-0.216-1.125-0.325    c-0.466-0.136-0.932-0.272-1.394-0.413c-0.372-0.113-0.74-0.23-1.109-0.347c-0.458-0.144-0.916-0.288-1.37-0.437    c-0.366-0.12-0.729-0.245-1.093-0.368c-0.452-0.153-0.904-0.305-1.352-0.462c-0.359-0.126-0.714-0.258-1.07-0.387    c-0.446-0.162-0.893-0.322-1.336-0.488c-0.349-0.131-0.693-0.268-1.04-0.402c-0.444-0.172-0.89-0.342-1.33-0.519    c-0.33-0.133-0.656-0.271-0.984-0.406c-0.449-0.185-0.901-0.368-1.346-0.559c-0.292-0.125-0.58-0.256-0.87-0.383    c-0.973-0.426-1.935-0.863-2.886-1.313c-0.24-0.114-0.484-0.224-0.724-0.339c-0.401-0.193-0.795-0.393-1.192-0.591    c-0.341-0.169-0.684-0.335-1.022-0.508c-0.381-0.194-0.755-0.395-1.132-0.593c-0.347-0.183-0.697-0.363-1.041-0.549    c-0.366-0.198-0.726-0.401-1.088-0.602c-0.349-0.194-0.7-0.386-1.045-0.584c-0.352-0.201-0.698-0.407-1.047-0.612    c-0.349-0.205-0.699-0.408-1.044-0.617c-0.342-0.206-0.679-0.418-1.018-0.628c-0.343-0.213-0.688-0.425-1.028-0.642    c-0.334-0.213-0.665-0.43-0.995-0.647c-0.337-0.221-0.674-0.441-1.008-0.665c-0.325-0.219-0.647-0.441-0.968-0.663    c-0.332-0.229-0.664-0.459-0.992-0.691c-0.316-0.224-0.628-0.451-0.941-0.678c-0.327-0.238-0.652-0.476-0.975-0.717    c-0.307-0.229-0.611-0.461-0.915-0.694c-0.321-0.246-0.64-0.493-0.957-0.742c-0.297-0.234-0.592-0.47-0.886-0.707    c-0.316-0.255-0.631-0.512-0.943-0.771c-0.287-0.238-0.573-0.478-0.857-0.72c-0.31-0.264-0.618-0.53-0.924-0.797    c-0.278-0.243-0.555-0.487-0.829-0.733c-0.305-0.274-0.608-0.55-0.909-0.827c-0.268-0.247-0.535-0.494-0.799-0.743    c-0.299-0.283-0.595-0.568-0.89-0.855c-0.258-0.25-0.516-0.501-0.77-0.754c-0.295-0.293-0.585-0.59-0.875-0.887    c-0.247-0.253-0.494-0.505-0.737-0.76c-0.292-0.306-0.578-0.616-0.865-0.926c-0.233-0.252-0.468-0.503-0.698-0.758    c-0.291-0.322-0.577-0.649-0.863-0.975c-0.217-0.248-0.436-0.495-0.651-0.745c-0.293-0.343-0.581-0.691-0.868-1.038    c-0.199-0.241-0.401-0.48-0.598-0.722c-0.3-0.37-0.592-0.745-0.885-1.12c-0.177-0.226-0.357-0.449-0.531-0.677    c-0.32-0.417-0.631-0.84-0.943-1.264c-0.14-0.19-0.284-0.378-0.423-0.569c-0.391-0.541-0.774-1.087-1.152-1.637    c-0.054-0.078-0.109-0.154-0.163-0.232c-0.867-1.27-1.699-2.565-2.496-3.883c-0.097-0.16-0.189-0.323-0.285-0.484    c-0.296-0.497-0.59-0.994-0.875-1.497c-0.12-0.212-0.235-0.427-0.353-0.64c-0.254-0.457-0.508-0.914-0.754-1.377    c-0.127-0.239-0.248-0.481-0.373-0.721c-0.23-0.442-0.459-0.885-0.681-1.332c-0.126-0.255-0.248-0.513-0.372-0.769    c-0.211-0.437-0.422-0.874-0.626-1.315c-0.125-0.269-0.244-0.541-0.366-0.812c-0.195-0.434-0.39-0.869-0.578-1.308    c-0.12-0.278-0.235-0.559-0.352-0.839c-0.182-0.437-0.363-0.875-0.538-1.316c-0.113-0.285-0.223-0.572-0.333-0.858    c-0.17-0.442-0.338-0.885-0.501-1.331c-0.106-0.29-0.209-0.582-0.312-0.873c-0.158-0.448-0.314-0.897-0.466-1.349    c-0.099-0.294-0.195-0.59-0.291-0.886c-0.147-0.455-0.291-0.912-0.431-1.371c-0.09-0.297-0.179-0.594-0.266-0.892    c-0.136-0.464-0.269-0.93-0.398-1.399c-0.082-0.299-0.164-0.598-0.243-0.899c-0.125-0.472-0.245-0.947-0.362-1.423    c-0.074-0.301-0.148-0.602-0.219-0.904c-0.114-0.483-0.223-0.969-0.329-1.456c-0.065-0.299-0.131-0.597-0.193-0.897    c-0.104-0.5-0.202-1.004-0.298-1.508c-0.055-0.291-0.112-0.581-0.164-0.873c-0.093-0.518-0.18-1.04-0.265-1.562    c-0.046-0.285-0.094-0.569-0.138-0.855c-0.083-0.542-0.159-1.088-0.233-1.634c-0.036-0.268-0.075-0.536-0.109-0.805    c-0.073-0.577-0.138-1.158-0.201-1.74c-0.027-0.244-0.056-0.487-0.081-0.732c-0.063-0.625-0.117-1.254-0.168-1.884    c-0.017-0.206-0.037-0.41-0.052-0.616c-0.054-0.715-0.098-1.434-0.136-2.155c-0.007-0.124-0.016-0.247-0.022-0.371    c-0.086-1.717-0.13-3.453-0.13-5.208V229.166c6.117-1.687,12.643-5.087,19.688-10.02c0.144-0.101,0.284-0.192,0.428-0.294    c0.33-0.233,0.667-0.486,0.999-0.726c3.224-2.328,6.551-4.952,10.002-7.888c6.196-5.27,12.67-11.426,19.566-18.5    c4.437-4.551,8.89-9.313,13.865-14.784c1.376-1.513,4.067-4.501,6.455-7.155c2.355-2.617,4.417-4.912,4.633-5.151    c0.332-0.369,0.332-0.369,0.506-0.564c14.548-16.538,11.139-42.102-6.791-54.871l-10.181-7.5    c16.831-2.876,28.895-14.475,33.174-29.211c0.665-2.175,1.147-4.404,1.465-6.662c18.069,6.489,32.677,13.213,36.863,17.165    c6.549,6.185,21.478,66.111,40.762,162.267c2.683,13.379,5.475,27.541,8.443,42.801c2.67,13.731,24.186,126.82,31.845,165.555    L433.481,459.723z"/>
	</g>
</g>
<g>
</g>
<g>
</g>
<g>
</g>
<g>
</g>
<g>
</g>
<g>
</g>
<g>
</g>
<g>
</g>
<g>
</g>
<g>
</g>
<g>
</g>
<g>
</g>
<g>
</g>
<g>
</g>
<g>
</g>
</svg>
