<?xml version="1.0" encoding="iso-8859-1"?>
<!-- Generator: Adobe Illustrator 19.0.0, SVG Export Plug-In . SVG Version: 6.00 Build 0)  -->
<svg xmlns="http://www.w3.org/2000/svg" xmlns:xlink="http://www.w3.org/1999/xlink" version="1.1" id="Layer_1" x="0px" y="0px" viewBox="0 0 512 512" style="enable-background:new 0 0 512 512;" xml:space="preserve">
<g transform="translate(0 -1)">
	<g>
		<g>
			<path d="M153.388,225.653c8.816,4.821,17.806,6.207,25.317,5.778c0.207-0.014,0.353-0.024,0.465-0.031     c8.531-0.046,19.78-1.761,33.266-4.788c5.239-1.176,10.721-2.531,16.368-4.031c7.138-1.896,14.18-3.924,20.827-5.953     c2.276-0.695,4.345-1.341,6.177-1.924c1.832,0.584,3.9,1.229,6.176,1.924c6.647,2.029,13.689,4.057,20.827,5.953     c5.647,1.5,11.128,2.855,16.368,4.031c13.487,3.027,24.735,4.741,33.266,4.788c0.111,0.008,0.258,0.018,0.465,0.031     c7.511,0.429,16.502-0.956,25.318-5.778C374.421,216.797,384,199.046,384,171.667c0-25.757-5.132-46.739-13.772-63.255     c-4.086-7.81-8.274-13.476-11.828-17.206V9.533c0-4.713-3.821-8.533-8.533-8.533c-4.713,0-8.533,3.82-8.533,8.533v79.94     c-21.778,12.478-66.888,59.569-85.525,92.808c-18.53-33.047-63.223-79.78-85.141-92.583V9.533c0-4.713-3.821-8.533-8.533-8.533     s-8.533,3.82-8.533,8.533V90.81c-3.634,3.719-7.978,9.509-12.212,17.602c-8.64,16.516-13.772,37.498-13.772,63.255     C127.616,199.046,137.195,216.797,153.388,225.653z M306.12,143.912c10.411-10.951,21.65-21.636,31.25-29.837     c4.214-3.599,7.914-6.546,10.764-8.585c2.35,2.928,4.719,6.525,6.972,10.832c7.36,14.068,11.828,32.336,11.828,55.344     c0,21.385-6.421,33.285-16.895,39.012c-5.588,3.056-11.553,3.975-16.156,3.713c-0.274-0.019-1.083-0.058-1.083-0.058     c-7.029,0-17.338-1.559-29.883-4.374c-5.011-1.125-10.281-2.427-15.725-3.873c-6.921-1.838-13.766-3.81-20.225-5.781     c-0.473-0.144-0.931-0.285-1.373-0.421C269.59,187.165,284.615,166.533,306.12,143.912z M156.511,116.323     c2.253-4.307,4.623-7.904,6.972-10.832c2.85,2.038,6.55,4.985,10.764,8.585c9.6,8.2,20.839,18.885,31.25,29.837     c21.505,22.621,36.529,43.253,40.526,55.972c-0.442,0.136-0.9,0.276-1.373,0.421c-6.458,1.971-13.304,3.943-20.225,5.781     c-5.444,1.446-10.714,2.749-15.725,3.873c-12.546,2.816-22.855,4.374-29.883,4.374l-0.901,0.048     c-4.784,0.273-10.75-0.646-16.338-3.702c-10.473-5.728-16.895-17.627-16.895-39.012     C144.683,148.659,149.151,130.391,156.511,116.323z"/>
			<path d="M382.536,350.993c-62.308,10.853-105.331,16.94-126.536,16.94s-64.228-6.087-126.536-16.94     c-5.22-0.909-9.998,3.108-9.998,8.407v34.133c0,4.713,3.82,8.533,8.533,8.533c30.944,0,56.788,19.085,77.764,51.563     c7.526,11.653,13.849,24.195,18.989,36.739c1.798,4.389,3.318,8.457,4.563,12.095c0.735,2.147,1.208,3.648,1.425,4.393     c1.062,3.641,4.399,6.144,8.192,6.144h34.133c3.793,0,7.13-2.503,8.192-6.144c0.217-0.745,0.69-2.245,1.425-4.393     c1.245-3.638,2.764-7.706,4.563-12.095c5.14-12.545,11.463-25.086,18.989-36.739c20.976-32.478,46.82-51.563,77.764-51.563     c4.713,0,8.533-3.82,8.533-8.533V359.4C392.533,354.102,387.755,350.084,382.536,350.993z M375.467,385.39     c-33.893,3.132-61.582,24.939-83.567,58.98c-8.146,12.613-14.932,26.072-20.445,39.528c-1.768,4.315-3.29,8.355-4.571,12.035     h-21.767c-1.281-3.681-2.803-7.72-4.571-12.035c-5.513-13.455-12.299-26.914-20.445-39.528     c-21.985-34.041-49.675-55.848-83.567-58.98v-15.854C194.594,379.503,234.591,385,256,385s61.406-5.497,119.467-15.464V385.39z"/>
		</g>
	</g>
</g>
<g>
</g>
<g>
</g>
<g>
</g>
<g>
</g>
<g>
</g>
<g>
</g>
<g>
</g>
<g>
</g>
<g>
</g>
<g>
</g>
<g>
</g>
<g>
</g>
<g>
</g>
<g>
</g>
<g>
</g>
</svg>
