<?xml version="1.0" encoding="iso-8859-1"?>
<!-- Generator: Adobe Illustrator 19.0.0, SVG Export Plug-In . SVG Version: 6.00 Build 0)  -->
<svg xmlns="http://www.w3.org/2000/svg" xmlns:xlink="http://www.w3.org/1999/xlink" version="1.1" id="Layer_1" x="0px" y="0px" viewBox="0 0 511.763 511.763" style="enable-background:new 0 0 511.763 511.763;" xml:space="preserve">
<g>
	<g>
		<path d="M494.64,459.083c-5.147-25.058-30.646-159.118-33.592-174.268c-2.974-15.292-5.772-29.485-8.462-42.899    c-21.287-106.143-34.984-161.126-45.778-171.32c-7.131-6.732-26.45-15.371-50.043-23.345c-2.028-6.531-5.712-12.761-11.236-18.096    c-11.633-11.368-17.891-16.429-26.715-20c-0.02-0.008-0.041-0.013-0.062-0.021c-0.027-0.011-0.053-0.025-0.081-0.035    C304.866,3.8,280.239,0,255.88,0c-24.359,0-48.986,3.8-62.792,9.1c-0.028,0.011-0.053,0.024-0.081,0.035    c-0.02,0.008-0.041,0.013-0.062,0.021c-8.824,3.57-15.082,8.632-26.493,19.777c-0.2,0.199-0.2,0.199-0.328,0.327    c-5.492,5.303-9.157,11.503-11.173,18.008c-23.571,7.969-42.87,16.601-49.995,23.328c-10.795,10.195-24.492,65.178-45.78,171.321    c-2.69,13.414-5.488,27.608-8.462,42.899c-2.946,15.15-28.445,149.209-33.592,174.268c-0.989,4.816,2.285,9.469,7.152,10.164    l59.733,8.533c4.545,0.649,8.789-2.414,9.604-6.932c0.081-0.451,0.081-0.451,0.469-2.597c0.532-2.938,0.532-2.938,1.331-7.345    c1.435-7.911,3.039-16.727,4.773-26.221c4.954-27.124,9.956-54.249,14.691-79.562c0.615-3.285,0.615-3.285,1.23-6.568    c11.36-60.568,19.283-100.37,21.467-106.927c1.887-5.658,5.252-14.457,9.688-25.468c0.559-1.386,0.559-1.386,1.12-2.77    c1.166-2.876,2.368-5.813,3.591-8.776c5.387,21.234,9.01,45.257,9.796,67.819l-9.166,50.178    c-4.189,19.699-5.634,26.567-7.844,37.475c-3.286,16.217-6.039,30.782-8.385,44.642c-5.481,32.38-8.458,59.341-8.488,81.094    c-0.148,2.964,1.186,6.005,4.323,7.757c0.081,0.046,0.162,0.092,0.245,0.136c0.05,0.026,0.095,0.055,0.145,0.08    c16.656,8.328,37.552,13.277,62.7,15.792c17.894,1.789,32.573,2.176,60.582,2.176s42.688-0.386,60.582-2.176    c25.148-2.515,46.045-7.464,62.701-15.792c0.043-0.021,0.08-0.046,0.122-0.068c0.104-0.054,0.205-0.112,0.306-0.17    c3.074-1.736,4.401-4.715,4.288-7.636c-0.022-22.237-3.104-49.783-8.794-83.016c-2.364-13.809-5.126-28.311-8.438-44.58    c-2.11-10.362-3.532-17.121-7.511-35.833l-9.14-50.058c0.785-22.562,4.409-46.585,9.796-67.818    c1.22,2.958,2.419,5.889,3.583,8.761c0.563,1.391,0.563,1.391,1.125,2.783c4.434,11.01,7.797,19.808,9.682,25.469    c2.187,6.558,10.112,46.353,21.47,106.906c0.617,3.293,0.617,3.293,1.234,6.589c4.735,25.313,9.737,52.437,14.692,79.562    c1.734,9.494,3.338,18.309,4.773,26.221c0.799,4.407,0.799,4.407,1.331,7.345c0.388,2.146,0.388,2.146,0.469,2.597    c0.815,4.518,5.059,7.581,9.604,6.932l59.733-8.533C492.355,468.552,495.629,463.899,494.64,459.083z M298.546,267.831    l8.533,8.533v30.599h-17.067v-30.599L298.546,267.831z M281.941,199.343c-0.338,0.276-0.671,0.541-1.006,0.81    c-0.517,0.415-1.03,0.823-1.538,1.219c-0.346,0.27-0.69,0.536-1.032,0.797c-0.506,0.387-1.006,0.762-1.503,1.13    c-0.309,0.229-0.621,0.463-0.926,0.685c-0.674,0.489-1.338,0.959-1.992,1.411c-0.206,0.142-0.41,0.282-0.614,0.421    c-0.648,0.44-1.286,0.863-1.913,1.266c-0.271,0.174-0.535,0.336-0.802,0.503c-0.47,0.294-0.936,0.58-1.393,0.851    c-0.273,0.162-0.544,0.32-0.812,0.475c-0.461,0.265-0.914,0.515-1.361,0.757c-0.233,0.126-0.469,0.257-0.698,0.376    c-0.629,0.327-1.245,0.635-1.845,0.914c-0.03,0.014-0.062,0.031-0.092,0.045v-27.387c0.144-0.115,0.286-0.241,0.429-0.359    c0.432-0.355,0.863-0.722,1.291-1.102c0.275-0.243,0.549-0.491,0.822-0.743c0.263-0.245,0.525-0.498,0.787-0.752    c13.587-13.111,25.233-38.471,35.551-72.695l20.451,15.07c7.269,5.178,10.185,14.018,8.207,21.811    c-0.72,2.835-2.07,5.535-4.119,7.864c-0.245,0.272-0.245,0.272-0.415,0.462c-0.497,0.549-8.398,9.347-11.084,12.3    c-3.497,3.844-6.715,7.314-9.842,10.596c-1.216,1.276-2.42,2.527-3.618,3.756c-3.352,3.438-6.585,6.632-9.714,9.59    c-0.283,0.231-0.548,0.483-0.799,0.748c-2.698,2.53-5.322,4.89-7.872,7.059c-0.164,0.139-0.323,0.268-0.486,0.406    C283.31,198.213,282.621,198.788,281.941,199.343z M245.406,210.041c-0.221-0.115-0.449-0.241-0.673-0.363    c-0.46-0.248-0.925-0.506-1.399-0.778c-0.253-0.146-0.509-0.295-0.766-0.448c-0.486-0.288-0.98-0.591-1.48-0.904    c-0.237-0.148-0.471-0.291-0.711-0.445c-0.736-0.472-1.482-0.962-2.246-1.486c-0.019-0.013-0.038-0.027-0.057-0.04    c-0.751-0.515-1.519-1.061-2.296-1.626c-0.247-0.179-0.498-0.368-0.747-0.552c-0.568-0.419-1.141-0.849-1.722-1.294    c-0.28-0.214-0.56-0.431-0.843-0.651c-0.599-0.467-1.207-0.949-1.819-1.442c-0.246-0.198-0.49-0.392-0.739-0.594    c-0.863-0.704-1.736-1.428-2.624-2.183c-5.745-4.888-11.846-10.69-18.398-17.41c-4.282-4.391-8.604-9.014-13.46-14.353    c-1.328-1.46-3.932-4.349-6.281-6.961c-2.423-2.693-4.575-5.089-4.773-5.308c-5.775-6.559-6.505-15.469-2.926-22.581    c0.101-0.198,0.203-0.395,0.31-0.59c0.177-0.325,0.363-0.645,0.559-0.961c0.241-0.386,0.49-0.768,0.757-1.14    c0.102-0.142,0.204-0.283,0.31-0.423c0.36-0.475,0.737-0.939,1.142-1.386c0.049-0.054,0.097-0.108,0.147-0.161    c0.455-0.492,0.935-0.968,1.444-1.421c0.026-0.023,0.051-0.046,0.077-0.068c0.53-0.467,1.088-0.912,1.675-1.332    c0.011-0.008,0.021-0.016,0.032-0.024l20.568-15.151c10.318,34.224,21.964,59.583,35.551,72.694    c0.262,0.254,0.524,0.508,0.787,0.752c0.273,0.253,0.547,0.5,0.822,0.743c0.428,0.38,0.859,0.746,1.291,1.102    c0.143,0.118,0.286,0.244,0.429,0.359v27.387c-0.036-0.017-0.074-0.037-0.11-0.054C246.641,210.67,246.03,210.366,245.406,210.041    z M295.286,72.294c-0.136,0.548-0.273,1.096-0.411,1.643c-0.302,1.205-0.604,2.408-0.909,3.598    c-0.493,1.919-0.99,3.83-1.496,5.729c-0.059,0.222-0.118,0.444-0.177,0.666c-1.202,4.494-2.44,8.931-3.714,13.286    c-10.281,35.133-21.701,60.565-32.699,71.197c-10.998-10.632-22.418-36.063-32.699-71.197c-1.275-4.356-2.512-8.792-3.715-13.287    c-0.059-0.222-0.118-0.443-0.177-0.665c-0.506-1.899-1.003-3.811-1.496-5.729c-0.304-1.186-0.605-2.385-0.906-3.587    c-0.139-0.554-0.278-1.107-0.415-1.662c-0.33-1.332-0.66-2.669-0.986-4.019h80.79C295.947,69.619,295.617,70.959,295.286,72.294z     M340.81,54.027c0.014,0.415,0.053,0.835,0.13,1.261c0.595,3.307,0.601,6.533,0.089,9.573    c-2.012,10.343-10.311,19.27-23.056,20.357c-0.104,0.009-0.208,0.018-0.313,0.026c-0.69,0.052-1.39,0.085-2.105,0.09    c-2.097,0.015-3.912,0.02-5.95,0.018c0.847-3.267,1.683-6.605,2.512-9.992c0.01-0.042,0.021-0.085,0.031-0.127    c0.663-2.71,1.321-5.45,1.973-8.234c0.354-1.504,0.701-3.009,1.046-4.518c0.013-0.055,0.025-0.108,0.038-0.163    c0.094-0.297,0.179-0.6,0.241-0.912l0.281-1.406c1.157-5.124,2.284-10.264,3.348-15.41c1.016-4.914,1.938-9.576,2.761-13.928    c3.18,2.511,6.819,5.866,11.544,10.48C337.298,44.927,339.711,49.403,340.81,54.027z M255.88,17.067    c18.62,0,37.371,2.408,49.873,5.791L300.084,51.2h-88.409l-5.668-28.342C218.509,19.474,237.26,17.067,255.88,17.067z     M178.449,41.072c4.685-4.575,8.304-7.91,11.472-10.411c0.824,4.353,1.745,9.016,2.762,13.93    c1.065,5.146,2.191,10.286,3.348,15.41l0.281,1.406c0.062,0.312,0.147,0.614,0.241,0.912c0.013,0.055,0.025,0.108,0.038,0.163    c0.346,1.509,0.693,3.015,1.047,4.52c0.651,2.78,1.309,5.517,1.971,8.223c0.012,0.048,0.023,0.096,0.035,0.143    c0.828,3.384,1.664,6.719,2.51,9.984c-1.933,0.001-3.666-0.004-5.618-0.016c-0.111-0.001-0.215-0.001-0.328-0.002    c-0.002,0-0.004,0-0.007,0c-0.711-0.005-1.408-0.038-2.094-0.089c-0.11-0.008-0.218-0.018-0.327-0.027    c-11.638-0.995-19.58-8.52-22.442-17.656c-1.072-3.797-1.291-7.967-0.516-12.272c0.101-0.56,0.127-1.108,0.121-1.647    c1.115-4.4,3.44-8.632,7.144-12.209C178.321,41.2,178.321,41.2,178.449,41.072z M153.2,407.577    c2.312-13.66,5.031-28.05,8.284-44.1c2.2-10.856,3.64-17.7,7.836-37.435l9.4-51.442l0.135-1.802    c-1.039-32.993-7.835-68.874-17.504-96.253c-0.001-0.002-0.001-0.005-0.002-0.007c-1.206-3.417-2.496-6.745-3.859-9.981    c-5.226-12.407-10.502-21.44-14.164-26.496c-2.764-3.817-8.099-4.671-11.916-1.907c-3.817,2.764-4.671,8.099-1.907,11.916    c0.667,0.921,1.96,2.889,3.672,5.82c2.916,4.992,5.846,10.784,8.587,17.291c0.821,1.95,1.601,3.951,2.361,5.974    c-0.824,1.942-1.727,4.079-2.697,6.388c-3.02,7.186-6.04,14.477-8.861,21.434c-0.568,1.401-0.568,1.401-1.134,2.806    c-4.558,11.314-8.021,20.369-10.049,26.45c-2.579,7.744-10.301,46.537-22.05,109.177c-0.616,3.286-0.616,3.286-1.232,6.576    c-4.739,25.34-9.745,52.486-14.704,79.633c-1.735,9.501-3.341,18.323-4.777,26.241c-0.132,0.731-0.243,1.34-0.338,1.862    l-42.66-6.094c7.66-38.735,29.175-151.824,31.845-165.555c2.968-15.261,5.76-29.422,8.443-42.801    c19.284-96.157,34.213-156.082,40.763-162.268c4.184-3.95,18.781-10.669,36.84-17.156c0.35,2.463,0.909,4.889,1.671,7.252    c4.429,14.45,16.388,25.776,32.99,28.613l-10.291,7.581c-17.819,12.689-21.228,38.253-6.773,54.686    c0.268,0.299,0.268,0.299,0.626,0.698c0.227,0.251,2.775,3.088,5.463,6.073c0.011,0.012,0.022,0.024,0.033,0.036    c0.036,0.04,0.072,0.08,0.109,0.121c2.137,2.374,4.278,4.75,5.456,6.045c4.975,5.47,9.428,10.233,13.865,14.784    c6.897,7.074,13.37,13.23,19.566,18.5c3.451,2.936,6.778,5.559,10.002,7.888c0.332,0.24,0.669,0.493,0.999,0.726    c0.163,0.115,0.322,0.219,0.484,0.332c7.023,4.912,13.531,8.3,19.632,9.982v154.597c0,1.755-0.044,3.491-0.13,5.208    c-0.006,0.124-0.016,0.247-0.022,0.371c-0.039,0.721-0.083,1.44-0.136,2.155c-0.016,0.206-0.036,0.41-0.052,0.616    c-0.051,0.63-0.105,1.259-0.168,1.884c-0.025,0.245-0.054,0.488-0.081,0.732c-0.063,0.582-0.128,1.163-0.201,1.74    c-0.034,0.27-0.073,0.537-0.109,0.805c-0.074,0.546-0.15,1.092-0.233,1.634c-0.044,0.286-0.092,0.57-0.138,0.855    c-0.085,0.522-0.172,1.044-0.265,1.562c-0.053,0.292-0.109,0.583-0.164,0.873c-0.096,0.504-0.194,1.008-0.298,1.508    c-0.062,0.299-0.128,0.597-0.193,0.895c-0.107,0.489-0.216,0.976-0.33,1.461c-0.071,0.3-0.144,0.599-0.217,0.897    c-0.118,0.478-0.239,0.954-0.364,1.428c-0.079,0.3-0.16,0.599-0.243,0.898c-0.129,0.468-0.261,0.934-0.398,1.399    c-0.087,0.298-0.176,0.595-0.266,0.892c-0.14,0.459-0.284,0.916-0.431,1.371c-0.096,0.296-0.192,0.592-0.291,0.886    c-0.151,0.452-0.307,0.901-0.466,1.349c-0.103,0.292-0.206,0.583-0.312,0.873c-0.163,0.446-0.331,0.889-0.501,1.331    c-0.11,0.286-0.22,0.573-0.333,0.858c-0.175,0.441-0.356,0.879-0.538,1.316c-0.117,0.28-0.232,0.561-0.352,0.839    c-0.189,0.44-0.385,0.877-0.581,1.313c-0.121,0.268-0.24,0.538-0.363,0.805c-0.205,0.443-0.416,0.881-0.628,1.32    c-0.124,0.256-0.245,0.513-0.371,0.767c-0.222,0.447-0.451,0.89-0.681,1.332c-0.125,0.24-0.246,0.482-0.373,0.721    c-0.246,0.462-0.5,0.92-0.754,1.377c-0.118,0.213-0.233,0.428-0.353,0.64c-0.286,0.503-0.58,1.001-0.875,1.497    c-0.096,0.161-0.188,0.324-0.285,0.484c-0.797,1.318-1.629,2.613-2.496,3.883c-0.053,0.078-0.109,0.154-0.163,0.232    c-0.378,0.55-0.761,1.096-1.152,1.637c-0.139,0.191-0.282,0.379-0.423,0.569c-0.312,0.423-0.623,0.846-0.943,1.264    c-0.174,0.228-0.354,0.451-0.531,0.677c-0.293,0.375-0.586,0.75-0.885,1.12c-0.197,0.243-0.399,0.482-0.598,0.722    c-0.288,0.347-0.575,0.695-0.868,1.038c-0.214,0.25-0.433,0.497-0.651,0.745c-0.286,0.326-0.571,0.653-0.863,0.975    c-0.23,0.255-0.464,0.506-0.698,0.758c-0.287,0.31-0.574,0.62-0.865,0.926c-0.243,0.255-0.49,0.507-0.737,0.76    c-0.29,0.297-0.58,0.594-0.875,0.887c-0.254,0.253-0.512,0.503-0.769,0.753c-0.296,0.287-0.592,0.573-0.892,0.857    c-0.263,0.248-0.529,0.495-0.795,0.74c-0.302,0.278-0.605,0.555-0.911,0.829c-0.274,0.246-0.551,0.49-0.828,0.732    c-0.306,0.267-0.614,0.533-0.924,0.797c-0.284,0.241-0.569,0.481-0.856,0.719c-0.313,0.26-0.628,0.517-0.945,0.773    c-0.292,0.236-0.586,0.471-0.882,0.704c-0.318,0.251-0.64,0.499-0.962,0.746c-0.302,0.231-0.605,0.462-0.91,0.69    c-0.324,0.242-0.652,0.482-0.98,0.721c-0.311,0.226-0.622,0.452-0.936,0.675c-0.329,0.233-0.662,0.463-0.995,0.693    c-0.321,0.222-0.642,0.444-0.967,0.662c-0.333,0.224-0.671,0.444-1.008,0.665c-0.331,0.216-0.661,0.434-0.995,0.647    c-0.34,0.216-0.684,0.429-1.028,0.642c-0.339,0.21-0.676,0.421-1.018,0.628c-0.345,0.208-0.695,0.412-1.044,0.617    c-0.348,0.205-0.695,0.411-1.047,0.612c-0.347,0.198-0.699,0.391-1.05,0.586c-0.36,0.2-0.718,0.403-1.082,0.599    c-0.348,0.188-0.701,0.37-1.052,0.555c-0.373,0.196-0.744,0.395-1.12,0.587c-0.344,0.176-0.694,0.345-1.041,0.517    c-0.391,0.194-0.778,0.391-1.173,0.581c-0.267,0.128-0.539,0.251-0.807,0.378c-0.914,0.431-1.838,0.851-2.772,1.26    c-0.301,0.132-0.599,0.267-0.902,0.397c-0.44,0.188-0.887,0.37-1.332,0.553c-0.332,0.137-0.662,0.277-0.997,0.412    c-0.438,0.176-0.883,0.345-1.325,0.517c-0.348,0.135-0.693,0.272-1.044,0.404c-0.442,0.166-0.889,0.327-1.335,0.488    c-0.356,0.129-0.711,0.26-1.07,0.387c-0.448,0.157-0.9,0.309-1.352,0.462c-0.364,0.123-0.727,0.248-1.093,0.368    c-0.454,0.149-0.912,0.293-1.37,0.437c-0.369,0.116-0.737,0.234-1.109,0.347c-0.462,0.141-0.928,0.277-1.394,0.413    c-0.374,0.109-0.748,0.219-1.125,0.325c-0.468,0.132-0.939,0.26-1.41,0.387c-0.381,0.103-0.762,0.206-1.145,0.305    c-0.474,0.123-0.951,0.243-1.429,0.361c-0.386,0.096-0.772,0.191-1.16,0.283c-0.483,0.115-0.968,0.227-1.455,0.337    c-0.387,0.088-0.775,0.174-1.164,0.259c-0.494,0.107-0.99,0.212-1.487,0.314c-0.388,0.08-0.777,0.158-1.167,0.235    c-0.503,0.099-1.008,0.196-1.515,0.29c-0.389,0.072-0.78,0.142-1.172,0.211c-0.513,0.091-1.028,0.18-1.545,0.265    c-0.391,0.065-0.784,0.127-1.177,0.188c-0.522,0.082-1.045,0.163-1.571,0.239c-0.392,0.057-0.786,0.111-1.18,0.165    c-0.534,0.073-1.069,0.146-1.607,0.214c-0.386,0.049-0.774,0.094-1.161,0.14c-0.551,0.065-1.102,0.13-1.657,0.19    c-0.38,0.041-0.762,0.078-1.144,0.116c-0.566,0.057-1.132,0.113-1.702,0.164c-0.369,0.033-0.74,0.061-1.11,0.091    c-0.59,0.048-1.18,0.097-1.774,0.139c-0.344,0.024-0.69,0.044-1.035,0.066c-0.624,0.04-1.247,0.081-1.875,0.113    c-0.038,0.002-0.076,0.003-0.114,0.005C145.781,458.241,148.567,434.946,153.2,407.577z M324.996,491.402    c-3.313,0.452-6.724,0.852-10.232,1.203c-17.154,1.715-31.427,2.091-58.884,2.091s-41.731-0.376-58.884-2.091    c-7.015-0.701-13.644-1.601-19.878-2.714c1.307-0.326,2.601-0.673,3.885-1.031c0.274-0.077,0.545-0.158,0.818-0.236    c1.125-0.321,2.241-0.654,3.348-0.999c0.374-0.117,0.747-0.234,1.119-0.353c1.147-0.368,2.284-0.749,3.412-1.143    c0.21-0.074,0.424-0.143,0.633-0.218c1.332-0.473,2.649-0.966,3.953-1.475c0.281-0.11,0.558-0.225,0.839-0.337    c1.027-0.409,2.045-0.829,3.053-1.261c0.357-0.153,0.713-0.306,1.068-0.461c1.075-0.471,2.139-0.955,3.192-1.451    c0.185-0.087,0.372-0.17,0.556-0.258c1.231-0.588,2.446-1.195,3.646-1.818c0.281-0.146,0.558-0.297,0.837-0.445    c0.929-0.491,1.849-0.991,2.759-1.503c0.335-0.188,0.67-0.377,1.003-0.568c0.996-0.572,1.981-1.156,2.954-1.753    c0.16-0.098,0.323-0.192,0.482-0.291c1.123-0.697,2.228-1.413,3.319-2.142c0.275-0.184,0.545-0.373,0.819-0.559    c0.829-0.565,1.648-1.139,2.458-1.722c0.312-0.225,0.624-0.45,0.933-0.678c0.911-0.672,1.811-1.354,2.697-2.05    c0.134-0.105,0.271-0.206,0.404-0.312c1.009-0.8,1.998-1.618,2.973-2.449c0.262-0.224,0.519-0.452,0.779-0.678    c0.729-0.634,1.448-1.275,2.157-1.926c0.284-0.26,0.567-0.52,0.848-0.783c0.824-0.773,1.635-1.556,2.431-2.353    c0.105-0.105,0.213-0.206,0.318-0.312c0.889-0.897,1.755-1.812,2.608-2.738c0.245-0.266,0.483-0.536,0.725-0.804    c0.628-0.696,1.246-1.401,1.853-2.113c0.251-0.294,0.503-0.588,0.751-0.886c0.729-0.875,1.444-1.76,2.143-2.658    c0.077-0.099,0.158-0.196,0.235-0.295c0.763-0.989,1.502-1.996,2.228-3.013c0.218-0.306,0.431-0.616,0.646-0.925    c0.526-0.755,1.042-1.518,1.547-2.288c0.215-0.328,0.431-0.655,0.643-0.986c0.627-0.981,1.241-1.972,1.835-2.977    c0.05-0.084,0.103-0.166,0.152-0.25c0.632-1.076,1.238-2.17,1.83-3.272c0.186-0.346,0.366-0.696,0.548-1.045    c0.423-0.81,0.835-1.627,1.237-2.45c0.176-0.361,0.354-0.721,0.525-1.084c0.518-1.095,1.021-2.198,1.501-3.317    c0.021-0.048,0.044-0.095,0.065-0.144c0.515,1.204,1.059,2.39,1.617,3.567c0.128,0.271,0.261,0.538,0.391,0.807    c0.456,0.94,0.926,1.871,1.41,2.794c0.135,0.258,0.268,0.517,0.406,0.773c1.226,2.287,2.537,4.518,3.931,6.692    c0.161,0.251,0.325,0.499,0.488,0.748c0.57,0.872,1.153,1.734,1.749,2.587c0.16,0.229,0.317,0.459,0.479,0.686    c1.497,2.104,3.076,4.147,4.733,6.131c0.192,0.23,0.388,0.458,0.582,0.687c0.679,0.799,1.37,1.587,2.075,2.366    c0.18,0.2,0.358,0.401,0.54,0.599c0.889,0.967,1.793,1.922,2.721,2.857c0.006,0.006,0.011,0.011,0.017,0.016    c0.898,0.905,1.82,1.791,2.754,2.666c0.223,0.209,0.449,0.416,0.674,0.623c0.784,0.722,1.581,1.433,2.389,2.133    c0.195,0.169,0.388,0.341,0.585,0.509c1.012,0.864,2.039,1.714,3.088,2.544c0.04,0.031,0.081,0.062,0.12,0.093    c0.984,0.777,1.988,1.536,3.003,2.283c0.253,0.186,0.508,0.37,0.762,0.554c0.885,0.639,1.781,1.268,2.689,1.884    c0.208,0.142,0.414,0.286,0.624,0.426c1.127,0.755,2.268,1.494,3.43,2.214c0.074,0.046,0.151,0.09,0.225,0.136    c1.062,0.655,2.141,1.293,3.232,1.918c0.28,0.16,0.561,0.319,0.843,0.477c0.982,0.553,1.975,1.094,2.979,1.622    c0.218,0.115,0.432,0.232,0.651,0.345c1.234,0.64,2.482,1.265,3.748,1.869c0.111,0.053,0.224,0.103,0.335,0.155    c1.131,0.536,2.276,1.055,3.433,1.561c0.307,0.135,0.616,0.267,0.925,0.4c1.073,0.46,2.157,0.908,3.251,1.343    c0.224,0.089,0.445,0.181,0.67,0.269c1.332,0.521,2.679,1.025,4.041,1.508c0.151,0.053,0.304,0.103,0.455,0.156    c1.191,0.418,2.394,0.82,3.607,1.208c0.333,0.107,0.667,0.212,1.001,0.316c1.161,0.363,2.332,0.712,3.513,1.048    c0.226,0.064,0.45,0.132,0.677,0.196c1.296,0.362,2.601,0.712,3.92,1.041C331.525,490.448,328.309,490.951,324.996,491.402z     M433.481,459.723c-0.095-0.522-0.205-1.132-0.338-1.862c-1.436-7.918-3.042-16.74-4.777-26.241    c-4.958-27.146-9.965-54.293-14.705-79.633c-0.618-3.3-0.618-3.3-1.236-6.598c-11.748-62.631-19.471-101.414-22.053-109.155    c-2.024-6.078-5.485-15.134-10.042-26.449c-0.569-1.411-0.569-1.411-1.139-2.819c-2.82-6.955-5.838-14.243-8.856-21.425    c-0.97-2.309-1.873-4.446-2.697-6.387c0.76-2.022,1.539-4.022,2.36-5.97c2.741-6.507,5.671-12.299,8.587-17.291    c1.712-2.931,3.004-4.899,3.672-5.82c2.764-3.817,1.911-9.152-1.907-11.916c-3.817-2.764-9.152-1.911-11.916,1.907    c-3.661,5.056-8.938,14.089-14.164,26.496c-1.363,3.236-2.653,6.564-3.859,9.981c-0.01,0.029-0.016,0.058-0.026,0.087    c-9.654,27.369-16.439,63.212-17.477,96.173l0.135,1.802l9.353,51.2c4.016,18.904,5.432,25.634,7.529,35.93    c3.279,16.107,6.009,30.442,8.34,44.056c4.82,28.147,7.708,52.005,8.393,71.618c-0.033-0.002-0.067-0.003-0.1-0.005    c-0.664-0.035-1.323-0.077-1.982-0.12c-0.307-0.02-0.616-0.037-0.922-0.059c-0.632-0.044-1.26-0.096-1.887-0.148    c-0.33-0.027-0.662-0.052-0.991-0.081c-0.607-0.054-1.21-0.114-1.813-0.174c-0.344-0.035-0.689-0.068-1.031-0.104    c-0.592-0.063-1.18-0.133-1.768-0.203c-0.348-0.041-0.696-0.082-1.042-0.125c-0.578-0.073-1.153-0.151-1.726-0.23    c-0.351-0.048-0.703-0.096-1.052-0.147c-0.567-0.082-1.13-0.169-1.693-0.258c-0.351-0.055-0.701-0.11-1.05-0.168    c-0.559-0.092-1.115-0.188-1.669-0.286c-0.347-0.061-0.693-0.123-1.038-0.187c-0.551-0.102-1.099-0.207-1.645-0.315    c-0.343-0.068-0.686-0.137-1.028-0.207c-0.546-0.112-1.089-0.227-1.63-0.345c-0.335-0.073-0.668-0.148-1.002-0.223    c-0.541-0.122-1.081-0.247-1.618-0.375c-0.328-0.078-0.655-0.159-0.981-0.24c-0.536-0.133-1.071-0.267-1.602-0.405    c-0.32-0.083-0.638-0.169-0.956-0.255c-0.535-0.144-1.068-0.288-1.598-0.438c-0.305-0.086-0.607-0.175-0.911-0.263    c-0.538-0.156-1.075-0.314-1.608-0.476c-0.287-0.088-0.572-0.179-0.858-0.268c-0.542-0.17-1.083-0.34-1.62-0.516    c-0.267-0.088-0.531-0.179-0.797-0.268c-0.55-0.185-1.101-0.37-1.645-0.563c-0.237-0.083-0.47-0.17-0.706-0.255    c-0.568-0.204-1.137-0.409-1.699-0.621c-0.186-0.07-0.37-0.144-0.555-0.215c-0.607-0.232-1.214-0.466-1.813-0.707    c-0.078-0.031-0.154-0.064-0.231-0.095c-3.624-1.467-7.107-3.095-10.441-4.875c-0.131-0.07-0.263-0.137-0.394-0.208    c-0.525-0.283-1.042-0.573-1.559-0.863c-0.189-0.106-0.381-0.21-0.569-0.318c-0.483-0.275-0.96-0.557-1.436-0.839    c-0.216-0.128-0.434-0.254-0.649-0.383c-0.456-0.275-0.907-0.555-1.357-0.836c-0.228-0.142-0.457-0.283-0.683-0.427    c-0.438-0.278-0.87-0.561-1.301-0.845c-0.232-0.153-0.464-0.304-0.694-0.458c-0.422-0.283-0.838-0.57-1.254-0.858    c-0.233-0.162-0.467-0.323-0.699-0.487c-0.409-0.289-0.814-0.582-1.217-0.877c-0.23-0.168-0.46-0.336-0.688-0.506    c-0.398-0.296-0.792-0.596-1.183-0.898c-0.228-0.175-0.455-0.351-0.68-0.528c-0.385-0.302-0.766-0.607-1.145-0.914    c-0.226-0.183-0.451-0.367-0.675-0.552c-0.373-0.309-0.744-0.62-1.111-0.934c-0.22-0.188-0.439-0.377-0.657-0.567    c-0.365-0.318-0.727-0.638-1.086-0.96c-0.213-0.191-0.423-0.384-0.634-0.577c-0.357-0.328-0.713-0.657-1.064-0.99    c-0.204-0.194-0.406-0.389-0.608-0.584c-0.35-0.338-0.698-0.677-1.042-1.02c-0.196-0.195-0.388-0.393-0.582-0.59    c-0.343-0.35-0.686-0.7-1.023-1.055c-0.184-0.194-0.366-0.391-0.548-0.587c-0.339-0.363-0.677-0.727-1.009-1.096    c-0.171-0.19-0.338-0.382-0.507-0.573c-0.336-0.38-0.672-0.761-1.002-1.147c-0.153-0.18-0.303-0.362-0.454-0.543    c-0.338-0.403-0.676-0.806-1.006-1.215c-0.129-0.16-0.254-0.322-0.382-0.483c-0.346-0.435-0.691-0.87-1.028-1.311    c-0.087-0.114-0.171-0.231-0.258-0.346c-2.097-2.775-4.019-5.675-5.757-8.697c-0.064-0.111-0.13-0.22-0.193-0.331    c-0.275-0.484-0.542-0.974-0.808-1.464c-0.099-0.182-0.2-0.361-0.297-0.543c-0.244-0.458-0.48-0.921-0.716-1.384    c-0.112-0.22-0.227-0.438-0.337-0.659c-0.223-0.447-0.438-0.899-0.653-1.35c-0.115-0.24-0.231-0.48-0.344-0.722    c-0.206-0.443-0.405-0.891-0.604-1.339c-0.114-0.256-0.229-0.511-0.34-0.769c-0.19-0.44-0.373-0.883-0.556-1.327    c-0.112-0.272-0.225-0.543-0.334-0.816c-0.175-0.438-0.345-0.88-0.513-1.322c-0.108-0.283-0.216-0.566-0.32-0.851    c-0.162-0.44-0.319-0.883-0.474-1.327c-0.102-0.292-0.204-0.584-0.303-0.877c-0.15-0.444-0.295-0.889-0.438-1.337    c-0.095-0.299-0.19-0.598-0.282-0.898c-0.138-0.447-0.272-0.897-0.403-1.348c-0.088-0.305-0.175-0.61-0.261-0.917    c-0.126-0.454-0.25-0.909-0.369-1.367c-0.08-0.307-0.158-0.615-0.235-0.923c-0.115-0.461-0.228-0.923-0.336-1.388    c-0.073-0.311-0.142-0.624-0.212-0.937c-0.104-0.467-0.205-0.934-0.302-1.404c-0.065-0.316-0.126-0.633-0.188-0.951    c-0.092-0.473-0.183-0.946-0.268-1.422c-0.056-0.316-0.109-0.635-0.162-0.953c-0.081-0.484-0.162-0.968-0.235-1.455    c-0.047-0.312-0.09-0.626-0.134-0.939c-0.07-0.497-0.141-0.995-0.203-1.496c-0.038-0.306-0.071-0.614-0.107-0.922    c-0.059-0.513-0.119-1.025-0.17-1.541c-0.029-0.295-0.053-0.592-0.079-0.888c-0.048-0.534-0.097-1.068-0.137-1.605    c-0.02-0.267-0.033-0.537-0.051-0.805c-0.037-0.571-0.076-1.141-0.104-1.716c-0.01-0.198-0.014-0.398-0.022-0.597    c-0.063-1.474-0.1-2.96-0.1-4.462c0-0.012-0.002-0.024-0.002-0.036V229.166c0.126-0.035,0.25-0.059,0.376-0.096    c0.148-0.042,0.299-0.098,0.447-0.142c7.567-2.262,15.755-7.093,24.777-14.175v37.475l-14.567,14.567    c-1.6,1.6-2.499,3.771-2.499,6.034v42.667c0,4.713,3.82,8.533,8.533,8.533h34.133c4.713,0,8.533-3.82,8.533-8.533v-42.667    c0-2.263-0.899-4.434-2.499-6.034l-14.567-14.567v-52.509c2.612-2.519,5.278-5.175,8.015-7.981    c1.118-1.146,2.237-2.307,3.365-3.488c3.349-3.507,6.778-7.202,10.502-11.295c2.735-3.007,10.678-11.849,11.091-12.306    c0.008-0.009,0.014-0.018,0.022-0.027c0.302-0.336,0.313-0.349,0.482-0.537c14.548-16.538,11.139-42.102-6.791-54.871l-10.18-7.5    c16.906-2.887,29.005-14.575,33.235-29.404c0.636-2.114,1.093-4.281,1.401-6.472c18.072,6.49,32.683,13.214,36.869,17.167    c6.549,6.185,21.478,66.111,40.762,162.267c2.683,13.379,5.475,27.541,8.443,42.801c2.67,13.731,24.186,126.82,31.845,165.555    L433.481,459.723z"/>
	</g>
</g>
<g>
</g>
<g>
</g>
<g>
</g>
<g>
</g>
<g>
</g>
<g>
</g>
<g>
</g>
<g>
</g>
<g>
</g>
<g>
</g>
<g>
</g>
<g>
</g>
<g>
</g>
<g>
</g>
<g>
</g>
</svg>
