<?xml version="1.0" encoding="iso-8859-1"?>
<!-- Generator: Adobe Illustrator 19.0.0, SVG Export Plug-In . SVG Version: 6.00 Build 0)  -->
<svg xmlns="http://www.w3.org/2000/svg" xmlns:xlink="http://www.w3.org/1999/xlink" version="1.1" id="Layer_1" x="0px" y="0px" viewBox="0 0 511.763 511.763" style="enable-background:new 0 0 511.763 511.763;" xml:space="preserve">
<g>
	<g>
		<g>
			<circle cx="255.881" cy="298.667" r="8.533"/>
			<path d="M494.64,459.083c-5.149-25.065-30.659-159.182-33.594-174.272c-2.973-15.289-5.771-29.48-8.461-42.891     C431.298,135.772,417.601,80.79,406.807,70.596c-7.131-6.732-26.449-15.37-50.041-23.344     c-2.028-6.532-5.712-12.762-11.236-18.096c-11.633-11.368-17.891-16.429-26.715-20c-0.02-0.008-0.041-0.013-0.062-0.021     c-0.027-0.011-0.053-0.025-0.081-0.035C304.868,3.8,280.24,0,255.881,0c-24.359,0-48.986,3.8-62.792,9.1     c-0.028,0.011-0.053,0.024-0.081,0.035c-0.02,0.008-0.041,0.013-0.062,0.021c-8.824,3.57-15.082,8.632-26.493,19.777     c-0.2,0.199-0.2,0.199-0.328,0.327c-5.491,5.303-9.156,11.502-11.173,18.007c-23.572,7.969-42.872,16.601-49.997,23.328     C94.162,80.79,80.465,135.772,59.177,241.92c-2.69,13.411-5.487,27.603-8.461,42.891c-2.935,15.09-28.445,149.207-33.594,174.272     c-0.989,4.816,2.285,9.469,7.152,10.165l59.733,8.533c4.545,0.649,8.789-2.414,9.604-6.932c0.081-0.451,0.081-0.451,0.469-2.597     c0.532-2.938,0.532-2.938,1.331-7.345c1.435-7.911,3.039-16.727,4.773-26.221c4.954-27.124,9.956-54.248,14.691-79.561     c0.617-3.298,0.617-3.298,1.235-6.593c11.358-60.552,19.283-100.347,21.469-106.898c1.887-5.665,5.249-14.464,9.683-25.474     c0.562-1.393,0.562-1.393,1.125-2.783c1.164-2.871,2.363-5.802,3.583-8.761c4.764,18.778,8.149,39.738,9.411,59.94     c-0.021,0.002-0.041,0.005-0.062,0.007c-0.102,0.008-0.203,0.023-0.304,0.035c-0.139,0.016-0.277,0.032-0.414,0.055     c-0.104,0.017-0.205,0.04-0.307,0.061c-0.131,0.027-0.262,0.054-0.392,0.087c-0.104,0.026-0.205,0.058-0.307,0.088     c-0.125,0.037-0.25,0.074-0.372,0.117c-0.101,0.035-0.2,0.074-0.3,0.113c-0.12,0.047-0.239,0.094-0.356,0.146     c-0.098,0.043-0.194,0.09-0.291,0.137c-0.114,0.056-0.227,0.113-0.338,0.173c-0.094,0.051-0.187,0.105-0.279,0.16     c-0.108,0.065-0.215,0.131-0.321,0.2c-0.089,0.059-0.178,0.119-0.265,0.181c-0.103,0.073-0.204,0.149-0.303,0.226     c-0.084,0.066-0.167,0.132-0.249,0.201c-0.097,0.081-0.191,0.166-0.284,0.251c-0.078,0.072-0.156,0.144-0.232,0.22     c-0.09,0.09-0.177,0.182-0.263,0.276c-0.072,0.078-0.143,0.155-0.212,0.235c-0.084,0.098-0.163,0.199-0.243,0.301     c-0.065,0.083-0.13,0.164-0.191,0.249c-0.077,0.106-0.148,0.216-0.22,0.326c-0.057,0.087-0.115,0.172-0.169,0.261     c-0.07,0.116-0.133,0.235-0.198,0.354c-0.048,0.089-0.098,0.176-0.143,0.266c-0.063,0.128-0.119,0.26-0.176,0.392     c-0.038,0.087-0.079,0.173-0.114,0.262c-0.059,0.149-0.109,0.302-0.159,0.455c-0.025,0.076-0.055,0.15-0.078,0.228     c-0.07,0.232-0.13,0.469-0.181,0.71c-1.376,6.611-2.534,13.386-4.181,24.019c0.039-0.251-1.61,10.472-2.095,13.557     c-0.823,5.232-1.551,9.63-2.304,13.869c-0.053,0.3-0.086,0.597-0.107,0.893c-0.007,0.094-0.007,0.186-0.011,0.279     c-0.008,0.205-0.011,0.408-0.004,0.61c0.003,0.103,0.009,0.204,0.016,0.306c0.014,0.199,0.035,0.396,0.063,0.591     c0.013,0.091,0.023,0.183,0.039,0.273c0.044,0.253,0.098,0.503,0.164,0.749c0.007,0.026,0.011,0.054,0.019,0.08     c0.076,0.271,0.167,0.536,0.269,0.797c0.031,0.078,0.066,0.154,0.099,0.232c0.077,0.182,0.159,0.361,0.248,0.537     c0.044,0.088,0.091,0.174,0.138,0.259c0.092,0.166,0.189,0.328,0.292,0.488c0.05,0.077,0.098,0.155,0.15,0.231     c0.133,0.193,0.273,0.379,0.421,0.56c0.028,0.034,0.052,0.07,0.08,0.104c0.178,0.211,0.367,0.413,0.565,0.606     c0.057,0.056,0.118,0.107,0.177,0.162c0.146,0.135,0.296,0.267,0.451,0.392c0.076,0.061,0.154,0.12,0.232,0.179     c0.151,0.113,0.307,0.221,0.466,0.325c0.079,0.052,0.157,0.104,0.238,0.153c0.191,0.115,0.387,0.222,0.588,0.322     c0.052,0.026,0.102,0.056,0.154,0.081c0.235,0.112,0.475,0.214,0.722,0.305c-2.486,11.725-3.737,17.722-5.431,26.041     c-3.312,16.269-6.074,30.771-8.438,44.58c-5.686,33.208-8.767,60.737-8.794,82.966c-0.13,2.943,1.2,5.953,4.305,7.697     c0.091,0.052,0.182,0.104,0.276,0.153c0.046,0.024,0.087,0.051,0.134,0.074c16.656,8.328,37.552,13.277,62.7,15.792     c17.894,1.789,32.573,2.176,60.582,2.176s42.688-0.386,60.582-2.176c25.148-2.515,46.045-7.464,62.701-15.792     c0.047-0.023,0.088-0.05,0.134-0.074c0.093-0.049,0.184-0.101,0.276-0.153c3.106-1.744,4.436-4.754,4.305-7.697     c-0.026-22.229-3.107-49.757-8.794-82.966c-2.364-13.809-5.126-28.311-8.438-44.58c-1.694-8.319-2.945-14.316-5.431-26.041     c0.247-0.09,0.487-0.193,0.722-0.305c0.053-0.025,0.102-0.055,0.154-0.081c0.201-0.1,0.397-0.207,0.588-0.322     c0.081-0.049,0.159-0.101,0.238-0.153c0.159-0.104,0.315-0.212,0.466-0.325c0.078-0.058,0.155-0.117,0.231-0.178     c0.156-0.125,0.306-0.257,0.453-0.393c0.058-0.054,0.119-0.105,0.175-0.161c0.198-0.194,0.387-0.395,0.565-0.607     c0.028-0.033,0.053-0.07,0.08-0.104c0.148-0.181,0.288-0.367,0.421-0.56c0.052-0.076,0.1-0.154,0.15-0.231     c0.103-0.16,0.2-0.322,0.292-0.489c0.047-0.085,0.093-0.171,0.138-0.258c0.089-0.176,0.171-0.355,0.248-0.538     c0.033-0.077,0.068-0.153,0.099-0.231c0.101-0.26,0.193-0.525,0.269-0.797c0.007-0.026,0.012-0.054,0.019-0.08     c0.066-0.246,0.121-0.496,0.164-0.749c0.016-0.09,0.026-0.182,0.039-0.273c0.027-0.196,0.049-0.392,0.063-0.591     c0.007-0.102,0.012-0.204,0.016-0.306c0.006-0.202,0.004-0.406-0.004-0.61c-0.004-0.093-0.004-0.185-0.011-0.279     c-0.021-0.296-0.054-0.594-0.107-0.893c-0.754-4.239-1.481-8.637-2.304-13.869c-0.485-3.085-2.134-13.808-2.095-13.557     c-1.647-10.633-2.805-17.408-4.181-24.019c-0.05-0.241-0.111-0.478-0.181-0.71c-0.023-0.077-0.053-0.151-0.078-0.228     c-0.05-0.153-0.1-0.306-0.159-0.455c-0.035-0.09-0.077-0.176-0.115-0.264c-0.057-0.131-0.112-0.262-0.175-0.389     c-0.045-0.091-0.096-0.179-0.144-0.268c-0.064-0.119-0.127-0.238-0.197-0.353c-0.054-0.089-0.113-0.175-0.17-0.262     c-0.072-0.109-0.143-0.219-0.219-0.324c-0.062-0.086-0.128-0.168-0.193-0.252c-0.079-0.101-0.158-0.202-0.241-0.299     c-0.069-0.081-0.141-0.158-0.213-0.236c-0.086-0.093-0.173-0.186-0.263-0.275c-0.076-0.075-0.154-0.147-0.232-0.22     c-0.093-0.086-0.187-0.17-0.284-0.251c-0.082-0.069-0.165-0.135-0.249-0.201c-0.099-0.078-0.2-0.153-0.303-0.226     c-0.087-0.062-0.176-0.122-0.265-0.181c-0.105-0.069-0.212-0.135-0.32-0.199c-0.092-0.055-0.185-0.109-0.28-0.16     c-0.111-0.061-0.224-0.117-0.338-0.173c-0.096-0.047-0.193-0.093-0.291-0.137c-0.117-0.052-0.236-0.099-0.356-0.146     c-0.099-0.039-0.199-0.078-0.3-0.113c-0.123-0.042-0.247-0.08-0.372-0.117c-0.102-0.03-0.203-0.061-0.307-0.088     c-0.129-0.033-0.26-0.06-0.392-0.087c-0.102-0.021-0.204-0.044-0.307-0.061c-0.137-0.023-0.276-0.038-0.414-0.055     c-0.101-0.012-0.202-0.027-0.304-0.035c-0.021-0.002-0.041-0.006-0.062-0.007c1.262-20.202,4.647-41.162,9.411-59.94     c1.22,2.958,2.419,5.889,3.583,8.761c0.563,1.391,0.563,1.391,1.125,2.783c4.434,11.01,7.797,19.808,9.682,25.469     c2.187,6.555,10.112,46.35,21.47,106.902c0.618,3.295,0.618,3.295,1.235,6.593c4.735,25.313,9.737,52.437,14.691,79.561     c1.734,9.494,3.338,18.309,4.773,26.221c0.799,4.407,0.799,4.407,1.331,7.345c0.388,2.146,0.388,2.146,0.469,2.597     c0.815,4.518,5.059,7.582,9.605,6.932l59.733-8.533C492.355,468.552,495.629,463.899,494.64,459.083z M267.921,278.039     c0.181,0.249,0.357,0.5,0.571,0.738c2.146,2.383,3.573,5.202,4.157,8.231c0.015,0.08,0.023,0.163,0.037,0.244     c0.074,0.417,0.138,0.837,0.18,1.261c0.05,0.534,0.082,1.074,0.082,1.621V307.2c0,0.547-0.031,1.087-0.082,1.621     c-0.042,0.424-0.106,0.844-0.18,1.261c-0.014,0.081-0.022,0.163-0.037,0.244c-0.584,3.029-2.011,5.848-4.157,8.231     c-0.214,0.238-0.39,0.489-0.572,0.738c-3.086,3.072-7.34,4.972-12.039,4.972s-8.953-1.9-12.039-4.972     c-0.181-0.249-0.357-0.5-0.572-0.738c-2.146-2.383-3.573-5.202-4.157-8.231c-0.015-0.08-0.023-0.163-0.037-0.244     c-0.074-0.417-0.138-0.837-0.18-1.261c-0.05-0.534-0.082-1.074-0.082-1.621v-17.067c0-0.547,0.031-1.087,0.082-1.621     c0.042-0.424,0.106-0.844,0.18-1.261c0.014-0.081,0.022-0.163,0.037-0.244c0.584-3.029,2.011-5.848,4.157-8.231     c0.214-0.238,0.39-0.489,0.571-0.738c3.086-3.072,7.34-4.972,12.04-4.972S264.835,274.967,267.921,278.039z M295.288,72.294     c-0.136,0.548-0.273,1.096-0.411,1.643c-0.302,1.205-0.604,2.408-0.909,3.598c-0.493,1.919-0.99,3.83-1.496,5.729     c-0.059,0.222-0.118,0.444-0.177,0.666c-1.202,4.494-2.44,8.931-3.714,13.286c-10.281,35.133-21.701,60.565-32.699,71.197     c-10.998-10.632-22.418-36.063-32.699-71.197c-1.275-4.356-2.512-8.792-3.715-13.287c-0.059-0.222-0.118-0.443-0.177-0.665     c-0.506-1.899-1.003-3.811-1.496-5.729c-0.304-1.186-0.605-2.385-0.906-3.587c-0.139-0.554-0.278-1.107-0.415-1.662     c-0.33-1.332-0.66-2.669-0.986-4.019h80.79C295.949,69.619,295.619,70.959,295.288,72.294z M244.018,180.658     c0.262,0.254,0.524,0.508,0.787,0.752c0.273,0.253,0.547,0.5,0.822,0.743c0.428,0.38,0.859,0.746,1.291,1.102     c0.143,0.118,0.286,0.244,0.429,0.359v27.386c-0.073-0.034-0.15-0.075-0.224-0.109c-0.552-0.259-1.116-0.539-1.692-0.839     c-0.253-0.132-0.514-0.276-0.773-0.416c-0.419-0.227-0.842-0.461-1.273-0.708c-0.292-0.168-0.587-0.34-0.885-0.517     c-0.423-0.252-0.854-0.516-1.287-0.787c-0.3-0.187-0.597-0.369-0.901-0.565c-0.542-0.348-1.095-0.716-1.652-1.093     c-0.37-0.25-0.744-0.506-1.121-0.769c-0.552-0.384-1.108-0.775-1.674-1.186c-0.353-0.256-0.713-0.526-1.071-0.792     c-0.442-0.328-0.887-0.661-1.337-1.005c-0.384-0.294-0.771-0.593-1.161-0.898c-0.447-0.35-0.9-0.71-1.355-1.074     c-0.391-0.313-0.78-0.622-1.175-0.946c-0.539-0.44-1.086-0.899-1.634-1.36c-0.287-0.241-0.57-0.472-0.86-0.719     c-5.741-4.885-11.838-10.683-18.385-17.397c-4.282-4.392-8.606-9.015-13.462-14.353c-2.367-2.602-8.773-9.73-10.588-11.748     c-0.246-0.274-0.414-0.46-0.47-0.522c-5.762-6.544-6.5-15.431-2.946-22.535c0.119-0.235,0.24-0.468,0.368-0.699     c0.158-0.288,0.324-0.573,0.497-0.855c0.259-0.419,0.529-0.832,0.82-1.235c0.08-0.111,0.161-0.222,0.243-0.332     c0.379-0.502,0.778-0.993,1.207-1.465c0.027-0.03,0.054-0.059,0.081-0.089c0.474-0.515,0.975-1.012,1.509-1.484     c0.004-0.004,0.008-0.007,0.012-0.011c0.548-0.485,1.127-0.947,1.737-1.381l20.57-15.152     C218.785,142.187,230.431,167.547,244.018,180.658z M327.835,152.709c-0.889,0.987-8.808,9.804-11.499,12.762     c-4.856,5.338-9.179,9.961-13.462,14.353c-6.547,6.714-12.643,12.512-18.385,17.397c-0.286,0.243-0.564,0.47-0.847,0.708     c-0.553,0.464-1.106,0.928-1.649,1.372c-0.394,0.322-0.782,0.631-1.171,0.942c-0.456,0.365-0.91,0.726-1.358,1.077     c-0.39,0.304-0.776,0.603-1.16,0.897c-0.451,0.345-0.897,0.678-1.34,1.007c-0.357,0.265-0.716,0.534-1.067,0.789     c-0.567,0.411-1.124,0.803-1.678,1.188c-0.376,0.262-0.749,0.518-1.119,0.767c-0.557,0.376-1.11,0.745-1.652,1.093     c-0.305,0.196-0.602,0.378-0.901,0.565c-0.434,0.27-0.864,0.535-1.287,0.787c-0.298,0.177-0.593,0.349-0.885,0.517     c-0.431,0.247-0.854,0.481-1.273,0.708c-0.258,0.14-0.519,0.284-0.773,0.416c-0.576,0.3-1.14,0.579-1.692,0.839     c-0.073,0.034-0.151,0.076-0.224,0.109v-27.386c0.144-0.115,0.286-0.241,0.429-0.359c0.432-0.355,0.863-0.722,1.291-1.102     c0.275-0.243,0.549-0.491,0.822-0.743c0.263-0.245,0.525-0.498,0.787-0.752c13.587-13.111,25.233-38.471,35.551-72.695     l20.459,15.071C333.665,130.094,335.516,143.976,327.835,152.709z M340.81,54.02c0.014,0.417,0.052,0.839,0.13,1.268     c0.598,3.326,0.602,6.57,0.081,9.626c-2.03,10.32-10.321,19.217-23.042,20.304c-0.107,0.009-0.213,0.019-0.321,0.026     c-0.688,0.051-1.386,0.085-2.1,0.09c-0.001,0-0.001,0-0.002,0c-0.028,0-0.053,0-0.081,0c-2.062,0.014-3.857,0.02-5.868,0.018     c0.847-3.267,1.683-6.605,2.512-9.992c0.01-0.042,0.021-0.085,0.031-0.127c0.663-2.71,1.321-5.45,1.973-8.234     c0.354-1.504,0.701-3.009,1.046-4.518c0.013-0.055,0.025-0.108,0.038-0.163c0.094-0.297,0.179-0.6,0.241-0.912l0.281-1.406     c1.157-5.124,2.284-10.264,3.348-15.41c1.016-4.914,1.938-9.576,2.761-13.928c3.18,2.511,6.819,5.866,11.544,10.48     C337.298,44.925,339.71,49.399,340.81,54.02z M255.881,17.067c18.62,0,37.371,2.408,49.873,5.791L300.086,51.2h-88.409     l-5.668-28.342C218.511,19.474,237.262,17.067,255.881,17.067z M178.451,41.072c4.685-4.575,8.304-7.91,11.472-10.411     c0.824,4.353,1.745,9.016,2.762,13.93c1.065,5.146,2.191,10.286,3.348,15.41l0.281,1.406c0.062,0.312,0.147,0.614,0.241,0.912     c0.013,0.055,0.025,0.108,0.038,0.163c0.346,1.509,0.693,3.015,1.047,4.52c0.651,2.78,1.309,5.517,1.971,8.223     c0.012,0.048,0.023,0.096,0.035,0.143c0.828,3.384,1.664,6.719,2.51,9.984c-2.043,0.001-3.855-0.004-5.947-0.018     c-0.714-0.005-1.413-0.038-2.102-0.09c-0.107-0.008-0.213-0.018-0.319-0.026c-11.649-0.994-19.598-8.532-22.454-17.679     c-1.067-3.791-1.283-7.953-0.51-12.25c0.1-0.558,0.127-1.103,0.121-1.641c1.114-4.402,3.44-8.637,7.145-12.215     C178.323,41.2,178.323,41.2,178.451,41.072z M132.572,206.965c-0.57,1.408-0.57,1.408-1.139,2.819     c-4.557,11.315-8.018,20.371-10.043,26.453c-2.58,7.734-10.303,46.515-22.052,109.148c-0.619,3.299-0.619,3.299-1.237,6.602     c-4.74,25.34-9.746,52.486-14.704,79.633c-1.735,9.501-3.341,18.323-4.777,26.241c-0.132,0.731-0.243,1.34-0.338,1.862     l-42.66-6.094c7.662-38.746,29.187-151.883,31.847-165.56c2.967-15.258,5.759-29.417,8.441-42.794     c19.285-96.16,34.213-156.085,40.763-162.272c4.184-3.95,18.782-10.67,36.842-17.156c0.347,2.443,0.899,4.85,1.652,7.195     c4.415,14.478,16.384,25.83,33.009,28.67l-10.291,7.581c-17.819,12.689-21.228,38.253-6.773,54.686     c0.268,0.299,0.268,0.299,0.626,0.698c0.408,0.451,8.333,9.275,11.063,12.276c4.979,5.473,9.43,10.233,13.865,14.783     c6.895,7.072,13.366,13.226,19.559,18.495c11.578,9.851,21.821,16.369,31.122,18.933v27.909     c-5.283,1.359-10.065,3.958-14.033,7.458h-54.85c-1.81-30.609-8.241-62.845-17.101-87.948c-0.005-0.016-0.008-0.031-0.014-0.047     c-1.206-3.417-2.496-6.745-3.859-9.981c-5.226-12.407-10.502-21.44-14.164-26.496c-2.764-3.817-8.099-4.671-11.916-1.907     c-3.817,2.764-4.671,8.099-1.907,11.916c0.667,0.921,1.96,2.889,3.672,5.82c2.916,4.992,5.846,10.784,8.587,17.291     c0.821,1.949,1.601,3.949,2.361,5.972c-0.823,1.941-1.726,4.077-2.696,6.385C138.41,192.722,135.392,200.01,132.572,206.965z      M163.578,315.733c0.063-0.388,0.127-0.789,0.19-1.185c0.042-0.261,0.083-0.516,0.125-0.781c0.115-0.722,0.232-1.458,0.35-2.211     c0.491-3.12,2.144-13.875,2.101-13.597c1.046-6.75,1.884-11.877,2.701-16.359h53.777c-0.343,1.333-0.597,2.701-0.778,4.092     c-0.011,0.081-0.021,0.162-0.031,0.243c-0.07,0.57-0.126,1.144-0.167,1.722c-0.011,0.147-0.025,0.294-0.034,0.441     c-0.04,0.674-0.066,1.352-0.066,2.036V307.2c0,0.684,0.026,1.362,0.066,2.036c0.009,0.148,0.023,0.294,0.034,0.441     c0.042,0.578,0.097,1.152,0.167,1.722c0.01,0.081,0.02,0.162,0.031,0.243c0.181,1.391,0.435,2.759,0.778,4.092H163.578z      M153.499,405.786c2.331-13.614,5.061-27.949,8.34-44.056c1.821-8.946,3.131-15.204,6.045-28.93h65.431     c3.968,3.5,8.75,6.099,14.033,7.458v43.503c0,0.013,0,0.026,0,0.038c0,0.852-0.011,1.699-0.032,2.542     c-0.007,0.296-0.022,0.589-0.032,0.885c-0.018,0.557-0.036,1.116-0.063,1.669c-0.017,0.349-0.042,0.695-0.063,1.043     c-0.029,0.494-0.057,0.989-0.094,1.48c-0.028,0.372-0.063,0.74-0.095,1.11c-0.04,0.463-0.078,0.927-0.124,1.387     c-0.038,0.381-0.083,0.759-0.126,1.138c-0.05,0.443-0.098,0.887-0.154,1.328c-0.049,0.386-0.103,0.769-0.157,1.153     c-0.059,0.429-0.118,0.859-0.183,1.286c-0.059,0.386-0.123,0.769-0.187,1.153c-0.069,0.421-0.139,0.841-0.214,1.259     c-0.069,0.383-0.142,0.765-0.216,1.146c-0.079,0.411-0.159,0.822-0.243,1.231c-0.079,0.384-0.163,0.766-0.247,1.147     c-0.088,0.402-0.178,0.804-0.272,1.203c-0.089,0.381-0.182,0.761-0.276,1.14c-0.098,0.393-0.197,0.786-0.3,1.177     c-0.1,0.379-0.202,0.757-0.306,1.133c-0.107,0.387-0.217,0.773-0.329,1.157c-0.109,0.375-0.221,0.748-0.335,1.12     c-0.116,0.38-0.235,0.758-0.357,1.134c-0.119,0.372-0.24,0.743-0.364,1.112c-0.125,0.373-0.254,0.743-0.384,1.113     c-0.129,0.368-0.259,0.735-0.393,1.1c-0.134,0.365-0.272,0.729-0.411,1.091c-0.139,0.364-0.279,0.728-0.423,1.089     c-0.142,0.357-0.289,0.711-0.436,1.066c-0.15,0.362-0.299,0.725-0.454,1.084c-0.15,0.349-0.305,0.694-0.46,1.04     c-0.16,0.358-0.319,0.717-0.483,1.072c-0.159,0.343-0.323,0.682-0.486,1.022c-0.17,0.353-0.337,0.708-0.512,1.058     c-0.166,0.334-0.339,0.664-0.509,0.996c-0.181,0.351-0.359,0.704-0.544,1.052c-0.172,0.323-0.35,0.641-0.526,0.961     c-0.193,0.35-0.382,0.703-0.58,1.05c-0.175,0.308-0.357,0.612-0.536,0.918c-0.207,0.354-0.411,0.709-0.623,1.06     c-0.166,0.274-0.339,0.544-0.508,0.816c-0.862,1.388-1.765,2.75-2.706,4.084c-0.179,0.253-0.353,0.509-0.535,0.76     c-0.25,0.345-0.507,0.685-0.762,1.027c-0.201,0.269-0.398,0.54-0.602,0.807c-0.255,0.333-0.517,0.661-0.777,0.991     c-0.211,0.268-0.42,0.538-0.635,0.804c-0.264,0.326-0.534,0.647-0.803,0.969c-0.22,0.263-0.437,0.528-0.66,0.789     c-0.272,0.318-0.55,0.632-0.827,0.947c-0.228,0.259-0.454,0.518-0.685,0.775c-0.28,0.311-0.566,0.618-0.852,0.925     c-0.235,0.253-0.47,0.508-0.709,0.758c-0.289,0.304-0.583,0.605-0.878,0.905c-0.243,0.248-0.485,0.496-0.731,0.741     c-0.298,0.297-0.6,0.591-0.903,0.885c-0.25,0.242-0.5,0.483-0.753,0.723c-0.307,0.29-0.617,0.578-0.928,0.864     c-0.256,0.236-0.514,0.471-0.773,0.704c-0.316,0.284-0.636,0.566-0.957,0.846c-0.262,0.229-0.526,0.457-0.792,0.683     c-0.325,0.277-0.653,0.552-0.982,0.825c-0.269,0.223-0.539,0.444-0.811,0.664c-0.335,0.271-0.672,0.541-1.012,0.808     c-0.272,0.214-0.546,0.426-0.822,0.637c-0.347,0.267-0.696,0.532-1.047,0.794c-0.276,0.206-0.555,0.409-0.834,0.613     c-0.357,0.26-0.715,0.52-1.076,0.776c-0.281,0.199-0.565,0.395-0.848,0.591c-0.368,0.255-0.736,0.509-1.109,0.759     c-0.282,0.189-0.568,0.376-0.853,0.563c-0.381,0.25-0.761,0.5-1.146,0.745c-0.284,0.181-0.571,0.357-0.858,0.536     c-0.394,0.245-0.787,0.491-1.186,0.731c-0.281,0.169-0.565,0.334-0.848,0.501c-0.412,0.243-0.823,0.487-1.239,0.724     c-0.269,0.154-0.542,0.303-0.814,0.454c-0.437,0.244-0.874,0.49-1.316,0.729c-0.24,0.13-0.485,0.255-0.727,0.383     c-0.48,0.254-0.959,0.509-1.445,0.757c-0.158,0.081-0.319,0.158-0.478,0.238c-1.99,1.002-4.027,1.954-6.115,2.849     c-0.014,0.006-0.027,0.012-0.041,0.018c-0.563,0.241-1.132,0.474-1.702,0.707c-0.209,0.085-0.415,0.174-0.625,0.258     c-0.519,0.208-1.044,0.41-1.569,0.612c-0.267,0.103-0.531,0.208-0.8,0.309c-0.503,0.189-1.011,0.372-1.519,0.555     c-0.295,0.107-0.589,0.216-0.886,0.32c-0.497,0.175-1,0.344-1.502,0.513c-0.314,0.106-0.626,0.213-0.941,0.317     c-0.497,0.163-0.998,0.321-1.5,0.478c-0.326,0.102-0.651,0.206-0.979,0.306c-0.499,0.152-1.001,0.299-1.504,0.446     c-0.338,0.098-0.675,0.198-1.014,0.293c-0.5,0.141-1.003,0.278-1.507,0.413c-0.349,0.094-0.697,0.188-1.048,0.279     c-0.504,0.131-1.012,0.258-1.52,0.384c-0.354,0.088-0.709,0.175-1.065,0.26c-0.512,0.122-1.026,0.241-1.542,0.358     c-0.358,0.081-0.717,0.161-1.078,0.24c-0.518,0.113-1.039,0.223-1.562,0.33c-0.364,0.075-0.73,0.148-1.096,0.221     c-0.526,0.104-1.053,0.205-1.582,0.303c-0.366,0.068-0.733,0.134-1.101,0.199c-0.535,0.095-1.071,0.187-1.61,0.276     c-0.369,0.061-0.74,0.119-1.11,0.178c-0.544,0.085-1.089,0.169-1.636,0.249c-0.368,0.054-0.738,0.104-1.108,0.155     c-0.557,0.077-1.114,0.152-1.675,0.223c-0.363,0.046-0.729,0.088-1.094,0.132c-0.571,0.068-1.143,0.135-1.719,0.197     c-0.359,0.039-0.72,0.073-1.081,0.109c-0.587,0.059-1.175,0.118-1.766,0.17c-0.344,0.031-0.691,0.057-1.036,0.085     c-0.613,0.05-1.227,0.101-1.844,0.144c-0.32,0.023-0.644,0.041-0.966,0.061c-0.646,0.042-1.291,0.083-1.941,0.117     c-0.035,0.002-0.07,0.003-0.105,0.005C145.792,457.791,148.68,433.933,153.499,405.786z M324.997,491.402     c-3.313,0.452-6.724,0.852-10.232,1.203c-17.154,1.715-31.427,2.091-58.884,2.091s-41.731-0.376-58.884-2.091     c-7.015-0.701-13.644-1.601-19.878-2.714c1.313-0.328,2.612-0.676,3.903-1.036c0.251-0.07,0.498-0.145,0.748-0.216     c1.152-0.328,2.295-0.669,3.429-1.023c0.355-0.111,0.709-0.222,1.062-0.335c1.18-0.378,2.349-0.769,3.508-1.175     c0.181-0.063,0.364-0.123,0.544-0.187c1.347-0.478,2.679-0.976,3.997-1.491c0.253-0.099,0.502-0.203,0.754-0.303     c1.06-0.422,2.111-0.856,3.152-1.302c0.333-0.143,0.665-0.286,0.996-0.431c1.115-0.489,2.22-0.99,3.312-1.506     c0.148-0.07,0.298-0.136,0.446-0.207c1.249-0.596,2.48-1.212,3.697-1.843c0.25-0.13,0.495-0.264,0.744-0.395     c0.966-0.51,1.923-1.031,2.869-1.563c0.308-0.173,0.617-0.347,0.923-0.523c1.043-0.599,2.075-1.21,3.093-1.836     c0.117-0.072,0.237-0.141,0.354-0.213c1.142-0.708,2.265-1.436,3.374-2.178c0.242-0.162,0.48-0.329,0.721-0.493     c0.868-0.591,1.726-1.192,2.573-1.803c0.283-0.205,0.567-0.409,0.848-0.616c0.964-0.709,1.915-1.43,2.85-2.166     c0.087-0.068,0.176-0.134,0.262-0.202c1.028-0.815,2.036-1.649,3.029-2.496c0.231-0.197,0.457-0.398,0.685-0.596     c0.768-0.666,1.525-1.342,2.271-2.028c0.254-0.234,0.509-0.467,0.761-0.703c0.879-0.824,1.745-1.659,2.593-2.509     c0.055-0.055,0.112-0.109,0.167-0.164c0.908-0.916,1.794-1.851,2.665-2.798c0.213-0.232,0.422-0.468,0.633-0.701     c0.666-0.737,1.32-1.484,1.964-2.239c0.223-0.262,0.446-0.523,0.666-0.786c0.785-0.941,1.557-1.892,2.306-2.861     c0.027-0.035,0.055-0.069,0.082-0.104c0.782-1.012,1.539-2.043,2.281-3.085c0.19-0.267,0.375-0.537,0.562-0.805     c0.561-0.804,1.111-1.616,1.648-2.437c0.189-0.289,0.379-0.576,0.565-0.867c0.682-1.065,1.351-2.14,1.993-3.233     c0.001-0.002,0.003-0.005,0.004-0.007c0.648-1.104,1.27-2.225,1.877-3.356c0.162-0.301,0.318-0.606,0.477-0.909     c0.453-0.866,0.895-1.74,1.324-2.622c0.153-0.315,0.308-0.629,0.458-0.946c0.549-1.16,1.085-2.329,1.592-3.515     c0.507,1.186,1.042,2.355,1.592,3.515c0.15,0.317,0.305,0.631,0.458,0.946c0.429,0.882,0.87,1.756,1.324,2.622     c0.159,0.303,0.315,0.608,0.477,0.909c0.607,1.131,1.229,2.252,1.877,3.356c0.001,0.002,0.003,0.005,0.004,0.007     c0.642,1.093,1.311,2.167,1.993,3.233c0.186,0.291,0.376,0.578,0.565,0.867c0.538,0.821,1.087,1.633,1.648,2.437     c0.187,0.269,0.372,0.539,0.562,0.805c0.742,1.042,1.499,2.072,2.281,3.085c0.027,0.035,0.055,0.069,0.082,0.104     c0.749,0.968,1.521,1.919,2.306,2.861c0.22,0.264,0.444,0.525,0.666,0.786c0.643,0.755,1.298,1.502,1.964,2.239     c0.211,0.234,0.419,0.469,0.633,0.701c0.871,0.947,1.756,1.882,2.665,2.798c0.055,0.055,0.112,0.109,0.167,0.164     c0.847,0.851,1.714,1.685,2.593,2.509c0.252,0.236,0.507,0.469,0.761,0.703c0.746,0.686,1.503,1.361,2.271,2.028     c0.229,0.198,0.455,0.399,0.685,0.596c0.993,0.847,2.001,1.681,3.029,2.496c0.086,0.068,0.176,0.134,0.262,0.202     c0.935,0.736,1.887,1.457,2.85,2.166c0.281,0.207,0.564,0.411,0.848,0.616c0.847,0.612,1.705,1.213,2.573,1.803     c0.241,0.164,0.479,0.33,0.721,0.493c1.109,0.742,2.232,1.47,3.374,2.178c0.117,0.072,0.237,0.141,0.354,0.213     c1.018,0.626,2.049,1.237,3.093,1.836c0.306,0.176,0.614,0.349,0.923,0.523c0.946,0.532,1.902,1.053,2.869,1.563     c0.249,0.131,0.494,0.265,0.744,0.395c1.217,0.632,2.449,1.247,3.697,1.843c0.147,0.07,0.298,0.137,0.446,0.207     c1.092,0.516,2.197,1.017,3.312,1.506c0.331,0.145,0.663,0.288,0.996,0.431c1.041,0.446,2.092,0.88,3.152,1.302     c0.252,0.1,0.501,0.204,0.754,0.303c1.318,0.515,2.65,1.013,3.997,1.491c0.18,0.064,0.364,0.124,0.544,0.187     c1.159,0.406,2.328,0.797,3.508,1.175c0.353,0.113,0.707,0.225,1.062,0.335c1.134,0.354,2.277,0.695,3.429,1.023     c0.25,0.071,0.497,0.146,0.748,0.216c1.291,0.36,2.59,0.708,3.903,1.036C331.527,490.448,328.311,490.951,324.997,491.402z      M366.656,477.404c-0.035-0.002-0.07-0.003-0.105-0.005c-0.65-0.034-1.296-0.076-1.941-0.117     c-0.322-0.021-0.645-0.039-0.966-0.061c-0.618-0.043-1.231-0.094-1.844-0.144c-0.345-0.028-0.692-0.055-1.036-0.085     c-0.592-0.052-1.179-0.111-1.767-0.17c-0.36-0.036-0.721-0.071-1.08-0.109c-0.576-0.062-1.148-0.129-1.72-0.197     c-0.365-0.043-0.73-0.086-1.093-0.132c-0.561-0.071-1.118-0.146-1.675-0.223c-0.37-0.051-0.739-0.102-1.107-0.155     c-0.548-0.08-1.094-0.164-1.638-0.249c-0.37-0.058-0.741-0.117-1.109-0.177c-0.539-0.089-1.076-0.182-1.611-0.276     c-0.368-0.065-0.735-0.131-1.101-0.199c-0.529-0.098-1.057-0.199-1.582-0.303c-0.366-0.072-0.732-0.146-1.096-0.221     c-0.523-0.107-1.043-0.217-1.562-0.33c-0.36-0.078-0.718-0.159-1.076-0.24c-0.516-0.117-1.031-0.236-1.544-0.358     c-0.356-0.085-0.71-0.172-1.064-0.26c-0.509-0.126-1.016-0.253-1.52-0.384c-0.351-0.091-0.699-0.185-1.048-0.279     c-0.504-0.136-1.007-0.272-1.507-0.413c-0.34-0.096-0.677-0.195-1.014-0.293c-0.503-0.147-1.006-0.294-1.504-0.446     c-0.328-0.1-0.653-0.204-0.979-0.306c-0.501-0.158-1.003-0.315-1.5-0.478c-0.315-0.104-0.628-0.211-0.941-0.317     c-0.502-0.169-1.005-0.338-1.502-0.513c-0.297-0.105-0.591-0.214-0.886-0.32c-0.508-0.183-1.016-0.366-1.519-0.555     c-0.267-0.101-0.531-0.206-0.796-0.308c-0.526-0.203-1.053-0.404-1.573-0.613c-0.205-0.083-0.407-0.169-0.611-0.252     c-0.574-0.235-1.148-0.47-1.716-0.712c-0.003-0.001-0.006-0.003-0.01-0.004c-2.105-0.901-4.158-1.861-6.163-2.871     c-0.152-0.077-0.307-0.151-0.459-0.228c-0.49-0.25-0.972-0.507-1.456-0.763c-0.238-0.126-0.479-0.25-0.716-0.377     c-0.444-0.24-0.882-0.486-1.321-0.732c-0.27-0.151-0.542-0.299-0.81-0.452c-0.417-0.238-0.828-0.482-1.239-0.724     c-0.283-0.167-0.568-0.332-0.848-0.501c-0.399-0.24-0.792-0.486-1.186-0.731c-0.286-0.178-0.574-0.355-0.858-0.536     c-0.385-0.245-0.766-0.495-1.146-0.745c-0.285-0.187-0.571-0.373-0.853-0.563c-0.373-0.251-0.742-0.505-1.111-0.76     c-0.283-0.196-0.566-0.391-0.846-0.589c-0.363-0.257-0.722-0.518-1.081-0.779c-0.277-0.202-0.554-0.404-0.829-0.609     c-0.353-0.264-0.703-0.53-1.052-0.798c-0.273-0.21-0.546-0.421-0.817-0.633c-0.341-0.268-0.68-0.539-1.016-0.811     c-0.271-0.219-0.541-0.44-0.809-0.662c-0.33-0.273-0.658-0.549-0.983-0.826c-0.266-0.226-0.529-0.454-0.792-0.683     c-0.321-0.28-0.641-0.562-0.957-0.846c-0.259-0.232-0.515-0.467-0.771-0.702c-0.313-0.287-0.624-0.576-0.932-0.867     c-0.252-0.238-0.501-0.479-0.75-0.72c-0.303-0.294-0.606-0.588-0.904-0.886c-0.246-0.245-0.488-0.493-0.731-0.741     c-0.294-0.3-0.588-0.601-0.878-0.905c-0.239-0.251-0.473-0.505-0.709-0.758c-0.285-0.307-0.571-0.614-0.852-0.925     c-0.231-0.256-0.457-0.516-0.685-0.775c-0.277-0.315-0.555-0.628-0.827-0.947c-0.223-0.261-0.441-0.526-0.66-0.789     c-0.269-0.322-0.539-0.643-0.803-0.969c-0.215-0.266-0.424-0.536-0.635-0.804c-0.26-0.33-0.522-0.658-0.777-0.991     c-0.204-0.267-0.402-0.538-0.602-0.807c-0.255-0.342-0.512-0.681-0.762-1.027c-0.182-0.251-0.356-0.507-0.535-0.76     c-0.942-1.334-1.844-2.695-2.706-4.084c-0.169-0.272-0.342-0.542-0.508-0.816c-0.212-0.35-0.416-0.706-0.623-1.06     c-0.179-0.306-0.361-0.609-0.536-0.918c-0.197-0.347-0.387-0.7-0.58-1.05c-0.176-0.32-0.354-0.639-0.526-0.961     c-0.185-0.348-0.364-0.701-0.544-1.052c-0.17-0.331-0.343-0.662-0.509-0.996c-0.175-0.351-0.343-0.707-0.513-1.061     c-0.162-0.338-0.326-0.675-0.484-1.016c-0.166-0.357-0.326-0.718-0.486-1.078c-0.154-0.344-0.308-0.688-0.458-1.035     c-0.155-0.359-0.304-0.722-0.454-1.084c-0.147-0.354-0.294-0.709-0.436-1.066c-0.144-0.361-0.283-0.725-0.423-1.089     c-0.139-0.363-0.277-0.726-0.411-1.091c-0.134-0.365-0.264-0.732-0.393-1.1c-0.13-0.37-0.259-0.741-0.384-1.113     c-0.124-0.369-0.245-0.74-0.364-1.112c-0.121-0.377-0.24-0.755-0.357-1.134c-0.114-0.372-0.225-0.746-0.335-1.12     c-0.112-0.384-0.222-0.77-0.329-1.157c-0.104-0.377-0.207-0.755-0.306-1.134c-0.102-0.389-0.201-0.78-0.299-1.172     c-0.095-0.381-0.188-0.763-0.278-1.146c-0.093-0.398-0.183-0.798-0.271-1.198c-0.084-0.382-0.168-0.764-0.247-1.149     c-0.084-0.409-0.164-0.82-0.243-1.231c-0.073-0.381-0.147-0.762-0.216-1.146c-0.075-0.418-0.144-0.839-0.214-1.259     c-0.063-0.384-0.128-0.767-0.187-1.153c-0.065-0.427-0.124-0.856-0.183-1.286c-0.053-0.384-0.108-0.767-0.157-1.153     c-0.055-0.441-0.104-0.884-0.154-1.328c-0.042-0.379-0.087-0.757-0.126-1.138c-0.046-0.46-0.084-0.924-0.124-1.387     c-0.032-0.37-0.067-0.738-0.095-1.11c-0.037-0.491-0.064-0.986-0.094-1.48c-0.021-0.348-0.046-0.694-0.063-1.043     c-0.027-0.554-0.044-1.112-0.063-1.669c-0.01-0.295-0.025-0.588-0.032-0.885c-0.021-0.843-0.031-1.691-0.032-2.542     c0-0.013,0-0.026,0-0.038v-43.503c5.283-1.359,10.065-3.958,14.033-7.458h65.431c2.914,13.726,4.224,19.984,6.045,28.93     c3.279,16.107,6.009,30.442,8.34,44.056C363.083,433.933,365.971,457.791,366.656,477.404z M341.437,281.6     c2.097,4.482,2.936,9.609,3.981,16.359c-0.043-0.278,1.61,10.477,2.101,13.597c0.12,0.764,0.238,1.508,0.355,2.24     c0.035,0.218,0.069,0.429,0.103,0.645c0.069,0.433,0.139,0.87,0.207,1.293H288.94c0.343-1.333,0.597-2.702,0.778-4.093     c0.011-0.08,0.02-0.16,0.03-0.24c0.07-0.571,0.126-1.145,0.167-1.724c0.011-0.147,0.025-0.294,0.034-0.441     c0.04-0.674,0.066-1.352,0.066-2.036v-17.067c0-0.684-0.026-1.362-0.066-2.036c-0.009-0.148-0.023-0.294-0.034-0.441     c-0.042-0.579-0.097-1.153-0.167-1.724c-0.01-0.08-0.02-0.16-0.03-0.24c-0.181-1.391-0.435-2.76-0.778-4.093H341.437z      M433.481,459.723c-0.095-0.522-0.205-1.132-0.338-1.862c-1.436-7.918-3.042-16.74-4.777-26.241     c-4.958-27.146-9.964-54.293-14.704-79.633c-0.618-3.302-0.618-3.302-1.237-6.602c-11.749-62.633-19.471-101.415-22.053-109.153     c-2.024-6.077-5.484-15.133-10.042-26.448c-0.569-1.411-0.569-1.411-1.139-2.819c-2.82-6.955-5.838-14.243-8.856-21.425     c-0.97-2.308-1.872-4.444-2.696-6.385c0.76-2.023,1.54-4.023,2.361-5.972c2.741-6.507,5.671-12.299,8.587-17.291     c1.712-2.931,3.004-4.899,3.672-5.82c2.764-3.817,1.911-9.152-1.907-11.916c-3.817-2.764-9.152-1.911-11.916,1.907     c-3.661,5.056-8.938,14.089-14.164,26.496c-1.363,3.236-2.653,6.564-3.859,9.981c-0.005,0.016-0.009,0.031-0.014,0.047     c-8.86,25.103-15.291,57.34-17.101,87.948h-54.85c-3.968-3.5-8.75-6.099-14.033-7.458v-27.909     c9.302-2.565,19.544-9.083,31.122-18.933c6.193-5.269,12.664-11.423,19.559-18.495c4.436-4.55,8.887-9.31,13.865-14.783     c2.426-2.667,8.939-9.915,10.67-11.84c0.219-0.244,0.373-0.415,0.42-0.466c0.332-0.369,0.332-0.369,0.506-0.564     c14.093-16.021,11.334-40.513-5.153-53.637c-0.532-0.423-1.078-0.835-1.638-1.234l-10.18-7.5     c16.896-2.886,28.991-14.562,33.227-29.38c0.64-2.122,1.099-4.296,1.409-6.495c18.071,6.49,32.681,13.214,36.868,17.166     c6.549,6.185,21.478,66.111,40.762,162.27c2.683,13.377,5.474,27.536,8.441,42.794c2.66,13.676,24.185,126.813,31.847,165.56     L433.481,459.723z"/>
		</g>
	</g>
</g>
<g>
</g>
<g>
</g>
<g>
</g>
<g>
</g>
<g>
</g>
<g>
</g>
<g>
</g>
<g>
</g>
<g>
</g>
<g>
</g>
<g>
</g>
<g>
</g>
<g>
</g>
<g>
</g>
<g>
</g>
</svg>
