<?xml version="1.0" encoding="iso-8859-1"?>
<!-- Generator: Adobe Illustrator 19.0.0, SVG Export Plug-In . SVG Version: 6.00 Build 0)  -->
<svg xmlns="http://www.w3.org/2000/svg" xmlns:xlink="http://www.w3.org/1999/xlink" version="1.1" id="Layer_1" x="0px" y="0px" viewBox="0 0 512.004 512.004" style="enable-background:new 0 0 512.004 512.004;" xml:space="preserve">
<g transform="translate(0 -1)">
	<g>
		<path d="M494.761,460.087c-5.149-25.065-30.659-159.182-33.594-174.272c-2.973-15.289-5.771-29.48-8.461-42.891    C431.419,136.777,417.722,81.795,406.928,71.6c-8.284-7.823-30.987-19.546-51.973-26.694l-32.56-40.7    c-0.005-0.007-0.012-0.013-0.017-0.019c-0.174-0.219-0.365-0.423-0.56-0.624c-0.038-0.039-0.075-0.081-0.114-0.119    c-0.207-0.206-0.427-0.399-0.656-0.583c-0.019-0.015-0.037-0.029-0.056-0.044c-0.894-0.708-1.944-1.24-3.125-1.536    c-0.122-0.031-0.245-0.058-0.368-0.084c-0.203-0.041-0.404-0.085-0.614-0.112c-0.344-0.047-0.69-0.072-1.037-0.076    C315.809,1.008,315.772,1,315.732,1H196.265c-0.04,0-0.077,0.008-0.117,0.009c-0.347,0.005-0.693,0.03-1.037,0.076    c-0.21,0.027-0.411,0.071-0.614,0.112c-0.123,0.026-0.246,0.052-0.368,0.084c-1.181,0.297-2.23,0.828-3.125,1.536    c-0.019,0.015-0.037,0.029-0.056,0.044c-0.229,0.185-0.448,0.377-0.656,0.583c-0.039,0.038-0.075,0.08-0.114,0.119    c-0.195,0.202-0.386,0.405-0.56,0.624c-0.006,0.007-0.012,0.013-0.017,0.019L157.04,44.909    c-20.985,7.146-43.678,18.866-51.964,26.691c-10.794,10.194-24.491,65.177-45.779,171.324c-2.69,13.411-5.487,27.603-8.461,42.891    c-2.935,15.09-28.445,149.207-33.594,174.272c-0.989,4.816,2.285,9.469,7.152,10.165l59.733,8.533    c4.545,0.649,8.789-2.414,9.604-6.932c0.081-0.451,0.081-0.451,0.469-2.597c0.532-2.938,0.532-2.938,1.331-7.345    c1.435-7.911,3.039-16.727,4.773-26.221c4.954-27.124,9.956-54.249,14.691-79.562c0.615-3.285,0.615-3.285,1.23-6.568    c11.36-60.568,19.283-100.37,21.467-106.927c1.887-5.656,5.253-14.458,9.691-25.473c0.557-1.382,0.557-1.382,1.116-2.761    c1.167-2.877,2.368-5.814,3.591-8.778c5.383,21.219,9.005,45.225,9.794,67.774l-9.708,50.258    c-14.571,65.299-24.113,123.771-24.173,163.372c-0.162,2.973,1.167,6.028,4.308,7.79c0.089,0.051,0.178,0.101,0.269,0.149    c0.046,0.024,0.087,0.051,0.133,0.074c16.656,8.328,37.552,13.277,62.7,15.792c17.894,1.789,32.573,2.176,60.582,2.176    s42.688-0.386,60.582-2.176c25.148-2.515,46.045-7.464,62.701-15.792c0.031-0.015,0.057-0.033,0.088-0.049    c0.133-0.069,0.263-0.142,0.393-0.218c0.151-0.086,0.298-0.175,0.441-0.268c0.023-0.016,0.047-0.031,0.07-0.047    c2.656-1.757,3.816-4.519,3.728-7.237c-0.029-39.613-9.593-98.235-24.234-163.808l-0.935-4.845l-0.664-3.45    c-0.003-0.014-0.007-0.027-0.01-0.04l-8.048-41.681c0.788-22.544,4.413-46.55,9.801-67.775c1.22,2.96,2.42,5.892,3.585,8.765    c0.561,1.386,0.561,1.386,1.121,2.774c4.436,11.014,7.8,19.815,9.686,25.475c2.187,6.557,10.111,46.352,21.47,106.905    c0.617,3.293,0.617,3.293,1.234,6.589c4.735,25.313,9.737,52.437,14.692,79.562c1.734,9.494,3.338,18.31,4.773,26.221    c0.799,4.407,0.799,4.407,1.331,7.345c0.388,2.146,0.388,2.146,0.469,2.597c0.815,4.518,5.059,7.581,9.604,6.932l59.733-8.533    C492.476,469.557,495.75,464.903,494.761,460.087z M339.119,53.84c-2.641,3.591-6.37,8.167-10.32,12.634    c-4.344,4.912-8.594,9.255-12.185,12.552c-3.819,3.506-6.891,5.828-8.51,6.351c-2.763,0.892-5.502,1.272-8.401,1.137    c-4.834-0.225-10.115-1.879-16.693-4.972c-0.592-0.278-1.178-0.558-1.781-0.851c-1.799-0.876-3.762-1.874-6.513-3.298    c-0.687-0.356-0.687-0.356-1.377-0.714c-1.29-0.669-2.448-1.266-3.51-1.809l22.223-25.362l23.382-26.683l24.222,30.278    C339.485,53.341,339.306,53.587,339.119,53.84z M228.991,81.54c-7.239,3.403-12.906,5.065-18.136,4.998    c-2.376-0.031-4.662-0.418-6.964-1.162c-1.032-0.333-2.662-1.407-4.693-3.042c-4.143-3.339-9.983-9.057-16-15.86    c-3.951-4.467-7.679-9.043-10.32-12.634c-0.071-0.097-0.136-0.188-0.206-0.282c-0.114-0.156-0.222-0.306-0.33-0.456l24.221-30.276    l23.382,26.683l22.223,25.362c-1.062,0.543-2.22,1.141-3.51,1.809c-0.765,0.396-0.765,0.396-1.524,0.79    c-3.084,1.596-5.189,2.66-7.201,3.625C229.619,81.244,229.306,81.392,228.991,81.54z M296.91,18.067l-17.666,20.161    l-23.245,26.526l-23.245-26.526l-17.666-20.161H296.91z M132.686,207.986c-0.566,1.396-0.566,1.396-1.13,2.797    c-4.56,11.318-8.024,20.375-10.052,26.454c-2.579,7.745-10.302,46.538-22.05,109.178c-0.616,3.286-0.616,3.286-1.232,6.576    c-4.739,25.34-9.745,52.487-14.704,79.633c-1.735,9.501-3.341,18.323-4.777,26.241c-0.132,0.731-0.243,1.34-0.338,1.862    l-42.66-6.094c7.662-38.746,29.187-151.883,31.847-165.56c2.967-15.258,5.759-29.417,8.441-42.794    c19.285-96.16,34.213-156.085,40.763-162.271c5.682-5.366,23.523-14.766,40.999-21.253c0.138,0.188,0.295,0.39,0.44,0.583    c0.138,0.184,0.275,0.367,0.418,0.555c0.196,0.257,0.4,0.52,0.607,0.786c0.137,0.176,0.279,0.356,0.422,0.535    c0.78,0.987,1.634,2.033,2.561,3.142c0.104,0.125,0.208,0.249,0.314,0.375c0.328,0.391,0.665,0.789,1.011,1.196    c0.023,0.028,0.048,0.056,0.071,0.083c1.968,2.311,4.212,4.873,6.774,7.77c7.017,7.934,13.497,14.376,19.14,18.653    c3.346,2.537,6.398,4.313,9.091,5.183c3.836,1.238,7.573,1.896,11.328,2.014c8.26,0.259,16.607-2.097,26.28-6.644    c0.349-0.164,0.695-0.329,1.042-0.495c2.283-1.091,4.59-2.259,8.036-4.044c0.656-0.34,0.656-0.34,1.308-0.678    c0.286-0.148,0.557-0.289,0.829-0.43v293.664c0,2.64-0.099,5.238-0.292,7.792c-0.006,0.084-0.015,0.167-0.021,0.25    c-0.059,0.749-0.125,1.496-0.2,2.237c-0.017,0.172-0.038,0.342-0.057,0.514c-0.069,0.649-0.143,1.296-0.224,1.939    c-0.03,0.235-0.064,0.467-0.095,0.701c-0.077,0.574-0.157,1.147-0.245,1.717c-0.043,0.281-0.09,0.561-0.136,0.841    c-0.084,0.518-0.17,1.034-0.263,1.548c-0.057,0.315-0.117,0.628-0.177,0.941c-0.09,0.472-0.182,0.942-0.279,1.41    c-0.072,0.346-0.147,0.69-0.222,1.034c-0.094,0.429-0.19,0.857-0.29,1.284c-0.087,0.372-0.178,0.742-0.269,1.112    c-0.097,0.39-0.195,0.779-0.297,1.167c-0.104,0.397-0.211,0.793-0.321,1.187c-0.098,0.354-0.198,0.706-0.3,1.057    c-0.122,0.42-0.247,0.839-0.375,1.255c-0.097,0.317-0.197,0.632-0.297,0.947c-0.142,0.445-0.286,0.888-0.435,1.329    c-0.094,0.278-0.19,0.555-0.287,0.832c-0.164,0.47-0.33,0.939-0.502,1.405c-0.088,0.237-0.178,0.473-0.267,0.71    c-0.189,0.498-0.38,0.996-0.577,1.489c-0.077,0.192-0.156,0.382-0.234,0.573c-0.218,0.532-0.438,1.062-0.665,1.588    c-0.06,0.139-0.123,0.276-0.183,0.415c-0.252,0.572-0.506,1.143-0.77,1.708c-0.034,0.073-0.069,0.144-0.103,0.217    c-4.442,9.455-10.556,17.886-18.13,25.128c-0.013,0.012-0.026,0.025-0.039,0.037c-0.525,0.501-1.057,0.997-1.596,1.486    c-0.028,0.025-0.056,0.051-0.083,0.076c-0.528,0.479-1.064,0.953-1.605,1.421c-0.039,0.034-0.079,0.068-0.119,0.102    c-0.533,0.459-1.072,0.912-1.617,1.36c-0.051,0.042-0.103,0.084-0.154,0.126c-0.538,0.44-1.082,0.875-1.632,1.305    c-0.06,0.047-0.121,0.094-0.181,0.141c-0.546,0.424-1.097,0.843-1.654,1.256c-0.067,0.05-0.134,0.099-0.202,0.148    c-0.555,0.409-1.114,0.813-1.68,1.212c-0.071,0.05-0.144,0.1-0.215,0.15c-0.566,0.396-1.136,0.788-1.714,1.174    c-0.072,0.048-0.145,0.095-0.217,0.143c-0.58,0.385-1.164,0.767-1.755,1.142c-0.07,0.044-0.141,0.088-0.212,0.132    c-0.597,0.377-1.199,0.749-1.807,1.115c-0.058,0.035-0.117,0.069-0.175,0.104c-0.623,0.373-1.251,0.742-1.886,1.103    c-0.032,0.018-0.065,0.036-0.097,0.054c-3.311,1.882-6.78,3.605-10.393,5.168c-0.118,0.051-0.234,0.105-0.353,0.155    c-0.476,0.204-0.959,0.401-1.441,0.599c-0.303,0.125-0.604,0.253-0.909,0.375c-0.414,0.166-0.833,0.326-1.251,0.488    c-0.38,0.148-0.759,0.298-1.142,0.442c-0.38,0.143-0.765,0.281-1.148,0.42c-0.427,0.156-0.854,0.313-1.285,0.464    c-0.36,0.127-0.724,0.248-1.086,0.372c-0.461,0.157-0.922,0.315-1.387,0.467c-0.346,0.113-0.695,0.222-1.042,0.333    c-0.488,0.155-0.977,0.31-1.47,0.46c-0.335,0.102-0.672,0.2-1.009,0.299c-0.514,0.151-1.028,0.302-1.546,0.447    c-0.324,0.091-0.651,0.179-0.977,0.268c-0.536,0.146-1.073,0.29-1.613,0.43c-0.318,0.082-0.638,0.162-0.958,0.242    c-0.555,0.139-1.111,0.276-1.67,0.408c-0.312,0.074-0.626,0.146-0.939,0.218c-0.573,0.131-1.149,0.26-1.727,0.384    c-0.308,0.066-0.617,0.131-0.926,0.196c-0.59,0.123-1.183,0.242-1.779,0.358c-0.302,0.059-0.604,0.117-0.908,0.174    c-0.608,0.114-1.219,0.224-1.833,0.331c-0.299,0.052-0.597,0.104-0.897,0.154c-0.624,0.104-1.251,0.204-1.88,0.301    c-0.294,0.045-0.587,0.091-0.883,0.134c-0.641,0.095-1.285,0.184-1.931,0.27c-0.289,0.039-0.578,0.079-0.869,0.116    c-0.656,0.084-1.316,0.162-1.978,0.238c-0.286,0.033-0.57,0.067-0.857,0.098c-0.674,0.073-1.353,0.14-2.032,0.205    c-0.279,0.027-0.557,0.055-0.837,0.081c-0.688,0.062-1.381,0.117-2.075,0.17c-0.277,0.021-0.553,0.045-0.831,0.065    c-0.709,0.051-1.422,0.094-2.136,0.135c-0.266,0.016-0.53,0.034-0.797,0.048c-0.097,0.005-0.195,0.008-0.291,0.013    c0.495-14.739,2.179-31.942,4.834-50.979h6.299c31.468,0,56.977-25.506,56.977-56.977v-53.956c0-4.713-3.82-8.533-8.533-8.533    h-32.256l6.282-32.511l0.151-1.887c-1.04-32.996-7.837-68.881-17.507-96.261c-0.004-0.011-0.01-0.02-0.014-0.032    c-1.203-3.405-2.489-6.723-3.847-9.949c-5.226-12.407-10.502-21.44-14.164-26.496c-2.764-3.817-8.099-4.671-11.916-1.907    c-3.817,2.764-4.671,8.099-1.907,11.916c0.667,0.921,1.96,2.889,3.672,5.82c2.916,4.992,5.846,10.784,8.587,17.291    c0.822,1.951,1.602,3.953,2.363,5.978c-0.824,1.942-1.726,4.078-2.696,6.386C138.527,193.737,135.507,201.029,132.686,207.986z     M169.25,325.267h27.016v45.423c0,22.044-17.868,39.91-39.91,39.91h-3.685c4.211-26.396,9.841-54.927,16.22-83.472L169.25,325.267    z M314.883,493.847c-17.154,1.715-31.427,2.091-58.884,2.091s-41.731-0.376-58.884-2.091c-7.015-0.701-13.644-1.601-19.878-2.714    c1.285-0.321,2.557-0.661,3.821-1.013c0.37-0.103,0.735-0.213,1.104-0.319c1.028-0.295,2.05-0.599,3.063-0.915    c0.422-0.132,0.844-0.264,1.264-0.399c1.107-0.356,2.205-0.724,3.293-1.105c0.234-0.082,0.471-0.159,0.703-0.242    c1.33-0.473,2.645-0.965,3.946-1.474c0.269-0.105,0.534-0.215,0.802-0.322c1.06-0.422,2.11-0.856,3.15-1.303    c0.312-0.134,0.623-0.267,0.933-0.403c1.2-0.526,2.389-1.064,3.562-1.622c0.059-0.028,0.12-0.055,0.179-0.083    c1.294-0.617,2.568-1.255,3.828-1.911c0.161-0.084,0.319-0.17,0.479-0.254c1.09-0.573,2.167-1.161,3.231-1.762    c0.2-0.113,0.401-0.226,0.6-0.34c2.446-1.4,4.823-2.874,7.127-4.422c0.072-0.049,0.143-0.098,0.215-0.147    c1.088-0.735,2.158-1.487,3.212-2.254c0.11-0.08,0.221-0.159,0.33-0.24c2.269-1.663,4.462-3.399,6.572-5.21    c0.02-0.017,0.039-0.034,0.058-0.051c1.034-0.888,2.046-1.794,3.04-2.717c0.053-0.05,0.107-0.099,0.161-0.148    c2.048-1.908,4.011-3.888,5.886-5.94c0.006-0.006,0.011-0.012,0.017-0.018c0.924-1.011,1.824-2.041,2.705-3.087    c0.033-0.039,0.066-0.078,0.099-0.117c1.781-2.122,3.473-4.313,5.072-6.572c0.023-0.032,0.045-0.065,0.068-0.098    c0.765-1.084,1.509-2.185,2.231-3.3c0.043-0.066,0.086-0.132,0.129-0.198c1.479-2.295,2.865-4.654,4.156-7.076    c0.056-0.105,0.11-0.211,0.166-0.316c0.58-1.096,1.139-2.205,1.679-3.327c0.066-0.138,0.134-0.274,0.2-0.412    c0.582-1.222,1.149-2.453,1.683-3.705c0.528,1.235,1.088,2.451,1.662,3.657c0.087,0.183,0.177,0.365,0.265,0.547    c0.501,1.036,1.018,2.061,1.552,3.075c0.102,0.193,0.202,0.388,0.305,0.581c1.239,2.315,2.564,4.572,3.975,6.771    c0.157,0.245,0.317,0.486,0.476,0.729c0.559,0.855,1.132,1.702,1.716,2.539c0.181,0.259,0.36,0.52,0.543,0.777    c0.738,1.035,1.489,2.06,2.266,3.066c0.062,0.08,0.127,0.158,0.19,0.238c0.7,0.901,1.418,1.789,2.148,2.666    c0.283,0.34,0.572,0.676,0.859,1.013c0.535,0.626,1.079,1.246,1.63,1.86c0.322,0.359,0.642,0.719,0.969,1.073    c0.662,0.717,1.337,1.424,2.021,2.123c0.478,0.49,0.966,0.972,1.455,1.453c0.516,0.507,1.033,1.014,1.56,1.511    c0.474,0.448,0.956,0.889,1.439,1.328c0.416,0.378,0.836,0.753,1.26,1.126c0.533,0.47,1.067,0.94,1.611,1.4    c0.288,0.244,0.584,0.48,0.875,0.721c1.21,1.003,2.446,1.982,3.706,2.938c0.233,0.176,0.463,0.356,0.697,0.53    c0.714,0.532,1.438,1.055,2.167,1.573c0.221,0.156,0.443,0.312,0.665,0.467c12.261,8.567,26.67,15.031,42.765,19.051    C328.541,492.243,321.906,493.144,314.883,493.847z M343.057,326.884c6.424,28.762,12.059,57.318,16.271,83.716h-3.685    c-22.042,0-39.91-17.866-39.91-39.91v-45.423h27.013L343.057,326.884z M433.601,460.727c-0.095-0.522-0.205-1.132-0.338-1.862    c-1.436-7.918-3.042-16.74-4.777-26.241c-4.958-27.146-9.965-54.293-14.705-79.633c-0.618-3.3-0.618-3.3-1.236-6.598    c-11.748-62.631-19.471-101.414-22.053-109.155c-2.025-6.078-5.487-15.136-10.046-26.455c-0.567-1.407-0.567-1.407-1.136-2.81    c-2.82-6.955-5.838-14.244-8.856-21.427c-0.971-2.31-1.873-4.448-2.697-6.39c0.76-2.022,1.539-4.021,2.36-5.969    c2.741-6.507,5.671-12.299,8.587-17.291c1.712-2.931,3.004-4.899,3.672-5.82c2.764-3.817,1.911-9.152-1.907-11.916    c-3.817-2.764-9.152-1.911-11.916,1.907c-3.661,5.056-8.938,14.089-14.164,26.496c-1.363,3.236-2.653,6.564-3.859,9.981    c-0.012,0.035-0.02,0.071-0.032,0.107c-9.655,27.38-16.441,63.21-17.479,96.153l0.151,1.887l6.28,32.511h-32.252    c-4.713,0-8.533,3.82-8.533,8.533v53.956c0,31.471,25.51,56.977,56.977,56.977h6.303c2.657,19.04,4.341,36.239,4.836,50.972    c-35.088-1.837-63.605-14.625-81.52-35.422c-0.014-0.017-0.029-0.033-0.044-0.05c-0.483-0.561-0.957-1.129-1.424-1.701    c-0.028-0.035-0.058-0.069-0.086-0.104c-0.453-0.558-0.898-1.122-1.337-1.69c-0.038-0.049-0.077-0.097-0.115-0.147    c-0.43-0.56-0.852-1.127-1.268-1.698c-0.042-0.057-0.085-0.114-0.127-0.171c-0.422-0.583-0.836-1.172-1.243-1.766    c-0.031-0.045-0.064-0.09-0.095-0.135c-0.433-0.635-0.858-1.275-1.274-1.922c-0.161-0.25-0.315-0.506-0.473-0.758    c-0.242-0.385-0.486-0.769-0.722-1.159c-0.253-0.418-0.498-0.843-0.744-1.266c-0.133-0.229-0.27-0.455-0.401-0.685    c-0.261-0.459-0.514-0.924-0.766-1.389c-0.108-0.199-0.219-0.396-0.326-0.595c-0.255-0.479-0.502-0.963-0.749-1.448    c-0.097-0.191-0.197-0.381-0.293-0.573c-0.246-0.494-0.485-0.993-0.722-1.493c-0.088-0.186-0.179-0.371-0.265-0.557    c-0.236-0.507-0.464-1.018-0.69-1.53c-0.082-0.185-0.165-0.369-0.246-0.555c-0.223-0.516-0.439-1.035-0.652-1.557    c-0.077-0.187-0.154-0.374-0.23-0.562c-0.211-0.526-0.415-1.057-0.616-1.589c-0.07-0.186-0.141-0.371-0.21-0.558    c-0.198-0.536-0.39-1.075-0.578-1.617c-0.065-0.188-0.131-0.376-0.195-0.565c-0.185-0.544-0.363-1.091-0.538-1.64    c-0.06-0.19-0.121-0.381-0.18-0.572c-0.171-0.552-0.337-1.108-0.497-1.666c-0.055-0.191-0.11-0.383-0.164-0.575    c-0.158-0.562-0.31-1.126-0.458-1.693c-0.05-0.192-0.098-0.384-0.147-0.576c-0.144-0.572-0.284-1.146-0.418-1.724    c-0.044-0.19-0.086-0.382-0.129-0.573c-0.131-0.582-0.257-1.167-0.377-1.755c-0.039-0.19-0.076-0.382-0.113-0.573    c-0.117-0.593-0.23-1.188-0.336-1.787c-0.033-0.185-0.063-0.371-0.094-0.557c-0.104-0.61-0.205-1.222-0.297-1.837    c-0.026-0.172-0.049-0.345-0.074-0.517c-0.091-0.632-0.179-1.265-0.259-1.903c-0.019-0.153-0.035-0.308-0.053-0.461    c-0.079-0.661-0.154-1.323-0.22-1.99c-0.011-0.116-0.02-0.233-0.031-0.35c-0.067-0.708-0.13-1.419-0.182-2.134    c-0.003-0.036-0.004-0.072-0.007-0.108c-0.174-2.422-0.263-4.882-0.263-7.38h-0.003V91.341c0.272,0.141,0.543,0.281,0.829,0.43    c0.652,0.338,0.652,0.338,1.308,0.678c3,1.554,5.137,2.64,7.148,3.616c0.646,0.314,1.279,0.617,1.922,0.92    c7.919,3.722,14.947,5.977,21.766,6.531c0.49,0.04,0.978,0.057,1.466,0.079c0.265,0.012,0.532,0.036,0.797,0.043    c4.521,0.117,8.982-0.533,13.586-2.02c4.14-1.337,9.126-4.816,14.726-9.909c4.19-3.809,8.721-8.518,13.506-13.927    c2.571-2.906,4.822-5.476,6.794-7.792c0.015-0.018,0.031-0.036,0.046-0.053c0.356-0.418,0.701-0.827,1.038-1.228    c0.087-0.104,0.173-0.206,0.259-0.309c0.951-1.136,1.824-2.207,2.621-3.215c0.13-0.164,0.26-0.329,0.386-0.49    c0.214-0.274,0.423-0.544,0.625-0.809c0.137-0.179,0.267-0.354,0.399-0.529c0.149-0.199,0.31-0.407,0.453-0.601    c17.477,6.488,35.325,15.891,41.005,21.254c6.55,6.186,21.478,66.112,40.763,162.271c2.683,13.377,5.474,27.536,8.442,42.794    c2.66,13.676,24.185,126.813,31.847,165.56L433.601,460.727z"/>
	</g>
</g>
<g>
</g>
<g>
</g>
<g>
</g>
<g>
</g>
<g>
</g>
<g>
</g>
<g>
</g>
<g>
</g>
<g>
</g>
<g>
</g>
<g>
</g>
<g>
</g>
<g>
</g>
<g>
</g>
<g>
</g>
</svg>
