<?xml version="1.0" encoding="iso-8859-1"?>
<!-- Generator: Adobe Illustrator 19.0.0, SVG Export Plug-In . SVG Version: 6.00 Build 0)  -->
<svg xmlns="http://www.w3.org/2000/svg" xmlns:xlink="http://www.w3.org/1999/xlink" version="1.1" id="Layer_1" x="0px" y="0px" viewBox="0 0 512.004 512.004" style="enable-background:new 0 0 512.004 512.004;" xml:space="preserve">
<g transform="translate(-1 -1)">
	<g>
		<path d="M495.761,460.087c-5.149-25.065-30.659-159.182-33.594-174.272c-2.973-15.289-5.771-29.48-8.461-42.891    C432.419,136.777,418.722,81.795,407.928,71.6c-8.286-7.825-30.98-19.545-51.965-26.692L323.401,4.207    c-0.005-0.007-0.012-0.013-0.017-0.019c-0.174-0.219-0.365-0.423-0.56-0.624c-0.038-0.039-0.075-0.081-0.114-0.119    c-0.207-0.206-0.427-0.399-0.656-0.583c-0.019-0.015-0.037-0.029-0.056-0.044c-0.894-0.708-1.944-1.24-3.125-1.536    c-0.122-0.031-0.245-0.058-0.368-0.084c-0.203-0.041-0.404-0.085-0.614-0.112c-0.344-0.047-0.69-0.072-1.037-0.076    C316.815,1.008,316.778,1,316.738,1H197.271c-0.04,0-0.077,0.008-0.117,0.009c-0.347,0.005-0.693,0.03-1.037,0.076    c-0.21,0.027-0.411,0.071-0.614,0.112c-0.123,0.026-0.246,0.052-0.368,0.084c-1.181,0.297-2.23,0.828-3.125,1.536    c-0.019,0.015-0.037,0.029-0.056,0.044c-0.229,0.185-0.448,0.377-0.656,0.583c-0.039,0.038-0.075,0.08-0.114,0.119    c-0.195,0.202-0.386,0.405-0.56,0.624c-0.006,0.007-0.012,0.013-0.017,0.019l-32.56,40.7    c-20.986,7.148-43.688,18.87-51.972,26.693c-10.794,10.194-24.491,65.177-45.779,171.324c-2.69,13.411-5.487,27.603-8.461,42.891    c-2.935,15.09-28.445,149.207-33.594,174.272c-0.989,4.816,2.285,9.469,7.152,10.165l59.733,8.533    c4.545,0.649,8.789-2.414,9.604-6.932c0.081-0.451,0.081-0.451,0.469-2.597c0.532-2.938,0.532-2.938,1.331-7.345    c1.435-7.911,3.039-16.727,4.773-26.221c4.954-27.124,9.957-54.248,14.692-79.562c0.617-3.296,0.617-3.296,1.234-6.589    c11.359-60.553,19.283-100.348,21.469-106.902c1.886-5.662,5.25-14.463,9.687-25.478c0.56-1.388,0.56-1.388,1.121-2.774    c1.164-2.872,2.364-5.804,3.584-8.763c5.383,21.217,9.008,45.222,9.802,67.773l-9.708,50.257    c-14.588,65.319-24.15,123.93-24.183,163.543c-0.096,2.729,1.066,5.504,3.736,7.266c0.018,0.012,0.035,0.024,0.053,0.036    c0.148,0.096,0.302,0.189,0.459,0.279c0.124,0.072,0.249,0.143,0.377,0.209c0.032,0.017,0.061,0.036,0.093,0.052    c16.656,8.328,37.552,13.277,62.7,15.792c17.894,1.789,32.573,2.176,60.582,2.176s42.688-0.386,60.582-2.176    c25.148-2.515,46.045-7.464,62.701-15.792c0.044-0.022,0.084-0.048,0.128-0.071c0.096-0.05,0.191-0.104,0.285-0.158    c3.126-1.758,4.452-4.798,4.299-7.76c-0.056-39.601-9.6-98.084-24.223-163.635l-9.658-50.018    c0.789-22.549,4.411-46.554,9.794-67.774c1.222,2.964,2.424,5.901,3.591,8.778c0.559,1.379,0.559,1.379,1.116,2.761    c4.438,11.015,7.804,19.817,9.693,25.478c2.182,6.552,10.106,46.355,21.465,106.923c0.615,3.282,0.615,3.282,1.23,6.568    c4.734,25.313,9.736,52.437,14.691,79.562c1.734,9.494,3.338,18.31,4.773,26.221c0.799,4.407,0.799,4.407,1.331,7.345    c0.388,2.146,0.388,2.146,0.469,2.597c0.815,4.518,5.059,7.581,9.604,6.932l59.733-8.533    C493.476,469.557,496.75,464.903,495.761,460.087z M309.114,85.376c-6.508,2.101-12.889,1.355-21.538-2.253    c-1.146-0.478-2.327-1.002-3.557-1.581c-0.456-0.214-0.913-0.433-1.375-0.656c-1.884-0.911-3.904-1.934-6.774-3.419    c-0.76-0.393-0.76-0.393-1.524-0.79c-1.19-0.616-2.264-1.171-3.258-1.68c-0.081-0.042-0.172-0.089-0.252-0.13l22.227-25.368    l23.377-26.677l24.221,30.277c-0.065,0.09-0.132,0.182-0.199,0.275c-0.111,0.153-0.22,0.304-0.338,0.464    c-2.641,3.591-6.37,8.167-10.32,12.634c-7.222,8.165-14.195,14.778-18.275,17.573C310.545,84.721,309.724,85.179,309.114,85.376z     M239.665,76.68c-0.691,0.358-0.691,0.358-1.377,0.714c-1.673,0.866-3.047,1.57-4.278,2.19c-1.468,0.738-2.739,1.359-4.016,1.959    c-10.515,4.947-17.729,6.215-25.1,3.835c-3.135-1.013-11.725-8.766-20.689-18.902c-3.951-4.467-7.679-9.043-10.32-12.634    c-0.14-0.19-0.272-0.373-0.404-0.555c-0.044-0.061-0.089-0.123-0.133-0.183l24.222-30.277l23.377,26.677l22.227,25.368    c-0.666,0.341-1.389,0.714-2.141,1.102C240.592,76.2,240.14,76.434,239.665,76.68z M297.915,18.067L280.25,38.228l-23.245,26.526    L233.76,38.228l-17.666-20.161H297.915z M169.894,327.13l9.94-51.441l0.151-1.889c-1.047-32.957-7.831-68.791-17.479-96.151    c-0.012-0.035-0.019-0.071-0.032-0.107c-1.206-3.417-2.496-6.745-3.859-9.981c-5.226-12.407-10.503-21.44-14.164-26.496    c-2.764-3.817-8.099-4.671-11.916-1.907c-3.817,2.764-4.671,8.099-1.907,11.916c0.667,0.921,1.96,2.889,3.672,5.82    c2.916,4.992,5.846,10.784,8.587,17.291c0.821,1.948,1.6,3.947,2.36,5.969c-0.824,1.942-1.727,4.08-2.697,6.39    c-3.018,7.183-6.036,14.472-8.856,21.427c-0.568,1.403-0.568,1.403-1.136,2.81c-4.559,11.319-8.021,20.377-10.047,26.457    c-2.581,7.739-10.304,46.522-22.052,109.153c-0.618,3.297-0.618,3.297-1.236,6.598c-4.74,25.34-9.746,52.487-14.705,79.633    c-1.735,9.501-3.341,18.323-4.777,26.241c-0.133,0.731-0.243,1.34-0.338,1.862l-42.66-6.094    c7.662-38.746,29.187-151.883,31.847-165.56c2.967-15.258,5.759-29.417,8.441-42.794c19.285-96.16,34.213-156.085,40.763-162.271    c5.679-5.363,23.527-14.766,41.004-21.254c0.132,0.18,0.282,0.374,0.421,0.558c0.147,0.196,0.293,0.392,0.447,0.593    c0.19,0.249,0.386,0.502,0.586,0.759c0.148,0.19,0.302,0.385,0.456,0.58c0.761,0.962,1.593,1.981,2.494,3.06    c0.129,0.154,0.257,0.308,0.389,0.465c0.307,0.366,0.622,0.738,0.945,1.118c0.07,0.083,0.144,0.168,0.215,0.252    c1.943,2.279,4.151,4.799,6.667,7.644c11.18,12.641,20.993,21.499,28.229,23.836c1.535,0.495,3.055,0.898,4.566,1.21    c1.878,0.388,3.744,0.62,5.61,0.734c8.643,0.528,17.313-1.815,27.437-6.574c1.424-0.671,2.803-1.345,4.385-2.141    c1.275-0.641,2.674-1.357,4.335-2.217c0.832-0.431,0.832-0.431,1.658-0.859c0.029-0.015,0.056-0.029,0.084-0.044    c0.258-0.134,0.502-0.26,0.749-0.387V384.95c0,0.019-0.003,0.036-0.003,0.054c0,2.431-0.086,4.826-0.251,7.184    c-0.008,0.109-0.013,0.22-0.021,0.329c-0.05,0.679-0.109,1.353-0.173,2.025c-0.014,0.149-0.025,0.3-0.04,0.449    c-0.065,0.658-0.139,1.311-0.217,1.963c-0.019,0.158-0.035,0.317-0.055,0.475c-0.081,0.652-0.171,1.301-0.265,1.947    c-0.022,0.151-0.042,0.303-0.065,0.454c-0.098,0.653-0.204,1.302-0.315,1.948c-0.024,0.14-0.047,0.281-0.071,0.42    c-0.116,0.659-0.24,1.314-0.37,1.966c-0.024,0.12-0.047,0.241-0.071,0.361c-0.136,0.671-0.28,1.338-0.43,2.002    c-0.022,0.095-0.043,0.191-0.065,0.286c-0.158,0.686-0.323,1.367-0.496,2.045c-0.017,0.067-0.034,0.135-0.052,0.202    c-0.181,0.704-0.37,1.404-0.567,2.1c-0.01,0.035-0.02,0.069-0.029,0.104c-8.012,28.106-29.15,49.131-59.037,59.788    c-0.103,0.037-0.204,0.075-0.307,0.111c-0.62,0.219-1.246,0.431-1.873,0.641c-0.201,0.067-0.4,0.136-0.602,0.203    c-0.564,0.186-1.134,0.365-1.704,0.544c-0.269,0.084-0.536,0.17-0.806,0.252c-0.524,0.16-1.053,0.315-1.583,0.469    c-0.323,0.094-0.646,0.189-0.971,0.281c-0.493,0.139-0.989,0.274-1.486,0.408c-0.368,0.099-0.735,0.198-1.105,0.294    c-0.467,0.121-0.936,0.239-1.406,0.356c-0.408,0.101-0.815,0.202-1.226,0.299c-0.446,0.106-0.893,0.209-1.342,0.312    c-0.44,0.1-0.88,0.198-1.322,0.294c-0.429,0.093-0.859,0.184-1.291,0.273c-0.471,0.097-0.943,0.192-1.417,0.285    c-0.412,0.081-0.826,0.16-1.24,0.237c-0.498,0.093-0.999,0.183-1.501,0.271c-0.399,0.07-0.798,0.139-1.199,0.206    c-0.526,0.088-1.055,0.172-1.585,0.254c-0.383,0.06-0.767,0.119-1.152,0.176c-0.554,0.081-1.11,0.158-1.668,0.234    c-0.37,0.05-0.74,0.101-1.111,0.148c-0.577,0.074-1.158,0.142-1.739,0.209c-0.36,0.042-0.719,0.085-1.081,0.124    c-0.601,0.065-1.206,0.125-1.811,0.183c-0.348,0.034-0.694,0.069-1.043,0.1c-0.624,0.056-1.253,0.106-1.881,0.155    c-0.337,0.026-0.672,0.055-1.01,0.079c-0.652,0.047-1.308,0.086-1.965,0.125c-0.32,0.019-0.638,0.041-0.959,0.058    c-0.09,0.005-0.18,0.008-0.27,0.012C147.492,440.83,156.562,386.84,169.894,327.13z M315.889,493.847    c-17.154,1.715-31.427,2.091-58.884,2.091s-41.731-0.376-58.884-2.091c-7.015-0.701-13.644-1.601-19.878-2.714    c1.319-0.329,2.624-0.679,3.92-1.041c0.241-0.067,0.479-0.139,0.72-0.208c1.184-0.337,2.358-0.688,3.522-1.052    c0.308-0.096,0.616-0.193,0.922-0.291c1.306-0.418,2.601-0.85,3.881-1.302c0.053-0.019,0.107-0.036,0.16-0.055    c1.419-0.503,2.82-1.028,4.207-1.572c0.105-0.041,0.208-0.084,0.312-0.125c1.259-0.497,2.502-1.013,3.734-1.544    c0.167-0.072,0.334-0.143,0.5-0.216c4.073-1.776,7.993-3.736,11.75-5.871c0.037-0.021,0.074-0.042,0.112-0.063    c20.475-11.665,36.084-28.547,45.027-49.477c0.024,0.055,0.05,0.109,0.074,0.164c0.472,1.098,0.966,2.182,1.474,3.257    c0.186,0.394,0.378,0.783,0.569,1.173c0.377,0.771,0.763,1.535,1.158,2.294c0.209,0.401,0.416,0.803,0.631,1.201    c0.504,0.936,1.022,1.863,1.555,2.78c0.207,0.357,0.419,0.712,0.631,1.066c0.495,0.829,1,1.652,1.519,2.465    c0.283,0.445,0.574,0.884,0.864,1.323c0.398,0.603,0.803,1.202,1.214,1.796c0.317,0.458,0.633,0.917,0.957,1.369    c0.463,0.646,0.939,1.283,1.417,1.918c0.537,0.713,1.084,1.417,1.64,2.116c0.402,0.505,0.804,1.011,1.216,1.509    c0.432,0.522,0.873,1.038,1.316,1.552c0.342,0.397,0.688,0.791,1.036,1.182c0.482,0.542,0.965,1.083,1.459,1.616    c0.242,0.26,0.491,0.515,0.735,0.773c1.089,1.151,2.207,2.278,3.352,3.382c0.191,0.184,0.379,0.372,0.572,0.555    c0.637,0.604,1.284,1.199,1.938,1.788c0.202,0.183,0.406,0.364,0.61,0.545c14.145,12.576,32.092,21.81,52.836,26.99    C329.542,492.244,322.91,493.145,315.889,493.847z M434.601,460.727c-0.095-0.522-0.205-1.132-0.338-1.862    c-1.436-7.918-3.042-16.74-4.777-26.241c-4.958-27.146-9.964-54.293-14.704-79.633c-0.616-3.289-0.616-3.289-1.232-6.576    c-11.748-62.64-19.471-101.433-22.049-109.173c-2.03-6.084-5.494-15.141-10.054-26.459c-0.565-1.4-0.565-1.4-1.13-2.797    c-2.821-6.957-5.841-14.249-8.861-21.435c-0.97-2.309-1.873-4.446-2.697-6.388c0.76-2.024,1.541-4.026,2.362-5.976    c2.741-6.507,5.671-12.299,8.587-17.291c1.712-2.931,3.004-4.899,3.672-5.82c2.764-3.817,1.911-9.152-1.907-11.916    c-3.817-2.764-9.152-1.911-11.916,1.907c-3.661,5.056-8.938,14.089-14.164,26.496c-1.362,3.233-2.651,6.558-3.856,9.972    c-0.001,0.003-0.003,0.005-0.004,0.008c-9.67,27.38-16.467,63.265-17.507,96.261l0.151,1.887l9.89,51.2    c13.38,59.992,22.442,113.947,23.713,151.749c-44.083-2.31-77.793-21.906-93.139-52.953c-0.024-0.048-0.046-0.097-0.07-0.145    c-0.313-0.637-0.62-1.279-0.917-1.926c-0.054-0.117-0.106-0.235-0.159-0.352c-0.265-0.582-0.524-1.166-0.776-1.755    c-0.069-0.162-0.136-0.326-0.205-0.489c-0.23-0.547-0.456-1.097-0.676-1.651c-0.078-0.197-0.154-0.396-0.23-0.594    c-0.203-0.525-0.403-1.052-0.596-1.582c-0.081-0.222-0.16-0.445-0.239-0.668c-0.182-0.512-0.36-1.026-0.533-1.544    c-0.08-0.24-0.158-0.481-0.237-0.722c-0.164-0.507-0.325-1.015-0.48-1.527c-0.077-0.252-0.152-0.505-0.226-0.758    c-0.149-0.507-0.294-1.016-0.434-1.528c-0.071-0.26-0.142-0.52-0.211-0.781c-0.135-0.511-0.266-1.024-0.392-1.539    c-0.065-0.265-0.13-0.529-0.193-0.795c-0.123-0.52-0.24-1.043-0.354-1.568c-0.057-0.263-0.115-0.526-0.17-0.79    c-0.112-0.536-0.217-1.076-0.32-1.617c-0.048-0.256-0.098-0.511-0.144-0.767c-0.101-0.556-0.194-1.116-0.285-1.678    c-0.04-0.246-0.081-0.491-0.119-0.737c-0.09-0.588-0.173-1.179-0.253-1.772c-0.03-0.222-0.062-0.443-0.09-0.666    c-0.081-0.635-0.153-1.274-0.222-1.915c-0.02-0.184-0.042-0.367-0.061-0.551c-0.071-0.705-0.133-1.414-0.19-2.126    c-0.01-0.124-0.022-0.247-0.032-0.37c-0.062-0.825-0.115-1.654-0.158-2.488c-0.001-0.012-0.002-0.025-0.002-0.037    c-0.087-1.728-0.131-3.476-0.131-5.242V91.339c0.273,0.142,0.546,0.283,0.833,0.432c0.826,0.429,0.826,0.429,1.658,0.859    c3.032,1.569,5.212,2.672,7.304,3.68c0.472,0.228,0.941,0.452,1.414,0.675c0.942,0.443,1.869,0.861,2.786,1.262    c6.931,3.029,13.217,4.846,19.345,5.289c2.353,0.171,4.685,0.133,7.019-0.113c2.798-0.295,5.603-0.882,8.462-1.805    c1.722-0.556,3.594-1.492,5.592-2.75c6.399-4.028,14.123-11.455,22.642-21.087c3.081-3.484,5.709-6.49,7.935-9.143    c0.037-0.045,0.074-0.088,0.111-0.133c1-1.194,1.916-2.316,2.748-3.37c0.11-0.14,0.222-0.28,0.329-0.418    c0.225-0.288,0.445-0.573,0.657-0.851c0.121-0.159,0.237-0.314,0.355-0.47c0.16-0.213,0.331-0.434,0.483-0.641    c17.476,6.487,35.317,15.887,40.999,21.253c6.55,6.186,21.479,66.112,40.763,162.271c2.683,13.377,5.474,27.536,8.441,42.794    c2.66,13.676,24.185,126.813,31.847,165.56L434.601,460.727z"/>
	</g>
</g>
<g>
</g>
<g>
</g>
<g>
</g>
<g>
</g>
<g>
</g>
<g>
</g>
<g>
</g>
<g>
</g>
<g>
</g>
<g>
</g>
<g>
</g>
<g>
</g>
<g>
</g>
<g>
</g>
<g>
</g>
</svg>
