<?xml version="1.0" encoding="iso-8859-1"?>
<!-- Generator: Adobe Illustrator 19.0.0, SVG Export Plug-In . SVG Version: 6.00 Build 0)  -->
<svg xmlns="http://www.w3.org/2000/svg" xmlns:xlink="http://www.w3.org/1999/xlink" version="1.1" id="Layer_1" x="0px" y="0px" viewBox="0 0 512.003 512.003" style="enable-background:new 0 0 512.003 512.003;" xml:space="preserve">
<g transform="translate(-1 -1)">
	<g>
		<g>
			<path d="M495.76,460.087c-5.149-25.065-30.659-159.182-33.594-174.272c-2.973-15.289-5.771-29.48-8.461-42.891     C432.418,136.777,418.721,81.795,407.927,71.6c-8.286-7.825-30.98-19.545-51.965-26.692L323.401,4.207     c-0.005-0.007-0.012-0.013-0.017-0.019c-0.174-0.219-0.365-0.423-0.56-0.624c-0.038-0.039-0.075-0.081-0.114-0.119     c-0.207-0.206-0.427-0.399-0.656-0.583c-0.019-0.015-0.037-0.029-0.056-0.044c-0.894-0.708-1.944-1.24-3.125-1.536     c-0.122-0.031-0.245-0.058-0.368-0.084c-0.203-0.041-0.404-0.085-0.614-0.112c-0.344-0.047-0.69-0.072-1.037-0.076     C316.814,1.008,316.777,1,316.737,1H197.271c-0.04,0-0.077,0.008-0.117,0.009c-0.347,0.005-0.693,0.03-1.037,0.076     c-0.21,0.027-0.411,0.071-0.614,0.112c-0.123,0.026-0.246,0.052-0.368,0.084c-1.181,0.297-2.23,0.828-3.125,1.536     c-0.019,0.015-0.037,0.029-0.056,0.044c-0.229,0.185-0.448,0.377-0.656,0.583c-0.039,0.038-0.075,0.08-0.114,0.119     c-0.195,0.202-0.386,0.405-0.56,0.624c-0.006,0.007-0.012,0.013-0.017,0.019l-32.56,40.7     c-20.986,7.148-43.688,18.87-51.971,26.693c-10.794,10.194-24.491,65.177-45.779,171.324c-2.69,13.411-5.487,27.603-8.461,42.891     c-2.935,15.09-28.445,149.207-33.594,174.272c-0.989,4.816,2.285,9.469,7.152,10.165l59.733,8.533     c4.545,0.649,8.789-2.414,9.604-6.932c0.081-0.451,0.081-0.451,0.469-2.597c0.532-2.938,0.532-2.938,1.331-7.345     c1.435-7.911,3.039-16.727,4.773-26.221c4.954-27.124,9.957-54.248,14.692-79.562c0.617-3.296,0.617-3.296,1.234-6.589     c11.359-60.553,19.283-100.348,21.469-106.902c1.886-5.662,5.25-14.463,9.687-25.478c0.56-1.388,0.56-1.388,1.121-2.774     c1.164-2.872,2.364-5.804,3.584-8.763c4.727,18.633,8.097,39.415,9.386,59.475c-0.016,0.313-0.016,0.63,0.003,0.951     c0.049,0.811,0.049,0.811,0.099,1.613c0.082,1.327,0.117,1.903,0.158,2.627c0.066,1.163,0.116,2.171,0.152,3.11l-8.06,41.72     c-0.005,0.028-0.006,0.055-0.011,0.083l-1.632,8.45c-14.554,65.167-24.104,123.654-24.181,163.263     c-0.213,2.963,1.054,6.029,4.215,7.842c0.138,0.081,0.277,0.16,0.42,0.234c0.027,0.014,0.051,0.03,0.079,0.044     c16.656,8.328,37.552,13.277,62.7,15.792c17.894,1.789,32.573,2.176,60.582,2.176s42.688-0.386,60.582-2.176     c25.148-2.515,46.045-7.464,62.7-15.792c3.545-1.772,4.946-5.02,4.712-8.144c-0.081-39.598-9.618-98.012-24.222-163.478     l-1.587-8.218c-0.005-0.026-0.005-0.051-0.01-0.077l-8.06-41.72c0.036-0.939,0.086-1.946,0.152-3.11     c0.041-0.725,0.076-1.301,0.158-2.627c0.049-0.802,0.049-0.802,0.099-1.613c0.019-0.318,0.019-0.633,0.004-0.944     c1.284-20.061,4.652-40.847,9.381-59.484c1.222,2.964,2.424,5.901,3.591,8.778c0.559,1.379,0.559,1.379,1.116,2.761     c4.438,11.015,7.804,19.817,9.693,25.478c2.182,6.552,10.106,46.355,21.465,106.923c0.615,3.282,0.615,3.282,1.23,6.568     c4.734,25.313,9.736,52.437,14.691,79.562c1.734,9.494,3.338,18.31,4.773,26.221c0.799,4.407,0.799,4.407,1.331,7.345     c0.388,2.146,0.388,2.146,0.469,2.597c0.815,4.518,5.059,7.581,9.604,6.932l59.733-8.533     C493.475,469.557,496.749,464.903,495.76,460.087z M309.113,85.376c-6.508,2.101-12.889,1.355-21.538-2.253     c-1.146-0.478-2.327-1.002-3.557-1.581c-0.456-0.214-0.913-0.433-1.375-0.656c-1.884-0.911-3.904-1.934-6.774-3.419     c-0.76-0.393-0.76-0.393-1.524-0.79c-1.19-0.616-2.264-1.171-3.258-1.68c-0.081-0.042-0.172-0.089-0.252-0.13l22.227-25.368     l23.377-26.677l24.221,30.277c-0.065,0.09-0.132,0.182-0.199,0.275c-0.111,0.153-0.22,0.304-0.338,0.464     c-2.641,3.591-6.37,8.167-10.32,12.634c-7.222,8.165-14.195,14.778-18.275,17.573C310.544,84.721,309.723,85.179,309.113,85.376z      M334.048,274.071l0.126,1.567l0.004,0.052l6.281,32.515h-49.322v-34.133H334.048z M274.068,316.739h-17.03     c-0.011,0-0.022-0.002-0.034-0.002s-0.022,0.002-0.034,0.002h-17.03c0-0.001,0-0.001,0-0.002v-51.198h34.128v51.198     C274.068,316.738,274.068,316.739,274.068,316.739z M179.833,275.689l0.129-1.618h42.908v34.133h-49.32L179.833,275.689z      M239.665,76.68c-0.691,0.358-0.691,0.358-1.377,0.714c-1.673,0.866-3.047,1.57-4.278,2.19c-1.468,0.738-2.739,1.359-4.016,1.959     c-10.515,4.947-17.729,6.215-25.1,3.835c-3.135-1.013-11.725-8.766-20.689-18.902c-3.951-4.467-7.679-9.043-10.32-12.634     c-0.14-0.19-0.272-0.373-0.404-0.555c-0.044-0.061-0.089-0.123-0.133-0.183l24.222-30.277l23.377,26.677l22.227,25.368     c-0.666,0.341-1.389,0.714-2.141,1.102C240.592,76.2,240.139,76.434,239.665,76.68z M297.915,18.067l-17.666,20.161     l-23.245,26.526l-23.245-26.526l-17.666-20.161H297.915z M133.692,207.973c-0.568,1.403-0.568,1.403-1.136,2.81     c-4.559,11.319-8.021,20.377-10.047,26.457c-2.581,7.739-10.304,46.522-22.052,109.153c-0.618,3.297-0.618,3.297-1.236,6.598     c-4.74,25.34-9.746,52.487-14.705,79.633c-1.735,9.501-3.341,18.323-4.777,26.241c-0.133,0.731-0.243,1.34-0.338,1.862     l-42.66-6.094c7.662-38.746,29.187-151.883,31.847-165.56c2.967-15.258,5.759-29.417,8.441-42.794     c19.285-96.16,34.213-156.085,40.763-162.271c5.679-5.363,23.527-14.766,41.004-21.254c0.132,0.18,0.282,0.374,0.421,0.558     c0.147,0.196,0.293,0.392,0.447,0.593c0.19,0.249,0.386,0.502,0.586,0.759c0.148,0.19,0.302,0.385,0.456,0.58     c0.761,0.962,1.593,1.981,2.494,3.06c0.129,0.154,0.257,0.308,0.389,0.465c0.307,0.366,0.622,0.738,0.945,1.118     c0.07,0.083,0.144,0.168,0.215,0.252c1.943,2.279,4.151,4.799,6.667,7.644c11.18,12.641,20.993,21.499,28.229,23.836     c1.535,0.495,3.055,0.898,4.566,1.21c1.878,0.388,3.744,0.62,5.61,0.734c8.643,0.528,17.313-1.815,27.437-6.574     c1.424-0.671,2.803-1.345,4.385-2.141c1.275-0.641,2.674-1.357,4.335-2.217c0.832-0.431,0.832-0.431,1.658-0.859     c0.029-0.015,0.056-0.029,0.084-0.044c0.258-0.134,0.502-0.26,0.749-0.387v157.133h-17.067c-4.712,0-8.532,3.819-8.533,8.532     h-43.899c-2.407-27.961-8.438-56.59-16.466-79.355c-0.012-0.035-0.019-0.071-0.032-0.107c-1.206-3.417-2.496-6.745-3.859-9.981     c-5.226-12.407-10.503-21.44-14.164-26.496c-2.764-3.817-8.099-4.671-11.916-1.907c-3.817,2.764-4.671,8.099-1.907,11.916     c0.667,0.921,1.96,2.889,3.672,5.82c2.916,4.992,5.846,10.784,8.587,17.291c0.821,1.948,1.6,3.947,2.36,5.969     c-0.824,1.942-1.727,4.08-2.697,6.39C139.53,193.73,136.512,201.018,133.692,207.973z M169.893,327.13l0.359-1.859h52.618v0.002     c0,4.713,3.821,8.533,8.533,8.533h17.067v51.144c0,0.019-0.003,0.036-0.003,0.054c0,0.553-0.011,1.102-0.02,1.651     c-0.005,0.297-0.004,0.597-0.011,0.894c-0.011,0.479-0.033,0.954-0.051,1.43c-0.014,0.374-0.024,0.75-0.042,1.123     c-0.023,0.464-0.055,0.925-0.083,1.386c-0.024,0.378-0.043,0.758-0.071,1.135c-0.034,0.465-0.077,0.926-0.118,1.389     c-0.032,0.367-0.061,0.735-0.097,1.1c-0.046,0.468-0.101,0.933-0.154,1.398c-0.04,0.353-0.078,0.708-0.122,1.06     c-0.059,0.475-0.126,0.947-0.192,1.419c-0.047,0.334-0.091,0.669-0.141,1.002c-0.073,0.485-0.153,0.967-0.233,1.449     c-0.052,0.313-0.103,0.627-0.158,0.939c-0.088,0.497-0.182,0.99-0.278,1.482c-0.056,0.29-0.111,0.58-0.17,0.868     c-0.104,0.511-0.214,1.019-0.327,1.526c-0.058,0.262-0.115,0.524-0.176,0.785c-0.123,0.531-0.251,1.06-0.383,1.586     c-0.057,0.227-0.113,0.454-0.172,0.68c-0.144,0.556-0.293,1.109-0.447,1.659c-0.053,0.188-0.105,0.377-0.159,0.564     c-0.168,0.584-0.34,1.166-0.519,1.744c-0.044,0.144-0.089,0.287-0.134,0.431c-0.195,0.619-0.395,1.234-0.603,1.845     c-0.031,0.093-0.063,0.186-0.095,0.278c-0.227,0.66-0.46,1.317-0.702,1.969c-0.011,0.031-0.023,0.062-0.035,0.093     c-13.258,35.625-48.748,58.323-96.556,60.767C147.49,440.84,156.56,386.845,169.893,327.13z M315.886,493.845     c-17.154,1.715-31.427,2.091-58.884,2.091s-41.731-0.376-58.884-2.091c-6.92-0.692-13.464-1.577-19.624-2.669     c37.055-9.266,65.18-31.491,78.51-62.747c0.543,1.272,1.119,2.523,1.71,3.765c0.025,0.053,0.051,0.106,0.077,0.159     c13.962,29.184,41.258,49.94,76.762,58.816C329.38,492.264,322.822,493.151,315.886,493.845z M367.782,478.654     c-45.866-2.353-80.403-23.342-94.838-56.511c-0.021-0.047-0.042-0.095-0.062-0.142c-0.262-0.606-0.516-1.216-0.765-1.83     c-0.047-0.117-0.096-0.234-0.143-0.351c-0.224-0.559-0.44-1.122-0.653-1.687c-0.066-0.176-0.132-0.352-0.197-0.528     c-0.192-0.521-0.378-1.045-0.56-1.571c-0.078-0.225-0.156-0.451-0.232-0.677c-0.164-0.487-0.324-0.977-0.48-1.469     c-0.086-0.271-0.171-0.543-0.254-0.815c-0.141-0.459-0.278-0.92-0.412-1.383c-0.089-0.31-0.177-0.621-0.263-0.932     c-0.121-0.435-0.239-0.872-0.353-1.311c-0.089-0.344-0.176-0.689-0.261-1.035c-0.103-0.415-0.205-0.831-0.302-1.25     c-0.087-0.376-0.171-0.754-0.253-1.132c-0.087-0.396-0.173-0.792-0.255-1.191c-0.083-0.407-0.162-0.817-0.24-1.226     c-0.072-0.377-0.145-0.753-0.212-1.132c-0.078-0.437-0.15-0.877-0.222-1.317c-0.059-0.359-0.119-0.718-0.174-1.08     c-0.071-0.47-0.135-0.943-0.2-1.416c-0.046-0.337-0.094-0.672-0.137-1.01c-0.064-0.509-0.12-1.021-0.176-1.534     c-0.034-0.309-0.071-0.617-0.102-0.927c-0.055-0.553-0.101-1.11-0.148-1.667c-0.023-0.277-0.05-0.552-0.07-0.829     c-0.047-0.625-0.083-1.255-0.118-1.886c-0.012-0.212-0.028-0.423-0.038-0.635c-0.038-0.772-0.066-1.549-0.087-2.329     c-0.002-0.076-0.006-0.15-0.008-0.226c-0.021-0.859-0.032-1.723-0.032-2.592c0-0.009,0.001-0.018,0.001-0.027v-51.198h17.067     c4.713,0,8.533-3.82,8.533-8.533v-0.002h52.618l0.313,1.618C357.45,386.891,366.513,440.852,367.782,478.654z M434.601,460.727     c-0.095-0.522-0.205-1.132-0.338-1.862c-1.436-7.918-3.042-16.74-4.777-26.241c-4.958-27.146-9.964-54.293-14.704-79.633     c-0.616-3.289-0.616-3.289-1.232-6.576c-11.748-62.64-19.471-101.433-22.049-109.173c-2.03-6.084-5.494-15.141-10.054-26.459     c-0.565-1.4-0.565-1.4-1.13-2.797c-2.821-6.957-5.841-14.249-8.861-21.435c-0.97-2.309-1.873-4.446-2.697-6.388     c0.76-2.024,1.541-4.026,2.362-5.976c2.741-6.507,5.671-12.299,8.587-17.291c1.712-2.931,3.004-4.899,3.672-5.82     c2.764-3.817,1.911-9.152-1.907-11.916c-3.817-2.764-9.152-1.911-11.916,1.907c-3.661,5.056-8.938,14.089-14.164,26.496     c-1.362,3.233-2.651,6.558-3.856,9.972c-0.001,0.003-0.003,0.005-0.004,0.008c-8.048,22.787-14.093,51.462-16.498,79.463h-43.899     c-0.001-4.712-3.821-8.532-8.533-8.532h-17.067V91.339c0.273,0.142,0.546,0.283,0.833,0.432c0.826,0.429,0.826,0.429,1.658,0.859     c3.032,1.569,5.212,2.672,7.304,3.68c0.472,0.228,0.941,0.452,1.414,0.675c0.942,0.443,1.869,0.861,2.786,1.262     c6.931,3.029,13.217,4.846,19.345,5.289c2.353,0.171,4.685,0.133,7.019-0.113c2.798-0.295,5.603-0.882,8.462-1.805     c1.722-0.556,3.594-1.492,5.592-2.75c6.399-4.028,14.123-11.455,22.642-21.087c3.081-3.484,5.709-6.49,7.935-9.143     c0.037-0.045,0.074-0.088,0.111-0.133c1-1.194,1.916-2.316,2.748-3.37c0.11-0.14,0.222-0.28,0.329-0.418     c0.225-0.288,0.445-0.573,0.657-0.851c0.121-0.159,0.237-0.314,0.355-0.47c0.16-0.213,0.331-0.434,0.483-0.641     c17.476,6.487,35.317,15.887,40.999,21.253c6.55,6.186,21.479,66.112,40.763,162.271c2.683,13.377,5.474,27.536,8.441,42.794     c2.66,13.676,24.185,126.813,31.847,165.56L434.601,460.727z"/>
			<path d="M239.937,385.004v-34.133c0-4.713-3.821-8.533-8.533-8.533h-51.2c-4.713,0-8.533,3.82-8.533,8.533v34.133     c0,2.263,0.899,4.434,2.499,6.034l25.6,25.6c3.333,3.333,8.735,3.333,12.068,0l25.6-25.6     C239.038,389.438,239.937,387.267,239.937,385.004z M222.87,381.47l-17.067,17.067l-17.067-17.067v-22.065h34.133V381.47z"/>
			<path d="M333.804,342.338h-51.2c-4.713,0-8.533,3.82-8.533,8.533v34.133c0,2.263,0.899,4.434,2.499,6.034l25.6,25.6     c3.332,3.333,8.735,3.333,12.068,0l25.6-25.6c1.6-1.6,2.499-3.771,2.499-6.034v-34.133     C342.337,346.158,338.517,342.338,333.804,342.338z M325.271,381.47l-17.067,17.067l-17.067-17.067v-22.065h34.133V381.47z"/>
			<circle cx="257.004" cy="291.138" r="8.533"/>
		</g>
	</g>
</g>
<g>
</g>
<g>
</g>
<g>
</g>
<g>
</g>
<g>
</g>
<g>
</g>
<g>
</g>
<g>
</g>
<g>
</g>
<g>
</g>
<g>
</g>
<g>
</g>
<g>
</g>
<g>
</g>
<g>
</g>
</svg>
