<?xml version="1.0" encoding="iso-8859-1"?>
<!-- Generator: Adobe Illustrator 19.0.0, SVG Export Plug-In . SVG Version: 6.00 Build 0)  -->
<svg xmlns="http://www.w3.org/2000/svg" xmlns:xlink="http://www.w3.org/1999/xlink" version="1.1" id="Layer_1" x="0px" y="0px" viewBox="0 0 512.003 512.003" style="enable-background:new 0 0 512.003 512.003;" xml:space="preserve">
<g transform="translate(0 -1)">
	<g>
		<g>
			<circle cx="256.001" cy="299.671" r="8.533"/>
			<path d="M494.76,460.083c-5.149-25.065-30.659-159.182-33.594-174.272c-2.973-15.289-5.771-29.48-8.461-42.891     C431.418,136.772,417.721,81.79,406.927,71.596c-8.291-7.82-30.989-19.541-51.972-26.693L322.398,4.207     c-0.005-0.007-0.012-0.013-0.017-0.019c-0.174-0.219-0.365-0.423-0.56-0.624c-0.038-0.039-0.075-0.081-0.114-0.119     c-0.207-0.206-0.427-0.399-0.656-0.583c-0.019-0.015-0.037-0.029-0.056-0.044c-0.894-0.708-1.944-1.24-3.125-1.536     c-0.122-0.031-0.245-0.058-0.368-0.084c-0.203-0.041-0.404-0.085-0.614-0.112c-0.344-0.047-0.69-0.072-1.037-0.076     C315.812,1.008,315.775,1,315.735,1H196.268c-0.04,0-0.077,0.008-0.117,0.009c-0.347,0.005-0.693,0.03-1.037,0.076     c-0.21,0.027-0.411,0.071-0.614,0.112c-0.123,0.026-0.246,0.052-0.368,0.084c-1.181,0.297-2.23,0.828-3.125,1.536     c-0.019,0.015-0.037,0.029-0.056,0.044c-0.229,0.185-0.448,0.377-0.656,0.583c-0.039,0.038-0.075,0.08-0.114,0.119     c-0.195,0.202-0.386,0.405-0.56,0.624c-0.006,0.007-0.012,0.013-0.017,0.019l-32.557,40.696     c-20.983,7.152-43.681,18.873-51.968,26.689C94.282,81.79,80.585,136.772,59.297,242.92c-2.69,13.411-5.487,27.603-8.461,42.891     c-2.935,15.09-28.445,149.207-33.594,174.272c-0.989,4.816,2.285,9.469,7.152,10.165l59.733,8.533     c4.545,0.649,8.789-2.414,9.604-6.932c0.081-0.451,0.081-0.451,0.469-2.597c0.532-2.938,0.532-2.938,1.331-7.345     c1.435-7.911,3.039-16.727,4.773-26.221c4.954-27.124,9.956-54.249,14.691-79.562c0.615-3.285,0.615-3.285,1.23-6.568     c11.36-60.568,19.283-100.37,21.467-106.927c1.887-5.656,5.253-14.458,9.691-25.473c0.557-1.382,0.557-1.382,1.116-2.761     c1.167-2.877,2.368-5.813,3.591-8.778c4.764,18.778,8.149,39.74,9.411,59.939c-0.285,0.021-0.565,0.061-0.842,0.109     c-0.016,0.003-0.032,0.007-0.048,0.01c-0.221,0.04-0.439,0.088-0.654,0.144c-0.029,0.008-0.057,0.017-0.086,0.025     c-0.201,0.055-0.4,0.117-0.595,0.187c-0.036,0.013-0.071,0.027-0.106,0.04c-0.187,0.069-0.37,0.144-0.551,0.226     c-0.04,0.018-0.079,0.037-0.119,0.056c-0.174,0.082-0.345,0.169-0.512,0.262c-0.042,0.023-0.083,0.047-0.124,0.071     c-0.162,0.094-0.321,0.193-0.477,0.297c-0.042,0.028-0.084,0.056-0.125,0.085c-0.151,0.105-0.298,0.215-0.442,0.33     c-0.041,0.033-0.083,0.066-0.124,0.1c-0.14,0.116-0.275,0.236-0.408,0.361c-0.04,0.038-0.08,0.075-0.119,0.113     c-0.129,0.127-0.254,0.258-0.375,0.393c-0.037,0.041-0.074,0.081-0.11,0.122c-0.119,0.137-0.232,0.279-0.342,0.424     c-0.033,0.044-0.068,0.086-0.1,0.131c-0.109,0.149-0.211,0.302-0.31,0.458c-0.028,0.045-0.059,0.088-0.086,0.133     c-0.099,0.163-0.191,0.33-0.279,0.5c-0.022,0.042-0.046,0.083-0.067,0.125c-0.09,0.181-0.172,0.367-0.25,0.556     c-0.014,0.035-0.031,0.068-0.045,0.103c-0.086,0.218-0.164,0.441-0.233,0.668c-0.002,0.007-0.005,0.013-0.007,0.02     c-0.071,0.237-0.134,0.477-0.185,0.723c-1.376,6.61-2.533,13.383-4.181,24.022c0.048-0.312-1.609,10.466-2.095,13.557     c-0.823,5.23-1.55,9.628-2.304,13.865c-0.053,0.298-0.085,0.595-0.107,0.889c-0.006,0.086-0.008,0.171-0.012,0.256     c-0.009,0.211-0.011,0.421-0.004,0.629c0.003,0.092,0.005,0.184,0.011,0.276c0.015,0.233,0.039,0.463,0.073,0.691     c0.008,0.053,0.011,0.106,0.02,0.158c0.045,0.27,0.105,0.535,0.175,0.796c0.025,0.092,0.055,0.182,0.082,0.273     c0.053,0.174,0.11,0.346,0.174,0.516c0.038,0.101,0.077,0.202,0.119,0.301c0.07,0.166,0.146,0.329,0.226,0.49     c0.043,0.086,0.082,0.173,0.127,0.258c0.121,0.225,0.252,0.443,0.392,0.656c0.059,0.09,0.124,0.174,0.187,0.262     c0.094,0.132,0.191,0.263,0.293,0.389c0.077,0.096,0.156,0.189,0.237,0.281c0.1,0.114,0.204,0.224,0.31,0.333     c0.084,0.086,0.167,0.174,0.255,0.257c0.167,0.157,0.34,0.307,0.519,0.451c0.105,0.084,0.216,0.162,0.325,0.242     c0.122,0.089,0.245,0.177,0.372,0.26c0.112,0.073,0.226,0.141,0.342,0.208c0.121,0.071,0.244,0.138,0.369,0.202     c0.119,0.062,0.238,0.124,0.36,0.18c0.021,0.01,0.041,0.022,0.063,0.031c-13.396,61.502-22.026,116.188-22.103,153.831     c-0.226,3.006,1.072,6.121,4.325,7.932c0.078,0.044,0.155,0.088,0.234,0.13c0.052,0.027,0.1,0.058,0.153,0.085     c16.656,8.328,37.552,13.277,62.7,15.792c17.894,1.789,32.573,2.176,60.582,2.176s42.688-0.386,60.582-2.176     c25.148-2.515,46.045-7.464,62.7-15.792c3.532-1.766,4.937-4.998,4.715-8.112c-0.072-37.644-8.703-92.345-22.103-153.866     c0.021-0.01,0.041-0.022,0.063-0.031c0.123-0.056,0.241-0.118,0.36-0.18c0.125-0.065,0.248-0.132,0.369-0.202     c0.115-0.067,0.23-0.135,0.342-0.208c0.128-0.083,0.251-0.171,0.373-0.26c0.107-0.078,0.216-0.154,0.319-0.236     c0.181-0.145,0.356-0.297,0.525-0.456c0.088-0.083,0.17-0.17,0.254-0.256c0.106-0.109,0.211-0.22,0.311-0.334     c0.081-0.092,0.16-0.185,0.237-0.281c0.102-0.127,0.198-0.257,0.293-0.389c0.062-0.087,0.128-0.172,0.187-0.262     c0.14-0.213,0.271-0.432,0.393-0.656c0.045-0.084,0.084-0.17,0.126-0.256c0.08-0.161,0.157-0.325,0.227-0.491     c0.042-0.1,0.081-0.2,0.119-0.301c0.064-0.17,0.121-0.342,0.174-0.516c0.028-0.091,0.058-0.181,0.082-0.273     c0.07-0.261,0.13-0.526,0.175-0.796c0.009-0.052,0.012-0.106,0.02-0.158c0.034-0.228,0.058-0.458,0.073-0.691     c0.006-0.091,0.008-0.183,0.011-0.276c0.006-0.208,0.005-0.418-0.004-0.629c-0.004-0.085-0.006-0.17-0.012-0.256     c-0.022-0.295-0.053-0.591-0.107-0.889c-0.754-4.237-1.481-8.635-2.304-13.865c-0.486-3.091-2.143-13.869-2.095-13.557     c-1.648-10.639-2.805-17.412-4.181-24.022c-0.051-0.246-0.114-0.486-0.185-0.723c-0.002-0.007-0.005-0.013-0.007-0.02     c-0.069-0.227-0.147-0.45-0.233-0.668c-0.014-0.035-0.031-0.068-0.045-0.103c-0.078-0.189-0.16-0.375-0.25-0.556     c-0.021-0.043-0.045-0.083-0.067-0.125c-0.088-0.17-0.18-0.338-0.279-0.5c-0.028-0.045-0.058-0.089-0.086-0.133     c-0.099-0.156-0.201-0.31-0.31-0.458c-0.032-0.044-0.067-0.087-0.1-0.131c-0.11-0.145-0.223-0.287-0.342-0.424     c-0.036-0.042-0.073-0.081-0.11-0.122c-0.121-0.135-0.246-0.266-0.375-0.393c-0.039-0.038-0.079-0.075-0.119-0.113     c-0.132-0.125-0.268-0.245-0.408-0.361c-0.041-0.034-0.082-0.067-0.124-0.1c-0.144-0.115-0.291-0.225-0.442-0.33     c-0.041-0.029-0.083-0.057-0.125-0.085c-0.156-0.104-0.314-0.203-0.477-0.297c-0.041-0.024-0.082-0.048-0.124-0.071     c-0.167-0.093-0.338-0.18-0.512-0.262c-0.04-0.019-0.079-0.038-0.119-0.056c-0.18-0.082-0.364-0.156-0.551-0.226     c-0.036-0.013-0.071-0.027-0.106-0.04c-0.195-0.07-0.394-0.131-0.595-0.187c-0.029-0.008-0.057-0.017-0.086-0.025     c-0.215-0.057-0.433-0.105-0.654-0.144c-0.016-0.003-0.032-0.007-0.048-0.01c-0.277-0.049-0.557-0.088-0.842-0.109     c1.262-20.199,4.647-41.161,9.411-59.939c1.222,2.964,2.424,5.901,3.591,8.778c0.559,1.379,0.559,1.379,1.116,2.761     c4.438,11.015,7.804,19.817,9.693,25.478c2.182,6.552,10.106,46.355,21.465,106.923c0.615,3.282,0.615,3.282,1.23,6.568     c4.734,25.313,9.736,52.437,14.691,79.562c1.734,9.494,3.338,18.31,4.773,26.221c0.799,4.407,0.799,4.407,1.331,7.345     c0.388,2.146,0.388,2.146,0.469,2.597c0.815,4.518,5.059,7.581,9.604,6.932l59.733-8.533     C492.475,469.552,495.749,464.899,494.76,460.083z M268.041,279.043c0.181,0.249,0.357,0.5,0.571,0.738     c2.146,2.383,3.573,5.202,4.157,8.231c0.015,0.08,0.023,0.163,0.037,0.244c0.074,0.417,0.138,0.837,0.18,1.261     c0.05,0.534,0.082,1.074,0.082,1.621v17.067c0,0.547-0.031,1.087-0.082,1.621c-0.042,0.424-0.106,0.844-0.18,1.261     c-0.014,0.081-0.022,0.163-0.037,0.244c-0.584,3.029-2.011,5.848-4.157,8.231c-0.214,0.238-0.39,0.489-0.571,0.738     c-3.086,3.072-7.34,4.972-12.04,4.972s-8.953-1.9-12.04-4.972c-0.181-0.249-0.357-0.5-0.571-0.738     c-2.146-2.383-3.573-5.202-4.157-8.231c-0.015-0.08-0.023-0.163-0.037-0.244c-0.074-0.417-0.138-0.837-0.18-1.261     c-0.05-0.534-0.082-1.074-0.082-1.621v-17.067c0-0.547,0.031-1.087,0.082-1.621c0.042-0.424,0.106-0.844,0.18-1.261     c0.014-0.081,0.022-0.163,0.037-0.244c0.584-3.029,2.011-5.848,4.157-8.231c0.214-0.238,0.39-0.489,0.571-0.738     c3.086-3.072,7.34-4.972,12.039-4.972S264.955,275.971,268.041,279.043z M196.566,22.825l23.377,26.677l22.226,25.366     c-1.041,0.533-2.176,1.119-3.436,1.772c-0.803,0.416-0.803,0.416-1.6,0.829c-3.552,1.838-5.822,2.978-8.142,4.069     c-10.501,4.949-17.723,6.217-25.1,3.835c-3.136-1.013-11.726-8.766-20.69-18.899c-3.951-4.467-7.679-9.043-10.32-12.633     c-0.19-0.259-0.36-0.496-0.535-0.74L196.566,22.825z M315.437,22.825l24.22,30.275c-0.175,0.243-0.345,0.481-0.535,0.739     c-2.64,3.59-6.369,8.166-10.32,12.633c-8.964,10.134-17.554,17.886-20.691,18.9c-7.376,2.381-14.598,1.114-25.09-3.831     c-2.329-1.095-4.599-2.235-8.151-4.073c-0.797-0.413-0.797-0.413-1.6-0.829c-1.26-0.653-2.395-1.239-3.436-1.772l22.226-25.366     L315.437,22.825z M296.912,18.067l-17.666,20.161l-23.245,26.526l-23.245-26.526l-17.666-20.161H296.912z M132.685,207.982     c-0.566,1.396-0.566,1.396-1.13,2.797c-4.56,11.318-8.024,20.375-10.052,26.454c-2.579,7.745-10.302,46.538-22.05,109.178     c-0.616,3.286-0.616,3.286-1.232,6.576c-4.739,25.34-9.745,52.487-14.704,79.633c-1.735,9.501-3.341,18.323-4.777,26.241     c-0.132,0.731-0.243,1.34-0.338,1.862l-42.66-6.094c7.662-38.746,29.187-151.883,31.847-165.56     c2.967-15.258,5.759-29.417,8.441-42.794c19.285-96.16,34.213-156.085,40.763-162.272c5.682-5.359,23.527-14.76,41.004-21.253     c0.33,0.45,0.684,0.917,1.051,1.394c0.057,0.074,0.115,0.149,0.173,0.223c0.35,0.453,0.715,0.916,1.098,1.395     c0.026,0.033,0.051,0.064,0.077,0.097c0.424,0.528,0.867,1.073,1.331,1.634c0.034,0.041,0.071,0.085,0.105,0.127     c0.416,0.502,0.849,1.02,1.297,1.55c0.088,0.105,0.177,0.21,0.267,0.315c0.998,1.177,2.072,2.424,3.227,3.75     c0.054,0.062,0.11,0.126,0.164,0.188c0.564,0.647,1.148,1.313,1.75,1.998c0.024,0.027,0.048,0.055,0.072,0.082     c0.65,0.739,1.314,1.492,2.008,2.277c11.18,12.641,20.993,21.499,28.229,23.836c12.275,3.963,23.552,1.982,37.607-4.631     c2.563-1.204,5.002-2.43,8.724-4.356c0.832-0.431,0.832-0.431,1.658-0.859c0.287-0.149,0.56-0.29,0.833-0.432v166.741     c-5.283,1.359-10.065,3.958-14.033,7.458h-54.85c-1.81-30.619-8.247-62.877-17.111-87.982c-0.002-0.004-0.002-0.009-0.004-0.013     c-1.206-3.417-2.496-6.745-3.859-9.981c-5.226-12.407-10.502-21.44-14.164-26.496c-2.764-3.817-8.099-4.671-11.916-1.907     c-3.817,2.764-4.671,8.099-1.907,11.916c0.667,0.921,1.96,2.889,3.672,5.82c2.916,4.992,5.846,10.784,8.587,17.291     c0.821,1.948,1.6,3.948,2.36,5.97c-0.824,1.943-1.727,4.08-2.697,6.39C138.526,193.733,135.506,201.025,132.685,207.982z      M163.698,316.738c0.079-0.491,0.16-0.996,0.241-1.501c0.018-0.111,0.035-0.219,0.053-0.331c0.122-0.766,0.246-1.545,0.372-2.346     c0.491-3.12,2.144-13.875,2.101-13.597c1.046-6.75,1.884-11.877,2.701-16.359h53.777c-0.343,1.333-0.597,2.701-0.778,4.092     c-0.011,0.081-0.021,0.162-0.031,0.243c-0.07,0.57-0.126,1.144-0.167,1.722c-0.011,0.147-0.025,0.294-0.034,0.441     c-0.04,0.674-0.066,1.352-0.066,2.036v17.067c0,0.684,0.026,1.362,0.066,2.036c0.009,0.148,0.023,0.294,0.034,0.441     c0.042,0.578,0.097,1.152,0.167,1.722c0.01,0.081,0.02,0.162,0.031,0.243c0.181,1.391,0.435,2.759,0.778,4.092H163.698z      M167.416,333.804h66.019c3.968,3.5,8.75,6.099,14.033,7.458v43.704c0,0.012-0.002,0.024-0.002,0.036     c0,1.753-0.043,3.488-0.129,5.203c-0.006,0.126-0.016,0.251-0.023,0.377c-0.038,0.718-0.081,1.434-0.135,2.145     c-0.016,0.221-0.038,0.439-0.056,0.659c-0.05,0.613-0.101,1.224-0.162,1.832c-0.028,0.275-0.06,0.548-0.09,0.822     c-0.059,0.547-0.119,1.095-0.188,1.638c-0.039,0.313-0.084,0.623-0.126,0.934c-0.068,0.498-0.135,0.996-0.211,1.491     c-0.052,0.343-0.109,0.684-0.165,1.025c-0.074,0.457-0.149,0.914-0.23,1.367c-0.066,0.367-0.136,0.733-0.206,1.098     c-0.08,0.421-0.161,0.841-0.247,1.259c-0.081,0.392-0.166,0.783-0.251,1.172c-0.083,0.382-0.168,0.763-0.256,1.142     c-0.097,0.419-0.199,0.836-0.302,1.252c-0.085,0.343-0.17,0.685-0.259,1.026c-0.116,0.446-0.236,0.889-0.358,1.332     c-0.083,0.302-0.168,0.603-0.254,0.903c-0.137,0.476-0.278,0.95-0.423,1.421c-0.078,0.256-0.158,0.511-0.239,0.766     c-0.162,0.511-0.327,1.019-0.498,1.525c-0.069,0.204-0.139,0.408-0.209,0.612c-0.19,0.551-0.385,1.099-0.586,1.643     c-0.054,0.147-0.109,0.293-0.164,0.44c-0.224,0.598-0.453,1.193-0.689,1.783c-0.031,0.078-0.063,0.156-0.095,0.234     c-13.886,34.353-48.886,56.163-95.695,58.55C146.442,442.26,154.893,390.875,167.416,333.804z M314.884,493.845     c-17.154,1.715-31.427,2.091-58.884,2.091s-41.731-0.376-58.884-2.091c-6.92-0.692-13.464-1.577-19.624-2.669     c35.513-8.88,62.816-29.671,76.761-58.9c0.005-0.011,0.011-0.022,0.016-0.033c0.6-1.258,1.184-2.525,1.733-3.814     c13.335,31.251,41.472,53.47,78.549,62.74C328.378,492.264,321.82,493.151,314.884,493.845z M366.782,478.65     c-47.791-2.451-83.279-25.131-96.546-60.742c-0.016-0.044-0.033-0.087-0.049-0.131c-0.239-0.646-0.471-1.297-0.695-1.951     c-0.032-0.094-0.064-0.187-0.096-0.281c-0.209-0.616-0.411-1.236-0.607-1.859c-0.042-0.133-0.083-0.266-0.124-0.399     c-0.183-0.592-0.361-1.188-0.532-1.787c-0.048-0.168-0.095-0.336-0.142-0.505c-0.16-0.573-0.316-1.148-0.465-1.727     c-0.051-0.196-0.1-0.394-0.149-0.591c-0.14-0.56-0.277-1.121-0.407-1.686c-0.05-0.218-0.098-0.438-0.147-0.657     c-0.122-0.55-0.242-1.101-0.355-1.656c-0.048-0.238-0.094-0.478-0.141-0.718c-0.106-0.543-0.21-1.088-0.306-1.636     c-0.044-0.251-0.085-0.503-0.127-0.754c-0.091-0.543-0.181-1.086-0.263-1.633c-0.039-0.26-0.074-0.523-0.111-0.785     c-0.077-0.544-0.153-1.089-0.221-1.637c-0.033-0.262-0.06-0.527-0.091-0.79c-0.064-0.554-0.128-1.108-0.183-1.666     c-0.025-0.253-0.044-0.509-0.068-0.763c-0.052-0.573-0.104-1.146-0.146-1.723c-0.017-0.229-0.028-0.46-0.043-0.69     c-0.04-0.607-0.08-1.215-0.11-1.827c-0.007-0.152-0.01-0.305-0.017-0.457c-0.067-1.519-0.104-3.051-0.104-4.599v-43.738     c5.283-1.359,10.065-3.958,14.033-7.458h66.019C357.11,390.874,365.56,442.258,366.782,478.65z M341.558,282.604     c2.079,4.446,2.921,9.532,3.956,16.206c0.008,0.053,0.016,0.101,0.024,0.154c-0.043-0.278,1.61,10.477,2.101,13.597     c0.128,0.811,0.253,1.599,0.376,2.374c0.011,0.071,0.022,0.14,0.034,0.211c0.086,0.536,0.171,1.071,0.255,1.592h-59.245     c0.343-1.333,0.597-2.702,0.778-4.093c0.011-0.08,0.02-0.16,0.03-0.24c0.07-0.571,0.126-1.145,0.167-1.724     c0.011-0.147,0.025-0.294,0.034-0.441c0.04-0.674,0.066-1.352,0.066-2.036v-17.067c0-0.684-0.026-1.362-0.066-2.036     c-0.009-0.148-0.023-0.294-0.034-0.441c-0.042-0.579-0.097-1.153-0.167-1.724c-0.01-0.08-0.02-0.16-0.03-0.24     c-0.181-1.391-0.435-2.76-0.778-4.093H341.558z M433.601,460.723c-0.095-0.522-0.205-1.132-0.338-1.862     c-1.436-7.918-3.042-16.74-4.777-26.241c-4.958-27.146-9.964-54.293-14.704-79.633c-0.616-3.289-0.616-3.289-1.232-6.576     c-11.748-62.64-19.471-101.433-22.049-109.173c-2.03-6.084-5.494-15.141-10.054-26.459c-0.565-1.4-0.565-1.4-1.13-2.797     c-2.821-6.957-5.841-14.249-8.861-21.435c-0.97-2.31-1.873-4.447-2.697-6.39c0.76-2.022,1.539-4.022,2.36-5.97     c2.741-6.507,5.671-12.299,8.587-17.291c1.712-2.931,3.004-4.899,3.672-5.82c2.764-3.817,1.911-9.152-1.907-11.916     c-3.817-2.764-9.152-1.911-11.916,1.907c-3.661,5.056-8.938,14.089-14.164,26.496c-1.363,3.236-2.653,6.564-3.859,9.981     c-0.002,0.004-0.002,0.009-0.004,0.013c-8.864,25.105-15.301,57.364-17.111,87.982h-54.85c-3.968-3.5-8.75-6.099-14.033-7.458     V91.339c0.273,0.142,0.546,0.283,0.833,0.432c0.826,0.429,0.826,0.429,1.658,0.859c3.721,1.926,6.161,3.152,8.727,4.358     c3.351,1.576,6.54,2.881,9.626,3.913c0.147,0.049,0.298,0.106,0.444,0.154c9.678,3.163,18.324,3.535,27.532,0.563     c7.237-2.338,17.05-11.196,28.23-23.837c0.694-0.785,1.358-1.538,2.008-2.277c0.024-0.027,0.048-0.054,0.072-0.082     c0.613-0.697,1.206-1.374,1.78-2.032c0.04-0.046,0.081-0.093,0.121-0.139c1.162-1.334,2.243-2.588,3.246-3.771     c0.086-0.101,0.171-0.202,0.255-0.302c0.455-0.539,0.896-1.065,1.318-1.575c0.028-0.034,0.057-0.069,0.085-0.102     c0.468-0.567,0.916-1.116,1.343-1.649c0.018-0.022,0.034-0.043,0.052-0.065c0.396-0.494,0.771-0.972,1.132-1.438     c0.048-0.062,0.096-0.124,0.143-0.185c0.372-0.483,0.73-0.956,1.064-1.411c17.477,6.492,35.323,15.894,41.008,21.256     c6.546,6.182,21.474,66.108,40.759,162.268c2.683,13.377,5.474,27.536,8.441,42.794c2.66,13.676,24.185,126.813,31.847,165.56     L433.601,460.723z"/>
		</g>
	</g>
</g>
<g>
</g>
<g>
</g>
<g>
</g>
<g>
</g>
<g>
</g>
<g>
</g>
<g>
</g>
<g>
</g>
<g>
</g>
<g>
</g>
<g>
</g>
<g>
</g>
<g>
</g>
<g>
</g>
<g>
</g>
</svg>
