<?xml version="1.0" encoding="iso-8859-1"?>
<!-- Generator: Adobe Illustrator 19.0.0, SVG Export Plug-In . SVG Version: 6.00 Build 0)  -->
<svg xmlns="http://www.w3.org/2000/svg" xmlns:xlink="http://www.w3.org/1999/xlink" version="1.1" id="Layer_1" x="0px" y="0px" viewBox="0 0 512 512" style="enable-background:new 0 0 512 512;" xml:space="preserve">
<g transform="translate(0 -1)">
	<g>
		<path d="M494.759,460.083c-5.149-25.065-30.659-159.182-33.594-174.272c-2.973-15.289-5.771-29.48-8.461-42.891    C431.417,136.772,417.72,81.79,406.926,71.596c-8.169-7.709-33.084-18.244-60.433-26.738l-23.934-31.912    c-0.017-0.023-0.038-0.04-0.055-0.063c-0.227-0.297-0.472-0.583-0.74-0.851c-0.005-0.005-0.01-0.009-0.014-0.014    c-0.065-0.066-0.132-0.127-0.198-0.19C311.925,2.385,297.819,1,255.997,1c-41.84,0-55.941,1.386-65.568,10.841    c-0.059,0.056-0.118,0.11-0.175,0.168c-0.008,0.008-0.017,0.016-0.025,0.024c-0.271,0.271-0.517,0.56-0.747,0.86    c-0.015,0.019-0.032,0.034-0.047,0.054L165.501,44.86c-27.354,8.493-52.267,19.027-60.427,26.737    C94.28,81.79,80.583,136.772,59.296,242.92c-2.69,13.411-5.487,27.603-8.461,42.891C47.9,300.901,22.39,435.018,17.241,460.083    c-0.989,4.816,2.285,9.469,7.152,10.165l59.733,8.533c4.545,0.649,8.789-2.414,9.604-6.932c0.081-0.451,0.081-0.451,0.469-2.597    c0.532-2.938,0.532-2.938,1.331-7.345c1.435-7.911,3.039-16.727,4.773-26.221c4.954-27.124,9.956-54.249,14.691-79.562    c0.615-3.285,0.615-3.285,1.23-6.568c11.36-60.568,19.283-100.37,21.467-106.927c1.887-5.656,5.253-14.458,9.691-25.473    c0.557-1.382,0.557-1.382,1.116-2.761c1.167-2.877,2.368-5.814,3.591-8.778c5.383,21.219,9.005,45.225,9.794,67.774l-9.708,50.258    c-14.571,65.299-24.113,123.771-24.173,163.372c-0.162,2.973,1.167,6.028,4.308,7.79c0.089,0.051,0.178,0.101,0.269,0.149    c0.046,0.024,0.087,0.051,0.133,0.074c16.656,8.328,37.552,13.277,62.7,15.792c17.894,1.789,32.573,2.176,60.582,2.176    s42.688-0.386,60.582-2.176c25.148-2.515,46.045-7.464,62.701-15.792c0.031-0.015,0.058-0.033,0.088-0.049    c0.133-0.069,0.263-0.142,0.392-0.217c0.151-0.087,0.299-0.176,0.441-0.268c0.023-0.016,0.047-0.031,0.07-0.047    c2.654-1.757,3.815-4.517,3.728-7.234c-0.029-39.613-9.593-98.237-24.234-163.811l-0.935-4.845l-0.664-3.45    c-0.003-0.014-0.007-0.027-0.01-0.04l-8.048-41.681c0.788-22.544,4.413-46.549,9.801-67.775c1.22,2.96,2.42,5.892,3.585,8.765    c0.561,1.386,0.561,1.386,1.121,2.774c4.436,11.014,7.8,19.815,9.686,25.475c2.187,6.557,10.111,46.352,21.47,106.905    c0.617,3.293,0.617,3.293,1.234,6.589c4.735,25.313,9.737,52.437,14.692,79.562c1.734,9.494,3.338,18.31,4.773,26.221    c0.799,4.407,0.799,4.407,1.331,7.345c0.388,2.146,0.388,2.146,0.469,2.597c0.815,4.518,5.059,7.581,9.604,6.932l59.733-8.533    C492.474,469.552,495.748,464.899,494.759,460.083z M297.277,69.27c-5.478,22.326-25.996,71.634-39.937,94.674    c-0.008,0.014-0.017,0.028-0.025,0.042c-0.446,0.737-0.886,1.447-1.318,2.128c-0.012-0.019-0.023-0.036-0.035-0.055    c-0.4-0.632-0.807-1.29-1.219-1.969c-0.064-0.106-0.129-0.214-0.193-0.321c-0.394-0.654-0.793-1.325-1.197-2.019    c-0.024-0.042-0.048-0.082-0.073-0.124c-0.431-0.742-0.868-1.509-1.309-2.293c-0.063-0.112-0.127-0.226-0.19-0.339    c-0.433-0.774-0.87-1.564-1.312-2.376c-0.006-0.011-0.012-0.022-0.018-0.033c-0.455-0.838-0.915-1.698-1.378-2.573    c-0.065-0.122-0.129-0.245-0.194-0.368c-0.923-1.751-1.859-3.571-2.805-5.451c-0.062-0.123-0.124-0.246-0.185-0.37    c-0.951-1.897-1.911-3.851-2.875-5.852c-0.058-0.12-0.116-0.241-0.174-0.362c-0.97-2.019-1.943-4.084-2.916-6.183    c-0.052-0.112-0.104-0.225-0.156-0.338c-0.979-2.118-1.956-4.269-2.926-6.442c-0.044-0.1-0.089-0.199-0.133-0.299    c-0.975-2.187-1.943-4.395-2.9-6.612c-0.041-0.095-0.082-0.19-0.123-0.285c-0.956-2.219-1.899-4.446-2.825-6.669    c-0.041-0.098-0.082-0.196-0.122-0.293c-0.928-2.23-1.837-4.454-2.724-6.662c-0.033-0.082-0.066-0.165-0.099-0.247    c-0.888-2.213-1.753-4.407-2.589-6.571c-0.031-0.08-0.062-0.16-0.093-0.24c-0.419-1.085-0.831-2.162-1.234-3.229    c-0.008-0.02-0.015-0.039-0.022-0.059c-0.393-1.039-0.778-2.069-1.155-3.089c-0.029-0.077-0.058-0.155-0.086-0.232    c-0.384-1.038-0.759-2.065-1.125-3.08c-0.016-0.044-0.031-0.087-0.047-0.13c-0.353-0.98-0.697-1.946-1.033-2.901    c-0.024-0.068-0.048-0.136-0.072-0.204c-0.344-0.979-0.678-1.944-1.001-2.893c-0.023-0.066-0.045-0.132-0.067-0.198    c-0.308-0.904-0.606-1.793-0.894-2.667c-0.021-0.062-0.042-0.126-0.062-0.188c-0.298-0.905-0.585-1.793-0.861-2.662    c-0.026-0.083-0.051-0.163-0.077-0.246c-0.258-0.816-0.506-1.615-0.743-2.396c-0.019-0.062-0.039-0.126-0.057-0.188    c-0.246-0.815-0.48-1.608-0.702-2.381c-0.028-0.096-0.054-0.19-0.081-0.286c-0.207-0.728-0.405-1.438-0.589-2.125    c-0.012-0.046-0.026-0.095-0.038-0.141c-0.192-0.718-0.369-1.411-0.535-2.082c-0.01-0.042-0.02-0.082-0.03-0.124h82.561    C297.278,69.268,297.277,69.269,297.277,69.27z M191.638,38.455l4.647,23.237c0.001,0.02,0.003,0.042,0.004,0.062    c0.002,0.046,0.007,0.096,0.009,0.142c0.016,0.309,0.038,0.626,0.066,0.957c0.008,0.092,0.02,0.19,0.029,0.284    c0.028,0.294,0.058,0.591,0.095,0.901c0.014,0.118,0.032,0.243,0.047,0.363c0.038,0.297,0.078,0.596,0.124,0.906    c0.02,0.137,0.044,0.279,0.065,0.419c0.048,0.306,0.097,0.614,0.152,0.932c0.026,0.15,0.054,0.305,0.082,0.458    c0.057,0.319,0.117,0.642,0.181,0.973c0.031,0.163,0.065,0.328,0.098,0.494c0.067,0.333,0.136,0.67,0.209,1.014    c0.036,0.17,0.073,0.343,0.111,0.516c0.076,0.351,0.156,0.707,0.239,1.068c0.04,0.176,0.081,0.354,0.123,0.532    c0.087,0.373,0.178,0.752,0.272,1.136c0.042,0.173,0.084,0.346,0.128,0.521c0.099,0.399,0.203,0.805,0.308,1.215    c0.044,0.172,0.088,0.343,0.134,0.517c0.113,0.433,0.231,0.873,0.351,1.317c0.042,0.154,0.082,0.306,0.125,0.461    c0.132,0.482,0.269,0.973,0.409,1.467c0.036,0.127,0.07,0.251,0.106,0.378c0.155,0.544,0.316,1.097,0.48,1.656    c0.025,0.083,0.048,0.165,0.073,0.249c0.968,3.281,2.087,6.793,3.331,10.473c0.014,0.042,0.029,0.084,0.043,0.126    c0.232,0.686,0.468,1.377,0.709,2.073c0.032,0.093,0.065,0.188,0.098,0.282c0.223,0.643,0.448,1.291,0.678,1.943    c0.048,0.137,0.097,0.275,0.146,0.412c0.218,0.617,0.438,1.237,0.662,1.861c0.055,0.155,0.112,0.31,0.167,0.465    c0.218,0.606,0.438,1.214,0.662,1.826c0.064,0.176,0.129,0.353,0.194,0.53c0.22,0.6,0.442,1.203,0.667,1.808    c0.066,0.178,0.133,0.356,0.199,0.535c0.229,0.615,0.46,1.231,0.694,1.85c0.064,0.169,0.127,0.337,0.191,0.506    c0.24,0.635,0.484,1.273,0.729,1.913c0.059,0.153,0.117,0.306,0.176,0.459c0.252,0.655,0.506,1.312,0.762,1.971    c0.057,0.147,0.114,0.293,0.171,0.44c0.267,0.685,0.537,1.372,0.809,2.061c0.045,0.113,0.089,0.226,0.134,0.339    c0.298,0.754,0.599,1.509,0.902,2.266c0.019,0.047,0.038,0.094,0.057,0.142c1.98,4.937,4.066,9.93,6.213,14.872    c0.013,0.03,0.026,0.06,0.039,0.089c0.337,0.776,0.676,1.55,1.016,2.323c0.044,0.1,0.089,0.2,0.133,0.301    c0.31,0.703,0.621,1.405,0.933,2.105c0.062,0.139,0.124,0.278,0.186,0.417c0.295,0.659,0.59,1.317,0.886,1.973    c0.075,0.166,0.15,0.331,0.225,0.497c0.285,0.63,0.571,1.259,0.858,1.885c0.082,0.179,0.164,0.357,0.245,0.536    c0.281,0.612,0.562,1.222,0.844,1.83c0.085,0.184,0.171,0.368,0.256,0.552c0.282,0.606,0.564,1.21,0.847,1.811    c0.083,0.177,0.166,0.354,0.25,0.531c0.287,0.608,0.574,1.214,0.861,1.816c0.078,0.165,0.157,0.33,0.235,0.494    c0.293,0.613,0.586,1.221,0.879,1.828c0.074,0.152,0.147,0.306,0.221,0.458c0.304,0.628,0.609,1.25,0.913,1.87    c0.061,0.124,0.121,0.248,0.182,0.372c0.328,0.666,0.655,1.326,0.982,1.981c0.037,0.074,0.074,0.149,0.111,0.223    c1.847,3.695,3.683,7.227,5.485,10.531c0.043,0.08,0.087,0.157,0.13,0.237c0.309,0.566,0.618,1.127,0.925,1.679    c0.074,0.134,0.148,0.265,0.223,0.398c0.275,0.493,0.55,0.982,0.823,1.464c0.092,0.163,0.184,0.322,0.276,0.484    c0.254,0.444,0.507,0.885,0.758,1.318c0.103,0.178,0.206,0.352,0.309,0.528c0.24,0.41,0.479,0.816,0.716,1.216    c0.11,0.184,0.219,0.366,0.328,0.548c0.229,0.383,0.458,0.761,0.685,1.133c0.113,0.185,0.225,0.368,0.337,0.55    c0.222,0.361,0.443,0.717,0.663,1.068c0.113,0.181,0.227,0.361,0.34,0.539c0.218,0.344,0.434,0.681,0.65,1.015    c0.111,0.172,0.223,0.345,0.333,0.514c0.216,0.33,0.429,0.652,0.642,0.971c0.108,0.162,0.216,0.324,0.324,0.483    c0.213,0.315,0.424,0.621,0.634,0.924c0.105,0.152,0.211,0.305,0.315,0.454c0.214,0.305,0.426,0.6,0.637,0.892    c0.096,0.133,0.192,0.269,0.288,0.399c0.223,0.305,0.444,0.598,0.663,0.889c0.08,0.106,0.162,0.217,0.242,0.321    c0.246,0.32,0.488,0.627,0.728,0.928c0.051,0.064,0.104,0.133,0.155,0.196c0.018,0.022,0.037,0.047,0.055,0.069v25.239    c-0.248-0.162-0.495-0.324-0.744-0.491c-0.522-0.349-1.047-0.706-1.574-1.073c-0.417-0.291-0.836-0.585-1.256-0.886    c-0.561-0.403-1.126-0.82-1.691-1.243c-0.386-0.288-0.771-0.574-1.159-0.871c-0.673-0.517-1.349-1.052-2.026-1.595    c-0.28-0.225-0.559-0.441-0.84-0.669c-0.979-0.799-1.962-1.621-2.946-2.472c-22.656-19.599-37.825-47.484-43.221-78.589    l-6.492-35.149l-5.778-31.302L191.638,38.455z M320.005,120.683c-5.412,31.196-20.581,59.081-43.237,78.68    c-0.979,0.847-1.956,1.664-2.93,2.459c-0.291,0.237-0.58,0.462-0.871,0.695c-0.68,0.545-1.359,1.084-2.036,1.603    c-0.352,0.27-0.702,0.529-1.053,0.792c-0.614,0.46-1.227,0.913-1.837,1.351c-0.366,0.263-0.731,0.519-1.096,0.774    c-0.596,0.416-1.188,0.819-1.778,1.212c-0.212,0.141-0.423,0.28-0.635,0.418v-25.241c0.613-0.757,1.245-1.586,1.891-2.47    c0.021-0.029,0.042-0.058,0.063-0.087c0.288-0.395,0.578-0.802,0.872-1.221c0.034-0.049,0.069-0.1,0.103-0.149    c0.283-0.406,0.569-0.823,0.858-1.251c0.037-0.055,0.075-0.112,0.112-0.167c0.287-0.428,0.577-0.865,0.869-1.313    c0.039-0.059,0.077-0.119,0.116-0.179c0.293-0.452,0.588-0.912,0.886-1.383c0.037-0.058,0.074-0.117,0.111-0.176    c0.303-0.482,0.609-0.973,0.916-1.475c0.03-0.049,0.06-0.097,0.089-0.146c0.319-0.521,0.64-1.053,0.964-1.594    c0.018-0.03,0.036-0.06,0.054-0.09c15.316-25.686,35.033-73.19,41.294-98.563c0.003-0.011,0.005-0.022,0.008-0.034    c0.136-0.552,0.266-1.094,0.389-1.625c0.008-0.035,0.016-0.069,0.024-0.104c0.118-0.511,0.23-1.011,0.335-1.501    c0.009-0.042,0.018-0.084,0.027-0.126c0.103-0.481,0.199-0.95,0.29-1.41c0.009-0.045,0.018-0.09,0.026-0.134    c0.089-0.458,0.172-0.905,0.249-1.341c0.007-0.039,0.014-0.078,0.021-0.116c0.077-0.441,0.147-0.871,0.21-1.289    c0.004-0.028,0.009-0.058,0.013-0.086c0.065-0.435,0.123-0.856,0.172-1.264c0.001-0.008,0.002-0.016,0.003-0.024    c0.105-0.867,0.179-1.678,0.213-2.416l4.647-23.237l11.905,15.873L320.005,120.683z M255.997,18.067    c28.505,0,43.332,0.976,50.256,3.873l-6.052,30.26h-88.409l-6.052-30.26C212.664,19.042,227.492,18.067,255.997,18.067z     M132.684,207.982c-0.566,1.396-0.566,1.396-1.13,2.797c-4.56,11.318-8.024,20.375-10.052,26.454    c-2.579,7.745-10.302,46.538-22.05,109.178c-0.616,3.286-0.616,3.286-1.232,6.576c-4.739,25.34-9.745,52.487-14.704,79.633    c-1.735,9.501-3.341,18.323-4.777,26.241c-0.132,0.731-0.243,1.34-0.338,1.862l-42.66-6.094    c7.662-38.746,29.187-151.883,31.847-165.56c2.967-15.258,5.759-29.417,8.441-42.794c19.285-96.16,34.213-156.085,40.763-162.271    c5.067-4.787,25.003-13.427,47.234-20.751l4.75,25.714l6.427,34.815c6.035,34.795,23.143,66.238,48.853,88.488    c1.796,1.552,3.595,3.035,5.392,4.446c6.085,4.78,12.155,8.726,18.014,11.655V385c0,2.64-0.099,5.238-0.292,7.792    c-0.006,0.084-0.015,0.167-0.021,0.25c-0.059,0.749-0.125,1.496-0.2,2.237c-0.017,0.172-0.038,0.342-0.057,0.514    c-0.069,0.649-0.143,1.296-0.224,1.939c-0.03,0.235-0.064,0.467-0.095,0.701c-0.077,0.574-0.157,1.147-0.245,1.717    c-0.043,0.281-0.09,0.561-0.136,0.841c-0.084,0.518-0.17,1.034-0.263,1.548c-0.057,0.315-0.117,0.628-0.177,0.941    c-0.09,0.472-0.182,0.942-0.279,1.41c-0.072,0.346-0.147,0.69-0.222,1.034c-0.094,0.429-0.19,0.857-0.29,1.284    c-0.087,0.372-0.178,0.742-0.269,1.112c-0.097,0.39-0.195,0.779-0.297,1.167c-0.104,0.397-0.211,0.793-0.321,1.187    c-0.098,0.354-0.198,0.706-0.3,1.057c-0.122,0.42-0.247,0.839-0.375,1.255c-0.097,0.317-0.197,0.632-0.297,0.947    c-0.142,0.445-0.286,0.888-0.435,1.329c-0.094,0.278-0.19,0.555-0.287,0.832c-0.164,0.47-0.33,0.939-0.502,1.405    c-0.088,0.237-0.178,0.473-0.267,0.71c-0.189,0.498-0.38,0.996-0.577,1.489c-0.077,0.192-0.156,0.382-0.234,0.573    c-0.218,0.532-0.438,1.062-0.665,1.588c-0.06,0.139-0.123,0.276-0.183,0.415c-0.252,0.572-0.506,1.143-0.77,1.708    c-0.034,0.073-0.069,0.144-0.103,0.217c-4.442,9.455-10.556,17.886-18.13,25.128c-0.013,0.012-0.026,0.025-0.039,0.037    c-0.525,0.501-1.057,0.997-1.596,1.486c-0.028,0.025-0.056,0.051-0.083,0.076c-0.528,0.479-1.064,0.953-1.605,1.421    c-0.039,0.034-0.079,0.068-0.119,0.102c-0.533,0.459-1.072,0.912-1.617,1.36c-0.051,0.042-0.103,0.084-0.154,0.126    c-0.538,0.44-1.082,0.875-1.632,1.305c-0.06,0.047-0.121,0.094-0.181,0.141c-0.546,0.424-1.097,0.843-1.654,1.256    c-0.067,0.05-0.134,0.099-0.202,0.148c-0.555,0.409-1.114,0.813-1.68,1.212c-0.071,0.05-0.144,0.1-0.215,0.15    c-0.566,0.396-1.136,0.788-1.714,1.174c-0.072,0.048-0.145,0.095-0.217,0.143c-0.58,0.385-1.164,0.767-1.755,1.142    c-0.07,0.044-0.141,0.088-0.212,0.132c-0.597,0.377-1.199,0.749-1.807,1.115c-0.058,0.035-0.117,0.069-0.175,0.104    c-0.623,0.373-1.251,0.742-1.886,1.103c-0.032,0.018-0.065,0.036-0.097,0.054c-3.311,1.882-6.78,3.605-10.393,5.168    c-0.118,0.051-0.234,0.105-0.353,0.155c-0.476,0.204-0.959,0.401-1.441,0.599c-0.303,0.125-0.604,0.253-0.909,0.375    c-0.414,0.166-0.833,0.326-1.251,0.488c-0.38,0.148-0.759,0.298-1.142,0.442c-0.38,0.143-0.765,0.281-1.148,0.42    c-0.427,0.156-0.854,0.313-1.285,0.464c-0.36,0.127-0.724,0.248-1.086,0.372c-0.461,0.157-0.922,0.315-1.387,0.467    c-0.346,0.113-0.695,0.222-1.042,0.333c-0.488,0.155-0.977,0.31-1.47,0.46c-0.335,0.102-0.672,0.2-1.009,0.299    c-0.514,0.151-1.028,0.302-1.546,0.447c-0.324,0.091-0.651,0.179-0.977,0.268c-0.536,0.146-1.073,0.29-1.613,0.43    c-0.318,0.082-0.638,0.162-0.958,0.242c-0.555,0.139-1.111,0.276-1.67,0.408c-0.312,0.074-0.626,0.146-0.939,0.218    c-0.573,0.131-1.149,0.26-1.727,0.384c-0.308,0.066-0.617,0.131-0.926,0.196c-0.59,0.123-1.183,0.242-1.779,0.358    c-0.302,0.059-0.604,0.117-0.908,0.174c-0.608,0.114-1.219,0.224-1.833,0.331c-0.299,0.052-0.597,0.104-0.897,0.154    c-0.624,0.104-1.251,0.204-1.88,0.301c-0.294,0.045-0.587,0.091-0.883,0.134c-0.641,0.095-1.285,0.184-1.931,0.27    c-0.289,0.039-0.578,0.079-0.869,0.116c-0.656,0.084-1.316,0.162-1.978,0.238c-0.286,0.033-0.57,0.067-0.857,0.098    c-0.674,0.073-1.353,0.14-2.032,0.205c-0.279,0.027-0.557,0.055-0.837,0.081c-0.688,0.062-1.381,0.117-2.075,0.17    c-0.277,0.021-0.553,0.045-0.831,0.065c-0.709,0.051-1.422,0.094-2.136,0.135c-0.266,0.016-0.53,0.034-0.797,0.048    c-0.097,0.005-0.195,0.008-0.291,0.013c0.495-14.739,2.179-31.942,4.834-50.979h6.299c31.468,0,56.977-25.506,56.977-56.977    v-53.956c0-4.713-3.82-8.533-8.533-8.533h-32.256l6.282-32.511l0.151-1.887c-1.04-32.996-7.837-68.881-17.507-96.261    c-0.004-0.011-0.01-0.02-0.014-0.032c-1.203-3.405-2.489-6.723-3.847-9.949c-5.226-12.407-10.502-21.44-14.164-26.496    c-2.764-3.817-8.099-4.671-11.916-1.907c-3.817,2.764-4.671,8.099-1.907,11.916c0.667,0.921,1.96,2.889,3.672,5.82    c2.916,4.992,5.846,10.784,8.587,17.291c0.822,1.951,1.602,3.953,2.363,5.978c-0.824,1.942-1.726,4.078-2.696,6.386    C138.525,193.733,135.505,201.025,132.684,207.982z M169.248,325.262h27.016v45.423c0,22.044-17.868,39.91-39.91,39.91h-3.685    c4.211-26.396,9.841-54.927,16.22-83.472L169.248,325.262z M314.881,493.842c-17.154,1.715-31.427,2.091-58.884,2.091    s-41.731-0.376-58.884-2.091c-7.015-0.701-13.644-1.601-19.878-2.714c1.285-0.321,2.557-0.661,3.821-1.013    c0.37-0.103,0.735-0.213,1.104-0.319c1.028-0.295,2.05-0.599,3.063-0.915c0.422-0.132,0.844-0.264,1.264-0.399    c1.107-0.356,2.205-0.724,3.293-1.105c0.234-0.082,0.471-0.159,0.703-0.242c1.33-0.473,2.645-0.965,3.946-1.474    c0.269-0.105,0.534-0.215,0.802-0.322c1.06-0.422,2.11-0.856,3.15-1.303c0.312-0.134,0.623-0.267,0.933-0.403    c1.2-0.526,2.389-1.064,3.562-1.622c0.059-0.028,0.12-0.055,0.179-0.083c1.294-0.617,2.568-1.255,3.828-1.911    c0.161-0.084,0.319-0.17,0.479-0.254c1.09-0.573,2.167-1.161,3.231-1.762c0.2-0.113,0.401-0.226,0.6-0.34    c2.446-1.4,4.823-2.874,7.127-4.422c0.072-0.049,0.143-0.098,0.215-0.147c1.088-0.735,2.158-1.487,3.212-2.254    c0.11-0.08,0.221-0.159,0.33-0.24c2.269-1.663,4.462-3.399,6.572-5.21c0.02-0.017,0.039-0.034,0.058-0.051    c1.034-0.888,2.046-1.794,3.04-2.717c0.053-0.05,0.107-0.099,0.161-0.148c2.048-1.908,4.011-3.888,5.886-5.94    c0.006-0.006,0.011-0.012,0.017-0.018c0.924-1.011,1.824-2.041,2.705-3.087c0.033-0.039,0.066-0.078,0.099-0.117    c1.781-2.122,3.473-4.313,5.072-6.572c0.023-0.032,0.045-0.065,0.068-0.098c0.765-1.084,1.509-2.185,2.231-3.3    c0.043-0.066,0.086-0.132,0.129-0.198c1.479-2.295,2.865-4.654,4.156-7.076c0.056-0.105,0.11-0.211,0.166-0.316    c0.58-1.096,1.139-2.205,1.679-3.327c0.066-0.138,0.134-0.274,0.2-0.412c0.582-1.222,1.149-2.453,1.683-3.705    c0.528,1.235,1.088,2.451,1.662,3.657c0.087,0.183,0.177,0.365,0.265,0.547c0.501,1.036,1.018,2.061,1.552,3.075    c0.102,0.193,0.202,0.388,0.305,0.581c1.239,2.315,2.564,4.572,3.975,6.771c0.157,0.245,0.317,0.486,0.476,0.729    c0.559,0.855,1.132,1.702,1.716,2.539c0.181,0.259,0.36,0.52,0.543,0.777c0.738,1.035,1.489,2.06,2.266,3.066    c0.062,0.08,0.127,0.158,0.19,0.238c0.7,0.901,1.418,1.789,2.148,2.666c0.283,0.34,0.572,0.676,0.859,1.013    c0.535,0.626,1.079,1.246,1.63,1.86c0.322,0.359,0.642,0.719,0.969,1.073c0.662,0.717,1.337,1.424,2.021,2.123    c0.478,0.49,0.966,0.972,1.455,1.453c0.516,0.507,1.033,1.014,1.56,1.511c0.474,0.448,0.956,0.889,1.439,1.328    c0.416,0.378,0.836,0.753,1.26,1.126c0.533,0.47,1.067,0.94,1.611,1.4c0.288,0.244,0.584,0.48,0.875,0.721    c1.21,1.003,2.446,1.982,3.706,2.938c0.233,0.176,0.463,0.356,0.697,0.53c0.714,0.532,1.438,1.055,2.167,1.573    c0.221,0.156,0.443,0.312,0.665,0.467c12.261,8.567,26.67,15.031,42.765,19.051C328.538,492.239,321.904,493.14,314.881,493.842z     M343.055,326.879c6.424,28.762,12.059,57.318,16.271,83.716h-3.685c-22.042,0-39.91-17.866-39.91-39.91v-45.423h27.013    L343.055,326.879z M433.599,460.723c-0.095-0.522-0.205-1.132-0.338-1.862c-1.436-7.918-3.042-16.74-4.777-26.241    c-4.958-27.146-9.965-54.293-14.705-79.633c-0.618-3.3-0.618-3.3-1.236-6.598c-11.748-62.631-19.471-101.414-22.053-109.155    c-2.025-6.078-5.487-15.136-10.046-26.455c-0.567-1.407-0.567-1.407-1.136-2.81c-2.82-6.955-5.838-14.244-8.856-21.427    c-0.971-2.31-1.873-4.448-2.697-6.39c0.76-2.022,1.539-4.021,2.36-5.969c2.741-6.507,5.671-12.299,8.587-17.291    c1.712-2.931,3.004-4.899,3.672-5.82c2.764-3.817,1.911-9.152-1.907-11.916c-3.817-2.764-9.152-1.911-11.916,1.907    c-3.661,5.056-8.938,14.089-14.164,26.496c-1.363,3.236-2.653,6.564-3.859,9.981c-0.012,0.035-0.02,0.071-0.032,0.107    c-9.655,27.38-16.441,63.21-17.479,96.153l0.151,1.887l6.28,32.511h-32.252c-4.713,0-8.533,3.82-8.533,8.533v53.956    c0,31.471,25.51,56.977,56.977,56.977h6.303c2.657,19.04,4.341,36.239,4.836,50.971c-35.103-1.839-63.628-14.635-81.542-35.447    c-0.005-0.005-0.01-0.011-0.014-0.016c-0.492-0.572-0.976-1.151-1.453-1.736c-0.02-0.024-0.04-0.047-0.059-0.071    c-0.464-0.571-0.92-1.149-1.369-1.732c-0.027-0.036-0.056-0.07-0.083-0.106c-0.442-0.575-0.875-1.157-1.301-1.743    c-0.031-0.043-0.064-0.085-0.095-0.128c-0.439-0.606-0.869-1.218-1.292-1.835c-0.015-0.022-0.031-0.044-0.046-0.066    c-0.435-0.637-0.862-1.28-1.279-1.93c-0.132-0.205-0.257-0.414-0.387-0.62c-0.272-0.431-0.544-0.861-0.808-1.297    c-0.243-0.402-0.477-0.809-0.714-1.216c-0.143-0.245-0.29-0.489-0.43-0.736c-0.255-0.449-0.501-0.903-0.748-1.356    c-0.114-0.21-0.232-0.418-0.344-0.628c-0.252-0.473-0.496-0.95-0.739-1.428c-0.1-0.197-0.203-0.392-0.302-0.59    c-0.245-0.491-0.481-0.986-0.717-1.482c-0.09-0.19-0.182-0.378-0.271-0.568c-0.234-0.503-0.461-1.012-0.686-1.521    c-0.083-0.188-0.168-0.376-0.25-0.565c-0.222-0.514-0.437-1.032-0.65-1.551c-0.077-0.188-0.155-0.376-0.231-0.565    c-0.211-0.525-0.414-1.055-0.615-1.586c-0.071-0.187-0.142-0.374-0.212-0.563c-0.197-0.534-0.388-1.071-0.575-1.61    c-0.066-0.191-0.133-0.382-0.198-0.573c-0.184-0.542-0.362-1.087-0.536-1.634c-0.061-0.192-0.122-0.384-0.181-0.576    c-0.171-0.552-0.336-1.107-0.497-1.664c-0.055-0.191-0.11-0.383-0.164-0.575c-0.157-0.561-0.31-1.125-0.457-1.692    c-0.05-0.193-0.099-0.387-0.148-0.581c-0.144-0.57-0.283-1.142-0.416-1.717c-0.045-0.193-0.088-0.388-0.131-0.582    c-0.13-0.58-0.256-1.161-0.376-1.747c-0.039-0.192-0.076-0.386-0.114-0.579c-0.117-0.592-0.23-1.186-0.336-1.783    c-0.033-0.185-0.063-0.371-0.094-0.557c-0.104-0.61-0.205-1.222-0.297-1.837c-0.026-0.172-0.049-0.345-0.074-0.517    c-0.091-0.632-0.179-1.265-0.259-1.903c-0.019-0.153-0.035-0.308-0.053-0.461c-0.079-0.661-0.154-1.323-0.22-1.99    c-0.011-0.116-0.02-0.233-0.031-0.35c-0.067-0.708-0.13-1.419-0.182-2.134c-0.003-0.036-0.004-0.072-0.007-0.108    c-0.174-2.422-0.263-4.882-0.263-7.38h-0.003V228.371c7.59-3.794,15.533-9.292,23.404-16.101    c25.715-22.245,42.818-53.685,48.871-88.579l11.165-60.439c22.229,7.325,42.167,15.965,47.241,20.753    c6.548,6.184,21.476,66.11,40.761,162.269c2.683,13.377,5.474,27.536,8.442,42.794c2.66,13.676,24.185,126.813,31.847,165.56    L433.599,460.723z"/>
	</g>
</g>
<g>
</g>
<g>
</g>
<g>
</g>
<g>
</g>
<g>
</g>
<g>
</g>
<g>
</g>
<g>
</g>
<g>
</g>
<g>
</g>
<g>
</g>
<g>
</g>
<g>
</g>
<g>
</g>
<g>
</g>
</svg>
