<?xml version="1.0" encoding="iso-8859-1"?>
<!-- Generator: Adobe Illustrator 19.0.0, SVG Export Plug-In . SVG Version: 6.00 Build 0)  -->
<svg xmlns="http://www.w3.org/2000/svg" xmlns:xlink="http://www.w3.org/1999/xlink" version="1.1" id="Layer_1" x="0px" y="0px" viewBox="0 0 512 512" style="enable-background:new 0 0 512 512;" xml:space="preserve">
<g transform="translate(0 -1)">
	<g>
		<g>
			<circle cx="221.867" cy="248.467" r="8.533"/>
			<circle cx="221.867" cy="299.667" r="8.533"/>
			<circle cx="290.133" cy="248.467" r="8.533"/>
			<circle cx="290.133" cy="299.667" r="8.533"/>
			<circle cx="221.867" cy="350.867" r="8.533"/>
			<circle cx="221.867" cy="402.067" r="8.533"/>
			<circle cx="290.133" cy="350.867" r="8.533"/>
			<circle cx="290.133" cy="402.067" r="8.533"/>
			<path d="M494.759,460.083c-5.149-25.065-30.659-159.182-33.594-174.272c-2.973-15.289-5.771-29.48-8.461-42.891     C431.417,136.772,417.72,81.79,406.926,71.596c-8.169-7.709-33.082-18.243-60.43-26.737l-23.935-31.913     c-0.016-0.021-0.035-0.037-0.051-0.058c-0.228-0.299-0.474-0.586-0.743-0.856c-0.006-0.006-0.013-0.012-0.019-0.019     c-0.061-0.062-0.124-0.12-0.187-0.179C311.935,2.385,297.831,1,256,1c-41.831,0-55.935,1.385-65.561,10.835     c-0.063,0.059-0.125,0.117-0.187,0.179c-0.006,0.006-0.013,0.012-0.019,0.019c-0.27,0.27-0.515,0.557-0.743,0.856     c-0.016,0.021-0.035,0.037-0.051,0.058l-23.935,31.913c-27.348,8.494-52.261,19.028-60.427,26.735     C94.28,81.79,80.583,136.772,59.296,242.92c-2.69,13.411-5.487,27.603-8.461,42.891C47.9,300.901,22.39,435.018,17.241,460.083     c-0.989,4.816,2.285,9.469,7.152,10.165l59.733,8.533c4.545,0.649,8.789-2.414,9.604-6.932c0.081-0.451,0.081-0.451,0.469-2.597     c0.532-2.938,0.532-2.938,1.331-7.345c1.435-7.911,3.039-16.727,4.773-26.221c4.954-27.124,9.956-54.248,14.691-79.561     c0.617-3.298,0.617-3.298,1.235-6.593c11.358-60.552,19.283-100.347,21.469-106.898c1.887-5.665,5.249-14.464,9.683-25.473     c0.562-1.393,0.562-1.393,1.125-2.783c1.168-2.881,2.372-5.822,3.596-8.791c6.102,23.913,9.922,51.142,10.028,75.95     c-0.289,1.141-0.698,2.77-1.214,4.851c-1.174,4.739-2.482,10.138-3.889,16.103c-4.02,17.036-8.039,35.203-11.792,53.752     c-3.509,17.346-6.608,34.168-9.185,50.157c-5.164,32.045-8.025,59.392-8.049,80.72c-0.119,2.761,1.049,5.58,3.758,7.355     c0.002,0.001,0.004,0.002,0.005,0.004c0.166,0.109,0.338,0.213,0.516,0.314c0.109,0.063,0.217,0.124,0.329,0.182     c0.04,0.021,0.076,0.044,0.116,0.064C162.124,509.692,195.111,513,256,513c28.167,0,42.77-0.382,60.578-2.154     c25.156-2.503,46.049-7.443,62.705-15.771c2.19-1.095,3.676-2.991,4.333-5.135c0-0.001,0-0.002,0.001-0.002     c0.074-0.241,0.136-0.484,0.188-0.73c0.011-0.052,0.023-0.103,0.033-0.156c0.041-0.211,0.072-0.422,0.097-0.635     c0.01-0.088,0.02-0.176,0.028-0.265c0.016-0.185,0.024-0.37,0.028-0.556c0.001-0.066,0.01-0.13,0.01-0.196     c0-21.368-2.865-48.818-8.051-81.001c-2.577-15.989-5.675-32.811-9.185-50.157c-3.753-18.549-7.772-36.716-11.792-53.752     c-1.407-5.965-2.715-11.364-3.889-16.103c-0.516-2.081-0.925-3.71-1.214-4.851c0.107-24.808,3.926-52.037,10.028-75.95     c1.224,2.969,2.428,5.91,3.596,8.791c0.563,1.391,0.563,1.391,1.125,2.783c4.434,11.01,7.797,19.808,9.682,25.469     c2.187,6.555,10.112,46.35,21.47,106.902c0.618,3.295,0.618,3.295,1.235,6.593c4.735,25.313,9.737,52.437,14.691,79.561     c1.734,9.494,3.338,18.309,4.773,26.221c0.799,4.407,0.799,4.407,1.331,7.345c0.388,2.146,0.388,2.146,0.469,2.597     c0.815,4.518,5.059,7.581,9.605,6.932l59.733-8.533C492.474,469.552,495.748,464.899,494.759,460.083z M320.007,120.683     c-2.368,13.647-6.602,26.661-12.514,38.624c-0.001,0.001-0.001,0.002-0.002,0.003c-0.046,0.092-0.094,0.183-0.14,0.276     c-7.591,15.27-17.916,28.82-30.583,39.778c-0.038,0.033-0.075,0.064-0.113,0.096c-0.947,0.817-1.893,1.61-2.835,2.379     c-0.07,0.057-0.141,0.117-0.211,0.174c-0.951,0.773-1.899,1.517-2.843,2.238c-0.081,0.062-0.163,0.127-0.244,0.189     c-0.935,0.711-1.864,1.392-2.788,2.05c-0.09,0.064-0.181,0.131-0.271,0.195c-0.915,0.647-1.822,1.264-2.724,1.857     c-0.067,0.044-0.135,0.091-0.203,0.135v-25.252c0.314-0.388,0.634-0.798,0.958-1.22c0.038-0.05,0.077-0.103,0.116-0.154     c0.262-0.344,0.526-0.697,0.793-1.063c0.058-0.079,0.117-0.163,0.175-0.243c0.249-0.344,0.5-0.695,0.754-1.057     c0.069-0.099,0.14-0.201,0.209-0.302c0.247-0.355,0.495-0.716,0.746-1.087c0.072-0.107,0.145-0.217,0.218-0.325     c0.25-0.373,0.501-0.752,0.755-1.141c0.075-0.116,0.151-0.233,0.227-0.35c0.253-0.391,0.507-0.788,0.764-1.193     c0.077-0.121,0.153-0.243,0.23-0.366c0.26-0.414,0.522-0.836,0.785-1.264c0.072-0.117,0.144-0.234,0.216-0.352     c0.272-0.446,0.546-0.899,0.822-1.359c0.065-0.108,0.129-0.216,0.194-0.324c0.289-0.485,0.579-0.978,0.87-1.477     c0.052-0.089,0.103-0.176,0.155-0.265c0.313-0.539,0.628-1.086,0.944-1.641c0.031-0.054,0.061-0.107,0.092-0.161     c3.912-6.883,8.047-14.997,12.129-23.666c0.003-0.006,0.006-0.013,0.009-0.019c0.368-0.782,0.736-1.569,1.103-2.36     c0.004-0.009,0.008-0.017,0.012-0.026c10.377-22.346,20.235-47.859,24.979-65.232c0.011-0.041,0.022-0.081,0.033-0.122     c0.153-0.561,0.3-1.113,0.442-1.657c0.021-0.08,0.041-0.158,0.061-0.237c0.131-0.506,0.258-1.005,0.379-1.496     c0.023-0.093,0.045-0.185,0.068-0.277c0.115-0.468,0.225-0.928,0.331-1.381c0.025-0.107,0.049-0.212,0.074-0.318     c0.1-0.436,0.196-0.864,0.287-1.285c0.023-0.107,0.047-0.215,0.069-0.321c0.088-0.412,0.171-0.816,0.249-1.212     c0.021-0.105,0.042-0.21,0.062-0.314c0.077-0.394,0.148-0.779,0.215-1.157c0.017-0.096,0.035-0.193,0.051-0.287     c0.066-0.38,0.125-0.749,0.181-1.111c0.013-0.084,0.027-0.17,0.039-0.252c0.055-0.372,0.104-0.733,0.148-1.085     c0.008-0.064,0.018-0.13,0.025-0.193c0.046-0.377,0.084-0.742,0.116-1.095c0.003-0.032,0.007-0.066,0.01-0.097     c0.036-0.412,0.065-0.811,0.082-1.189l4.647-23.237l11.904,15.871l-1.915,10.376L320.007,120.683z M244.539,206.686     c-0.091-0.064-0.182-0.132-0.273-0.196c-0.924-0.658-1.854-1.339-2.789-2.05c-0.08-0.061-0.16-0.124-0.24-0.185     c-0.945-0.722-1.893-1.467-2.845-2.24c-0.071-0.058-0.142-0.118-0.213-0.175c-0.943-0.769-1.888-1.562-2.835-2.379     c-0.038-0.032-0.075-0.064-0.113-0.096c-13.352-11.55-24.101-25.981-31.787-42.252c-5.353-11.336-9.22-23.564-11.436-36.336     l-10.288-55.696l-1.985-10.752l11.904-15.871l4.647,23.237c0.017,0.378,0.046,0.777,0.082,1.189     c0.003,0.032,0.007,0.066,0.01,0.097c0.032,0.353,0.07,0.718,0.116,1.095c0.008,0.063,0.017,0.13,0.025,0.193     c0.044,0.353,0.093,0.713,0.148,1.085c0.012,0.083,0.026,0.169,0.039,0.252c0.056,0.362,0.115,0.731,0.181,1.111     c0.016,0.094,0.034,0.191,0.051,0.287c0.067,0.378,0.138,0.763,0.215,1.157c0.02,0.104,0.041,0.209,0.062,0.314     c0.079,0.397,0.161,0.8,0.249,1.212c0.023,0.106,0.046,0.214,0.069,0.321c0.091,0.421,0.187,0.849,0.287,1.285     c0.024,0.106,0.049,0.212,0.074,0.318c0.105,0.452,0.216,0.913,0.331,1.381c0.023,0.092,0.045,0.184,0.068,0.277     c0.121,0.49,0.248,0.989,0.379,1.496c0.021,0.079,0.041,0.158,0.061,0.237c0.142,0.543,0.289,1.096,0.442,1.657     c0.011,0.041,0.022,0.081,0.033,0.122c4.743,17.373,14.601,42.886,24.979,65.232c0.004,0.008,0.008,0.017,0.012,0.026     c0.367,0.791,0.735,1.577,1.103,2.36c0.003,0.006,0.006,0.013,0.009,0.019c4.082,8.668,8.217,16.783,12.129,23.666     c0.031,0.054,0.061,0.107,0.092,0.161c0.316,0.555,0.631,1.102,0.944,1.641c0.052,0.089,0.103,0.177,0.155,0.265     c0.292,0.5,0.582,0.993,0.87,1.477c0.065,0.109,0.129,0.216,0.194,0.324c0.275,0.46,0.549,0.914,0.822,1.359     c0.072,0.118,0.144,0.235,0.216,0.352c0.263,0.429,0.525,0.85,0.785,1.264c0.077,0.122,0.154,0.245,0.23,0.366     c0.256,0.405,0.511,0.802,0.764,1.193c0.076,0.117,0.152,0.234,0.227,0.35c0.253,0.388,0.505,0.768,0.755,1.141     c0.073,0.108,0.145,0.218,0.218,0.325c0.251,0.371,0.499,0.732,0.746,1.087c0.07,0.1,0.14,0.203,0.209,0.302     c0.254,0.362,0.505,0.712,0.754,1.057c0.058,0.08,0.117,0.164,0.175,0.243c0.267,0.366,0.531,0.719,0.793,1.063     c0.038,0.05,0.078,0.104,0.116,0.154c0.323,0.422,0.643,0.832,0.958,1.22v25.252c-0.068-0.045-0.137-0.092-0.206-0.137     C246.359,207.948,245.452,207.332,244.539,206.686z M297.264,69.335c-0.346,1.405-0.75,2.915-1.209,4.52     c-0.009,0.032-0.018,0.064-0.027,0.096c-4.971,17.341-16.194,45.466-26.958,67.843c-0.002,0.004-0.004,0.008-0.006,0.012     c-1.02,2.121-2.036,4.19-3.042,6.193c-0.009,0.017-0.017,0.035-0.026,0.052c-0.995,1.98-1.98,3.895-2.95,5.733     c-0.022,0.042-0.044,0.084-0.066,0.125c-0.958,1.813-1.901,3.548-2.824,5.195c-0.029,0.052-0.059,0.105-0.088,0.158     c-0.913,1.625-1.805,3.16-2.672,4.595c-0.036,0.06-0.073,0.121-0.109,0.181c-0.431,0.712-0.857,1.4-1.275,2.06     c-0.004,0.006-0.007,0.011-0.011,0.017c-0.004-0.006-0.007-0.011-0.011-0.017c-0.418-0.66-0.844-1.348-1.275-2.06     c-0.036-0.06-0.073-0.121-0.109-0.181c-0.868-1.437-1.76-2.972-2.674-4.599c-0.028-0.049-0.056-0.1-0.084-0.149     c-0.924-1.648-1.867-3.385-2.827-5.2c-0.022-0.042-0.044-0.084-0.066-0.125c-0.968-1.835-1.952-3.746-2.945-5.723     c-0.012-0.024-0.024-0.049-0.037-0.073c-1.004-2-2.018-4.065-3.037-6.181c-0.002-0.004-0.004-0.008-0.006-0.012     c-10.765-22.38-21.99-50.509-26.96-67.849c-0.008-0.027-0.015-0.054-0.023-0.081c-0.46-1.609-0.866-3.124-1.213-4.533     c-0.005-0.021-0.01-0.042-0.015-0.064h82.561C297.275,69.29,297.27,69.312,297.264,69.335z M256,18.067     c28.505,0,43.332,0.976,50.256,3.873l-6.052,30.26h-88.409l-6.052-30.26C212.668,19.042,227.495,18.067,256,18.067z      M152.901,409.114c2.538-15.75,5.596-32.353,9.063-49.488c3.714-18.357,7.695-36.349,11.675-53.216     c1.392-5.901,2.685-11.239,3.844-15.918c0.694-2.8,1.187-4.753,1.448-5.765c0.179-0.695,0.269-1.409,0.269-2.127     c0-35.204-7.079-74.862-17.714-105.007c-0.006-0.018-0.01-0.037-0.016-0.055c-1.206-3.417-2.496-6.745-3.859-9.981     c-5.226-12.407-10.502-21.44-14.164-26.496c-2.764-3.817-8.099-4.671-11.916-1.907c-3.817,2.764-4.671,8.099-1.907,11.916     c0.667,0.921,1.96,2.889,3.672,5.82c2.916,4.992,5.846,10.784,8.587,17.291c0.821,1.949,1.601,3.95,2.361,5.973     c-0.823,1.941-1.726,4.077-2.696,6.386c-3.018,7.182-6.036,14.47-8.856,21.425c-0.57,1.408-0.57,1.408-1.139,2.819     c-4.557,11.315-8.018,20.371-10.043,26.453c-2.58,7.734-10.303,46.515-22.052,109.148c-0.619,3.299-0.619,3.299-1.237,6.602     c-4.74,25.34-9.746,52.486-14.704,79.633c-1.735,9.501-3.341,18.323-4.777,26.241c-0.132,0.731-0.243,1.34-0.338,1.862     l-42.66-6.094c7.662-38.746,29.187-151.883,31.847-165.56c2.967-15.258,5.759-29.417,8.441-42.794     c19.285-96.16,34.213-156.085,40.763-162.271c5.071-4.786,25.008-13.426,47.237-20.751l0.855,4.628l10.319,55.901     c2.344,13.494,6.357,26.477,11.882,38.618c8.724,19.177,21.234,36.249,36.98,49.87c0.906,0.784,1.813,1.544,2.72,2.292     c0.138,0.114,0.275,0.228,0.413,0.34c0.891,0.73,1.782,1.443,2.673,2.138c0.106,0.082,0.211,0.162,0.317,0.244     c0.86,0.667,1.72,1.317,2.579,1.95c0.075,0.055,0.151,0.113,0.226,0.168c0.889,0.651,1.776,1.281,2.662,1.894     c0.152,0.106,0.305,0.21,0.457,0.314c0.893,0.612,1.784,1.209,2.672,1.781c0.028,0.018,0.055,0.034,0.083,0.052     c0.868,0.558,1.732,1.092,2.595,1.61c0.137,0.082,0.274,0.166,0.411,0.248c0.862,0.513,1.721,1.005,2.576,1.477     c0.138,0.076,0.274,0.149,0.412,0.224c0.842,0.459,1.681,0.901,2.514,1.32c0.031,0.015,0.062,0.033,0.093,0.049v148.095     c0,0.902-0.012,1.8-0.035,2.696c-0.001,0.055-0.004,0.109-0.006,0.163c-1.464,53.929-44.274,95.048-102.198,99.199     C145.889,459.572,148.553,436.094,152.901,409.114z M314.888,493.863c-17.071,1.699-31.271,2.07-58.633,2.07     c-35.566,0-61.062-1.172-81.493-5.018c37.855-10.324,67.428-35.874,81.239-69.924c13.756,33.9,43.14,59.373,80.777,69.787     l-10.076,1.668C322.896,492.987,318.957,493.458,314.888,493.863z M433.599,460.723c-0.095-0.522-0.205-1.132-0.338-1.862     c-1.436-7.918-3.042-16.74-4.777-26.241c-4.958-27.146-9.964-54.293-14.704-79.633c-0.618-3.302-0.618-3.302-1.237-6.602     c-11.749-62.633-19.471-101.415-22.053-109.153c-2.024-6.077-5.484-15.133-10.042-26.448c-0.569-1.411-0.569-1.411-1.139-2.819     c-2.82-6.955-5.838-14.243-8.856-21.425c-0.97-2.308-1.872-4.444-2.696-6.386c0.76-2.023,1.54-4.023,2.361-5.973     c2.741-6.507,5.671-12.299,8.587-17.291c1.712-2.931,3.004-4.899,3.672-5.82c2.764-3.817,1.911-9.152-1.907-11.916     c-3.817-2.764-9.152-1.911-11.916,1.907c-3.661,5.056-8.938,14.089-14.164,26.496c-1.363,3.236-2.653,6.564-3.859,9.981     c-0.006,0.018-0.01,0.036-0.016,0.054C339.879,207.737,332.8,247.395,332.8,282.6c0,0.717,0.091,1.432,0.269,2.127     c0.26,1.012,0.754,2.965,1.448,5.765c1.159,4.679,2.452,10.017,3.844,15.918c3.98,16.868,7.961,34.859,11.675,53.216     c3.467,17.135,6.525,33.738,9.063,49.488c4.347,26.974,7.011,50.448,7.672,69.398c-57.934-4.17-100.72-45.248-102.196-99.161     c-0.002-0.064-0.005-0.128-0.007-0.192c-0.023-0.894-0.034-1.791-0.034-2.692V228.372c0.031-0.015,0.062-0.033,0.093-0.049     c0.834-0.418,1.673-0.861,2.514-1.32c0.137-0.075,0.274-0.148,0.412-0.224c0.855-0.472,1.714-0.965,2.576-1.477     c0.137-0.081,0.274-0.165,0.411-0.248c0.862-0.519,1.727-1.053,2.595-1.61c0.028-0.018,0.055-0.034,0.083-0.052     c0.888-0.572,1.78-1.169,2.672-1.781c0.152-0.104,0.304-0.209,0.457-0.314c0.887-0.614,1.774-1.244,2.664-1.896     c0.073-0.053,0.146-0.109,0.219-0.163c0.861-0.634,1.723-1.286,2.586-1.954c0.105-0.082,0.21-0.161,0.315-0.243     c0.89-0.694,1.78-1.406,2.67-2.135c0.14-0.115,0.28-0.231,0.42-0.346c0.906-0.747,1.811-1.506,2.715-2.288     c15.03-13.002,27.112-29.15,35.772-47.288c6.156-12.893,10.587-26.791,13.106-41.289l10.393-56.298l0.765-4.142     c22.228,7.325,42.165,15.965,47.239,20.753c6.548,6.184,21.476,66.109,40.761,162.269c2.683,13.377,5.474,27.536,8.441,42.794     c2.66,13.676,24.185,126.813,31.847,165.56L433.599,460.723z"/>
		</g>
	</g>
</g>
<g>
</g>
<g>
</g>
<g>
</g>
<g>
</g>
<g>
</g>
<g>
</g>
<g>
</g>
<g>
</g>
<g>
</g>
<g>
</g>
<g>
</g>
<g>
</g>
<g>
</g>
<g>
</g>
<g>
</g>
</svg>
