<?xml version="1.0" encoding="iso-8859-1"?>
<!-- Generator: Adobe Illustrator 19.0.0, SVG Export Plug-In . SVG Version: 6.00 Build 0)  -->
<svg xmlns="http://www.w3.org/2000/svg" xmlns:xlink="http://www.w3.org/1999/xlink" version="1.1" id="Layer_1" x="0px" y="0px" viewBox="0 0 512 512" style="enable-background:new 0 0 512 512;" xml:space="preserve">
<g transform="translate(0 -1)">
	<g>
		<path d="M494.759,460.083c-5.149-25.065-30.659-159.182-33.594-174.272c-2.973-15.289-5.771-29.48-8.461-42.891    C431.417,136.772,417.72,81.79,406.926,71.596c-8.169-7.709-33.082-18.243-60.43-26.737l-23.935-31.913    c-0.016-0.021-0.035-0.037-0.051-0.058c-0.228-0.299-0.474-0.586-0.743-0.856c-0.006-0.006-0.013-0.012-0.019-0.019    c-0.061-0.062-0.124-0.12-0.187-0.179C311.935,2.385,297.831,1,256,1c-41.831,0-55.935,1.385-65.561,10.835    c-0.063,0.059-0.125,0.117-0.187,0.179c-0.006,0.006-0.013,0.012-0.019,0.019c-0.27,0.27-0.515,0.557-0.743,0.856    c-0.016,0.021-0.035,0.037-0.051,0.058l-23.935,31.913c-27.348,8.494-52.261,19.028-60.427,26.735    C94.28,81.79,80.583,136.772,59.296,242.92c-2.69,13.411-5.487,27.603-8.461,42.891C47.9,300.901,22.39,435.018,17.241,460.083    c-0.989,4.816,2.285,9.469,7.152,10.165l59.733,8.533c4.545,0.649,8.789-2.414,9.604-6.932c0.081-0.451,0.081-0.451,0.469-2.597    c0.532-2.938,0.532-2.938,1.331-7.345c1.435-7.911,3.039-16.727,4.773-26.221c4.954-27.124,9.956-54.248,14.69-79.561    c0.615-3.287,0.615-3.287,1.231-6.572c11.36-60.567,19.283-100.37,21.467-106.923c1.887-5.659,5.252-14.458,9.688-25.469    c0.559-1.386,0.559-1.386,1.12-2.77c1.17-2.886,2.376-5.833,3.603-8.807c6.102,23.914,9.922,51.143,10.029,75.952    c-0.289,1.141-0.698,2.77-1.214,4.851c-1.174,4.739-2.482,10.138-3.889,16.103c-4.02,17.036-8.039,35.203-11.792,53.752    c-3.509,17.346-6.608,34.168-9.185,50.157c-5.164,32.045-8.025,59.393-8.049,80.721c-0.119,2.77,1.057,5.599,3.785,7.373    c0.003,0.002,0.007,0.004,0.01,0.007c0.162,0.105,0.329,0.205,0.502,0.302c0.109,0.062,0.217,0.124,0.329,0.182    c0.033,0.017,0.063,0.036,0.096,0.053C162.121,509.698,195.067,513,256,513c28.199,0,42.787-0.381,60.577-2.15    c25.157-2.501,46.05-7.439,62.706-15.767c2.45-1.225,4.02-3.45,4.529-5.906c0.006-0.03,0.013-0.059,0.019-0.089    c0.045-0.228,0.079-0.457,0.106-0.688c0.009-0.076,0.017-0.152,0.024-0.229c0.017-0.192,0.026-0.384,0.029-0.577    c0.001-0.065,0.01-0.129,0.01-0.194c0-21.368-2.865-48.818-8.051-81.001c-2.577-15.989-5.675-32.811-9.185-50.157    c-3.753-18.549-7.772-36.716-11.792-53.752c-1.407-5.965-2.715-11.364-3.889-16.103c-0.516-2.081-0.925-3.71-1.214-4.851    c0.107-24.808,3.926-52.037,10.028-75.95c1.224,2.969,2.428,5.91,3.596,8.791c0.563,1.391,0.563,1.391,1.125,2.783    c4.434,11.01,7.797,19.808,9.682,25.469c2.187,6.555,10.112,46.35,21.47,106.902c0.618,3.295,0.618,3.295,1.235,6.593    c4.735,25.313,9.737,52.437,14.691,79.561c1.734,9.494,3.338,18.309,4.773,26.221c0.799,4.407,0.799,4.407,1.331,7.345    c0.388,2.146,0.388,2.146,0.469,2.597c0.815,4.518,5.059,7.582,9.605,6.932l59.733-8.533    C492.474,469.552,495.748,464.899,494.759,460.083z M179.737,54.326l11.904-15.871l4.647,23.237    c0.017,0.378,0.046,0.777,0.082,1.189c0.003,0.032,0.007,0.066,0.01,0.097c0.032,0.353,0.07,0.718,0.116,1.095    c0.008,0.063,0.017,0.13,0.025,0.193c0.044,0.353,0.093,0.713,0.148,1.085c0.012,0.083,0.026,0.169,0.039,0.252    c0.056,0.362,0.115,0.731,0.181,1.111c0.016,0.094,0.034,0.191,0.051,0.287c0.067,0.378,0.138,0.763,0.215,1.157    c0.02,0.104,0.041,0.209,0.062,0.314c0.079,0.397,0.161,0.8,0.249,1.212c0.023,0.106,0.046,0.214,0.069,0.321    c0.091,0.421,0.187,0.849,0.287,1.285c0.024,0.106,0.049,0.212,0.074,0.318c0.105,0.452,0.216,0.913,0.331,1.381    c0.023,0.092,0.045,0.184,0.068,0.277c0.121,0.49,0.248,0.989,0.379,1.496c0.021,0.079,0.041,0.158,0.061,0.237    c0.142,0.543,0.289,1.096,0.442,1.657c0.011,0.041,0.022,0.081,0.033,0.122c4.744,17.374,14.603,42.89,24.981,65.237    c0.003,0.005,0.005,0.011,0.008,0.017c0.37,0.796,0.74,1.587,1.11,2.374c0,0.001,0,0.001,0.001,0.002    c4.083,8.671,8.219,16.789,12.133,23.673c0.031,0.054,0.061,0.107,0.092,0.161c0.316,0.556,0.631,1.103,0.945,1.642    c0.051,0.088,0.102,0.174,0.152,0.261c0.293,0.502,0.584,0.997,0.874,1.483c0.064,0.107,0.127,0.213,0.191,0.319    c0.276,0.462,0.551,0.917,0.824,1.364c0.071,0.117,0.142,0.232,0.213,0.348c0.265,0.431,0.528,0.855,0.79,1.271    c0.075,0.12,0.15,0.239,0.225,0.357c0.258,0.407,0.513,0.806,0.768,1.199c0.075,0.116,0.15,0.232,0.225,0.346    c0.254,0.389,0.505,0.768,0.755,1.142c0.073,0.108,0.145,0.218,0.218,0.325c0.251,0.371,0.499,0.732,0.746,1.087    c0.07,0.1,0.14,0.203,0.209,0.302c0.254,0.362,0.505,0.712,0.754,1.057c0.058,0.08,0.117,0.164,0.175,0.243    c0.267,0.366,0.531,0.719,0.793,1.063c0.038,0.05,0.078,0.104,0.116,0.154c0.323,0.422,0.643,0.832,0.958,1.22v25.24    c-0.236-0.155-0.472-0.309-0.709-0.468c-0.541-0.361-1.083-0.73-1.629-1.11c-0.41-0.285-0.82-0.574-1.232-0.87    c-0.553-0.397-1.109-0.808-1.666-1.224c-0.405-0.303-0.81-0.603-1.216-0.915c-0.595-0.457-1.192-0.932-1.789-1.409    c-0.37-0.295-0.738-0.582-1.109-0.885c-0.818-0.668-1.638-1.359-2.459-2.063c-0.142-0.121-0.282-0.235-0.424-0.357    c-13.361-11.558-24.115-26-31.802-42.284c-5.346-11.327-9.207-23.544-11.42-36.305l-10.301-55.769L179.737,54.326z     M297.264,69.335c-0.346,1.405-0.75,2.915-1.209,4.52c-0.009,0.032-0.018,0.064-0.027,0.096    c-4.971,17.339-16.192,45.46-26.955,67.837c-0.004,0.008-0.008,0.016-0.012,0.024c-1.019,2.119-2.034,4.186-3.04,6.187    c-0.009,0.017-0.017,0.035-0.026,0.052c-0.994,1.978-1.978,3.891-2.947,5.728c-0.024,0.045-0.047,0.09-0.071,0.134    c-0.957,1.81-1.898,3.543-2.82,5.187c-0.031,0.055-0.062,0.11-0.092,0.165c-0.912,1.624-1.803,3.157-2.67,4.592    c-0.036,0.06-0.073,0.122-0.109,0.181c-0.431,0.711-0.856,1.399-1.274,2.058c-0.004,0.006-0.008,0.012-0.012,0.019    c-0.004-0.006-0.008-0.012-0.012-0.019c-0.418-0.659-0.843-1.347-1.274-2.058c-0.036-0.06-0.073-0.121-0.109-0.181    c-0.867-1.436-1.759-2.97-2.672-4.596c-0.029-0.052-0.059-0.105-0.088-0.157c-0.922-1.646-1.865-3.38-2.822-5.192    c-0.024-0.045-0.047-0.09-0.071-0.134c-0.968-1.833-1.95-3.743-2.943-5.718c-0.012-0.024-0.024-0.049-0.037-0.073    c-1.003-1.998-2.017-4.061-3.034-6.176c-0.004-0.008-0.008-0.016-0.012-0.024c-10.764-22.379-21.987-50.504-26.957-67.843    c-0.008-0.027-0.015-0.054-0.023-0.081c-0.46-1.609-0.866-3.124-1.213-4.533c-0.005-0.021-0.01-0.042-0.015-0.064h82.561    C297.275,69.29,297.27,69.312,297.264,69.335z M320.007,120.683c-2.349,13.543-6.54,26.46-12.381,38.347    c-0.046,0.093-0.089,0.188-0.135,0.281c-0.014,0.028-0.028,0.055-0.042,0.082c-7.6,15.349-17.961,28.966-30.681,39.97    c-0.143,0.124-0.286,0.238-0.429,0.361c-0.819,0.702-1.636,1.391-2.452,2.058c-0.373,0.305-0.744,0.593-1.116,0.89    c-0.596,0.476-1.192,0.95-1.785,1.406c-0.407,0.313-0.812,0.612-1.217,0.915c-0.557,0.416-1.112,0.827-1.665,1.224    c-0.412,0.296-0.821,0.584-1.231,0.869c-0.546,0.38-1.089,0.75-1.63,1.111c-0.237,0.158-0.473,0.313-0.709,0.467v-25.24    c0.314-0.388,0.634-0.798,0.958-1.22c0.038-0.05,0.077-0.103,0.116-0.154c0.262-0.344,0.526-0.697,0.793-1.063    c0.058-0.079,0.117-0.163,0.175-0.243c0.249-0.344,0.5-0.695,0.754-1.057c0.069-0.099,0.14-0.201,0.209-0.302    c0.247-0.355,0.495-0.716,0.746-1.087c0.072-0.107,0.145-0.217,0.218-0.325c0.25-0.373,0.502-0.753,0.755-1.142    c0.075-0.114,0.15-0.231,0.225-0.346c0.254-0.393,0.51-0.792,0.768-1.199c0.075-0.118,0.15-0.238,0.225-0.357    c0.262-0.417,0.525-0.84,0.79-1.271c0.071-0.116,0.142-0.231,0.213-0.348c0.273-0.447,0.548-0.902,0.824-1.364    c0.064-0.106,0.127-0.212,0.191-0.319c0.29-0.487,0.581-0.982,0.874-1.483c0.051-0.087,0.102-0.173,0.152-0.261    c0.313-0.539,0.628-1.087,0.945-1.642c0.031-0.054,0.061-0.107,0.092-0.161c3.914-6.885,8.05-15.002,12.133-23.673    c0,0,0-0.001,0.001-0.002c0.371-0.787,0.741-1.578,1.11-2.374c0.003-0.005,0.005-0.011,0.008-0.017    c10.378-22.347,20.237-47.863,24.981-65.237c0.011-0.041,0.022-0.081,0.033-0.122c0.153-0.561,0.3-1.113,0.442-1.657    c0.021-0.08,0.041-0.158,0.061-0.237c0.131-0.506,0.258-1.005,0.379-1.496c0.023-0.093,0.045-0.185,0.068-0.277    c0.115-0.468,0.225-0.928,0.331-1.381c0.025-0.107,0.049-0.212,0.074-0.318c0.1-0.436,0.196-0.864,0.287-1.285    c0.023-0.107,0.047-0.215,0.069-0.321c0.088-0.412,0.171-0.816,0.249-1.212c0.021-0.105,0.042-0.21,0.062-0.314    c0.077-0.394,0.148-0.779,0.215-1.157c0.017-0.096,0.035-0.193,0.051-0.287c0.066-0.38,0.125-0.749,0.181-1.111    c0.013-0.084,0.027-0.17,0.039-0.252c0.055-0.372,0.104-0.733,0.148-1.085c0.008-0.064,0.018-0.13,0.025-0.193    c0.046-0.377,0.084-0.742,0.116-1.095c0.003-0.032,0.007-0.066,0.01-0.097c0.036-0.412,0.065-0.811,0.082-1.189l4.647-23.237    l11.904,15.871l-1.916,10.38L320.007,120.683z M256,18.067c28.505,0,43.332,0.976,50.256,3.873l-6.052,30.26h-88.409l-6.052-30.26    C212.668,19.042,227.495,18.067,256,18.067z M161.484,177.587c-0.006-0.016-0.009-0.032-0.014-0.049    c-1.206-3.417-2.496-6.745-3.859-9.981c-5.226-12.407-10.502-21.44-14.164-26.496c-2.764-3.817-8.099-4.671-11.916-1.907    c-3.817,2.764-4.671,8.099-1.907,11.916c0.667,0.921,1.96,2.89,3.672,5.82c2.916,4.992,5.846,10.784,8.587,17.291    c0.821,1.949,1.601,3.949,2.361,5.972c-0.824,1.943-1.727,4.08-2.698,6.39c-3.02,7.186-6.04,14.477-8.861,21.434    c-0.568,1.401-0.568,1.401-1.134,2.806c-4.558,11.314-8.021,20.369-10.049,26.45c-2.579,7.74-10.301,46.531-22.05,109.174    c-0.616,3.289-0.616,3.289-1.232,6.58c-4.739,25.34-9.745,52.486-14.703,79.633c-1.735,9.501-3.341,18.323-4.777,26.241    c-0.132,0.731-0.243,1.34-0.338,1.862l-42.66-6.094c7.662-38.746,29.187-151.883,31.847-165.56    c2.967-15.258,5.759-29.417,8.441-42.794c19.285-96.16,34.213-156.085,40.763-162.272c5.072-4.786,25.008-13.426,47.237-20.751    l0.858,4.647l10.316,55.882c2.344,13.494,6.357,26.477,11.882,38.618c8.724,19.177,21.234,36.249,36.98,49.87    c7.871,6.808,15.813,12.306,23.402,16.1v20.096h-8.533c-4.713,0-8.533,3.82-8.533,8.533c0,4.713,3.82,8.533,8.533,8.533h8.533    v34.133h-8.533c-4.713,0-8.533,3.82-8.533,8.533s3.82,8.533,8.533,8.533h8.533v34.133h-8.533c-4.713,0-8.533,3.821-8.533,8.533    s3.82,8.533,8.533,8.533h8.533v8.533c0,0.886-0.012,1.769-0.034,2.649c-0.007,0.291-0.022,0.579-0.032,0.869    c-0.02,0.587-0.038,1.174-0.068,1.758c-0.018,0.349-0.043,0.696-0.064,1.043c-0.032,0.522-0.062,1.044-0.101,1.563    c-0.028,0.37-0.064,0.737-0.096,1.106c-0.043,0.495-0.084,0.99-0.134,1.482c-0.038,0.379-0.084,0.756-0.126,1.134    c-0.054,0.477-0.107,0.953-0.167,1.427c-0.049,0.385-0.104,0.768-0.157,1.152c-0.065,0.465-0.129,0.929-0.2,1.391    c-0.059,0.385-0.124,0.769-0.187,1.153c-0.075,0.456-0.151,0.912-0.233,1.366c-0.069,0.384-0.143,0.767-0.216,1.15    c-0.086,0.449-0.173,0.897-0.265,1.343c-0.079,0.383-0.162,0.766-0.245,1.147c-0.097,0.443-0.195,0.885-0.298,1.326    c-0.088,0.379-0.18,0.757-0.273,1.134c-0.108,0.438-0.217,0.874-0.331,1.31c-0.098,0.376-0.198,0.752-0.301,1.126    c-0.118,0.434-0.24,0.866-0.364,1.297c-0.107,0.371-0.215,0.741-0.326,1.11c-0.129,0.429-0.262,0.855-0.396,1.281    c-0.116,0.368-0.233,0.735-0.354,1.101c-0.14,0.426-0.284,0.849-0.43,1.272c-0.124,0.36-0.248,0.719-0.376,1.077    c-0.152,0.424-0.309,0.846-0.466,1.267c-0.132,0.353-0.264,0.707-0.4,1.058c-0.163,0.42-0.331,0.837-0.499,1.254    c-0.14,0.347-0.279,0.696-0.423,1.041c-0.175,0.42-0.357,0.838-0.538,1.255c-0.146,0.336-0.289,0.673-0.439,1.008    c-0.19,0.424-0.386,0.844-0.581,1.264c-0.15,0.324-0.298,0.649-0.452,0.97c-0.208,0.434-0.423,0.864-0.637,1.294    c-0.15,0.302-0.297,0.606-0.45,0.907c-0.234,0.458-0.475,0.911-0.716,1.365c-0.143,0.269-0.281,0.54-0.426,0.808    c-0.292,0.539-0.593,1.072-0.895,1.605c-0.101,0.178-0.197,0.358-0.299,0.535c-0.407,0.707-0.822,1.408-1.246,2.104    c-0.115,0.189-0.235,0.374-0.352,0.562c-0.313,0.506-0.627,1.012-0.95,1.512c-0.166,0.257-0.338,0.511-0.506,0.766    c-0.28,0.426-0.559,0.853-0.846,1.274c-0.19,0.279-0.386,0.554-0.579,0.832c-0.273,0.392-0.544,0.784-0.822,1.171    c-0.207,0.289-0.42,0.574-0.631,0.861c-0.273,0.371-0.544,0.743-0.822,1.11c-0.22,0.291-0.445,0.578-0.668,0.866    c-0.276,0.357-0.552,0.715-0.834,1.068c-0.231,0.29-0.466,0.577-0.7,0.864c-0.282,0.346-0.564,0.692-0.851,1.035    c-0.24,0.287-0.484,0.57-0.727,0.854c-0.289,0.338-0.579,0.675-0.873,1.009c-0.249,0.282-0.5,0.562-0.752,0.842    c-0.296,0.328-0.593,0.656-0.893,0.981c-0.258,0.279-0.519,0.556-0.781,0.833c-0.302,0.319-0.606,0.637-0.912,0.953    c-0.266,0.274-0.535,0.547-0.804,0.818c-0.31,0.312-0.622,0.622-0.936,0.93c-0.273,0.268-0.548,0.535-0.824,0.8    c-0.319,0.306-0.641,0.609-0.964,0.911c-0.279,0.26-0.558,0.52-0.84,0.777c-0.328,0.3-0.66,0.597-0.992,0.893    c-0.285,0.253-0.57,0.507-0.858,0.757c-0.337,0.293-0.678,0.583-1.019,0.873c-0.29,0.245-0.579,0.491-0.872,0.734    c-0.349,0.289-0.702,0.575-1.056,0.86c-0.292,0.236-0.583,0.472-0.878,0.705c-0.36,0.284-0.724,0.564-1.089,0.844    c-0.296,0.228-0.591,0.457-0.891,0.681c-0.373,0.281-0.751,0.556-1.129,0.832c-0.295,0.216-0.589,0.434-0.887,0.647    c-0.392,0.281-0.79,0.555-1.187,0.831c-0.291,0.202-0.58,0.407-0.874,0.607c-0.418,0.285-0.843,0.563-1.266,0.842    c-0.277,0.183-0.552,0.369-0.832,0.55c-0.482,0.312-0.971,0.616-1.459,0.92c-0.227,0.141-0.45,0.286-0.678,0.426    c-0.72,0.442-1.446,0.876-2.178,1.303c-0.047,0.028-0.096,0.054-0.143,0.081c-0.685,0.398-1.376,0.789-2.072,1.173    c-0.254,0.14-0.512,0.274-0.767,0.413c-0.493,0.267-0.986,0.535-1.484,0.795c-0.306,0.16-0.616,0.314-0.924,0.471    c-0.454,0.232-0.907,0.464-1.365,0.69c-0.332,0.164-0.668,0.322-1.002,0.482c-0.44,0.211-0.879,0.424-1.323,0.63    c-0.347,0.161-0.697,0.317-1.046,0.475c-0.438,0.198-0.875,0.397-1.317,0.59c-0.357,0.156-0.717,0.308-1.077,0.461    c-0.439,0.187-0.878,0.373-1.32,0.555c-0.367,0.151-0.736,0.297-1.105,0.444c-0.44,0.176-0.881,0.351-1.324,0.521    c-0.376,0.144-0.754,0.285-1.132,0.426c-0.443,0.165-0.886,0.329-1.332,0.489c-0.382,0.137-0.767,0.271-1.151,0.405    c-0.448,0.156-0.897,0.31-1.349,0.46c-0.387,0.129-0.775,0.255-1.164,0.381c-0.454,0.146-0.91,0.291-1.367,0.432    c-0.392,0.121-0.785,0.24-1.179,0.358c-0.458,0.137-0.918,0.27-1.38,0.402c-0.399,0.114-0.799,0.226-1.201,0.336    c-0.462,0.126-0.926,0.25-1.391,0.371c-0.404,0.105-0.808,0.21-1.214,0.312c-0.469,0.117-0.94,0.231-1.411,0.343    c-0.407,0.097-0.814,0.193-1.222,0.286c-0.477,0.108-0.956,0.212-1.436,0.315c-0.409,0.088-0.817,0.176-1.227,0.26    c-0.485,0.099-0.972,0.192-1.46,0.286c-0.409,0.078-0.818,0.158-1.229,0.233c-0.498,0.09-0.999,0.174-1.5,0.259    c-0.405,0.068-0.81,0.139-1.217,0.204c-0.514,0.082-1.032,0.156-1.549,0.232c-0.398,0.058-0.795,0.119-1.194,0.174    c-0.538,0.074-1.08,0.139-1.621,0.207c-0.383,0.048-0.765,0.099-1.15,0.143c-0.58,0.067-1.164,0.124-1.747,0.184    c-0.35,0.035-0.698,0.076-1.049,0.108c-0.724,0.068-1.452,0.125-2.181,0.181c-0.213,0.016-0.424,0.037-0.637,0.052    c-0.008,0.001-0.016,0.001-0.023,0.001c0.59-16.941,2.786-37.51,6.35-60.952c35.495-7.048,61.755-38.291,61.755-75.239    c0-4.713-3.82-8.533-8.533-8.533h-37.39c2.051-9.365,4.14-18.535,6.229-27.39c1.392-5.901,2.685-11.239,3.844-15.918    c0.694-2.8,1.187-4.753,1.448-5.765c0.179-0.695,0.269-1.409,0.269-2.127C179.2,247.393,172.12,207.733,161.484,177.587z     M164.525,350.867h31.133c-3.215,22.37-18.887,40.913-40.031,48.023C158.247,383.375,161.245,367.262,164.525,350.867z     M326.706,492.451c-3.808,0.541-7.747,1.012-11.816,1.417c-17.054,1.695-31.24,2.066-58.583,2.066    c-35.939,0-61.561-1.188-82.069-5.111c0.396-0.109,0.786-0.229,1.181-0.341c0.451-0.128,0.901-0.257,1.349-0.39    c1.08-0.319,2.153-0.651,3.22-0.995c0.323-0.104,0.649-0.202,0.971-0.309c1.364-0.451,2.717-0.921,4.057-1.412    c0.316-0.116,0.627-0.239,0.942-0.357c1.039-0.389,2.071-0.789,3.095-1.202c0.426-0.172,0.85-0.346,1.273-0.522    c0.977-0.406,1.945-0.823,2.907-1.25c0.352-0.156,0.707-0.308,1.058-0.468c1.282-0.582,2.553-1.181,3.808-1.801    c0.217-0.107,0.429-0.22,0.645-0.328c1.045-0.524,2.082-1.06,3.108-1.61c0.391-0.209,0.779-0.422,1.167-0.635    c0.892-0.49,1.776-0.989,2.653-1.498c0.355-0.206,0.712-0.409,1.064-0.619c1.193-0.708,2.376-1.429,3.539-2.173    c0.066-0.042,0.13-0.087,0.197-0.13c1.098-0.705,2.181-1.428,3.252-2.164c0.346-0.238,0.688-0.48,1.031-0.721    c0.818-0.574,1.627-1.156,2.428-1.748c0.342-0.253,0.685-0.504,1.024-0.76c0.979-0.739,1.946-1.49,2.9-2.256    c0.114-0.091,0.23-0.179,0.344-0.27c1.059-0.857,2.098-1.733,3.124-2.623c0.296-0.257,0.587-0.519,0.88-0.778    c0.747-0.66,1.485-1.328,2.214-2.005c0.317-0.295,0.634-0.59,0.948-0.888c0.795-0.755,1.578-1.521,2.35-2.296    c0.189-0.19,0.383-0.376,0.571-0.567c0.944-0.961,1.87-1.939,2.779-2.93c0.238-0.259,0.469-0.524,0.704-0.785    c0.681-0.756,1.353-1.52,2.014-2.292c0.281-0.329,0.561-0.659,0.839-0.992c0.661-0.79,1.309-1.59,1.948-2.397    c0.208-0.262,0.42-0.521,0.625-0.785c0.824-1.059,1.629-2.132,2.415-3.219c0.171-0.236,0.334-0.478,0.503-0.715    c0.618-0.868,1.224-1.744,1.817-2.63c0.24-0.358,0.477-0.719,0.713-1.08c0.544-0.832,1.077-1.672,1.599-2.519    c0.199-0.322,0.402-0.642,0.597-0.966c0.695-1.151,1.373-2.313,2.027-3.49c0.093-0.167,0.18-0.338,0.272-0.506    c0.56-1.019,1.104-2.048,1.633-3.086c0.193-0.378,0.381-0.759,0.569-1.14c0.437-0.882,0.863-1.77,1.278-2.665    c0.172-0.37,0.346-0.739,0.513-1.111c0.558-1.238,1.101-2.484,1.616-3.745c0.009,0.022,0.019,0.043,0.028,0.065    c0.504,1.232,1.034,2.45,1.579,3.66c0.174,0.386,0.354,0.768,0.532,1.151c0.407,0.878,0.825,1.749,1.254,2.615    c0.194,0.392,0.387,0.784,0.586,1.173c0.525,1.029,1.064,2.049,1.619,3.059c0.096,0.174,0.185,0.351,0.282,0.525    c0.646,1.162,1.316,2.308,2.002,3.445c0.215,0.357,0.437,0.709,0.656,1.063c0.5,0.809,1.009,1.612,1.529,2.408    c0.251,0.384,0.502,0.768,0.758,1.149c0.579,0.863,1.171,1.717,1.773,2.565c0.18,0.254,0.355,0.512,0.538,0.765    c0.769,1.063,1.557,2.112,2.362,3.148c0.254,0.327,0.515,0.648,0.773,0.972c0.586,0.738,1.18,1.471,1.784,2.195    c0.309,0.37,0.62,0.739,0.933,1.106c0.626,0.731,1.262,1.453,1.906,2.169c0.263,0.292,0.52,0.589,0.786,0.878    c0.88,0.959,1.777,1.905,2.691,2.836c0.286,0.292,0.581,0.577,0.871,0.866c0.668,0.667,1.342,1.328,2.027,1.98    c0.367,0.349,0.737,0.696,1.108,1.041c0.668,0.62,1.344,1.231,2.027,1.836c0.341,0.302,0.677,0.608,1.022,0.906    c0.981,0.85,1.975,1.687,2.986,2.507c0.312,0.253,0.632,0.498,0.947,0.748c0.749,0.596,1.504,1.185,2.268,1.765    c0.423,0.321,0.85,0.637,1.278,0.952c0.704,0.519,1.416,1.03,2.132,1.535c0.416,0.293,0.828,0.589,1.248,0.877    c1.073,0.737,2.156,1.461,3.256,2.167c0.315,0.202,0.637,0.394,0.954,0.594c0.844,0.53,1.693,1.054,2.552,1.566    c0.473,0.282,0.951,0.558,1.429,0.835c0.744,0.43,1.493,0.853,2.248,1.269c0.479,0.264,0.957,0.53,1.441,0.789    c0.974,0.521,1.958,1.03,2.95,1.528c0.461,0.232,0.925,0.46,1.39,0.687c0.975,0.476,1.957,0.942,2.948,1.395    c0.509,0.233,1.023,0.458,1.537,0.685c0.792,0.35,1.589,0.693,2.39,1.028c0.528,0.221,1.056,0.442,1.588,0.656    c0.942,0.379,1.891,0.746,2.846,1.105c0.415,0.156,0.826,0.318,1.244,0.471c1.221,0.446,2.455,0.873,3.696,1.287    c0.526,0.175,1.058,0.341,1.588,0.511c0.856,0.273,1.716,0.54,2.581,0.798c0.557,0.166,1.114,0.331,1.675,0.49    c0.247,0.07,0.489,0.147,0.737,0.215L326.706,492.451z M356.373,398.89c-21.144-7.11-36.816-25.653-40.031-48.023h31.133    C350.755,367.262,353.753,383.375,356.373,398.89z M433.599,460.723c-0.095-0.522-0.205-1.132-0.338-1.862    c-1.436-7.918-3.042-16.74-4.777-26.241c-4.958-27.146-9.964-54.293-14.704-79.633c-0.618-3.302-0.618-3.302-1.237-6.602    c-11.749-62.633-19.471-101.415-22.053-109.153c-2.024-6.077-5.484-15.133-10.042-26.448c-0.569-1.411-0.569-1.411-1.139-2.819    c-2.82-6.955-5.838-14.243-8.856-21.425c-0.97-2.308-1.872-4.444-2.696-6.385c0.76-2.023,1.54-4.023,2.361-5.972    c2.741-6.507,5.671-12.299,8.587-17.291c1.712-2.931,3.004-4.899,3.672-5.82c2.764-3.817,1.911-9.152-1.907-11.916    s-9.152-1.911-11.916,1.907c-3.661,5.056-8.938,14.089-14.164,26.496c-1.363,3.236-2.653,6.564-3.859,9.981    c-0.005,0.016-0.009,0.031-0.014,0.047C339.88,207.732,332.8,247.393,332.8,282.6c0,0.718,0.091,1.432,0.269,2.127    c0.26,1.012,0.754,2.965,1.448,5.765c1.159,4.679,2.452,10.017,3.844,15.918c2.089,8.855,4.178,18.025,6.229,27.39H307.2    c-4.713,0-8.533,3.82-8.533,8.533c0,36.947,26.26,68.19,61.755,75.239c3.564,23.441,5.76,44.008,6.35,60.948    c-0.981-0.071-1.957-0.152-2.928-0.243c-0.113-0.011-0.224-0.024-0.336-0.035c-0.829-0.08-1.657-0.166-2.479-0.262    c-0.175-0.02-0.349-0.044-0.524-0.065c-0.758-0.091-1.514-0.186-2.266-0.29c-0.207-0.029-0.412-0.061-0.618-0.09    c-0.718-0.103-1.434-0.209-2.146-0.323c-0.222-0.036-0.443-0.075-0.664-0.111c-0.694-0.115-1.387-0.233-2.076-0.359    c-0.23-0.042-0.458-0.087-0.687-0.13c-0.677-0.128-1.352-0.259-2.024-0.397c-0.234-0.048-0.467-0.099-0.7-0.148    c-0.665-0.141-1.328-0.285-1.988-0.436c-0.232-0.053-0.462-0.108-0.693-0.162c-0.657-0.154-1.312-0.313-1.964-0.478    c-0.231-0.058-0.461-0.118-0.692-0.178c-0.649-0.168-1.296-0.34-1.939-0.518c-0.226-0.062-0.452-0.126-0.677-0.19    c-0.646-0.183-1.289-0.37-1.93-0.563c-0.218-0.065-0.435-0.131-0.652-0.198c-0.647-0.199-1.291-0.402-1.931-0.611    c-0.205-0.067-0.409-0.133-0.614-0.201c-0.65-0.215-1.296-0.437-1.939-0.662c-0.193-0.068-0.387-0.135-0.579-0.204    c-0.654-0.233-1.304-0.473-1.952-0.717c-0.176-0.066-0.353-0.132-0.528-0.199c-0.668-0.256-1.332-0.518-1.993-0.785    c-0.15-0.06-0.3-0.12-0.45-0.181c-0.687-0.281-1.369-0.569-2.048-0.862c-0.121-0.052-0.244-0.103-0.365-0.156    c-0.72-0.314-1.435-0.635-2.146-0.962c-0.076-0.035-0.152-0.068-0.227-0.103c-0.778-0.36-1.55-0.728-2.317-1.104    c-0.007-0.004-0.015-0.007-0.022-0.011c-4.713-2.315-9.201-4.93-13.438-7.82c-0.059-0.041-0.118-0.082-0.177-0.123    c-0.632-0.433-1.26-0.872-1.881-1.317c-0.115-0.083-0.229-0.167-0.344-0.251c-0.563-0.407-1.123-0.818-1.676-1.235    c-0.147-0.111-0.291-0.223-0.438-0.335c-0.516-0.393-1.029-0.789-1.536-1.19c-0.17-0.135-0.338-0.271-0.507-0.407    c-0.479-0.384-0.956-0.771-1.428-1.163c-0.183-0.152-0.363-0.306-0.545-0.459c-0.452-0.381-0.901-0.765-1.346-1.153    c-0.192-0.167-0.382-0.336-0.572-0.505c-0.429-0.38-0.855-0.763-1.277-1.149c-0.196-0.179-0.39-0.36-0.584-0.54    c-0.411-0.382-0.818-0.767-1.222-1.156c-0.196-0.189-0.392-0.379-0.587-0.569c-0.396-0.387-0.788-0.777-1.176-1.169    c-0.195-0.197-0.389-0.393-0.582-0.592c-0.382-0.392-0.76-0.788-1.135-1.186c-0.192-0.204-0.385-0.408-0.576-0.614    c-0.369-0.398-0.733-0.799-1.095-1.203c-0.189-0.21-0.378-0.42-0.565-0.632c-0.358-0.406-0.712-0.817-1.063-1.229    c-0.183-0.214-0.367-0.428-0.548-0.643c-0.349-0.416-0.693-0.837-1.035-1.259c-0.175-0.216-0.352-0.43-0.525-0.648    c-0.345-0.432-0.683-0.869-1.021-1.307c-0.162-0.211-0.327-0.42-0.488-0.632c-0.345-0.455-0.682-0.915-1.019-1.376    c-0.146-0.2-0.295-0.398-0.439-0.599c-0.351-0.488-0.694-0.981-1.035-1.475c-0.124-0.179-0.251-0.356-0.373-0.536    c-0.378-0.555-0.748-1.115-1.114-1.678c-0.08-0.122-0.162-0.242-0.241-0.365c-0.897-1.391-1.76-2.804-2.585-4.24    c0-0.001-0.001-0.002-0.001-0.002c-0.406-0.706-0.802-1.417-1.19-2.134c-0.102-0.188-0.199-0.378-0.299-0.567    c-0.284-0.532-0.566-1.065-0.84-1.602c-0.129-0.252-0.251-0.508-0.378-0.762c-0.238-0.478-0.476-0.956-0.707-1.438    c-0.138-0.288-0.27-0.579-0.404-0.869c-0.211-0.453-0.422-0.906-0.627-1.364c-0.138-0.31-0.271-0.622-0.407-0.933    c-0.192-0.441-0.383-0.883-0.568-1.327c-0.136-0.327-0.268-0.657-0.4-0.985c-0.175-0.434-0.35-0.868-0.519-1.305    c-0.131-0.339-0.258-0.681-0.386-1.022c-0.162-0.433-0.323-0.866-0.478-1.301c-0.124-0.347-0.245-0.696-0.365-1.045    c-0.15-0.434-0.298-0.869-0.442-1.306c-0.117-0.356-0.231-0.713-0.344-1.071c-0.137-0.433-0.272-0.867-0.403-1.303    c-0.11-0.365-0.217-0.732-0.323-1.099c-0.125-0.434-0.248-0.87-0.367-1.307c-0.101-0.37-0.2-0.74-0.297-1.112    c-0.115-0.44-0.226-0.883-0.335-1.326c-0.092-0.373-0.182-0.746-0.269-1.121c-0.104-0.444-0.203-0.89-0.301-1.337    c-0.083-0.378-0.165-0.757-0.243-1.137c-0.093-0.449-0.18-0.9-0.267-1.352c-0.073-0.38-0.146-0.759-0.214-1.141    c-0.082-0.458-0.159-0.917-0.234-1.377c-0.063-0.381-0.127-0.761-0.185-1.143c-0.071-0.464-0.135-0.93-0.2-1.396    c-0.053-0.382-0.108-0.764-0.157-1.147c-0.061-0.476-0.114-0.955-0.168-1.433c-0.042-0.376-0.087-0.751-0.126-1.128    c-0.05-0.491-0.091-0.986-0.134-1.48c-0.032-0.37-0.068-0.738-0.096-1.109c-0.039-0.518-0.069-1.039-0.101-1.559    c-0.021-0.349-0.047-0.696-0.064-1.046c-0.029-0.578-0.048-1.159-0.067-1.74c-0.01-0.297-0.025-0.591-0.033-0.889    c-0.022-0.879-0.034-1.761-0.034-2.647v-8.533h8.533c4.713,0,8.533-3.82,8.533-8.533s-3.82-8.533-8.533-8.533h-8.533v-34.133    h8.533c4.713,0,8.533-3.82,8.533-8.533s-3.82-8.533-8.533-8.533h-8.533v-34.133h8.533c4.713,0,8.533-3.82,8.533-8.533    c0-4.713-3.82-8.533-8.533-8.533h-8.533v-20.096c7.589-3.794,15.532-9.292,23.402-16.1c15.085-13.05,27.201-29.266,35.867-47.486    c0.105-0.221,0.215-0.44,0.319-0.661c0.012-0.026,0.023-0.052,0.035-0.077c5.925-12.628,10.198-26.206,12.656-40.353l10.39-56.28    l0.769-4.16c22.228,7.325,42.165,15.965,47.239,20.753c6.548,6.184,21.476,66.109,40.761,162.269    c2.683,13.377,5.474,27.536,8.441,42.794c2.66,13.676,24.185,126.813,31.847,165.56L433.599,460.723z"/>
	</g>
</g>
<g>
</g>
<g>
</g>
<g>
</g>
<g>
</g>
<g>
</g>
<g>
</g>
<g>
</g>
<g>
</g>
<g>
</g>
<g>
</g>
<g>
</g>
<g>
</g>
<g>
</g>
<g>
</g>
<g>
</g>
</svg>
