<?xml version="1.0" encoding="iso-8859-1"?>
<!-- Generator: Adobe Illustrator 19.0.0, SVG Export Plug-In . SVG Version: 6.00 Build 0)  -->
<svg xmlns="http://www.w3.org/2000/svg" xmlns:xlink="http://www.w3.org/1999/xlink" version="1.1" id="Layer_1" x="0px" y="0px" viewBox="0 0 512.011 512.011" style="enable-background:new 0 0 512.011 512.011;" xml:space="preserve">
<g transform="translate(0 -1)">
	<g>
		<g>
			<path d="M469.267,162.042c-5.549-42.611-43.234-112.641-63.626-125.571c-6.176-3.916-19.255-9.219-38.598-16.05     c-3.125-1.103-6.391-2.238-9.795-3.404c-8.942-3.062-18.269-6.149-28.975-9.621c-0.418-0.135-1.578-0.51-3.121-1.008     c-9.089-2.962-16.354-5.309-15.254-4.943c-0.037-0.012-0.073-0.017-0.11-0.029c-0.283-0.09-0.571-0.168-0.866-0.228     c-0.144-0.03-0.286-0.048-0.43-0.071c-0.179-0.027-0.357-0.054-0.539-0.07c-0.205-0.019-0.408-0.026-0.611-0.029     c-0.046-0.001-0.09-0.007-0.136-0.007c-6.827,0-11.168,0.857-26.155,4.509c-8.606,2.097-13.51,3.1-18.701,3.661     c-2.231,0.241-4.337,0.363-6.345,0.363s-4.114-0.123-6.345-0.363c-5.19-0.56-10.095-1.564-18.701-3.661     c-14.987-3.652-19.328-4.509-26.155-4.509c-0.046,0-0.091,0.006-0.136,0.007c-0.203,0.004-0.406,0.011-0.611,0.029     c-0.182,0.016-0.36,0.043-0.538,0.07c-0.143,0.022-0.286,0.04-0.43,0.071c-0.295,0.06-0.583,0.138-0.866,0.228     c-0.037,0.012-0.073,0.017-0.11,0.029c1.1-0.366-6.165,1.981-15.254,4.943c-1.544,0.498-2.704,0.873-3.121,1.008     c-10.706,3.472-20.034,6.56-28.975,9.621c-3.405,1.166-6.671,2.3-9.795,3.404c-19.343,6.83-32.422,12.133-38.598,16.05     c-20.392,12.93-58.076,82.961-63.626,125.571c-0.288,2.208,0.299,4.441,1.635,6.222c3.673,4.897,10.376,11.891,19.941,18.848     c16.027,11.656,34.514,18.699,55.152,18.699c3.673,0,6.934-2.35,8.095-5.835l10.002-30.006c2.712,6.856,5.388,14.175,7.936,21.86     c9.67,29.162,15.758,58.155,16.547,85.01c0.046,1.581,0.074,3.152,0.083,4.711c-0.289,1.141-0.698,2.769-1.213,4.848     c-1.174,4.739-2.482,10.138-3.889,16.103c-4.02,17.036-8.039,35.203-11.792,53.752c-3.509,17.346-6.608,34.168-9.185,50.157     c-5.187,32.183-8.051,59.633-8.051,81.001c0,3.977,2.747,7.427,6.623,8.317c0.605,0.139,1.741,0.395,3.357,0.75     c2.68,0.59,5.739,1.247,9.127,1.953c9.672,2.017,20.054,4.034,30.745,5.917c11.847,2.087,23.352,3.88,34.254,5.291     c16.845,2.18,31.646,3.372,43.894,3.372s27.049-1.191,43.894-3.372c10.902-1.411,22.407-3.204,34.254-5.291     c10.69-1.883,21.072-3.9,30.745-5.917c3.388-0.707,6.447-1.363,9.127-1.953c1.616-0.356,2.752-0.611,3.357-0.75     c3.876-0.89,6.623-4.34,6.623-8.317c0-21.368-2.865-48.818-8.051-81.001c-2.577-15.989-5.675-32.811-9.185-50.157     c-3.753-18.549-7.772-36.716-11.792-53.752c-1.407-5.965-2.715-11.364-3.889-16.103c-0.515-2.079-0.924-3.708-1.213-4.848     c0.009-1.559,0.036-3.129,0.083-4.711c0.789-26.855,6.877-55.848,16.547-85.01c2.548-7.685,5.224-15.004,7.936-21.86     l10.002,30.006c1.161,3.484,4.422,5.835,8.095,5.835c20.638,0,39.125-7.043,55.152-18.699     c9.565-6.956,16.268-13.951,19.941-18.848C468.968,166.483,469.555,164.25,469.267,162.042z M304.934,80.119     c0.529-1.393,1.031-2.789,1.517-4.186c0.156-0.449,0.302-0.898,0.454-1.347c0.323-0.955,0.639-1.909,0.942-2.864     c0.165-0.521,0.325-1.042,0.485-1.563c0.275-0.899,0.543-1.798,0.802-2.697c0.151-0.523,0.3-1.046,0.445-1.569     c0.26-0.938,0.508-1.875,0.75-2.812c0.12-0.464,0.245-0.929,0.361-1.393c0.306-1.225,0.596-2.448,0.873-3.669     c0.038-0.166,0.08-0.333,0.117-0.499c0.31-1.388,0.599-2.773,0.872-4.154c0.083-0.418,0.157-0.833,0.236-1.25     c0.184-0.968,0.364-1.934,0.531-2.898c0.087-0.505,0.169-1.007,0.252-1.511c0.145-0.883,0.284-1.763,0.415-2.641     c0.076-0.512,0.152-1.023,0.223-1.534c0.126-0.898,0.243-1.791,0.354-2.683c0.058-0.464,0.119-0.928,0.173-1.39     c0.127-1.085,0.242-2.163,0.349-3.238c0.025-0.254,0.056-0.51,0.08-0.763c0.126-1.327,0.236-2.644,0.331-3.952     c0.026-0.357,0.045-0.71,0.069-1.066c0.064-0.952,0.123-1.9,0.172-2.841c0.024-0.464,0.043-0.923,0.063-1.385     c0.037-0.834,0.069-1.663,0.094-2.488c0.014-0.475,0.027-0.949,0.038-1.421c0.007-0.317,0.02-0.639,0.025-0.954     c1.407,0.454,2.73,0.882,3.861,1.247c6.542,2.132,14.005,4.573,19.973,6.55c-0.217,26.295-8.09,51.999-22.723,73.944l-1.33,1.995     l-13.014-19.526C303.488,83.773,304.233,81.965,304.934,80.119z M247.828,26.148c2.817,0.304,5.53,0.462,8.177,0.462     s5.36-0.158,8.177-0.462c6.144-0.663,11.613-1.782,20.909-4.047c6.37-1.552,10.586-2.539,13.78-3.146     c-0.057,4.898-0.352,10.442-0.993,16.464c-1.42,13.351-4.29,26.46-8.918,38.645c-1.127,2.967-2.351,5.856-3.674,8.661     c-0.01,0.021-0.016,0.044-0.026,0.065c-6.993,14.815-16.622,27.013-29.255,35.988c-12.633-8.974-22.262-21.173-29.255-35.988     c-0.01-0.021-0.016-0.044-0.026-0.065c-1.324-2.805-2.548-5.695-3.674-8.661c-4.628-12.184-7.498-25.294-8.918-38.645     c-0.641-6.022-0.936-11.565-0.993-16.464c3.194,0.607,7.41,1.594,13.78,3.146C236.215,24.366,241.684,25.485,247.828,26.148z      M192.191,22.6c1.131-0.365,2.456-0.793,3.863-1.248c0.005,0.313,0.018,0.634,0.025,0.949c0.011,0.476,0.023,0.953,0.038,1.432     c0.025,0.82,0.057,1.645,0.093,2.475c0.02,0.465,0.039,0.928,0.064,1.396c0.048,0.935,0.107,1.877,0.171,2.822     c0.024,0.362,0.044,0.72,0.07,1.083c0.096,1.307,0.205,2.624,0.331,3.949c0.024,0.253,0.054,0.509,0.08,0.763     c0.107,1.074,0.221,2.153,0.348,3.238c0.054,0.463,0.116,0.93,0.174,1.395c0.111,0.889,0.228,1.78,0.353,2.676     c0.072,0.512,0.147,1.025,0.224,1.539c0.131,0.877,0.27,1.757,0.415,2.639c0.083,0.503,0.165,1.006,0.252,1.511     c0.167,0.963,0.346,1.93,0.531,2.898c0.079,0.417,0.153,0.832,0.236,1.25c0.273,1.381,0.562,2.766,0.872,4.154     c0.037,0.166,0.08,0.333,0.117,0.499c0.277,1.221,0.567,2.444,0.873,3.669c0.116,0.464,0.241,0.929,0.361,1.393     c0.242,0.937,0.49,1.874,0.75,2.812c0.145,0.523,0.295,1.046,0.445,1.569c0.259,0.899,0.526,1.798,0.802,2.697     c0.16,0.521,0.319,1.042,0.485,1.563c0.303,0.955,0.62,1.91,0.942,2.864c0.152,0.449,0.298,0.898,0.454,1.347     c0.486,1.397,0.988,2.793,1.517,4.186c0.701,1.845,1.445,3.654,2.211,5.444l-13.014,19.526l-1.33-1.995     c-14.633-21.946-22.506-47.65-22.724-73.945C178.187,27.173,185.65,24.732,192.191,22.6z M449.978,162.573     c-3.499,3.651-7.623,7.317-12.325,10.736c-11.676,8.492-24.743,13.965-39.049,15.179l-15.036-45.109     c-2.412-7.236-12.382-7.914-15.751-1.071c-0.299,0.607-0.83,1.722-1.562,3.311c-1.202,2.611-2.538,5.627-3.972,9.012     c-4.086,9.64-8.167,20.34-11.976,31.827c-10.15,30.609-16.563,61.15-17.407,89.88c-0.062,2.106-0.093,4.197-0.093,6.272     c0,0.717,0.091,1.432,0.269,2.127c0.26,1.012,0.754,2.965,1.448,5.765c1.159,4.679,2.452,10.017,3.844,15.918     c3.98,16.868,7.961,34.859,11.675,53.216c3.467,17.135,6.525,33.738,9.063,49.488c4.505,27.955,7.203,52.153,7.736,71.45     c-1.693,0.364-3.506,0.748-5.427,1.149c-9.508,1.983-19.717,3.966-30.221,5.816c-11.606,2.044-22.859,3.798-33.484,5.173     c-16.18,2.094-30.297,3.231-41.704,3.231s-25.524-1.137-41.704-3.231c-10.625-1.375-21.878-3.129-33.484-5.173     c-10.504-1.85-20.713-3.834-30.221-5.816c-1.922-0.401-3.734-0.785-5.427-1.149c0.533-19.297,3.231-43.495,7.736-71.45     c2.538-15.75,5.596-32.353,9.063-49.488c3.714-18.357,7.695-36.349,11.675-53.216c1.393-5.901,2.685-11.239,3.844-15.918     c0.694-2.8,1.187-4.753,1.448-5.765c0.179-0.695,0.269-1.409,0.269-2.127c0-2.075-0.031-4.166-0.093-6.272     c-0.844-28.73-7.257-59.272-17.407-89.88c-3.809-11.487-7.89-22.188-11.976-31.827c-1.435-3.385-2.77-6.401-3.972-9.012     c-0.732-1.589-1.263-2.704-1.562-3.311c-3.369-6.843-13.339-6.166-15.751,1.071l-15.036,45.109     c-14.306-1.214-27.373-6.687-39.049-15.179c-4.701-3.419-8.826-7.086-12.325-10.736c-0.684-0.714-1.291-1.369-1.817-1.954     c6.572-38.36,40.111-100.109,55.292-109.735c4.646-2.946,17.175-8.026,35.141-14.37c1.517-0.536,3.069-1.079,4.656-1.63     c1.244,27.651,9.999,54.523,25.438,77.679l8.431,12.646c3.378,5.067,10.824,5.066,14.201-0.001l14.902-22.359     c8.496,13.587,19.476,24.923,33.245,33.423c2.748,1.696,6.217,1.696,8.965,0c13.77-8.5,24.749-19.836,33.245-33.423     l14.902,22.359c3.377,5.067,10.823,5.068,14.201,0.001l8.431-12.646c15.439-23.155,24.194-50.027,25.438-77.678     c1.586,0.551,3.139,1.095,4.656,1.63c17.967,6.344,30.496,11.424,35.141,14.37c15.181,9.626,48.72,71.375,55.292,109.735     C451.268,161.204,450.662,161.859,449.978,162.573z"/>
			<path d="M312.807,209.503l-35.842-4.496l-13.212-28.613c-3.051-6.608-12.443-6.608-15.495,0l-13.212,28.613l-35.842,4.496     c-7.443,0.934-10.146,10.327-4.338,15.074l26.809,21.911l-3.607,32.343c-0.81,7.266,7.295,12.12,13.318,7.976l24.636-16.95     l24.814,16.964c6.042,4.131,14.14-0.763,13.292-8.033l-3.768-32.318l26.787-21.893     C322.954,219.83,320.25,210.437,312.807,209.503z M275.941,236.211c-2.253,1.842-3.413,4.705-3.076,7.596l2.14,18.355     l-14.184-9.697c-2.911-1.99-6.747-1.985-9.653,0.014l-14.069,9.68l2.051-18.395c0.321-2.877-0.839-5.721-3.081-7.553     l-14.992-12.252l20.791-2.608c2.923-0.367,5.45-2.215,6.685-4.89l7.451-16.135l7.451,16.135c1.235,2.675,3.762,4.523,6.685,4.89     l20.791,2.608L275.941,236.211z"/>
		</g>
	</g>
</g>
<g>
</g>
<g>
</g>
<g>
</g>
<g>
</g>
<g>
</g>
<g>
</g>
<g>
</g>
<g>
</g>
<g>
</g>
<g>
</g>
<g>
</g>
<g>
</g>
<g>
</g>
<g>
</g>
<g>
</g>
</svg>
