<?xml version="1.0" encoding="iso-8859-1"?>
<!-- Generator: Adobe Illustrator 19.0.0, SVG Export Plug-In . SVG Version: 6.00 Build 0)  -->
<svg xmlns="http://www.w3.org/2000/svg" xmlns:xlink="http://www.w3.org/1999/xlink" version="1.1" id="Layer_1" x="0px" y="0px" viewBox="0 0 512.008 512.008" style="enable-background:new 0 0 512.008 512.008;" xml:space="preserve">
<g transform="translate(0 -1)">
	<g>
		<path d="M469.266,162.039c-5.549-42.611-43.234-112.641-63.626-125.571c-6.176-3.916-19.255-9.219-38.598-16.05    c-3.125-1.103-6.391-2.238-9.795-3.404c-8.942-3.062-18.269-6.149-28.975-9.621c-1.744-0.565-16.346-5.273-18.369-5.948    c-0.03-0.01-0.061-0.014-0.091-0.024c-0.318-0.102-0.64-0.192-0.972-0.257c-0.062-0.012-0.124-0.016-0.186-0.027    c-0.239-0.041-0.481-0.074-0.726-0.095c-0.178-0.016-0.353-0.021-0.53-0.025c-0.065-0.001-0.128-0.009-0.193-0.009    c-6.827,0-11.168,0.857-26.155,4.509c-8.606,2.097-13.51,3.1-18.701,3.661c-2.231,0.241-4.337,0.363-6.345,0.363    c-2.008,0-4.114-0.123-6.345-0.363c-5.19-0.56-10.095-1.564-18.701-3.661c-14.987-3.652-19.328-4.509-26.155-4.509    c-0.065,0-0.128,0.008-0.193,0.009c-0.176,0.004-0.352,0.01-0.53,0.025c-0.245,0.021-0.487,0.054-0.726,0.095    c-0.062,0.011-0.124,0.015-0.186,0.027c-0.332,0.065-0.655,0.155-0.972,0.257c-0.03,0.01-0.061,0.014-0.091,0.024    c-2.023,0.674-16.625,5.382-18.369,5.948c-10.706,3.472-20.034,6.56-28.975,9.621c-3.405,1.166-6.671,2.3-9.795,3.404    c-19.343,6.83-32.422,12.133-38.598,16.05c-20.392,12.93-58.076,82.961-63.626,125.571c-0.288,2.208,0.299,4.441,1.635,6.222    c3.673,4.897,10.376,11.891,19.941,18.848c16.027,11.656,34.514,18.699,55.152,18.699c3.673,0,6.934-2.35,8.095-5.835    l10.002-30.006c2.712,6.856,5.388,14.175,7.936,21.86c9.67,29.162,15.758,58.155,16.547,85.01    c0.046,1.581,0.074,3.152,0.083,4.711c-0.289,1.141-0.698,2.769-1.213,4.848c-1.174,4.739-2.482,10.138-3.889,16.103    c-4.02,17.036-8.039,35.203-11.792,53.752c-3.509,17.346-6.608,34.168-9.185,50.157c-5.187,32.183-8.051,59.633-8.051,81.001    c0,3.977,2.747,7.427,6.623,8.317c0.605,0.139,1.741,0.395,3.357,0.75c2.68,0.59,5.739,1.247,9.127,1.953    c9.672,2.017,20.054,4.034,30.745,5.917c11.847,2.087,23.352,3.88,34.254,5.291c16.845,2.18,31.646,3.372,43.894,3.372    c12.248,0,27.049-1.191,43.894-3.372c10.902-1.411,22.407-3.204,34.254-5.291c10.69-1.883,21.072-3.9,30.745-5.917    c3.388-0.707,6.447-1.363,9.127-1.953c1.616-0.356,2.752-0.611,3.357-0.75c3.876-0.89,6.623-4.34,6.623-8.317    c0-21.368-2.865-48.818-8.051-81.001c-2.577-15.989-5.675-32.811-9.185-50.157c-3.753-18.549-7.772-36.716-11.792-53.752    c-1.407-5.965-2.715-11.364-3.889-16.103c-0.515-2.079-0.924-3.708-1.213-4.848c0.009-1.559,0.036-3.129,0.083-4.711    c0.789-26.855,6.877-55.848,16.547-85.01c2.548-7.685,5.224-15.004,7.936-21.86l10.002,30.006    c1.161,3.484,4.422,5.835,8.095,5.835c20.638,0,39.125-7.043,55.152-18.699c9.565-6.956,16.268-13.951,19.941-18.848    C468.967,166.48,469.553,164.247,469.266,162.039z M247.827,26.146c2.817,0.304,5.53,0.462,8.177,0.462    c2.647,0,5.36-0.158,8.177-0.462c6.144-0.663,11.613-1.782,20.909-4.047c6.374-1.553,10.591-2.54,13.786-3.147    c-0.002,0.162-0.001,0.317-0.003,0.481c-0.003,0.202-0.007,0.406-0.011,0.61c-0.014,0.766-0.033,1.545-0.059,2.34    c-0.003,0.093-0.005,0.182-0.008,0.275c-0.03,0.867-0.07,1.756-0.115,2.657c-0.011,0.225-0.023,0.451-0.036,0.678    c-0.047,0.872-0.1,1.756-0.162,2.656c-0.004,0.057-0.007,0.113-0.011,0.17c-0.066,0.944-0.144,1.909-0.228,2.882    c-0.021,0.242-0.042,0.485-0.064,0.729c-0.089,0.991-0.184,1.991-0.292,3.01c-1.417,13.342-4.285,26.442-8.908,38.618    c-7.139,18.801-17.936,34.036-32.973,44.718c-15.037-10.682-25.834-25.917-32.973-44.718c-4.624-12.176-7.491-25.276-8.908-38.618    c-0.108-1.019-0.203-2.019-0.292-3.01c-0.022-0.244-0.044-0.487-0.064-0.729c-0.084-0.973-0.161-1.938-0.228-2.882    c-0.004-0.057-0.007-0.113-0.011-0.17c-0.062-0.901-0.115-1.784-0.162-2.656c-0.012-0.227-0.024-0.453-0.036-0.678    c-0.045-0.9-0.085-1.789-0.115-2.657c-0.003-0.093-0.005-0.183-0.008-0.275c-0.026-0.796-0.045-1.574-0.059-2.34    c-0.004-0.204-0.008-0.409-0.011-0.61c-0.002-0.164-0.002-0.318-0.003-0.481c3.195,0.607,7.412,1.594,13.786,3.147    C236.214,24.364,241.683,25.483,247.827,26.146z M449.976,162.57c-3.499,3.651-7.623,7.317-12.325,10.736    c-11.676,8.492-24.743,13.965-39.049,15.179l-15.036-45.109c-2.412-7.236-12.382-7.914-15.751-1.071    c-0.299,0.607-0.83,1.722-1.562,3.311c-1.202,2.611-2.538,5.627-3.972,9.012c-4.086,9.64-8.167,20.34-11.976,31.827    c-10.15,30.609-16.563,61.15-17.407,89.88c-0.062,2.106-0.093,4.197-0.093,6.272c0,0.717,0.091,1.432,0.269,2.127    c0.26,1.012,0.754,2.965,1.448,5.765c1.159,4.679,2.452,10.017,3.844,15.918c3.98,16.868,7.961,34.859,11.675,53.216    c3.467,17.135,6.525,33.738,9.063,49.488c4.505,27.955,7.203,52.153,7.736,71.45c-1.693,0.364-3.506,0.748-5.427,1.149    c-9.508,1.983-19.717,3.966-30.221,5.816c-11.606,2.044-22.859,3.798-33.484,5.173c-16.18,2.094-30.297,3.231-41.704,3.231    c-11.407,0-25.524-1.137-41.704-3.231c-10.625-1.375-21.878-3.129-33.484-5.173c-10.504-1.85-20.713-3.834-30.221-5.816    c-1.922-0.401-3.734-0.785-5.427-1.149c0.533-19.297,3.231-43.495,7.736-71.45c2.538-15.75,5.596-32.353,9.063-49.488    c3.714-18.357,7.695-36.349,11.675-53.216c1.393-5.901,2.685-11.239,3.844-15.918c0.694-2.8,1.187-4.753,1.448-5.765    c0.179-0.695,0.269-1.409,0.269-2.127c0-2.075-0.031-4.166-0.093-6.272c-0.844-28.73-7.257-59.272-17.407-89.88    c-3.809-11.487-7.89-22.188-11.976-31.827c-1.435-3.385-2.77-6.401-3.972-9.012c-0.732-1.589-1.263-2.704-1.562-3.311    c-3.369-6.843-13.339-6.166-15.751,1.071l-15.036,45.109c-14.306-1.214-27.373-6.687-39.049-15.179    c-4.701-3.419-8.826-7.086-12.325-10.736c-0.684-0.714-1.291-1.369-1.817-1.954c6.572-38.36,40.111-100.109,55.292-109.735    c4.646-2.946,17.175-8.026,35.141-14.37c3.071-1.084,6.286-2.201,9.641-3.35c8.841-3.027,18.086-6.088,28.712-9.534    c0.69-0.224,3.666-1.184,7.051-2.278c0.005,0.313,0.018,0.634,0.025,0.949c0.011,0.476,0.023,0.953,0.038,1.432    c0.025,0.82,0.057,1.645,0.093,2.475c0.02,0.465,0.039,0.928,0.064,1.396c0.048,0.935,0.107,1.877,0.171,2.822    c0.024,0.362,0.044,0.72,0.07,1.083c0.096,1.307,0.205,2.624,0.331,3.949c0.024,0.253,0.054,0.509,0.08,0.763    c0.107,1.074,0.221,2.153,0.348,3.238c0.054,0.463,0.116,0.93,0.174,1.395c0.111,0.889,0.228,1.78,0.353,2.676    c0.072,0.512,0.147,1.025,0.224,1.539c0.131,0.877,0.27,1.757,0.415,2.639c0.083,0.503,0.165,1.006,0.252,1.511    c0.167,0.963,0.346,1.93,0.531,2.898c0.079,0.417,0.153,0.832,0.236,1.25c0.273,1.381,0.562,2.766,0.872,4.154    c0.037,0.166,0.08,0.333,0.117,0.499c0.277,1.221,0.567,2.444,0.873,3.669c0.116,0.464,0.241,0.929,0.361,1.393    c0.242,0.937,0.49,1.874,0.75,2.812c0.145,0.523,0.295,1.046,0.445,1.569c0.259,0.899,0.526,1.798,0.802,2.697    c0.16,0.521,0.319,1.042,0.485,1.563c0.303,0.955,0.62,1.91,0.942,2.864c0.152,0.449,0.298,0.898,0.454,1.347    c0.486,1.397,0.988,2.793,1.517,4.186c9.079,23.909,23.578,43.27,44.446,56.152c2.748,1.696,6.217,1.696,8.965,0    c20.868-12.883,35.366-32.243,44.446-56.152c0.529-1.393,1.031-2.789,1.517-4.186c0.156-0.449,0.302-0.898,0.454-1.347    c0.323-0.955,0.639-1.909,0.942-2.864c0.165-0.521,0.325-1.042,0.485-1.563c0.275-0.899,0.543-1.798,0.802-2.697    c0.151-0.523,0.3-1.046,0.445-1.569c0.26-0.938,0.508-1.875,0.75-2.812c0.12-0.464,0.245-0.929,0.361-1.393    c0.306-1.225,0.596-2.448,0.873-3.669c0.038-0.166,0.08-0.333,0.117-0.499c0.31-1.388,0.599-2.773,0.872-4.154    c0.083-0.418,0.157-0.833,0.236-1.25c0.184-0.968,0.364-1.934,0.531-2.898c0.087-0.505,0.169-1.007,0.252-1.511    c0.145-0.883,0.284-1.763,0.415-2.641c0.076-0.512,0.152-1.023,0.223-1.534c0.126-0.898,0.243-1.791,0.354-2.683    c0.058-0.464,0.119-0.928,0.173-1.39c0.127-1.085,0.242-2.163,0.349-3.238c0.025-0.254,0.056-0.51,0.08-0.763    c0.126-1.327,0.236-2.644,0.331-3.952c0.026-0.357,0.045-0.71,0.069-1.066c0.064-0.952,0.123-1.9,0.172-2.841    c0.024-0.464,0.043-0.923,0.063-1.385c0.037-0.834,0.069-1.663,0.094-2.488c0.014-0.475,0.027-0.949,0.038-1.421    c0.007-0.317,0.02-0.639,0.025-0.954c3.385,1.093,6.361,2.054,7.051,2.278c10.626,3.446,19.871,6.506,28.712,9.534    c3.355,1.149,6.57,2.266,9.641,3.35c17.967,6.344,30.496,11.424,35.141,14.37c15.181,9.626,48.72,71.375,55.292,109.735    C451.267,161.202,450.661,161.856,449.976,162.57z"/>
	</g>
</g>
<g>
</g>
<g>
</g>
<g>
</g>
<g>
</g>
<g>
</g>
<g>
</g>
<g>
</g>
<g>
</g>
<g>
</g>
<g>
</g>
<g>
</g>
<g>
</g>
<g>
</g>
<g>
</g>
<g>
</g>
</svg>
