<?xml version="1.0" encoding="iso-8859-1"?>
<!-- Generator: Adobe Illustrator 19.0.0, SVG Export Plug-In . SVG Version: 6.00 Build 0)  -->
<svg xmlns="http://www.w3.org/2000/svg" xmlns:xlink="http://www.w3.org/1999/xlink" version="1.1" id="Layer_1" x="0px" y="0px" viewBox="0 0 512.004 512.004" style="enable-background:new 0 0 512.004 512.004;" xml:space="preserve">
<g transform="translate(-1 -1)">
	<g>
		<g>
			<path d="M143.924,252.931c1.244,3.48,2.226,5.989,2.813,7.383c1.768,4.197,6.52,6.266,10.797,4.701     c17.364-6.354,81.865-18.006,98.748-16.577h1.439c16.883-1.429,81.384,10.223,98.748,16.577     c4.277,1.565,9.029-0.504,10.797-4.701c0.587-1.395,1.569-3.904,2.813-7.383c2.051-5.738,4.097-12.156,6.006-19.113     c6.506-23.714,9.885-47.718,8.43-70.357c-1.379-21.444-7.093-40.435-17.938-56.155l-50.807-84.679     c-0.461-1.007-1.185-2.548-2.157-4.551c-1.881-3.875-4.032-8.109-6.421-12.57c-2.225-4.155-7.397-5.719-11.551-3.494     c-4.155,2.225-5.719,7.397-3.494,11.551c2.277,4.252,4.326,8.286,6.112,11.965c0.557,1.147,1.02,2.119,1.39,2.906     c-0.205,17.443-3.307,41.302-8.769,69.888c-2.33,12.197-5.044,25.014-8.064,38.244c-3.711,16.255-7.689,32.295-11.666,47.412     c-1.282,4.873-2.479,9.325-3.566,13.289h-21.163c-1.086-3.963-2.284-8.416-3.566-13.289     c-3.978-15.116-7.956-31.157-11.666-47.412c-3.021-13.23-5.734-26.047-8.064-38.244c-5.461-28.587-8.564-52.445-8.769-69.888     c0.37-0.788,0.834-1.76,1.39-2.906c1.786-3.679,3.835-7.713,6.112-11.965c2.225-4.154,0.661-9.326-3.494-11.551     c-4.155-2.225-9.326-0.661-11.551,3.494c-2.389,4.461-4.54,8.695-6.421,12.57c-0.972,2.003-1.696,3.544-2.157,4.551     l-50.95,84.917c-10.644,15.288-16.41,34.363-17.795,55.917c-1.455,22.638,1.924,46.643,8.43,70.357     C139.827,240.775,141.873,247.193,143.924,252.931z M146.52,164.556c1.199-18.656,6.07-34.77,15.089-47.753l37.408-62.319     c1.524,13.842,4.013,29.614,7.342,47.042c2.371,12.409,5.126,25.422,8.189,38.841c3.756,16.451,7.778,32.669,11.8,47.956     c1.408,5.352,2.717,10.207,3.891,14.478c0.707,2.57,1.214,4.379,1.487,5.339c1.044,3.667,4.394,6.195,8.207,6.195h34.133     c3.813,0,7.162-2.529,8.207-6.195c0.274-0.96,0.78-2.769,1.487-5.339c1.175-4.27,2.483-9.126,3.891-14.478     c4.022-15.287,8.044-31.505,11.8-47.956c3.063-13.418,5.818-26.431,8.189-38.841c3.329-17.424,5.817-33.194,7.341-47.033     l37.1,61.833c9.329,13.461,14.199,29.575,15.399,48.231c1.317,20.489-1.811,42.709-7.857,64.746     c-1.71,6.233-3.536,11.998-5.362,17.164c-25.295-7.025-79.027-16.265-97.262-15.088c-18.235-1.177-71.967,8.063-97.262,15.088     c-1.827-5.166-3.652-10.931-5.362-17.164C148.331,207.265,145.202,185.046,146.52,164.556z"/>
			<path d="M395.739,387.068c-2.864-14.651-6.704-27.936-11.656-39.548c-1.828-4.287-6.757-6.314-11.072-4.553     c-18.891,7.706-75.468,16.435-116.013,16.435c-40.546,0-97.124-8.729-116.003-16.434c-4.315-1.761-9.245,0.266-11.074,4.553     c-4.952,11.611-8.792,24.897-11.656,39.548c-5.393,27.588-6.864,56.216-6.209,80.188c0.046,1.672,0.092,2.857,0.125,3.505     c0.211,4.225,3.486,7.657,7.697,8.067c28.134,2.735,53.487,8.248,75.919,15.709c11.497,3.824,21.465,7.909,29.854,11.976     c2.902,1.407,5.391,2.705,7.46,3.859c1.194,0.666,1.956,1.118,2.279,1.321c4.268,2.683,9.919,1.1,12.173-3.409l6.175-12.35h6.519     l6.175,12.35c2.254,4.509,7.905,6.091,12.173,3.409c0.323-0.203,1.086-0.655,2.28-1.321c2.07-1.154,4.559-2.452,7.462-3.859     c8.39-4.067,18.36-8.152,29.858-11.976c22.434-7.461,47.789-12.974,75.922-15.71c4.211-0.409,7.485-3.842,7.697-8.067     c0.032-0.648,0.079-1.833,0.125-3.505C402.603,443.285,401.132,414.656,395.739,387.068z M384.977,462.641     c-26.471,3.069-50.563,8.52-72.16,15.703c-12.216,4.063-22.871,8.429-31.916,12.812c-1.128,0.547-2.185,1.07-3.169,1.569     l-4.57-9.139c-1.445-2.891-4.4-4.717-7.632-4.717h-17.067c-3.232,0-6.187,1.826-7.632,4.717l-4.569,9.139     c-0.984-0.498-2.04-1.022-3.167-1.568c-9.043-4.384-19.697-8.75-31.912-12.813c-21.595-7.183-45.686-12.634-72.157-15.703     c-0.352-21.963,1.184-47.724,5.988-72.298c2.046-10.468,4.609-20.105,7.715-28.747c25.588,7.683,76.322,14.873,114.268,14.873     c37.947,0,88.683-7.19,114.276-14.874c3.106,8.642,5.669,18.28,7.715,28.748C383.793,414.917,385.329,440.678,384.977,462.641z"/>
		</g>
	</g>
</g>
<g>
</g>
<g>
</g>
<g>
</g>
<g>
</g>
<g>
</g>
<g>
</g>
<g>
</g>
<g>
</g>
<g>
</g>
<g>
</g>
<g>
</g>
<g>
</g>
<g>
</g>
<g>
</g>
<g>
</g>
</svg>
