<?xml version="1.0" encoding="iso-8859-1"?>
<!-- Generator: Adobe Illustrator 19.0.0, SVG Export Plug-In . SVG Version: 6.00 Build 0)  -->
<svg xmlns="http://www.w3.org/2000/svg" xmlns:xlink="http://www.w3.org/1999/xlink" version="1.1" id="Layer_1" x="0px" y="0px" viewBox="0 0 512.008 512.008" style="enable-background:new 0 0 512.008 512.008;" xml:space="preserve">
<g transform="translate(0 -1)">
	<g>
		<g>
			<path d="M511.361,194.026L451.628,48.959c-0.893-2.168-2.639-3.874-4.827-4.716l-41.4-15.923     c-0.399-0.234-0.815-0.45-1.264-0.623L336.228,1.577c-1.101-0.424-2.217-0.595-3.302-0.566c-4.568-0.071-8.656,3.591-8.656,8.53     c0,21.54-6.775,37.136-20.401,53.41c-10.596,12.653-24.049,20.172-38.042,22.557c-0.098,0.016-0.197,0.029-0.296,0.045     c-5.368,0.887-10.812,1.021-16.204,0.398c-0.204-0.041-0.404-0.088-0.614-0.115c-6.709-0.848-13.217-2.834-19.333-5.893     c-0.003-0.002-0.007-0.003-0.01-0.005c-3.214-1.609-6.314-3.527-9.284-5.72c-0.318-0.235-0.639-0.463-0.954-0.705     c-0.473-0.363-0.937-0.742-1.403-1.119c-0.412-0.334-0.823-0.669-1.23-1.015c-0.417-0.354-0.828-0.717-1.239-1.084     c-0.452-0.404-0.9-0.816-1.345-1.236c-0.368-0.347-0.736-0.695-1.099-1.052c-0.5-0.492-0.992-1-1.482-1.512     c-0.301-0.315-0.606-0.623-0.903-0.945c-0.71-0.77-1.409-1.561-2.096-2.374c-0.066-0.078-0.134-0.15-0.2-0.228     c-0.957-1.142-1.872-2.281-2.762-3.419c-6.544-8.374-11.252-16.709-14.15-25.895c-2.312-7.331-3.486-15.203-3.486-24.093     c0-4.866-3.966-8.502-8.452-8.541c-1.035-0.009-2.098,0.173-3.146,0.576L65.207,44.243c-2.189,0.842-3.934,2.547-4.827,4.716     L0.647,194.026c-1.922,4.667,0.605,9.972,5.439,11.423l85.333,25.6c4.156,1.247,8.586-0.824,10.295-4.812l14.163-33.046     l13.364,79.366c10.334,51.666,9.77,104.652-1.605,155.845l-16.495,74.223c-1.184,5.329,2.871,10.385,8.33,10.385h273.067     c5.459,0,9.514-5.055,8.33-10.385l-16.495-74.223c-11.375-51.192-11.939-104.178-1.652-155.587l13.41-79.626l14.163,33.048     c1.709,3.988,6.139,6.059,10.295,4.812l85.333-25.6C510.757,203.998,513.283,198.692,511.361,194.026z M317.313,73.912     c13.371-15.948,21.42-32.049,23.706-52.068l46.729,17.973l-49.369,70.52l-46.479-15.782     C301.348,89.612,309.974,82.667,317.313,73.912z M171.332,21.713c0.708,6.273,1.982,12.161,3.807,17.781     c3.576,11.011,9.279,20.986,16.989,30.798c0.948,1.208,1.917,2.414,2.926,3.618c0.874,1.043,1.768,2.052,2.673,3.039     c0.073,0.079,0.144,0.16,0.217,0.239c0.895,0.969,1.807,1.908,2.731,2.823c0.074,0.073,0.148,0.147,0.222,0.22     c0.96,0.944,1.935,1.859,2.923,2.745c0.009,0.008,0.019,0.017,0.028,0.025c5.19,4.648,10.766,8.502,16.597,11.561l-46.455,15.773     l-49.444-70.628L171.332,21.713z M422.98,212.513l-22.6-52.733c-3.354-7.827-14.844-6.452-16.258,1.945l-18.185,107.998     c-10.706,53.481-10.116,108.869,1.774,162.38l14.187,63.839H130.109l14.187-63.838c11.891-53.512,12.48-108.899,1.727-162.638     l-18.137-107.74c-1.414-8.397-12.904-9.771-16.258-1.945l-22.6,52.733l-69.011-20.703L74.763,58.854l33.369-12.834l55.55,79.349     c2.176,3.108,6.142,4.406,9.734,3.186l75.165-25.522c5.035,0.499,10.102,0.491,15.135-0.025l75.239,25.547     c3.592,1.22,7.558-0.079,9.734-3.186l55.473-79.239l33.084,12.724l54.746,132.955L422.98,212.513z"/>
			<path d="M264.537,171.675h-17.067c-4.713,0-8.533,3.821-8.533,8.533c0,4.713,3.82,8.533,8.533,8.533h17.067     c4.713,0,8.533-3.82,8.533-8.533C273.071,175.495,269.25,171.675,264.537,171.675z"/>
			<path d="M264.537,205.808h-17.067c-4.713,0-8.533,3.82-8.533,8.533s3.82,8.533,8.533,8.533h17.067     c4.713,0,8.533-3.82,8.533-8.533S269.25,205.808,264.537,205.808z"/>
			<path d="M264.537,137.541h-17.067c-4.713,0-8.533,3.82-8.533,8.533s3.82,8.533,8.533,8.533h17.067     c4.713,0,8.533-3.82,8.533-8.533S269.25,137.541,264.537,137.541z"/>
		</g>
	</g>
</g>
<g>
</g>
<g>
</g>
<g>
</g>
<g>
</g>
<g>
</g>
<g>
</g>
<g>
</g>
<g>
</g>
<g>
</g>
<g>
</g>
<g>
</g>
<g>
</g>
<g>
</g>
<g>
</g>
<g>
</g>
</svg>
