<?xml version="1.0" encoding="iso-8859-1"?>
<!-- Generator: Adobe Illustrator 19.0.0, SVG Export Plug-In . SVG Version: 6.00 Build 0)  -->
<svg xmlns="http://www.w3.org/2000/svg" xmlns:xlink="http://www.w3.org/1999/xlink" version="1.1" id="Layer_1" x="0px" y="0px" viewBox="0 0 504.195 504.195" style="enable-background:new 0 0 504.195 504.195;" xml:space="preserve">
<g transform="translate(0 -1)">
	<g>
		<path d="M461.167,39.086c-7.615-3.41-15.72-6.416-23.818-9.006c-2.83-0.905-5.461-1.695-7.83-2.366    c-1.44-0.408-2.487-0.689-3.077-0.84L386.52,19.16c-1.806-0.508-3.688-0.865-5.63-1.046c-12.54-1.173-45.052-10.37-56.708-16.202    c-5.674-2.839-12.352,1.287-12.352,7.631c0,17.789-26.151,34.133-59.733,34.133s-59.733-16.345-59.733-34.133    c0-6.345-6.678-10.47-12.352-7.631c-11.656,5.832-44.168,15.029-56.71,16.202c-1.94,0.181-3.821,0.538-5.627,1.045l-39.424,7.602    c-1.089,0.263-2.136,0.544-3.576,0.952c-2.369,0.671-5,1.461-7.83,2.366c-8.098,2.59-16.202,5.596-23.818,9.006    C19.199,49.756,4.63,61.87,4.63,77.808c0,3.232,1.826,6.187,4.717,7.632c0.912,0.456,2.619,1.371,4.85,2.672    c3.735,2.179,7.467,4.604,10.913,7.189c8.593,6.445,13.578,12.644,13.653,16.552c-0.05,2.529,0.017,5.431,0.279,8.773    c0.396,5.049,1.168,10.058,2.423,14.822c4.384,16.646,13.923,27.693,29.871,27.693h57.559c1.707,3.154,3.64,6.431,6.033,10.292    c0.07,0.113,5.124,8.169,6.444,10.354c2.184,3.614,3.779,6.518,5.031,9.226c2.227,4.816,3.295,8.904,3.295,12.798    c0,1.508,0,1.508,0,3c0.008,31.875-0.431,44.029-2.782,59.449c-1.226,8.042-2.951,15.772-5.297,23.577    c-16.171,53.803-26.055,115.025-26.055,195.575c0,3.673,2.35,6.934,5.835,8.095c0.997,0.332,2.777,0.879,5.253,1.567    c4.062,1.128,8.649,2.253,13.677,3.3c23.761,4.95,48.354,6.526,71.58,2.655c4.862-0.81,9.601-1.857,14.204-3.153    c8.427-2.378,17.185-3.581,25.985-3.581c8.799,0,17.557,1.203,25.979,3.579c4.608,1.297,9.347,2.344,14.209,3.155    c23.226,3.872,47.819,2.295,71.58-2.655c5.028-1.047,9.615-2.172,13.677-3.3c2.477-0.688,4.256-1.234,5.253-1.567    c3.485-1.161,5.835-4.422,5.835-8.095c0-80.549-9.884-141.772-26.055-195.574c-2.346-7.805-4.071-15.535-5.297-23.577    c-2.351-15.42-2.789-27.573-2.782-59.449c0-1.492,0-1.492,0-3c0-3.894,1.068-7.982,3.295-12.798    c1.252-2.708,2.848-5.613,5.031-9.226c1.32-2.185,6.374-10.241,6.444-10.354c2.393-3.861,4.326-7.138,6.033-10.292h57.559    c15.948,0,25.487-11.048,29.871-27.693c1.255-4.765,2.027-9.773,2.423-14.822c0.262-3.341,0.329-6.244,0.286-8.485    c-0.009-0.378-0.009-0.378-0.013-0.512c0.006-3.59,5.001-9.835,13.659-16.328c3.446-2.585,7.178-5.01,10.913-7.189    c2.231-1.301,3.938-2.216,4.85-2.672c2.891-1.445,4.717-4.4,4.717-7.632C499.565,61.87,484.997,49.756,461.167,39.086z     M71.335,146.074c-6.452,0-10.728-4.952-13.367-14.974c-1.709-6.487-2.25-13.389-2.149-18.63    c0.011-11.561-7.794-21.316-20.469-30.823c-3.947-2.961-8.133-5.689-12.321-8.142c3.341-5.749,12.834-12.512,26.974-18.843    c6.977-3.124,14.506-5.917,22.042-8.327c2.642-0.845,5.091-1.58,7.283-2.201c1.296-0.367,2.203-0.611,2.656-0.727l16.628-3.2    c0,0.004,0,0.009-0.001,0.013c-0.061,0.566-0.096,1.142-0.116,1.722c-0.005,0.144-0.008,0.287-0.011,0.432    c-0.01,0.564-0.006,1.132,0.024,1.707c0.001,0.019,0,0.036,0.001,0.055c0.054,0.993,0.119,2.005,0.191,3.03    c0.018,0.254,0.039,0.514,0.058,0.77c0.057,0.767,0.116,1.538,0.182,2.321c0.029,0.343,0.061,0.69,0.092,1.036    c0.063,0.71,0.129,1.425,0.2,2.147c0.037,0.379,0.076,0.76,0.115,1.142c0.073,0.713,0.15,1.431,0.23,2.155    c0.042,0.384,0.085,0.767,0.129,1.153c0.087,0.757,0.179,1.52,0.273,2.287c0.044,0.355,0.086,0.707,0.131,1.063    c0.112,0.881,0.229,1.77,0.351,2.664c0.034,0.248,0.065,0.493,0.099,0.743c0.319,2.318,0.67,4.674,1.05,7.059    c0.048,0.3,0.099,0.603,0.147,0.905c0.143,0.884,0.288,1.771,0.439,2.663c0.065,0.382,0.131,0.766,0.197,1.149    c0.142,0.825,0.287,1.652,0.435,2.482c0.072,0.403,0.145,0.807,0.219,1.211c0.151,0.828,0.305,1.658,0.462,2.491    c0.074,0.394,0.148,0.788,0.224,1.182c0.169,0.88,0.342,1.762,0.517,2.645c0.068,0.342,0.134,0.683,0.203,1.025    c0.217,1.08,0.44,2.162,0.666,3.245c0.029,0.14,0.057,0.279,0.087,0.419c0.527,2.506,1.081,5.019,1.656,7.529    c0.065,0.283,0.132,0.566,0.197,0.849c0.22,0.95,0.442,1.899,0.669,2.848c0.086,0.362,0.174,0.724,0.262,1.085    c0.213,0.879,0.427,1.757,0.645,2.634c0.094,0.377,0.188,0.754,0.283,1.13c0.221,0.877,0.444,1.752,0.67,2.625    c0.092,0.356,0.184,0.712,0.277,1.067c0.245,0.936,0.493,1.869,0.744,2.8c0.076,0.281,0.15,0.563,0.226,0.843    c0.323,1.189,0.65,2.373,0.982,3.551c0.004,0.015,0.008,0.03,0.013,0.045c0.352,1.25,0.71,2.492,1.072,3.726    c0.019,0.064,0.038,0.127,0.057,0.19c0.326,1.11,0.657,2.213,0.99,3.309c0.09,0.296,0.182,0.588,0.272,0.883    c0.266,0.866,0.534,1.728,0.805,2.584c0.112,0.354,0.225,0.706,0.338,1.059c0.255,0.795,0.511,1.585,0.769,2.37    c0.121,0.367,0.242,0.733,0.363,1.098c0.258,0.774,0.518,1.541,0.779,2.304c0.12,0.352,0.241,0.705,0.362,1.054    c0.279,0.803,0.56,1.597,0.842,2.386c0.104,0.29,0.206,0.584,0.311,0.872c0.367,1.015,0.737,2.02,1.109,3.01    c0.019,0.052,0.038,0.105,0.058,0.157c0.374,0.993,0.751,1.975,1.131,2.941H71.335z M354.762,164.441    c-0.003,0.004-5.138,8.19-6.545,10.519c-2.482,4.107-4.359,7.525-5.915,10.89c-3.191,6.9-4.871,13.332-4.871,19.961    c0,1.505,0,1.505,0,2.995c-0.008,32.757,0.45,45.453,2.977,62.025c1.345,8.822,3.244,17.334,5.825,25.918    c15.285,50.855,24.804,108.626,25.311,184.27c-3.357,0.901-7.096,1.799-11.158,2.645c-21.864,4.555-44.45,6.003-65.293,2.528    c-4.262-0.71-8.394-1.623-12.386-2.747c-9.93-2.802-20.248-4.219-30.608-4.219c-10.361,0-20.678,1.417-30.614,4.22    c-3.987,1.122-8.119,2.035-12.381,2.746c-20.843,3.474-43.429,2.027-65.293-2.528c-4.062-0.846-7.801-1.744-11.158-2.645    c0.507-75.644,10.026-133.415,25.311-184.271c2.581-8.583,4.479-17.095,5.824-25.918c2.527-16.572,2.985-29.268,2.977-62.025    c0-1.491,0-1.491,0-2.995c0-6.629-1.68-13.061-4.871-19.961c-1.556-3.365-3.434-6.784-5.915-10.89    c-1.407-2.329-6.543-10.515-6.545-10.519c-3.337-5.383-5.65-9.432-7.664-13.568c-0.003-0.007-0.007-0.016-0.01-0.023    c0.002,0.005,0.004,0.01,0.006,0.015c-0.007-0.015-0.015-0.03-0.023-0.045l-0.004-0.009c-9.418-19.436-17.954-50.468-22.637-77.92    c-0.041-0.24-0.078-0.475-0.118-0.714c-0.16-0.947-0.318-1.894-0.468-2.832c-0.177-1.103-0.346-2.198-0.509-3.286    c-0.011-0.071-0.022-0.143-0.033-0.213c-1.217-8.141-2.052-15.828-2.422-22.631c-0.013-0.246-0.011-0.489,0.004-0.73    c0.002-0.031,0.006-0.062,0.009-0.094c0.017-0.218,0.043-0.435,0.082-0.649c0.003-0.017,0.007-0.034,0.01-0.05    c0.184-0.952,0.589-1.851,1.191-2.662c0.042-0.055,0.088-0.109,0.132-0.164c0.085-0.108,0.173-0.214,0.265-0.318    c1.164-1.291,2.9-2.319,5.141-2.944c0.203-0.057,0.391-0.127,0.584-0.192c0.611-0.136,1.25-0.242,1.921-0.304    c11.707-1.095,36.171-7.572,52.432-13.593c8.019,23.118,38.881,39.23,74.776,39.23s66.757-16.113,74.776-39.23    c16.26,6.021,40.724,12.499,52.43,13.593c0.672,0.063,1.311,0.168,1.924,0.305c0.192,0.066,0.38,0.136,0.583,0.192    c2.242,0.625,3.978,1.653,5.142,2.945c0.09,0.102,0.176,0.206,0.26,0.311c0.046,0.057,0.094,0.113,0.138,0.171    c0.601,0.81,1.006,1.707,1.19,2.657c0.004,0.019,0.008,0.038,0.011,0.057c0.039,0.211,0.064,0.425,0.081,0.64    c0.002,0.034,0.007,0.067,0.009,0.101c0.015,0.24,0.017,0.483,0.004,0.728c-1.321,24.3-8.581,59.872-17.929,87.111    c-0.005,0.013-0.009,0.026-0.014,0.04c-0.368,1.072-0.74,2.132-1.114,3.177c-0.042,0.116-0.084,0.228-0.126,0.344    c-0.338,0.939-0.677,1.87-1.02,2.785c-0.083,0.222-0.168,0.435-0.251,0.656c-0.303,0.8-0.606,1.598-0.912,2.378    c-0.124,0.316-0.25,0.62-0.374,0.933c-0.267,0.671-0.534,1.344-0.803,1.998c-0.175,0.424-0.351,0.832-0.527,1.249    c-0.221,0.524-0.441,1.056-0.663,1.568c-0.238,0.549-0.478,1.078-0.717,1.613c-0.162,0.361-0.322,0.733-0.484,1.087    c-0.297,0.649-0.596,1.276-0.895,1.903c-0.12,0.251-0.239,0.514-0.359,0.761c-0.008,0.017-0.017,0.034-0.025,0.051    c0.003-0.005,0.004-0.011,0.007-0.016c-0.003,0.007-0.007,0.017-0.011,0.024C360.413,155.008,358.099,159.058,354.762,164.441z     M468.845,81.648c-12.676,9.507-20.48,19.262-20.48,30.293c0.006,0.304,0.006,0.304,0.011,0.53    c0.101,5.241-0.44,12.143-2.149,18.63c-2.64,10.021-6.915,14.974-13.367,14.974h-49.753c0.381-0.969,0.758-1.953,1.134-2.95    c0.007-0.018,0.014-0.037,0.02-0.055c0.386-1.025,0.768-2.065,1.148-3.116c0.097-0.267,0.192-0.539,0.288-0.808    c0.29-0.812,0.579-1.628,0.866-2.454c0.115-0.332,0.229-0.668,0.344-1.002c0.268-0.783,0.535-1.57,0.799-2.364    c0.116-0.347,0.231-0.695,0.346-1.045c0.265-0.804,0.527-1.614,0.788-2.429c0.107-0.335,0.215-0.669,0.321-1.006    c0.28-0.884,0.557-1.775,0.832-2.67c0.081-0.265,0.164-0.528,0.245-0.794c0.344-1.13,0.685-2.268,1.022-3.413    c0.01-0.033,0.019-0.065,0.029-0.098c0.711-2.422,1.402-4.876,2.075-7.352c0.07-0.257,0.138-0.516,0.208-0.774    c0.257-0.954,0.511-1.909,0.762-2.868c0.089-0.341,0.177-0.682,0.265-1.023c0.231-0.891,0.459-1.784,0.684-2.679    c0.09-0.359,0.18-0.718,0.27-1.078c0.223-0.896,0.442-1.792,0.659-2.69c0.084-0.346,0.168-0.692,0.25-1.038    c0.232-0.971,0.46-1.943,0.685-2.916c0.06-0.261,0.122-0.521,0.182-0.782c0.578-2.52,1.133-5.041,1.663-7.557    c0.024-0.113,0.046-0.225,0.07-0.338c0.233-1.112,0.461-2.222,0.684-3.33c0.065-0.324,0.128-0.647,0.192-0.97    c0.179-0.901,0.355-1.801,0.527-2.699c0.073-0.382,0.145-0.762,0.217-1.143c0.16-0.848,0.317-1.693,0.471-2.537    c0.071-0.392,0.142-0.784,0.212-1.175c0.151-0.842,0.297-1.681,0.441-2.518c0.064-0.372,0.129-0.745,0.192-1.116    c0.154-0.91,0.302-1.815,0.448-2.717c0.046-0.283,0.093-0.568,0.138-0.851c0.381-2.395,0.733-4.761,1.054-7.087    c0.03-0.221,0.058-0.439,0.088-0.659c0.125-0.919,0.246-1.832,0.36-2.738c0.044-0.347,0.085-0.69,0.128-1.035    c0.096-0.779,0.189-1.553,0.277-2.321c0.043-0.378,0.085-0.753,0.127-1.128c0.081-0.732,0.159-1.457,0.232-2.178    c0.038-0.375,0.076-0.748,0.113-1.12c0.072-0.734,0.139-1.46,0.203-2.181c0.03-0.335,0.061-0.672,0.089-1.004    c0.067-0.797,0.128-1.582,0.185-2.363c0.018-0.243,0.038-0.49,0.055-0.731c0.072-1.027,0.137-2.041,0.191-3.036    c0.001-0.02,0-0.039,0.001-0.058c0.03-0.573,0.034-1.139,0.024-1.7c-0.003-0.145-0.006-0.289-0.011-0.433    c-0.02-0.58-0.055-1.156-0.116-1.722c0-0.002,0-0.005,0-0.007l17.127,3.302c-0.047,0.004,0.861,0.248,2.156,0.615    c2.191,0.621,4.641,1.356,7.283,2.201c7.536,2.41,15.066,5.203,22.042,8.327c14.14,6.331,23.633,13.094,26.974,18.843    C476.979,75.959,472.793,78.687,468.845,81.648z"/>
	</g>
</g>
<g>
</g>
<g>
</g>
<g>
</g>
<g>
</g>
<g>
</g>
<g>
</g>
<g>
</g>
<g>
</g>
<g>
</g>
<g>
</g>
<g>
</g>
<g>
</g>
<g>
</g>
<g>
</g>
<g>
</g>
</svg>
