<?xml version="1.0" encoding="iso-8859-1"?>
<!-- Generator: Adobe Illustrator 19.0.0, SVG Export Plug-In . SVG Version: 6.00 Build 0)  -->
<svg xmlns="http://www.w3.org/2000/svg" xmlns:xlink="http://www.w3.org/1999/xlink" version="1.1" id="Layer_1" x="0px" y="0px" viewBox="0 0 512.002 512.002" style="enable-background:new 0 0 512.002 512.002;" xml:space="preserve">
<g transform="translate(-1 -1)">
	<g>
		<g>
			<circle cx="257.053" cy="69.264" r="8.533"/>
			<circle cx="257.053" cy="103.397" r="8.533"/>
			<circle cx="257.053" cy="137.531" r="8.533"/>
			<circle cx="257.053" cy="171.664" r="8.533"/>
			<path d="M461.416,450.382c0.095-0.517,0.177-1.025,0.239-1.522c0.012-0.091,0.018-0.178,0.029-0.268     c0.05-0.436,0.095-0.869,0.121-1.288c0.012-0.187,0.013-0.364,0.02-0.547c0.012-0.319,0.029-0.642,0.028-0.951     c-0.001-0.498-0.017-0.982-0.051-1.448c-0.177-54.888-36.71-142.847-91.261-242.658c-0.057-0.103-0.128-0.195-0.188-0.295     c-2.2-4.027-4.394-8.002-6.586-11.932c-18.154-32.562-17.871-72.384,0.769-104.593c1.349-2.34,2.746-4.657,4.218-7.011     c18.158-29.007,2.323-67.115-31.065-74.372C329.044,1.624,321.541,1,316.711,1c-24.165,0-41.964,5.34-54.187,14.507     c-2.107,1.58-3.949,3.185-5.547,4.779c-1.598-1.594-3.44-3.199-5.547-4.779C239.209,6.34,221.409,1,197.244,1     c-4.83,0-12.333,0.624-20.974,2.498c-33.392,7.258-49.227,45.366-31.067,74.376c1.471,2.351,2.867,4.668,4.21,6.997     c18.647,32.22,18.93,72.042,0.775,104.606c-2.246,4.028-4.496,8.103-6.752,12.235c-0.05,0.092-0.083,0.186-0.129,0.279     c-46.629,85.372-80.015,161.937-88.795,216.602c-1.482,9.219-2.286,17.834-2.311,25.741c-0.299,4.028,0.561,9.128,3.336,14.823     c3.934,8.069,11.076,15.78,21.937,22.71c28.913,18.447,81.055,29.737,162.364,31.133c7.077,0.121,9.32-3.638,12.366-12.358     c1.258-3.603,2.131-6.707,4.417-15.317c0.14-0.526,0.274-1.033,0.405-1.52c0.132,0.492,0.269,1.002,0.411,1.533     c2.303,8.618,3.179,11.715,4.445,15.318c3.056,8.698,5.315,12.464,12.381,12.344c81.259-1.404,133.37-12.692,162.269-31.133     c10.86-6.93,18-14.641,21.933-22.709c1.511-3.101,2.438-6.017,2.936-8.685C461.406,450.442,461.411,450.412,461.416,450.382z      M69.288,443.708c0.005-0.573,0.023-1.158,0.037-1.739c0.021-0.863,0.037-1.721,0.078-2.603c0.035-0.753,0.091-1.528,0.139-2.295     c0.057-0.894,0.108-1.784,0.184-2.697c0.066-0.791,0.153-1.602,0.232-2.407c0.091-0.921,0.177-1.836,0.286-2.775     c0.097-0.831,0.216-1.684,0.327-2.529c0.124-0.943,0.242-1.881,0.384-2.842c0.129-0.871,0.279-1.763,0.422-2.648     c0.156-0.966,0.306-1.926,0.479-2.908c0.16-0.91,0.342-1.842,0.517-2.766c0.186-0.986,0.366-1.966,0.569-2.968     c0.193-0.952,0.407-1.926,0.615-2.892c0.215-1.003,0.423-2,0.654-3.018c0.225-0.994,0.473-2.008,0.713-3.016     c0.243-1.02,0.478-2.033,0.736-3.067c0.258-1.036,0.539-2.094,0.813-3.144c0.268-1.032,0.529-2.056,0.812-3.102     c0.291-1.077,0.605-2.174,0.911-3.265c0.295-1.049,0.581-2.091,0.889-3.153c0.322-1.108,0.665-2.237,1.002-3.358     c0.321-1.07,0.633-2.132,0.967-3.214c0.35-1.133,0.722-2.287,1.086-3.433c0.349-1.099,0.69-2.191,1.053-3.303     c0.373-1.143,0.767-2.306,1.154-3.461c0.382-1.141,0.755-2.273,1.15-3.426c0.394-1.15,0.809-2.319,1.216-3.481     c0.414-1.182,0.82-2.357,1.248-3.551c0.411-1.147,0.842-2.312,1.265-3.47c0.451-1.234,0.894-2.461,1.358-3.708     c0.423-1.136,0.867-2.289,1.302-3.435c0.49-1.29,0.971-2.574,1.475-3.876c0.433-1.121,0.887-2.259,1.33-3.389     c0.531-1.351,1.054-2.695,1.599-4.059c0.434-1.085,0.886-2.186,1.329-3.278c0.58-1.431,1.153-2.856,1.749-4.3     c0.429-1.039,0.876-2.094,1.312-3.141c0.633-1.516,1.26-3.028,1.91-4.558c0.414-0.976,0.845-1.965,1.266-2.947     c0.696-1.623,1.387-3.242,2.101-4.881c0.387-0.889,0.79-1.79,1.183-2.683c0.767-1.744,1.531-3.486,2.317-5.246     c0.368-0.823,0.749-1.657,1.121-2.483c0.831-1.847,1.661-3.692,2.513-5.556c0.338-0.739,0.688-1.488,1.03-2.229     c0.905-1.966,1.809-3.933,2.737-5.917c0.297-0.635,0.605-1.28,0.904-1.917c0.986-2.1,1.975-4.203,2.986-6.322     c0.27-0.566,0.55-1.14,0.821-1.707c1.053-2.198,2.109-4.399,3.187-6.617c0.272-0.559,0.553-1.125,0.826-1.685     c1.091-2.235,2.186-4.474,3.302-6.728c0.287-0.579,0.583-1.165,0.871-1.745c1.115-2.244,2.234-4.491,3.373-6.753     c0.37-0.734,0.751-1.477,1.124-2.213c1.067-2.108,2.133-4.217,3.22-6.34c0.821-1.604,1.661-3.221,2.494-4.833     c0.652-1.263,1.295-2.519,1.954-3.787c4.54-8.73,9.243-17.573,14.096-26.51h92.355C244.7,322.188,171.663,414.488,69.288,443.708     z M357.985,214.333c9.723,17.906,18.849,35.438,27.26,52.435c0.017,0.035,0.034,0.069,0.051,0.104     c1.378,2.786,2.738,5.558,4.078,8.315c0.128,0.263,0.251,0.523,0.378,0.786c1.224,2.523,2.436,5.037,3.626,7.535     c0.221,0.463,0.433,0.919,0.652,1.381c1.088,2.29,2.169,4.575,3.228,6.842c0.285,0.611,0.559,1.213,0.842,1.822     c0.981,2.11,1.958,4.217,2.913,6.306c0.32,0.7,0.627,1.389,0.944,2.087c0.902,1.986,1.803,3.97,2.68,5.936     c0.341,0.763,0.668,1.515,1.005,2.275c0.837,1.887,1.673,3.774,2.487,5.641c0.353,0.811,0.692,1.61,1.041,2.418     c0.777,1.799,1.555,3.598,2.31,5.378c0.362,0.852,0.708,1.692,1.064,2.54c0.723,1.72,1.448,3.442,2.149,5.144     c0.36,0.873,0.704,1.733,1.058,2.602c0.676,1.658,1.355,3.317,2.01,4.957c0.354,0.887,0.692,1.759,1.04,2.64     c0.634,1.604,1.27,3.21,1.883,4.796c0.343,0.888,0.669,1.761,1.006,2.644c0.594,1.557,1.191,3.117,1.765,4.656     c0.333,0.893,0.648,1.771,0.974,2.658c0.554,1.507,1.11,3.018,1.643,4.507c0.319,0.892,0.621,1.768,0.932,2.653     c0.515,1.462,1.033,2.927,1.527,4.37c0.304,0.889,0.591,1.762,0.887,2.643c0.477,1.417,0.957,2.838,1.413,4.237     c0.287,0.879,0.555,1.742,0.834,2.614c0.44,1.377,0.883,2.757,1.302,4.115c0.27,0.874,0.521,1.731,0.782,2.597     c0.401,1.331,0.806,2.664,1.186,3.976c0.252,0.868,0.485,1.719,0.728,2.579c0.362,1.284,0.729,2.572,1.07,3.837     c0.232,0.858,0.445,1.699,0.667,2.548c0.325,1.24,0.653,2.484,0.957,3.705c0.211,0.846,0.402,1.674,0.603,2.511     c0.287,1.197,0.578,2.397,0.845,3.574c0.189,0.835,0.358,1.651,0.537,2.476c0.249,1.151,0.502,2.306,0.731,3.437     c0.166,0.822,0.312,1.624,0.467,2.435c0.211,1.107,0.427,2.217,0.618,3.303c0.142,0.807,0.264,1.595,0.394,2.391     c0.174,1.06,0.351,2.123,0.504,3.163c0.117,0.794,0.213,1.568,0.318,2.351c0.136,1.013,0.275,2.029,0.391,3.021     c0.09,0.778,0.16,1.536,0.238,2.302c0.098,0.965,0.2,1.934,0.278,2.88c0.063,0.763,0.105,1.505,0.154,2.255     c0.061,0.916,0.125,1.836,0.166,2.732c0.034,0.748,0.047,1.475,0.067,2.209c0.018,0.681,0.037,1.362,0.043,2.031     c-102.319-29.255-175.306-121.534-178.98-229.347H357.985z M159.67,68.821c-11.913-19.031-1.577-43.907,20.22-48.645     c4.256-0.923,8.483-1.52,12.462-1.851c2.349-0.195,4.049-0.259,4.892-0.259c20.635,0,34.836,4.26,43.947,11.093     c4.915,3.686,7.144,7.029,7.691,8.672c2.593,7.78,13.598,7.78,16.191,0c0.548-1.643,2.776-4.985,7.691-8.672     c9.111-6.833,23.311-11.093,43.947-11.093c0.842,0,2.543,0.063,4.892,0.259c3.979,0.331,8.205,0.928,12.465,1.851     c21.794,4.737,32.13,29.612,20.218,48.641c-1.578,2.523-3.079,5.014-4.528,7.527c-21.548,37.233-21.973,83.204-1.189,120.916     h-91.518c-0.023,0-0.045,0.003-0.068,0.003h-91.6c20.786-37.713,20.361-83.686-1.194-120.931     C162.748,73.832,161.247,71.341,159.67,68.821z M427.351,467.479c-25.282,16.133-73.177,26.705-149.06,28.371     c-0.1-0.267-0.203-0.551-0.308-0.852c-1.059-3.015-1.89-5.953-4.059-14.068c-2.134-7.984-3.198-11.69-4.528-15.366     c-3.034-8.387-5.476-12.297-12.397-12.297c-6.931,0-9.353,3.902-12.376,12.314c-1.321,3.675-2.377,7.375-4.498,15.363     c-2.153,8.108-2.981,11.053-4.034,14.069c-0.103,0.295-0.204,0.575-0.301,0.837c-75.923-1.661-123.843-12.234-149.137-28.372     c-4.218-2.691-7.573-5.402-10.185-8.092c80.219-23.751,143.255-83.828,172.051-159.971v119.716c0,4.713,3.82,8.533,8.533,8.533     c4.713,0,8.533-3.821,8.533-8.533V299.412c28.787,76.118,91.79,136.183,171.97,159.952     C434.941,462.062,431.58,464.78,427.351,467.479z"/>
		</g>
	</g>
</g>
<g>
</g>
<g>
</g>
<g>
</g>
<g>
</g>
<g>
</g>
<g>
</g>
<g>
</g>
<g>
</g>
<g>
</g>
<g>
</g>
<g>
</g>
<g>
</g>
<g>
</g>
<g>
</g>
<g>
</g>
</svg>
