<?xml version="1.0" encoding="iso-8859-1"?>
<!-- Generator: Adobe Illustrator 19.0.0, SVG Export Plug-In . SVG Version: 6.00 Build 0)  -->
<svg xmlns="http://www.w3.org/2000/svg" xmlns:xlink="http://www.w3.org/1999/xlink" version="1.1" id="Layer_1" x="0px" y="0px" viewBox="0 0 511.999 511.999" style="enable-background:new 0 0 511.999 511.999;" xml:space="preserve">
<g transform="translate(0 -1)">
	<g>
		<path d="M437.027,42.14c-2.743-6.329-7.547-12.489-14.76-18.037C403.225,9.455,370.249,1,319.997,1    c-2.42,0-4.725,1.027-6.344,2.826c-2.633,2.927-6.26,8.183-9.796,15.698c-5.247,11.152-8.568,24.009-9.134,38.441    c-14.644,11.048-27.522,24.972-38.722,40.792c-3.674-5.156-7.605-10.234-11.824-15.157c-8.323-9.71-17.288-18.318-26.901-25.604    c-0.563-14.445-3.884-27.312-9.135-38.472c-3.536-7.515-7.162-12.771-9.796-15.698C196.728,2.027,194.422,1,192.002,1    c-50.252,0-83.228,8.455-102.27,23.103c-7.213,5.549-12.018,11.708-14.76,18.037c-1.79,4.132-2.437,7.613-2.437,10.06    c0,4.719,3.83,8.542,8.549,8.533c0.701-0.001,2.121,0.039,4.149,0.164c3.427,0.211,7.256,0.594,11.384,1.192    c11.741,1.701,23.458,4.763,34.303,9.49c23.414,10.205,39.44,26.597,45.49,50.795c0.006,0.025,0.015,0.049,0.022,0.074    c1.227,5.149,2.978,9.952,5.316,14.358c10.624,20.031,13.456,41.225,7.291,59.941c-4.585,13.933-11.662,29.753-21.566,47.574    c-1.364,2.709-2.99,6.865-4.566,12.646c-6.113,22.413-6.113,49.404,3.93,79.531c-0.024,0.065,0.345,1.697,0.865,4.036    c0.869,3.91,1.838,8.37,2.882,13.3c2.984,14.091,5.968,29.112,8.753,44.425c2.558,14.07,4.82,27.701,6.705,40.636    c3.842,26.362,5.957,48.686,5.957,65.57c0,4.713,3.82,8.533,8.533,8.533h51.2h59.733c4.713,0,8.533-3.82,8.533-8.533    c0-16.884,2.115-39.208,5.957-65.57c1.885-12.935,4.147-26.567,6.705-40.636c2.784-15.314,5.769-30.334,8.753-44.425    c1.044-4.93,2.013-9.39,2.882-13.3c0.52-2.339,0.89-3.971,1.085-4.816c9.823-29.348,9.823-56.339,3.71-78.752    c-1.577-5.781-3.203-9.937-4.393-12.317c-10.078-18.15-17.155-33.97-21.739-47.901c-6.165-18.718-3.333-39.912,7.292-59.946    c2.339-4.405,4.089-9.209,5.316-14.358c0.006-0.024,0.015-0.047,0.021-0.071c6.05-24.198,22.075-40.591,45.49-50.795    c10.845-4.727,22.563-7.789,34.303-9.49c4.127-0.598,7.957-0.981,11.384-1.192c2.028-0.125,3.448-0.165,4.156-0.164    c4.713,0.009,8.543-3.814,8.543-8.533C439.464,49.753,438.817,46.272,437.027,42.14z M137.739,55.934    c-12.371-5.392-25.528-8.83-38.675-10.735c-2.12-0.307-4.121-0.56-5.988-0.765c1.634-2.088,3.918-4.386,7.062-6.804    c15.15-11.654,43.273-19.101,87.643-19.543c1.659,2.435,3.336,5.341,4.918,8.703c2.753,5.852,4.872,12.307,6.166,19.358    c-1.01-0.542-2.024-1.068-3.042-1.578c-0.002-0.001-0.004-0.002-0.006-0.003c0,0,0,0-0.001,0    c-0.027-0.014-0.055-0.023-0.082-0.036c-0.256-0.124-0.513-0.239-0.774-0.336c-0.208-0.077-0.418-0.136-0.629-0.196    c-0.081-0.023-0.162-0.055-0.244-0.076c-4.11-1.043-8.513,1.123-10.074,5.271c-0.337,0.894-0.888,2.468-1.583,4.631    c-1.141,3.549-2.278,7.499-3.338,11.761c-0.723,2.907-1.366,5.817-1.944,8.723c-0.016,0.079-0.034,0.158-0.049,0.237    c-0.25,1.265-0.477,2.527-0.697,3.79c-0.047,0.272-0.099,0.545-0.145,0.817c-0.201,1.187-0.381,2.371-0.554,3.554    c-0.034,0.236-0.077,0.473-0.11,0.709C165.86,71.671,153.008,62.588,137.739,55.934z M247.208,472.52    c-1.033,8.393-1.992,15.971-2.853,22.606c-0.036,0.274-35.44,0.806-35.44,0.806c-0.557-16.46-2.636-36.526-5.985-59.499    c-1.916-13.146-4.21-26.972-6.802-41.228c-2.816-15.486-5.831-30.666-8.847-44.908c-1.056-4.987-2.037-9.502-2.918-13.467    c-0.53-2.386-0.91-4.062-1.115-4.951c-9.14-27.541-9.14-51.118-3.875-70.424c1.268-4.649,2.486-7.762,3.192-9.175    c10.234-18.398,17.749-35.196,22.686-50.199c7.72-23.439,4.255-49.366-8.426-73.277c-1.661-3.128-2.924-6.67-3.832-10.556    c-1.031-4.416-1.585-9.278-1.685-14.519c-0.204-10.701,1.454-22.367,4.354-34.031c0.424-1.705,0.861-3.354,1.305-4.939    c2.301,1.431,4.599,2.968,6.907,4.615c0.196,0.14,0.4,0.252,0.602,0.373c9.533,6.878,18.457,15.288,26.745,24.956    c6.464,7.542,12.252,15.504,17.357,23.571c0.07,0.125,0.125,0.256,0.202,0.379c3.571,5.669,6.643,11.106,9.208,16.107    c1.518,2.959,2.514,5.082,2.983,6.163c0.148,0.296,0.293,0.603,0.436,0.921c8.332,18.558,8.986,74.136,3.422,153.838    c-0.48,6.874-1.006,13.928-1.577,21.153c-2.002,25.317-4.501,52.06-7.383,79.637C253.114,422.844,250.161,448.537,247.208,472.52z     M329.505,252.427c0.715,1.474,1.895,4.534,3.121,9.029c5.265,19.305,5.265,42.883-3.655,69.644    c-0.424,1.668-0.805,3.345-1.335,5.731c-0.881,3.965-1.862,8.48-2.918,13.467c-3.016,14.242-6.032,29.422-8.847,44.908    c-2.592,14.256-4.886,28.082-6.802,41.228c-3.348,22.972-5.428,43.039-5.985,59.499H261.46c0.026-0.198,0.052-0.403,0.078-0.603    c0.051-0.393,0.102-0.79,0.153-1.189c0.054-0.423,0.109-0.85,0.164-1.28c0.054-0.419,0.108-0.84,0.162-1.265    c0.063-0.491,0.126-0.989,0.19-1.489c0.046-0.364,0.093-0.728,0.14-1.097c0.064-0.501,0.128-1.008,0.192-1.516    c0.054-0.425,0.107-0.848,0.162-1.278c0.068-0.541,0.137-1.091,0.206-1.64c0.045-0.358,0.09-0.712,0.135-1.073    c0.073-0.581,0.147-1.172,0.22-1.762c0.05-0.401,0.1-0.798,0.15-1.203c0.081-0.652,0.164-1.315,0.246-1.978    c0.038-0.303,0.075-0.601,0.113-0.906c0.124-1.004,0.25-2.019,0.376-3.047c2.965-24.082,5.929-49.877,8.696-76.357    c2.896-27.711,5.407-54.595,7.422-80.065c7.67-96.969,7.559-161.684-3.833-184.468c-0.168-0.43-0.876-1.978-1.913-4.095    c-1.697-3.465-3.725-7.31-6.086-11.441c-0.759-1.327-1.54-2.655-2.332-3.981c11.7-17.647,25.457-32.949,41.208-44.316    c0.276-0.155,0.551-0.316,0.817-0.506c2.308-1.647,4.606-3.184,6.907-4.615c0.444,1.585,0.881,3.234,1.305,4.939    c2.9,11.663,4.557,23.33,4.354,34.031c-0.1,5.242-0.654,10.104-1.685,14.521c-0.908,3.885-2.171,7.425-3.83,10.551    c-12.683,23.914-16.148,49.841-8.427,73.282C311.669,217.037,319.151,233.775,329.505,252.427z M412.935,45.199    c-13.147,1.904-26.304,5.343-38.675,10.735c-15.268,6.654-28.121,15.738-37.854,27.481c-0.033-0.236-0.076-0.473-0.11-0.709    c-0.173-1.183-0.353-2.367-0.554-3.554c-0.046-0.272-0.098-0.545-0.145-0.817c-0.22-1.262-0.447-2.525-0.696-3.789    c-0.016-0.08-0.034-0.16-0.05-0.24c-0.578-2.905-1.22-5.814-1.943-8.72c-1.06-4.262-2.197-8.212-3.338-11.761    c-0.695-2.162-1.247-3.736-1.583-4.631c-1.561-4.147-5.964-6.314-10.074-5.271c-0.082,0.021-0.162,0.053-0.244,0.076    c-0.21,0.06-0.421,0.119-0.629,0.196c-0.261,0.097-0.518,0.212-0.774,0.336c-0.027,0.013-0.055,0.022-0.082,0.036c0,0,0,0-0.001,0    c-0.002,0.001-0.004,0.002-0.006,0.003c-1.018,0.51-2.032,1.036-3.042,1.578c1.295-7.055,3.414-13.508,6.166-19.358    c1.582-3.361,3.259-6.267,4.918-8.703c44.37,0.442,72.493,7.889,87.643,19.543c3.152,2.424,5.44,4.727,7.062,6.804    C417.056,44.639,415.055,44.892,412.935,45.199z"/>
	</g>
</g>
<g>
</g>
<g>
</g>
<g>
</g>
<g>
</g>
<g>
</g>
<g>
</g>
<g>
</g>
<g>
</g>
<g>
</g>
<g>
</g>
<g>
</g>
<g>
</g>
<g>
</g>
<g>
</g>
<g>
</g>
</svg>
