<?xml version="1.0" encoding="iso-8859-1"?>
<!-- Generator: Adobe Illustrator 19.0.0, SVG Export Plug-In . SVG Version: 6.00 Build 0)  -->
<svg xmlns="http://www.w3.org/2000/svg" xmlns:xlink="http://www.w3.org/1999/xlink" version="1.1" id="Layer_1" x="0px" y="0px" viewBox="0 0 512.002 512.002" style="enable-background:new 0 0 512.002 512.002;" xml:space="preserve">
<g transform="translate(0 -1)">
	<g>
		<g>
			<path d="M138.977,246.114c2.471,2.84,6.623,6.398,12.614,9.836c24.426,14.015,59.086,14.362,104.412-6.647     c45.326,21.008,79.985,20.661,104.412,6.647c5.991-3.438,10.143-6.996,12.614-9.836c23.777-18.996,24.043-72.185,11.019-161.017     c-0.12-0.816-0.357-1.558-0.659-2.249c-1.852-10.602-4.055-21.43-6.658-32.957c-2.527-11.188-9.851-41.003-10.15-42.288     c-1.067-4.59-5.654-7.446-10.244-6.379s-7.446,5.654-6.379,10.244c0.336,1.445,7.643,31.189,10.126,42.183     c2.503,11.084,4.622,21.479,6.404,31.622c-7.517,13.088-32.9,56.147-46.876,76.424c-22.177,32.174-43.577,55.846-63.607,68.404     c-20.03-12.559-41.43-36.231-63.607-68.404c-14.108-20.468-39.838-64.148-47.083-76.784c1.768-10.029,3.867-20.309,6.341-31.261     c2.483-10.994,9.79-40.738,10.126-42.183c1.067-4.59-1.789-9.177-6.379-10.244s-9.177,1.789-10.244,6.379     c-0.299,1.285-7.624,31.101-10.15,42.288c-2.771,12.27-5.094,23.751-7.017,35.008c-0.007,0.042-0.008,0.084-0.015,0.126     c-0.004,0.025-0.013,0.048-0.016,0.073C114.933,173.929,115.199,227.118,138.977,246.114z M333.662,171.382     c10.196-14.793,25.948-40.774,36.841-59.178c8.281,66.969,6.378,109.742-8.542,120.898c-0.595,0.445-1.129,0.966-1.59,1.549     c-1.059,1.343-3.829,3.845-8.45,6.496c-17.677,10.142-43.136,11.307-78.019-2.676C293.504,223.74,313.34,200.864,333.662,171.382     z M141.503,112.204c10.893,18.404,26.644,44.386,36.841,59.178c20.322,29.482,40.158,52.359,59.76,67.089     c-34.883,13.983-60.342,12.818-78.019,2.676c-4.621-2.651-7.391-5.154-8.45-6.496c-0.46-0.583-0.995-1.104-1.59-1.549     C135.125,221.945,133.221,179.173,141.503,112.204z"/>
			<path d="M382.403,350.995c-62.308,10.853-105.331,16.94-126.536,16.94s-64.228-6.087-126.536-16.94     c-5.22-0.909-9.998,3.108-9.998,8.407v34.133c0,4.713,3.82,8.533,8.533,8.533c30.944,0,56.788,19.085,77.764,51.563     c7.526,11.653,13.849,24.195,18.989,36.739c1.798,4.389,3.318,8.457,4.563,12.095c0.735,2.147,1.208,3.648,1.425,4.393     c1.062,3.641,4.399,6.144,8.192,6.144h34.133c3.793,0,7.13-2.503,8.192-6.144c0.217-0.745,0.69-2.245,1.425-4.393     c1.245-3.638,2.764-7.706,4.563-12.095c5.14-12.545,11.463-25.086,18.989-36.739c20.976-32.478,46.82-51.563,77.764-51.563     c4.713,0,8.533-3.82,8.533-8.533v-34.133C392.401,354.104,387.623,350.086,382.403,350.995z M375.334,385.392     c-33.893,3.132-61.582,24.939-83.567,58.98c-8.146,12.613-14.932,26.072-20.445,39.528c-1.768,4.315-3.29,8.355-4.571,12.035     h-21.767c-1.281-3.681-2.803-7.72-4.571-12.035c-5.513-13.455-12.299-26.914-20.445-39.528     c-21.985-34.041-49.675-55.848-83.567-58.98v-15.854c58.061,9.967,98.057,15.464,119.467,15.464s61.406-5.497,119.467-15.464     V385.392z"/>
		</g>
	</g>
</g>
<g>
</g>
<g>
</g>
<g>
</g>
<g>
</g>
<g>
</g>
<g>
</g>
<g>
</g>
<g>
</g>
<g>
</g>
<g>
</g>
<g>
</g>
<g>
</g>
<g>
</g>
<g>
</g>
<g>
</g>
</svg>
