<?xml version="1.0" encoding="iso-8859-1"?>
<!-- Generator: Adobe Illustrator 19.0.0, SVG Export Plug-In . SVG Version: 6.00 Build 0)  -->
<svg xmlns="http://www.w3.org/2000/svg" xmlns:xlink="http://www.w3.org/1999/xlink" version="1.1" id="Layer_1" x="0px" y="0px" viewBox="0 0 512.096 512.096" style="enable-background:new 0 0 512.096 512.096;" xml:space="preserve">
<g transform="translate(0 -1)">
	<g>
		<path d="M392.15,64.612c-2.609-37.7-16.903-57.574-37.511-62.799c-7.747-1.967-15.945-0.301-22.626,4.331    c-6.767,4.694-17.548,8.072-31.123,10.064c-13.609,1.996-28.135,2.417-40.913,1.934c-1.641-0.062-2.788-0.123-3.362-0.161h-1.135    c-0.574,0.038-1.721,0.099-3.362,0.161c-12.779,0.483-27.304,0.063-40.913-1.934c-13.575-1.991-24.356-5.369-31.121-10.062    c-6.669-4.632-14.879-6.3-22.631-4.331c-20.605,5.224-34.899,25.098-37.508,62.799c-0.832,12.17,3.134,24.249,11.056,33.372    c7.648,8.818,17.959,16.995,31.291,23.98c11.696,6.125,20.261,15.589,23.884,26.758c2.242,6.905,3.096,13.927,2.343,21.07    c-0.115,0.511-0.18,1.039-0.199,1.58c-0.974,7.016-3.502,14.146-7.855,21.398c-1.502,2.502-1.621,5.598-0.316,8.208    c1.412,2.824,4.358,5.967,9.189,8.985c-5.087,6.551-10.265,14.897-15.123,25.217c-10.808,22.963-17.948,51.62-19.983,86.489    c-0.063,1.095-0.098,2.196-0.133,3.296c-0.004,0.101-0.015,0.201-0.015,0.303c0,0.011,0.002,0.022,0.002,0.034    c-0.308,10.566,0.668,21.383,2.855,32.432c1.241,6.279,2.312,12.558,3.199,18.808c0.006,0.721,0.108,1.417,0.283,2.085    c2.157,15.926,3.096,31.638,2.518,46.63c-0.225,0.765-0.351,1.573-0.351,2.412c0,0.551,0.057,1.088,0.156,1.61    c-1.338,23.307-6.458,44.732-16.507,62.316c-2.642,4.624-0.451,10.512,4.572,12.282c0.912,0.321,2.525,0.844,4.767,1.5    c3.666,1.072,7.813,2.14,12.369,3.134c23.381,5.102,47.742,6.415,70.789,1.541c5.976-1.264,11.754-2.936,17.311-5.041    c5.557,2.105,11.335,3.777,17.311,5.041c23.048,4.874,47.408,3.561,70.789-1.541c4.556-0.994,8.703-2.062,12.369-3.134    c2.242-0.656,3.855-1.178,4.767-1.5c5.022-1.77,7.214-7.657,4.573-12.281c-10.046-17.584-15.164-39.011-16.501-62.319    c0.099-0.521,0.156-1.058,0.156-1.608c0-0.837-0.126-1.645-0.351-2.409c-0.578-14.993,0.361-30.705,2.519-46.632    c0.174-0.667,0.276-1.364,0.282-2.084c0.887-6.251,1.959-12.531,3.2-18.81c2.185-11.045,3.161-21.851,2.849-32.401    c0-0.021,0.003-0.042,0.003-0.063c0-0.208-0.017-0.412-0.031-0.616c-0.035-0.996-0.065-1.993-0.123-2.985    c-2.031-34.867-9.168-63.525-19.975-86.487c-4.857-10.32-10.036-18.667-15.123-25.219c4.829-3.018,7.774-6.16,9.186-8.983    c1.305-2.609,1.186-5.704-0.314-8.205c-4.438-7.4-6.986-14.675-7.915-21.828c-0.022-0.26-0.057-0.516-0.102-0.769    c-0.828-7.276,0.024-14.426,2.305-21.451c3.624-11.172,12.188-20.636,23.883-26.76c13.343-6.99,23.668-15.177,31.3-23.989    C389.022,88.855,392.992,76.771,392.15,64.612z M161.649,18.356c2.83-0.719,5.986-0.078,8.702,1.809    c9.363,6.495,22.428,10.589,38.377,12.928c14.814,2.173,30.303,2.622,44.035,2.102c1.411-0.053,2.518-0.107,3.284-0.152    c0.766,0.044,1.873,0.098,3.284,0.152c13.733,0.52,29.222,0.071,44.035-2.102c15.949-2.339,29.013-6.433,38.372-12.925    c2.726-1.89,5.877-2.53,8.703-1.813c12.203,3.094,21.449,15.176,24.246,42.379H137.406    C140.202,33.533,149.448,21.449,161.649,18.356z M335.994,367.934H176.105c-0.724-4.497-1.532-9.004-2.423-13.512    c-1.39-7.024-2.224-13.899-2.494-20.622h169.721c-0.267,6.719-1.101,13.593-2.491,20.62    C337.526,358.929,336.717,363.436,335.994,367.934z M171.673,316.734c0.952-12.275,2.587-23.637,4.818-34.133h159.114    c2.229,10.496,3.864,21.858,4.814,34.133H171.673z M178.423,385.001h155.253c-1.278,11.562-1.917,22.986-1.808,34.133H180.229    C180.339,407.987,179.7,396.562,178.423,385.001z M180.869,265.534c2.527-8.336,5.468-16.034,8.787-23.087    c5.3-11.261,10.882-19.647,15.998-25.477c6.189,1.83,13.366,3.263,21.609,4.244c0.148,0.018,0.293,0.037,0.443,0.054    c0.79,0.092,1.595,0.178,2.405,0.261c0.442,0.046,0.885,0.091,1.333,0.134c0.729,0.07,1.462,0.139,2.207,0.203    c0.604,0.052,1.22,0.099,1.835,0.147c0.645,0.05,1.282,0.102,1.938,0.147c1.23,0.084,2.48,0.159,3.75,0.226    c0.494,0.026,1.002,0.046,1.503,0.069c0.92,0.043,1.847,0.083,2.788,0.117c0.532,0.019,1.07,0.036,1.609,0.052    c0.989,0.03,1.99,0.054,3.001,0.073c0.476,0.009,0.948,0.02,1.429,0.027c1.492,0.022,3.001,0.036,4.542,0.036c0,0,0.001,0,0.001,0    c0,0,0,0,0.001,0c0.002,0,0.004,0,0.006,0c1.537,0,3.043-0.014,4.532-0.036c0.488-0.007,0.968-0.018,1.451-0.027    c1-0.019,1.991-0.043,2.969-0.072c0.548-0.016,1.093-0.033,1.634-0.053c0.928-0.033,1.842-0.073,2.75-0.115    c0.513-0.024,1.034-0.044,1.541-0.071c1.262-0.066,2.505-0.141,3.727-0.225c0.676-0.046,1.332-0.1,1.996-0.151    c0.595-0.046,1.192-0.092,1.777-0.142c0.755-0.065,1.499-0.134,2.238-0.206c0.436-0.042,0.868-0.086,1.298-0.131    c0.817-0.084,1.629-0.171,2.427-0.264c0.143-0.017,0.283-0.035,0.425-0.052c3.009-0.358,5.875-0.777,8.605-1.253    c0.011-0.002,0.023-0.004,0.034-0.006c4.74-0.827,9.062-1.828,12.987-2.989c5.116,5.83,10.698,14.216,15.998,25.478    c3.319,7.053,6.259,14.751,8.786,23.087H180.869z M308.104,180.201c1.233,5.108,3.077,10.235,5.614,15.359    c-1.136,0.673-2.645,1.466-4.603,2.337c-0.997,0.443-2.068,0.865-3.176,1.277c-6.88,2.531-15.784,4.433-26.934,5.511    c-0.118,0.011-0.235,0.023-0.354,0.034c-0.941,0.089-1.903,0.171-2.876,0.248c-0.3,0.024-0.601,0.047-0.905,0.069    c-0.855,0.064-1.721,0.124-2.6,0.179c-0.456,0.028-0.919,0.054-1.382,0.08c-0.778,0.044-1.561,0.086-2.358,0.122    c-0.614,0.028-1.242,0.051-1.867,0.075c-0.692,0.026-1.382,0.054-2.088,0.076c-0.817,0.024-1.654,0.041-2.49,0.058    c-0.559,0.012-1.108,0.027-1.676,0.035c-1.423,0.021-2.868,0.033-4.345,0.033c-0.006,0-0.012,0-0.017,0    c-1.485,0-2.939-0.012-4.37-0.033c-0.551-0.008-1.083-0.023-1.626-0.034c-0.852-0.017-1.705-0.034-2.538-0.059    c-0.694-0.021-1.371-0.048-2.051-0.074c-0.64-0.024-1.282-0.048-1.91-0.077c-0.782-0.036-1.55-0.077-2.314-0.12    c-0.479-0.027-0.958-0.053-1.43-0.083c-0.866-0.054-1.721-0.113-2.564-0.176c-0.315-0.023-0.628-0.047-0.939-0.072    c-0.961-0.077-1.911-0.157-2.841-0.245c-0.132-0.012-0.263-0.026-0.395-0.038c-11.141-1.079-20.036-2.98-26.914-5.511    c-0.007-0.003-0.015-0.004-0.022-0.006c-1.1-0.409-2.163-0.828-3.153-1.268c-1.957-0.87-3.466-1.663-4.602-2.336    c2.539-5.125,4.383-10.252,5.617-15.36H308.104z M309.686,143.456c-2.093,6.445-3.262,13.022-3.426,19.678H205.836    c-0.165-6.655-1.335-13.233-3.429-19.681c-1.668-5.142-4.061-9.978-7.056-14.453h121.391    C313.747,133.475,311.354,138.312,309.686,143.456z M340.507,491.834c-21.219,4.63-43.28,5.819-63.62,1.518    c-6.151-1.301-12.015-3.092-17.561-5.402c-2.1-0.875-4.462-0.875-6.563,0c-5.546,2.31-11.41,4.102-17.561,5.402    c-20.34,4.301-42.401,3.112-63.62-1.518c-1.962-0.428-3.838-0.87-5.618-1.319c7.557-16.385,11.828-34.774,13.478-54.315h153.211    c1.649,19.54,5.919,37.93,13.473,54.314C344.346,490.964,342.47,491.406,340.507,491.834z M341.883,106.846    c-2.922,1.53-5.707,3.232-8.338,5.088H178.548c-2.631-1.857-5.416-3.559-8.339-5.089c-11.436-5.992-20.062-12.832-26.321-20.048    c-2.294-2.642-4.056-5.705-5.24-8.996h234.8c-1.184,3.289-2.945,6.351-5.24,8.993C361.966,94.001,353.329,100.849,341.883,106.846    z"/>
	</g>
</g>
<g>
</g>
<g>
</g>
<g>
</g>
<g>
</g>
<g>
</g>
<g>
</g>
<g>
</g>
<g>
</g>
<g>
</g>
<g>
</g>
<g>
</g>
<g>
</g>
<g>
</g>
<g>
</g>
<g>
</g>
</svg>
