<?xml version="1.0" encoding="iso-8859-1"?>
<!-- Generator: Adobe Illustrator 19.0.0, SVG Export Plug-In . SVG Version: 6.00 Build 0)  -->
<svg xmlns="http://www.w3.org/2000/svg" xmlns:xlink="http://www.w3.org/1999/xlink" version="1.1" id="Layer_1" x="0px" y="0px" viewBox="0 0 504.437 504.437" style="enable-background:new 0 0 504.437 504.437;" xml:space="preserve">
<g transform="translate(0 -1)">
	<g>
		<path d="M483.982,472.168c-60.237-60.23-110.446-147.192-148.713-238.475c-0.077-0.183-0.139-0.371-0.214-0.554    c-0.084-0.32-0.181-0.64-0.305-0.958c-3.731-9.607-4.888-19.973-3.473-30.404c0.046-0.336,0.07-0.67,0.077-1.001    c1.025-6.783,3.128-13.533,6.29-20.021c8.515-17.482,10.956-34.745,10.124-48.707c-0.249-14.946-7.527-34.251-20.306-58.592    c-3.445-6.561-7.244-13.385-11.34-20.407c-6.728-11.533-13.925-23.049-21.122-34.016c-2.519-3.839-4.86-7.336-6.962-10.426    c-1.268-1.863-2.179-3.182-2.675-3.891c-4.866-6.951-15.787-3.508-15.787,4.977c0,52.289-4.765,88.818-12.572,112.239    c-1.577,4.73-3.189,8.64-4.784,11.809c-1.596-3.169-3.208-7.079-4.784-11.809c-7.807-23.421-12.572-59.949-12.572-112.239    c0-8.485-10.922-11.927-15.787-4.977c-0.496,0.708-1.407,2.028-2.675,3.891c-2.103,3.09-4.443,6.588-6.962,10.426    c-7.197,10.967-14.394,22.482-21.122,34.016c-4.096,7.022-7.895,13.845-11.34,20.407c-12.778,24.34-20.057,43.644-20.212,57.285    c-0.93,15.276,1.509,32.536,10.02,50.011c3.169,6.502,5.274,13.267,6.296,20.065c0.008,0.317,0.033,0.636,0.077,0.958    c1.413,10.418,0.254,20.788-3.475,30.409c-0.112,0.29-0.197,0.581-0.277,0.873c-0.085,0.211-0.157,0.425-0.245,0.635    c-38.227,91.221-88.468,178.239-148.704,238.475c-2.641,2.641-3.296,6.676-1.626,10.017c1.769,3.538,5.517,8.119,11.817,12.45    c19.256,13.239,49.955,15.31,94.147,0.58c0.596-0.199,1.831-0.58,3.622-1.084c3.044-0.856,6.483-1.716,10.234-2.52    c13.999-3,28.208-4.389,41.254-3.302c3.684,0.307,7.214,0.812,10.57,1.522c18.326,3.878,33.041,5.829,47.564,5.829h28.36    c14.52,0,29.219-1.949,47.563-5.828c3.357-0.71,6.887-1.215,10.571-1.522c13.046-1.088,27.255,0.302,41.254,3.302    c3.751,0.804,7.19,1.664,10.234,2.52c1.791,0.504,3.026,0.885,3.622,1.084c44.192,14.731,74.891,12.659,94.147-0.58    c6.3-4.331,10.048-8.912,11.817-12.45C487.278,478.844,486.623,474.809,483.982,472.168z M191.15,209.288h122.129    c-0.079,5.837,0.483,11.653,1.692,17.356H189.458C190.667,220.941,191.228,215.126,191.15,209.288z M173.994,133.089    c0.031-0.526,0.123-1.904,0.123-1.904c0-9.929,6.584-27.487,18.226-49.661c3.318-6.32,6.993-12.92,10.965-19.729    c4.709-8.072,9.665-16.154,14.691-24.04c1.451,39.529,6.054,68.914,12.971,89.665c3.097,9.29,6.505,16.333,10.047,21.45    c2.44,3.524,4.642,5.727,6.389,6.891c2.915,1.943,6.712,1.943,9.627,0c1.747-1.164,3.95-3.367,6.389-6.891    c3.542-5.117,6.95-12.16,10.047-21.45c6.917-20.751,11.519-50.136,12.971-89.665c5.026,7.886,9.982,15.967,14.691,24.04    c3.972,6.809,7.647,13.409,10.965,19.729c11.642,22.175,18.226,39.732,18.226,49.661c0.064,1.054,0.091,1.372,0.122,1.895    c0.232,3.891,0.084,8.957-0.742,14.796c-1.206,8.53-3.667,17.08-7.66,25.277c-2.968,6.088-5.194,12.39-6.662,18.779H189.049    c-1.468-6.39-3.695-12.692-6.663-18.781c-3.99-8.191-6.449-16.737-7.654-25.264C173.908,142.049,173.761,136.983,173.994,133.089z     M463.958,480.334c-10.821,7.439-27.78,10.223-52.389,5.493c-26.112-18.26-55.221-65.673-55.221-94.301    c0-4.793-3.885-8.678-8.678-8.678s-8.678,3.885-8.678,8.678c0,25.179,16.875,59.642,37.771,84.842    c-2.309-0.591-4.75-1.172-7.34-1.727c-15.531-3.328-31.355-4.876-46.333-3.627c-1.073,0.089-2.137,0.194-3.193,0.313    c-0.186-0.668-0.38-1.359-0.591-2.106c-0.549-1.942-0.549-1.942-1.088-3.847c-0.41-1.454-0.737-2.628-1.043-3.752    c-2.937-10.774-4.218-18.214-4.218-26.703c0-4.793-3.885-8.678-8.678-8.678s-8.678,3.885-8.678,8.678    c0,10.297,1.522,19.134,4.829,31.267c0.321,1.179,0.661,2.398,1.083,3.896c0.546,1.932,0.546,1.932,1.09,3.854    c0.044,0.157,0.084,0.299,0.127,0.452c-13.747,2.618-25.213,3.918-36.333,3.918h-28.36c-6.666,0-13.458-0.468-20.787-1.404    c0.464-1.508,1.014-3.272,1.692-5.433c5.262-16.794,7.238-25.493,7.238-36.555c0-4.793-3.885-8.678-8.678-8.678    s-8.678,3.885-8.678,8.678c0,8.749-1.693,16.203-6.444,31.366c-1.043,3.328-1.802,5.771-2.408,7.777    c-1.924-0.377-3.888-0.776-5.906-1.203c-4.089-0.865-8.335-1.472-12.721-1.838c-14.978-1.249-30.802,0.299-46.333,3.627    c-1.613,0.346-3.16,0.703-4.667,1.065c23.855-25.709,43.767-59.77,43.767-84.18c0-4.793-3.885-8.678-8.678-8.678    s-8.678,3.885-8.678,8.678c0,26.739-34.352,73.949-63.884,94.3c-24.612,4.731-41.573,1.948-52.395-5.492    c-0.798-0.549-1.511-1.086-2.145-1.601C97.203,417.713,145.999,332.998,183.642,244h137.145    c37.68,89.055,86.447,173.721,145.316,234.732C465.469,479.248,464.756,479.785,463.958,480.334z"/>
	</g>
</g>
<g>
</g>
<g>
</g>
<g>
</g>
<g>
</g>
<g>
</g>
<g>
</g>
<g>
</g>
<g>
</g>
<g>
</g>
<g>
</g>
<g>
</g>
<g>
</g>
<g>
</g>
<g>
</g>
<g>
</g>
</svg>
