<?xml version="1.0" encoding="iso-8859-1"?>
<!-- Generator: Adobe Illustrator 19.0.0, SVG Export Plug-In . SVG Version: 6.00 Build 0)  -->
<svg xmlns="http://www.w3.org/2000/svg" xmlns:xlink="http://www.w3.org/1999/xlink" version="1.1" id="Layer_1" x="0px" y="0px" viewBox="0 0 512.016 512.016" style="enable-background:new 0 0 512.016 512.016;" xml:space="preserve">
<g transform="translate(0 -1)">
	<g>
		<g>
			<path d="M418.091,442.927c-0.722-13.948-10.247-25.445-22.982-30.094c4.086-5.961,6.327-13.275,5.915-21.106     c-0.722-13.948-10.247-25.445-22.982-30.094c4.086-5.96,6.327-13.275,5.915-21.106c-0.722-13.948-10.247-25.445-22.982-30.094     c4.086-5.96,6.327-13.275,5.915-21.106c-0.722-13.948-10.247-25.445-22.982-30.094c4.086-5.96,6.327-13.275,5.915-21.106     c-0.784-15.151-10.939-27.28-24.799-31.069c1.169-5.285,3.828-10.689,8.814-19.16c0.493-0.838,0.493-0.838,0.991-1.685     c2.358-4.018,3.793-6.598,5.179-9.442c8.373-17.185,10.773-34.162,9.956-47.895c-0.031-0.513-0.063-0.942-0.093-1.284     c-0.152-13.366-7.256-32.144-19.732-55.748c-3.43-6.489-7.221-13.24-11.313-20.187c-6.617-11.235-13.697-22.444-20.775-33.113     c-2.478-3.735-4.78-7.137-6.848-10.142c-1.247-1.812-2.144-3.095-2.632-3.784c-4.808-6.789-15.497-3.387-15.497,4.932     c0,51.418-4.685,87.337-12.362,110.368c-1.55,4.651-3.135,8.496-4.705,11.613c-1.569-3.117-3.154-6.961-4.705-11.613     c-7.677-23.031-12.362-58.95-12.362-110.368c0-8.319-10.689-11.721-15.497-4.932c-0.488,0.689-1.385,1.972-2.632,3.784     c-2.068,3.005-4.37,6.407-6.848,10.142c-7.079,10.669-14.158,21.879-20.775,33.113c-4.092,6.947-7.883,13.697-11.313,20.187     c-12.476,23.604-19.581,42.382-19.732,55.748c-0.03,0.342-0.062,0.771-0.093,1.284c-0.818,13.733,1.583,30.71,9.955,47.893     c1.387,2.845,2.822,5.426,5.18,9.444c0.498,0.848,0.498,0.848,0.991,1.685c4.986,8.472,7.645,13.876,8.814,19.161     c-13.859,3.789-24.008,15.914-24.802,31.071c-0.412,7.83,1.829,15.145,5.916,21.105c-12.73,4.648-22.252,16.144-22.982,30.095     c-0.412,7.83,1.829,15.145,5.916,21.105c-12.73,4.648-22.252,16.144-22.982,30.095c-0.412,7.83,1.829,15.145,5.916,21.105     c-12.73,4.648-22.252,16.144-22.982,30.095c-0.412,7.83,1.829,15.145,5.916,21.105c-12.73,4.648-22.252,16.144-22.982,30.095     c-0.888,16.88,10.553,31.362,26.234,35.048c3.596,19.924,21.027,35.039,41.987,35.039h187.733     c20.96,0,38.391-15.116,41.987-35.04C407.541,474.289,418.979,459.807,418.091,442.927z M179.09,129.89     c0.031-0.514,0.058-0.827,0.068-0.922l0.052-0.941c0-9.706,6.409-26.738,17.757-48.208c3.3-6.244,6.964-12.768,10.929-19.5     c4.633-7.866,9.51-15.737,14.455-23.414c1.417,38.991,5.948,67.963,12.763,88.41c3.045,9.135,6.396,16.061,9.879,21.092     c2.399,3.465,4.565,5.631,6.283,6.776c2.866,1.911,6.601,1.911,9.467,0c1.718-1.145,3.884-3.311,6.283-6.776     c3.483-5.031,6.834-11.957,9.879-21.092c6.816-20.447,11.346-49.419,12.763-88.41c4.945,7.677,9.822,15.548,14.455,23.414     c3.965,6.732,7.629,13.256,10.929,19.5c11.348,21.469,17.757,38.502,17.757,48.208l0.052,0.941     c0.011,0.095,0.038,0.408,0.068,0.922c0.228,3.828,0.083,8.81-0.729,14.552c-1.186,8.388-3.606,16.794-7.531,24.851     c-1.145,2.348-2.404,4.614-4.556,8.279c-0.487,0.829-0.487,0.829-0.982,1.669c-6.522,11.082-9.977,18.4-11.289,26.575H204.177     c-1.312-8.175-4.767-15.493-11.289-26.575c-0.495-0.84-0.495-0.84-0.982-1.669c-2.152-3.665-3.411-5.931-4.557-8.281     c-3.925-8.055-6.345-16.461-7.531-24.849C179.007,138.7,178.862,133.717,179.09,129.89z M384.012,461.816     c-4.713,0-8.533,3.82-8.533,8.533c0,14.137-11.463,25.6-25.6,25.6H162.146c-14.137,0-25.6-11.463-25.6-25.6     c0-4.713-3.82-8.533-8.533-8.533c-9.776,0-17.561-8.176-17.044-17.992c0.466-8.89,8.728-16.141,18.486-16.141h15.625     c11.378,0,11.378-17.067,0-17.067c-9.776,0-17.561-8.176-17.044-17.992c0.466-8.89,8.728-16.141,18.486-16.141h15.625     c11.378,0,11.378-17.067,0-17.067c-9.776,0-17.561-8.176-17.044-17.992c0.466-8.89,8.728-16.141,18.486-16.141h15.625     c11.378,0,11.378-17.067,0-17.067c-9.776,0-17.561-8.176-17.044-17.992c0.466-8.89,8.728-16.141,18.486-16.141h15.625     c11.378,0,11.378-17.067,0-17.067c-9.776,0-17.561-8.176-17.044-17.992c0.487-9.306,7.705-16.141,17.044-16.141h119.464h0.003     c9.334,0,16.554,6.837,17.035,16.134c0.517,9.822-7.267,17.999-17.035,17.999c-11.378,0-11.378,17.067,0,17.067h15.616     c9.76,0,18.026,7.252,18.486,16.134c0.517,9.822-7.267,18-17.035,18c-11.378,0-11.378,17.067,0,17.067h15.616     c9.76,0,18.026,7.252,18.486,16.134c0.517,9.822-7.267,17.999-17.035,17.999c-11.378,0-11.378,17.067,0,17.067h15.616     c9.76,0,18.026,7.252,18.486,16.134c0.517,9.822-7.267,17.999-17.035,17.999c-11.378,0-11.378,17.067,0,17.067h15.616     c9.76,0,18.026,7.252,18.486,16.134C401.564,453.639,393.781,461.816,384.012,461.816z"/>
			<path d="M256.01,410.616h-76.8c-4.713,0-8.533,3.82-8.533,8.533s3.82,8.533,8.533,8.533h76.8c4.713,0,8.533-3.821,8.533-8.533     S260.723,410.616,256.01,410.616z"/>
			<path d="M204.81,376.483h110.933c4.713,0,8.533-3.82,8.533-8.533s-3.82-8.533-8.533-8.533H204.81     c-4.713,0-8.533,3.821-8.533,8.533S200.097,376.483,204.81,376.483z"/>
			<path d="M221.876,325.283h68.267c4.713,0,8.533-3.82,8.533-8.533s-3.821-8.533-8.533-8.533h-68.267     c-4.713,0-8.533,3.82-8.533,8.533S217.164,325.283,221.876,325.283z"/>
			<path d="M238.943,274.083h51.2c4.713,0,8.533-3.82,8.533-8.533s-3.821-8.533-8.533-8.533h-51.2c-4.713,0-8.533,3.82-8.533,8.533     S234.23,274.083,238.943,274.083z"/>
			<path d="M341.343,410.616h-51.2c-4.713,0-8.533,3.82-8.533,8.533s3.821,8.533,8.533,8.533h51.2c4.713,0,8.533-3.821,8.533-8.533     S346.056,410.616,341.343,410.616z"/>
			<path d="M247.477,461.816h-76.8c-4.713,0-8.533,3.82-8.533,8.533s3.82,8.533,8.533,8.533h76.8c4.713,0,8.533-3.82,8.533-8.533     S252.189,461.816,247.477,461.816z"/>
			<path d="M332.81,461.816h-51.2c-4.713,0-8.533,3.82-8.533,8.533s3.82,8.533,8.533,8.533h51.2c4.713,0,8.533-3.82,8.533-8.533     S337.523,461.816,332.81,461.816z"/>
		</g>
	</g>
</g>
<g>
</g>
<g>
</g>
<g>
</g>
<g>
</g>
<g>
</g>
<g>
</g>
<g>
</g>
<g>
</g>
<g>
</g>
<g>
</g>
<g>
</g>
<g>
</g>
<g>
</g>
<g>
</g>
<g>
</g>
</svg>
