<?xml version="1.0" encoding="iso-8859-1"?>
<!-- Generator: Adobe Illustrator 19.0.0, SVG Export Plug-In . SVG Version: 6.00 Build 0)  -->
<svg xmlns="http://www.w3.org/2000/svg" xmlns:xlink="http://www.w3.org/1999/xlink" version="1.1" id="Layer_1" x="0px" y="0px" viewBox="0 0 512.016 512.016" style="enable-background:new 0 0 512.016 512.016;" xml:space="preserve">
<g transform="translate(0 -1)">
	<g>
		<path d="M403.649,480.863l-12.53-47.337l-3.85-14.555c-0.005-0.02-0.013-0.04-0.019-0.06l-31.252-118.065    c0-0.001,0-0.002-0.001-0.003l-12.092-45.687c-0.002-0.009-0.007-0.017-0.009-0.026l-11.199-42.307    c-1.286-11.353,1.32-23.758,7.314-36.052c8.373-17.185,10.773-34.162,9.956-47.895c-0.031-0.513-0.063-0.942-0.093-1.284    c-0.152-13.366-7.256-32.144-19.732-55.748c-3.43-6.489-7.221-13.24-11.313-20.187c-6.617-11.235-13.697-22.444-20.775-33.113    c-2.478-3.735-4.78-7.137-6.848-10.142c-1.247-1.812-2.144-3.095-2.632-3.784c-4.808-6.789-15.497-3.387-15.497,4.932    c0,51.418-4.685,87.337-12.362,110.368c-1.55,4.651-3.135,8.496-4.705,11.613c-1.569-3.117-3.154-6.961-4.705-11.613    c-7.677-23.031-12.362-58.95-12.362-110.368c0-8.319-10.689-11.721-15.497-4.932c-0.488,0.689-1.385,1.972-2.632,3.784    c-2.068,3.005-4.37,6.407-6.848,10.142c-7.079,10.669-14.158,21.879-20.775,33.113c-4.092,6.947-7.883,13.697-11.313,20.187    c-12.476,23.604-19.581,42.382-19.732,55.748c-0.03,0.342-0.062,0.771-0.093,1.284c-0.818,13.733,1.583,30.71,9.955,47.893    c5.989,12.284,8.596,24.678,7.318,36.023l-23.151,87.459l-0.286,1.08c0,0,0,0,0,0.001l-34.527,130.436l-1.328,5.012    c-0.002,0.009-0.004,0.019-0.006,0.028l-11.662,44.057c-4.301,16.243,7.949,32.153,24.753,32.153h245.786    C395.709,513.016,407.95,497.106,403.649,480.863z M375.035,439.46c-1.522,7.949-8.415,13.821-16.623,13.821    c-9.427,0-17.067-7.64-17.067-17.067c0-9.427,7.64-17.067,17.067-17.067c4.973,0,9.582,2.182,12.809,5.902l3.382,12.776    L375.035,439.46z M358.411,402.081c-10.199,0-19.347,4.478-25.601,11.569c-6.254-7.09-15.401-11.567-25.6-11.567    c-10.199,0-19.346,4.477-25.6,11.567c-6.254-7.09-15.401-11.567-25.6-11.567s-19.346,4.477-25.6,11.567    c-6.254-7.09-15.401-11.567-25.6-11.567s-19.346,4.477-25.6,11.567c-6.254-7.09-15.401-11.567-25.6-11.567    c-2.362,0-4.678,0.258-6.928,0.728l23.114-87.32c2.918,0.812,5.952,1.258,9.055,1.258c10.199,0,19.346-4.477,25.6-11.567    c6.254,7.09,15.401,11.567,25.6,11.567s19.346-4.477,25.6-11.567c6.254,7.09,15.401,11.567,25.6,11.567    c10.198,0,19.345-4.477,25.599-11.566c6.254,7.089,15.401,11.565,25.598,11.565c3.342,0,6.606-0.499,9.723-1.444l23.163,87.504    C363.084,402.339,360.771,402.081,358.411,402.081z M324.277,436.216c0,9.427-7.64,17.067-17.067,17.067    c-9.427,0-17.067-7.64-17.067-17.067s7.64-17.067,17.067-17.067C316.637,419.15,324.277,426.789,324.277,436.216z     M273.077,436.216c0,9.427-7.64,17.067-17.067,17.067s-17.067-7.64-17.067-17.067s7.64-17.067,17.067-17.067    S273.077,426.789,273.077,436.216z M221.877,436.216c0,9.427-7.64,17.067-17.067,17.067c-9.427,0-17.067-7.64-17.067-17.067    s7.64-17.067,17.067-17.067C214.237,419.15,221.877,426.789,221.877,436.216z M137.858,436.147l2.939-11.091    c3.228-3.725,7.834-5.907,12.814-5.907c9.427,0,17.067,7.64,17.067,17.067s-7.64,17.067-17.067,17.067    c-8.203,0-15.1-5.874-16.63-13.821L137.858,436.147z M194.31,222.883h123.396l7.012,26.489    c-7.042,1.631-13.246,5.436-17.869,10.677c-6.254-7.089-15.401-11.565-25.598-11.565c-10.199,0-19.346,4.477-25.6,11.567    c-6.254-7.09-15.401-11.567-25.6-11.567s-19.346,4.477-25.6,11.567c-4.475-5.073-10.429-8.809-17.194-10.522L194.31,222.883z     M315.383,282.579c0.018-8.26,5.899-15.141,13.705-16.699l8.711,32.908c-1.712,0.589-3.508,0.895-5.351,0.895    c-9.415,0-17.046-7.622-17.065-17.033c0-0.011,0.001-0.022,0.001-0.033C315.384,282.604,315.383,282.591,315.383,282.579z     M298.315,282.65c-0.018,9.411-7.649,17.033-17.065,17.033c-9.427,0-17.067-7.64-17.067-17.067c0-9.427,7.64-17.067,17.067-17.067    c9.415,0,17.046,7.622,17.065,17.033c0,0.011-0.001,0.022-0.001,0.033C298.315,282.627,298.315,282.638,298.315,282.65z     M247.117,282.616c0,9.427-7.64,17.067-17.067,17.067c-9.427,0-17.067-7.64-17.067-17.067c0-9.427,7.64-17.067,17.067-17.067    C239.477,265.55,247.117,273.189,247.117,282.616z M195.917,282.616c0,9.427-7.64,17.067-17.067,17.067    c-1.609,0-3.183-0.228-4.693-0.668l8.733-32.984C190.367,267.845,195.917,274.581,195.917,282.616z M179.09,129.89    c0.031-0.514,0.058-0.827,0.068-0.922l0.052-0.941c0-9.706,6.409-26.738,17.757-48.208c3.3-6.244,6.964-12.768,10.929-19.5    c4.633-7.866,9.51-15.737,14.455-23.414c1.417,38.991,5.948,67.963,12.763,88.41c3.045,9.135,6.396,16.061,9.879,21.092    c2.399,3.465,4.565,5.631,6.283,6.776c2.866,1.911,6.601,1.911,9.467,0c1.718-1.145,3.884-3.311,6.283-6.776    c3.483-5.031,6.834-11.957,9.879-21.092c6.816-20.447,11.346-49.419,12.763-88.41c4.945,7.677,9.822,15.548,14.455,23.414    c3.965,6.732,7.629,13.256,10.929,19.5c11.348,21.469,17.757,38.502,17.757,48.208l0.052,0.941    c0.011,0.095,0.038,0.408,0.068,0.922c0.228,3.828,0.083,8.81-0.729,14.552c-1.186,8.388-3.606,16.794-7.531,24.851    c-5.873,12.046-9.15,24.448-9.359,36.523H196.71c-0.209-12.075-3.486-24.477-9.359-36.525c-3.925-8.055-6.345-16.461-7.531-24.849    C179.008,138.7,178.862,133.717,179.09,129.89z M378.905,495.95H133.119c-5.604,0-9.688-5.304-8.254-10.718l6.209-23.457    c6.011,5.346,13.909,8.576,22.536,8.576c10.199,0,19.346-4.477,25.6-11.567c6.254,7.09,15.401,11.567,25.6,11.567    s19.346-4.477,25.6-11.567c6.254,7.09,15.401,11.567,25.6,11.567s19.346-4.477,25.6-11.567c6.254,7.09,15.401,11.567,25.6,11.567    c10.199,0,19.347-4.478,25.601-11.569c6.254,7.09,15.401,11.567,25.6,11.567c8.626,0,16.522-3.226,22.531-8.569l6.208,23.452    C388.585,490.648,384.507,495.95,378.905,495.95z"/>
	</g>
</g>
<g>
</g>
<g>
</g>
<g>
</g>
<g>
</g>
<g>
</g>
<g>
</g>
<g>
</g>
<g>
</g>
<g>
</g>
<g>
</g>
<g>
</g>
<g>
</g>
<g>
</g>
<g>
</g>
<g>
</g>
</svg>
