<?xml version="1.0" encoding="iso-8859-1"?>
<!-- Generator: Adobe Illustrator 19.0.0, SVG Export Plug-In . SVG Version: 6.00 Build 0)  -->
<svg xmlns="http://www.w3.org/2000/svg" xmlns:xlink="http://www.w3.org/1999/xlink" version="1.1" id="Layer_1" x="0px" y="0px" viewBox="0 0 512 512" style="enable-background:new 0 0 512 512;" xml:space="preserve">
<g transform="translate(0 -1)">
	<g>
		<path d="M324.773,27.849c-7.331-1.239-13.904-1.479-23.009-1.299c-2.832,0.056-2.52,0.05-3.098,0.05    c-7.848,0-12.165-2.878-14.768-8.083c-1.701-3.402-2.299-6.99-2.299-8.984c0-4.713-3.82-8.533-8.533-8.533h-34.133    c-4.713,0-8.533,3.82-8.533,8.533c0,1.993-0.598,5.582-2.299,8.984c-2.602,5.205-6.92,8.083-14.768,8.083    c-0.578,0-0.266,0.006-3.098-0.05c-9.105-0.18-15.678,0.06-23.009,1.299c-20.292,3.43-33.627,13.781-33.627,33.149    c0,8.908,3.424,17.241,9.885,26.305c2.352,3.3,5.072,6.665,8.592,10.718c1.987,2.288,9.092,10.239,9.265,10.435    c16.616,18.778,23.457,30.882,23.457,46.145c0,16.134-2.929,26.193-12,47.217c-10.113,23.439-13.6,35.408-13.6,54.654    c0,16.488,2.291,39.267,6.89,73.46c0.561,4.171,1.159,8.535,1.856,13.571c7.758,55.984,8.585,62.543,8.585,72.695    c0,8.749-0.028,21.763-0.079,37.906c-0.016,5.145-0.034,10.522-0.054,16.066c-0.029,8.166-0.06,16.29-0.091,23.997    c-0.018,4.333-0.018,4.333-0.03,7.312c-0.009,2.208-0.009,2.208-0.011,2.687c-0.02,4.71,3.779,8.546,8.489,8.57l51.2,0.265    l51.288-0.265c4.71-0.024,8.509-3.86,8.489-8.57c-0.002-0.479-0.002-0.479-0.011-2.687c-0.012-2.979-0.012-2.979-0.03-7.312    c-0.031-7.708-0.062-15.832-0.091-23.997c-0.02-5.544-0.038-10.921-0.054-16.066c-0.05-16.143-0.078-29.157-0.078-37.906    c0-10.152,0.827-16.712,8.585-72.695c0.698-5.036,1.295-9.401,1.856-13.571c4.599-34.193,6.89-56.973,6.89-73.46    c0-19.247-3.487-31.216-13.498-54.418c-9.172-21.259-12.102-31.318-12.102-47.452c0-15.263,6.842-27.366,23.457-46.145    c0.173-0.196,7.278-8.147,9.265-10.435c3.521-4.053,6.24-7.418,8.592-10.718c6.461-9.064,9.885-17.397,9.885-26.305    C358.4,41.629,345.066,31.279,324.773,27.849z M243.366,26.15c1.387-2.774,2.354-5.511,2.999-8.083h19.271    c0.645,2.572,1.612,5.309,2.999,8.083c4.006,8.011,10.591,13.779,19.669,16.221c-0.077,0.322-0.153,0.643-0.232,0.97    c-0.06,0.25-0.12,0.497-0.181,0.75c-0.184,0.756-0.372,1.523-0.568,2.306c-2.441,9.765-5.271,19.523-8.442,28.584    c-8.037,22.962-17.13,36.952-22.879,36.952s-14.842-13.99-22.879-36.952c-3.171-9.06-6.001-18.819-8.442-28.584    c-0.196-0.783-0.384-1.549-0.568-2.306c-0.061-0.251-0.12-0.496-0.18-0.744c-0.08-0.33-0.157-0.653-0.234-0.977    C232.775,39.929,239.36,34.161,243.366,26.15z M334.618,77.396c-1.986,2.786-4.388,5.757-7.581,9.434    c-1.893,2.18-8.918,10.041-9.162,10.316c-19.177,21.673-27.743,36.826-27.743,57.454c0,19.052,3.473,30.978,13.396,53.978    c9.26,21.461,12.204,31.566,12.204,47.893c0,15.473-2.24,37.745-6.738,71.185c-0.558,4.146-1.152,8.488-1.847,13.504    c-8.024,57.899-8.746,63.634-8.746,75.038c0,8.772,0.028,21.8,0.079,37.959c0.016,5.148,0.034,10.527,0.054,16.073    c0.029,8.169,0.06,16.295,0.091,24.006c0.002,0.559,0.004,1.046,0.006,1.477l-42.675,0.221l-42.587-0.22    c0.002-0.431,0.004-0.918,0.006-1.477c0.031-7.71,0.062-15.837,0.091-24.006c0.02-5.546,0.038-10.925,0.054-16.073    c0.05-16.159,0.079-29.188,0.079-37.959c0-11.404-0.723-17.139-8.746-75.038c-0.695-5.015-1.29-9.358-1.847-13.504    c-4.497-33.44-6.738-55.713-6.738-71.185c0-16.327,2.944-26.432,12.102-47.657c10.026-23.236,13.498-35.161,13.498-54.214    c0-20.628-8.566-35.782-27.743-57.454c-0.244-0.276-7.268-8.137-9.162-10.316c-3.193-3.677-5.595-6.648-7.581-9.434    c-4.585-6.431-6.715-11.617-6.715-16.398c0-9.19,6.342-14.113,19.404-16.321c5.12-0.865,10.02-1.145,16.375-1.109    c0.039,0.169,0.084,0.353,0.123,0.524c0.175,0.756,0.357,1.528,0.545,2.316c0.073,0.304,0.144,0.606,0.219,0.914    c0.253,1.049,0.513,2.115,0.788,3.214c2.559,10.235,5.529,20.477,8.891,30.083C227.642,110.99,239.349,129,256,129    s28.358-18.01,38.988-48.381c3.362-9.606,6.332-19.848,8.891-30.083c0.275-1.102,0.536-2.17,0.79-3.221    c0.074-0.305,0.144-0.603,0.216-0.904c0.188-0.788,0.37-1.559,0.545-2.314c0.04-0.173,0.085-0.359,0.125-0.53    c6.355-0.036,11.255,0.244,16.375,1.109c13.062,2.208,19.404,7.131,19.404,16.321C341.333,65.779,339.203,70.965,334.618,77.396z"/>
	</g>
</g>
<g>
</g>
<g>
</g>
<g>
</g>
<g>
</g>
<g>
</g>
<g>
</g>
<g>
</g>
<g>
</g>
<g>
</g>
<g>
</g>
<g>
</g>
<g>
</g>
<g>
</g>
<g>
</g>
<g>
</g>
</svg>
