<?xml version="1.0" encoding="iso-8859-1"?>
<!-- Generator: Adobe Illustrator 19.0.0, SVG Export Plug-In . SVG Version: 6.00 Build 0)  -->
<svg xmlns="http://www.w3.org/2000/svg" xmlns:xlink="http://www.w3.org/1999/xlink" version="1.1" id="Layer_1" x="0px" y="0px" viewBox="0 0 512.003 512.003" style="enable-background:new 0 0 512.003 512.003;" xml:space="preserve">
<g transform="translate(0 -1)">
	<g>
		<path d="M415.615,297.74c-0.012-1.086-0.028-1.979-0.064-3.846c-0.056-2.898-0.074-4.1-0.074-5.584    c0-33.092-4.777-67.461-14.065-108.452c-1.83-8.077-3.506-14.442-7.416-28.622c-2.519-9.135-3.639-13.281-4.915-18.295    c-1.91-7.492-3.221-15.028-4.902-27.114c-0.177-1.275-0.323-2.331-0.643-4.674c-0.794-5.798-1.187-8.583-1.695-11.911    c-1.335-8.671-2.532-12.992-6.007-17.841c-4.81-6.716-11.668-10.898-22.549-15.331c-6.967-2.832-14.332-5.325-22.299-7.6    l-41.41-11.832v-13.8c0-12.064-9.776-21.84-21.84-21.84h-23.468c-12.064,0-21.84,9.776-21.84,21.84v13.8l-41.411,11.833    c-7.966,2.275-15.331,4.768-22.291,7.597c-10.887,4.436-17.746,8.617-22.557,15.336c-3.474,4.847-4.671,9.167-6.004,17.828    c-0.51,3.338-0.902,6.124-1.696,11.921c-0.321,2.342-0.466,3.399-0.643,4.674c-1.68,12.086-2.992,19.622-4.901,27.111    c-1.277,5.017-2.398,9.162-4.84,18.022c-3.986,14.455-5.662,20.82-7.492,28.897c-9.288,40.991-14.065,75.36-14.065,108.452    c0,1.484-0.018,2.685-0.074,5.584c-0.036,1.867-0.052,2.76-0.064,3.846c-0.286,25.409,6.395,38.863,29.749,38.959    c9.476,0.039,17.994-2.949,23.279-9.746c4.497-5.806,5.427-11.154,5.61-21.769c0.982-56.148,10.589-108.809,29.239-155.667    c3.403,28.749,4.588,43.538,4.588,61.323c0,8.845-2.86,25.446-7.657,46.426c-1.763,7.712-3.685,15.569-5.653,23.236    c-1.281,4.993-2.358,9.045-3.182,12.062c-0.951,3.486,0.435,7.189,3.442,9.193l3.87,2.58c-2.507,8.225-4.332,16.655-5.582,25.511    c-2.241,15.879-2.549,28.245-2.172,57.014c0.109,8.342,0.147,12.242,0.147,17.026v92.328c0,2.949,1.547,5.681,4.076,7.198    c2.685,1.611,8.154,3.504,17.461,5.249c14.543,2.727,34.984,4.341,62.398,4.341s47.855-1.614,62.398-4.341    c9.306-1.745,14.775-3.638,17.461-5.249c2.529-1.517,4.076-4.249,4.076-7.198v-92.328c0-4.784,0.038-8.684,0.147-17.026    c0.377-28.769,0.069-41.135-2.172-57.014c-1.25-8.856-3.075-17.287-5.582-25.511l3.87-2.58c3.006-2.004,4.393-5.708,3.442-9.193    c-0.823-3.018-1.901-7.07-3.182-12.062c-1.967-7.667-3.889-15.524-5.653-23.236c-4.797-20.981-7.657-37.581-7.657-46.426    c0-17.785,1.184-32.573,4.588-61.323c18.65,46.858,28.257,99.52,29.239,155.669c0.183,10.613,1.113,15.961,5.601,21.755    c5.295,6.809,13.813,9.797,23.289,9.759C409.219,336.603,415.9,323.149,415.615,297.74z M239.215,22.84    c0-2.793,2.26-5.053,5.053-5.053h23.468c2.793,0,5.053,2.26,5.053,5.053v18.623c-0.165,0.448-0.357,0.972-0.574,1.568    c-0.871,2.388-1.84,5.088-2.883,8.047c-2.98,8.453-5.96,17.303-8.744,26.126c-0.301,0.953-0.594,1.896-0.887,2.838    c-1.213,3.901-2.36,7.713-3.426,11.407c-0.092,0.318-0.183,0.634-0.273,0.949c-0.09-0.315-0.181-0.632-0.273-0.949    c-1.066-3.694-2.214-7.506-3.426-11.407c-0.293-0.942-0.586-1.885-0.887-2.838c-2.784-8.823-5.764-17.673-8.744-26.126    c-1.043-2.959-2.012-5.659-2.883-8.047c-0.217-0.596-0.409-1.119-0.574-1.568V22.84z M181.501,114.667    c-27.917,55.713-42.039,120.496-43.258,190.225c-0.121,6.99-0.623,9.877-2.088,11.769c-1.554,1.998-5.182,3.271-9.949,3.251    c-10.925-0.045-13.226-4.678-13.032-21.983c0.012-1.026,0.026-1.888,0.062-3.71c0.058-3.009,0.077-4.278,0.077-5.908    c0-31.664,4.615-64.868,13.65-104.742c1.754-7.741,3.386-13.939,7.227-27.87c2.548-9.24,3.688-13.459,5-18.615    c2.101-8.241,3.5-16.284,5.261-28.943c0.18-1.291,0.327-2.361,0.648-4.708c0.783-5.714,1.167-8.44,1.658-11.655    c0.935-6.069,1.641-8.619,3.058-10.596c2.437-3.403,7.108-6.251,15.238-9.564c6.362-2.586,13.161-4.887,20.574-7.004l39.98-11.424    c0.397,1.11,0.808,2.268,1.232,3.471c2.922,8.288,5.844,16.965,8.567,25.595c0.387,1.227,0.767,2.444,1.141,3.652    c1.078,3.485,2.097,6.887,3.05,10.187c1.533,5.312,2.863,10.266,3.98,14.817c0.046,0.187,0.096,0.381,0.141,0.566    c0.07,0.287,0.133,0.56,0.201,0.844c0.378,1.576,0.735,3.111,1.058,4.581c0.06,0.274,0.113,0.533,0.171,0.803    c0.126,0.585,0.254,1.173,0.37,1.74c0.022,0.106,0.04,0.205,0.062,0.31c1.322,6.481,2.028,11.754,2.028,15.542v164.392    l-17.856,17.856l-39.625-26.417c0.512-1.941,1.073-4.096,1.679-6.456c2.002-7.801,3.958-15.799,5.757-23.667    c5.082-22.229,8.079-39.624,8.079-50.168c0-20.69-1.507-37.222-5.945-73.61c-1.229-10.073-1.735-14.298-2.35-19.745    C196.407,109.186,185.243,107.2,181.501,114.667z M323.298,386.643c-0.11,8.414-0.148,12.365-0.148,17.246v86.486    c-2.111,0.597-4.711,1.201-7.843,1.788c-13.436,2.519-32.864,4.053-59.305,4.053s-45.868-1.534-59.305-4.053    c-3.131-0.587-5.731-1.192-7.843-1.788v-86.486c0-4.88-0.038-8.832-0.148-17.246c-0.365-27.907-0.072-39.706,2.009-54.448    c0.79-5.599,1.828-10.986,3.146-16.235l32.642,19.585c0.05,0.03,0.103,0.054,0.153,0.083c0.104,0.059,0.208,0.116,0.314,0.171    c0.108,0.056,0.217,0.11,0.327,0.161c0.108,0.05,0.217,0.098,0.326,0.143c0.112,0.046,0.224,0.089,0.336,0.13    c0.11,0.04,0.22,0.078,0.332,0.113c0.115,0.036,0.231,0.07,0.347,0.101c0.111,0.03,0.221,0.058,0.332,0.083    c0.119,0.027,0.238,0.05,0.357,0.071c0.11,0.02,0.22,0.039,0.331,0.055c0.122,0.017,0.244,0.03,0.366,0.041    c0.109,0.01,0.219,0.021,0.328,0.027c0.123,0.007,0.247,0.009,0.37,0.01c0.109,0.001,0.218,0.003,0.326,0    c0.124-0.003,0.247-0.012,0.37-0.021c0.108-0.008,0.216-0.015,0.324-0.027c0.123-0.014,0.245-0.033,0.367-0.052    c0.108-0.017,0.216-0.032,0.323-0.053c0.12-0.023,0.239-0.053,0.358-0.082c0.107-0.026,0.215-0.05,0.321-0.08    c0.117-0.033,0.232-0.073,0.348-0.111c0.106-0.035,0.212-0.068,0.316-0.107c0.116-0.043,0.229-0.094,0.342-0.143    c0.101-0.043,0.204-0.084,0.304-0.131c0.115-0.055,0.226-0.116,0.339-0.176c0.095-0.051,0.192-0.098,0.286-0.153    c0.116-0.068,0.228-0.143,0.341-0.217c0.086-0.056,0.174-0.108,0.259-0.167c0.125-0.088,0.245-0.185,0.367-0.281    c0.068-0.053,0.138-0.102,0.204-0.158c0.185-0.156,0.365-0.32,0.538-0.493l19.245-19.245l19.245,19.245    c0.174,0.173,0.353,0.338,0.538,0.493c0.066,0.056,0.136,0.104,0.204,0.158c0.121,0.096,0.241,0.193,0.367,0.281    c0.084,0.06,0.173,0.111,0.259,0.167c0.113,0.073,0.225,0.149,0.341,0.217c0.094,0.055,0.191,0.102,0.286,0.153    c0.113,0.06,0.224,0.122,0.339,0.176c0.1,0.047,0.202,0.088,0.304,0.131c0.114,0.049,0.227,0.099,0.342,0.143    c0.104,0.039,0.21,0.072,0.316,0.107c0.116,0.038,0.231,0.078,0.348,0.111c0.106,0.03,0.214,0.054,0.321,0.08    c0.119,0.029,0.238,0.058,0.358,0.082c0.107,0.021,0.215,0.036,0.323,0.053c0.122,0.019,0.244,0.038,0.367,0.052    c0.108,0.012,0.216,0.019,0.324,0.027c0.123,0.009,0.247,0.018,0.37,0.021c0.109,0.003,0.218,0.001,0.326,0    c0.123-0.001,0.247-0.003,0.37-0.01c0.11-0.006,0.219-0.016,0.328-0.027c0.122-0.012,0.244-0.024,0.366-0.041    c0.111-0.015,0.221-0.035,0.331-0.055c0.12-0.022,0.239-0.044,0.357-0.071c0.111-0.025,0.222-0.054,0.332-0.083    c0.116-0.031,0.232-0.064,0.347-0.101c0.111-0.035,0.221-0.073,0.332-0.113c0.113-0.041,0.225-0.084,0.336-0.13    c0.109-0.045,0.218-0.093,0.326-0.143c0.11-0.051,0.219-0.105,0.327-0.161c0.105-0.055,0.21-0.111,0.314-0.171    c0.051-0.029,0.103-0.053,0.153-0.083l32.642-19.585c1.319,5.249,2.356,10.636,3.146,16.235    C323.37,346.937,323.663,358.736,323.298,386.643z M385.797,319.912c-4.767,0.019-8.395-1.253-9.959-3.264    c-1.455-1.879-1.957-4.766-2.078-11.754c-1.219-69.731-15.341-134.514-43.258-190.227c-3.742-7.467-14.906-5.482-15.844,2.818    c-0.616,5.447-1.122,9.671-2.35,19.745c-4.438,36.388-5.945,52.919-5.945,73.61c0,10.544,2.997,27.939,8.079,50.168    c1.799,7.868,3.755,15.866,5.757,23.667c0.605,2.36,1.167,4.515,1.679,6.456l-39.625,26.417l-17.856-17.856V135.298    c0-3.788,0.706-9.061,2.028-15.542c0.022-0.105,0.04-0.205,0.062-0.31c0.117-0.567,0.244-1.155,0.37-1.74    c0.058-0.27,0.111-0.529,0.171-0.803c0.074-0.339,0.157-0.694,0.235-1.038c1.308-5.827,3.035-12.461,5.145-19.77    c0.953-3.3,1.972-6.702,3.05-10.187c0.374-1.208,0.754-2.425,1.141-3.652c2.724-8.631,5.646-17.307,8.567-25.595    c0.424-1.202,0.835-2.361,1.232-3.471l39.979,11.424c7.415,2.117,14.214,4.419,20.582,7.008c8.124,3.31,12.795,6.158,15.23,9.559    c1.418,1.979,2.125,4.529,3.061,10.609c0.489,3.204,0.874,5.931,1.656,11.645c0.321,2.347,0.468,3.417,0.648,4.708    c1.76,12.659,3.16,20.702,5.261,28.946c1.312,5.153,2.452,9.372,4.924,18.337c3.917,14.206,5.549,20.405,7.303,28.146    c9.035,39.874,13.65,73.077,13.65,104.742c0,1.63,0.019,2.899,0.077,5.908c0.035,1.822,0.05,2.684,0.062,3.71    C399.023,315.234,396.723,319.867,385.797,319.912z"/>
	</g>
</g>
<g>
</g>
<g>
</g>
<g>
</g>
<g>
</g>
<g>
</g>
<g>
</g>
<g>
</g>
<g>
</g>
<g>
</g>
<g>
</g>
<g>
</g>
<g>
</g>
<g>
</g>
<g>
</g>
<g>
</g>
</svg>
