<?xml version="1.0" encoding="iso-8859-1"?>
<!-- Generator: Adobe Illustrator 19.0.0, SVG Export Plug-In . SVG Version: 6.00 Build 0)  -->
<svg xmlns="http://www.w3.org/2000/svg" xmlns:xlink="http://www.w3.org/1999/xlink" version="1.1" id="Layer_1" x="0px" y="0px" viewBox="0 0 512.003 512.003" style="enable-background:new 0 0 512.003 512.003;" xml:space="preserve">
<g transform="translate(0 -1)">
	<g>
		<path d="M366.844,461.271c-0.232-1.576-0.676-4.646-1.311-9.112c-1.06-7.451-2.271-16.107-3.611-25.873    c-3.829-27.91-7.924-59.108-12.119-92.828c-3.376-27.134-8.787-49.06-15.722-66.342c-4.431-11.042-9.256-19.628-14.183-26.053    c-1.51-1.969-2.909-3.588-4.163-4.888v-23.019c9.504-2.791,16.334-10.346,20.728-20.741c3.072-7.266,4.446-14.349,4.845-19.358    l0.027-2.743c0-8.691-0.268-15.6-1.068-31.132c-0.094-1.814-0.094-1.814-0.186-3.625c-1.252-24.618-1.256-37.858,0.636-52.246    c2.642-20.137-8.539-31.053-30.582-39.121c-0.028-0.01-0.057-0.016-0.085-0.026c-0.051-0.018-0.098-0.041-0.15-0.058    c-7.713-2.571-14.287-8.471-19.702-16.895c-2.788-4.337-5.073-9.042-6.866-13.749c-1.065-2.796-1.714-4.916-1.985-5.998    C280.397,3.665,276.984,1,273.068,1h-34.133c-3.916,0-7.329,2.665-8.279,6.464c-0.271,1.082-0.919,3.201-1.985,5.998    c-1.793,4.707-4.078,9.411-6.866,13.749c-5.415,8.424-11.989,14.324-19.702,16.895c-0.052,0.017-0.099,0.04-0.15,0.058    c-0.028,0.01-0.056,0.016-0.084,0.026c-22.042,8.067-33.224,18.984-30.582,39.118c1.892,14.39,1.887,27.63,0.636,52.248    c-0.092,1.81-0.092,1.81-0.186,3.625c-0.801,15.532-1.068,22.441-1.068,31.132v2.065c0.427,5.689,1.803,12.771,4.876,20.036    c4.395,10.393,11.223,17.948,20.724,20.739v23.02c-1.254,1.3-2.653,2.919-4.163,4.888c-4.927,6.425-9.752,15.011-14.183,26.053    c-6.934,17.282-12.346,39.208-15.722,66.342c-4.195,33.72-8.291,64.918-12.119,92.828c-1.34,9.766-2.55,18.422-3.611,25.873    c-0.636,4.466-1.08,7.536-1.311,9.112c-0.268,1.825,0.062,3.687,0.942,5.309c3.468,6.394,11.125,15.31,24.083,23.998    c20.983,14.069,49.307,22.425,85.818,22.425s64.835-8.356,85.818-22.425c12.959-8.689,20.615-17.604,24.083-23.998    C366.782,464.958,367.112,463.096,366.844,461.271z M281.601,214.335h17.067v17.067h-17.067V214.335z M236.161,36.439    c4.165-6.478,7.124-12.905,9.075-18.372h21.53c1.951,5.467,4.911,11.894,9.075,18.372c5.527,8.598,12.236,15.519,20.278,20.106    c-0.181,0.37-0.362,0.741-0.551,1.11c-0.243,0.478-0.485,0.956-0.74,1.432c-0.324,0.604-0.667,1.204-1.01,1.803    c-0.262,0.457-0.516,0.915-0.789,1.369c-0.385,0.641-0.795,1.272-1.203,1.904c-0.26,0.402-0.507,0.809-0.776,1.207    c-0.586,0.868-1.201,1.721-1.831,2.565c-0.107,0.144-0.205,0.293-0.313,0.436c-8.642,11.38-19.438,17.961-32.903,17.961    c-13.465,0-24.261-6.58-32.903-17.961c-0.108-0.143-0.206-0.292-0.313-0.436c-0.63-0.844-1.245-1.697-1.831-2.565    c-0.269-0.398-0.517-0.805-0.776-1.207c-0.408-0.632-0.818-1.263-1.203-1.904c-0.273-0.453-0.528-0.912-0.789-1.369    c-0.343-0.6-0.686-1.199-1.01-1.803c-0.255-0.476-0.497-0.954-0.74-1.432c-0.188-0.37-0.37-0.74-0.551-1.11    C223.925,51.958,230.634,45.037,236.161,36.439z M191.262,185.766c-1.293-3.056-2.253-6.419-2.909-9.793    c-0.391-2.013-0.587-3.531-0.646-4.275l0.027-1.385c0-8.3,0.26-15.015,1.046-30.254c0.094-1.816,0.094-1.816,0.187-3.637    c1.302-25.603,1.307-39.626-0.759-55.337c-1.061-8.088,2.318-13.09,11.914-17.713c0.067,0.14,0.142,0.286,0.211,0.427    c0.141,0.29,0.285,0.582,0.432,0.876c0.133,0.266,0.266,0.532,0.404,0.801c0.157,0.305,0.32,0.614,0.484,0.923    c0.138,0.261,0.273,0.52,0.416,0.784c0.224,0.412,0.457,0.829,0.693,1.247c0.196,0.348,0.398,0.698,0.602,1.049    c0.214,0.368,0.429,0.737,0.652,1.109c0.164,0.273,0.336,0.548,0.505,0.823c0.199,0.322,0.398,0.645,0.604,0.969    c0.182,0.287,0.368,0.575,0.556,0.864c0.207,0.318,0.417,0.637,0.63,0.956c0.194,0.291,0.389,0.581,0.589,0.873    c0.226,0.33,0.458,0.66,0.691,0.99c0.198,0.281,0.393,0.561,0.596,0.843c0.296,0.41,0.602,0.821,0.91,1.232    c0.139,0.186,0.271,0.372,0.412,0.558c11.608,15.286,27.062,24.706,46.495,24.706s34.887-9.42,46.495-24.706    c0.141-0.186,0.273-0.372,0.412-0.558c0.307-0.411,0.614-0.822,0.91-1.232c0.203-0.282,0.398-0.562,0.596-0.843    c0.233-0.331,0.465-0.661,0.691-0.99c0.2-0.292,0.395-0.583,0.589-0.874c0.213-0.318,0.422-0.636,0.628-0.952    c0.189-0.291,0.376-0.581,0.56-0.87c0.203-0.321,0.401-0.641,0.598-0.96c0.171-0.278,0.344-0.556,0.51-0.832    c0.219-0.365,0.43-0.727,0.64-1.088c0.212-0.365,0.421-0.728,0.625-1.089c0.231-0.41,0.461-0.82,0.68-1.225    c0.143-0.264,0.278-0.523,0.416-0.784c0.163-0.309,0.327-0.618,0.483-0.923c0.139-0.271,0.273-0.538,0.406-0.805    c0.146-0.291,0.288-0.58,0.428-0.867c0.069-0.143,0.145-0.29,0.213-0.432c9.596,4.623,12.975,9.625,11.913,17.715    c-2.066,15.709-2.061,29.732-0.759,55.335c0.093,1.821,0.093,1.821,0.187,3.637c0.786,15.238,1.046,21.954,1.046,30.254v2.065    c-0.032,0.067-0.228,1.584-0.618,3.597c-0.655,3.374-1.615,6.736-2.907,9.792c-3.217,7.609-7.528,11.498-13.532,11.502    c-0.003,0-0.006,0-0.009,0h-27.902c-2.953-5.097-8.453-8.535-14.765-8.535h-17.067c-6.312,0-11.812,3.438-14.765,8.535h-27.902    c-0.003,0-0.006,0-0.009,0C198.791,197.265,194.48,193.375,191.262,185.766z M247.468,205.802V205.8h17.067v0.002v34.132h-17.067    V205.802z M213.335,214.335h17.067v17.067h-17.067V214.335z M347.127,463.507c-3.732,4.346-8.624,8.746-14.812,12.895    c-18.129,12.155-43.138,19.534-76.313,19.534s-58.184-7.378-76.313-19.534c-6.188-4.149-11.08-8.549-14.812-12.895    c-0.977-1.138-1.763-2.132-2.368-2.952c0.252-1.744,0.538-3.743,0.858-5.992c1.064-7.479,2.279-16.164,3.623-25.959    c3.838-27.978,7.943-59.247,12.147-93.041c3.202-25.732,8.262-46.236,14.625-62.094c3.864-9.631,7.926-16.859,11.887-22.023    c0.907-1.182,1.742-2.163,2.503-2.979h24.555c2.953,5.095,8.452,8.532,14.763,8.532h17.067c6.311,0,11.809-3.437,14.763-8.532    h24.555c0.761,0.816,1.596,1.796,2.503,2.979c3.96,5.165,8.023,12.392,11.887,22.023c6.363,15.858,11.423,36.362,14.625,62.094    c4.205,33.794,8.309,65.062,12.147,93.041c1.344,9.795,2.558,18.48,3.623,25.959c0.32,2.248,0.607,4.248,0.858,5.992    C348.89,461.375,348.104,462.369,347.127,463.507z"/>
	</g>
</g>
<g>
</g>
<g>
</g>
<g>
</g>
<g>
</g>
<g>
</g>
<g>
</g>
<g>
</g>
<g>
</g>
<g>
</g>
<g>
</g>
<g>
</g>
<g>
</g>
<g>
</g>
<g>
</g>
<g>
</g>
</svg>
