<?xml version="1.0" encoding="iso-8859-1"?>
<!-- Generator: Adobe Illustrator 19.0.0, SVG Export Plug-In . SVG Version: 6.00 Build 0)  -->
<svg xmlns="http://www.w3.org/2000/svg" xmlns:xlink="http://www.w3.org/1999/xlink" version="1.1" id="Layer_1" x="0px" y="0px" viewBox="0 0 512.515 512.515" style="enable-background:new 0 0 512.515 512.515;" xml:space="preserve">
<g transform="translate(0 -1)">
	<g>
		<g>
			<path d="M257.044,18.598c-0.019,0-0.037,0.001-0.262,0.006C256.809,18.603,256.809,18.603,257.044,18.598z"/>
			<path d="M255.713,18.603c0.008,0,0.014,0,0.021,0.001C255.726,18.603,255.719,18.603,255.713,18.603z"/>
			<path d="M257.706,18.59c-0.175,0.002-0.363,0.004-0.663,0.008C256.912,19.206,256.851,19.511,257.706,18.59z"/>
			<path d="M255.472,18.598c-0.025,0-0.043-0.001-0.075-0.001c-0.261-0.003-0.428-0.005-0.587-0.006     C255.657,19.501,255.603,19.203,255.472,18.598z"/>
			<path d="M353.111,53.255c-1.509-0.564-4.163-1.565-7.579-2.869c-5.692-2.173-11.383-4.383-16.687-6.495     c-1.276-0.509-1.276-0.509-2.547-1.019c-6.429-2.584-11.654-4.781-15.28-6.445c-0.012-0.006-0.025-0.009-0.037-0.015     c-5.133-2.358-9.581-4.896-13.392-7.576c-6.905-4.857-11.344-9.865-13.902-14.697c-1.351-2.551-1.817-4.25-1.859-4.754     c-0.367-4.403-4.034-7.798-8.453-7.825c-0.953-0.006-2.536-0.014-4.438-0.023c-1.98-0.009-1.98-0.009-4.121-0.016     c-2.416-0.007-4.431-0.009-5.918-0.005c-0.698,0.003-0.977,0.004-1.278,0.007c-0.79-0.829-0.767-0.556-0.681,0.007     c-0.402,0.006-0.451,0.007-0.683,0.014c-0.001,0-0.001,0-0.002,0c-0.241-0.007-0.329-0.009-0.604-0.014     c-0.029,0-0.051-0.001-0.078-0.001c0.087-0.576,0.085-0.811-0.68-0.007c-0.301-0.003-0.579-0.004-1.278-0.007     c-1.487-0.004-3.502-0.002-5.918,0.005c-2.141,0.007-2.141,0.007-4.121,0.016c-1.901,0.009-3.485,0.017-4.438,0.023     c-4.419,0.026-8.086,3.422-8.453,7.825c-0.042,0.504-0.508,2.202-1.859,4.754c-2.558,4.832-6.997,9.839-13.902,14.697     c-3.811,2.681-8.259,5.218-13.392,7.576c-0.012,0.006-0.025,0.009-0.037,0.015c-3.626,1.665-8.851,3.861-15.28,6.445     c-1.271,0.51-1.271,0.51-2.547,1.019c-5.304,2.112-10.995,4.322-16.687,6.495c-3.416,1.304-6.07,2.305-7.579,2.869     c-4.567,1.706-6.779,6.886-4.852,11.365c0.323,0.751,0.937,2.197,1.802,4.26c1.445,3.451,3.057,7.362,4.794,11.653     c4.963,12.262,9.925,25.103,14.553,37.887c2.589,7.153,5.003,14.096,7.206,20.764c7.013,21.226,11.576,38.705,13.074,50.844     c0.007,0.075,0.005,0.149,0.014,0.224c0.173,1.463,0.303,2.808,0.392,4.044c0.003,0.047,0.007,0.094,0.01,0.141     c0.036,0.513,0.061,1.001,0.082,1.476c0.025,0.64,0.047,1.273,0.047,1.869c0,1.039-0.022,2.046-0.065,3.03     c-0.001,0.013-0.001,0.027-0.001,0.041c-0.307,6.942-1.698,12.658-4.387,19.346c-0.062,0.154-0.101,0.31-0.154,0.465     c-0.206,0.506-0.419,1.018-0.641,1.537c-0.901,2.112-5.533,12.175-6.866,15.296c-9.035,21.144-13.486,43.618-13.486,79.752     c0,5.816,0.127,11.758,0.375,17.817c1.301,31.708,5.838,65.537,12.587,99.659c2.829,14.302,5.86,27.691,8.894,39.796     c1.064,4.245,2.053,8.029,2.942,11.307c0.538,1.982,0.925,3.364,1.138,4.1c0.289,1.001,0.76,1.94,1.388,2.772     c2.35,3.113,6.92,7.197,14.081,11.074c11.317,6.128,25.881,9.742,43.929,9.742s32.612-3.614,43.929-9.742     c7.161-3.877,11.73-7.961,14.081-11.074c0.628-0.832,1.098-1.771,1.388-2.772c0.213-0.736,0.601-2.118,1.138-4.1     c0.889-3.278,1.878-7.062,2.942-11.307c3.033-12.105,6.065-25.493,8.894-39.796c6.749-34.121,11.286-67.951,12.587-99.659     c0.249-6.059,0.375-12.001,0.375-17.817c0-36.133-4.452-58.608-13.486-79.752c-1.334-3.121-5.966-13.185-6.866-15.296     c-0.222-0.52-0.435-1.031-0.641-1.537c-0.052-0.155-0.092-0.31-0.154-0.465c-2.689-6.688-4.08-12.404-4.387-19.346     c-0.001-0.013-0.001-0.027-0.001-0.041c-0.043-0.983-0.065-1.991-0.065-3.03c0-0.595,0.021-1.229,0.047-1.869     c0.021-0.475,0.046-0.963,0.082-1.476c0.003-0.047,0.007-0.094,0.01-0.141c0.088-1.236,0.218-2.581,0.392-4.044     c0.009-0.075,0.007-0.149,0.014-0.224c1.498-12.139,6.061-29.619,13.074-50.844c2.203-6.668,4.616-13.611,7.206-20.764     c4.628-12.783,9.59-25.624,14.553-37.887c1.737-4.291,3.349-8.202,4.794-11.653c0.864-2.063,1.479-3.51,1.802-4.26     C359.89,60.141,357.678,54.961,353.111,53.255z M224.745,42.795c9.093-6.396,15.341-13.445,19.167-20.67     c0.652-1.231,1.207-2.41,1.675-3.528c0.53-0.002,1.061-0.004,2.164-0.008c2.384-0.007,4.369-0.009,5.815-0.005     c0.707,0.003,0.962,0.004,1.244,0.007c-0.027-0.029-0.053-0.057-0.082-0.088c0.246,0.04,0.494,0.07,0.742,0.091     c0,0.002,0.001,0.004,0.001,0.005c0.159,0.003,0.204,0.004,0.241,0.005c-0.011,0-0.032-0.002-0.063-0.004     c0.447,0.028,0.895,0.034,1.341,0c0.267-0.021,0.533-0.054,0.797-0.097c-0.029,0.031-0.055,0.06-0.082,0.089     c0.293-0.003,0.552-0.004,1.243-0.007c1.446-0.004,3.431-0.002,5.815,0.005c1.103,0.004,1.633,0.005,2.164,0.008     c0.468,1.118,1.023,2.297,1.675,3.528c3.825,7.225,10.073,14.274,19.167,20.67c2.473,1.739,5.134,3.412,7.988,5.015     l-39.501,72.419l-39.501-72.419C219.611,46.207,222.272,44.534,224.745,42.795z M213.562,200.049     c0.018-0.745,0.029-1.499,0.029-2.267h17.067v17.067h-18.939c1.092-4.634,1.694-9.342,1.836-14.574     C213.556,200.198,213.56,200.125,213.562,200.049z M324.524,317.248c0,5.578-0.122,11.287-0.361,17.117     c-1.26,30.729-5.685,63.722-12.277,97.046c-2.771,14.008-5.74,27.12-8.706,38.959c-1.036,4.136-1.997,7.814-2.858,10.987     c-0.213,0.784-0.399,1.465-0.559,2.04c-1.365,1.346-3.875,3.294-7.703,5.367c-8.795,4.763-20.564,7.683-35.802,7.683     s-27.007-2.92-35.802-7.683c-3.828-2.073-6.339-4.02-7.703-5.367c-0.159-0.575-0.346-1.256-0.559-2.04     c-0.861-3.174-1.822-6.852-2.858-10.987c-2.967-11.839-5.935-24.951-8.706-38.959c-6.592-33.324-11.017-66.317-12.277-97.046     c-0.239-5.831-0.361-11.54-0.361-17.117c0-33.864,4-54.056,12.114-73.046c0.906-2.121,3.736-8.307,5.53-12.287h27.326     c2.953,5.096,8.452,8.533,14.764,8.533h17.067c6.311,0,11.811-3.438,14.764-8.533h27.326c1.794,3.98,4.623,10.166,5.53,12.287     C320.525,263.192,324.524,283.384,324.524,317.248z M264.791,223.382h-17.067v-34.133h17.067V223.382z M298.953,200.049     c0.002,0.076,0.006,0.15,0.008,0.225c0.142,5.232,0.744,9.941,1.836,14.574h-18.939v-17.067h17.067     C298.924,198.549,298.935,199.304,298.953,200.049z M335.547,74.13c-5.037,12.446-10.075,25.48-14.78,38.48     c-2.642,7.298-5.107,14.391-7.363,21.219c-6.099,18.458-10.44,34.217-12.697,46.886h-21.152     c-2.953-5.096-8.452-8.533-14.764-8.533h-17.067c-6.311,0-11.811,3.438-14.764,8.533h-21.152     c-2.257-12.669-6.598-28.428-12.697-46.886c-2.256-6.828-4.721-13.921-7.363-21.219c-4.706-13-9.743-26.034-14.78-38.48     c-1.153-2.849-2.252-5.534-3.287-8.034c5.558-2.125,11.106-4.281,16.303-6.35c1.3-0.518,1.3-0.518,2.598-1.039     c3.201-1.286,6.12-2.483,8.726-3.579l47.459,87.009c3.234,5.93,11.748,5.93,14.983,0l47.459-87.009     c2.606,1.096,5.525,2.293,8.726,3.579c1.297,0.521,1.297,0.521,2.598,1.039c5.197,2.069,10.744,4.225,16.303,6.35     C337.8,68.596,336.701,71.281,335.547,74.13z"/>
		</g>
	</g>
</g>
<g>
</g>
<g>
</g>
<g>
</g>
<g>
</g>
<g>
</g>
<g>
</g>
<g>
</g>
<g>
</g>
<g>
</g>
<g>
</g>
<g>
</g>
<g>
</g>
<g>
</g>
<g>
</g>
<g>
</g>
</svg>
