<?xml version="1.0" encoding="iso-8859-1"?>
<!-- Generator: Adobe Illustrator 19.0.0, SVG Export Plug-In . SVG Version: 6.00 Build 0)  -->
<svg xmlns="http://www.w3.org/2000/svg" xmlns:xlink="http://www.w3.org/1999/xlink" version="1.1" id="Layer_1" x="0px" y="0px" viewBox="0 0 512 512" style="enable-background:new 0 0 512 512;" xml:space="preserve">
<g transform="translate(0 -1)">
	<g>
		<g>
			<path d="M426.497,468.642c-0.107-0.529-0.314-1.515-0.622-2.93c-0.508-2.333-1.119-5.033-1.834-8.069     c-2.036-8.65-4.499-18.279-7.397-28.645c-8.283-29.628-18.4-59.263-30.435-86.984c-17.875-41.173-38.409-74.483-61.943-97.226     v-27.25c3.627-4.556,7.977-11.904,12.19-22.436c8.109-20.271,13.028-46.54,13.376-79.433     c14.499-13.762,25.668-28.056,25.668-37.87c0-22.073-15.879-35.387-49.677-40.389c-0.517-0.133-1.052-0.224-1.604-0.259     c-0.048-0.003-0.095,0-0.142-0.002c-9.832-1.347-21.13-2.016-33.944-2.016c-4.713,0-8.533-3.822-8.533-8.533V9.533     c0-4.713-3.82-8.533-8.533-8.533h-34.133c-4.713,0-8.533,3.82-8.533,8.533V26.6c0,4.712-3.82,8.533-8.533,8.533     c-12.815,0-24.112,0.669-33.944,2.016c-0.048,0.002-0.094-0.001-0.142,0.002c-0.552,0.035-1.087,0.126-1.604,0.259     c-33.798,5.003-49.677,18.317-49.677,40.389c0,9.814,11.169,24.108,25.668,37.87c0.348,32.892,5.268,59.161,13.376,79.433     c4.213,10.532,8.563,17.88,12.19,22.436v27.25c-23.534,22.743-44.068,56.053-61.943,97.226     c-12.035,27.72-22.152,57.356-30.435,86.984c-2.898,10.365-5.361,19.994-7.397,28.645c-0.715,3.036-1.326,5.736-1.834,8.069     c-0.308,1.414-0.515,2.401-0.622,2.93c-0.883,4.364,1.738,8.674,6.02,9.897c0.951,0.272,2.74,0.777,5.271,1.482     c4.21,1.173,8.97,2.479,14.185,3.885c14.899,4.018,30.468,8.035,45.945,11.787c8.116,1.967,16.006,3.812,23.609,5.512     C214.162,508.725,240.109,513,256,513c15.891,0,41.838-4.275,75.468-11.795c7.603-1.7,15.493-3.545,23.609-5.512     c15.477-3.752,31.045-7.77,45.945-11.787c5.215-1.406,9.976-2.713,14.185-3.885c2.531-0.705,4.32-1.21,5.271-1.482     C424.759,477.315,427.38,473.006,426.497,468.642z M358.434,77.8c0,2.85-8.524,13.71-18.251,23.416     c-0.29-0.154-0.588-0.291-0.881-0.439c-0.372-0.188-0.742-0.377-1.118-0.557c-0.495-0.237-0.994-0.461-1.495-0.682     c-0.371-0.164-0.74-0.332-1.114-0.488c-0.522-0.218-1.05-0.419-1.578-0.621c-0.361-0.138-0.72-0.282-1.084-0.413     c-0.572-0.205-1.151-0.391-1.729-0.578c-0.326-0.105-0.65-0.22-0.978-0.319c-0.4-0.121-0.804-0.226-1.207-0.338l2.61-41.262     C350.784,59.568,358.434,67.21,358.434,77.8z M247.467,26.6v-8.533h17.067V26.6c0,14.136,11.46,25.6,25.6,25.6     c9.237,0,17.377,0.318,24.525,0.933l-2.622,41.461c-0.044,0-0.089,0.003-0.133,0.003c-0.549,0.007-1.099,0.019-1.649,0.04     c-0.43,0.017-0.861,0.039-1.292,0.064c-0.549,0.032-1.097,0.071-1.647,0.118c-0.433,0.036-0.866,0.076-1.299,0.121     c-0.551,0.057-1.102,0.124-1.653,0.195c-0.431,0.056-0.861,0.112-1.292,0.176c-0.559,0.083-1.117,0.178-1.675,0.276     c-0.422,0.074-0.844,0.145-1.265,0.227c-0.575,0.112-1.148,0.238-1.722,0.365c-0.404,0.089-0.808,0.173-1.211,0.27     c-0.606,0.145-1.211,0.308-1.815,0.47c-0.37,0.099-0.74,0.19-1.109,0.296c-0.697,0.199-1.391,0.419-2.085,0.64     c-0.274,0.088-0.55,0.165-0.824,0.257c-0.967,0.322-1.93,0.664-2.89,1.029c-0.184,0.07-0.366,0.15-0.55,0.222     c-0.773,0.302-1.545,0.61-2.313,0.94c-0.342,0.147-0.681,0.309-1.023,0.461c-0.606,0.271-1.211,0.542-1.813,0.831     c-0.382,0.184-0.761,0.38-1.141,0.571c-0.556,0.279-1.112,0.558-1.664,0.852c-0.395,0.21-0.786,0.432-1.178,0.65     c-0.532,0.296-1.062,0.593-1.589,0.903c-0.399,0.234-0.794,0.478-1.19,0.72c-0.514,0.315-1.026,0.634-1.536,0.962     c-0.397,0.257-0.792,0.52-1.187,0.785c-0.501,0.337-0.999,0.679-1.495,1.029c-0.392,0.277-0.781,0.557-1.17,0.842     c-0.491,0.361-0.979,0.73-1.465,1.104c-0.382,0.294-0.763,0.59-1.141,0.893c-0.485,0.389-0.966,0.788-1.444,1.19     c-0.367,0.309-0.735,0.616-1.099,0.933c-0.484,0.421-0.96,0.856-1.437,1.292c-0.348,0.318-0.698,0.632-1.042,0.958     c-0.492,0.466-0.974,0.947-1.458,1.428c-0.317,0.315-0.637,0.624-0.95,0.946c-0.529,0.544-1.046,1.107-1.564,1.669     c-0.256,0.279-0.518,0.548-0.772,0.832c-0.765,0.855-1.519,1.729-2.257,2.627c-0.738-0.897-1.492-1.771-2.257-2.627     c-0.253-0.283-0.515-0.553-0.772-0.832c-0.518-0.563-1.035-1.126-1.564-1.669c-0.312-0.321-0.632-0.629-0.948-0.944     c-0.484-0.482-0.968-0.964-1.46-1.431c-0.343-0.325-0.693-0.639-1.04-0.956c-0.477-0.436-0.954-0.871-1.438-1.293     c-0.364-0.317-0.731-0.624-1.099-0.933c-0.479-0.402-0.959-0.802-1.444-1.19c-0.378-0.303-0.759-0.598-1.141-0.893     c-0.486-0.374-0.973-0.744-1.465-1.104c-0.388-0.285-0.778-0.565-1.17-0.842c-0.496-0.35-0.994-0.693-1.495-1.03     c-0.394-0.265-0.788-0.527-1.185-0.784c-0.51-0.329-1.023-0.648-1.538-0.964c-0.395-0.242-0.79-0.485-1.189-0.719     c-0.527-0.31-1.058-0.607-1.59-0.903c-0.392-0.218-0.784-0.44-1.178-0.65c-0.552-0.294-1.109-0.574-1.665-0.853     c-0.38-0.19-0.757-0.387-1.139-0.57c-0.603-0.29-1.21-0.561-1.817-0.833c-0.34-0.152-0.677-0.313-1.018-0.459     c-0.768-0.33-1.541-0.639-2.315-0.941c-0.183-0.071-0.365-0.151-0.548-0.221c-0.96-0.365-1.923-0.708-2.89-1.029     c-0.273-0.091-0.547-0.168-0.821-0.255c-0.695-0.222-1.39-0.442-2.088-0.641c-0.369-0.105-0.739-0.197-1.109-0.296     c-0.605-0.162-1.209-0.325-1.815-0.47c-0.403-0.097-0.807-0.181-1.211-0.27c-0.574-0.127-1.148-0.253-1.723-0.365     c-0.422-0.082-0.843-0.153-1.265-0.227c-0.558-0.098-1.117-0.193-1.675-0.276c-0.431-0.064-0.861-0.12-1.292-0.176     c-0.551-0.071-1.102-0.138-1.653-0.195c-0.433-0.045-0.866-0.085-1.299-0.121c-0.55-0.046-1.099-0.086-1.647-0.118     c-0.431-0.025-0.862-0.048-1.292-0.064c-0.551-0.021-1.1-0.033-1.649-0.04c-0.044-0.001-0.089-0.003-0.133-0.003l-2.622-41.461     c7.149-0.615,15.288-0.933,24.526-0.933C236.007,52.2,247.467,40.736,247.467,26.6z M153.566,77.8     c0-10.59,7.65-18.232,26.825-22.283l2.61,41.262c-0.402,0.112-0.807,0.217-1.207,0.338c-0.328,0.099-0.652,0.214-0.978,0.319     c-0.579,0.187-1.157,0.373-1.729,0.578c-0.364,0.13-0.723,0.275-1.084,0.413c-0.528,0.202-1.056,0.403-1.578,0.621     c-0.374,0.156-0.743,0.324-1.114,0.488c-0.501,0.222-1.001,0.446-1.495,0.682c-0.375,0.18-0.746,0.369-1.118,0.557     c-0.293,0.148-0.591,0.285-0.881,0.439C162.09,91.51,153.566,80.65,153.566,77.8z M179.232,116.623     c0.075-0.042,0.148-0.088,0.223-0.129c0.294-0.16,0.594-0.307,0.891-0.459c0.387-0.198,0.774-0.396,1.168-0.58     c0.311-0.145,0.626-0.279,0.941-0.416c0.391-0.17,0.783-0.34,1.181-0.498c0.323-0.128,0.65-0.247,0.976-0.367     c0.398-0.146,0.797-0.289,1.2-0.423c0.334-0.11,0.671-0.213,1.008-0.315c0.404-0.122,0.81-0.24,1.219-0.349     c0.342-0.092,0.687-0.178,1.033-0.261c0.412-0.099,0.826-0.192,1.242-0.279c0.349-0.073,0.698-0.141,1.049-0.205     c0.026-0.005,0.052-0.008,0.078-0.013c0.36,0.023,0.723,0.032,1.093,0.008c0.811-0.051,1.585-0.221,2.315-0.48     c0.045-0.004,0.089-0.01,0.134-0.015c0.357-0.034,0.714-0.068,1.073-0.094c0.437-0.031,0.876-0.052,1.315-0.07     c0.357-0.015,0.715-0.032,1.074-0.039c0.447-0.008,0.897-0.004,1.346,0c0.355,0.004,0.709,0.004,1.065,0.015     c0.461,0.015,0.924,0.045,1.386,0.073c0.347,0.021,0.694,0.037,1.042,0.066c0.483,0.04,0.967,0.097,1.451,0.152     c0.33,0.038,0.66,0.068,0.991,0.112c0.528,0.071,1.056,0.161,1.584,0.249c0.288,0.048,0.576,0.087,0.865,0.14     c0.704,0.13,1.408,0.28,2.112,0.441c0.113,0.026,0.226,0.045,0.339,0.072c0.817,0.192,1.633,0.406,2.449,0.639     c0.254,0.073,0.507,0.159,0.761,0.236c0.561,0.17,1.122,0.339,1.681,0.528c0.318,0.108,0.634,0.23,0.952,0.344     c0.493,0.177,0.987,0.352,1.478,0.545c0.34,0.133,0.679,0.28,1.018,0.421c0.466,0.193,0.932,0.385,1.396,0.592     c0.349,0.156,0.696,0.324,1.044,0.488c0.45,0.212,0.901,0.424,1.348,0.649c0.354,0.178,0.706,0.367,1.058,0.553     c0.437,0.231,0.873,0.463,1.306,0.707c0.355,0.199,0.707,0.408,1.059,0.616c0.427,0.252,0.853,0.506,1.276,0.771     c0.351,0.219,0.699,0.445,1.048,0.673c0.419,0.274,0.836,0.552,1.251,0.838c0.346,0.238,0.689,0.482,1.032,0.729     c0.41,0.296,0.818,0.598,1.224,0.906c0.34,0.258,0.678,0.519,1.014,0.786c0.401,0.318,0.8,0.644,1.196,0.974     c0.332,0.277,0.663,0.555,0.991,0.84c0.393,0.342,0.782,0.693,1.17,1.047c0.321,0.293,0.642,0.587,0.96,0.889     c0.387,0.368,0.768,0.748,1.149,1.128c0.309,0.309,0.618,0.616,0.923,0.933c0.38,0.396,0.753,0.804,1.126,1.213     c0.294,0.322,0.59,0.64,0.88,0.971c0.377,0.429,0.745,0.874,1.114,1.316c0.274,0.329,0.552,0.653,0.822,0.99     c0.38,0.475,0.75,0.966,1.122,1.456c0.246,0.325,0.498,0.642,0.74,0.973c0.405,0.555,0.798,1.128,1.191,1.701     c0.196,0.285,0.398,0.561,0.591,0.851c0.58,0.872,1.147,1.763,1.698,2.676c3.318,5.499,11.294,5.499,14.612,0     c0.551-0.913,1.118-1.804,1.698-2.676c0.193-0.29,0.395-0.566,0.591-0.851c0.393-0.573,0.786-1.147,1.191-1.701     c0.242-0.331,0.494-0.649,0.74-0.973c0.371-0.489,0.741-0.981,1.122-1.456c0.27-0.337,0.548-0.66,0.822-0.99     c0.369-0.443,0.737-0.887,1.114-1.316c0.29-0.33,0.586-0.648,0.88-0.971c0.373-0.409,0.746-0.817,1.126-1.213     c0.305-0.317,0.615-0.624,0.924-0.933c0.38-0.38,0.761-0.759,1.147-1.127c0.318-0.303,0.64-0.596,0.962-0.891     c0.387-0.354,0.776-0.705,1.168-1.046c0.328-0.285,0.66-0.564,0.992-0.841c0.396-0.33,0.794-0.656,1.195-0.973     c0.337-0.267,0.676-0.529,1.016-0.787c0.405-0.307,0.812-0.609,1.221-0.904c0.343-0.248,0.688-0.492,1.034-0.731     c0.414-0.286,0.83-0.563,1.248-0.836c0.349-0.228,0.698-0.455,1.05-0.674c0.423-0.264,0.848-0.518,1.275-0.77     c0.352-0.208,0.705-0.417,1.059-0.616c0.433-0.244,0.87-0.476,1.306-0.707c0.352-0.186,0.704-0.375,1.058-0.553     c0.447-0.225,0.897-0.437,1.347-0.648c0.348-0.164,0.696-0.332,1.046-0.489c0.463-0.207,0.929-0.398,1.394-0.591     c0.34-0.141,0.679-0.288,1.02-0.422c0.492-0.193,0.986-0.368,1.48-0.545c0.317-0.114,0.632-0.236,0.949-0.343     c0.559-0.189,1.119-0.358,1.68-0.528c0.255-0.077,0.508-0.164,0.763-0.237c0.815-0.233,1.632-0.447,2.449-0.639     c0.111-0.026,0.222-0.045,0.333-0.07c0.706-0.161,1.412-0.312,2.117-0.442c0.289-0.053,0.577-0.092,0.865-0.14     c0.528-0.088,1.057-0.178,1.584-0.249c0.331-0.044,0.661-0.074,0.991-0.112c0.484-0.055,0.968-0.112,1.45-0.152     c0.348-0.029,0.695-0.045,1.042-0.067c0.463-0.029,0.925-0.058,1.386-0.073c0.356-0.012,0.71-0.012,1.065-0.015     c0.45-0.004,0.899-0.009,1.346,0c0.359,0.007,0.716,0.024,1.074,0.039c0.439,0.019,0.878,0.039,1.315,0.07     c0.359,0.026,0.716,0.06,1.074,0.094c0.045,0.004,0.089,0.01,0.133,0.015c0.73,0.259,1.504,0.429,2.315,0.48     c0.37,0.023,0.733,0.015,1.093-0.008c0.026,0.005,0.052,0.008,0.078,0.013c0.352,0.064,0.701,0.133,1.05,0.205     c0.416,0.087,0.83,0.18,1.242,0.279c0.346,0.083,0.691,0.169,1.033,0.261c0.409,0.109,0.814,0.227,1.218,0.349     c0.338,0.102,0.674,0.205,1.009,0.315c0.403,0.133,0.802,0.277,1.199,0.422c0.327,0.12,0.654,0.239,0.977,0.367     c0.397,0.157,0.788,0.327,1.18,0.497c0.315,0.137,0.63,0.271,0.941,0.416c0.393,0.184,0.78,0.382,1.167,0.579     c0.298,0.152,0.599,0.299,0.893,0.459c0.075,0.041,0.148,0.087,0.223,0.128c-0.422,30.298-4.94,54.1-12.157,72.142     c-2.58,6.451-5.305,11.627-7.977,15.636c-0.347,0.521-0.668,0.985-0.965,1.402h-30.071c-0.064-9.437-7.728-17.068-17.18-17.068     h-16.836c-9.453,0-17.108,7.633-17.172,17.068h-30.078c-0.297-0.417-0.617-0.881-0.965-1.402     c-2.673-4.009-5.397-9.185-7.977-15.636C184.173,170.722,179.654,146.92,179.232,116.623z M281.603,222.868H307.2v17.067h-25.597     V222.868z M264.537,214.267c0,0.023-0.003,0.045-0.003,0.068v34.133c0,0.023,0.003,0.045,0.003,0.068v8.344     c0,0.066-0.054,0.12-0.119,0.12h-16.836c-0.062,0-0.111-0.049-0.111-0.12v-50.961c0-0.07,0.049-0.119,0.111-0.119h16.836     c0.066,0,0.119,0.054,0.119,0.119V214.267z M204.8,222.868h25.6v17.067h-25.6V222.868z M396.578,467.428     c-7.536,2.032-15.246,4.064-23.025,6.06c-1.565-1.924-3.949-3.155-6.62-3.155c-4.163,0-7.628,2.988-8.378,6.935     c-2.5,0.619-5.001,1.233-7.499,1.839c-3.431,0.832-6.81,1.636-10.152,2.421c0.275-0.838,0.429-1.731,0.429-2.661     c0-4.71-3.823-8.533-8.533-8.533c-4.71,0-8.533,3.823-8.533,8.533c0,2.302,0.917,4.387,2.4,5.923     c-31.903,7.101-56.592,11.144-70.667,11.144c-12.282,0-32.648-3.079-58.834-8.582c4.288-0.45,7.634-4.079,7.634-8.485     c0-4.71-3.823-8.533-8.533-8.533s-8.533,3.823-8.533,8.533c0,3.158,1.723,5.911,4.275,7.386     c-2.536-0.547-5.117-1.114-7.752-1.703c-4.546-1.016-9.211-2.092-13.957-3.21c0.237-0.783,0.368-1.613,0.368-2.473     c0-4.71-3.823-8.533-8.533-8.533c-4.189,0-7.669,3.026-8.39,7.009c-12.937-3.198-25.866-6.555-38.322-9.914     c-4.136-1.115-7.982-2.167-11.488-3.137c0.202-0.877,0.414-1.79,0.637-2.737c0.162-0.69,0.332-1.396,0.5-2.099     c1.53,1.45,3.59,2.345,5.863,2.345c4.71,0,8.533-3.823,8.533-8.533s-3.823-8.533-8.533-8.533c-0.778,0-1.529,0.113-2.245,0.309     c0.971-3.698,2.004-7.517,3.103-11.449c4.567-16.337,9.725-32.657,15.437-48.632C127.483,384.984,127.74,385,128,385     c4.71,0,8.533-3.823,8.533-8.533c0-2.863-1.417-5.392-3.583-6.94c1.749-4.514,3.563-8.972,5.408-13.4     c1.563,1.99,3.984,3.273,6.709,3.273c4.71,0,8.533-3.823,8.533-8.533c0-4.71-3.823-8.533-8.533-8.533     c-0.26,0-0.516,0.016-0.77,0.039c16.384-36.346,34.888-65.605,55.363-85.37h30.75c0.023,3.284,0.976,6.339,2.594,8.94     c-0.821-0.263-1.695-0.408-2.603-0.408c-4.71,0-8.533,3.823-8.533,8.533c0,4.71,3.823,8.533,8.533,8.533     c4.71,0,8.533-3.823,8.533-8.533c0-0.907-0.145-1.78-0.407-2.6c2.631,1.638,5.726,2.6,9.055,2.6H256     c0,4.71,3.823,8.533,8.533,8.533s8.533-3.823,8.533-8.533c0-0.753-0.107-1.48-0.291-2.175c5.23-2.919,8.777-8.485,8.822-14.889     h30.743c4.297,4.148,8.507,8.717,12.629,13.679c-0.45,1.039-0.703,2.183-0.703,3.386c0,4.71,3.823,8.533,8.533,8.533     c0.439,0,0.867-0.044,1.288-0.108c2.896,4.024,5.744,8.249,8.545,12.664c-0.819,1.31-1.3,2.853-1.3,4.51     c0,4.71,3.823,8.533,8.533,8.533c0.194,0,0.384-0.016,0.575-0.029c2.775,4.882,5.501,9.949,8.175,15.206     c-0.138,0.609-0.217,1.24-0.217,1.89c0,3.433,2.035,6.386,4.959,7.74c2.443,5.117,4.843,10.384,7.196,15.804     c6.414,14.773,12.26,30.154,17.584,45.797c-1.227-0.683-2.637-1.075-4.14-1.075c-4.71,0-8.533,3.823-8.533,8.533     c0,4.71,3.823,8.533,8.533,8.533c3.458,0,6.432-2.065,7.772-5.024c1.599,4.967,3.152,9.948,4.644,14.944     c-2.335,1.523-3.882,4.154-3.882,7.147c0,4.664,3.749,8.452,8.395,8.526c2.52,9.139,4.688,17.659,6.501,25.36     c0.223,0.948,0.435,1.86,0.637,2.737C404.56,465.261,400.714,466.312,396.578,467.428z"/>
			<circle cx="264.533" cy="325.267" r="8.533"/>
			<circle cx="264.533" cy="376.467" r="8.533"/>
			<circle cx="264.533" cy="427.667" r="8.533"/>
			<circle cx="196.267" cy="274.067" r="8.533"/>
			<circle cx="179.2" cy="299.667" r="8.533"/>
			<circle cx="213.333" cy="299.667" r="8.533"/>
			<circle cx="247.467" cy="299.667" r="8.533"/>
			<circle cx="162.133" cy="325.267" r="8.533"/>
			<circle cx="196.267" cy="325.267" r="8.533"/>
			<circle cx="179.2" cy="350.867" r="8.533"/>
			<circle cx="213.333" cy="350.867" r="8.533"/>
			<circle cx="230.4" cy="325.267" r="8.533"/>
			<circle cx="247.467" cy="350.867" r="8.533"/>
			<circle cx="145.067" cy="402.067" r="8.533"/>
			<circle cx="128" cy="427.667" r="8.533"/>
			<circle cx="145.067" cy="453.267" r="8.533"/>
			<circle cx="162.133" cy="376.467" r="8.533"/>
			<circle cx="196.267" cy="376.467" r="8.533"/>
			<circle cx="179.2" cy="402.067" r="8.533"/>
			<circle cx="213.333" cy="402.067" r="8.533"/>
			<circle cx="230.4" cy="376.467" r="8.533"/>
			<circle cx="247.467" cy="402.067" r="8.533"/>
			<circle cx="162.133" cy="427.667" r="8.533"/>
			<circle cx="196.267" cy="427.667" r="8.533"/>
			<circle cx="179.2" cy="453.267" r="8.533"/>
			<circle cx="213.333" cy="453.267" r="8.533"/>
			<circle cx="230.4" cy="427.667" r="8.533"/>
			<circle cx="247.467" cy="453.267" r="8.533"/>
			<circle cx="264.533" cy="478.867" r="8.533"/>
			<circle cx="230.4" cy="478.867" r="8.533"/>
			<circle cx="315.733" cy="299.667" r="8.533"/>
			<circle cx="298.667" cy="274.067" r="8.533"/>
			<circle cx="281.6" cy="299.667" r="8.533"/>
			<circle cx="332.8" cy="325.267" r="8.533"/>
			<circle cx="349.867" cy="350.867" r="8.533"/>
			<circle cx="315.733" cy="350.867" r="8.533"/>
			<circle cx="298.667" cy="325.267" r="8.533"/>
			<circle cx="281.6" cy="350.867" r="8.533"/>
			<circle cx="384" cy="453.267" r="8.533"/>
			<circle cx="366.933" cy="376.467" r="8.533"/>
			<circle cx="332.8" cy="376.467" r="8.533"/>
			<circle cx="349.867" cy="402.067" r="8.533"/>
			<circle cx="315.733" cy="402.067" r="8.533"/>
			<circle cx="298.667" cy="376.467" r="8.533"/>
			<circle cx="281.6" cy="402.067" r="8.533"/>
			<circle cx="366.933" cy="427.667" r="8.533"/>
			<circle cx="332.8" cy="427.667" r="8.533"/>
			<circle cx="349.867" cy="453.267" r="8.533"/>
			<circle cx="315.733" cy="453.267" r="8.533"/>
			<circle cx="298.667" cy="427.667" r="8.533"/>
			<circle cx="281.6" cy="453.267" r="8.533"/>
			<circle cx="298.667" cy="478.867" r="8.533"/>
		</g>
	</g>
</g>
<g>
</g>
<g>
</g>
<g>
</g>
<g>
</g>
<g>
</g>
<g>
</g>
<g>
</g>
<g>
</g>
<g>
</g>
<g>
</g>
<g>
</g>
<g>
</g>
<g>
</g>
<g>
</g>
<g>
</g>
</svg>
