<?xml version="1.0" encoding="iso-8859-1"?>
<!-- Generator: Adobe Illustrator 19.0.0, SVG Export Plug-In . SVG Version: 6.00 Build 0)  -->
<svg xmlns="http://www.w3.org/2000/svg" xmlns:xlink="http://www.w3.org/1999/xlink" version="1.1" id="Layer_1" x="0px" y="0px" viewBox="0 0 512.004 512.004" style="enable-background:new 0 0 512.004 512.004;" xml:space="preserve">
<g transform="translate(0 -1)">
	<g>
		<path d="M424.13,310.662c-41.652-41.121-71.498-74.881-84.324-99.358c-0.13-0.863-0.387-1.725-0.804-2.556    c-3.956-7.897-6.008-14.437-6.172-19.368c-0.005-0.213-0.029-0.435-0.029-0.646c0-0.708,0.022-1.439,0.046-2.173    c0.081-1.928,0.264-4.074,0.552-6.578c0.03-0.263,0.034-0.52,0.04-0.777c0.586-4.792,1.563-9.991,2.927-15.556    c2.126-8.676,5.094-17.951,8.69-27.514c2.73-7.262,5.66-14.264,8.587-20.735c1.749-3.865,3.098-6.675,3.847-8.162    c1.575-3.128,1.079-6.902-1.252-9.516c-6.661-7.471-11.214-17.624-13.837-29.873c-2.965-13.84-3.234-28.794-1.893-42.545    c0.276-2.826,0.546-4.835,0.713-5.843c0.726-4.386-2.036-8.594-6.349-9.672l-34.133-8.533c-4.095-1.024-8.323,1.1-9.946,4.996    c-0.328,0.787-1.081,2.369-2.25,4.471c-1.978,3.56-4.354,7.123-7.097,10.415c-7.416,8.898-15.912,13.996-25.444,13.996    s-18.028-5.098-25.444-13.996c-2.743-3.291-5.119-6.854-7.097-10.415c-1.168-2.103-1.922-3.685-2.25-4.471    c-1.624-3.896-5.852-6.02-9.946-4.996l-34.133,8.533c-4.313,1.078-7.075,5.287-6.349,9.672c0.167,1.008,0.437,3.017,0.713,5.843    c1.342,13.751,1.072,28.705-1.892,42.545c-2.624,12.249-7.177,22.402-13.838,29.873c-2.331,2.615-2.827,6.388-1.252,9.516    c0.749,1.488,2.098,4.297,3.847,8.162c2.928,6.472,5.857,13.474,8.587,20.735c3.595,9.562,6.564,18.838,8.69,27.514    c1.366,5.573,2.344,10.778,2.929,15.576c0.007,0.253,0.01,0.505,0.04,0.763c0.294,2.552,0.48,4.779,0.554,6.787    c0.002,0.079,0.003,0.155,0.005,0.233c0.019,0.589,0.033,1.167,0.033,1.721c0,5.003-2.076,11.788-6.197,20.023    c-0.414,0.828-0.669,1.684-0.8,2.543c-12.824,24.478-42.671,58.24-84.328,99.365c-1.659,1.638-2.575,3.883-2.537,6.213    c0.071,4.315,1.077,10.228,3.99,16.334c8.381,17.563,26.966,23.271,54.28,11.369c1.886,14.39,4.373,33.543,7.329,56.413    l0.129,0.996c2.446,18.922,5.058,39.196,7.665,59.47c0.912,7.096,1.759,13.685,2.518,19.598c0.781,6.082,0.781,6.082,0.954,7.433    c0.417,3.25,2.657,5.974,5.766,7.01c0.436,0.145,1.24,0.407,2.378,0.77c1.877,0.597,4.022,1.261,6.402,1.975    c6.787,2.036,14.112,4.071,21.716,5.972c9.807,2.452,19.357,4.498,28.4,6.005c10.828,1.805,20.609,2.783,29.136,2.783    s18.308-0.978,29.136-2.783c9.043-1.507,18.593-3.554,28.4-6.005c7.603-1.901,14.929-3.936,21.716-5.972    c2.38-0.714,4.525-1.378,6.402-1.975c1.138-0.362,1.942-0.624,2.378-0.77c3.108-1.036,5.348-3.76,5.765-7.009    c0.173-1.351,0.173-1.351,0.955-7.433c0.76-5.913,1.607-12.503,2.52-19.599c2.608-20.274,5.221-40.549,7.667-59.471l0.119-0.924    c2.96-22.902,5.451-42.081,7.337-56.487c27.314,11.905,45.901,6.197,54.283-11.367c2.914-6.105,3.919-12.018,3.99-16.334    C426.706,314.544,425.789,312.3,424.13,310.662z M281.721,195.885c11.288-1.234,22.719-3.208,34.036-5.805    c0.01,0.272,0.036,0.549,0.052,0.824c0.252,4.998,1.36,10.274,3.312,15.865c-12.43,2.823-25.025,4.94-37.399,6.216V195.885z     M173.91,108.367c-0.607-1.341-1.189-2.607-1.744-3.793c6.8-9.183,11.392-20.392,14.125-33.15    c3.324-15.52,3.676-31.795,2.274-46.901l20.177-5.044c2.172,3.862,5.062,8.214,8.706,12.586    c10.363,12.435,23.199,20.137,38.554,20.137s28.191-7.702,38.554-20.137c3.643-4.372,6.534-8.724,8.706-12.586l20.177,5.044    c-1.402,15.106-1.051,31.381,2.274,46.901c2.733,12.758,7.325,23.967,14.125,33.15c-0.555,1.186-1.137,2.452-1.744,3.793    c-3.072,6.792-6.143,14.131-9.013,21.763c-3.819,10.156-6.988,20.061-9.291,29.458c-1.069,4.362-1.928,8.557-2.584,12.591    c-12.815,3.182-25.822,5.541-38.566,6.871c-3.105-4.459-8.26-7.383-14.105-7.383h-16.836c-5.853,0-11.011,2.931-14.112,7.4    c-12.833-1.327-25.93-3.693-38.789-6.885c-0.656-4.035-1.515-8.231-2.584-12.594c-2.303-9.397-5.472-19.302-9.291-29.458    C180.053,122.498,176.982,115.159,173.91,108.367z M247.588,189.596c0.027-0.161,0.059-0.35,0.096-0.576    c0.01-0.096,0.008-0.19,0.015-0.286h16.836c0.001,0,0.001,0.001,0.002,0.001c0.007,0.091,0.005,0.181,0.014,0.273    c0.039,0.238,0.072,0.435,0.1,0.601v32.68c0,0.022,0.003,0.043,0.003,0.065v0.394c0,0.066-0.054,0.119-0.12,0.119h-16.836    c-0.062,0-0.111-0.049-0.111-0.119V189.596z M196.203,190.663c0.01-0.193,0.029-0.39,0.037-0.582    c11.379,2.609,22.9,4.591,34.278,5.824v17.101c-12.462-1.275-25.138-3.397-37.635-6.234    C194.867,201.088,195.975,195.733,196.203,190.663z M344.132,398.875l-0.119,0.924c-2.446,18.926-5.06,39.203-7.668,59.481    c-0.913,7.097-1.76,13.687-2.52,19.601c-0.099,0.772-0.186,1.447-0.262,2.038c-0.972,0.299-2.046,0.626-3.215,0.977    c-6.546,1.964-13.621,3.929-20.951,5.762c-9.393,2.348-18.51,4.302-27.067,5.728c-9.972,1.662-18.858,2.551-26.33,2.551    s-16.358-0.889-26.33-2.551c-8.557-1.426-17.673-3.38-27.067-5.728c-7.33-1.833-14.404-3.798-20.951-5.762    c-1.168-0.35-2.242-0.677-3.214-0.977c-0.076-0.591-0.162-1.266-0.262-2.038c-0.759-5.914-1.606-12.504-2.519-19.602    c-2.607-20.278-5.22-40.555-7.666-59.481l-0.129-0.997c-3.01-23.285-5.536-42.733-7.435-57.219    c5.269,0.328,10.585,1.749,15.513,4.141c0.099,0.048,0.2,0.092,0.298,0.142c0.665,0.329,1.319,0.685,1.968,1.049    c0.162,0.091,0.328,0.174,0.489,0.268c0.703,0.407,1.393,0.839,2.074,1.287c0.072,0.047,0.146,0.089,0.218,0.136    c2.103,1.404,4.135,2.961,6.099,4.665c2.924,2.54,5.696,5.419,8.285,8.676c14.711,18.515,31.681,18.515,45.447,7.007    c3.243-2.711,5.583-5.418,6.988-7.429c-0.206,0.286,0.085,0.007,0.836-0.44c0.09-0.054,0.189-0.102,0.283-0.154    c1.722-0.838,3.444-1.31,5.495-1.466c0.505-0.037,1.024-0.062,1.58-0.062c3.277,0,5.653,0.662,7.367,1.682    c0.583,0.348,0.881,0.586,0.93,0.598c0.019,0.008,0.009-0.01-0.007-0.036c1.324,1.896,3.662,4.599,6.9,7.306    c13.766,11.508,30.737,11.508,45.447-7.007c2.562-3.224,5.3-6.074,8.184-8.59c1.836-1.599,3.735-3.065,5.694-4.401    c0.166-0.113,0.329-0.234,0.496-0.345c0.763-0.509,1.541-0.99,2.332-1.447c0.093-0.054,0.19-0.102,0.283-0.155    c0.718-0.407,1.444-0.799,2.181-1.163c0.049-0.024,0.099-0.046,0.149-0.071c4.959-2.424,10.313-3.86,15.617-4.191    C349.674,356.085,347.146,375.559,344.132,398.875z M407.275,325.858c-4.265,8.938-13.039,11.568-32.751,2.778    c-15.859-7.065-34.938-5.114-50.499,4.212c-0.115,0.069-0.23,0.139-0.345,0.208c-0.718,0.437-1.43,0.883-2.132,1.351    c-0.244,0.163-0.481,0.338-0.723,0.503c-2.654,1.812-5.221,3.815-7.694,6.008c-3.491,3.092-6.792,6.546-9.862,10.41    c-8.202,10.328-14.196,10.328-21.131,4.53c-1.933-1.616-3.332-3.235-3.943-4.108c-1.249-1.729-3.212-3.613-6.094-5.329    c-4.34-2.585-9.73-4.086-16.1-4.086s-11.76,1.501-16.1,4.086c-2.881,1.716-4.844,3.6-6.012,5.214    c-0.692,0.988-2.091,2.607-4.024,4.223c-6.935,5.798-12.928,5.798-21.13-4.529c-3.175-3.997-6.596-7.557-10.22-10.728    c-2.586-2.264-5.27-4.334-8.053-6.191c-0.039-0.026-0.079-0.049-0.117-0.074c-0.64-0.425-1.289-0.833-1.942-1.231    c-0.163-0.099-0.325-0.198-0.489-0.295c-15.553-9.293-34.599-11.229-50.433-4.175c-19.714,8.792-28.489,6.161-32.754-2.776    c-0.884-1.852-1.513-3.9-1.909-5.976c40.2-39.856,68.512-71.522,82.799-97.279c15.443,3.671,31.209,6.306,46.67,7.704    c2.796,5.696,8.634,9.627,15.41,9.627h16.836c6.782,0,12.629-3.938,15.425-9.644c15.368-1.403,31.047-4.032,46.424-7.689    c14.287,25.757,42.599,57.423,82.8,97.281C408.787,321.958,408.158,324.007,407.275,325.858z"/>
	</g>
</g>
<g>
</g>
<g>
</g>
<g>
</g>
<g>
</g>
<g>
</g>
<g>
</g>
<g>
</g>
<g>
</g>
<g>
</g>
<g>
</g>
<g>
</g>
<g>
</g>
<g>
</g>
<g>
</g>
<g>
</g>
</svg>
