<?xml version="1.0" encoding="iso-8859-1"?>
<!-- Generator: Adobe Illustrator 19.0.0, SVG Export Plug-In . SVG Version: 6.00 Build 0)  -->
<svg xmlns="http://www.w3.org/2000/svg" xmlns:xlink="http://www.w3.org/1999/xlink" version="1.1" id="Layer_1" x="0px" y="0px" viewBox="0 0 511.996 511.996" style="enable-background:new 0 0 511.996 511.996;" xml:space="preserve">
<g transform="translate(0 -1)">
	<g>
		<path d="M452.179,469.122c-6.91-48.344-25.536-93.97-54.32-132.529c-20.541-27.514-42.022-51.815-62.367-72.135    c-0.356-0.355-0.698-0.721-1.028-1.095c-4.622-5.326-6.58-12.479-5.33-19.51c0.089-0.478,0.191-0.955,0.31-1.43    c5.671-22.62,11.33-58.394,12.136-75.548c44.54-38.045,58.522-68.109,54.388-88.944c-0.251-1.267-0.547-2.264-0.83-2.986    l-0.385-0.843c-2.424-4.622-5.974-8.632-10.392-12.067c-13.195-10.236-24.911-12.955-51.329-15.11    c-11.905-0.972-17.175-1.597-23.155-2.972c-11.655-2.68-18.917-9.055-19.787-18.163c-0.007-0.073-0.021-3.667-0.008-7.656    c0.005-1.395,0.009-2.299,0.02-4.403c0.01-1.787,0.02-3.26,0.026-4.133C290.164,4.86,286.333,1,281.595,1h-51.2    c-4.738,0-8.569,3.86-8.533,8.598c0.007,0.873,0.017,2.346,0.026,4.133c0.011,2.104,0.015,3.008,0.02,4.403    c0.013,3.989-0.001,7.583-0.007,7.647c-0.87,9.117-8.132,15.493-19.786,18.172c-5.981,1.376-11.251,2.001-22.801,2.944    c-26.773,2.184-38.489,4.903-51.677,15.134c-4.425,3.441-7.976,7.45-10.399,12.072l-0.385,0.843    c-0.284,0.722-0.579,1.719-0.83,2.986c-4.134,20.835,9.847,50.898,54.385,88.942c0.806,17.147,6.47,52.918,12.144,75.551    c0.247,0.985,0.428,1.975,0.546,2.965c0.747,6.591-1.344,13.256-5.837,18.264c-0.247,0.271-0.493,0.542-0.754,0.803    c-0.57,0.569-1.143,1.152-1.715,1.727c-0.251,0.252-0.479,0.482-0.697,0.702c-19.609,19.792-40.227,43.268-59.966,69.708    c-28.785,38.573-47.413,84.202-54.312,132.531c-0.407,2.852,0.652,5.717,2.817,7.618c9.491,8.334,38.124,19.179,52.222,19.179    c19.455,0,34.552-1.849,46.815-5.071c2.929-0.769,4.897-1.355,7.346-2.198c4.46,3.873,8.589,7.083,13.059,10.091    c13.17,8.861,26.578,14.253,39.789,14.253c13.26,0,23.399-1.826,30.852-5.014c1.193-0.51,2.285-1.04,3.281-1.582    c0.995,0.542,2.086,1.071,3.279,1.582c7.451,3.188,17.591,5.014,30.855,5.014c13.211,0,26.618-5.393,39.785-14.254    c4.469-3.007,8.598-6.218,12.305-9.434c3.208,0.189,5.165,0.771,8.099,1.541c12.263,3.222,27.357,5.071,46.811,5.071    c14.099,0,42.741-10.846,52.231-19.179C451.527,474.84,452.586,471.974,452.179,469.122z M314.517,231.397h-49.988v-59.731h59.63    C322.833,186.971,318.801,212.351,314.517,231.397z M247.462,171.667v59.731h-49.984c-4.287-19.053-8.322-44.43-9.649-59.731    H247.462z M200.324,248.464h111.348c0.045,5.933,1.405,11.754,3.959,17.067H196.365    C198.919,260.219,200.279,254.397,200.324,248.464z M379.241,81.318c0.837,4.336-0.099,11.249-4.697,20.912    c-7.153,15.035-21.522,32.542-44.858,52.366h-30.429c2.304-32.34,17.074-70.639,35.7-90.377    c20.869,1.857,29.776,4.19,38.936,11.295C376.22,77.324,378.023,79.275,379.241,81.318z M205.941,60.584    c18.138-4.17,31.282-15.71,32.949-33.173c0.094-0.971,0.104-3.6,0.085-9.334c0-0.003,34.04-0.01,34.04-0.01    c-0.019,5.744-0.009,8.373,0.086,9.353c1.666,17.455,14.81,28.994,32.95,33.165c2.855,0.657,5.516,1.16,8.486,1.594    c-17.696,24.156-30.392,60.686-32.388,92.417h-52.31c-1.996-31.731-14.692-68.262-32.389-92.418    C200.437,61.742,203.092,61.24,205.941,60.584z M137.447,102.23c-4.597-9.663-5.534-16.576-4.697-20.912    c1.217-2.042,3.021-3.994,5.355-5.809c9.197-7.135,18.146-9.455,38.927-11.291c18.626,19.737,33.398,58.038,35.702,90.379h-30.429    C158.969,134.772,144.6,117.265,137.447,102.23z M397.131,478.854c-18.026,0-31.665-1.671-42.474-4.511    c-3.919-1.03-5.725-1.641-10.732-3.487c-3.144-1.159-6.676-0.371-9.028,2.015c-0.64,0.649-1.961,1.899-3.86,3.546    c-3.209,2.784-6.796,5.574-10.649,8.166c-10.609,7.139-21.068,11.346-30.257,11.346c-11.077,0-18.953-1.419-24.142-3.638    c-2.391-1.023-3.22-1.678-3.098-1.511c-3.407-4.669-10.373-4.671-13.783-0.004c0.12-0.164-0.711,0.492-3.104,1.516    c-5.19,2.22-13.066,3.639-24.139,3.639c-9.189,0-19.65-4.207-30.262-11.347c-3.854-2.593-7.442-5.382-10.652-8.166    c-1.899-1.647-3.22-2.896-3.861-3.546c-2.354-2.386-5.886-3.174-9.031-2.013c-4.969,1.834-6.804,2.456-10.725,3.486    c-10.809,2.84-24.451,4.511-42.478,4.511c-8.572,0-28.062-6.934-37.365-12.439c7.05-43.621,24.268-84.712,50.314-119.613    c18.01-24.124,36.79-45.734,54.778-64.204H329.41c18.003,18.492,36.766,40.085,54.773,64.205    c26.045,34.89,43.261,75.976,50.321,119.612C425.199,471.919,405.704,478.854,397.131,478.854z"/>
	</g>
</g>
<g>
</g>
<g>
</g>
<g>
</g>
<g>
</g>
<g>
</g>
<g>
</g>
<g>
</g>
<g>
</g>
<g>
</g>
<g>
</g>
<g>
</g>
<g>
</g>
<g>
</g>
<g>
</g>
<g>
</g>
</svg>
