<?xml version="1.0" encoding="iso-8859-1"?>
<!-- Generator: Adobe Illustrator 19.0.0, SVG Export Plug-In . SVG Version: 6.00 Build 0)  -->
<svg xmlns="http://www.w3.org/2000/svg" xmlns:xlink="http://www.w3.org/1999/xlink" version="1.1" id="Layer_1" x="0px" y="0px" viewBox="0 0 511.999 511.999" style="enable-background:new 0 0 511.999 511.999;" xml:space="preserve">
<g transform="translate(0 -1)">
	<g>
		<path d="M426.042,482.072c0.047-0.116,0.086-0.235,0.128-0.353c0.074-0.214,0.149-0.426,0.206-0.644    c0.059-0.223,0.099-0.453,0.141-0.684c0.024-0.138,0.06-0.274,0.078-0.413c0.046-0.363,0.072-0.733,0.072-1.111    c0-0.022-0.001-0.043-0.001-0.065c0-0.013,0-0.026,0-0.039c-0.025-82.207-29.757-149.783-93.155-224.224    c-2.121-2.491-3.896-5.232-5.311-8.14c-0.117-0.461-0.26-0.922-0.462-1.378c-2.282-5.167-3.47-10.441-3.471-15.627    c0-0.003,0-0.005,0-0.008c0-0.879,0.028-1.749,0.08-2.61c0.003-0.05,0.006-0.099,0.009-0.149c0.045-0.707,0.117-1.405,0.197-2.099    c0.316-2.499,0.89-5.018,1.715-7.543c0.111-0.338,0.198-0.677,0.265-1.015c0.776-2.178,1.733-4.278,2.898-6.276    c11.971-20.586,19.975-51.37,20.415-94.036C364.337,101.9,375.5,87.611,375.5,77.8c0-22.073-15.879-35.387-49.677-40.389    c-0.517-0.133-1.052-0.224-1.604-0.259c-0.048-0.003-0.095,0-0.142-0.002c-9.832-1.347-21.13-2.016-33.944-2.016    c-4.713,0-8.533-3.822-8.533-8.533V9.533c0-4.713-3.82-8.533-8.533-8.533h-34.133c-4.713,0-8.533,3.82-8.533,8.533V26.6    c0,4.712-3.82,8.533-8.533,8.533c-12.815,0-24.112,0.669-33.944,2.016c-0.048,0.002-0.094-0.001-0.142,0.002    c-0.552,0.035-1.087,0.126-1.604,0.259c-33.798,5.003-49.677,18.317-49.677,40.389c0,9.811,11.163,24.1,25.655,37.858    c0.44,42.666,8.444,73.45,20.412,94.031c1.162,1.995,2.118,4.088,2.893,6.246c0.068,0.349,0.157,0.699,0.272,1.049    c1.103,3.376,1.752,6.748,1.939,10.072c0.031,0.629,0.06,1.259,0.061,1.893c0,0.026,0.002,0.053,0.002,0.079v0.04    c0,0.432-0.014,0.86-0.028,1.289c-0.005,0.182-0.008,0.364-0.016,0.546c-0.018,0.405-0.048,0.807-0.078,1.209    c-0.023,0.292-0.044,0.584-0.074,0.876c-0.017,0.175-0.038,0.349-0.057,0.523c-0.457,3.842-1.539,7.704-3.219,11.508    c-0.198,0.448-0.34,0.901-0.456,1.354c-1.417,2.928-3.194,5.673-5.317,8.167c-63.424,74.471-93.155,142.072-93.155,224.326    c0,0.082,0.013,0.158,0.016,0.239c0.005,0.172,0.019,0.342,0.034,0.513c0.02,0.234,0.045,0.464,0.083,0.691    c0.024,0.142,0.054,0.282,0.085,0.423c0.052,0.237,0.111,0.471,0.183,0.699c0.046,0.15,0.098,0.297,0.152,0.444    c0.072,0.192,0.15,0.38,0.235,0.565c0.085,0.187,0.175,0.37,0.273,0.551c0.064,0.115,0.132,0.227,0.201,0.339    c0.139,0.23,0.285,0.454,0.447,0.671c0.018,0.024,0.038,0.046,0.057,0.07c0.544,0.711,1.217,1.339,2.011,1.864    c0.12,0.081,0.237,0.164,0.36,0.239c0.146,0.086,0.299,0.164,0.452,0.243c0.253,0.132,0.51,0.252,0.775,0.359    c0.06,0.024,0.112,0.057,0.174,0.08c0.612,0.229,1.737,0.633,3.355,1.185c2.65,0.905,5.752,1.909,9.284,2.986    c10.039,3.063,21.551,6.119,34.372,8.968c36.577,8.128,76.389,13.003,118.118,13.003s81.54-4.875,118.118-13.003    c12.821-2.849,24.334-5.906,34.372-8.968c3.532-1.078,6.634-2.082,9.284-2.986c1.619-0.553,2.744-0.956,3.355-1.185    c0.018-0.007,0.032-0.017,0.05-0.023c0.385-0.148,0.758-0.321,1.117-0.522c0.194-0.106,0.369-0.226,0.55-0.344    c0.107-0.071,0.215-0.141,0.319-0.217c1.078-0.771,1.903-1.74,2.48-2.826c0.014-0.025,0.027-0.05,0.041-0.075    C425.817,482.595,425.937,482.337,426.042,482.072z M307.199,229.029C307.199,229.029,307.199,229.029,307.199,229.029v0.359    c0,0.634,0.026,1.268,0.049,1.902c0.004,0.104,0.003,0.208,0.008,0.312c0.027,0.632,0.073,1.262,0.124,1.893    c0.021,0.274,0.038,0.549,0.063,0.822c0.031,0.328,0.07,0.656,0.107,0.984c0.169,1.561,0.4,3.106,0.693,4.634h-26.645v-17.067    h25.942C307.318,224.905,307.199,226.96,307.199,229.029C307.199,229.028,307.199,229.028,307.199,229.029z M279.297,205.802    c-2.953-5.097-8.453-8.535-14.765-8.535h-17.067c-6.311,0-11.811,3.438-14.764,8.533h-32.951c-0.734-1.6-1.545-3.167-2.435-4.696    c-2.92-5.021-5.59-10.82-7.931-17.437c1.062,0.46,2.148,0.917,3.257,1.372c24.013,9.84,50.213-0.096,63.357-19.805    c13.144,19.709,39.343,29.645,63.353,19.807c1.11-0.455,2.197-0.913,3.26-1.374c-2.341,6.618-5.012,12.419-7.933,17.442    c-0.89,1.528-1.7,3.095-2.434,4.693H279.297z M264.532,214.335v34.132h-17.067v-34.133h17.067V214.335z M204.799,229.386    c0-0.018-0.001-0.036-0.001-0.055v-0.304c0-0.114-0.009-0.227-0.01-0.341c-0.008-0.726-0.03-1.448-0.064-2.167    c-0.013-0.273-0.021-0.547-0.039-0.82c-0.058-0.951-0.145-1.894-0.248-2.833h25.961v17.067h-26.616    C204.448,236.476,204.799,232.947,204.799,229.386z M179.233,116.622c0.075-0.041,0.147-0.087,0.222-0.128    c0.294-0.16,0.595-0.307,0.893-0.459c0.381-0.194,0.762-0.389,1.149-0.57c0.119-0.056,0.241-0.106,0.361-0.161    c0.198-0.09,0.398-0.178,0.598-0.265c0.378-0.165,0.757-0.328,1.141-0.481c0.145-0.058,0.292-0.11,0.438-0.166    c0.192-0.074,0.385-0.146,0.579-0.217c0.377-0.138,0.755-0.273,1.137-0.4c0.146-0.049,0.294-0.093,0.44-0.14    c0.209-0.067,0.419-0.133,0.629-0.196c0.378-0.114,0.758-0.224,1.14-0.327c0.135-0.036,0.271-0.07,0.407-0.105    c0.234-0.061,0.468-0.121,0.704-0.178c0.382-0.092,0.765-0.177,1.151-0.258c0.115-0.024,0.231-0.047,0.347-0.07    c0.265-0.053,0.53-0.107,0.797-0.156c0.026-0.005,0.052-0.008,0.077-0.013c0.36,0.023,0.723,0.032,1.093,0.008    c0.811-0.051,1.585-0.221,2.315-0.48c0.021-0.002,0.043-0.005,0.064-0.007c0.047-0.005,0.094-0.009,0.142-0.014    c0.333-0.031,0.667-0.064,1.002-0.088c0.436-0.031,0.875-0.052,1.313-0.07c0.358-0.015,0.715-0.032,1.074-0.039    c0.448-0.008,0.898-0.004,1.348,0c0.354,0.004,0.708,0.003,1.063,0.015c0.462,0.015,0.926,0.045,1.39,0.074    c0.316,0.02,0.631,0.035,0.947,0.06c0.194,0.016,0.39,0.039,0.584,0.058c0.319,0.03,0.639,0.064,0.958,0.101    c0.265,0.03,0.53,0.055,0.796,0.09c0.27,0.035,0.54,0.079,0.81,0.118c0.324,0.047,0.647,0.098,0.971,0.152    c0.188,0.031,0.375,0.058,0.563,0.091c0.316,0.056,0.631,0.121,0.947,0.184c0.469,0.093,0.938,0.187,1.407,0.294    c0.35,0.079,0.7,0.167,1.049,0.254c0.459,0.114,0.918,0.232,1.377,0.36c0.347,0.096,0.694,0.198,1.04,0.302    c0.047,0.014,0.095,0.03,0.142,0.044c0.415,0.125,0.829,0.255,1.243,0.391c0.318,0.105,0.636,0.213,0.953,0.324    c0.144,0.05,0.288,0.104,0.432,0.156c0.346,0.124,0.691,0.25,1.036,0.382c0.287,0.109,0.573,0.221,0.86,0.335    c0.202,0.081,0.403,0.167,0.605,0.25c0.317,0.132,0.634,0.265,0.95,0.403c0.252,0.11,0.504,0.22,0.756,0.334    c0.245,0.111,0.49,0.228,0.735,0.343c0.308,0.145,0.616,0.293,0.923,0.445c0.211,0.104,0.421,0.206,0.631,0.313    c0.285,0.145,0.568,0.295,0.851,0.445c0.321,0.17,0.641,0.343,0.96,0.52c0.15,0.083,0.3,0.163,0.449,0.247    c0.32,0.181,0.638,0.368,0.955,0.555c0.414,0.245,0.828,0.492,1.239,0.748c0.014,0.009,0.028,0.017,0.041,0.025    c0.349,0.218,0.697,0.444,1.044,0.67c0.418,0.274,0.835,0.551,1.25,0.837c0.346,0.239,0.691,0.483,1.034,0.731    c0.41,0.295,0.817,0.597,1.222,0.904c0.307,0.233,0.612,0.47,0.917,0.71c0.101,0.08,0.201,0.162,0.302,0.242    c0.332,0.266,0.663,0.534,0.992,0.808c0.268,0.224,0.536,0.45,0.802,0.68c0.145,0.125,0.289,0.253,0.434,0.38    c0.31,0.272,0.619,0.548,0.925,0.828c0.23,0.21,0.459,0.422,0.687,0.636c0.174,0.164,0.347,0.329,0.52,0.495    c0.302,0.29,0.602,0.586,0.9,0.884c0.192,0.192,0.383,0.384,0.573,0.579c0.196,0.201,0.391,0.403,0.585,0.607    c0.3,0.315,0.596,0.637,0.891,0.96c0.153,0.167,0.306,0.335,0.457,0.504c0.214,0.239,0.427,0.478,0.638,0.721    c0.303,0.348,0.601,0.704,0.898,1.061c0.112,0.134,0.224,0.268,0.335,0.403c0.228,0.277,0.456,0.554,0.68,0.837    c0.314,0.395,0.621,0.8,0.929,1.206c0.066,0.087,0.132,0.173,0.198,0.26c0.237,0.316,0.476,0.629,0.709,0.951    c0.346,0.477,0.683,0.966,1.02,1.456c0.003,0.004,0.006,0.008,0.009,0.013c0.244,0.355,0.49,0.707,0.729,1.069    c0.074,0.112,0.144,0.23,0.218,0.343c-1.875,22.873-26.526,38.313-48.237,29.417c-6.215-2.551-11.539-5.151-15.461-7.55    C181.013,148.372,179.473,133.439,179.233,116.622z M264.863,139.487c0.238-0.361,0.484-0.712,0.727-1.066    c0.002-0.003,0.004-0.005,0.005-0.008c0.339-0.493,0.678-0.985,1.025-1.464c0.232-0.32,0.469-0.632,0.705-0.946    c0.067-0.089,0.134-0.176,0.201-0.265c0.308-0.406,0.616-0.811,0.93-1.207c0.223-0.281,0.45-0.556,0.676-0.832    c0.112-0.136,0.225-0.271,0.337-0.406c0.298-0.358,0.596-0.714,0.899-1.063c0.21-0.242,0.422-0.479,0.634-0.716    c0.153-0.171,0.306-0.339,0.46-0.507c0.296-0.324,0.593-0.646,0.893-0.962c0.193-0.203,0.387-0.403,0.581-0.603    c0.191-0.196,0.383-0.389,0.576-0.582c0.298-0.298,0.598-0.593,0.9-0.884c0.172-0.166,0.345-0.33,0.518-0.493    c0.229-0.215,0.458-0.427,0.689-0.638c0.307-0.281,0.616-0.557,0.927-0.83c0.144-0.126,0.288-0.253,0.432-0.378    c0.266-0.229,0.533-0.455,0.801-0.679c0.33-0.275,0.661-0.544,0.994-0.81c0.1-0.08,0.2-0.162,0.301-0.241    c0.304-0.24,0.61-0.477,0.917-0.71c0.405-0.307,0.812-0.609,1.222-0.904c0.343-0.247,0.688-0.492,1.034-0.731    c0.414-0.286,0.831-0.564,1.25-0.837c0.347-0.227,0.694-0.452,1.044-0.67c0.013-0.008,0.027-0.016,0.04-0.024    c0.412-0.257,0.826-0.505,1.242-0.75c0.317-0.187,0.635-0.374,0.954-0.555c0.148-0.084,0.297-0.163,0.446-0.246    c0.321-0.178,0.642-0.352,0.965-0.522c0.283-0.15,0.566-0.301,0.851-0.445c0.209-0.106,0.419-0.208,0.629-0.311    c0.307-0.152,0.616-0.3,0.924-0.445c0.245-0.115,0.49-0.232,0.735-0.344c0.251-0.114,0.503-0.224,0.755-0.334    c0.316-0.138,0.633-0.271,0.95-0.403c0.202-0.084,0.403-0.169,0.605-0.25c0.286-0.115,0.573-0.226,0.859-0.335    c0.345-0.132,0.691-0.258,1.036-0.382c0.144-0.052,0.288-0.106,0.432-0.156c0.317-0.111,0.634-0.219,0.952-0.323    c0.413-0.136,0.827-0.265,1.241-0.39c0.049-0.015,0.097-0.031,0.146-0.045c0.346-0.104,0.693-0.206,1.039-0.302    c0.459-0.127,0.918-0.245,1.378-0.36c0.349-0.087,0.699-0.174,1.048-0.254c0.469-0.106,0.938-0.201,1.407-0.294    c0.316-0.063,0.631-0.127,0.947-0.184c0.188-0.033,0.375-0.06,0.562-0.091c0.324-0.054,0.648-0.105,0.972-0.153    c0.27-0.04,0.54-0.083,0.81-0.118c0.266-0.035,0.53-0.06,0.795-0.09c0.32-0.036,0.64-0.071,0.959-0.101    c0.195-0.018,0.39-0.042,0.584-0.058c0.316-0.026,0.632-0.041,0.947-0.06c0.464-0.029,0.928-0.059,1.39-0.074    c0.355-0.012,0.709-0.012,1.063-0.015c0.45-0.005,0.9-0.009,1.348,0c0.359,0.007,0.717,0.024,1.074,0.039    c0.439,0.019,0.877,0.039,1.313,0.07c0.335,0.024,0.668,0.056,1.002,0.088c0.047,0.004,0.095,0.009,0.143,0.014    c0.021,0.002,0.042,0.005,0.063,0.007c0.73,0.259,1.504,0.429,2.315,0.48c0.37,0.023,0.733,0.015,1.093-0.008    c0.026,0.005,0.051,0.008,0.077,0.013c0.266,0.048,0.531,0.102,0.796,0.156c0.116,0.023,0.232,0.046,0.348,0.071    c0.385,0.081,0.769,0.167,1.15,0.258c0.235,0.056,0.468,0.117,0.701,0.177c0.137,0.035,0.273,0.069,0.41,0.106    c0.382,0.103,0.762,0.213,1.14,0.327c0.209,0.063,0.417,0.129,0.625,0.195c0.148,0.047,0.297,0.092,0.444,0.141    c0.382,0.127,0.76,0.262,1.138,0.4c0.192,0.07,0.383,0.142,0.573,0.215c0.148,0.057,0.297,0.11,0.444,0.169    c0.384,0.153,0.763,0.316,1.141,0.481c0.196,0.086,0.392,0.171,0.587,0.26c0.123,0.056,0.248,0.108,0.371,0.165    c0.388,0.181,0.768,0.376,1.15,0.571c0.298,0.152,0.599,0.299,0.893,0.459c0.075,0.041,0.147,0.087,0.222,0.128    c-0.241,16.817-1.781,31.75-4.424,45.077c-3.922,2.399-9.247,4.999-15.465,7.551c-21.707,8.894-46.357-6.545-48.233-29.419    C264.718,139.719,264.789,139.6,264.863,139.487z M358.433,77.8c0,2.85-8.524,13.71-18.251,23.416    c-0.29-0.154-0.588-0.291-0.881-0.439c-0.372-0.188-0.742-0.377-1.118-0.557c-0.125-0.06-0.247-0.127-0.372-0.185    c-0.026-0.012-0.052-0.027-0.078-0.039c-0.345-0.161-0.697-0.304-1.045-0.458c-0.371-0.164-0.74-0.332-1.114-0.488    c-0.21-0.088-0.419-0.176-0.63-0.26c-0.298-0.12-0.601-0.228-0.901-0.343c-0.016-0.006-0.031-0.012-0.047-0.018    c-0.361-0.138-0.72-0.282-1.084-0.413c-0.275-0.099-0.553-0.19-0.83-0.284c-0.342-0.117-0.686-0.227-1.03-0.337    c-0.283-0.091-0.563-0.189-0.848-0.276c-0.355-0.107-0.714-0.201-1.071-0.301c-0.045-0.013-0.09-0.028-0.136-0.041l2.609-41.259    C350.784,59.568,358.433,67.21,358.433,77.8z M247.466,26.6v-8.533h17.067V26.6c0,14.136,11.46,25.6,25.6,25.6    c9.237,0,17.377,0.318,24.525,0.933l-2.622,41.451c-0.132,0.001-0.265,0.012-0.397,0.014c-0.461,0.008-0.923,0.021-1.385,0.039    c-0.351,0.014-0.702,0.028-1.054,0.047c-0.232,0.013-0.463,0.025-0.695,0.04c-0.396,0.026-0.793,0.062-1.19,0.095    c-0.433,0.036-0.866,0.076-1.299,0.121c-0.066,0.007-0.132,0.011-0.198,0.018c-0.146,0.016-0.292,0.024-0.438,0.041    c-0.339,0.039-0.678,0.092-1.017,0.136c-0.431,0.056-0.861,0.112-1.292,0.176c-0.271,0.04-0.542,0.078-0.813,0.121    c-0.298,0.048-0.595,0.108-0.893,0.16c-0.412,0.072-0.823,0.142-1.235,0.222c-0.336,0.065-0.673,0.135-1.009,0.206    c-0.33,0.069-0.659,0.143-0.988,0.217c-0.312,0.07-0.625,0.137-0.937,0.212c-0.411,0.099-0.822,0.208-1.233,0.315    c-0.348,0.09-0.696,0.179-1.044,0.275c-0.216,0.06-0.432,0.115-0.648,0.177c-0.513,0.147-1.024,0.31-1.536,0.469    c-0.336,0.104-0.673,0.203-1.009,0.312c-0.121,0.04-0.243,0.075-0.364,0.115c-0.748,0.249-1.493,0.52-2.237,0.795    c-0.176,0.065-0.353,0.122-0.529,0.189c-0.041,0.016-0.082,0.03-0.123,0.046c-0.184,0.07-0.366,0.15-0.55,0.222    c-0.773,0.302-1.545,0.61-2.313,0.94c-0.063,0.027-0.127,0.053-0.191,0.08c-0.194,0.084-0.386,0.18-0.58,0.266    c-0.084,0.037-0.167,0.078-0.252,0.115c-0.606,0.271-1.211,0.542-1.813,0.831c-0.153,0.073-0.305,0.147-0.458,0.221    c-0.294,0.144-0.586,0.3-0.879,0.448c-0.49,0.248-0.981,0.494-1.468,0.754c-0.24,0.128-0.478,0.258-0.717,0.388    c-0.284,0.155-0.565,0.316-0.847,0.475c-0.402,0.227-0.804,0.455-1.203,0.69c-0.324,0.191-0.647,0.386-0.969,0.582    c-0.257,0.156-0.514,0.311-0.769,0.47c-0.33,0.206-0.658,0.418-0.987,0.63c-0.397,0.257-0.792,0.52-1.187,0.785    c-0.038,0.025-0.076,0.05-0.113,0.075c-0.194,0.131-0.391,0.253-0.584,0.386c-0.268,0.184-0.531,0.38-0.798,0.568    c-0.392,0.277-0.781,0.557-1.17,0.842c-0.278,0.204-0.558,0.403-0.834,0.611c-0.225,0.17-0.446,0.35-0.67,0.523    c-0.368,0.284-0.736,0.57-1.101,0.862c-0.327,0.262-0.653,0.525-0.977,0.793c-0.247,0.205-0.493,0.412-0.739,0.62    c-0.277,0.235-0.553,0.47-0.828,0.709c-0.381,0.332-0.757,0.672-1.134,1.013c-0.259,0.234-0.519,0.466-0.776,0.704    c-0.19,0.177-0.38,0.354-0.569,0.533c-0.45,0.427-0.893,0.867-1.336,1.307c-0.249,0.247-0.504,0.486-0.751,0.737    c-0.108,0.109-0.214,0.22-0.321,0.33c-0.529,0.544-1.046,1.107-1.564,1.669c-0.188,0.205-0.382,0.4-0.569,0.607    c-0.037,0.041-0.075,0.078-0.112,0.119c-0.031,0.034-0.06,0.071-0.091,0.105c-0.765,0.855-1.519,1.729-2.257,2.627    c-0.738-0.897-1.492-1.771-2.257-2.627c-0.031-0.034-0.06-0.07-0.09-0.104c-0.041-0.045-0.083-0.087-0.124-0.132    c-0.183-0.203-0.373-0.395-0.557-0.595c-0.518-0.563-1.035-1.126-1.564-1.669c-0.107-0.11-0.214-0.221-0.321-0.33    c-0.247-0.251-0.501-0.489-0.75-0.736c-0.444-0.44-0.887-0.882-1.338-1.309c-0.189-0.179-0.378-0.356-0.568-0.532    c-0.257-0.238-0.517-0.469-0.776-0.704c-0.377-0.341-0.753-0.681-1.134-1.013c-0.275-0.239-0.551-0.475-0.828-0.709    c-0.246-0.208-0.491-0.416-0.739-0.62c-0.324-0.268-0.65-0.531-0.977-0.793c-0.365-0.292-0.732-0.578-1.101-0.862    c-0.224-0.173-0.445-0.353-0.67-0.523c-0.276-0.208-0.556-0.407-0.834-0.611c-0.388-0.285-0.778-0.565-1.17-0.842    c-0.266-0.188-0.529-0.384-0.797-0.568c-0.194-0.133-0.392-0.257-0.587-0.388c-0.037-0.025-0.075-0.049-0.112-0.074    c-0.394-0.265-0.788-0.527-1.185-0.784c-0.329-0.212-0.657-0.425-0.988-0.631c-0.255-0.159-0.512-0.314-0.769-0.47    c-0.322-0.196-0.645-0.391-0.969-0.582c-0.399-0.235-0.801-0.463-1.203-0.69c-0.283-0.159-0.565-0.321-0.849-0.476    c-0.239-0.13-0.477-0.26-0.716-0.388c-0.487-0.26-0.978-0.506-1.468-0.754c-0.293-0.148-0.584-0.304-0.879-0.448    c-0.152-0.074-0.305-0.148-0.457-0.221c-0.603-0.29-1.21-0.561-1.817-0.833c-0.083-0.037-0.165-0.077-0.248-0.114    c-0.194-0.086-0.386-0.182-0.58-0.266c-0.063-0.027-0.127-0.053-0.19-0.08c-0.768-0.33-1.541-0.639-2.315-0.941    c-0.183-0.071-0.365-0.151-0.548-0.221c-0.041-0.016-0.082-0.03-0.123-0.046c-0.176-0.067-0.353-0.124-0.529-0.189    c-0.744-0.275-1.49-0.546-2.238-0.795c-0.121-0.04-0.242-0.075-0.363-0.115c-0.336-0.11-0.673-0.208-1.01-0.313    c-0.512-0.159-1.022-0.323-1.536-0.469c-0.216-0.062-0.432-0.117-0.648-0.177c-0.348-0.096-0.696-0.185-1.044-0.275    c-0.411-0.107-0.821-0.216-1.233-0.315c-0.312-0.075-0.624-0.142-0.937-0.212c-0.329-0.074-0.658-0.148-0.988-0.217    c-0.336-0.071-0.673-0.14-1.009-0.206c-0.411-0.08-0.823-0.15-1.234-0.222c-0.298-0.052-0.595-0.112-0.893-0.16    c-0.271-0.044-0.542-0.081-0.813-0.121c-0.431-0.064-0.861-0.12-1.292-0.176c-0.339-0.044-0.678-0.098-1.017-0.136    c-0.146-0.017-0.292-0.025-0.438-0.041c-0.066-0.007-0.132-0.012-0.198-0.018c-0.433-0.045-0.866-0.085-1.299-0.121    c-0.397-0.033-0.794-0.069-1.19-0.095c-0.232-0.015-0.463-0.027-0.695-0.04c-0.352-0.019-0.703-0.034-1.054-0.047    c-0.462-0.018-0.924-0.031-1.385-0.039c-0.132-0.002-0.265-0.013-0.397-0.014l-2.622-41.451    c7.149-0.615,15.288-0.933,24.526-0.933C236.006,52.2,247.466,40.736,247.466,26.6z M153.565,77.8    c0-10.59,7.65-18.232,26.825-22.283L183,96.776c-0.046,0.013-0.09,0.028-0.136,0.041c-0.357,0.101-0.716,0.194-1.071,0.301    c-0.285,0.086-0.565,0.185-0.848,0.276c-0.344,0.11-0.688,0.22-1.03,0.337c-0.277,0.094-0.555,0.186-0.83,0.284    c-0.364,0.13-0.723,0.275-1.084,0.413c-0.016,0.006-0.031,0.012-0.047,0.018c-0.3,0.115-0.603,0.223-0.901,0.343    c-0.211,0.085-0.42,0.173-0.63,0.26c-0.374,0.156-0.743,0.324-1.114,0.488c-0.348,0.154-0.7,0.297-1.045,0.458    c-0.026,0.012-0.052,0.027-0.078,0.039c-0.125,0.059-0.247,0.125-0.372,0.185c-0.375,0.18-0.746,0.369-1.118,0.557    c-0.293,0.148-0.591,0.285-0.881,0.439C162.089,91.51,153.565,80.65,153.565,77.8z M191.481,265.605    c2.286-2.685,4.289-5.572,6.012-8.605h35.209c2.953,5.096,8.452,8.533,14.764,8.533h17.067c6.311,0,11.81-3.437,14.763-8.532    h35.215c1.721,3.036,3.723,5.92,6.006,8.602c57.948,68.042,86.2,129.101,88.873,201.729c-0.246-0.067-0.504-0.134-0.753-0.201    c-0.598-0.162-1.2-0.323-1.812-0.485c-0.428-0.113-0.864-0.226-1.299-0.339c-0.629-0.163-1.26-0.326-1.903-0.489    c-0.436-0.11-0.88-0.22-1.322-0.33c-0.659-0.164-1.319-0.328-1.993-0.491c-0.441-0.107-0.891-0.213-1.337-0.32    c-0.697-0.166-1.393-0.333-2.105-0.498c-0.43-0.1-0.87-0.199-1.306-0.299c-0.745-0.171-1.489-0.341-2.25-0.511    c-0.406-0.09-0.822-0.18-1.233-0.27c-0.807-0.177-1.613-0.354-2.437-0.53c-0.336-0.072-0.682-0.142-1.021-0.213    c-2.136-0.45-4.314-0.895-6.561-1.333c-5.755-1.121-11.738-2.17-17.943-3.134c-20.621-3.208-37.648-17.958-43.791-37.929    l-22.033-71.604c-2.008-6.526-9.891-7.749-14.101-3.67c-0.972,0.941-1.748,2.165-2.212,3.671l-15.189,49.365    c-4.076,13.248-11.35,24.877-20.846,34.135c-13.88,13.531-32.506,21.997-52.829,23.05c-0.433,0.022-0.858,0.047-1.289,0.069    c-0.979,0.052-1.955,0.104-2.924,0.157c-0.338,0.019-0.673,0.038-1.01,0.057c-1.183,0.067-2.359,0.135-3.526,0.204    c-0.186,0.011-0.373,0.022-0.558,0.033c-17.667,1.063-33.531,2.483-47.266,4.327c-0.031,0.004-0.061,0.008-0.091,0.012    c-1.118,0.15-2.222,0.303-3.312,0.459c-0.023,0.003-0.046,0.006-0.068,0.01c-2.214,0.318-4.37,0.647-6.464,0.988    c-0.065,0.011-0.129,0.022-0.194,0.032c-0.91,0.149-1.807,0.3-2.694,0.454c-0.215,0.037-0.428,0.075-0.642,0.112    c-0.758,0.133-1.507,0.268-2.248,0.405c-0.222,0.041-0.445,0.081-0.666,0.123c-0.856,0.16-1.702,0.323-2.535,0.488    c-0.068,0.013-0.137,0.026-0.205,0.04c-0.896,0.178-1.776,0.36-2.643,0.544c-0.231,0.049-0.456,0.099-0.684,0.148    c-0.616,0.133-1.226,0.267-1.828,0.402c-0.301,0.068-0.598,0.136-0.895,0.205c-0.533,0.123-1.06,0.247-1.581,0.373    c-0.296,0.071-0.593,0.142-0.885,0.214c-0.575,0.142-1.139,0.285-1.699,0.43c-0.21,0.054-0.425,0.107-0.633,0.162    c-0.735,0.193-1.455,0.389-2.163,0.588c-0.257,0.072-0.505,0.146-0.758,0.218c-0.336,0.096-0.677,0.192-1.007,0.29    C105.512,394.211,133.768,333.371,191.481,265.605z M370.416,483.336c-35.423,7.872-74.011,12.597-114.416,12.597    s-78.993-4.725-114.416-12.597c-6.258-1.391-12.185-2.83-17.761-4.294c0.136-0.025,0.271-0.05,0.408-0.075    c0.846-0.153,1.705-0.305,2.579-0.454c0.201-0.034,0.399-0.069,0.602-0.104c2.27-0.383,4.628-0.754,7.076-1.11    c0.013-0.002,0.026-0.004,0.039-0.005c1.199-0.174,2.421-0.345,3.661-0.513c0.118-0.016,0.238-0.032,0.356-0.048    c1.203-0.162,2.424-0.321,3.665-0.477c0.057-0.007,0.113-0.014,0.17-0.021c10.733-1.344,22.853-2.464,36.099-3.36    c0.079-0.005,0.158-0.01,0.237-0.016c1.472-0.099,2.96-0.195,4.458-0.289c0.275-0.017,0.549-0.034,0.825-0.051    c1.309-0.081,2.631-0.159,3.961-0.235c0.381-0.022,0.758-0.044,1.141-0.066c1.208-0.068,2.429-0.133,3.653-0.198    c0.414-0.022,0.823-0.045,1.239-0.066c19.393-1.005,37.516-7.601,52.55-18.392c0.249-0.179,0.49-0.369,0.737-0.55    c0.748-0.547,1.496-1.095,2.227-1.663c0.631-0.49,1.247-1,1.866-1.506c0.336-0.274,0.68-0.539,1.013-0.817    c0.872-0.731,1.729-1.482,2.576-2.243c0.071-0.063,0.144-0.123,0.215-0.187c12.81-11.585,22.612-26.582,27.925-43.854    l7.033-22.857l13.877,45.096c8.062,26.21,30.402,45.562,57.481,49.775c5.99,0.931,11.759,1.942,17.302,3.022    c1.272,0.248,2.523,0.498,3.757,0.749c0.029,0.006,0.06,0.012,0.089,0.018c0.88,0.18,1.738,0.362,2.599,0.543    c0.406,0.086,0.821,0.171,1.223,0.257c0.103,0.022,0.202,0.044,0.304,0.067C381.603,480.747,376.148,482.062,370.416,483.336z"/>
	</g>
</g>
<g>
</g>
<g>
</g>
<g>
</g>
<g>
</g>
<g>
</g>
<g>
</g>
<g>
</g>
<g>
</g>
<g>
</g>
<g>
</g>
<g>
</g>
<g>
</g>
<g>
</g>
<g>
</g>
<g>
</g>
</svg>
