<?xml version="1.0" encoding="iso-8859-1"?>
<!-- Generator: Adobe Illustrator 19.0.0, SVG Export Plug-In . SVG Version: 6.00 Build 0)  -->
<svg xmlns="http://www.w3.org/2000/svg" xmlns:xlink="http://www.w3.org/1999/xlink" version="1.1" id="Layer_1" x="0px" y="0px" viewBox="0 0 511.883 511.883" style="enable-background:new 0 0 511.883 511.883;" xml:space="preserve">
<g transform="translate(0 -1)">
	<g>
		<path d="M334.343,255.401c-6.529-7.463-10.133-16.5-10.133-25.68c0-7.721,1.723-14.153,5.035-19.814    c12.032-20.542,20.102-51.407,20.543-94.254c14.533-13.815,25.654-28.044,25.654-37.853c0-18.97-13.19-32.284-38.762-38.408    c-0.037-0.009-0.074-0.014-0.111-0.022c-0.017-0.004-0.033-0.01-0.05-0.014c-9.945-2.291-22.06-3.646-36.503-4.063    c-0.009,0-0.017,0.002-0.026,0.001c-0.028-0.001-0.055-0.006-0.083-0.006l-9.771-0.154c-4.783-0.001-8.599-3.861-8.599-8.603    V9.533c0-4.713-3.82-8.533-8.533-8.533h-34.133c-4.713,0-8.533,3.82-8.533,8.533V26.6c0,4.709-3.877,8.533-8.704,8.533    c-58.32,0.025-85.188,13.939-85.188,42.667c0,9.81,11.151,24.086,25.653,37.862c0.442,42.847,8.508,73.714,20.537,94.249    c3.315,5.666,5.042,12.099,5.042,18.761c0,10.231-3.605,19.266-10.14,26.728c-49.791,56.889-51.078,124.104-23.767,233.976    c0.707,2.842,2.822,5.124,5.602,6.043c7.159,2.367,18.294,5.608,32.187,8.855c23.03,5.382,45.004,8.609,64.265,8.609    c6.161,0,12.655-0.337,19.443-0.984c14.467-1.378,29.829-4.102,45.445-7.776c8.09-1.904,15.736-3.942,22.709-5.983    c2.448-0.716,4.64-1.383,6.547-1.983c0.327-0.103,0.626-0.198,0.898-0.284c3.293-0.42,6.309-2.726,7.225-6.411    C385.426,379.519,384.15,312.298,334.343,255.401z M358.376,77.801c0,2.849-8.535,13.714-18.3,23.458    c-0.09-0.046-0.186-0.084-0.276-0.13c-0.938-0.472-1.891-0.924-2.867-1.345c-0.118-0.051-0.241-0.095-0.36-0.145    c-0.878-0.371-1.77-0.718-2.676-1.047c-0.298-0.108-0.6-0.21-0.901-0.313c-0.793-0.273-1.595-0.529-2.406-0.769    c-0.266-0.078-0.529-0.16-0.796-0.235c-1.081-0.304-2.173-0.589-3.284-0.835l13.484-38.368    C353.141,62.555,358.376,69.091,358.376,77.801z M153.512,77.8c0-16.258,17.998-25.578,68.125-25.6    c14.196,0,25.767-11.413,25.767-25.6v-8.533h17.067v8.465c0,13.387,10.253,24.456,23.344,25.575l-15.226,43.33    c-2.786,7.931-9.399,13.168-16.853,14.712c-4.804,0.995-9.957,0.459-14.666-1.889c-0.799-0.399-1.585-0.849-2.353-1.353    c-0.032-0.021-0.065-0.041-0.097-0.062l-0.297-0.194c-16.738-11.108-36.748-14.32-53.966-10.1    c-0.077,0.019-0.154,0.038-0.231,0.057c-0.638,0.159-1.272,0.329-1.903,0.508c-0.118,0.034-0.237,0.066-0.355,0.101    c-0.599,0.175-1.193,0.36-1.784,0.553c-0.129,0.042-0.259,0.082-0.388,0.125c-0.618,0.207-1.23,0.425-1.839,0.653    c-0.086,0.032-0.173,0.062-0.259,0.094c-1.403,0.532-2.779,1.118-4.125,1.758c-0.057,0.027-0.113,0.057-0.171,0.085    c-0.51,0.245-1.019,0.493-1.521,0.754C162.043,91.519,153.512,80.651,153.512,77.8z M342.711,480.541    c-1.187,0.362-2.553,0.771-4.084,1.219c-6.693,1.959-14.047,3.92-21.824,5.75c-14.915,3.509-29.54,6.103-43.154,7.4    c-6.273,0.597-12.231,0.907-17.825,0.907c-17.739,0-38.515-3.051-60.381-8.161c-7.756-1.813-15.114-3.763-21.846-5.722    c-1.658-0.483-3.125-0.92-4.406-1.31c-24.869-102.037-23.051-163.437,21.186-213.981c9.183-10.485,14.366-23.476,14.366-36.92    c0-10.726-2.525-20.136-7.38-28.433c-10.387-17.733-17.651-45.319-18.188-84.646c0.058-0.031,0.115-0.064,0.173-0.095    c0.251-0.134,0.505-0.263,0.76-0.391c0.213-0.107,0.425-0.213,0.641-0.316c0.237-0.113,0.476-0.224,0.716-0.332    c0.241-0.109,0.484-0.216,0.728-0.321c0.224-0.096,0.45-0.19,0.677-0.282c0.269-0.109,0.54-0.214,0.812-0.317    c0.212-0.08,0.423-0.16,0.637-0.237c0.298-0.107,0.598-0.209,0.9-0.309c0.195-0.065,0.389-0.131,0.586-0.193    c0.339-0.107,0.681-0.207,1.024-0.306c0.164-0.047,0.327-0.097,0.492-0.142c0.416-0.114,0.836-0.22,1.257-0.321    c0.098-0.024,0.194-0.05,0.292-0.073c1.07-0.25,2.157-0.461,3.259-0.633c0.046-0.007,0.092-0.012,0.138-0.019    c0.496-0.076,0.995-0.144,1.497-0.203c0.123-0.015,0.247-0.026,0.371-0.039c0.426-0.047,0.854-0.091,1.284-0.126    c0.155-0.013,0.311-0.022,0.467-0.034c0.401-0.029,0.803-0.055,1.207-0.074c0.173-0.008,0.346-0.014,0.52-0.02    c0.389-0.014,0.778-0.025,1.169-0.029c0.184-0.002,0.369-0.003,0.553-0.003c0.386,0,0.772,0.004,1.16,0.012    c0.185,0.004,0.371,0.009,0.557,0.015c0.391,0.013,0.783,0.032,1.175,0.054c0.182,0.01,0.364,0.02,0.547,0.032    c0.405,0.027,0.811,0.062,1.218,0.099c0.169,0.016,0.338,0.029,0.507,0.046c0.436,0.044,0.873,0.097,1.31,0.153    c0.139,0.018,0.278,0.033,0.417,0.052c0.515,0.07,1.03,0.149,1.545,0.235c0.061,0.01,0.123,0.018,0.184,0.029    c1.181,0.201,2.364,0.444,3.545,0.728c0.059,0.014,0.118,0.031,0.177,0.045c0.517,0.126,1.033,0.26,1.549,0.403    c0.14,0.039,0.279,0.081,0.419,0.121c0.436,0.124,0.872,0.252,1.307,0.388c0.17,0.053,0.34,0.11,0.51,0.165    c0.405,0.131,0.811,0.266,1.215,0.407c0.181,0.063,0.361,0.129,0.542,0.195c0.395,0.143,0.79,0.29,1.184,0.443    c0.181,0.07,0.361,0.142,0.542,0.214c0.395,0.158,0.788,0.321,1.181,0.489c0.175,0.075,0.349,0.15,0.524,0.227    c0.404,0.178,0.807,0.362,1.209,0.55c0.158,0.074,0.316,0.147,0.474,0.223c0.427,0.205,0.851,0.418,1.275,0.635    c0.13,0.067,0.261,0.132,0.391,0.2c0.474,0.248,0.945,0.504,1.414,0.768c0.077,0.043,0.155,0.084,0.231,0.128    c1.117,0.634,2.221,1.31,3.308,2.031l0.429,0.28c21.589,14.143,50.746,4.275,59.316-20.099l17.041-48.493    c6.446,0.333,12.28,0.884,17.514,1.644l-13.642,38.818c-3.083,8.734,2.448,18.032,11.512,19.703    c0.209,0.038,0.411,0.087,0.618,0.128c0.695,0.137,1.381,0.286,2.056,0.451c0.322,0.079,0.64,0.162,0.957,0.248    c0.709,0.191,1.407,0.397,2.091,0.62c0.167,0.054,0.34,0.102,0.505,0.158c0.839,0.286,1.653,0.6,2.449,0.933    c0.215,0.09,0.425,0.184,0.637,0.277c0.67,0.294,1.324,0.604,1.96,0.932c0.106,0.055,0.215,0.106,0.321,0.162    c-0.54,39.305-7.806,66.875-18.194,84.61c-4.854,8.295-7.374,17.704-7.374,27.387c0,14.49,5.179,27.479,14.356,37.969    C365.731,317.168,367.56,378.537,342.711,480.541z"/>
	</g>
</g>
<g>
</g>
<g>
</g>
<g>
</g>
<g>
</g>
<g>
</g>
<g>
</g>
<g>
</g>
<g>
</g>
<g>
</g>
<g>
</g>
<g>
</g>
<g>
</g>
<g>
</g>
<g>
</g>
<g>
</g>
</svg>
