<?xml version="1.0" encoding="iso-8859-1"?>
<!-- Generator: Adobe Illustrator 19.0.0, SVG Export Plug-In . SVG Version: 6.00 Build 0)  -->
<svg xmlns="http://www.w3.org/2000/svg" xmlns:xlink="http://www.w3.org/1999/xlink" version="1.1" id="Layer_1" x="0px" y="0px" viewBox="0 0 512.003 512.003" style="enable-background:new 0 0 512.003 512.003;" xml:space="preserve">
<g transform="translate(0 -1)">
	<g>
		<path d="M334.41,255.403c-0.108-0.123-0.208-0.25-0.314-0.374c-1.169-1.38-2.312-2.944-3.503-4.796    c-0.144-0.223-0.317-0.422-0.479-0.63c-3.799-6.14-5.845-12.975-5.845-19.889c0-7.711,1.726-14.156,5.04-19.807    c12.045-20.586,20.111-51.469,20.539-94.366c14.469-13.766,25.534-27.956,25.534-37.743c0-26.922-23.881-40.87-74.818-42.473    c-1.048-0.228-2.127-0.254-3.177-0.09c-2.729-0.067-5.019-0.101-7.371-0.101c-4.713,0-8.533-3.822-8.533-8.533V9.533    c0-4.713-3.821-8.533-8.533-8.533h-34.133c-4.713,0-8.533,3.82-8.533,8.533V26.6c0,4.712-3.82,8.533-8.533,8.533    c-2.249,0-4.338,0.03-7.17,0.096c-1.039-0.157-2.107-0.13-3.143,0.097c-51.104,1.562-75.054,15.506-75.054,42.474    c0,9.838,11.224,24.18,25.776,37.973c0.434,40.8,7.787,70.712,18.889,91.194c0.068,0.126,0.136,0.253,0.205,0.379    c0.432,0.79,0.869,1.569,1.313,2.331c0.043,0.073,0.084,0.151,0.126,0.224c1.694,2.882,2.976,6.034,3.846,9.416    c0.013,0.051,0.037,0.098,0.051,0.148c0.751,2.981,1.148,6.068,1.148,9.208c0,10.224-3.607,19.268-10.14,26.728    c-39.116,44.697-48.29,95.758-37.183,168.882c0.008,0.064,0.01,0.128,0.019,0.192c0.14,0.94,0.301,1.89,0.446,2.833    c0.016,0.098,0.031,0.196,0.046,0.295c1.588,10.222,3.506,20.602,5.774,31.158c0.064,0.299,0.144,0.591,0.237,0.875    c2.044,9.585,4.355,19.519,6.919,29.828c0.705,2.835,2.811,5.113,5.583,6.036c0.445,0.148,1.261,0.413,2.421,0.778    c1.908,0.6,4.1,1.267,6.547,1.983c6.973,2.041,14.619,4.08,22.709,5.983c15.615,3.674,30.977,6.398,45.445,7.776    c6.788,0.647,13.282,0.984,19.443,0.984c6.161,0,12.655-0.337,19.443-0.984c14.467-1.378,29.829-4.102,45.445-7.776    c8.09-1.904,15.736-3.942,22.709-5.983c2.448-0.716,4.64-1.383,6.547-1.983c1.159-0.365,1.976-0.63,2.421-0.778    c2.772-0.924,4.878-3.201,5.583-6.036C385.484,379.522,384.21,312.307,334.41,255.403z M158.535,429.421    c75.94-21.484,145.531-63.028,191.069-113.787c1.045,3.158,1.995,6.383,2.853,9.678s1.623,6.659,2.3,10.097    c-48.056,50.1-117.359,90.035-193.116,110.973C160.493,440.586,159.457,434.934,158.535,429.421z M202.281,212.309    c-0.017-0.054-0.038-0.106-0.055-0.16c-0.584-1.866-1.266-3.683-2.044-5.452c-0.017-0.039-0.034-0.078-0.051-0.117    c-0.381-0.86-0.784-1.71-1.211-2.547c-0.055-0.108-0.112-0.214-0.167-0.321c-0.426-0.822-0.867-1.637-1.336-2.438    c-0.03-0.052-0.06-0.106-0.09-0.158c-0.449-0.771-0.893-1.563-1.331-2.379c-0.039-0.073-0.078-0.145-0.118-0.218    c-3.406-6.377-6.491-14.103-9.06-23.269c39.457,38.07,85.061,68.275,130.928,86.536c1.147,1.615,2.372,3.184,3.689,4.698    c0.043,0.049,0.082,0.103,0.125,0.152c5.515,6.301,10.361,12.91,14.58,19.843C290.612,272.622,244.288,246.985,202.281,212.309z     M314.582,201.281c-4.855,8.28-7.38,17.707-7.38,27.392c0,3.561,0.317,7.031,0.926,10.398    c-45.353-20.949-89.921-53.845-127.187-94.245c-1.049-9.272-1.654-19.405-1.731-30.455l29.8-47.679    c0.093,0.365,0.195,0.739,0.291,1.107c0.165,0.633,0.329,1.264,0.502,1.906c0.283,1.048,0.577,2.109,0.881,3.18    c0.208,0.735,0.425,1.48,0.643,2.226c0.163,0.559,0.33,1.122,0.499,1.687c0.411,1.377,0.839,2.773,1.282,4.185    c0.143,0.456,0.282,0.909,0.429,1.369c0.277,0.872,0.563,1.752,0.851,2.637c0.149,0.457,0.301,0.917,0.453,1.377    c0.561,1.696,1.141,3.415,1.743,5.155c0.1,0.289,0.196,0.574,0.297,0.864c0.34,0.977,0.687,1.962,1.039,2.953    c0.138,0.388,0.279,0.779,0.419,1.17c0.658,1.837,1.336,3.695,2.035,5.576c0.111,0.3,0.22,0.597,0.333,0.897    c0.386,1.034,0.779,2.076,1.177,3.123c0.147,0.386,0.297,0.775,0.445,1.163c0.716,1.87,1.449,3.759,2.201,5.668    c0.154,0.392,0.307,0.781,0.463,1.175c0.417,1.052,0.839,2.109,1.266,3.172c0.181,0.45,0.365,0.903,0.548,1.354    c0.382,0.944,0.754,1.878,1.144,2.83c5.598,13.677,12.667,29.432,17.03,38.641c0.062,0.13,0.125,0.266,0.186,0.393    c0.028,0.058,0.053,0.112,0.081,0.17c1.654,3.479,2.886,5.943,3.444,6.871c3.317,5.508,11.304,5.508,14.621-0.001    c2.033-3.377,12.819-26.696,20.706-45.925c0.743-1.813,1.467-3.604,2.18-5.385c0.099-0.248,0.199-0.496,0.297-0.743    c1.414-3.54,2.767-7.014,4.056-10.421c0.098-0.259,0.196-0.518,0.293-0.776c1.272-3.375,2.481-6.68,3.623-9.913    c0.094-0.267,0.189-0.535,0.282-0.801c1.125-3.203,2.183-6.331,3.173-9.383c0.087-0.268,0.174-0.536,0.26-0.803    c0.972-3.023,1.874-5.967,2.705-8.83c0.078-0.268,0.156-0.537,0.232-0.804c0.409-1.424,0.803-2.833,1.175-4.216    c0.011-0.042,0.021-0.082,0.032-0.124c0.241-0.897,0.476-1.788,0.701-2.667l29.764,47.622    C332.511,154.898,325.171,183.183,314.582,201.281z M358.315,77.797c0,2.568-6.918,11.638-15.422,20.527l-28.196-45.113    C346.473,56.01,358.315,64.566,358.315,77.797z M247.349,26.6v-8.533h17.067V26.6c0,13.719,10.795,24.921,24.357,25.569    c-2.203,11.59-6.393,25.62-12.166,41.424c-0.109,0.297-0.221,0.599-0.331,0.898c-0.454,1.236-0.919,2.484-1.392,3.741    c-0.224,0.596-0.452,1.195-0.68,1.796c-0.374,0.984-0.755,1.974-1.14,2.97c-0.276,0.714-0.552,1.427-0.834,2.147    c-0.365,0.933-0.738,1.875-1.112,2.818c-0.295,0.743-0.586,1.483-0.887,2.232c-0.431,1.073-0.873,2.159-1.315,3.245    c-0.23,0.566-0.454,1.125-0.688,1.694c-3.842,9.367-8.436,19.821-12.221,28.168c-3.801-8.394-8.42-18.924-12.276-28.349    c-6.089-14.884-11.149-28.687-14.894-40.883c0,0,0-0.001,0-0.001c-1.394-4.539-2.605-8.854-3.62-12.921    c-0.027-0.107-0.051-0.212-0.078-0.319c-0.288-1.161-0.557-2.299-0.813-3.418c-0.06-0.263-0.118-0.525-0.176-0.786    c-0.215-0.964-0.415-1.91-0.605-2.841c-0.061-0.301-0.125-0.606-0.183-0.904c-0.048-0.246-0.087-0.479-0.134-0.723    C236.679,51.392,247.349,40.24,247.349,26.6z M153.448,77.8c0-13.269,11.908-21.836,43.869-24.605l-28.302,45.283    C160.457,89.554,153.448,80.384,153.448,77.8z M190.436,266.642c7.781-8.884,12.677-19.577,13.994-30.816    c41.886,32.16,87.407,55.822,132.287,68.604C293.852,352.123,228.027,391.604,156,412.382    C147.837,349.092,157.06,304.78,190.436,266.642z M342.728,480.71c-1.149,0.35-2.461,0.742-3.924,1.171    c-6.693,1.959-14.047,3.92-21.824,5.75c-14.915,3.509-29.54,6.103-43.154,7.4c-6.273,0.597-12.231,0.907-17.825,0.907    c-5.594,0-11.552-0.31-17.825-0.907c-13.614-1.297-28.239-3.89-43.154-7.4c-7.777-1.83-15.131-3.791-21.824-5.75    c-1.463-0.428-2.775-0.821-3.924-1.171c-1.464-6.006-2.833-11.867-4.109-17.598c74.525-20.421,143.144-58.603,193.042-107.001    C360.742,390.176,354.963,430.524,342.728,480.71z"/>
	</g>
</g>
<g>
</g>
<g>
</g>
<g>
</g>
<g>
</g>
<g>
</g>
<g>
</g>
<g>
</g>
<g>
</g>
<g>
</g>
<g>
</g>
<g>
</g>
<g>
</g>
<g>
</g>
<g>
</g>
<g>
</g>
</svg>
