<?xml version="1.0" encoding="iso-8859-1"?>
<!-- Generator: Adobe Illustrator 19.0.0, SVG Export Plug-In . SVG Version: 6.00 Build 0)  -->
<svg xmlns="http://www.w3.org/2000/svg" xmlns:xlink="http://www.w3.org/1999/xlink" version="1.1" id="Layer_1" x="0px" y="0px" viewBox="0 0 503.911 503.911" style="enable-background:new 0 0 503.911 503.911;" xml:space="preserve">
<g>
	<g>
		<path d="M355.452,173.768c-3.577-5.856-7.288-10.747-11.738-15.789c-0.527-0.597-4.066-4.449-6.409-7.075v-30.477    c0.494-4.376,1.091-8.881,1.797-13.517c2.335-15.335,5.741-31.685,9.937-48.488c2.942-11.781,6.095-23.087,9.247-33.507    c1.102-3.642,2.123-6.91,3.039-9.753c0.545-1.693,0.931-2.86,1.13-3.45c1.791-5.295-1.907-10.853-7.483-11.246    c-38.195-2.694-72.325,6.645-102.863,25.764c-30.2-19.055-64.276-28.502-103.137-25.764c-0.684,0.048-1.34,0.174-1.962,0.369    c0,0-0.001,0-0.001,0c-0.253,0.079-0.496,0.177-0.738,0.278c-0.055,0.023-0.114,0.039-0.169,0.064    c-0.525,0.233-1.015,0.524-1.474,0.852c-0.053,0.038-0.11,0.069-0.162,0.108c-0.138,0.104-0.265,0.221-0.396,0.332    c-0.107,0.091-0.221,0.175-0.323,0.271c-0.129,0.12-0.244,0.253-0.365,0.381c-0.093,0.099-0.193,0.191-0.281,0.294    c-0.108,0.126-0.202,0.262-0.303,0.394c-0.088,0.116-0.183,0.226-0.266,0.346c-0.082,0.12-0.15,0.248-0.226,0.371    c-0.087,0.141-0.18,0.279-0.259,0.425c-0.069,0.128-0.123,0.263-0.185,0.394c-0.071,0.15-0.149,0.297-0.212,0.452    c-0.055,0.137-0.095,0.28-0.143,0.42c-0.054,0.156-0.115,0.309-0.16,0.468c-0.052,0.184-0.085,0.374-0.125,0.562    c-0.025,0.12-0.06,0.238-0.08,0.36c-0.028,0.171-0.038,0.345-0.055,0.518c-0.015,0.144-0.039,0.286-0.046,0.431    c-0.007,0.151,0.003,0.306,0.004,0.458c0.001,0.17-0.007,0.339,0.004,0.51c0.013,0.192,0.046,0.385,0.072,0.578    c0.018,0.134,0.025,0.267,0.05,0.401c0.032,0.175,0.085,0.351,0.129,0.526c0.038,0.152,0.065,0.305,0.112,0.457    c0.165,0.538,0.485,1.601,0.939,3.146c0.762,2.593,1.618,5.579,2.547,8.915c2.657,9.545,5.36,19.963,7.946,30.899    c0.004,0.016,0.011,0.031,0.015,0.047c0.41,1.734,0.817,3.476,1.219,5.23c3.742,16.334,6.823,32.211,9.014,47.128    c2.418,16.457,3.669,31.213,3.591,43.827c-2.257,2.427-5.638,5.971-6.427,6.836c-4.451,4.889-8.2,9.718-11.801,15.525    c-15.763,25.422-24.728,64.278-25.03,122.34c-0.007,1.046-0.007,2.108-0.008,3.167c0,0.28-0.003,0.555-0.002,0.836    c0.001,41.337,4.348,92.176,13.698,154.559c1.246,8.373,2.575,16.942,4,25.735c0.527,3.251,2.878,5.909,6.04,6.829    c0.495,0.144,1.413,0.404,2.718,0.765c2.156,0.595,4.627,1.257,7.378,1.969c7.846,2.03,16.379,4.059,25.319,5.953    c13.978,2.962,27.638,5.317,40.519,6.837c10.404,1.228,20.064,1.882,28.85,1.882c8.786,0,18.447-0.653,28.85-1.882    c12.881-1.521,26.541-3.875,40.519-6.837c8.939-1.894,17.473-3.923,25.319-5.953c2.751-0.712,5.222-1.374,7.378-1.969    c1.305-0.361,2.223-0.621,2.718-0.765c3.158-0.919,5.508-3.571,6.038-6.818C390.32,311.03,384.129,220.715,355.452,173.768z     M186.131,478.485c-8.675-1.837-16.964-3.805-24.575-5.773c-1.579-0.408-3.06-0.799-4.436-1.168    c-1.086-6.758-2.111-13.371-3.086-19.865c-9.505-63.8-13.761-114.978-13.607-155.773c0.3-54.241,8.506-90.174,22.597-113.243    c3.013-4.933,6.137-9.049,9.97-13.392c0.226-0.256,3.03-3.305,5.484-6.042c1.133,0.18,2.336,0.368,3.611,0.565    c6.452,0.996,13.323,1.991,20.329,2.921c2.572,0.341,5.102,0.662,7.604,0.971c-49.624,70.079-56.559,151.685-19.623,311.685    C188.977,479.082,187.554,478.787,186.131,478.485z M165.278,17.104c0.929,0.019,1.849,0.061,2.772,0.096    c0.547,0.021,1.099,0.03,1.644,0.057c0.611,0.03,1.215,0.078,1.823,0.114c0.85,0.051,1.703,0.095,2.548,0.16    c0.023,0.002,0.046,0.005,0.069,0.006c1.425,0.11,2.843,0.239,4.253,0.389c0.059,0.006,0.117,0.015,0.176,0.021    c4.238,0.453,8.409,1.079,12.513,1.876c0.729,0.142,1.45,0.303,2.174,0.455c0.655,0.138,1.315,0.265,1.967,0.412    c1.12,0.251,2.231,0.524,3.34,0.801c0.25,0.063,0.504,0.117,0.754,0.181c0.818,0.209,1.628,0.438,2.441,0.66    c0.537,0.147,1.078,0.283,1.612,0.436c2.147,0.614,4.271,1.29,6.382,2c0.53,0.178,1.064,0.346,1.592,0.531    c0.171,0.06,0.339,0.126,0.509,0.186c2.456,0.868,4.889,1.794,7.296,2.789c0.29,0.12,0.577,0.251,0.866,0.373    c2.278,0.959,4.538,1.966,6.773,3.039c1.084,0.52,2.161,1.06,3.235,1.606c0.174,0.088,0.35,0.171,0.524,0.26    c0.367,0.188,0.729,0.389,1.094,0.58c3.362,1.76,6.68,3.637,9.948,5.651c0.134,0.082,0.265,0.17,0.399,0.253    c1.412,0.876,2.814,1.78,4.208,2.703c0.321,0.294,0.661,0.575,1.039,0.828c12.544,8.389,24.198,18.483,35.173,30.094    c8.494,8.986,16.25,18.501,23.958,29.056c3.328,4.557,10.646,15.135,13.879,19.834v24.173c-0.43,0.067-0.873,0.135-1.333,0.206    c-2.335,0.359-4.74,0.718-7.172,1.074c-12.728-18.445-21.209-29.471-33.948-42.959c-31.076-32.902-67.007-54.442-109.721-60.328    c-2.042-8.366-4.149-16.447-6.259-24.088c-0.338-1.224-0.668-2.409-0.99-3.553c0.503-0.004,1,0.009,1.502,0.01    C163.306,17.087,164.296,17.084,165.278,17.104z M226.73,152.386c-0.028-0.003-0.054-0.011-0.083-0.014    c-1.331-0.133-2.685-0.273-4.062-0.421c-5.662-0.608-11.628-1.332-17.788-2.148c-6.9-0.914-13.678-1.894-20.044-2.874    c-0.349-0.054-0.681-0.105-1.013-0.157c-0.169-12.614-1.473-26.832-3.76-42.403c-1.957-13.321-4.591-27.323-7.749-41.697    c35.641,6.525,66.172,25.532,93.146,54.09c10.297,10.902,17.702,20.182,27.347,33.827c-3.993,0.499-7.894,0.958-11.651,1.361    c-1.376,0.148-2.73,0.288-4.062,0.421c-0.148,0.015-0.284,0.051-0.429,0.073c-9.819,0.964-18.179,1.488-24.628,1.489    C245.376,153.933,236.808,153.387,226.73,152.386z M301.494,166.715c6.492-0.862,12.853-1.78,18.888-2.702    c0.065-0.01,0.131-0.02,0.196-0.03c0.412-0.063,0.836-0.126,1.245-0.189c1.193-0.184,2.322-0.361,3.391-0.53    c2.447,2.728,5.227,5.752,5.453,6.007c3.833,4.343,6.956,8.459,9.97,13.392c25.767,42.184,31.858,127.385,5.904,288.881    c-1.376,0.369-2.857,0.76-4.436,1.168c-7.611,1.967-15.901,3.936-24.575,5.773c-1.424,0.301-2.846,0.597-4.267,0.886    c36.931-159.979,30.002-241.583-19.603-311.656C296.235,167.398,298.843,167.067,301.494,166.715z M342.833,17.079    c-0.288,0.938-0.583,1.904-0.883,2.896c-3.229,10.673-6.456,22.245-9.469,34.314c-3.673,14.711-6.763,29.111-9.096,42.88    c-1.237-1.753-2.354-3.32-3.223-4.511c-8.097-11.1-16.284-21.156-25.308-30.711c-8.756-9.272-17.887-17.634-27.423-24.998    C290.364,23.929,315.344,16.965,342.833,17.079z M278.789,485.081c-9.78,1.155-18.789,1.764-26.849,1.764    s-17.069-0.609-26.849-1.764c-5.312-0.627-10.789-1.414-16.375-2.326c-39.276-166.65-31.37-244.543,20.939-312.946    c8.63,0.774,16.13,1.192,22.285,1.192c0.005,0,0.011,0,0.016,0s0.011,0,0.016,0c6.099,0,13.52-0.411,22.049-1.171    c52.298,68.403,60.197,146.303,20.914,312.963C289.428,483.688,284.029,484.462,278.789,485.081z"/>
	</g>
</g>
<g>
</g>
<g>
</g>
<g>
</g>
<g>
</g>
<g>
</g>
<g>
</g>
<g>
</g>
<g>
</g>
<g>
</g>
<g>
</g>
<g>
</g>
<g>
</g>
<g>
</g>
<g>
</g>
<g>
</g>
</svg>
